  0
SECTION
  2
HEADER
  9
$ACADVER
  1
AC1009
  9
$INSBASE
 10
0.0
 20
0.0
 30
0.0
  9
$EXTMIN
 10
5.673064104545233
 20
4.175088156937135
 30
0.0
  9
$EXTMAX
 10
201.2769273669366896
 20
87.0994911124746665
 30
0.0
  9
$LIMMIN
 10
0.0
 20
0.0
  9
$LIMMAX
 10
420.0
 20
297.0
  9
$ORTHOMODE
 70
     0
  9
$REGENMODE
 70
     1
  9
$FILLMODE
 70
     1
  9
$QTEXTMODE
 70
     0
  9
$MIRRTEXT
 70
     0
  9
$DRAGMODE
 70
     2
  9
$LTSCALE
 40
1.0
  9
$OSMODE
 70
    37
  9
$ATTMODE
 70
     1
  9
$TEXTSIZE
 40
2.5
  9
$TRACEWID
 40
1.0
  9
$TEXTSTYLE
  7
STANDARD
  9
$CLAYER
  8
0
  9
$CELTYPE
  6
BYLAYER
  9
$CECOLOR
 62
    32
  9
$DIMSCALE
 40
1.0
  9
$DIMASZ
 40
2.5
  9
$DIMEXO
 40
0.625
  9
$DIMDLI
 40
3.75
  9
$DIMRND
 40
0.0
  9
$DIMDLE
 40
0.0
  9
$DIMEXE
 40
1.25
  9
$DIMTP
 40
0.0
  9
$DIMTM
 40
0.0
  9
$DIMTXT
 40
2.5
  9
$DIMCEN
 40
2.5
  9
$DIMTSZ
 40
0.0
  9
$DIMTOL
 70
     0
  9
$DIMLIM
 70
     0
  9
$DIMTIH
 70
     0
  9
$DIMTOH
 70
     0
  9
$DIMSE1
 70
     0
  9
$DIMSE2
 70
     0
  9
$DIMTAD
 70
     1
  9
$DIMZIN
 70
     8
  9
$DIMBLK
  1

  9
$DIMASO
 70
     1
  9
$DIMSHO
 70
     1
  9
$DIMPOST
  1

  9
$DIMAPOST
  1

  9
$DIMALT
 70
     0
  9
$DIMALTD
 70
     3
  9
$DIMALTF
 40
0.03937007874016
  9
$DIMLFAC
 40
1.0
  9
$DIMTOFL
 70
     1
  9
$DIMTVP
 40
0.0
  9
$DIMTIX
 70
     0
  9
$DIMSOXD
 70
     0
  9
$DIMSAH
 70
     0
  9
$DIMBLK1
  1

  9
$DIMBLK2
  1

  9
$DIMSTYLE
  2
ISO-25
  9
$DIMCLRD
 70
     0
  9
$DIMCLRE
 70
     0
  9
$DIMCLRT
 70
     0
  9
$DIMTFAC
 40
1.0
  9
$DIMGAP
 40
0.625
  9
$LUNITS
 70
     2
  9
$LUPREC
 70
     4
  9
$SKETCHINC
 40
1.0
  9
$FILLETRAD
 40
0.0
  9
$AUNITS
 70
     0
  9
$AUPREC
 70
     0
  9
$MENU
  1
.
  9
$ELEVATION
 40
0.0
  9
$PELEVATION
 40
0.0
  9
$THICKNESS
 40
0.0
  9
$LIMCHECK
 70
     0
  9
$BLIPMODE
 70
     0
  9
$CHAMFERA
 40
0.0
  9
$CHAMFERB
 40
0.0
  9
$SKPOLY
 70
     0
  9
$TDCREATE
 40
2458875.5968749998137355
  9
$TDUPDATE
 40
2458875.6161458329297602
  9
$TDINDWG
 40
0.0192708333
  9
$TDUSRTIMER
 40
0.0192708333
  9
$USRTIMER
 70
     1
  9
$ANGBASE
 50
0.0
  9
$ANGDIR
 70
     0
  9
$PDMODE
 70
     0
  9
$PDSIZE
 40
0.0
  9
$PLINEWID
 40
0.0
  9
$COORDS
 70
     1
  9
$SPLFRAME
 70
     0
  9
$SPLINETYPE
 70
     6
  9
$SPLINESEGS
 70
     8
  9
$ATTDIA
 70
     1
  9
$ATTREQ
 70
     1
  9
$HANDLING
 70
     1
  9
$HANDSEED
  5
D08
  9
$SURFTAB1
 70
     6
  9
$SURFTAB2
 70
     6
  9
$SURFTYPE
 70
     6
  9
$SURFU
 70
     6
  9
$SURFV
 70
     6
  9
$UCSNAME
  2

  9
$UCSORG
 10
0.0
 20
0.0
 30
0.0
  9
$UCSXDIR
 10
1.0
 20
0.0
 30
0.0
  9
$UCSYDIR
 10
0.0
 20
1.0
 30
0.0
  9
$PUCSNAME
  2

  9
$PUCSORG
 10
0.0
 20
0.0
 30
0.0
  9
$PUCSXDIR
 10
1.0
 20
0.0
 30
0.0
  9
$PUCSYDIR
 10
0.0
 20
1.0
 30
0.0
  9
$USERI1
 70
     0
  9
$USERI2
 70
     0
  9
$USERI3
 70
     0
  9
$USERI4
 70
     0
  9
$USERI5
 70
     0
  9
$USERR1
 40
0.0
  9
$USERR2
 40
0.0
  9
$USERR3
 40
0.0
  9
$USERR4
 40
0.0
  9
$USERR5
 40
0.0
  9
$WORLDVIEW
 70
     1
  9
$SHADEDGE
 70
     3
  9
$SHADEDIF
 70
    70
  9
$TILEMODE
 70
     1
  9
$MAXACTVP
 70
    64
  9
$PLIMCHECK
 70
     0
  9
$PEXTMIN
 10
0.0
 20
0.0
 30
0.0
  9
$PEXTMAX
 10
0.0
 20
0.0
 30
0.0
  9
$PLIMMIN
 10
0.0
 20
0.0
  9
$PLIMMAX
 10
12.0
 20
9.0
  9
$UNITMODE
 70
     0
  9
$VISRETAIN
 70
     1
  9
$PLINEGEN
 70
     0
  9
$PSLTSCALE
 70
     1
  0
ENDSEC
  0
SECTION
  2
TABLES
  0
TABLE
  2
VPORT
 70
     1
  0
VPORT
  2
*ACTIVE
 70
     0
 10
0.0
 20
0.0
 11
1.0
 21
1.0
 12
65.7144000712658567
 22
15.6103663681373295
 13
0.0
 23
0.0
 14
10.0
 24
10.0
 15
10.0
 25
10.0
 16
0.0
 26
0.0
 36
1.0
 17
0.0
 27
0.0
 37
0.0
 40
166.9859022327030118
 41
2.3737499999999989
 42
50.0
 43
0.0
 44
0.0
 50
0.0
 51
0.0
 71
     0
 72
  1000
 73
     1
 74
     3
 75
     0
 76
     1
 77
     0
 78
     0
  0
ENDTAB
  0
TABLE
  2
LTYPE
 70
     3
  0
LTYPE
  2
CONTINUOUS
 70
     0
  3
Solid line
 72
    65
 73
     0
 40
0.0
  0
ENDTAB
  0
TABLE
  2
LAYER
 70
     6
  0
LAYER
  2
0
 70
     0
 62
     7
  6
CONTINUOUS
  0
ENDTAB
  0
TABLE
  2
STYLE
 70
     2
  0
STYLE
  2
STANDARD
 70
     0
 40
0.0
 41
1.0
 50
0.0
 71
     0
 42
2.5
  3
txt
  4

  0
ENDTAB
  0
TABLE
  2
VIEW
 70
     0
  0
ENDTAB
  0
TABLE
  2
UCS
 70
     0
  0
ENDTAB
  0
TABLE
  2
APPID
 70
    18
  0
APPID
  2
ACAD
 70
     0
  0
APPID
  2
ACAD_PSEXT
 70
     0
  0
APPID
  2
ACADANNOPO
 70
     0
  0
APPID
  2
ACADANNOTATIVE
 70
     0
  0
APPID
  2
ACAD_DSTYLE_DIMJAG
 70
     0
  0
APPID
  2
ACAD_DSTYLE_DIMTALN
 70
     0
  0
APPID
  2
ACAD_MLEADERVER
 70
     0
  0
APPID
  2
ACAD_NAV_VCDISPLAY
 70
     0
  0
APPID
  2
ACAECLAYERSTANDARD
 70
     0
  0
APPID
  2
ACAUTHENVIRON
 70
     0
  0
APPID
  2
ACDBDYNAMICBLOCKTRUENAME
 70
     0
  0
APPID
  2
ACDBDYNAMICBLOCKGUID
 70
     0
  0
APPID
  2
ACCMTRANSPARENCY
 70
     0
  0
APPID
  2
ACDBBLOCKREPETAG
 70
     0
  0
APPID
  2
GRADIENTCOLOR1ACI
 70
     0
  0
APPID
  2
GRADIENTCOLOR2ACI
 70
     0
  0
APPID
  2
ACDBBLOCKREPBTAG
 70
     0
  0
APPID
  2
ACAD_EXEMPT_FROM_CAD_STANDARDS
 70
     0
  0
ENDTAB
  0
TABLE
  2
DIMSTYLE
 70
     4
  0
DIMSTYLE
  2
STANDARD
 70
     0
  3

  4

  5

  6

  7

 40
1.0
 41
0.18
 42
0.0625
 43
0.38
 44
0.18
 45
0.0
 46
0.0
 47
0.0
 48
0.0
140
0.18
141
0.09
142
0.0
143
25.3999999999999986
144
1.0
145
0.0
146
1.0
147
0.09
 71
     0
 72
     0
 73
     1
 74
     1
 75
     0
 76
     0
 77
     0
 78
     0
170
     0
171
     2
172
     0
173
     0
174
     0
175
     0
176
     0
177
     0
178
     0
  0
DIMSTYLE
  2
ISO-25
 70
     0
  3

  4

  5

  6

  7

 40
1.0
 41
2.5
 42
0.625
 43
3.75
 44
1.25
 45
0.0
 46
0.0
 47
0.0
 48
0.0
140
2.5
141
2.5
142
0.0
143
0.03937007874016
144
1.0
145
0.0
146
1.0
147
0.625
 71
     0
 72
     0
 73
     0
 74
     0
 75
     0
 76
     0
 77
     1
 78
     8
170
     0
171
     3
172
     1
173
     0
174
     0
175
     0
176
     0
177
     0
178
     0
  0
ENDTAB
  0
ENDSEC
  0
SECTION
  2
BLOCKS
  0
BLOCK
  8
0
  2
$MODEL_SPACE
 70
     0
 10
0.0
 20
0.0
 30
0.0
  3
$MODEL_SPACE
  1

  0
ENDBLK
  5
21
  8
0
  0
BLOCK
 67
     1
  8
0
  2
$PAPER_SPACE
 70
     0
 10
0.0
 20
0.0
 30
0.0
  3
$PAPER_SPACE
  1

  0
ENDBLK
  5
D5
 67
     1
  8
0
  0
BLOCK
  8
0
 62
    32
  2
*U31
 70
     1
 10
0.0
 20
0.0
 30
0.0
  3
*U31
  1

  0
SOLID
  5
A3D
  8
0
  6
CONTINUOUS
 10
-8.4499999999966349
 20
-5.7499999999868123
 30
0.0
 11
-10.4500000000203705
 21
-6.2499999999836291
 31
0.0
 12
-7.9500000000116406
 22
-6.2499999999836291
 32
0.0
 13
-7.9500000000116406
 23
-6.2499999999836291
 33
0.0
210
0.0
220
0.0
230
-1.0
  0
SOLID
  5
A3E
  8
0
  6
CONTINUOUS
 10
-8.4499999999966349
 20
-5.7499999999868123
 30
0.0
 11
-10.4500000000261899
 21
-5.7499999999868123
 31
0.0
 12
-10.4500000000203705
 22
-6.2499999999836291
 32
0.0
 13
-10.4500000000203705
 23
-6.2499999999836291
 33
0.0
210
0.0
220
0.0
230
-1.0
  0
SOLID
  5
A3F
  8
0
  6
CONTINUOUS
 10
-5.4500000000116406
 20
-5.7499999999868123
 30
0.0
 11
-7.9500000000116406
 21
-6.2499999999836291
 31
0.0
 12
-5.4500000000087301
 22
-6.2499999999836291
 32
0.0
 13
-5.4500000000087301
 23
-6.2499999999836291
 33
0.0
210
0.0
220
0.0
230
-1.0
  0
SOLID
  5
A40
  8
0
  6
CONTINUOUS
 10
-5.4500000000116406
 20
-5.7499999999868123
 30
0.0
 11
-7.4500000000120963
 21
-5.7499999999868123
 31
0.0
 12
-7.9500000000116406
 22
-6.2499999999836291
 32
0.0
 13
-7.9500000000116406
 23
-6.2499999999836291
 33
0.0
210
0.0
220
0.0
230
-1.0
  0
SOLID
  5
A41
  8
0
  6
CONTINUOUS
 10
7.4499999999970887
 20
-5.7499999999868123
 30
0.0
 11
5.4499999999970887
 21
-6.2499999999836291
 31
0.0
 12
7.9499999999879938
 22
-6.2499999999836291
 32
0.0
 13
7.9499999999879938
 23
-6.2499999999836291
 33
0.0
210
0.0
220
0.0
230
-1.0
  0
SOLID
  5
A42
  8
0
  6
CONTINUOUS
 10
7.4499999999970887
 20
-5.7499999999868123
 30
0.0
 11
5.4499999999970887
 21
-5.7499999999868123
 31
0.0
 12
5.4499999999970887
 22
-6.2499999999836291
 32
0.0
 13
5.4499999999970887
 23
-6.2499999999836291
 33
0.0
210
0.0
220
0.0
230
-1.0
  0
SOLID
  5
A43
  8
0
  6
CONTINUOUS
 10
10.4499999999970896
 20
-5.7499999999868123
 30
0.0
 11
7.9500000000098217
 21
-6.2499999999836291
 31
0.0
 12
10.4499999999970896
 22
-6.2499999999836291
 32
0.0
 13
10.4499999999970896
 23
-6.2499999999836291
 33
0.0
210
0.0
220
0.0
230
-1.0
  0
SOLID
  5
A44
  8
0
  6
CONTINUOUS
 10
10.4499999999970896
 20
-5.7499999999868123
 30
0.0
 11
8.4500000000111868
 21
-5.7499999999868123
 31
0.0
 12
7.9500000000098217
 22
-6.2499999999836291
 32
0.0
 13
7.9500000000098217
 23
-6.2499999999836291
 33
0.0
210
0.0
220
0.0
230
-1.0
  0
SOLID
  5
A45
  8
0
  6
CONTINUOUS
 10
10.4499999999970896
 20
-7.217017556224163
 30
0.0
 11
10.3840351124547094
 21
-7.2829824437653761
 31
0.0
 12
10.4499999999961606
 22
-7.2829824437653761
 32
0.0
 13
10.4499999999961606
 23
-7.2829824437653761
 33
0.0
210
0.0
220
0.0
230
-1.0
  0
SOLID
  5
A46
  8
0
  6
CONTINUOUS
 10
7.9499999999970887
 20
-6.2499999999836291
 30
0.0
 11
5.4499999999970887
 21
-7.217017556224163
 31
0.0
 12
7.9499999999970887
 22
-7.217017556224163
 32
0.0
 13
7.9499999999970887
 23
-7.217017556224163
 33
0.0
210
0.0
220
0.0
230
-1.0
  0
SOLID
  5
A47
  8
0
  6
CONTINUOUS
 10
7.9499999999970887
 20
-6.2499999999836291
 30
0.0
 11
5.4499999999970887
 21
-6.2499999999836291
 31
0.0
 12
5.4499999999970887
 22
-7.217017556224163
 32
0.0
 13
5.4499999999970887
 23
-7.217017556224163
 33
0.0
210
0.0
220
0.0
230
-1.0
  0
SOLID
  5
A48
  8
0
  6
CONTINUOUS
 10
10.4499999999970896
 20
-6.2499999999836291
 30
0.0
 11
7.9499999999970887
 21
-7.217017556224163
 31
0.0
 12
10.4499999999970896
 22
-7.217017556224163
 32
0.0
 13
10.4499999999970896
 23
-7.217017556224163
 33
0.0
210
0.0
220
0.0
230
-1.0
  0
SOLID
  5
A49
  8
0
  6
CONTINUOUS
 10
10.4499999999970896
 20
-6.2499999999836291
 30
0.0
 11
7.9499999999970887
 21
-6.2499999999836291
 31
0.0
 12
7.9499999999970887
 22
-7.217017556224163
 32
0.0
 13
7.9499999999970887
 23
-7.217017556224163
 33
0.0
210
0.0
220
0.0
230
-1.0
  0
SOLID
  5
A4A
  8
0
  6
CONTINUOUS
 10
5.4499999999970887
 20
-7.2829824437653761
 30
0.0
 11
5.4499999999970887
 21
-8.2499999999868123
 31
0.0
 12
6.4170175562176146
 22
-8.2499999999868123
 32
0.0
 13
6.4170175562176146
 23
-8.2499999999868123
 33
0.0
210
0.0
220
0.0
230
-1.0
  0
SOLID
  5
A4B
  8
0
  6
CONTINUOUS
 10
7.9499999999970887
 20
-7.217017556224163
 30
0.0
 11
5.4499999999970887
 21
-7.2829824437653761
 31
0.0
 12
7.9499999999970887
 22
-7.2829824437653761
 32
0.0
 13
7.9499999999970887
 23
-7.2829824437653761
 33
0.0
210
0.0
220
0.0
230
-1.0
  0
SOLID
  5
A4C
  8
0
  6
CONTINUOUS
 10
7.9499999999970887
 20
-7.217017556224163
 30
0.0
 11
5.4499999999970887
 21
-7.217017556224163
 31
0.0
 12
5.4499999999970887
 22
-7.2829824437653761
 32
0.0
 13
5.4499999999970887
 23
-7.2829824437653761
 33
0.0
210
0.0
220
0.0
230
-1.0
  0
SOLID
  5
A4D
  8
0
  6
CONTINUOUS
 10
10.4499999999861704
 20
-7.217017556224163
 30
0.0
 11
7.9499999999970887
 21
-7.2829824437653761
 31
0.0
 12
10.3840351124445505
 22
-7.2829824437653761
 32
0.0
 13
10.3840351124445505
 23
-7.2829824437653761
 33
0.0
210
0.0
220
0.0
230
-1.0
  0
SOLID
  5
A4E
  8
0
  6
CONTINUOUS
 10
10.4499999999861704
 20
-7.217017556224163
 30
0.0
 11
7.9499999999970887
 21
-7.217017556224163
 31
0.0
 12
7.9499999999970887
 22
-7.2829824437653761
 32
0.0
 13
7.9499999999970887
 23
-7.2829824437653761
 33
0.0
210
0.0
220
0.0
230
-1.0
  0
SOLID
  5
A4F
  8
0
  6
CONTINUOUS
 10
-5.4500000000087301
 20
-6.2499999999836291
 30
0.0
 11
-10.4499999999970896
 21
-8.2499999999868123
 31
0.0
 12
-5.4499999999970887
 22
-8.2499999999868123
 32
0.0
 13
-5.4499999999970887
 23
-8.2499999999868123
 33
0.0
210
0.0
220
0.0
230
-1.0
  0
SOLID
  5
A50
  8
0
  6
CONTINUOUS
 10
-5.4500000000087301
 20
-6.2499999999836291
 30
0.0
 11
-10.4500000000203705
 21
-6.2499999999836291
 31
0.0
 12
-10.4499999999970896
 22
-8.2499999999868123
 32
0.0
 13
-10.4499999999970896
 23
-8.2499999999868123
 33
0.0
210
0.0
220
0.0
230
-1.0
  0
SOLID
  5
A51
  8
0
  6
CONTINUOUS
 10
7.9499999999970887
 20
-7.2829824437653761
 30
0.0
 11
6.4170175562185241
 21
-8.2499999999868123
 31
0.0
 12
7.9499999999970887
 22
-8.2499999999868123
 32
0.0
 13
7.9499999999970887
 23
-8.2499999999868123
 33
0.0
210
0.0
220
0.0
230
-1.0
  0
SOLID
  5
A52
  8
0
  6
CONTINUOUS
 10
7.9499999999970887
 20
-7.2829824437653761
 30
0.0
 11
5.450000000000272
 21
-7.2829824437653761
 31
0.0
 12
6.4170175562185241
 22
-8.2499999999868123
 32
0.0
 13
6.4170175562185241
 23
-8.2499999999868123
 33
0.0
210
0.0
220
0.0
230
-1.0
  0
SOLID
  5
A53
  8
0
  6
CONTINUOUS
 10
10.3840351124445505
 20
-7.2829824437653761
 30
0.0
 11
7.9499999999970887
 21
-8.2499999999868123
 31
0.0
 12
9.4170175562162513
 22
-8.2499999999868123
 32
0.0
 13
9.4170175562162513
 23
-8.2499999999868123
 33
0.0
210
0.0
220
0.0
230
-1.0
  0
SOLID
  5
A54
  8
0
  6
CONTINUOUS
 10
10.3840351124445505
 20
-7.2829824437653761
 30
0.0
 11
7.9499999999970887
 21
-7.2829824437653761
 31
0.0
 12
7.9499999999970887
 22
-8.2499999999868123
 32
0.0
 13
7.9499999999970887
 23
-8.2499999999868123
 33
0.0
210
0.0
220
0.0
230
-1.0
  0
SOLID
  5
A55
  8
0
  6
CONTINUOUS
 10
10.4499999999961606
 20
-7.2829824437653761
 30
0.0
 11
9.4170175562171607
 21
-8.2499999999868123
 31
0.0
 12
10.4499999999825306
 22
-8.2499999999868123
 32
0.0
 13
10.4499999999825306
 23
-8.2499999999868123
 33
0.0
210
0.0
220
0.0
230
-1.0
  0
SOLID
  5
A56
  8
0
  6
CONTINUOUS
 10
10.4499999999961606
 20
-7.2829824437653761
 30
0.0
 11
10.3840351124547094
 21
-7.2829824437653761
 31
0.0
 12
9.4170175562171607
 22
-8.2499999999868123
 32
0.0
 13
9.4170175562171607
 23
-8.2499999999868123
 33
0.0
210
0.0
220
0.0
230
-1.0
  0
SOLID
  5
A57
  8
0
  6
CONTINUOUS
 10
-12.7000000000116398
 20
-9.7499999999868123
 30
0.0
 11
-15.2000000000116398
 21
-14.4999999999863594
 31
0.0
 12
-12.7000000000116398
 22
-14.4999999999863594
 32
0.0
 13
-12.7000000000116398
 23
-14.4999999999863594
 33
0.0
210
0.0
220
0.0
230
-1.0
  0
SOLID
  5
A58
  8
0
  6
CONTINUOUS
 10
-12.7000000000116398
 20
-9.7499999999868123
 30
0.0
 11
-15.2000000000261899
 21
-9.7499999999868123
 31
0.0
 12
-15.2000000000116398
 22
-14.4999999999863594
 32
0.0
 13
-15.2000000000116398
 23
-14.4999999999863594
 33
0.0
210
0.0
220
0.0
230
-1.0
  0
SOLID
  5
A59
  8
0
  6
CONTINUOUS
 10
1.500000000014551
 20
-9.7499999999868123
 30
0.0
 11
-1.5
 21
-14.4999999999863594
 31
0.0
 12
1.5
 22
-14.4999999999863594
 32
0.0
 13
1.5
 23
-14.4999999999863594
 33
0.0
210
0.0
220
0.0
230
-1.0
  0
SOLID
  5
A5A
  8
0
  6
CONTINUOUS
 10
1.500000000014551
 20
-9.7499999999868123
 30
0.0
 11
-1.5
 21
-9.7499999999868123
 31
0.0
 12
-1.5
 22
-14.4999999999863594
 32
0.0
 13
-1.5
 23
-14.4999999999863594
 33
0.0
210
0.0
220
0.0
230
-1.0
  0
SOLID
  5
A5B
  8
0
  6
CONTINUOUS
 10
15.1999999999970896
 20
-9.7499999999868123
 30
0.0
 11
12.6999999999970896
 21
-14.4999999999863594
 31
0.0
 12
15.1999999999970896
 22
-14.4999999999863594
 32
0.0
 13
15.1999999999970896
 23
-14.4999999999863594
 33
0.0
210
0.0
220
0.0
230
-1.0
  0
SOLID
  5
A5C
  8
0
  6
CONTINUOUS
 10
15.1999999999970896
 20
-9.7499999999868123
 30
0.0
 11
12.6999999999970896
 21
-9.7499999999868123
 31
0.0
 12
12.6999999999970896
 22
-14.4999999999863594
 32
0.0
 13
12.6999999999970896
 23
-14.4999999999863594
 33
0.0
210
0.0
220
0.0
230
-1.0
  0
SOLID
  5
A5D
  8
0
  6
CONTINUOUS
 10
-12.7000000000116398
 20
-14.4999999999863594
 30
0.0
 11
-15.1962019382646893
 21
-14.5434120444030892
 31
0.0
 12
-12.7037980617585902
 22
-14.5434120444030892
 32
0.0
 13
-12.7037980617585902
 23
-14.5434120444030892
 33
0.0
210
0.0
220
0.0
230
-1.0
  0
SOLID
  5
A5E
  8
0
  6
CONTINUOUS
 10
-12.7000000000116398
 20
-14.4999999999863594
 30
0.0
 11
-15.2000000000116398
 21
-14.4999999999863594
 31
0.0
 12
-15.1962019382646893
 22
-14.5434120444030892
 32
0.0
 13
-15.1962019382646893
 23
-14.5434120444030892
 33
0.0
210
0.0
220
0.0
230
-1.0
  0
SOLID
  5
A5F
  8
0
  6
CONTINUOUS
 10
1.5
 20
-14.4999999999863594
 30
0.0
 11
-1.4962019382530509
 21
-14.5434120444030892
 31
0.0
 12
1.496201938253052
 22
-14.5434120444030892
 32
0.0
 13
1.496201938253052
 23
-14.5434120444030892
 33
0.0
210
0.0
220
0.0
230
-1.0
  0
SOLID
  5
A60
  8
0
  6
CONTINUOUS
 10
1.5
 20
-14.4999999999863594
 30
0.0
 11
-1.5
 21
-14.4999999999863594
 31
0.0
 12
-1.4962019382530509
 22
-14.5434120444030892
 32
0.0
 13
-1.4962019382530509
 23
-14.5434120444030892
 33
0.0
210
0.0
220
0.0
230
-1.0
  0
SOLID
  5
A61
  8
0
  6
CONTINUOUS
 10
15.1999999999970896
 20
-14.4999999999863594
 30
0.0
 11
12.70379806174404
 21
-14.5434120444030892
 31
0.0
 12
15.1962019382501392
 22
-14.5434120444030892
 32
0.0
 13
15.1962019382501392
 23
-14.5434120444030892
 33
0.0
210
0.0
220
0.0
230
-1.0
  0
SOLID
  5
A62
  8
0
  6
CONTINUOUS
 10
15.1999999999970896
 20
-14.4999999999863594
 30
0.0
 11
12.6999999999970896
 21
-14.4999999999863594
 31
0.0
 12
12.70379806174404
 22
-14.5434120444030892
 32
0.0
 13
12.70379806174404
 23
-14.5434120444030892
 33
0.0
210
0.0
220
0.0
230
-1.0
  0
SOLID
  5
A63
  8
0
  6
CONTINUOUS
 10
-12.7037980617585902
 20
-14.5434120444030892
 30
0.0
 11
-15.1849231552081196
 21
-14.5855050358177696
 31
0.0
 12
-12.7150768448151599
 22
-14.5855050358177696
 32
0.0
 13
-12.7150768448151599
 23
-14.5855050358177696
 33
0.0
210
0.0
220
0.0
230
-1.0
  0
SOLID
  5
A64
  8
0
  6
CONTINUOUS
 10
-12.7037980617585902
 20
-14.5434120444030892
 30
0.0
 11
-15.1962019382646893
 21
-14.5434120444030892
 31
0.0
 12
-15.1849231552081196
 22
-14.5855050358177696
 32
0.0
 13
-15.1849231552081196
 23
-14.5855050358177696
 33
0.0
210
0.0
220
0.0
230
-1.0
  0
SOLID
  5
A65
  8
0
  6
CONTINUOUS
 10
1.496201938253052
 20
-14.5434120444030892
 30
0.0
 11
-1.484923155196477
 21
-14.5855050358177696
 31
0.0
 12
1.484923155196477
 22
-14.5855050358177696
 32
0.0
 13
1.484923155196477
 23
-14.5855050358177696
 33
0.0
210
0.0
220
0.0
230
-1.0
  0
SOLID
  5
A66
  8
0
  6
CONTINUOUS
 10
1.496201938253052
 20
-14.5434120444030892
 30
0.0
 11
-1.4962019382530509
 21
-14.5434120444030892
 31
0.0
 12
-1.484923155196477
 22
-14.5855050358177696
 32
0.0
 13
-1.484923155196477
 23
-14.5855050358177696
 33
0.0
210
0.0
220
0.0
230
-1.0
  0
SOLID
  5
A67
  8
0
  6
CONTINUOUS
 10
15.1962019382501392
 20
-14.5434120444030892
 30
0.0
 11
12.7150768448006097
 21
-14.5855050358177696
 31
0.0
 12
15.1849231551935606
 22
-14.5855050358177696
 32
0.0
 13
15.1849231551935606
 23
-14.5855050358177696
 33
0.0
210
0.0
220
0.0
230
-1.0
  0
SOLID
  5
A68
  8
0
  6
CONTINUOUS
 10
15.1962019382501392
 20
-14.5434120444030892
 30
0.0
 11
12.70379806174404
 21
-14.5434120444030892
 31
0.0
 12
12.7150768448006097
 22
-14.5855050358177696
 32
0.0
 13
12.7150768448006097
 23
-14.5855050358177696
 33
0.0
210
0.0
220
0.0
230
-1.0
  0
SOLID
  5
A69
  8
0
  6
CONTINUOUS
 10
-12.7150768448151599
 20
-14.5855050358177696
 30
0.0
 11
-15.16650635095775
 21
-14.6249999999863594
 31
0.0
 12
-12.7334936490655295
 22
-14.6249999999863594
 32
0.0
 13
-12.7334936490655295
 23
-14.6249999999863594
 33
0.0
210
0.0
220
0.0
230
-1.0
  0
SOLID
  5
A6A
  8
0
  6
CONTINUOUS
 10
-12.7150768448151599
 20
-14.5855050358177696
 30
0.0
 11
-15.1849231552081196
 21
-14.5855050358177696
 31
0.0
 12
-15.16650635095775
 22
-14.6249999999863594
 32
0.0
 13
-15.16650635095775
 23
-14.6249999999863594
 33
0.0
210
0.0
220
0.0
230
-1.0
  0
SOLID
  5
A6B
  8
0
  6
CONTINUOUS
 10
1.484923155196477
 20
-14.5855050358177696
 30
0.0
 11
-1.4665063509461089
 21
-14.6249999999863594
 31
0.0
 12
1.4665063509461089
 22
-14.6249999999863594
 32
0.0
 13
1.4665063509461089
 23
-14.6249999999863594
 33
0.0
210
0.0
220
0.0
230
-1.0
  0
SOLID
  5
A6C
  8
0
  6
CONTINUOUS
 10
1.484923155196477
 20
-14.5855050358177696
 30
0.0
 11
-1.484923155196477
 21
-14.5855050358177696
 31
0.0
 12
-1.4665063509461089
 22
-14.6249999999863594
 32
0.0
 13
-1.4665063509461089
 23
-14.6249999999863594
 33
0.0
210
0.0
220
0.0
230
-1.0
  0
SOLID
  5
A6D
  8
0
  6
CONTINUOUS
 10
15.1849231551935606
 20
-14.5855050358177696
 30
0.0
 11
12.7334936490509794
 21
-14.6249999999863594
 31
0.0
 12
15.1665063509431999
 22
-14.6249999999863594
 32
0.0
 13
15.1665063509431999
 23
-14.6249999999863594
 33
0.0
210
0.0
220
0.0
230
-1.0
  0
SOLID
  5
A6E
  8
0
  6
CONTINUOUS
 10
15.1849231551935606
 20
-14.5855050358177696
 30
0.0
 11
12.7150768448006097
 21
-14.5855050358177696
 31
0.0
 12
12.7334936490509794
 22
-14.6249999999863594
 32
0.0
 13
12.7334936490509794
 23
-14.6249999999863594
 33
0.0
210
0.0
220
0.0
230
-1.0
  0
SOLID
  5
A6F
  8
0
  6
CONTINUOUS
 10
-12.7334936490655295
 20
-14.6249999999863594
 30
0.0
 11
-15.1415111107913791
 21
-14.6606969024079898
 31
0.0
 12
-12.7584888892319004
 22
-14.6606969024079898
 32
0.0
 13
-12.7584888892319004
 23
-14.6606969024079898
 33
0.0
210
0.0
220
0.0
230
-1.0
  0
SOLID
  5
A70
  8
0
  6
CONTINUOUS
 10
-12.7334936490655295
 20
-14.6249999999863594
 30
0.0
 11
-15.16650635095775
 21
-14.6249999999863594
 31
0.0
 12
-15.1415111107913791
 22
-14.6606969024079898
 32
0.0
 13
-15.1415111107913791
 23
-14.6606969024079898
 33
0.0
210
0.0
220
0.0
230
-1.0
  0
SOLID
  5
A71
  8
0
  6
CONTINUOUS
 10
1.4665063509461089
 20
-14.6249999999863594
 30
0.0
 11
-1.441511110779744
 21
-14.6606969024079898
 31
0.0
 12
1.441511110779744
 22
-14.6606969024079898
 32
0.0
 13
1.441511110779744
 23
-14.6606969024079898
 33
0.0
210
0.0
220
0.0
230
-1.0
  0
SOLID
  5
A72
  8
0
  6
CONTINUOUS
 10
1.4665063509461089
 20
-14.6249999999863594
 30
0.0
 11
-1.4665063509461089
 21
-14.6249999999863594
 31
0.0
 12
-1.441511110779744
 22
-14.6606969024079898
 32
0.0
 13
-1.441511110779744
 23
-14.6606969024079898
 33
0.0
210
0.0
220
0.0
230
-1.0
  0
SOLID
  5
A73
  8
0
  6
CONTINUOUS
 10
15.1665063509431999
 20
-14.6249999999863594
 30
0.0
 11
12.7584888892173396
 21
-14.6606969024079898
 31
0.0
 12
15.1415111107768308
 22
-14.6606969024079898
 32
0.0
 13
15.1415111107768308
 23
-14.6606969024079898
 33
0.0
210
0.0
220
0.0
230
-1.0
  0
SOLID
  5
A74
  8
0
  6
CONTINUOUS
 10
15.1665063509431999
 20
-14.6249999999863594
 30
0.0
 11
12.7334936490509794
 21
-14.6249999999863594
 31
0.0
 12
12.7584888892173396
 22
-14.6606969024079898
 32
0.0
 13
12.7584888892173396
 23
-14.6606969024079898
 33
0.0
210
0.0
220
0.0
230
-1.0
  0
SOLID
  5
A75
  8
0
  6
CONTINUOUS
 10
-12.7584888892319004
 20
-14.6606969024079898
 30
0.0
 11
-15.1106969024332702
 21
-14.6915111107661005
 31
0.0
 12
-12.7893030975900093
 22
-14.6915111107661005
 32
0.0
 13
-12.7893030975900093
 23
-14.6915111107661005
 33
0.0
210
0.0
220
0.0
230
-1.0
  0
SOLID
  5
A76
  8
0
  6
CONTINUOUS
 10
-12.7584888892319004
 20
-14.6606969024079898
 30
0.0
 11
-15.1415111107913791
 21
-14.6606969024079898
 31
0.0
 12
-15.1106969024332702
 22
-14.6915111107661005
 32
0.0
 13
-15.1106969024332702
 23
-14.6915111107661005
 33
0.0
210
0.0
220
0.0
230
-1.0
  0
SOLID
  5
A77
  8
0
  6
CONTINUOUS
 10
1.441511110779744
 20
-14.6606969024079898
 30
0.0
 11
-1.410696902421634
 21
-14.6915111107661005
 31
0.0
 12
1.410696902421634
 22
-14.6915111107661005
 32
0.0
 13
1.410696902421634
 23
-14.6915111107661005
 33
0.0
210
0.0
220
0.0
230
-1.0
  0
SOLID
  5
A78
  8
0
  6
CONTINUOUS
 10
1.441511110779744
 20
-14.6606969024079898
 30
0.0
 11
-1.441511110779744
 21
-14.6606969024079898
 31
0.0
 12
-1.410696902421634
 22
-14.6915111107661005
 32
0.0
 13
-1.410696902421634
 23
-14.6915111107661005
 33
0.0
210
0.0
220
0.0
230
-1.0
  0
SOLID
  5
A79
  8
0
  6
CONTINUOUS
 10
15.1415111107768308
 20
-14.6606969024079898
 30
0.0
 11
12.7893030975754503
 21
-14.6915111107661005
 31
0.0
 12
15.1106969024187201
 22
-14.6915111107661005
 32
0.0
 13
15.1106969024187201
 23
-14.6915111107661005
 33
0.0
210
0.0
220
0.0
230
-1.0
  0
SOLID
  5
A7A
  8
0
  6
CONTINUOUS
 10
15.1415111107768308
 20
-14.6606969024079898
 30
0.0
 11
12.7584888892173396
 21
-14.6606969024079898
 31
0.0
 12
12.7893030975754503
 22
-14.6915111107661005
 32
0.0
 13
12.7893030975754503
 23
-14.6915111107661005
 33
0.0
210
0.0
220
0.0
230
-1.0
  0
SOLID
  5
A7B
  8
0
  6
CONTINUOUS
 10
-12.7893030975900093
 20
-14.6915111107661005
 30
0.0
 11
-15.0750000000116398
 21
-14.7165063509324607
 31
0.0
 12
-12.8250000000116398
 22
-14.7165063509324607
 32
0.0
 13
-12.8250000000116398
 23
-14.7165063509324607
 33
0.0
210
0.0
220
0.0
230
-1.0
  0
SOLID
  5
A7C
  8
0
  6
CONTINUOUS
 10
-12.7893030975900093
 20
-14.6915111107661005
 30
0.0
 11
-15.1106969024332702
 21
-14.6915111107661005
 31
0.0
 12
-15.0750000000116398
 22
-14.7165063509324607
 32
0.0
 13
-15.0750000000116398
 23
-14.7165063509324607
 33
0.0
210
0.0
220
0.0
230
-1.0
  0
SOLID
  5
A7D
  8
0
  6
CONTINUOUS
 10
1.410696902421634
 20
-14.6915111107661005
 30
0.0
 11
-1.375
 21
-14.7165063509324607
 31
0.0
 12
1.375
 22
-14.7165063509324607
 32
0.0
 13
1.375
 23
-14.7165063509324607
 33
0.0
210
0.0
220
0.0
230
-1.0
  0
SOLID
  5
A7E
  8
0
  6
CONTINUOUS
 10
1.410696902421634
 20
-14.6915111107661005
 30
0.0
 11
-1.410696902421634
 21
-14.6915111107661005
 31
0.0
 12
-1.375
 22
-14.7165063509324607
 32
0.0
 13
-1.375
 23
-14.7165063509324607
 33
0.0
210
0.0
220
0.0
230
-1.0
  0
SOLID
  5
A7F
  8
0
  6
CONTINUOUS
 10
15.1106969024187201
 20
-14.6915111107661005
 30
0.0
 11
12.8249999999970896
 21
-14.7165063509324607
 31
0.0
 12
15.0749999999970896
 22
-14.7165063509324607
 32
0.0
 13
15.0749999999970896
 23
-14.7165063509324607
 33
0.0
210
0.0
220
0.0
230
-1.0
  0
SOLID
  5
A80
  8
0
  6
CONTINUOUS
 10
15.1106969024187201
 20
-14.6915111107661005
 30
0.0
 11
12.7893030975754503
 21
-14.6915111107661005
 31
0.0
 12
12.8249999999970896
 22
-14.7165063509324607
 32
0.0
 13
12.8249999999970896
 23
-14.7165063509324607
 33
0.0
210
0.0
220
0.0
230
-1.0
  0
SOLID
  5
A81
  8
0
  6
CONTINUOUS
 10
-12.8250000000116398
 20
-14.7165063509324607
 30
0.0
 11
-15.0355050358430606
 21
-14.7349231551828304
 31
0.0
 12
-12.8644949641802206
 22
-14.7349231551828304
 32
0.0
 13
-12.8644949641802206
 23
-14.7349231551828304
 33
0.0
210
0.0
220
0.0
230
-1.0
  0
SOLID
  5
A82
  8
0
  6
CONTINUOUS
 10
-12.8250000000116398
 20
-14.7165063509324607
 30
0.0
 11
-15.0750000000116398
 21
-14.7165063509324607
 31
0.0
 12
-15.0355050358430606
 22
-14.7349231551828304
 32
0.0
 13
-15.0355050358430606
 23
-14.7349231551828304
 33
0.0
210
0.0
220
0.0
230
-1.0
  0
SOLID
  5
A83
  8
0
  6
CONTINUOUS
 10
1.375
 20
-14.7165063509324607
 30
0.0
 11
-1.3355050358314171
 21
-14.7349231551828304
 31
0.0
 12
1.3355050358314171
 22
-14.7349231551828304
 32
0.0
 13
1.3355050358314171
 23
-14.7349231551828304
 33
0.0
210
0.0
220
0.0
230
-1.0
  0
SOLID
  5
A84
  8
0
  6
CONTINUOUS
 10
1.375
 20
-14.7165063509324607
 30
0.0
 11
-1.375
 21
-14.7165063509324607
 31
0.0
 12
-1.3355050358314171
 22
-14.7349231551828304
 32
0.0
 13
-1.3355050358314171
 23
-14.7349231551828304
 33
0.0
210
0.0
220
0.0
230
-1.0
  0
SOLID
  5
A85
  8
0
  6
CONTINUOUS
 10
15.0749999999970896
 20
-14.7165063509324607
 30
0.0
 11
12.8644949641656705
 21
-14.7349231551828304
 31
0.0
 12
15.0355050358284998
 22
-14.7349231551828304
 32
0.0
 13
15.0355050358284998
 23
-14.7349231551828304
 33
0.0
210
0.0
220
0.0
230
-1.0
  0
SOLID
  5
A86
  8
0
  6
CONTINUOUS
 10
15.0749999999970896
 20
-14.7165063509324607
 30
0.0
 11
12.8249999999970896
 21
-14.7165063509324607
 31
0.0
 12
12.8644949641656705
 22
-14.7349231551828304
 32
0.0
 13
12.8644949641656705
 23
-14.7349231551828304
 33
0.0
210
0.0
220
0.0
230
-1.0
  0
SOLID
  5
A87
  8
0
  6
CONTINUOUS
 10
-12.8644949641802206
 20
-14.7349231551828304
 30
0.0
 11
-14.9934120444283696
 21
-14.7462019382394107
 31
0.0
 12
-12.9065879555949099
 22
-14.7462019382394107
 32
0.0
 13
-12.9065879555949099
 23
-14.7462019382394107
 33
0.0
210
0.0
220
0.0
230
-1.0
  0
SOLID
  5
A88
  8
0
  6
CONTINUOUS
 10
-12.8644949641802206
 20
-14.7349231551828304
 30
0.0
 11
-15.0355050358430606
 21
-14.7349231551828304
 31
0.0
 12
-14.9934120444283696
 22
-14.7462019382394107
 32
0.0
 13
-14.9934120444283696
 23
-14.7462019382394107
 33
0.0
210
0.0
220
0.0
230
-1.0
  0
SOLID
  5
A89
  8
0
  6
CONTINUOUS
 10
1.3355050358314171
 20
-14.7349231551828304
 30
0.0
 11
-1.2934120444167321
 21
-14.7462019382394107
 31
0.0
 12
1.2934120444167321
 22
-14.7462019382394107
 32
0.0
 13
1.2934120444167321
 23
-14.7462019382394107
 33
0.0
210
0.0
220
0.0
230
-1.0
  0
SOLID
  5
A8A
  8
0
  6
CONTINUOUS
 10
1.3355050358314171
 20
-14.7349231551828304
 30
0.0
 11
-1.3355050358314171
 21
-14.7349231551828304
 31
0.0
 12
-1.2934120444167321
 22
-14.7462019382394107
 32
0.0
 13
-1.2934120444167321
 23
-14.7462019382394107
 33
0.0
210
0.0
220
0.0
230
-1.0
  0
SOLID
  5
A8B
  8
0
  6
CONTINUOUS
 10
15.0355050358284998
 20
-14.7349231551828304
 30
0.0
 11
12.9065879555803509
 21
-14.7462019382394107
 31
0.0
 12
14.9934120444138195
 22
-14.7462019382394107
 32
0.0
 13
14.9934120444138195
 23
-14.7462019382394107
 33
0.0
210
0.0
220
0.0
230
-1.0
  0
SOLID
  5
A8C
  8
0
  6
CONTINUOUS
 10
15.0355050358284998
 20
-14.7349231551828304
 30
0.0
 11
12.8644949641656705
 21
-14.7349231551828304
 31
0.0
 12
12.9065879555803509
 22
-14.7462019382394107
 32
0.0
 13
12.9065879555803509
 23
-14.7462019382394107
 33
0.0
210
0.0
220
0.0
230
-1.0
  0
SOLID
  5
A8D
  8
0
  6
CONTINUOUS
 10
-12.9065879555949099
 20
-14.7462019382394107
 30
0.0
 11
-14.9500000000116398
 21
-14.7499999999863594
 31
0.0
 12
-12.9500000000116398
 22
-14.7499999999863594
 32
0.0
 13
-12.9500000000116398
 23
-14.7499999999863594
 33
0.0
210
0.0
220
0.0
230
-1.0
  0
SOLID
  5
A8E
  8
0
  6
CONTINUOUS
 10
-12.9065879555949099
 20
-14.7462019382394107
 30
0.0
 11
-14.9934120444283696
 21
-14.7462019382394107
 31
0.0
 12
-14.9500000000116398
 22
-14.7499999999863594
 32
0.0
 13
-14.9500000000116398
 23
-14.7499999999863594
 33
0.0
210
0.0
220
0.0
230
-1.0
  0
SOLID
  5
A8F
  8
0
  6
CONTINUOUS
 10
1.2934120444167321
 20
-14.7462019382394107
 30
0.0
 11
-1.25
 21
-14.7499999999863594
 31
0.0
 12
1.25
 22
-14.7499999999863594
 32
0.0
 13
1.25
 23
-14.7499999999863594
 33
0.0
210
0.0
220
0.0
230
-1.0
  0
SOLID
  5
A90
  8
0
  6
CONTINUOUS
 10
1.2934120444167321
 20
-14.7462019382394107
 30
0.0
 11
-1.2934120444167321
 21
-14.7462019382394107
 31
0.0
 12
-1.25
 22
-14.7499999999863594
 32
0.0
 13
-1.25
 23
-14.7499999999863594
 33
0.0
210
0.0
220
0.0
230
-1.0
  0
SOLID
  5
A91
  8
0
  6
CONTINUOUS
 10
14.9934120444138195
 20
-14.7462019382394107
 30
0.0
 11
12.9499999999970896
 21
-14.7499999999863594
 31
0.0
 12
14.9499999999970896
 22
-14.7499999999863594
 32
0.0
 13
14.9499999999970896
 23
-14.7499999999863594
 33
0.0
210
0.0
220
0.0
230
-1.0
  0
SOLID
  5
A92
  8
0
  6
CONTINUOUS
 10
14.9934120444138195
 20
-14.7462019382394107
 30
0.0
 11
12.9065879555803509
 21
-14.7462019382394107
 31
0.0
 12
12.9499999999970896
 22
-14.7499999999863594
 32
0.0
 13
12.9499999999970896
 23
-14.7499999999863594
 33
0.0
210
0.0
220
0.0
230
-1.0
  0
LINE
  5
A93
  8
0
  6
CONTINUOUS
 10
7.9500000000116406
 20
-6.2499999999836291
 30
0.0
 11
8.4499999999966349
 21
-5.7499999999868123
 31
0.0
  0
LINE
  5
A94
  8
0
  6
CONTINUOUS
 10
10.4500000000261899
 20
-5.7499999999868123
 30
0.0
 11
10.4500000000203705
 21
-6.2499999999836291
 31
0.0
  0
LINE
  5
A95
  8
0
  6
CONTINUOUS
 10
5.4500000000087301
 20
-6.2499999999836291
 30
0.0
 11
5.4500000000116406
 21
-5.7499999999868123
 31
0.0
  0
LINE
  5
A96
  8
0
  6
CONTINUOUS
 10
7.4500000000120963
 20
-5.7499999999868123
 30
0.0
 11
7.9500000000116406
 21
-6.2499999999836291
 31
0.0
  0
LINE
  5
A97
  8
0
  6
CONTINUOUS
 10
-5.4499999999970887
 20
-5.7499999999868123
 30
0.0
 11
-5.4499999999970887
 21
-6.2499999999836291
 31
0.0
  0
LINE
  5
A98
  8
0
  6
CONTINUOUS
 10
-10.4499999999970896
 20
-6.2499999999836291
 30
0.0
 11
-10.4499999999970896
 21
-5.7499999999868123
 31
0.0
  0
LINE
  5
A99
  8
0
  6
CONTINUOUS
 10
-10.4499999999970896
 20
-7.217017556224163
 30
0.0
 11
-10.3840351124547094
 21
-7.2829824437653761
 31
0.0
  0
LINE
  5
A9A
  8
0
  6
CONTINUOUS
 10
-10.4499999999961606
 20
-7.2829824437653761
 30
0.0
 11
-10.4499999999970896
 21
-7.217017556224163
 31
0.0
  0
LINE
  5
A9B
  8
0
  6
CONTINUOUS
 10
-5.4499999999970887
 20
-6.2499999999836291
 30
0.0
 11
-5.4499999999970887
 21
-7.217017556224163
 31
0.0
  0
LINE
  5
A9C
  8
0
  6
CONTINUOUS
 10
-10.4499999999970896
 20
-7.217017556224163
 30
0.0
 11
-10.4499999999970896
 21
-6.2499999999836291
 31
0.0
  0
LINE
  5
A9D
  8
0
  6
CONTINUOUS
 10
-5.4499999999970887
 20
-7.2829824437653761
 30
0.0
 11
-5.4499999999970887
 21
-8.2499999999868123
 31
0.0
  0
LINE
  5
A9E
  8
0
  6
CONTINUOUS
 10
-6.4170175562176146
 20
-8.2499999999868123
 30
0.0
 11
-5.4499999999970887
 21
-7.2829824437653761
 31
0.0
  0
LINE
  5
A9F
  8
0
  6
CONTINUOUS
 10
-5.4499999999970887
 20
-7.217017556224163
 30
0.0
 11
-5.4499999999970887
 21
-7.2829824437653761
 31
0.0
  0
LINE
  5
AA0
  8
0
  6
CONTINUOUS
 10
-10.3840351124445505
 20
-7.2829824437653761
 30
0.0
 11
-10.4499999999861704
 21
-7.217017556224163
 31
0.0
  0
LINE
  5
AA1
  8
0
  6
CONTINUOUS
 10
5.4499999999970887
 20
-8.2499999999868123
 30
0.0
 11
5.4500000000087301
 21
-6.2499999999836291
 31
0.0
  0
LINE
  5
AA2
  8
0
  6
CONTINUOUS
 10
10.4500000000203705
 20
-6.2499999999836291
 30
0.0
 11
10.4499999999970896
 21
-8.2499999999868123
 31
0.0
  0
LINE
  5
AA3
  8
0
  6
CONTINUOUS
 10
-7.9499999999970887
 20
-8.2499999999868123
 30
0.0
 11
-7.9499999999970887
 21
-7.2829824437653761
 31
0.0
  0
LINE
  5
AA4
  8
0
  6
CONTINUOUS
 10
-5.450000000000272
 20
-7.2829824437653761
 30
0.0
 11
-6.4170175562185241
 21
-8.2499999999868123
 31
0.0
  0
LINE
  5
AA5
  8
0
  6
CONTINUOUS
 10
-7.9499999999970887
 20
-7.2829824437653761
 30
0.0
 11
-7.9499999999970887
 21
-8.2499999999868123
 31
0.0
  0
LINE
  5
AA6
  8
0
  6
CONTINUOUS
 10
-10.4499999999825306
 20
-8.2499999999868123
 30
0.0
 11
-10.4499999999961606
 21
-7.2829824437653761
 31
0.0
  0
LINE
  5
AA7
  8
0
  6
CONTINUOUS
 10
12.7000000000116398
 20
-14.4999999999863594
 30
0.0
 11
12.7000000000116398
 21
-9.7499999999868123
 31
0.0
  0
LINE
  5
AA8
  8
0
  6
CONTINUOUS
 10
15.2000000000261899
 20
-9.7499999999868123
 30
0.0
 11
15.2000000000116398
 21
-14.4999999999863594
 31
0.0
  0
LINE
  5
AA9
  8
0
  6
CONTINUOUS
 10
-1.5
 20
-14.4999999999863594
 30
0.0
 11
-1.500000000014551
 21
-9.7499999999868123
 31
0.0
  0
LINE
  5
AAA
  8
0
  6
CONTINUOUS
 10
1.5
 20
-9.7499999999868123
 30
0.0
 11
1.5
 21
-14.4999999999863594
 31
0.0
  0
LINE
  5
AAB
  8
0
  6
CONTINUOUS
 10
-15.1999999999970896
 20
-14.4999999999863594
 30
0.0
 11
-15.1999999999970896
 21
-9.7499999999868123
 31
0.0
  0
LINE
  5
AAC
  8
0
  6
CONTINUOUS
 10
-12.6999999999970896
 20
-9.7499999999868123
 30
0.0
 11
-12.6999999999970896
 21
-14.4999999999863594
 31
0.0
  0
LINE
  5
AAD
  8
0
  6
CONTINUOUS
 10
12.7037980617585902
 20
-14.5434120444030892
 30
0.0
 11
12.7000000000116398
 21
-14.4999999999863594
 31
0.0
  0
LINE
  5
AAE
  8
0
  6
CONTINUOUS
 10
15.2000000000116398
 20
-14.4999999999863594
 30
0.0
 11
15.1962019382646893
 21
-14.5434120444030892
 31
0.0
  0
LINE
  5
AAF
  8
0
  6
CONTINUOUS
 10
-1.496201938253052
 20
-14.5434120444030892
 30
0.0
 11
-1.5
 21
-14.4999999999863594
 31
0.0
  0
LINE
  5
AB0
  8
0
  6
CONTINUOUS
 10
1.5
 20
-14.4999999999863594
 30
0.0
 11
1.4962019382530509
 21
-14.5434120444030892
 31
0.0
  0
LINE
  5
AB1
  8
0
  6
CONTINUOUS
 10
-15.1962019382501392
 20
-14.5434120444030892
 30
0.0
 11
-15.1999999999970896
 21
-14.4999999999863594
 31
0.0
  0
LINE
  5
AB2
  8
0
  6
CONTINUOUS
 10
-12.6999999999970896
 20
-14.4999999999863594
 30
0.0
 11
-12.70379806174404
 21
-14.5434120444030892
 31
0.0
  0
LINE
  5
AB3
  8
0
  6
CONTINUOUS
 10
12.7150768448151599
 20
-14.5855050358177696
 30
0.0
 11
12.7037980617585902
 21
-14.5434120444030892
 31
0.0
  0
LINE
  5
AB4
  8
0
  6
CONTINUOUS
 10
15.1962019382646893
 20
-14.5434120444030892
 30
0.0
 11
15.1849231552081196
 21
-14.5855050358177696
 31
0.0
  0
LINE
  5
AB5
  8
0
  6
CONTINUOUS
 10
-1.484923155196477
 20
-14.5855050358177696
 30
0.0
 11
-1.496201938253052
 21
-14.5434120444030892
 31
0.0
  0
LINE
  5
AB6
  8
0
  6
CONTINUOUS
 10
1.4962019382530509
 20
-14.5434120444030892
 30
0.0
 11
1.484923155196477
 21
-14.5855050358177696
 31
0.0
  0
LINE
  5
AB7
  8
0
  6
CONTINUOUS
 10
-15.1849231551935606
 20
-14.5855050358177696
 30
0.0
 11
-15.1962019382501392
 21
-14.5434120444030892
 31
0.0
  0
LINE
  5
AB8
  8
0
  6
CONTINUOUS
 10
-12.70379806174404
 20
-14.5434120444030892
 30
0.0
 11
-12.7150768448006097
 21
-14.5855050358177696
 31
0.0
  0
LINE
  5
AB9
  8
0
  6
CONTINUOUS
 10
12.7334936490655295
 20
-14.6249999999863594
 30
0.0
 11
12.7150768448151599
 21
-14.5855050358177696
 31
0.0
  0
LINE
  5
ABA
  8
0
  6
CONTINUOUS
 10
15.1849231552081196
 20
-14.5855050358177696
 30
0.0
 11
15.16650635095775
 21
-14.6249999999863594
 31
0.0
  0
LINE
  5
ABB
  8
0
  6
CONTINUOUS
 10
-1.4665063509461089
 20
-14.6249999999863594
 30
0.0
 11
-1.484923155196477
 21
-14.5855050358177696
 31
0.0
  0
LINE
  5
ABC
  8
0
  6
CONTINUOUS
 10
1.484923155196477
 20
-14.5855050358177696
 30
0.0
 11
1.4665063509461089
 21
-14.6249999999863594
 31
0.0
  0
LINE
  5
ABD
  8
0
  6
CONTINUOUS
 10
-15.1665063509431999
 20
-14.6249999999863594
 30
0.0
 11
-15.1849231551935606
 21
-14.5855050358177696
 31
0.0
  0
LINE
  5
ABE
  8
0
  6
CONTINUOUS
 10
-12.7150768448006097
 20
-14.5855050358177696
 30
0.0
 11
-12.7334936490509794
 21
-14.6249999999863594
 31
0.0
  0
LINE
  5
ABF
  8
0
  6
CONTINUOUS
 10
12.7584888892319004
 20
-14.6606969024079898
 30
0.0
 11
12.7334936490655295
 21
-14.6249999999863594
 31
0.0
  0
LINE
  5
AC0
  8
0
  6
CONTINUOUS
 10
15.16650635095775
 20
-14.6249999999863594
 30
0.0
 11
15.1415111107913791
 21
-14.6606969024079898
 31
0.0
  0
LINE
  5
AC1
  8
0
  6
CONTINUOUS
 10
-1.441511110779744
 20
-14.6606969024079898
 30
0.0
 11
-1.4665063509461089
 21
-14.6249999999863594
 31
0.0
  0
LINE
  5
AC2
  8
0
  6
CONTINUOUS
 10
1.4665063509461089
 20
-14.6249999999863594
 30
0.0
 11
1.441511110779744
 21
-14.6606969024079898
 31
0.0
  0
LINE
  5
AC3
  8
0
  6
CONTINUOUS
 10
-15.1415111107768308
 20
-14.6606969024079898
 30
0.0
 11
-15.1665063509431999
 21
-14.6249999999863594
 31
0.0
  0
LINE
  5
AC4
  8
0
  6
CONTINUOUS
 10
-12.7334936490509794
 20
-14.6249999999863594
 30
0.0
 11
-12.7584888892173396
 21
-14.6606969024079898
 31
0.0
  0
LINE
  5
AC5
  8
0
  6
CONTINUOUS
 10
12.7893030975900093
 20
-14.6915111107661005
 30
0.0
 11
12.7584888892319004
 21
-14.6606969024079898
 31
0.0
  0
LINE
  5
AC6
  8
0
  6
CONTINUOUS
 10
15.1415111107913791
 20
-14.6606969024079898
 30
0.0
 11
15.1106969024332702
 21
-14.6915111107661005
 31
0.0
  0
LINE
  5
AC7
  8
0
  6
CONTINUOUS
 10
-1.410696902421634
 20
-14.6915111107661005
 30
0.0
 11
-1.441511110779744
 21
-14.6606969024079898
 31
0.0
  0
LINE
  5
AC8
  8
0
  6
CONTINUOUS
 10
1.441511110779744
 20
-14.6606969024079898
 30
0.0
 11
1.410696902421634
 21
-14.6915111107661005
 31
0.0
  0
LINE
  5
AC9
  8
0
  6
CONTINUOUS
 10
-15.1106969024187201
 20
-14.6915111107661005
 30
0.0
 11
-15.1415111107768308
 21
-14.6606969024079898
 31
0.0
  0
LINE
  5
ACA
  8
0
  6
CONTINUOUS
 10
-12.7584888892173396
 20
-14.6606969024079898
 30
0.0
 11
-12.7893030975754503
 21
-14.6915111107661005
 31
0.0
  0
LINE
  5
ACB
  8
0
  6
CONTINUOUS
 10
12.8250000000116398
 20
-14.7165063509324607
 30
0.0
 11
12.7893030975900093
 21
-14.6915111107661005
 31
0.0
  0
LINE
  5
ACC
  8
0
  6
CONTINUOUS
 10
15.1106969024332702
 20
-14.6915111107661005
 30
0.0
 11
15.0750000000116398
 21
-14.7165063509324607
 31
0.0
  0
LINE
  5
ACD
  8
0
  6
CONTINUOUS
 10
-1.375
 20
-14.7165063509324607
 30
0.0
 11
-1.410696902421634
 21
-14.6915111107661005
 31
0.0
  0
LINE
  5
ACE
  8
0
  6
CONTINUOUS
 10
1.410696902421634
 20
-14.6915111107661005
 30
0.0
 11
1.375
 21
-14.7165063509324607
 31
0.0
  0
LINE
  5
ACF
  8
0
  6
CONTINUOUS
 10
-15.0749999999970896
 20
-14.7165063509324607
 30
0.0
 11
-15.1106969024187201
 21
-14.6915111107661005
 31
0.0
  0
LINE
  5
AD0
  8
0
  6
CONTINUOUS
 10
-12.7893030975754503
 20
-14.6915111107661005
 30
0.0
 11
-12.8249999999970896
 21
-14.7165063509324607
 31
0.0
  0
LINE
  5
AD1
  8
0
  6
CONTINUOUS
 10
12.8644949641802206
 20
-14.7349231551828304
 30
0.0
 11
12.8250000000116398
 21
-14.7165063509324607
 31
0.0
  0
LINE
  5
AD2
  8
0
  6
CONTINUOUS
 10
15.0750000000116398
 20
-14.7165063509324607
 30
0.0
 11
15.0355050358430606
 21
-14.7349231551828304
 31
0.0
  0
LINE
  5
AD3
  8
0
  6
CONTINUOUS
 10
-1.3355050358314171
 20
-14.7349231551828304
 30
0.0
 11
-1.375
 21
-14.7165063509324607
 31
0.0
  0
LINE
  5
AD4
  8
0
  6
CONTINUOUS
 10
1.375
 20
-14.7165063509324607
 30
0.0
 11
1.3355050358314171
 21
-14.7349231551828304
 31
0.0
  0
LINE
  5
AD5
  8
0
  6
CONTINUOUS
 10
-15.0355050358284998
 20
-14.7349231551828304
 30
0.0
 11
-15.0749999999970896
 21
-14.7165063509324607
 31
0.0
  0
LINE
  5
AD6
  8
0
  6
CONTINUOUS
 10
-12.8249999999970896
 20
-14.7165063509324607
 30
0.0
 11
-12.8644949641656705
 21
-14.7349231551828304
 31
0.0
  0
LINE
  5
AD7
  8
0
  6
CONTINUOUS
 10
12.9065879555949099
 20
-14.7462019382394107
 30
0.0
 11
12.8644949641802206
 21
-14.7349231551828304
 31
0.0
  0
LINE
  5
AD8
  8
0
  6
CONTINUOUS
 10
15.0355050358430606
 20
-14.7349231551828304
 30
0.0
 11
14.9934120444283696
 21
-14.7462019382394107
 31
0.0
  0
LINE
  5
AD9
  8
0
  6
CONTINUOUS
 10
-1.2934120444167321
 20
-14.7462019382394107
 30
0.0
 11
-1.3355050358314171
 21
-14.7349231551828304
 31
0.0
  0
LINE
  5
ADA
  8
0
  6
CONTINUOUS
 10
1.3355050358314171
 20
-14.7349231551828304
 30
0.0
 11
1.2934120444167321
 21
-14.7462019382394107
 31
0.0
  0
LINE
  5
ADB
  8
0
  6
CONTINUOUS
 10
-14.9934120444138195
 20
-14.7462019382394107
 30
0.0
 11
-15.0355050358284998
 21
-14.7349231551828304
 31
0.0
  0
LINE
  5
ADC
  8
0
  6
CONTINUOUS
 10
-12.8644949641656705
 20
-14.7349231551828304
 30
0.0
 11
-12.9065879555803509
 21
-14.7462019382394107
 31
0.0
  0
LINE
  5
ADD
  8
0
  6
CONTINUOUS
 10
12.9500000000116398
 20
-14.7499999999863594
 30
0.0
 11
12.9065879555949099
 21
-14.7462019382394107
 31
0.0
  0
LINE
  5
ADE
  8
0
  6
CONTINUOUS
 10
14.9934120444283696
 20
-14.7462019382394107
 30
0.0
 11
14.9500000000116398
 21
-14.7499999999863594
 31
0.0
  0
LINE
  5
ADF
  8
0
  6
CONTINUOUS
 10
-1.25
 20
-14.7499999999863594
 30
0.0
 11
-1.2934120444167321
 21
-14.7462019382394107
 31
0.0
  0
LINE
  5
AE0
  8
0
  6
CONTINUOUS
 10
1.2934120444167321
 20
-14.7462019382394107
 30
0.0
 11
1.25
 21
-14.7499999999863594
 31
0.0
  0
LINE
  5
AE1
  8
0
  6
CONTINUOUS
 10
-14.9499999999970896
 20
-14.7499999999863594
 30
0.0
 11
-14.9934120444138195
 21
-14.7462019382394107
 31
0.0
  0
LINE
  5
AE2
  8
0
  6
CONTINUOUS
 10
-12.9065879555803509
 20
-14.7462019382394107
 30
0.0
 11
-12.9499999999970896
 21
-14.7499999999863594
 31
0.0
  0
ENDBLK
  5
AE4
  8
0
 62
    32
  0
BLOCK
  8
0
 62
    32
  2
*U32
 70
     1
 10
0.0
 20
0.0
 30
0.0
  3
*U32
  1

  0
SOLID
  5
AE6
  8
0
  6
CONTINUOUS
 10
-25.337414184701629
 20
-23.20000000001437
 30
0.0
 11
-27.5110623623685591
 21
-23.215192247002161
 31
0.0
 12
-25.1637660070346989
 22
-23.215192247002161
 32
0.0
 13
-25.1637660070346989
 23
-23.215192247002161
 33
0.0
210
0.0
220
0.0
230
-1.0
  0
SOLID
  5
AE7
  8
0
  6
CONTINUOUS
 10
-25.337414184701629
 20
-23.20000000001437
 30
0.0
 11
-27.337414184701629
 21
-23.20000000001437
 31
0.0
 12
-27.5110623623685591
 22
-23.215192247002161
 32
0.0
 13
-27.5110623623685591
 23
-23.215192247002161
 33
0.0
210
0.0
220
0.0
230
-1.0
  0
SOLID
  5
AE8
  8
0
  6
CONTINUOUS
 10
-25.1637660070346989
 20
-23.215192247002161
 30
0.0
 11
-27.6794343280272983
 21
-23.2603073792284611
 31
0.0
 12
-24.9953940413759597
 22
-23.2603073792284611
 32
0.0
 13
-24.9953940413759597
 23
-23.2603073792284611
 33
0.0
210
0.0
220
0.0
230
-1.0
  0
SOLID
  5
AE9
  8
0
  6
CONTINUOUS
 10
-25.1637660070346989
 20
-23.215192247002161
 30
0.0
 11
-27.5110623623685591
 21
-23.215192247002161
 31
0.0
 12
-27.6794343280272983
 22
-23.2603073792284611
 32
0.0
 13
-27.6794343280272983
 23
-23.2603073792284611
 33
0.0
210
0.0
220
0.0
230
-1.0
  0
SOLID
  5
AEA
  8
0
  6
CONTINUOUS
 10
-24.9953940413759597
 20
-23.2603073792284611
 30
0.0
 11
-27.837414184701629
 21
-23.333974596229929
 31
0.0
 12
-24.837414184701629
 22
-23.333974596229929
 32
0.0
 13
-24.837414184701629
 23
-23.333974596229929
 33
0.0
210
0.0
220
0.0
230
-1.0
  0
SOLID
  5
AEB
  8
0
  6
CONTINUOUS
 10
-24.9953940413759597
 20
-23.2603073792284611
 30
0.0
 11
-27.6794343280272983
 21
-23.2603073792284611
 31
0.0
 12
-27.837414184701629
 22
-23.333974596229929
 32
0.0
 13
-27.837414184701629
 23
-23.333974596229929
 33
0.0
210
0.0
220
0.0
230
-1.0
  0
SOLID
  5
AEC
  8
0
  6
CONTINUOUS
 10
-24.837414184701629
 20
-23.333974596229929
 30
0.0
 11
-27.9802017943881687
 21
-23.4339555568953912
 31
0.0
 12
-24.6946265750150893
 22
-23.4339555568953912
 32
0.0
 13
-24.6946265750150893
 23
-23.4339555568953912
 33
0.0
210
0.0
220
0.0
230
-1.0
  0
SOLID
  5
AED
  8
0
  6
CONTINUOUS
 10
-24.837414184701629
 20
-23.333974596229929
 30
0.0
 11
-27.837414184701629
 21
-23.333974596229929
 31
0.0
 12
-27.9802017943881687
 22
-23.4339555568953912
 32
0.0
 13
-27.9802017943881687
 23
-23.4339555568953912
 33
0.0
210
0.0
220
0.0
230
-1.0
  0
SOLID
  5
AEE
  8
0
  6
CONTINUOUS
 10
-24.6946265750150893
 20
-23.4339555568953912
 30
0.0
 11
-28.1034586278206113
 21
-23.5572123903278303
 31
0.0
 12
-24.5713697415826502
 22
-23.5572123903278303
 32
0.0
 13
-24.5713697415826502
 23
-23.5572123903278303
 33
0.0
210
0.0
220
0.0
230
-1.0
  0
SOLID
  5
AEF
  8
0
  6
CONTINUOUS
 10
-24.6946265750150893
 20
-23.4339555568953912
 30
0.0
 11
-27.9802017943881687
 21
-23.4339555568953912
 31
0.0
 12
-28.1034586278206113
 22
-23.5572123903278303
 32
0.0
 13
-28.1034586278206113
 23
-23.5572123903278303
 33
0.0
210
0.0
220
0.0
230
-1.0
  0
SOLID
  5
AF0
  8
0
  6
CONTINUOUS
 10
-24.5713697415826502
 20
-23.5572123903278303
 30
0.0
 11
-28.20343958848607
 21
-23.70000000001437
 31
0.0
 12
-24.4713887809171915
 22
-23.70000000001437
 32
0.0
 13
-24.4713887809171915
 23
-23.70000000001437
 33
0.0
210
0.0
220
0.0
230
-1.0
  0
SOLID
  5
AF1
  8
0
  6
CONTINUOUS
 10
-24.5713697415826502
 20
-23.5572123903278303
 30
0.0
 11
-28.1034586278206113
 21
-23.5572123903278303
 31
0.0
 12
-28.20343958848607
 22
-23.70000000001437
 32
0.0
 13
-28.20343958848607
 23
-23.70000000001437
 33
0.0
210
0.0
220
0.0
230
-1.0
  0
SOLID
  5
AF2
  8
0
  6
CONTINUOUS
 10
-24.4713887809171915
 20
-23.70000000001437
 30
0.0
 11
-28.2771068054875414
 21
-23.8579798566887007
 31
0.0
 12
-24.3977215639157201
 22
-23.8579798566887007
 32
0.0
 13
-24.3977215639157201
 23
-23.8579798566887007
 33
0.0
210
0.0
220
0.0
230
-1.0
  0
SOLID
  5
AF3
  8
0
  6
CONTINUOUS
 10
-24.4713887809171915
 20
-23.70000000001437
 30
0.0
 11
-28.20343958848607
 21
-23.70000000001437
 31
0.0
 12
-28.2771068054875414
 22
-23.8579798566887007
 32
0.0
 13
-28.2771068054875414
 23
-23.8579798566887007
 33
0.0
210
0.0
220
0.0
230
-1.0
  0
SOLID
  5
AF4
  8
0
  6
CONTINUOUS
 10
-24.3977215639157201
 20
-23.8579798566887007
 30
0.0
 11
-28.3222219377138416
 21
-24.0263518223474399
 31
0.0
 12
-24.35260643168942
 22
-24.0263518223474399
 32
0.0
 13
-24.35260643168942
 23
-24.0263518223474399
 33
0.0
210
0.0
220
0.0
230
-1.0
  0
SOLID
  5
AF5
  8
0
  6
CONTINUOUS
 10
-24.3977215639157201
 20
-23.8579798566887007
 30
0.0
 11
-28.2771068054875414
 21
-23.8579798566887007
 31
0.0
 12
-28.3222219377138416
 22
-24.0263518223474399
 32
0.0
 13
-28.3222219377138416
 23
-24.0263518223474399
 33
0.0
210
0.0
220
0.0
230
-1.0
  0
SOLID
  5
AF6
  8
0
  6
CONTINUOUS
 10
-24.35260643168942
 20
-24.0263518223474399
 30
0.0
 11
-28.337414184701629
 21
-24.20000000001437
 31
0.0
 12
-24.337414184701629
 22
-24.20000000001437
 32
0.0
 13
-24.337414184701629
 23
-24.20000000001437
 33
0.0
210
0.0
220
0.0
230
-1.0
  0
SOLID
  5
AF7
  8
0
  6
CONTINUOUS
 10
-24.35260643168942
 20
-24.0263518223474399
 30
0.0
 11
-28.3222219377138416
 21
-24.0263518223474399
 31
0.0
 12
-28.337414184701629
 22
-24.20000000001437
 32
0.0
 13
-28.337414184701629
 23
-24.20000000001437
 33
0.0
210
0.0
220
0.0
230
-1.0
  0
SOLID
  5
AF8
  8
0
  6
CONTINUOUS
 10
-24.337414184701629
 20
-24.20000000001437
 30
0.0
 11
-28.3222219377138416
 21
-24.3736481776813001
 31
0.0
 12
-24.35260643168942
 22
-24.3736481776813001
 32
0.0
 13
-24.35260643168942
 23
-24.3736481776813001
 33
0.0
210
0.0
220
0.0
230
-1.0
  0
SOLID
  5
AF9
  8
0
  6
CONTINUOUS
 10
-24.337414184701629
 20
-24.20000000001437
 30
0.0
 11
-28.337414184701629
 21
-24.20000000001437
 31
0.0
 12
-28.3222219377138416
 22
-24.3736481776813001
 32
0.0
 13
-28.3222219377138416
 23
-24.3736481776813001
 33
0.0
210
0.0
220
0.0
230
-1.0
  0
SOLID
  5
AFA
  8
0
  6
CONTINUOUS
 10
-24.35260643168942
 20
-24.3736481776813001
 30
0.0
 11
-28.2771068054875414
 21
-24.5420201433400393
 31
0.0
 12
-24.3977215639157201
 22
-24.5420201433400393
 32
0.0
 13
-24.3977215639157201
 23
-24.5420201433400393
 33
0.0
210
0.0
220
0.0
230
-1.0
  0
SOLID
  5
AFB
  8
0
  6
CONTINUOUS
 10
-24.35260643168942
 20
-24.3736481776813001
 30
0.0
 11
-28.3222219377138416
 21
-24.3736481776813001
 31
0.0
 12
-28.2771068054875414
 22
-24.5420201433400393
 32
0.0
 13
-28.2771068054875414
 23
-24.5420201433400393
 33
0.0
210
0.0
220
0.0
230
-1.0
  0
SOLID
  5
AFC
  8
0
  6
CONTINUOUS
 10
-24.3977215639157201
 20
-24.5420201433400393
 30
0.0
 11
-28.20343958848607
 21
-24.70000000001437
 31
0.0
 12
-24.4713887809171915
 22
-24.70000000001437
 32
0.0
 13
-24.4713887809171915
 23
-24.70000000001437
 33
0.0
210
0.0
220
0.0
230
-1.0
  0
SOLID
  5
AFD
  8
0
  6
CONTINUOUS
 10
-24.3977215639157201
 20
-24.5420201433400393
 30
0.0
 11
-28.2771068054875414
 21
-24.5420201433400393
 31
0.0
 12
-28.20343958848607
 22
-24.70000000001437
 32
0.0
 13
-28.20343958848607
 23
-24.70000000001437
 33
0.0
210
0.0
220
0.0
230
-1.0
  0
SOLID
  5
AFE
  8
0
  6
CONTINUOUS
 10
-24.4713887809171915
 20
-24.70000000001437
 30
0.0
 11
-28.1034586278206113
 21
-24.8427876097009097
 31
0.0
 12
-24.5713697415826502
 22
-24.8427876097009097
 32
0.0
 13
-24.5713697415826502
 23
-24.8427876097009097
 33
0.0
210
0.0
220
0.0
230
-1.0
  0
SOLID
  5
AFF
  8
0
  6
CONTINUOUS
 10
-24.4713887809171915
 20
-24.70000000001437
 30
0.0
 11
-28.20343958848607
 21
-24.70000000001437
 31
0.0
 12
-28.1034586278206113
 22
-24.8427876097009097
 32
0.0
 13
-28.1034586278206113
 23
-24.8427876097009097
 33
0.0
210
0.0
220
0.0
230
-1.0
  0
SOLID
  5
B00
  8
0
  6
CONTINUOUS
 10
-24.5713697415826502
 20
-24.8427876097009097
 30
0.0
 11
-27.9802017943881687
 21
-24.9660444431333488
 31
0.0
 12
-24.6946265750150893
 22
-24.9660444431333488
 32
0.0
 13
-24.6946265750150893
 23
-24.9660444431333488
 33
0.0
210
0.0
220
0.0
230
-1.0
  0
SOLID
  5
B01
  8
0
  6
CONTINUOUS
 10
-24.5713697415826502
 20
-24.8427876097009097
 30
0.0
 11
-28.1034586278206113
 21
-24.8427876097009097
 31
0.0
 12
-27.9802017943881687
 22
-24.9660444431333488
 32
0.0
 13
-27.9802017943881687
 23
-24.9660444431333488
 33
0.0
210
0.0
220
0.0
230
-1.0
  0
SOLID
  5
B02
  8
0
  6
CONTINUOUS
 10
-24.6946265750150893
 20
-24.9660444431333488
 30
0.0
 11
-27.837414184701629
 21
-25.0660254037988111
 31
0.0
 12
-24.837414184701629
 22
-25.0660254037988111
 32
0.0
 13
-24.837414184701629
 23
-25.0660254037988111
 33
0.0
210
0.0
220
0.0
230
-1.0
  0
SOLID
  5
B03
  8
0
  6
CONTINUOUS
 10
-24.6946265750150893
 20
-24.9660444431333488
 30
0.0
 11
-27.9802017943881687
 21
-24.9660444431333488
 31
0.0
 12
-27.837414184701629
 22
-25.0660254037988111
 32
0.0
 13
-27.837414184701629
 23
-25.0660254037988111
 33
0.0
210
0.0
220
0.0
230
-1.0
  0
SOLID
  5
B04
  8
0
  6
CONTINUOUS
 10
-24.837414184701629
 20
-25.0660254037988111
 30
0.0
 11
-27.6794343280272983
 21
-25.1396926208002789
 31
0.0
 12
-24.9953940413759597
 22
-25.1396926208002789
 32
0.0
 13
-24.9953940413759597
 23
-25.1396926208002789
 33
0.0
210
0.0
220
0.0
230
-1.0
  0
SOLID
  5
B05
  8
0
  6
CONTINUOUS
 10
-24.837414184701629
 20
-25.0660254037988111
 30
0.0
 11
-27.837414184701629
 21
-25.0660254037988111
 31
0.0
 12
-27.6794343280272983
 22
-25.1396926208002789
 32
0.0
 13
-27.6794343280272983
 23
-25.1396926208002789
 33
0.0
210
0.0
220
0.0
230
-1.0
  0
SOLID
  5
B06
  8
0
  6
CONTINUOUS
 10
-24.9953940413759597
 20
-25.1396926208002789
 30
0.0
 11
-27.5110623623685591
 21
-25.184807753026579
 31
0.0
 12
-25.1637660070346989
 22
-25.184807753026579
 32
0.0
 13
-25.1637660070346989
 23
-25.184807753026579
 33
0.0
210
0.0
220
0.0
230
-1.0
  0
SOLID
  5
B07
  8
0
  6
CONTINUOUS
 10
-24.9953940413759597
 20
-25.1396926208002789
 30
0.0
 11
-27.6794343280272983
 21
-25.1396926208002789
 31
0.0
 12
-27.5110623623685591
 22
-25.184807753026579
 32
0.0
 13
-27.5110623623685591
 23
-25.184807753026579
 33
0.0
210
0.0
220
0.0
230
-1.0
  0
SOLID
  5
B08
  8
0
  6
CONTINUOUS
 10
-25.1637660070346989
 20
-25.184807753026579
 30
0.0
 11
-27.337414184701629
 21
-25.20000000001437
 31
0.0
 12
-25.337414184701629
 22
-25.20000000001437
 32
0.0
 13
-25.337414184701629
 23
-25.20000000001437
 33
0.0
210
0.0
220
0.0
230
-1.0
  0
SOLID
  5
B09
  8
0
  6
CONTINUOUS
 10
-25.1637660070346989
 20
-25.184807753026579
 30
0.0
 11
-27.5110623623685591
 21
-25.184807753026579
 31
0.0
 12
-27.337414184701629
 22
-25.20000000001437
 32
0.0
 13
-27.337414184701629
 23
-25.20000000001437
 33
0.0
210
0.0
220
0.0
230
-1.0
  0
LINE
  5
B0A
  8
0
  6
CONTINUOUS
 10
25.1637660070346989
 20
-23.215192247002161
 30
0.0
 11
25.337414184701629
 21
-23.20000000001437
 31
0.0
  0
LINE
  5
B0B
  8
0
  6
CONTINUOUS
 10
27.337414184701629
 20
-23.20000000001437
 30
0.0
 11
27.5110623623685591
 21
-23.215192247002161
 31
0.0
  0
LINE
  5
B0C
  8
0
  6
CONTINUOUS
 10
24.9953940413759597
 20
-23.2603073792284611
 30
0.0
 11
25.1637660070346989
 21
-23.215192247002161
 31
0.0
  0
LINE
  5
B0D
  8
0
  6
CONTINUOUS
 10
27.5110623623685591
 20
-23.215192247002161
 30
0.0
 11
27.6794343280272983
 21
-23.2603073792284611
 31
0.0
  0
LINE
  5
B0E
  8
0
  6
CONTINUOUS
 10
24.837414184701629
 20
-23.333974596229929
 30
0.0
 11
24.9953940413759597
 21
-23.2603073792284611
 31
0.0
  0
LINE
  5
B0F
  8
0
  6
CONTINUOUS
 10
27.6794343280272983
 20
-23.2603073792284611
 30
0.0
 11
27.837414184701629
 21
-23.333974596229929
 31
0.0
  0
LINE
  5
B10
  8
0
  6
CONTINUOUS
 10
24.6946265750150893
 20
-23.4339555568953912
 30
0.0
 11
24.837414184701629
 21
-23.333974596229929
 31
0.0
  0
LINE
  5
B11
  8
0
  6
CONTINUOUS
 10
27.837414184701629
 20
-23.333974596229929
 30
0.0
 11
27.9802017943881687
 21
-23.4339555568953912
 31
0.0
  0
LINE
  5
B12
  8
0
  6
CONTINUOUS
 10
24.5713697415826502
 20
-23.5572123903278303
 30
0.0
 11
24.6946265750150893
 21
-23.4339555568953912
 31
0.0
  0
LINE
  5
B13
  8
0
  6
CONTINUOUS
 10
27.9802017943881687
 20
-23.4339555568953912
 30
0.0
 11
28.1034586278206113
 21
-23.5572123903278303
 31
0.0
  0
LINE
  5
B14
  8
0
  6
CONTINUOUS
 10
24.4713887809171915
 20
-23.70000000001437
 30
0.0
 11
24.5713697415826502
 21
-23.5572123903278303
 31
0.0
  0
LINE
  5
B15
  8
0
  6
CONTINUOUS
 10
28.1034586278206113
 20
-23.5572123903278303
 30
0.0
 11
28.20343958848607
 21
-23.70000000001437
 31
0.0
  0
LINE
  5
B16
  8
0
  6
CONTINUOUS
 10
24.3977215639157201
 20
-23.8579798566887007
 30
0.0
 11
24.4713887809171915
 21
-23.70000000001437
 31
0.0
  0
LINE
  5
B17
  8
0
  6
CONTINUOUS
 10
28.20343958848607
 20
-23.70000000001437
 30
0.0
 11
28.2771068054875414
 21
-23.8579798566887007
 31
0.0
  0
LINE
  5
B18
  8
0
  6
CONTINUOUS
 10
24.35260643168942
 20
-24.0263518223474399
 30
0.0
 11
24.3977215639157201
 21
-23.8579798566887007
 31
0.0
  0
LINE
  5
B19
  8
0
  6
CONTINUOUS
 10
28.2771068054875414
 20
-23.8579798566887007
 30
0.0
 11
28.3222219377138416
 21
-24.0263518223474399
 31
0.0
  0
LINE
  5
B1A
  8
0
  6
CONTINUOUS
 10
24.337414184701629
 20
-24.20000000001437
 30
0.0
 11
24.35260643168942
 21
-24.0263518223474399
 31
0.0
  0
LINE
  5
B1B
  8
0
  6
CONTINUOUS
 10
28.3222219377138416
 20
-24.0263518223474399
 30
0.0
 11
28.337414184701629
 21
-24.20000000001437
 31
0.0
  0
LINE
  5
B1C
  8
0
  6
CONTINUOUS
 10
24.35260643168942
 20
-24.3736481776813001
 30
0.0
 11
24.337414184701629
 21
-24.20000000001437
 31
0.0
  0
LINE
  5
B1D
  8
0
  6
CONTINUOUS
 10
28.337414184701629
 20
-24.20000000001437
 30
0.0
 11
28.3222219377138416
 21
-24.3736481776813001
 31
0.0
  0
LINE
  5
B1E
  8
0
  6
CONTINUOUS
 10
24.3977215639157201
 20
-24.5420201433400393
 30
0.0
 11
24.35260643168942
 21
-24.3736481776813001
 31
0.0
  0
LINE
  5
B1F
  8
0
  6
CONTINUOUS
 10
28.3222219377138416
 20
-24.3736481776813001
 30
0.0
 11
28.2771068054875414
 21
-24.5420201433400393
 31
0.0
  0
LINE
  5
B20
  8
0
  6
CONTINUOUS
 10
24.4713887809171915
 20
-24.70000000001437
 30
0.0
 11
24.3977215639157201
 21
-24.5420201433400393
 31
0.0
  0
LINE
  5
B21
  8
0
  6
CONTINUOUS
 10
28.2771068054875414
 20
-24.5420201433400393
 30
0.0
 11
28.20343958848607
 21
-24.70000000001437
 31
0.0
  0
LINE
  5
B22
  8
0
  6
CONTINUOUS
 10
24.5713697415826502
 20
-24.8427876097009097
 30
0.0
 11
24.4713887809171915
 21
-24.70000000001437
 31
0.0
  0
LINE
  5
B23
  8
0
  6
CONTINUOUS
 10
28.20343958848607
 20
-24.70000000001437
 30
0.0
 11
28.1034586278206113
 21
-24.8427876097009097
 31
0.0
  0
LINE
  5
B24
  8
0
  6
CONTINUOUS
 10
24.6946265750150893
 20
-24.9660444431333488
 30
0.0
 11
24.5713697415826502
 21
-24.8427876097009097
 31
0.0
  0
LINE
  5
B25
  8
0
  6
CONTINUOUS
 10
28.1034586278206113
 20
-24.8427876097009097
 30
0.0
 11
27.9802017943881687
 21
-24.9660444431333488
 31
0.0
  0
LINE
  5
B26
  8
0
  6
CONTINUOUS
 10
24.837414184701629
 20
-25.0660254037988111
 30
0.0
 11
24.6946265750150893
 21
-24.9660444431333488
 31
0.0
  0
LINE
  5
B27
  8
0
  6
CONTINUOUS
 10
27.9802017943881687
 20
-24.9660444431333488
 30
0.0
 11
27.837414184701629
 21
-25.0660254037988111
 31
0.0
  0
LINE
  5
B28
  8
0
  6
CONTINUOUS
 10
24.9953940413759597
 20
-25.1396926208002789
 30
0.0
 11
24.837414184701629
 21
-25.0660254037988111
 31
0.0
  0
LINE
  5
B29
  8
0
  6
CONTINUOUS
 10
27.837414184701629
 20
-25.0660254037988111
 30
0.0
 11
27.6794343280272983
 21
-25.1396926208002789
 31
0.0
  0
LINE
  5
B2A
  8
0
  6
CONTINUOUS
 10
25.1637660070346989
 20
-25.184807753026579
 30
0.0
 11
24.9953940413759597
 21
-25.1396926208002789
 31
0.0
  0
LINE
  5
B2B
  8
0
  6
CONTINUOUS
 10
27.6794343280272983
 20
-25.1396926208002789
 30
0.0
 11
27.5110623623685591
 21
-25.184807753026579
 31
0.0
  0
LINE
  5
B2C
  8
0
  6
CONTINUOUS
 10
25.337414184701629
 20
-25.20000000001437
 30
0.0
 11
25.1637660070346989
 21
-25.184807753026579
 31
0.0
  0
LINE
  5
B2D
  8
0
  6
CONTINUOUS
 10
27.5110623623685591
 20
-25.184807753026579
 30
0.0
 11
27.337414184701629
 21
-25.20000000001437
 31
0.0
  0
ENDBLK
  5
B2F
  8
0
 62
    32
  0
BLOCK
  8
0
 62
    32
  2
*U33
 70
     1
 10
0.0
 20
0.0
 30
0.0
  3
*U33
  1

  0
SOLID
  5
C9E
  8
0
  6
CONTINUOUS
 62
     2
 10
-19.0000000000004512
 20
-12.0000000000001101
 30
0.0
 11
-21.0000000000004512
 21
-15.0000000000001101
 31
0.0
 12
-19.0000000000004512
 22
-15.0000000000001101
 32
0.0
 13
-19.0000000000004512
 23
-15.0000000000001101
 33
0.0
210
0.0
220
0.0
230
-1.0
  0
SOLID
  5
C9F
  8
0
  6
CONTINUOUS
 62
     2
 10
-19.0000000000004512
 20
-12.0000000000001101
 30
0.0
 11
-21.0000000000004512
 21
-12.0000000000001101
 31
0.0
 12
-21.0000000000004512
 22
-15.0000000000001101
 32
0.0
 13
-21.0000000000004512
 23
-15.0000000000001101
 33
0.0
210
0.0
220
0.0
230
-1.0
  0
SOLID
  5
CA0
  8
0
  6
CONTINUOUS
 62
     2
 10
7.5999999999980901
 20
-12.0000000000001101
 30
0.0
 11
5.5999999999980901
 21
-15.0000000000001101
 31
0.0
 12
7.5999999999980901
 22
-15.0000000000001101
 32
0.0
 13
7.5999999999980901
 23
-15.0000000000001101
 33
0.0
210
0.0
220
0.0
230
-1.0
  0
SOLID
  5
CA1
  8
0
  6
CONTINUOUS
 62
     2
 10
7.5999999999980901
 20
-12.0000000000001101
 30
0.0
 11
5.5999999999980901
 21
-12.0000000000001101
 31
0.0
 12
5.5999999999980901
 22
-15.0000000000001101
 32
0.0
 13
5.5999999999980901
 23
-15.0000000000001101
 33
0.0
210
0.0
220
0.0
230
-1.0
  0
SOLID
  5
CA2
  8
0
  6
CONTINUOUS
 62
     2
 10
-18.0000000000004512
 20
-15.0000000000001101
 30
0.0
 11
-21.0000000000004512
 21
-17.0000000000001101
 31
0.0
 12
-18.0000000000004512
 22
-17.0000000000001101
 32
0.0
 13
-18.0000000000004512
 23
-17.0000000000001101
 33
0.0
210
0.0
220
0.0
230
-1.0
  0
SOLID
  5
CA3
  8
0
  6
CONTINUOUS
 62
     2
 10
-18.0000000000004512
 20
-15.0000000000001101
 30
0.0
 11
-21.0000000000004512
 21
-15.0000000000001101
 31
0.0
 12
-21.0000000000004512
 22
-17.0000000000001101
 32
0.0
 13
-21.0000000000004512
 23
-17.0000000000001101
 33
0.0
210
0.0
220
0.0
230
-1.0
  0
SOLID
  5
CA4
  8
0
  6
CONTINUOUS
 62
     2
 10
7.5999999999980901
 20
-15.0000000000001101
 30
0.0
 11
4.5999999999980901
 21
-17.0000000000001101
 31
0.0
 12
7.5999999999980901
 22
-17.0000000000001101
 32
0.0
 13
7.5999999999980901
 23
-17.0000000000001101
 33
0.0
210
0.0
220
0.0
230
-1.0
  0
SOLID
  5
CA5
  8
0
  6
CONTINUOUS
 62
     2
 10
7.5999999999980901
 20
-15.0000000000001101
 30
0.0
 11
4.5999999999980901
 21
-15.0000000000001101
 31
0.0
 12
4.5999999999980901
 22
-17.0000000000001101
 32
0.0
 13
4.5999999999980901
 23
-17.0000000000001101
 33
0.0
210
0.0
220
0.0
230
-1.0
  0
LINE
  5
CA6
  8
0
  6
CONTINUOUS
 62
     2
 10
19.0000000000004512
 20
-15.0000000000001101
 30
0.0
 11
19.0000000000004512
 21
-12.0000000000001101
 31
0.0
  0
LINE
  5
CA7
  8
0
  6
CONTINUOUS
 62
     2
 10
21.0000000000004512
 20
-12.0000000000001101
 30
0.0
 11
21.0000000000004512
 21
-15.0000000000001101
 31
0.0
  0
LINE
  5
CA8
  8
0
  6
CONTINUOUS
 62
     2
 10
-7.5999999999980901
 20
-15.0000000000001101
 30
0.0
 11
-7.5999999999980901
 21
-12.0000000000001101
 31
0.0
  0
LINE
  5
CA9
  8
0
  6
CONTINUOUS
 62
     2
 10
-5.5999999999980901
 20
-12.0000000000001101
 30
0.0
 11
-5.5999999999980901
 21
-15.0000000000001101
 31
0.0
  0
LINE
  5
CAA
  8
0
  6
CONTINUOUS
 62
     2
 10
18.0000000000004512
 20
-17.0000000000001101
 30
0.0
 11
18.0000000000004512
 21
-15.0000000000001101
 31
0.0
  0
LINE
  5
CAB
  8
0
  6
CONTINUOUS
 62
     2
 10
21.0000000000004512
 20
-15.0000000000001101
 30
0.0
 11
21.0000000000004512
 21
-17.0000000000001101
 31
0.0
  0
LINE
  5
CAC
  8
0
  6
CONTINUOUS
 62
     2
 10
-7.5999999999980901
 20
-17.0000000000001101
 30
0.0
 11
-7.5999999999980901
 21
-15.0000000000001101
 31
0.0
  0
LINE
  5
CAD
  8
0
  6
CONTINUOUS
 62
     2
 10
-4.5999999999980901
 20
-15.0000000000001101
 30
0.0
 11
-4.5999999999980901
 21
-17.0000000000001101
 31
0.0
  0
ENDBLK
  5
CAF
  8
0
 62
    32
  0
BLOCK
  8
0
 62
    32
  2
*U34
 70
     1
 10
0.0
 20
0.0
 30
0.0
  3
*U34
  1

  0
SOLID
  5
CB1
  8
0
  6
CONTINUOUS
 62
     2
 10
-46.7322799281832815
 20
-52.583176317119019
 30
0.0
 11
-48.1463059825293911
 21
-53.9973273722116005
 31
0.0
 12
-45.3180038612922473
 22
-53.9973273722116005
 32
0.0
 13
-45.3180038612922473
 23
-53.9973273722116005
 33
0.0
210
0.0
220
0.0
230
-1.0
  0
SOLID
  5
CB2
  8
0
  6
CONTINUOUS
 62
     2
 10
-45.3181288620405596
 20
-53.9974523840100531
 30
0.0
 11
-48.1464309832777033
 21
-53.9974523840100531
 31
0.0
 12
-46.732154916383017
 22
-55.4116034391026417
 32
0.0
 13
-46.732154916383017
 23
-55.4116034391026417
 33
0.0
210
0.0
220
0.0
230
-1.0
  0
SOLID
  5
CB3
  8
0
  6
CONTINUOUS
 62
     2
 10
-45.3180038612922473
 20
-53.9973273722116005
 30
0.0
 11
-48.1464309832777033
 21
-53.9974523840100531
 31
0.0
 12
-45.3181288620405596
 22
-53.9974523840100531
 32
0.0
 13
-45.3181288620405596
 23
-53.9974523840100531
 33
0.0
210
0.0
220
0.0
230
-1.0
  0
SOLID
  5
CB4
  8
0
  6
CONTINUOUS
 62
     2
 10
-45.3180038612922473
 20
-53.9973273722116005
 30
0.0
 11
-48.1463059825293911
 21
-53.9973273722116005
 31
0.0
 12
-48.1464309832777033
 22
-53.9974523840100531
 32
0.0
 13
-48.1464309832777033
 23
-53.9974523840100531
 33
0.0
210
0.0
220
0.0
230
-1.0
  0
LINE
  5
CB5
  8
0
  6
CONTINUOUS
 62
     2
 10
46.7322799281832815
 20
-52.583176317119019
 30
0.0
 11
48.1463059825293911
 21
-53.9973273722116005
 31
0.0
  0
LINE
  5
CB6
  8
0
  6
CONTINUOUS
 62
     2
 10
45.3180038612922473
 20
-53.9973273722116005
 30
0.0
 11
46.7322799281832815
 21
-52.583176317119019
 31
0.0
  0
LINE
  5
CB7
  8
0
  6
CONTINUOUS
 62
     2
 10
48.1464309832777033
 20
-53.9974523840100531
 30
0.0
 11
46.732154916383017
 21
-55.4116034391026417
 31
0.0
  0
LINE
  5
CB8
  8
0
  6
CONTINUOUS
 62
     2
 10
46.732154916383017
 20
-55.4116034391026417
 30
0.0
 11
45.3181288620405596
 21
-53.9974523840100531
 31
0.0
  0
LINE
  5
CB9
  8
0
  6
CONTINUOUS
 62
     2
 10
45.3181288620405596
 20
-53.9974523840100531
 30
0.0
 11
45.3180038612922473
 21
-53.9973273722116005
 31
0.0
  0
LINE
  5
CBA
  8
0
  6
CONTINUOUS
 62
     2
 10
48.1463059825293911
 20
-53.9973273722116005
 30
0.0
 11
48.1464309832777033
 21
-53.9974523840100531
 31
0.0
  0
ENDBLK
  5
CBC
  8
0
 62
    32
  0
ENDSEC
  0
SECTION
  2
ENTITIES
  0
POLYLINE
  5
657
  8
0
 62
    32
 66
     1
 10
0.0
 20
0.0
 30
0.0
 70
     1
  0
VERTEX
  5
CC0
  8
0
 62
    32
 10
175.6730641045452046
 20
30.1750881569371394
 30
0.0
  0
VERTEX
  5
CC1
  8
0
 62
    32
 10
175.6730641045452046
 20
57.1708671980070378
 30
0.0
  0
VERTEX
  5
CC2
  8
0
 62
    32
 10
171.6730641045452046
 20
57.1708671980070378
 30
0.0
  0
VERTEX
  5
CC3
  8
0
 62
    32
 10
171.6730641045452046
 20
32.175088156937143
 30
0.0
 42
-0.4142135623730951
  0
VERTEX
  5
CC4
  8
0
 62
    32
 10
169.6730641045452046
 20
30.1750881569371394
 30
0.0
  0
VERTEX
  5
CC5
  8
0
 62
    32
 10
9.673064104545233
 20
30.1750881569371394
 30
0.0
 42
0.4142135623730951
  0
VERTEX
  5
CC6
  8
0
 62
    32
 10
5.673064104545233
 20
26.1750881569371394
 30
0.0
  0
VERTEX
  5
CC7
  8
0
 62
    32
 10
5.673064104545233
 20
4.175088156937135
 30
0.0
  0
VERTEX
  5
CC8
  8
0
 62
    32
 10
9.673064104545233
 20
4.175088156937135
 30
0.0
  0
VERTEX
  5
CC9
  8
0
 62
    32
 10
9.673064104545233
 20
24.1750881569371394
 30
0.0
 42
-0.4142135623730951
  0
VERTEX
  5
CCA
  8
0
 62
    32
 10
11.6730641045452295
 20
26.1750881569371394
 30
0.0
  0
VERTEX
  5
CCB
  8
0
 62
    32
 10
171.6730641045452046
 20
26.1750881569371394
 30
0.0
 42
0.4142135623730942
  0
SEQEND
  5
CCC
  8
0
 62
    32
  0
POLYLINE
  5
658
  8
0
 62
    32
 66
     1
 10
0.0
 20
0.0
 30
0.0
 70
     1
  0
VERTEX
  5
CCD
  8
0
 62
    32
 10
106.1438073257759953
 20
47.1750881569371288
 30
0.0
  0
VERTEX
  5
CCE
  8
0
 62
    32
 10
84.8438073257731133
 20
47.1750881569371288
 30
0.0
 42
0.4142135623730951
  0
VERTEX
  5
CCF
  8
0
 62
    32
 10
84.3438073257731276
 20
46.675088156937143
 30
0.0
  0
VERTEX
  5
CD0
  8
0
 62
    32
 10
84.3438073257731276
 20
39.675088156937143
 30
0.0
 42
-0.4142135623730951
  0
VERTEX
  5
CD1
  8
0
 62
    32
 10
83.8438073257731133
 20
39.175088156937143
 30
0.0
  0
VERTEX
  5
CD2
  8
0
 62
    32
 10
80.0938073257731133
 20
39.175088156937143
 30
0.0
  0
VERTEX
  5
CD3
  8
0
 62
    32
 10
79.5938073257731133
 20
38.675088156937143
 30
0.0
  0
VERTEX
  5
CD4
  8
0
 62
    32
 10
79.0938073257731276
 20
39.175088156937143
 30
0.0
  0
VERTEX
  5
CD5
  8
0
 62
    32
 10
75.550134292945998
 20
39.175088156937143
 30
0.0
 42
-0.355092827601457
  0
VERTEX
  5
CD6
  8
0
 62
    32
 10
75.0607035571749179
 20
39.5728259699533282
 30
0.0
  0
VERTEX
  5
CD7
  8
0
 62
    32
 10
73.8462456367144
 20
45.3852679983829006
 30
0.0
 42
0.8126539343500029
  0
VERTEX
  5
CD8
  8
0
 62
    32
 10
69.4413690148233371
 20
45.3852679983829717
 30
0.0
  0
VERTEX
  5
CD9
  8
0
 62
    32
 10
68.2269110943610997
 20
39.5728259699460878
 30
0.0
 42
-0.3550928276014467
  0
VERTEX
  5
CDA
  8
0
 62
    32
 10
67.7374803585989014
 20
39.175088156937143
 30
0.0
  0
VERTEX
  5
CDB
  8
0
 62
    32
 10
64.1938073257643964
 20
39.175088156937143
 30
0.0
  0
VERTEX
  5
CDC
  8
0
 62
    32
 10
63.6938073257643893
 20
38.675088156937143
 30
0.0
  0
VERTEX
  5
CDD
  8
0
 62
    32
 10
63.1938073257644035
 20
39.175088156937143
 30
0.0
  0
VERTEX
  5
CDE
  8
0
 62
    32
 10
59.4438073257644035
 20
39.175088156937143
 30
0.0
 42
-0.4142135623730951
  0
VERTEX
  5
CDF
  8
0
 62
    32
 10
58.9438073257644035
 20
39.675088156937143
 30
0.0
  0
VERTEX
  5
CE0
  8
0
 62
    32
 10
58.9438073257644035
 20
46.9250881569371288
 30
0.0
 42
0.4142135623730951
  0
VERTEX
  5
CE1
  8
0
 62
    32
 10
58.6938073257643893
 20
47.1750881569371288
 30
0.0
  0
VERTEX
  5
CE2
  8
0
 62
    32
 10
43.1438073257760166
 20
47.1750881569371288
 30
0.0
  0
VERTEX
  5
CE3
  8
0
 62
    32
 10
42.6438073257760308
 20
46.675088156937143
 30
0.0
  0
VERTEX
  5
CE4
  8
0
 62
    32
 10
42.1438073257760379
 20
47.1750881569371288
 30
0.0
  0
VERTEX
  5
CE5
  8
0
 62
    32
 10
40.2438073257719608
 20
47.1750881569371288
 30
0.0
 42
0.4142135623730951
  0
VERTEX
  5
CE6
  8
0
 62
    32
 10
40.1438073257760308
 20
47.0750881569411987
 30
0.0
  0
VERTEX
  5
CE7
  8
0
 62
    32
 10
40.1438073257760308
 20
43.6750881569371288
 30
0.0
  0
VERTEX
  5
CE8
  8
0
 62
    32
 10
45.1438073257760308
 20
43.6750881569371288
 30
0.0
  0
VERTEX
  5
CE9
  8
0
 62
    32
 10
45.1438073257760308
 20
44.6750881569371288
 30
0.0
  0
VERTEX
  5
CEA
  8
0
 62
    32
 10
55.9438073257643893
 20
44.6750881569371288
 30
0.0
 42
-0.4142135623730951
  0
VERTEX
  5
CEB
  8
0
 62
    32
 10
56.4438073257644035
 20
44.175088156937143
 30
0.0
  0
VERTEX
  5
CEC
  8
0
 62
    32
 10
56.4438073257644035
 20
30.4250881569371394
 30
0.0
 42
0.4142135623730951
  0
VERTEX
  5
CED
  8
0
 62
    32
 10
56.6938073257643893
 20
30.1750881569371394
 30
0.0
  0
VERTEX
  5
CEE
  8
0
 62
    32
 10
58.6938073257643893
 20
30.1750881569371394
 30
0.0
 42
0.4142135623723542
  0
VERTEX
  5
CEF
  8
0
 62
    32
 10
58.9438073257644035
 20
30.4250881569365106
 30
0.0
  0
VERTEX
  5
CF0
  8
0
 62
    32
 10
58.9438073257789483
 20
36.1750881569384006
 30
0.0
 42
-0.4142135623723542
  0
VERTEX
  5
CF1
  8
0
 62
    32
 10
59.4438073257789483
 20
36.675088156937143
 30
0.0
  0
VERTEX
  5
CF2
  8
0
 62
    32
 10
69.6438073257760379
 20
36.675088156937143
 30
0.0
 42
-0.4142135623730951
  0
VERTEX
  5
CF3
  8
0
 62
    32
 10
70.1438073257760237
 20
36.175088156937143
 30
0.0
  0
VERTEX
  5
CF4
  8
0
 62
    32
 10
70.1438073257760237
 20
30.4250881569371394
 30
0.0
 42
0.4142135623730951
  0
VERTEX
  5
CF5
  8
0
 62
    32
 10
70.3938073257760379
 20
30.1750881569371394
 30
0.0
  0
VERTEX
  5
CF6
  8
0
 62
    32
 10
72.8938073257760379
 20
30.1750881569371394
 30
0.0
 42
0.4142135623730951
  0
VERTEX
  5
CF7
  8
0
 62
    32
 10
73.1438073257760237
 20
30.4250881569371394
 30
0.0
  0
VERTEX
  5
CF8
  8
0
 62
    32
 10
73.1438073257760237
 20
36.175088156937143
 30
0.0
 42
-0.4142135623730951
  0
VERTEX
  5
CF9
  8
0
 62
    32
 10
73.6438073257760379
 20
36.675088156937143
 30
0.0
  0
VERTEX
  5
CFA
  8
0
 62
    32
 10
83.8438073257731133
 20
36.675088156937143
 30
0.0
 42
-0.4142135623730951
  0
VERTEX
  5
CFB
  8
0
 62
    32
 10
84.3438073257731276
 20
36.175088156937143
 30
0.0
  0
VERTEX
  5
CFC
  8
0
 62
    32
 10
84.3438073257731276
 20
30.4250881569371394
 30
0.0
 42
0.4142135623730951
  0
VERTEX
  5
CFD
  8
0
 62
    32
 10
84.5938073257731276
 20
30.1750881569371394
 30
0.0
  0
VERTEX
  5
CFE
  8
0
 62
    32
 10
86.5938073257731276
 20
30.1750881569371394
 30
0.0
 42
0.4142135623730951
  0
VERTEX
  5
CFF
  8
0
 62
    32
 10
86.8438073257731276
 20
30.4250881569371394
 30
0.0
  0
VERTEX
  5
D00
  8
0
 62
    32
 10
86.8438073257731276
 20
44.175088156937143
 30
0.0
 42
-0.4142135623730951
  0
VERTEX
  5
D01
  8
0
 62
    32
 10
87.3438073257731133
 20
44.6750881569371288
 30
0.0
  0
VERTEX
  5
D02
  8
0
 62
    32
 10
101.543807325770203
 20
44.6750881569371288
 30
0.0
  0
VERTEX
  5
D03
  8
0
 62
    32
 10
101.543807325770203
 20
41.2750881569384092
 30
0.0
  0
VERTEX
  5
D04
  8
0
 62
    32
 10
111.1438073257759953
 20
41.2750881569384092
 30
0.0
  0
VERTEX
  5
D05
  8
0
 62
    32
 10
111.1438073257759953
 20
43.2750881569384092
 30
0.0
  0
VERTEX
  5
D06
  8
0
 62
    32
 10
106.1438073257759953
 20
43.2750881569384092
 30
0.0
  0
SEQEND
  5
D07
  8
0
 62
    32
  0
ENDSEC
  0
EOF
