  0
SECTION
  2
HEADER
  9
$ACADVER
  1
AC1009
  9
$INSBASE
 10
0.0
 20
0.0
 30
0.0
  9
$EXTMIN
 10
-77.1665251151460012
 20
7.8329186594278299
 30
0.0
  9
$EXTMAX
 10
104.8334748848539988
 20
60.8286977004977416
 30
0.0
  9
$LIMMIN
 10
0.0
 20
0.0
  9
$LIMMAX
 10
420.0
 20
297.0
  9
$ORTHOMODE
 70
     1
  9
$REGENMODE
 70
     1
  9
$FILLMODE
 70
     1
  9
$QTEXTMODE
 70
     0
  9
$MIRRTEXT
 70
     0
  9
$DRAGMODE
 70
     2
  9
$LTSCALE
 40
1.0
  9
$OSMODE
 70
    37
  9
$ATTMODE
 70
     1
  9
$TEXTSIZE
 40
2.5
  9
$TRACEWID
 40
1.0
  9
$TEXTSTYLE
  7
STANDARD
  9
$CLAYER
  8
0
  9
$CELTYPE
  6
BYLAYER
  9
$CECOLOR
 62
    32
  9
$DIMSCALE
 40
1.0
  9
$DIMASZ
 40
2.5
  9
$DIMEXO
 40
0.625
  9
$DIMDLI
 40
3.75
  9
$DIMRND
 40
0.0
  9
$DIMDLE
 40
0.0
  9
$DIMEXE
 40
1.25
  9
$DIMTP
 40
0.0
  9
$DIMTM
 40
0.0
  9
$DIMTXT
 40
2.5
  9
$DIMCEN
 40
2.5
  9
$DIMTSZ
 40
0.0
  9
$DIMTOL
 70
     0
  9
$DIMLIM
 70
     0
  9
$DIMTIH
 70
     0
  9
$DIMTOH
 70
     0
  9
$DIMSE1
 70
     0
  9
$DIMSE2
 70
     0
  9
$DIMTAD
 70
     1
  9
$DIMZIN
 70
     8
  9
$DIMBLK
  1

  9
$DIMASO
 70
     1
  9
$DIMSHO
 70
     1
  9
$DIMPOST
  1

  9
$DIMAPOST
  1

  9
$DIMALT
 70
     0
  9
$DIMALTD
 70
     3
  9
$DIMALTF
 40
0.03937007874016
  9
$DIMLFAC
 40
1.0
  9
$DIMTOFL
 70
     1
  9
$DIMTVP
 40
0.0
  9
$DIMTIX
 70
     0
  9
$DIMSOXD
 70
     0
  9
$DIMSAH
 70
     0
  9
$DIMBLK1
  1

  9
$DIMBLK2
  1

  9
$DIMSTYLE
  2
ISO-25
  9
$DIMCLRD
 70
     0
  9
$DIMCLRE
 70
     0
  9
$DIMCLRT
 70
     0
  9
$DIMTFAC
 40
1.0
  9
$DIMGAP
 40
0.625
  9
$LUNITS
 70
     2
  9
$LUPREC
 70
     4
  9
$SKETCHINC
 40
1.0
  9
$FILLETRAD
 40
0.0
  9
$AUNITS
 70
     0
  9
$AUPREC
 70
     0
  9
$MENU
  1
.
  9
$ELEVATION
 40
0.0
  9
$PELEVATION
 40
0.0
  9
$THICKNESS
 40
0.0
  9
$LIMCHECK
 70
     0
  9
$BLIPMODE
 70
     0
  9
$CHAMFERA
 40
0.0
  9
$CHAMFERB
 40
0.0
  9
$SKPOLY
 70
     0
  9
$TDCREATE
 40
2458874.6104050930589437
  9
$TDUPDATE
 40
2458874.6454629627987742
  9
$TDINDWG
 40
0.0020949074
  9
$TDUSRTIMER
 40
0.0020949074
  9
$USRTIMER
 70
     1
  9
$ANGBASE
 50
0.0
  9
$ANGDIR
 70
     0
  9
$PDMODE
 70
     0
  9
$PDSIZE
 40
0.0
  9
$PLINEWID
 40
0.0
  9
$COORDS
 70
     1
  9
$SPLFRAME
 70
     0
  9
$SPLINETYPE
 70
     6
  9
$SPLINESEGS
 70
     8
  9
$ATTDIA
 70
     1
  9
$ATTREQ
 70
     1
  9
$HANDLING
 70
     1
  9
$HANDSEED
  5
79F
  9
$SURFTAB1
 70
     6
  9
$SURFTAB2
 70
     6
  9
$SURFTYPE
 70
     6
  9
$SURFU
 70
     6
  9
$SURFV
 70
     6
  9
$UCSNAME
  2

  9
$UCSORG
 10
0.0
 20
0.0
 30
0.0
  9
$UCSXDIR
 10
1.0
 20
0.0
 30
0.0
  9
$UCSYDIR
 10
0.0
 20
1.0
 30
0.0
  9
$PUCSNAME
  2

  9
$PUCSORG
 10
0.0
 20
0.0
 30
0.0
  9
$PUCSXDIR
 10
1.0
 20
0.0
 30
0.0
  9
$PUCSYDIR
 10
0.0
 20
1.0
 30
0.0
  9
$USERI1
 70
     0
  9
$USERI2
 70
     0
  9
$USERI3
 70
     0
  9
$USERI4
 70
     0
  9
$USERI5
 70
     0
  9
$USERR1
 40
0.0
  9
$USERR2
 40
0.0
  9
$USERR3
 40
0.0
  9
$USERR4
 40
0.0
  9
$USERR5
 40
0.0
  9
$WORLDVIEW
 70
     1
  9
$SHADEDGE
 70
     3
  9
$SHADEDIF
 70
    70
  9
$TILEMODE
 70
     1
  9
$MAXACTVP
 70
    64
  9
$PLIMCHECK
 70
     0
  9
$PEXTMIN
 10
0.0
 20
0.0
 30
0.0
  9
$PEXTMAX
 10
0.0
 20
0.0
 30
0.0
  9
$PLIMMIN
 10
0.0
 20
0.0
  9
$PLIMMAX
 10
12.0
 20
9.0
  9
$UNITMODE
 70
     0
  9
$VISRETAIN
 70
     1
  9
$PLINEGEN
 70
     0
  9
$PSLTSCALE
 70
     1
  0
ENDSEC
  0
SECTION
  2
TABLES
  0
TABLE
  2
VPORT
 70
     1
  0
VPORT
  2
*ACTIVE
 70
     0
 10
0.0
 20
0.0
 11
1.0
 21
1.0
 12
272.32796971358772
 22
-81.2098328557849811
 13
0.0
 23
0.0
 14
10.0
 24
10.0
 15
10.0
 25
10.0
 16
0.0
 26
0.0
 36
1.0
 17
0.0
 27
0.0
 37
0.0
 40
340.7157680161672033
 41
2.318681318681318
 42
50.0
 43
0.0
 44
0.0
 50
0.0
 51
0.0
 71
     0
 72
  1000
 73
     1
 74
     3
 75
     0
 76
     1
 77
     0
 78
     0
  0
ENDTAB
  0
TABLE
  2
LTYPE
 70
     1
  0
LTYPE
  2
CONTINUOUS
 70
     0
  3
Solid line
 72
    65
 73
     0
 40
0.0
  0
ENDTAB
  0
TABLE
  2
LAYER
 70
     2
  0
LAYER
  2
0
 70
     0
 62
     7
  6
CONTINUOUS
  0
ENDTAB
  0
TABLE
  2
STYLE
 70
     2
  0
STYLE
  2
STANDARD
 70
     0
 40
0.0
 41
1.0
 50
0.0
 71
     0
 42
2.5
  3
txt
  4

  0
ENDTAB
  0
TABLE
  2
VIEW
 70
     0
  0
ENDTAB
  0
TABLE
  2
UCS
 70
     0
  0
ENDTAB
  0
TABLE
  2
APPID
 70
    18
  0
APPID
  2
ACAD
 70
     0
  0
APPID
  2
ACADANNOTATIVE
 70
     0
  0
APPID
  2
ACAD_PSEXT
 70
     0
  0
APPID
  2
ACADANNOPO
 70
     0
  0
APPID
  2
ACAD_DSTYLE_DIMJAG
 70
     0
  0
APPID
  2
ACAD_DSTYLE_DIMTALN
 70
     0
  0
APPID
  2
ACAD_MLEADERVER
 70
     0
  0
APPID
  2
ACAD_NAV_VCDISPLAY
 70
     0
  0
APPID
  2
ACAECLAYERSTANDARD
 70
     0
  0
APPID
  2
ACAUTHENVIRON
 70
     0
  0
APPID
  2
ACDBDYNAMICBLOCKTRUENAME
 70
     0
  0
APPID
  2
ACDBDYNAMICBLOCKGUID
 70
     0
  0
APPID
  2
ACCMTRANSPARENCY
 70
     0
  0
APPID
  2
ACDBBLOCKREPETAG
 70
     0
  0
APPID
  2
GRADIENTCOLOR1ACI
 70
     0
  0
APPID
  2
GRADIENTCOLOR2ACI
 70
     0
  0
APPID
  2
ACDBBLOCKREPBTAG
 70
     0
  0
APPID
  2
CONTENTBLOCKICON
 70
     0
  0
ENDTAB
  0
TABLE
  2
DIMSTYLE
 70
     3
  0
DIMSTYLE
  2
STANDARD
 70
     0
  3

  4

  5

  6

  7

 40
1.0
 41
0.18
 42
0.0625
 43
0.38
 44
0.18
 45
0.0
 46
0.0
 47
0.0
 48
0.0
140
0.18
141
0.09
142
0.0
143
25.3999999999999986
144
1.0
145
0.0
146
1.0
147
0.09
 71
     0
 72
     0
 73
     1
 74
     1
 75
     0
 76
     0
 77
     0
 78
     0
170
     0
171
     2
172
     0
173
     0
174
     0
175
     0
176
     0
177
     0
178
     0
  0
DIMSTYLE
  2
ISO-25
 70
     0
  3

  4

  5

  6

  7

 40
1.0
 41
2.5
 42
0.625
 43
3.75
 44
1.25
 45
0.0
 46
0.0
 47
0.0
 48
0.0
140
2.5
141
2.5
142
0.0
143
0.03937007874016
144
1.0
145
0.0
146
1.0
147
0.625
 71
     0
 72
     0
 73
     0
 74
     0
 75
     0
 76
     0
 77
     1
 78
     8
170
     0
171
     3
172
     1
173
     0
174
     0
175
     0
176
     0
177
     0
178
     0
  0
ENDTAB
  0
ENDSEC
  0
SECTION
  2
BLOCKS
  0
BLOCK
  8
0
  2
$MODEL_SPACE
 70
     0
 10
0.0
 20
0.0
 30
0.0
  3
$MODEL_SPACE
  1

  0
ENDBLK
  5
707
  8
0
  0
BLOCK
 67
     1
  8
0
  2
$PAPER_SPACE
 70
     0
 10
0.0
 20
0.0
 30
0.0
  3
$PAPER_SPACE
  1

  0
ENDBLK
  5
703
 67
     1
  8
0
  0
ENDSEC
  0
SECTION
  2
ENTITIES
  0
POLYLINE
  5
5FD
  8
0
 62
    32
 66
     1
 10
0.0
 20
0.0
 30
0.0
 70
     1
  0
VERTEX
  5
737
  8
0
 62
    32
 10
33.0762860370856728
 20
48.2222469548282788
 30
0.0
  0
VERTEX
  5
738
  8
0
 62
    32
 10
16.0762860370856515
 20
43.6671106834996721
 30
0.0
  0
VERTEX
  5
739
  8
0
 62
    32
 10
16.0762860370856515
 20
35.8286977005113698
 30
0.0
  0
VERTEX
  5
73A
  8
0
 62
    32
 10
17.0762860370856515
 20
35.8286977005113698
 30
0.0
  0
VERTEX
  5
73B
  8
0
 62
    32
 10
17.0762860370856515
 20
33.8329186594278326
 30
0.0
  0
VERTEX
  5
73C
  8
0
 62
    32
 10
14.0762860370856497
 20
33.8329186594278326
 30
0.0
  0
VERTEX
  5
73D
  8
0
 62
    32
 10
14.0762860370856497
 20
43.6671106834995726
 30
0.0
 42
-0.3394542588633626
  0
VERTEX
  5
73E
  8
0
 62
    32
 10
15.55864794688061
 20
45.5989623360778324
 30
0.0
  0
VERTEX
  5
73F
  8
0
 62
    32
 10
34.9504041325753221
 20
50.7949677458569369
 30
0.0
 42
-0.4931454260313126
  0
VERTEX
  5
740
  8
0
 62
    32
 10
35.0762860370856728
 20
50.698375163227972
 30
0.0
  0
VERTEX
  5
741
  8
0
 62
    32
 10
35.0762860370856515
 20
47.3286977005113698
 30
0.0
  0
VERTEX
  5
742
  8
0
 62
    32
 10
40.6762860370842034
 20
47.3286977005113698
 30
0.0
  0
VERTEX
  5
743
  8
0
 62
    32
 10
40.6762860370842034
 20
48.0786977005113698
 30
0.0
  0
VERTEX
  5
744
  8
0
 62
    32
 10
42.6762860370841892
 20
48.0786977005113698
 30
0.0
  0
VERTEX
  5
745
  8
0
 62
    32
 10
42.6762860370841892
 20
33.8329186594278326
 30
0.0
  0
VERTEX
  5
746
  8
0
 62
    32
 10
39.6762860370841892
 20
33.8329186594278326
 30
0.0
  0
VERTEX
  5
747
  8
0
 62
    32
 10
39.6762860370841892
 20
35.8286977005113698
 30
0.0
  0
VERTEX
  5
748
  8
0
 62
    32
 10
40.6762860370842034
 20
35.8286977005113698
 30
0.0
  0
VERTEX
  5
749
  8
0
 62
    32
 10
40.6762860370842034
 20
45.3286977005113698
 30
0.0
  0
VERTEX
  5
74A
  8
0
 62
    32
 10
33.0762860370856728
 20
45.3286977005113698
 30
0.0
  0
SEQEND
  5
74B
  8
0
 62
    32
  0
POLYLINE
  5
5FE
  8
0
 62
    32
 66
     1
 10
0.0
 20
0.0
 30
0.0
 70
     1
  0
VERTEX
  5
74C
  8
0
 62
    32
 10
13.6055428158548306
 20
33.8329186594278326
 30
0.0
  0
VERTEX
  5
74D
  8
0
 62
    32
 10
14.0762860370856497
 20
33.8329186594278326
 30
0.0
  0
VERTEX
  5
74E
  8
0
 62
    32
 10
14.0762860370856497
 20
33.8286977005113911
 30
0.0
  0
VERTEX
  5
74F
  8
0
 62
    32
 10
17.0762860370856515
 20
33.8286977005113911
 30
0.0
  0
VERTEX
  5
750
  8
0
 62
    32
 10
39.6762860370841892
 20
33.8298677549836171
 30
0.0
  0
VERTEX
  5
751
  8
0
 62
    32
 10
39.6762860370841892
 20
33.8286977005113911
 30
0.0
  0
VERTEX
  5
752
  8
0
 62
    32
 10
42.6762860370841892
 20
33.8286977005113911
 30
0.0
  0
VERTEX
  5
753
  8
0
 62
    32
 10
98.6055428158603036
 20
33.8329186594278326
 30
0.0
 42
0.4142135623722939
  0
VERTEX
  5
754
  8
0
 62
    32
 10
100.605542815854804
 20
35.8329186594278326
 30
0.0
  0
VERTEX
  5
755
  8
0
 62
    32
 10
100.605542815854804
 20
60.8286977004977416
 30
0.0
  0
VERTEX
  5
756
  8
0
 62
    32
 10
104.605542815854804
 20
60.8286977004977416
 30
0.0
  0
VERTEX
  5
757
  8
0
 62
    32
 10
104.605542815854804
 20
33.8329186594278326
 30
0.0
 42
-0.4142135623730951
  0
VERTEX
  5
758
  8
0
 62
    32
 10
100.605542815854804
 20
29.8329186594278291
 30
0.0
  0
VERTEX
  5
759
  8
0
 62
    32
 10
15.6055428158548395
 20
29.8329186594278291
 30
0.0
 42
0.4142135623730951
  0
VERTEX
  5
75A
  8
0
 62
    32
 10
13.6055428158548306
 20
27.8329186594278184
 30
0.0
  0
VERTEX
  5
75B
  8
0
 62
    32
 10
13.6055428158548306
 20
7.8329186594278299
 30
0.0
  0
VERTEX
  5
75C
  8
0
 62
    32
 10
9.6055428158548324
 20
7.8329186594278299
 30
0.0
  0
VERTEX
  5
75D
  8
0
 62
    32
 10
9.6055428158548324
 20
29.8329186594278291
 30
0.0
 42
-0.4142135623730951
  0
SEQEND
  5
75E
  8
0
 62
    32
  0
ENDSEC
  0
EOF
