  0
SECTION
  2
HEADER
  9
$ACADVER
  1
AC1009
  9
$INSBASE
 10
0.0
 20
0.0
 30
0.0
  9
$EXTMIN
 10
3.2753888480505671
 20
5.4373546660999628
 30
0.0
  9
$EXTMAX
 10
455.1848312535364016
 20
2534.3605442364541886
 30
0.0
  9
$LIMMIN
 10
0.0
 20
0.0
  9
$LIMMAX
 10
420.0
 20
297.0
  9
$ORTHOMODE
 70
     0
  9
$REGENMODE
 70
     1
  9
$FILLMODE
 70
     1
  9
$QTEXTMODE
 70
     0
  9
$MIRRTEXT
 70
     0
  9
$DRAGMODE
 70
     2
  9
$LTSCALE
 40
1.0
  9
$OSMODE
 70
    37
  9
$ATTMODE
 70
     1
  9
$TEXTSIZE
 40
2.5
  9
$TRACEWID
 40
1.0
  9
$TEXTSTYLE
  7
STANDARD
  9
$CLAYER
  8
0
  9
$CELTYPE
  6
BYLAYER
  9
$CECOLOR
 62
    32
  9
$DIMSCALE
 40
1.0
  9
$DIMASZ
 40
2.5
  9
$DIMEXO
 40
0.625
  9
$DIMDLI
 40
3.75
  9
$DIMRND
 40
0.0
  9
$DIMDLE
 40
0.0
  9
$DIMEXE
 40
1.25
  9
$DIMTP
 40
0.0
  9
$DIMTM
 40
0.0
  9
$DIMTXT
 40
2.5
  9
$DIMCEN
 40
2.5
  9
$DIMTSZ
 40
0.0
  9
$DIMTOL
 70
     0
  9
$DIMLIM
 70
     0
  9
$DIMTIH
 70
     0
  9
$DIMTOH
 70
     0
  9
$DIMSE1
 70
     0
  9
$DIMSE2
 70
     0
  9
$DIMTAD
 70
     1
  9
$DIMZIN
 70
     8
  9
$DIMBLK
  1

  9
$DIMASO
 70
     1
  9
$DIMSHO
 70
     1
  9
$DIMPOST
  1

  9
$DIMAPOST
  1

  9
$DIMALT
 70
     0
  9
$DIMALTD
 70
     3
  9
$DIMALTF
 40
0.03937007874016
  9
$DIMLFAC
 40
1.0
  9
$DIMTOFL
 70
     1
  9
$DIMTVP
 40
0.0
  9
$DIMTIX
 70
     0
  9
$DIMSOXD
 70
     0
  9
$DIMSAH
 70
     0
  9
$DIMBLK1
  1

  9
$DIMBLK2
  1

  9
$DIMSTYLE
  2
ISO-25
  9
$DIMCLRD
 70
     0
  9
$DIMCLRE
 70
     0
  9
$DIMCLRT
 70
     0
  9
$DIMTFAC
 40
1.0
  9
$DIMGAP
 40
0.625
  9
$LUNITS
 70
     2
  9
$LUPREC
 70
     4
  9
$SKETCHINC
 40
1.0
  9
$FILLETRAD
 40
0.0
  9
$AUNITS
 70
     0
  9
$AUPREC
 70
     0
  9
$MENU
  1
.
  9
$ELEVATION
 40
0.0
  9
$PELEVATION
 40
0.0
  9
$THICKNESS
 40
0.0
  9
$LIMCHECK
 70
     0
  9
$BLIPMODE
 70
     0
  9
$CHAMFERA
 40
0.0
  9
$CHAMFERB
 40
0.0
  9
$SKPOLY
 70
     0
  9
$TDCREATE
 40
2458874.6936921300366521
  9
$TDUPDATE
 40
2458874.6971759260632098
  9
$TDINDWG
 40
0.0034837963
  9
$TDUSRTIMER
 40
0.0034837963
  9
$USRTIMER
 70
     1
  9
$ANGBASE
 50
0.0
  9
$ANGDIR
 70
     0
  9
$PDMODE
 70
     0
  9
$PDSIZE
 40
0.0
  9
$PLINEWID
 40
0.0
  9
$COORDS
 70
     1
  9
$SPLFRAME
 70
     0
  9
$SPLINETYPE
 70
     6
  9
$SPLINESEGS
 70
     8
  9
$ATTDIA
 70
     1
  9
$ATTREQ
 70
     1
  9
$HANDLING
 70
     1
  9
$HANDSEED
  5
8F8
  9
$SURFTAB1
 70
     6
  9
$SURFTAB2
 70
     6
  9
$SURFTYPE
 70
     6
  9
$SURFU
 70
     6
  9
$SURFV
 70
     6
  9
$UCSNAME
  2

  9
$UCSORG
 10
0.0
 20
0.0
 30
0.0
  9
$UCSXDIR
 10
1.0
 20
0.0
 30
0.0
  9
$UCSYDIR
 10
0.0
 20
1.0
 30
0.0
  9
$PUCSNAME
  2

  9
$PUCSORG
 10
0.0
 20
0.0
 30
0.0
  9
$PUCSXDIR
 10
1.0
 20
0.0
 30
0.0
  9
$PUCSYDIR
 10
0.0
 20
1.0
 30
0.0
  9
$USERI1
 70
     0
  9
$USERI2
 70
     0
  9
$USERI3
 70
     0
  9
$USERI4
 70
     0
  9
$USERI5
 70
     0
  9
$USERR1
 40
0.0
  9
$USERR2
 40
0.0
  9
$USERR3
 40
0.0
  9
$USERR4
 40
0.0
  9
$USERR5
 40
0.0
  9
$WORLDVIEW
 70
     1
  9
$SHADEDGE
 70
     3
  9
$SHADEDIF
 70
    70
  9
$TILEMODE
 70
     1
  9
$MAXACTVP
 70
    64
  9
$PLIMCHECK
 70
     0
  9
$PEXTMIN
 10
0.0
 20
0.0
 30
0.0
  9
$PEXTMAX
 10
0.0
 20
0.0
 30
0.0
  9
$PLIMMIN
 10
0.0
 20
0.0
  9
$PLIMMAX
 10
12.0
 20
9.0
  9
$UNITMODE
 70
     0
  9
$VISRETAIN
 70
     1
  9
$PLINEGEN
 70
     0
  9
$PSLTSCALE
 70
     1
  0
ENDSEC
  0
SECTION
  2
TABLES
  0
TABLE
  2
VPORT
 70
     1
  0
VPORT
  2
*ACTIVE
 70
     0
 10
0.0
 20
0.0
 11
1.0
 21
1.0
 12
163.2455262015795938
 22
19.5278834028599704
 13
0.0
 23
0.0
 14
10.0
 24
10.0
 15
10.0
 25
10.0
 16
0.0
 26
0.0
 36
1.0
 17
0.0
 27
0.0
 37
0.0
 40
173.564093293626712
 41
2.318681318681318
 42
50.0
 43
0.0
 44
0.0
 50
0.0
 51
0.0
 71
     0
 72
  1000
 73
     1
 74
     3
 75
     0
 76
     1
 77
     0
 78
     0
  0
ENDTAB
  0
TABLE
  2
LTYPE
 70
     4
  0
LTYPE
  2
CONTINUOUS
 70
     0
  3
Solid line
 72
    65
 73
     0
 40
0.0
  0
ENDTAB
  0
TABLE
  2
LAYER
 70
     8
  0
LAYER
  2
0
 70
     0
 62
     7
  6
CONTINUOUS
  0
ENDTAB
  0
TABLE
  2
STYLE
 70
     4
  0
STYLE
  2
STANDARD
 70
     0
 40
0.0
 41
1.0
 50
0.0
 71
     0
 42
2.5
  3
txt
  4

  0
ENDTAB
  0
TABLE
  2
VIEW
 70
     0
  0
ENDTAB
  0
TABLE
  2
UCS
 70
     0
  0
ENDTAB
  0
TABLE
  2
APPID
 70
    21
  0
APPID
  2
ACAD
 70
     0
  0
APPID
  2
ACAD_PSEXT
 70
     0
  0
APPID
  2
ACADANNOPO
 70
     0
  0
APPID
  2
ACADANNOTATIVE
 70
     0
  0
APPID
  2
ACAD_DSTYLE_DIMJAG
 70
     0
  0
APPID
  2
ACAD_DSTYLE_DIMTALN
 70
     0
  0
APPID
  2
ACAD_MLEADERVER
 70
     0
  0
APPID
  2
ACAD_NAV_VCDISPLAY
 70
     0
  0
APPID
  2
ACAD_DSTYLE_DIMBREAK
 70
     0
  0
APPID
  2
ACAECLAYERSTANDARD
 70
     0
  0
APPID
  2
ACAUTHENVIRON
 70
     0
  0
APPID
  2
ACDBDYNAMICBLOCKTRUENAME
 70
     0
  0
APPID
  2
ACDBDYNAMICBLOCKGUID
 70
     0
  0
APPID
  2
ACCMTRANSPARENCY
 70
     0
  0
APPID
  2
ACDBBLOCKREPETAG
 70
     0
  0
APPID
  2
GRADIENTCOLOR1ACI
 70
     0
  0
APPID
  2
GRADIENTCOLOR2ACI
 70
     0
  0
APPID
  2
ACDBBLOCKREPBTAG
 70
     0
  0
APPID
  2
ACDBBLOCKARRAYACTIONTAG
 70
     0
  0
APPID
  2
ACAD_EXEMPT_FROM_CAD_STANDARDS
 70
     0
  0
APPID
  2
AcDbAttr
 70
     0
  0
ENDTAB
  0
TABLE
  2
DIMSTYLE
 70
     5
  0
DIMSTYLE
  2
STANDARD
 70
     0
  3

  4

  5

  6

  7

 40
1.0
 41
0.18
 42
0.0625
 43
0.38
 44
0.18
 45
0.0
 46
0.0
 47
0.0
 48
0.0
140
0.18
141
0.09
142
0.0
143
25.3999999999999986
144
1.0
145
0.0
146
1.0
147
0.09
 71
     0
 72
     0
 73
     1
 74
     1
 75
     0
 76
     0
 77
     0
 78
     0
170
     0
171
     2
172
     0
173
     0
174
     0
175
     0
176
     0
177
     0
178
     0
  0
DIMSTYLE
  2
ISO-25
 70
     0
  3

  4

  5

  6

  7

 40
1.0
 41
2.5
 42
0.625
 43
3.75
 44
1.25
 45
0.0
 46
0.0
 47
0.0
 48
0.0
140
2.5
141
2.5
142
0.0
143
0.03937007874016
144
1.0
145
0.0
146
1.0
147
0.625
 71
     0
 72
     0
 73
     0
 74
     0
 75
     0
 76
     0
 77
     1
 78
     8
170
     0
171
     3
172
     1
173
     0
174
     0
175
     0
176
     0
177
     0
178
     0
  0
ENDTAB
  0
ENDSEC
  0
SECTION
  2
BLOCKS
  0
BLOCK
  8
0
  2
$MODEL_SPACE
 70
     0
 10
0.0
 20
0.0
 30
0.0
  3
$MODEL_SPACE
  1

  0
ENDBLK
  5
21
  8
0
  0
BLOCK
 67
     1
  8
0
  2
$PAPER_SPACE
 70
     0
 10
0.0
 20
0.0
 30
0.0
  3
$PAPER_SPACE
  1

  0
ENDBLK
  5
D5
 67
     1
  8
0
  0
ENDSEC
  0
SECTION
  2
ENTITIES
  0
POLYLINE
  5
7D4
  8
0
 62
    32
 66
     1
 10
0.0
 20
0.0
 30
0.0
 70
     1
  0
VERTEX
  5
83E
  8
0
 62
    32
 10
9.7753888480679052
 20
21.1373546660996112
 30
0.0
 42
-0.3403721047374153
  0
VERTEX
  5
83F
  8
0
 62
    32
 10
3.2753888480671658
 20
21.1373546660996716
 30
0.0
  0
VERTEX
  5
840
  8
0
 62
    32
 10
3.2753888480505671
 20
15.7373546661025898
 30
0.0
 42
0.3403721047385577
  0
VERTEX
  5
841
  8
0
 62
    32
 10
9.7753888480685873
 20
15.7373546661158308
 30
0.0
  0
SEQEND
  5
842
  8
0
 62
    32
  0
POLYLINE
  5
7D5
  8
0
 62
    32
 66
     1
 10
0.0
 20
0.0
 30
0.0
 70
     1
  0
VERTEX
  5
843
  8
0
 62
    32
 10
54.5776317499298784
 20
15.4373546660996208
 30
0.0
  0
VERTEX
  5
844
  8
0
 62
    32
 10
14.5776317499298802
 20
15.4373546660996208
 30
0.0
  0
VERTEX
  5
845
  8
0
 62
    32
 10
14.5776317499298802
 20
10.4373546660999601
 30
0.0
  0
VERTEX
  5
846
  8
0
 62
    32
 10
38.5776317499298784
 20
10.4373546660999601
 30
0.0
  0
VERTEX
  5
847
  8
0
 62
    32
 10
38.5776317499298784
 20
5.4373546660999628
 30
0.0
  0
VERTEX
  5
848
  8
0
 62
    32
 10
46.5776317499298784
 20
5.4373546660999628
 30
0.0
  0
VERTEX
  5
849
  8
0
 62
    32
 10
46.5776317499298784
 20
10.4373546660999601
 30
0.0
  0
VERTEX
  5
84A
  8
0
 62
    32
 10
54.5776317499298784
 20
10.4373546660999601
 30
0.0
  0
SEQEND
  5
84B
  8
0
 62
    32
  0
POLYLINE
  5
7D6
  8
0
 62
    32
 66
     1
 10
0.0
 20
0.0
 30
0.0
 70
     1
  0
VERTEX
  5
84C
  8
0
 62
    32
 10
40.7585510615313567
 20
18.1810758397304184
 30
0.0
 42
-0.4581651430884585
  0
VERTEX
  5
84D
  8
0
 62
    32
 10
41.4929036796793795
 20
18.3662957771682294
 30
0.0
  0
VERTEX
  5
84E
  8
0
 62
    32
 10
43.0146193326074808
 20
17.2978000291483305
 30
0.0
  0
VERTEX
  5
84F
  8
0
 62
    32
 10
43.4253888480631076
 20
17.2978000291483305
 30
0.0
 42
0.4142135623730969
  0
VERTEX
  5
850
  8
0
 62
    32
 10
43.725388848063119
 20
17.5978000291483383
 30
0.0
  0
VERTEX
  5
851
  8
0
 62
    32
 10
43.725388848063119
 20
21.1978000291490503
 30
0.0
 42
0.4142135623730951
  0
VERTEX
  5
852
  8
0
 62
    32
 10
43.4253888480631076
 20
21.4978000291490616
 30
0.0
  0
VERTEX
  5
853
  8
0
 62
    32
 10
43.0708378992262126
 20
21.4978000291490616
 30
0.0
 42
0.1378721067478446
  0
VERTEX
  5
854
  8
0
 62
    32
 10
43.0187369360420391
 20
21.4831551088765309
 30
0.0
  0
VERTEX
  5
855
  8
0
 62
    32
 10
41.07681357892573
 20
20.2978000291483305
 30
0.0
  0
VERTEX
  5
856
  8
0
 62
    32
 10
39.8764757351890466
 20
20.2978000291483305
 30
0.0
 42
0.2914734195861746
  0
VERTEX
  5
857
  8
0
 62
    32
 10
39.604583399077633
 20
20.1245855076702185
 30
0.0
  0
VERTEX
  5
858
  8
0
 62
    32
 10
38.1573644941816497
 20
17.0210145506259813
 30
0.0
 42
-0.2914734195861759
  0
VERTEX
  5
859
  8
0
 62
    32
 10
37.88547215807165
 20
16.8478000291487398
 30
0.0
  0
VERTEX
  5
85A
  8
0
 62
    32
 10
31.6653055380600712
 20
16.8478000291487113
 30
0.0
 42
-0.2914734195861781
  0
VERTEX
  5
85B
  8
0
 62
    32
 10
31.3934132019500716
 20
17.0210145506259494
 30
0.0
  0
VERTEX
  5
85C
  8
0
 62
    32
 10
29.9461942970540917
 20
20.1245855076702185
 30
0.0
 42
0.2914734195861734
  0
VERTEX
  5
85D
  8
0
 62
    32
 10
29.674301960942671
 20
20.2978000291483305
 30
0.0
  0
VERTEX
  5
85E
  8
0
 62
    32
 10
28.4739641172059805
 20
20.2978000291483305
 30
0.0
  0
VERTEX
  5
85F
  8
0
 62
    32
 10
26.5320407600896715
 20
21.4831551088765593
 30
0.0
 42
0.1378721067478491
  0
VERTEX
  5
860
  8
0
 62
    32
 10
26.4799397969055086
 20
21.4978000291490901
 30
0.0
  0
VERTEX
  5
861
  8
0
 62
    32
 10
26.1253888480686101
 20
21.4978000291490616
 30
0.0
 42
0.4142135623730707
  0
VERTEX
  5
862
  8
0
 62
    32
 10
25.8253888480685987
 20
21.1978000291490503
 30
0.0
  0
VERTEX
  5
863
  8
0
 62
    32
 10
25.8253888480685987
 20
17.5978000291483383
 30
0.0
 42
0.4142135623730951
  0
VERTEX
  5
864
  8
0
 62
    32
 10
26.1253888480686101
 20
17.2978000291483305
 30
0.0
  0
VERTEX
  5
865
  8
0
 62
    32
 10
26.5361583635242404
 20
17.2978000291483305
 30
0.0
  0
VERTEX
  5
866
  8
0
 62
    32
 10
28.057874016452331
 20
18.3662957771682009
 30
0.0
 42
-0.4394995507252931
  0
VERTEX
  5
867
  8
0
 62
    32
 10
28.7774539580144015
 20
18.2084052465931201
 30
0.0
  0
VERTEX
  5
868
  8
0
 62
    32
 10
30.2753215932186812
 20
15.4373546660996208
 30
0.0
  0
VERTEX
  5
869
  8
0
 62
    32
 10
39.27545610291304
 20
15.4373546660996208
 30
0.0
  0
SEQEND
  5
86A
  8
0
 62
    32
  0
POLYLINE
  5
7D7
  8
0
 62
    32
 66
     1
 10
0.0
 20
0.0
 30
0.0
 70
     1
  0
VERTEX
  5
86B
  8
0
 62
    32
 10
56.7753888480665978
 20
27.4373546661000489
 30
0.0
  0
VERTEX
  5
86C
  8
0
 62
    32
 10
50.7758319190763814
 20
27.4373546661001413
 30
0.0
  0
VERTEX
  5
86D
  8
0
 62
    32
 10
50.7758319190763814
 20
24.6373546661000908
 30
0.0
  0
VERTEX
  5
86E
  8
0
 62
    32
 10
46.475388848064533
 20
24.6373546660998883
 30
0.0
 42
-0.4142135623729513
  0
VERTEX
  5
86F
  8
0
 62
    32
 10
46.7753888480658588
 20
24.3373546660987188
 30
0.0
  0
VERTEX
  5
870
  8
0
 62
    32
 10
46.7753888480685873
 20
18.7373546661001207
 30
0.0
 42
0.4142135623730723
  0
VERTEX
  5
871
  8
0
 62
    32
 10
47.0753888480693305
 20
18.437354666099619
 30
0.0
  0
VERTEX
  5
872
  8
0
 62
    32
 10
49.3093925938575168
 20
18.4373546661005285
 30
0.0
 42
0.4187889142896028
  0
VERTEX
  5
873
  8
0
 62
    32
 10
49.6093561096825511
 20
18.7420332527171603
 30
0.0
 42
-0.6429829774828802
  0
VERTEX
  5
874
  8
0
 62
    32
 10
50.8420344272638474
 20
19.3276927693176503
 30
0.0
 42
2.1478203655735251
  0
VERTEX
  5
875
  8
0
 62
    32
 10
50.8420344272922193
 20
21.5470165628549886
 30
0.0
 42
-1.0710968010910209
  0
VERTEX
  5
876
  8
0
 62
    32
 10
49.8764953712518491
 20
22.6949426629927302
 30
0.0
 42
-0.5881188155597008
  0
VERTEX
  5
877
  8
0
 62
    32
 10
54.695042038543022
 20
20.8594035345725004
 30
0.0
 42
0.3727641987150966
  0
VERTEX
  5
878
  8
0
 62
    32
 10
55.18896468580391
 20
20.437354666099619
 30
0.0
  0
VERTEX
  5
879
  8
0
 62
    32
 10
56.4753888480628916
 20
20.437354666099619
 30
0.0
 42
0.4142135623748658
  0
VERTEX
  5
87A
  8
0
 62
    32
 10
56.7753888480658588
 20
20.7417571475635611
 30
0.0
  0
SEQEND
  5
87B
  8
0
 62
    32
  0
POLYLINE
  5
7D8
  8
0
 62
    32
 66
     1
 10
0.0
 20
0.0
 30
0.0
 70
     1
  0
VERTEX
  5
87C
  8
0
 62
    32
 10
46.7753888480658588
 20
24.3373546660987188
 30
0.0
 42
0.4142135623729513
  0
VERTEX
  5
87D
  8
0
 62
    32
 10
46.475388848064533
 20
24.6373546660998883
 30
0.0
  0
VERTEX
  5
87E
  8
0
 62
    32
 10
44.3358033887937992
 20
24.6373546661003218
 30
0.0
 42
0.1378721067475786
  0
VERTEX
  5
87F
  8
0
 62
    32
 10
44.1795004992411506
 20
24.59341990528279
 30
0.0
  0
VERTEX
  5
880
  8
0
 62
    32
 10
41.7543792162234624
 20
23.1131195519033099
 30
0.0
 42
0.2614125764230009
  0
VERTEX
  5
881
  8
0
 62
    32
 10
41.2753888480658517
 20
22.2595687546311787
 30
0.0
  0
VERTEX
  5
882
  8
0
 62
    32
 10
41.2753888480658517
 20
20.4190108911121193
 30
0.0
  0
VERTEX
  5
883
  8
0
 62
    32
 10
43.0427291669158194
 20
21.4978000291490616
 30
0.0
  0
VERTEX
  5
884
  8
0
 62
    32
 10
43.4253888480631076
 20
21.4978000291490616
 30
0.0
 42
-0.4142135623730951
  0
VERTEX
  5
885
  8
0
 62
    32
 10
43.725388848063119
 20
21.1978000291490503
 30
0.0
  0
VERTEX
  5
886
  8
0
 62
    32
 10
43.725388848063119
 20
17.5978000291483383
 30
0.0
 42
-0.4142135623730951
  0
VERTEX
  5
887
  8
0
 62
    32
 10
43.4253888480631076
 20
17.2978000291483305
 30
0.0
  0
VERTEX
  5
888
  8
0
 62
    32
 10
43.0146193326074808
 20
17.2978000291483305
 30
0.0
  0
VERTEX
  5
889
  8
0
 62
    32
 10
41.4929036796793795
 20
18.3662957771682294
 30
0.0
 42
0.4581651430884873
  0
VERTEX
  5
88A
  8
0
 62
    32
 10
40.7585510615312998
 20
18.1810758397303687
 30
0.0
  0
VERTEX
  5
88B
  8
0
 62
    32
 10
39.27545610291304
 20
15.4373546660996208
 30
0.0
  0
VERTEX
  5
88C
  8
0
 62
    32
 10
59.4753888480624866
 20
15.4373546660996208
 30
0.0
 42
0.4142135623730571
  0
VERTEX
  5
88D
  8
0
 62
    32
 10
59.7753888480631304
 20
15.7373546661002308
 30
0.0
  0
VERTEX
  5
88E
  8
0
 62
    32
 10
59.7753888480658588
 20
37.1373546660989575
 30
0.0
 42
0.4142135623732433
  0
VERTEX
  5
88F
  8
0
 62
    32
 10
59.4753888480641919
 20
37.4373546661005321
 30
0.0
  0
VERTEX
  5
890
  8
0
 62
    32
 10
57.0753888480677389
 20
37.4373546660996226
 30
0.0
 42
0.4142670778146245
  0
VERTEX
  5
891
  8
0
 62
    32
 10
56.7753888530751212
 20
37.1372998531928715
 30
0.0
  0
VERTEX
  5
892
  8
0
 62
    32
 10
56.776274990050517
 20
27.4373546661000489
 30
0.0
  0
VERTEX
  5
893
  8
0
 62
    32
 10
56.7753894197654176
 20
20.7416772092171904
 30
0.0
 42
-0.4141360883845373
  0
VERTEX
  5
894
  8
0
 62
    32
 10
56.4753888480628916
 20
20.437354666099619
 30
0.0
  0
VERTEX
  5
895
  8
0
 62
    32
 10
55.1889646858036826
 20
20.437354666099619
 30
0.0
 42
-0.3759491577804737
  0
VERTEX
  5
896
  8
0
 62
    32
 10
54.6942435499076325
 20
20.8648908979896497
 30
0.0
 42
0.5874865212169835
  0
VERTEX
  5
897
  8
0
 62
    32
 10
49.8764953712516785
 20
22.6949426629925917
 30
0.0
 42
1.023707649272688
  0
VERTEX
  5
898
  8
0
 62
    32
 10
50.7910817320198404
 20
21.5020797485463504
 30
0.0
 42
-2.2152752471081421
  0
VERTEX
  5
899
  8
0
 62
    32
 10
50.8420344272638474
 20
19.3276927693176503
 30
0.0
 42
0.6429829774828237
  0
VERTEX
  5
89A
  8
0
 62
    32
 10
49.6093561096826008
 20
18.7420332527171603
 30
0.0
 42
-0.4187889142896562
  0
VERTEX
  5
89B
  8
0
 62
    32
 10
49.3093925938575168
 20
18.4373546661005285
 30
0.0
  0
VERTEX
  5
89C
  8
0
 62
    32
 10
47.0753888480693305
 20
18.437354666099619
 30
0.0
 42
-0.4142135623730723
  0
VERTEX
  5
89D
  8
0
 62
    32
 10
46.7753888480685873
 20
18.7373546661001207
 30
0.0
  0
SEQEND
  5
89E
  8
0
 62
    32
  0
POLYLINE
  5
7D9
  8
0
 62
    32
 66
     1
 10
0.0
 20
0.0
 30
0.0
 70
     1
  0
VERTEX
  5
89F
  8
0
 62
    32
 10
41.2753888480658517
 20
22.2595687546311787
 30
0.0
 42
-0.2614125764230009
  0
VERTEX
  5
8A0
  8
0
 62
    32
 10
41.7543792162234624
 20
23.1131195519033099
 30
0.0
  0
VERTEX
  5
8A1
  8
0
 62
    32
 10
44.1795004992411506
 20
24.59341990528279
 30
0.0
 42
-0.1378721067475771
  0
VERTEX
  5
8A2
  8
0
 62
    32
 10
44.3358033887937992
 20
24.6373546661003218
 30
0.0
  0
VERTEX
  5
8A3
  8
0
 62
    32
 10
25.2149743073379113
 20
24.6373546661003218
 30
0.0
 42
-0.1378721067475783
  0
VERTEX
  5
8A4
  8
0
 62
    32
 10
25.3712771968905599
 20
24.59341990528279
 30
0.0
  0
VERTEX
  5
8A5
  8
0
 62
    32
 10
27.7963984799082517
 20
23.1131195519033099
 30
0.0
 42
-0.2614125764230015
  0
VERTEX
  5
8A6
  8
0
 62
    32
 10
28.2753888480658588
 20
22.2595687546311787
 30
0.0
  0
VERTEX
  5
8A7
  8
0
 62
    32
 10
28.2753888480658588
 20
20.4190108911121193
 30
0.0
  0
VERTEX
  5
8A8
  8
0
 62
    32
 10
28.4499718863321505
 20
20.3124449494208612
 30
0.0
 42
0.1378721067478417
  0
VERTEX
  5
8A9
  8
0
 62
    32
 10
28.5020728495163098
 20
20.2978000291483305
 30
0.0
  0
VERTEX
  5
8AA
  8
0
 62
    32
 10
29.674301960942671
 20
20.2978000291483305
 30
0.0
 42
-0.2914734195861745
  0
VERTEX
  5
8AB
  8
0
 62
    32
 10
29.9461942970540917
 20
20.1245855076702185
 30
0.0
  0
VERTEX
  5
8AC
  8
0
 62
    32
 10
31.3934132019500716
 20
17.0210145506259494
 30
0.0
 42
0.2914734195861749
  0
VERTEX
  5
8AD
  8
0
 62
    32
 10
31.6653055380600712
 20
16.8478000291487113
 30
0.0
  0
VERTEX
  5
8AE
  8
0
 62
    32
 10
37.88547215807165
 20
16.8478000291487398
 30
0.0
 42
0.2914734195861764
  0
VERTEX
  5
8AF
  8
0
 62
    32
 10
38.1573644941816497
 20
17.0210145506259813
 30
0.0
  0
VERTEX
  5
8B0
  8
0
 62
    32
 10
39.604583399077633
 20
20.1245855076702185
 30
0.0
 42
-0.2914734195861746
  0
VERTEX
  5
8B1
  8
0
 62
    32
 10
39.8764757351890466
 20
20.2978000291483305
 30
0.0
  0
VERTEX
  5
8B2
  8
0
 62
    32
 10
41.0487048466154079
 20
20.2978000291483305
 30
0.0
 42
0.1378721067478565
  0
VERTEX
  5
8B3
  8
0
 62
    32
 10
41.1008058097995601
 20
20.3124449494208612
 30
0.0
  0
VERTEX
  5
8B4
  8
0
 62
    32
 10
41.2753888480658517
 20
20.4190108911121193
 30
0.0
  0
SEQEND
  5
8B5
  8
0
 62
    32
  0
POLYLINE
  5
7DA
  8
0
 62
    32
 66
     1
 10
0.0
 20
0.0
 30
0.0
 70
     1
  0
VERTEX
  5
8B6
  8
0
 62
    32
 10
18.7758319190763814
 20
27.4373546661000809
 30
0.0
  0
VERTEX
  5
8B7
  8
0
 62
    32
 10
12.7753888480651199
 20
27.4373546661001093
 30
0.0
  0
VERTEX
  5
8B8
  8
0
 62
    32
 10
12.7753888480658606
 20
20.7373546661006607
 30
0.0
 42
0.414213562371432
  0
VERTEX
  5
8B9
  8
0
 62
    32
 10
13.0797913295281791
 20
20.437354666099619
 30
0.0
  0
VERTEX
  5
8BA
  8
0
 62
    32
 10
14.3682909795488705
 20
20.437354666099619
 30
0.0
 42
0.3690518408285953
  0
VERTEX
  5
8BB
  8
0
 62
    32
 10
14.8557356575903405
 20
20.8594035345837199
 30
0.0
 42
-0.5881188155584872
  0
VERTEX
  5
8BC
  8
0
 62
    32
 10
19.6742823248803802
 20
22.6949426629923607
 30
0.0
 42
-1.0710968010908191
  0
VERTEX
  5
8BD
  8
0
 62
    32
 10
18.7087432688387594
 20
21.5470165628556494
 30
0.0
 42
2.147820365572592
  0
VERTEX
  5
8BE
  8
0
 62
    32
 10
18.7087432688678597
 20
19.3276927693176503
 30
0.0
 42
-0.642982977482828
  0
VERTEX
  5
8BF
  8
0
 62
    32
 10
19.9414215864491098
 20
18.7420332527171603
 30
0.0
 42
0.4187889142896613
  0
VERTEX
  5
8C0
  8
0
 62
    32
 10
20.2413851022742008
 20
18.4373546661005285
 30
0.0
  0
VERTEX
  5
8C1
  8
0
 62
    32
 10
22.47538884806238
 20
18.437354666099619
 30
0.0
 42
0.414213562373071
  0
VERTEX
  5
8C2
  8
0
 62
    32
 10
22.7753888480631304
 20
18.7373546661001207
 30
0.0
  0
VERTEX
  5
8C3
  8
0
 62
    32
 10
22.7753888480658588
 20
24.3373546660987188
 30
0.0
 42
-0.4142135623729521
  0
VERTEX
  5
8C4
  8
0
 62
    32
 10
23.0753888480671812
 20
24.6373546660998883
 30
0.0
  0
VERTEX
  5
8C5
  8
0
 62
    32
 10
18.7758319190763814
 20
24.6373546661001512
 30
0.0
  0
SEQEND
  5
8C6
  8
0
 62
    32
  0
POLYLINE
  5
7DB
  8
0
 62
    32
 66
     1
 10
0.0
 20
0.0
 30
0.0
 70
     1
  0
VERTEX
  5
8C7
  8
0
 62
    32
 10
12.7753888480640398
 20
37.1373546660994691
 30
0.0
 42
0.4142135623729521
  0
VERTEX
  5
8C8
  8
0
 62
    32
 10
12.4753888480639699
 20
37.4373546660996226
 30
0.0
  0
VERTEX
  5
8C9
  8
0
 62
    32
 10
10.0753888480675204
 20
37.4373546661005321
 30
0.0
 42
0.4142135623732433
  0
VERTEX
  5
8CA
  8
0
 62
    32
 10
9.7753888480658588
 20
37.1373546660989575
 30
0.0
  0
VERTEX
  5
8CB
  8
0
 62
    32
 10
9.7753888480685873
 20
15.7373546661002308
 30
0.0
 42
0.4142135623730566
  0
VERTEX
  5
8CC
  8
0
 62
    32
 10
10.0753888480692204
 20
15.4373546660996208
 30
0.0
  0
VERTEX
  5
8CD
  8
0
 62
    32
 10
30.2753215932186812
 20
15.4373546660996208
 30
0.0
  0
VERTEX
  5
8CE
  8
0
 62
    32
 10
28.7774539580143482
 20
18.2084052465931698
 30
0.0
 42
0.4394995507252552
  0
VERTEX
  5
8CF
  8
0
 62
    32
 10
28.057874016452331
 20
18.3662957771682009
 30
0.0
  0
VERTEX
  5
8D0
  8
0
 62
    32
 10
26.5361583635242404
 20
17.2978000291483305
 30
0.0
  0
VERTEX
  5
8D1
  8
0
 62
    32
 10
26.1253888480686101
 20
17.2978000291483305
 30
0.0
 42
-0.4142135623730951
  0
VERTEX
  5
8D2
  8
0
 62
    32
 10
25.8253888480685987
 20
17.5978000291483383
 30
0.0
  0
VERTEX
  5
8D3
  8
0
 62
    32
 10
25.8253888480685987
 20
21.1978000291490503
 30
0.0
 42
-0.4142135623730951
  0
VERTEX
  5
8D4
  8
0
 62
    32
 10
26.1253888480686101
 20
21.4978000291490616
 30
0.0
  0
VERTEX
  5
8D5
  8
0
 62
    32
 10
26.5080485292158983
 20
21.4978000291490616
 30
0.0
  0
VERTEX
  5
8D6
  8
0
 62
    32
 10
28.2753888480658588
 20
20.4190108911121193
 30
0.0
  0
VERTEX
  5
8D7
  8
0
 62
    32
 10
28.2753888480658588
 20
22.2595687546311787
 30
0.0
 42
0.2614125764230009
  0
VERTEX
  5
8D8
  8
0
 62
    32
 10
27.7963984799082517
 20
23.1131195519033099
 30
0.0
  0
VERTEX
  5
8D9
  8
0
 62
    32
 10
25.3712771968905599
 20
24.59341990528279
 30
0.0
 42
0.1378721067475753
  0
VERTEX
  5
8DA
  8
0
 62
    32
 10
25.2149743073379113
 20
24.6373546661003218
 30
0.0
  0
VERTEX
  5
8DB
  8
0
 62
    32
 10
23.0753888480671812
 20
24.6373546660998883
 30
0.0
 42
0.4142135623729451
  0
VERTEX
  5
8DC
  8
0
 62
    32
 10
22.7753888480658588
 20
24.3373546660987188
 30
0.0
  0
VERTEX
  5
8DD
  8
0
 62
    32
 10
22.7753888480631304
 20
18.7373546661001207
 30
0.0
 42
-0.414213562373071
  0
VERTEX
  5
8DE
  8
0
 62
    32
 10
22.47538884806238
 20
18.437354666099619
 30
0.0
  0
VERTEX
  5
8DF
  8
0
 62
    32
 10
20.2413851022742008
 20
18.4373546661005285
 30
0.0
 42
-0.4187889142896056
  0
VERTEX
  5
8E0
  8
0
 62
    32
 10
19.9414215864492199
 20
18.7420332527171603
 30
0.0
 42
0.6429829774828645
  0
VERTEX
  5
8E1
  8
0
 62
    32
 10
18.7087432688678597
 20
19.3276927693176184
 30
0.0
 42
-2.215275247107376
  0
VERTEX
  5
8E2
  8
0
 62
    32
 10
18.7596959641112413
 20
21.5020797485468584
 30
0.0
 42
1.02370764927213
  0
VERTEX
  5
8E3
  8
0
 62
    32
 10
19.6742823248795311
 20
22.6949426629930393
 30
0.0
 42
0.5874865212170732
  0
VERTEX
  5
8E4
  8
0
 62
    32
 10
14.8565341462238507
 20
20.8648908979881504
 30
0.0
 42
-0.3722290659578147
  0
VERTEX
  5
8E5
  8
0
 62
    32
 10
14.3682909795488705
 20
20.437354666099619
 30
0.0
  0
VERTEX
  5
8E6
  8
0
 62
    32
 10
13.07979132952795
 20
20.437354666099619
 30
0.0
 42
-0.4142135623712031
  0
VERTEX
  5
8E7
  8
0
 62
    32
 10
12.7753888480658606
 20
20.7373546661006607
 30
0.0
  0
SEQEND
  5
8E8
  8
0
 62
    32
  0
POLYLINE
  5
7DC
  8
0
 62
    32
 66
     1
 10
0.0
 20
0.0
 30
0.0
 70
     1
  0
VERTEX
  5
8E9
  8
0
 62
    32
 10
18.7749457770316894
 20
40.4373546674053088
 30
0.0
  0
VERTEX
  5
8EA
  8
0
 62
    32
 10
12.7753888480640398
 20
37.1373546661946321
 30
0.0
  0
VERTEX
  5
8EB
  8
0
 62
    32
 10
12.7762749900505206
 20
27.4373546661001093
 30
0.0
  0
VERTEX
  5
8EC
  8
0
 62
    32
 10
18.7758319190763814
 20
27.4373546661000809
 30
0.0
  0
SEQEND
  5
8ED
  8
0
 62
    32
  0
POLYLINE
  5
7DD
  8
0
 62
    32
 66
     1
 10
0.0
 20
0.0
 30
0.0
 70
     1
  0
VERTEX
  5
8EE
  8
0
 62
    32
 10
50.7758319190763814
 20
27.4373546661000205
 30
0.0
  0
VERTEX
  5
8EF
  8
0
 62
    32
 10
18.7758319190763814
 20
27.4373546661000809
 30
0.0
  0
VERTEX
  5
8F0
  8
0
 62
    32
 10
18.7758319190763814
 20
24.6373546661001512
 30
0.0
  0
VERTEX
  5
8F1
  8
0
 62
    32
 10
50.7758319190763814
 20
24.6373546661000908
 30
0.0
  0
SEQEND
  5
8F2
  8
0
 62
    32
  0
POLYLINE
  5
7DE
  8
0
 62
    32
 66
     1
 10
0.0
 20
0.0
 30
0.0
 70
     1
  0
VERTEX
  5
8F3
  8
0
 62
    32
 10
56.7753888480676778
 20
37.1373546661003502
 30
0.0
  0
VERTEX
  5
8F4
  8
0
 62
    32
 10
50.7749457770353203
 20
40.4373546689118584
 30
0.0
  0
VERTEX
  5
8F5
  8
0
 62
    32
 10
50.7758319190763814
 20
27.4373546661001413
 30
0.0
  0
VERTEX
  5
8F6
  8
0
 62
    32
 10
56.7753888480665978
 20
27.4373546661000489
 30
0.0
  0
SEQEND
  5
8F7
  8
0
 62
    32
  0
ENDSEC
  0
EOF
