  0
SECTION
  2
HEADER
  9
$ACADVER
  1
AC1009
  9
$INSBASE
 10
0.0
 20
0.0
 30
0.0
  9
$EXTMIN
 10
1.245909531756296
 20
3.5347169564599858
 30
0.0
  9
$EXTMAX
 10
53.9459095317438297
 20
99.7136276094854566
 30
0.0
  9
$LIMMIN
 10
0.0
 20
0.0
  9
$LIMMAX
 10
420.0
 20
297.0
  9
$ORTHOMODE
 70
     1
  9
$REGENMODE
 70
     1
  9
$FILLMODE
 70
     1
  9
$QTEXTMODE
 70
     0
  9
$MIRRTEXT
 70
     0
  9
$DRAGMODE
 70
     2
  9
$LTSCALE
 40
1.0
  9
$OSMODE
 70
    37
  9
$ATTMODE
 70
     1
  9
$TEXTSIZE
 40
2.5
  9
$TRACEWID
 40
1.0
  9
$TEXTSTYLE
  7
STANDARD
  9
$CLAYER
  8
0
  9
$CELTYPE
  6
BYLAYER
  9
$CECOLOR
 62
    32
  9
$DIMSCALE
 40
1.0
  9
$DIMASZ
 40
2.5
  9
$DIMEXO
 40
0.625
  9
$DIMDLI
 40
3.75
  9
$DIMRND
 40
0.0
  9
$DIMDLE
 40
0.0
  9
$DIMEXE
 40
1.25
  9
$DIMTP
 40
0.0
  9
$DIMTM
 40
0.0
  9
$DIMTXT
 40
2.5
  9
$DIMCEN
 40
2.5
  9
$DIMTSZ
 40
0.0
  9
$DIMTOL
 70
     0
  9
$DIMLIM
 70
     0
  9
$DIMTIH
 70
     0
  9
$DIMTOH
 70
     0
  9
$DIMSE1
 70
     0
  9
$DIMSE2
 70
     0
  9
$DIMTAD
 70
     1
  9
$DIMZIN
 70
     8
  9
$DIMBLK
  1

  9
$DIMASO
 70
     1
  9
$DIMSHO
 70
     1
  9
$DIMPOST
  1

  9
$DIMAPOST
  1

  9
$DIMALT
 70
     0
  9
$DIMALTD
 70
     3
  9
$DIMALTF
 40
0.03937007874016
  9
$DIMLFAC
 40
1.0
  9
$DIMTOFL
 70
     1
  9
$DIMTVP
 40
0.0
  9
$DIMTIX
 70
     0
  9
$DIMSOXD
 70
     0
  9
$DIMSAH
 70
     0
  9
$DIMBLK1
  1

  9
$DIMBLK2
  1

  9
$DIMSTYLE
  2
ISO-25
  9
$DIMCLRD
 70
     0
  9
$DIMCLRE
 70
     0
  9
$DIMCLRT
 70
     0
  9
$DIMTFAC
 40
1.0
  9
$DIMGAP
 40
0.625
  9
$LUNITS
 70
     2
  9
$LUPREC
 70
     4
  9
$SKETCHINC
 40
1.0
  9
$FILLETRAD
 40
0.0
  9
$AUNITS
 70
     0
  9
$AUPREC
 70
     0
  9
$MENU
  1
.
  9
$ELEVATION
 40
0.0
  9
$PELEVATION
 40
0.0
  9
$THICKNESS
 40
0.0
  9
$LIMCHECK
 70
     0
  9
$BLIPMODE
 70
     0
  9
$CHAMFERA
 40
0.0
  9
$CHAMFERB
 40
0.0
  9
$SKPOLY
 70
     0
  9
$TDCREATE
 40
2458874.6610069437883794
  9
$TDUPDATE
 40
2458874.6680555557832122
  9
$TDINDWG
 40
0.0070486111
  9
$TDUSRTIMER
 40
0.0070486111
  9
$USRTIMER
 70
     1
  9
$ANGBASE
 50
0.0
  9
$ANGDIR
 70
     0
  9
$PDMODE
 70
     0
  9
$PDSIZE
 40
0.0
  9
$PLINEWID
 40
0.0
  9
$COORDS
 70
     1
  9
$SPLFRAME
 70
     0
  9
$SPLINETYPE
 70
     6
  9
$SPLINESEGS
 70
     8
  9
$ATTDIA
 70
     1
  9
$ATTREQ
 70
     1
  9
$HANDLING
 70
     1
  9
$HANDSEED
  5
87C
  9
$SURFTAB1
 70
     6
  9
$SURFTAB2
 70
     6
  9
$SURFTYPE
 70
     6
  9
$SURFU
 70
     6
  9
$SURFV
 70
     6
  9
$UCSNAME
  2

  9
$UCSORG
 10
0.0
 20
0.0
 30
0.0
  9
$UCSXDIR
 10
1.0
 20
0.0
 30
0.0
  9
$UCSYDIR
 10
0.0
 20
1.0
 30
0.0
  9
$PUCSNAME
  2

  9
$PUCSORG
 10
0.0
 20
0.0
 30
0.0
  9
$PUCSXDIR
 10
1.0
 20
0.0
 30
0.0
  9
$PUCSYDIR
 10
0.0
 20
1.0
 30
0.0
  9
$USERI1
 70
     0
  9
$USERI2
 70
     0
  9
$USERI3
 70
     0
  9
$USERI4
 70
     0
  9
$USERI5
 70
     0
  9
$USERR1
 40
0.0
  9
$USERR2
 40
0.0
  9
$USERR3
 40
0.0
  9
$USERR4
 40
0.0
  9
$USERR5
 40
0.0
  9
$WORLDVIEW
 70
     1
  9
$SHADEDGE
 70
     3
  9
$SHADEDIF
 70
    70
  9
$TILEMODE
 70
     1
  9
$MAXACTVP
 70
    64
  9
$PLIMCHECK
 70
     0
  9
$PEXTMIN
 10
0.0
 20
0.0
 30
0.0
  9
$PEXTMAX
 10
0.0
 20
0.0
 30
0.0
  9
$PLIMMIN
 10
0.0
 20
0.0
  9
$PLIMMAX
 10
12.0
 20
9.0
  9
$UNITMODE
 70
     0
  9
$VISRETAIN
 70
     1
  9
$PLINEGEN
 70
     0
  9
$PSLTSCALE
 70
     1
  0
ENDSEC
  0
SECTION
  2
TABLES
  0
TABLE
  2
VPORT
 70
     1
  0
VPORT
  2
*ACTIVE
 70
     0
 10
0.0
 20
0.0
 11
1.0
 21
1.0
 12
-46.1831957642900122
 22
38.9712656277151765
 13
0.0
 23
0.0
 14
10.0
 24
10.0
 15
10.0
 25
10.0
 16
0.0
 26
0.0
 36
1.0
 17
0.0
 27
0.0
 37
0.0
 40
122.8213400517470006
 41
2.318681318681318
 42
50.0
 43
0.0
 44
0.0
 50
0.0
 51
0.0
 71
     0
 72
  1000
 73
     1
 74
     3
 75
     0
 76
     1
 77
     0
 78
     0
  0
ENDTAB
  0
TABLE
  2
LTYPE
 70
     2
  0
LTYPE
  2
CONTINUOUS
 70
     0
  3
Solid line
 72
    65
 73
     0
 40
0.0
  0
ENDTAB
  0
TABLE
  2
LAYER
 70
     3
  0
LAYER
  2
0
 70
     0
 62
     7
  6
CONTINUOUS
  0
ENDTAB
  0
TABLE
  2
STYLE
 70
     4
  0
STYLE
  2
STANDARD
 70
     0
 40
0.0
 41
1.0
 50
0.0
 71
     0
 42
2.5
  3
txt
  4

  0
ENDTAB
  0
TABLE
  2
VIEW
 70
     0
  0
ENDTAB
  0
TABLE
  2
UCS
 70
     0
  0
ENDTAB
  0
TABLE
  2
APPID
 70
    16
  0
APPID
  2
ACAD
 70
     0
  0
APPID
  2
ACAD_PSEXT
 70
     0
  0
APPID
  2
ACADANNOPO
 70
     0
  0
APPID
  2
ACADANNOTATIVE
 70
     0
  0
APPID
  2
ACAD_DSTYLE_DIMJAG
 70
     0
  0
APPID
  2
ACAD_DSTYLE_DIMTALN
 70
     0
  0
APPID
  2
ACAD_MLEADERVER
 70
     0
  0
APPID
  2
ACAD_NAV_VCDISPLAY
 70
     0
  0
APPID
  2
ACAD_DSTYLE_DIMBREAK
 70
     0
  0
APPID
  2
ACAECLAYERSTANDARD
 70
     0
  0
APPID
  2
ACDBDYNAMICBLOCKTRUENAME
 70
     0
  0
APPID
  2
ACDBDYNAMICBLOCKGUID
 70
     0
  0
APPID
  2
ACADANNOAV
 70
     0
  0
APPID
  2
ACDBBLOCKREPETAG
 70
     0
  0
APPID
  2
ACDBBLOCKREPBTAG
 70
     0
  0
APPID
  2
ACAD_EXEMPT_FROM_CAD_STANDARDS
 70
     0
  0
ENDTAB
  0
TABLE
  2
DIMSTYLE
 70
     5
  0
DIMSTYLE
  2
STANDARD
 70
     0
  3

  4

  5

  6

  7

 40
1.0
 41
0.18
 42
0.0625
 43
0.38
 44
0.18
 45
0.0
 46
0.0
 47
0.0
 48
0.0
140
0.18
141
0.09
142
0.0
143
25.3999999999999986
144
1.0
145
0.0
146
1.0
147
0.09
 71
     0
 72
     0
 73
     1
 74
     1
 75
     0
 76
     0
 77
     0
 78
     0
170
     0
171
     2
172
     0
173
     0
174
     0
175
     0
176
     0
177
     0
178
     0
  0
DIMSTYLE
  2
ISO-25
 70
     0
  3

  4

  5

  6

  7

 40
1.0
 41
2.5
 42
0.625
 43
3.75
 44
1.25
 45
0.0
 46
0.0
 47
0.0
 48
0.0
140
2.5
141
2.5
142
0.0
143
0.03937007874016
144
1.0
145
0.0
146
1.0
147
0.625
 71
     0
 72
     0
 73
     0
 74
     0
 75
     0
 76
     0
 77
     1
 78
     8
170
     0
171
     3
172
     1
173
     0
174
     0
175
     0
176
     0
177
     0
178
     0
  0
ENDTAB
  0
ENDSEC
  0
SECTION
  2
BLOCKS
  0
BLOCK
  8
0
  2
$MODEL_SPACE
 70
     0
 10
0.0
 20
0.0
 30
0.0
  3
$MODEL_SPACE
  1

  0
ENDBLK
  5
21
  8
0
  0
BLOCK
 67
     1
  8
0
  2
$PAPER_SPACE
 70
     0
 10
0.0
 20
0.0
 30
0.0
  3
$PAPER_SPACE
  1

  0
ENDBLK
  5
D5
 67
     1
  8
0
  0
ENDSEC
  0
SECTION
  2
ENTITIES
  0
POLYLINE
  5
714
  8
0
 62
    32
 66
     1
 10
0.0
 20
0.0
 30
0.0
 70
     1
  0
VERTEX
  5
783
  8
0
 62
    32
 10
33.4459767865908617
 20
47.5347169564608976
 30
0.0
  0
VERTEX
  5
784
  8
0
 62
    32
 10
24.4458422768981407
 20
47.5347169564608976
 30
0.0
  0
VERTEX
  5
785
  8
0
 62
    32
 10
22.9627473182876116
 20
44.7909957828472116
 30
0.0
 42
-0.4581651431006959
  0
VERTEX
  5
786
  8
0
 62
    32
 10
22.2283947001303694
 20
44.6057758453922588
 30
0.0
  0
VERTEX
  5
787
  8
0
 62
    32
 10
20.7066790472022113
 20
45.674271593412179
 30
0.0
  0
VERTEX
  5
788
  8
0
 62
    32
 10
20.2459095317467508
 20
45.6742715934112766
 30
0.0
 42
0.4142135623730951
  0
VERTEX
  5
789
  8
0
 62
    32
 10
19.9459095317465582
 20
45.3742715934110876
 30
0.0
  0
VERTEX
  5
78A
  8
0
 62
    32
 10
19.9459095317465582
 20
41.7742715934125499
 30
0.0
 42
0.4142135623730921
  0
VERTEX
  5
78B
  8
0
 62
    32
 10
20.2459095317467508
 20
41.4742715934123609
 30
0.0
  0
VERTEX
  5
78C
  8
0
 62
    32
 10
20.7066790472022006
 20
41.4742715934114585
 30
0.0
  0
VERTEX
  5
78D
  8
0
 62
    32
 10
22.7851400162811686
 20
42.674271593412179
 30
0.0
  0
VERTEX
  5
78E
  8
0
 62
    32
 10
23.8448226446203115
 20
42.6742715934117314
 30
0.0
 42
0.2914734195860661
  0
VERTEX
  5
78F
  8
0
 62
    32
 10
24.1167149807318708
 20
42.8474861148898682
 30
0.0
  0
VERTEX
  5
790
  8
0
 62
    32
 10
25.5639338856256799
 20
45.9510570719334197
 30
0.0
 42
-0.2914734195861724
  0
VERTEX
  5
791
  8
0
 62
    32
 10
25.8358262217375412
 20
46.1242715934118195
 30
0.0
  0
VERTEX
  5
792
  8
0
 62
    32
 10
28.9459095317438404
 20
46.1242715934110876
 30
0.0
  0
VERTEX
  5
793
  8
0
 62
    32
 10
32.0559928417501396
 20
46.1242715934118195
 30
0.0
 42
-0.2914734195860661
  0
VERTEX
  5
794
  8
0
 62
    32
 10
32.3278851778619511
 20
45.9510570719335192
 30
0.0
  0
VERTEX
  5
795
  8
0
 62
    32
 10
33.7751040827557389
 20
42.8474861148900033
 30
0.0
 42
0.2914734195861936
  0
VERTEX
  5
796
  8
0
 62
    32
 10
34.0469964188673728
 20
42.6742715934117314
 30
0.0
  0
VERTEX
  5
797
  8
0
 62
    32
 10
35.1066790472064767
 20
42.6742715934121932
 30
0.0
  0
VERTEX
  5
798
  8
0
 62
    32
 10
37.1851400162854731
 20
41.4742715934114585
 30
0.0
  0
VERTEX
  5
799
  8
0
 62
    32
 10
37.6459095317409265
 20
41.4742715934123609
 30
0.0
 42
0.4142135623730935
  0
VERTEX
  5
79A
  8
0
 62
    32
 10
37.9459095317411084
 20
41.7742715934125499
 30
0.0
  0
VERTEX
  5
79B
  8
0
 62
    32
 10
37.9459095317411084
 20
45.3742715934110876
 30
0.0
 42
0.4142135623730951
  0
VERTEX
  5
79C
  8
0
 62
    32
 10
37.6459095317409265
 20
45.6742715934112766
 30
0.0
  0
VERTEX
  5
79D
  8
0
 62
    32
 10
37.1851400162854588
 20
45.674271593412179
 30
0.0
  0
VERTEX
  5
79E
  8
0
 62
    32
 10
35.6634243633573007
 20
44.6057758453922588
 30
0.0
 42
-0.4394995507124453
  0
VERTEX
  5
79F
  8
0
 62
    32
 10
34.9438444218058919
 20
44.7636663759478068
 30
0.0
  0
SEQEND
  5
7A0
  8
0
 62
    32
  0
POLYLINE
  5
715
  8
0
 62
    32
 66
     1
 10
0.0
 20
0.0
 30
0.0
 70
     1
  0
VERTEX
  5
7A1
  8
0
 62
    32
 10
34.929071745193788
 20
17.0284381300611507
 30
0.0
 42
-0.4581651431089264
  0
VERTEX
  5
7A2
  8
0
 62
    32
 10
35.6634243633569668
 20
17.2136580675288506
 30
0.0
  0
VERTEX
  5
7A3
  8
0
 62
    32
 10
37.1851400162854588
 20
16.145162319509609
 30
0.0
  0
VERTEX
  5
7A4
  8
0
 62
    32
 10
37.6459095317409265
 20
16.1451623195086995
 30
0.0
 42
0.4142135623730951
  0
VERTEX
  5
7A5
  8
0
 62
    32
 10
37.9459095317411084
 20
16.4451623195088814
 30
0.0
  0
VERTEX
  5
7A6
  8
0
 62
    32
 10
37.9459095317411084
 20
20.0451623195092417
 30
0.0
 42
0.4142135623730948
  0
VERTEX
  5
7A7
  8
0
 62
    32
 10
37.6459095317409265
 20
20.3451623195094307
 30
0.0
  0
VERTEX
  5
7A8
  8
0
 62
    32
 10
37.1851400162854588
 20
20.3451623195085212
 30
0.0
  0
VERTEX
  5
7A9
  8
0
 62
    32
 10
35.1066790472064696
 20
19.145162319509609
 30
0.0
  0
VERTEX
  5
7AA
  8
0
 62
    32
 10
34.0469964188673728
 20
19.1451623195091507
 30
0.0
 42
0.2914734195860662
  0
VERTEX
  5
7AB
  8
0
 62
    32
 10
33.7751040827558029
 20
18.9719477980310209
 30
0.0
  0
VERTEX
  5
7AC
  8
0
 62
    32
 10
32.3278851778620009
 20
15.8683768409874695
 30
0.0
 42
-0.2914734195861757
  0
VERTEX
  5
7AD
  8
0
 62
    32
 10
32.0559928417501396
 20
15.6951623195090608
 30
0.0
  0
VERTEX
  5
7AE
  8
0
 62
    32
 10
28.9459095317438404
 20
15.6951623195088796
 30
0.0
  0
VERTEX
  5
7AF
  8
0
 62
    32
 10
25.8358262217375412
 20
15.6951623195090608
 30
0.0
 42
-0.2914734195860658
  0
VERTEX
  5
7B0
  8
0
 62
    32
 10
25.5639338856257297
 20
15.8683768409873593
 30
0.0
  0
VERTEX
  5
7B1
  8
0
 62
    32
 10
24.1167149807319312
 20
18.9719477980308895
 30
0.0
 42
0.2914734195861974
  0
VERTEX
  5
7B2
  8
0
 62
    32
 10
23.8448226446203115
 20
19.1451623195091507
 30
0.0
  0
VERTEX
  5
7B3
  8
0
 62
    32
 10
22.7851400162811899
 20
19.1451623195096197
 30
0.0
  0
VERTEX
  5
7B4
  8
0
 62
    32
 10
20.7066790472022184
 20
20.3451623195085212
 30
0.0
  0
VERTEX
  5
7B5
  8
0
 62
    32
 10
20.2459095317467508
 20
20.3451623195094307
 30
0.0
 42
0.414213562373096
  0
VERTEX
  5
7B6
  8
0
 62
    32
 10
19.9459095317465582
 20
20.0451623195092417
 30
0.0
  0
VERTEX
  5
7B7
  8
0
 62
    32
 10
19.9459095317465582
 20
16.4451623195088814
 30
0.0
 42
0.4142135623730951
  0
VERTEX
  5
7B8
  8
0
 62
    32
 10
20.2459095317467508
 20
16.1451623195086995
 30
0.0
  0
VERTEX
  5
7B9
  8
0
 62
    32
 10
20.7066790472022113
 20
16.145162319509609
 30
0.0
  0
VERTEX
  5
7BA
  8
0
 62
    32
 10
22.2283947001306998
 20
17.2136580675288506
 30
0.0
 42
-0.4394995507039589
  0
VERTEX
  5
7BB
  8
0
 62
    32
 10
22.9479746416748398
 20
17.0557675369850301
 30
0.0
  0
VERTEX
  5
7BC
  8
0
 62
    32
 10
24.4458422768976611
 20
14.2847169564599792
 30
0.0
  0
VERTEX
  5
7BD
  8
0
 62
    32
 10
33.4459767865900233
 20
14.2847169564599703
 30
0.0
  0
SEQEND
  5
7BE
  8
0
 62
    32
  0
POLYLINE
  5
716
  8
0
 62
    32
 66
     1
 10
0.0
 20
0.0
 30
0.0
 70
     1
  0
VERTEX
  5
7BF
  8
0
 62
    32
 10
6.9459095317411084
 20
66.2347169564598062
 30
0.0
 42
0.4142135623730951
  0
VERTEX
  5
7C0
  8
0
 62
    32
 10
6.6459095317409256
 20
66.5347169564599881
 30
0.0
  0
VERTEX
  5
7C1
  8
0
 62
    32
 10
4.24590953174686
 20
66.5347169564590786
 30
0.0
 42
0.4142135623732061
  0
VERTEX
  5
7C2
  8
0
 62
    32
 10
3.9459095317474739
 20
66.2347169564598062
 30
0.0
  0
VERTEX
  5
7C3
  8
0
 62
    32
 10
3.9459095317465649
 20
44.8347169564602197
 30
0.0
 42
0.4142135623731438
  0
VERTEX
  5
7C4
  8
0
 62
    32
 10
4.2459095317467472
 20
44.534716956459981
 30
0.0
  0
VERTEX
  5
7C5
  8
0
 62
    32
 10
6.6459095317408119
 20
44.5347169564590786
 30
0.0
 42
-0.4142135623732061
  0
VERTEX
  5
7C6
  8
0
 62
    32
 10
6.945909531740198
 20
44.2347169564597991
 30
0.0
  0
VERTEX
  5
7C7
  8
0
 62
    32
 10
6.9459095317465653
 20
3.8347169564601429
 30
0.0
 42
0.414213562373071
  0
VERTEX
  5
7C8
  8
0
 62
    32
 10
7.2459095317467472
 20
3.5347169564599858
 30
0.0
  0
VERTEX
  5
7C9
  8
0
 62
    32
 10
8.6459095317411183
 20
3.5347169564608971
 30
0.0
 42
0.4142135623729148
  0
VERTEX
  5
7CA
  8
0
 62
    32
 10
8.9459095317402042
 20
3.8347169564601691
 30
0.0
  0
VERTEX
  5
7CB
  8
0
 62
    32
 10
8.9459095317411084
 20
8.8347169564603156
 30
0.0
 42
-0.4142135623728817
  0
VERTEX
  5
7CC
  8
0
 62
    32
 10
9.1459095317409265
 20
9.0347169564599881
 30
0.0
  0
VERTEX
  5
7CD
  8
0
 62
    32
 10
9.320909531747084
 20
9.0347169564610681
 30
0.0
 42
0.9667558504571228
  0
VERTEX
  5
7CE
  8
0
 62
    32
 10
9.3631309242156249
 20
10.2832892089039003
 30
0.0
 42
-0.3653113328654365
  0
VERTEX
  5
7CF
  8
0
 62
    32
 10
9.1776851893933014
 20
10.4624294105266191
 30
0.0
  0
VERTEX
  5
7D0
  8
0
 62
    32
 10
9.0060828727128168
 20
12.1357884946609005
 30
0.0
 42
-1.1077940659268699
  0
VERTEX
  5
7D1
  8
0
 62
    32
 10
12.88573619077453
 20
12.1357884946577599
 30
0.0
  0
VERTEX
  5
7D2
  8
0
 62
    32
 10
12.7141338740944398
 20
10.46242941052639
 30
0.0
 42
-0.3653113328641569
  0
VERTEX
  5
7D3
  8
0
 62
    32
 10
12.5286881392720009
 20
10.2832892089046197
 30
0.0
 42
0.9667558504721938
  0
VERTEX
  5
7D4
  8
0
 62
    32
 10
12.5709095317438404
 20
9.0347169564608976
 30
0.0
  0
VERTEX
  5
7D5
  8
0
 62
    32
 10
14.14590953174093
 20
9.0347169564608976
 30
0.0
 42
0.4142135623730951
  0
VERTEX
  5
7D6
  8
0
 62
    32
 10
14.4459095317402006
 20
9.3347169564601682
 30
0.0
  0
VERTEX
  5
7D7
  8
0
 62
    32
 10
14.44590953174656
 20
13.9847169564600406
 30
0.0
 42
-0.4142135623728659
  0
VERTEX
  5
7D8
  8
0
 62
    32
 10
14.7459095317467508
 20
14.2847169564599898
 30
0.0
  0
VERTEX
  5
7D9
  8
0
 62
    32
 10
24.4458422768976611
 20
14.2847169564599792
 30
0.0
  0
VERTEX
  5
7DA
  8
0
 62
    32
 10
22.9479746416748291
 20
17.0557675369850408
 30
0.0
 42
0.4394995507039533
  0
VERTEX
  5
7DB
  8
0
 62
    32
 10
22.2283947001306998
 20
17.2136580675288506
 30
0.0
  0
VERTEX
  5
7DC
  8
0
 62
    32
 10
20.7066790472022184
 20
16.145162319509609
 30
0.0
  0
VERTEX
  5
7DD
  8
0
 62
    32
 10
20.2459095317467508
 20
16.1451623195086995
 30
0.0
 42
-0.4142135623730951
  0
VERTEX
  5
7DE
  8
0
 62
    32
 10
19.9459095317465582
 20
16.4451623195088814
 30
0.0
  0
VERTEX
  5
7DF
  8
0
 62
    32
 10
19.9459095317465582
 20
20.0451623195092417
 30
0.0
 42
-0.4142135623730957
  0
VERTEX
  5
7E0
  8
0
 62
    32
 10
20.2459095317467508
 20
20.3451623195094307
 30
0.0
  0
VERTEX
  5
7E1
  8
0
 62
    32
 10
20.7066790472022184
 20
20.3451623195085212
 30
0.0
  0
VERTEX
  5
7E2
  8
0
 62
    32
 10
22.1880224681502511
 20
19.4899082966611594
 30
0.0
 42
0.5030796525313378
  0
VERTEX
  5
7E3
  8
0
 62
    32
 10
22.4459095317465689
 20
19.6813478115689406
 30
0.0
  0
VERTEX
  5
7E4
  8
0
 62
    32
 10
22.4459095317440713
 20
21.1069310449946492
 30
0.0
 42
0.2614125764219652
  0
VERTEX
  5
7E5
  8
0
 62
    32
 10
21.9669191635862688
 20
21.9604818422671997
 30
0.0
  0
VERTEX
  5
7E6
  8
0
 62
    32
 10
19.5417978805696002
 20
23.440782195642651
 30
0.0
 42
0.1378721067477358
  0
VERTEX
  5
7E7
  8
0
 62
    32
 10
19.385494991016909
 20
23.4847169564602609
 30
0.0
  0
VERTEX
  5
7E8
  8
0
 62
    32
 10
17.2459095317466797
 20
23.4847169564598097
 30
0.0
 42
0.4142135623730326
  0
VERTEX
  5
7E9
  8
0
 62
    32
 10
16.9459095317474713
 20
23.1847169564605302
 30
0.0
  0
VERTEX
  5
7EA
  8
0
 62
    32
 10
16.9459095317438297
 20
19.7847169564603611
 30
0.0
 42
-0.4142135623727817
  0
VERTEX
  5
7EB
  8
0
 62
    32
 10
16.4459095317438404
 20
19.2847169564609011
 30
0.0
  0
VERTEX
  5
7EC
  8
0
 62
    32
 10
16.3594853694817211
 20
19.2847169564602794
 30
0.0
 42
-0.3722290659487339
  0
VERTEX
  5
7ED
  8
0
 62
    32
 10
15.8647642335793702
 20
19.7122531883452012
 30
0.0
 42
0.139360334339533
  0
VERTEX
  5
7EE
  8
0
 62
    32
 10
15.2034975286338998
 20
21.1836104332744597
 30
0.0
 42
1.0
  0
VERTEX
  5
7EF
  8
0
 62
    32
 10
14.0555714285206506
 20
20.2180713772680392
 30
0.0
 42
-2.1478203655834038
  0
VERTEX
  5
7F0
  8
0
 62
    32
 10
11.8362476349685206
 20
20.2180713772665896
 30
0.0
 42
1.0
  0
VERTEX
  5
7F1
  8
0
 62
    32
 10
10.6883215348516902
 20
21.1836104332758701
 30
0.0
 42
0.1393603343395177
  0
VERTEX
  5
7F2
  8
0
 62
    32
 10
10.0270548299102504
 20
19.7122531883449099
 30
0.0
 42
-0.3722290659500031
  0
VERTEX
  5
7F3
  8
0
 62
    32
 10
9.5323336940059598
 20
19.2847169564609011
 30
0.0
  0
VERTEX
  5
7F4
  8
0
 62
    32
 10
9.4459095317438369
 20
19.2847169564609011
 30
0.0
 42
-0.4142135623730951
  0
VERTEX
  5
7F5
  8
0
 62
    32
 10
8.9459095317438369
 20
19.7847169564609011
 30
0.0
  0
VERTEX
  5
7F6
  8
0
 62
    32
 10
8.9459095317438369
 20
42.0347169564608905
 30
0.0
 42
-0.4142135623730951
  0
VERTEX
  5
7F7
  8
0
 62
    32
 10
9.4459095317438369
 20
42.5347169564608976
 30
0.0
  0
VERTEX
  5
7F8
  8
0
 62
    32
 10
9.5323336940059598
 20
42.5347169564615015
 30
0.0
 42
-0.3722290659487338
  0
VERTEX
  5
7F9
  8
0
 62
    32
 10
10.0270548299083
 20
42.1071807245765868
 30
0.0
 42
0.1393603343396278
  0
VERTEX
  5
7FA
  8
0
 62
    32
 10
10.6883215348539196
 20
40.6358234796462483
 30
0.0
 42
1.0
  0
VERTEX
  5
7FB
  8
0
 62
    32
 10
11.8362476349670693
 20
41.6013625356527825
 30
0.0
 42
-2.1478203655834851
  0
VERTEX
  5
7FC
  8
0
 62
    32
 10
14.0555714285191495
 20
41.6013625356542889
 30
0.0
 42
1.0
  0
VERTEX
  5
7FD
  8
0
 62
    32
 10
15.2034975286353795
 20
40.6358234796452109
 30
0.0
 42
0.139360334339598
  0
VERTEX
  5
7FE
  8
0
 62
    32
 10
15.8647642335774197
 20
42.107180724576871
 30
0.0
 42
-0.3722290659500031
  0
VERTEX
  5
7FF
  8
0
 62
    32
 10
16.3594853694817104
 20
42.5347169564608976
 30
0.0
  0
VERTEX
  5
800
  8
0
 62
    32
 10
16.4459095317438404
 20
42.5347169564608976
 30
0.0
 42
-0.4142135623730951
  0
VERTEX
  5
801
  8
0
 62
    32
 10
16.9459095317438297
 20
42.0347169564608905
 30
0.0
  0
VERTEX
  5
802
  8
0
 62
    32
 10
16.9459095317470201
 20
38.6347169564603519
 30
0.0
 42
0.4142135623730951
  0
VERTEX
  5
803
  8
0
 62
    32
 10
17.2459095317467508
 20
38.3347169564606318
 30
0.0
  0
VERTEX
  5
804
  8
0
 62
    32
 10
19.3854949910168486
 20
38.334716956460781
 30
0.0
 42
0.1378721067481293
  0
VERTEX
  5
805
  8
0
 62
    32
 10
19.5417978805698596
 20
38.3786517172785722
 30
0.0
  0
VERTEX
  5
806
  8
0
 62
    32
 10
21.9669191635844605
 20
39.858952070651938
 30
0.0
 42
0.2614125764230025
  0
VERTEX
  5
807
  8
0
 62
    32
 10
22.4459095317438404
 20
40.7125028679272418
 30
0.0
  0
VERTEX
  5
808
  8
0
 62
    32
 10
22.4459095317475388
 20
42.1380861013519805
 30
0.0
 42
0.6567263761656631
  0
VERTEX
  5
809
  8
0
 62
    32
 10
22.1090615803439512
 20
42.2839375264295967
 30
0.0
  0
VERTEX
  5
80A
  8
0
 62
    32
 10
20.7066790472022184
 20
41.4742715934114585
 30
0.0
  0
VERTEX
  5
80B
  8
0
 62
    32
 10
20.2459095317467508
 20
41.4742715934123609
 30
0.0
 42
-0.4142135623730854
  0
VERTEX
  5
80C
  8
0
 62
    32
 10
19.9459095317465689
 20
41.7742715934125499
 30
0.0
  0
VERTEX
  5
80D
  8
0
 62
    32
 10
19.9459095317465582
 20
45.3742715934110876
 30
0.0
 42
-0.4142135623730951
  0
VERTEX
  5
80E
  8
0
 62
    32
 10
20.2459095317467508
 20
45.6742715934112766
 30
0.0
  0
VERTEX
  5
80F
  8
0
 62
    32
 10
20.7066790472022184
 20
45.674271593412179
 30
0.0
  0
VERTEX
  5
810
  8
0
 62
    32
 10
22.2283947001303694
 20
44.6057758453922588
 30
0.0
 42
0.458165143100699
  0
VERTEX
  5
811
  8
0
 62
    32
 10
22.9627473182876116
 20
44.7909957828472116
 30
0.0
  0
VERTEX
  5
812
  8
0
 62
    32
 10
24.4458422768981407
 20
47.5347169564608976
 30
0.0
  0
VERTEX
  5
813
  8
0
 62
    32
 10
12.9459095317438404
 20
47.5347169564608976
 30
0.0
  0
VERTEX
  5
814
  8
0
 62
    32
 10
7.2459095317467472
 20
47.5347169564608976
 30
0.0
 42
-0.4142135623730951
  0
VERTEX
  5
815
  8
0
 62
    32
 10
6.9459095317474739
 20
47.8347169564601629
 30
0.0
  0
SEQEND
  5
816
  8
0
 62
    32
  0
POLYLINE
  5
717
  8
0
 62
    32
 66
     1
 10
0.0
 20
0.0
 30
0.0
 70
     1
  0
VERTEX
  5
817
  8
0
 62
    32
 10
12.9459095317533901
 20
72.2347169562911091
 30
0.0
  0
VERTEX
  5
818
  8
0
 62
    32
 10
6.9459095317533857
 20
66.2347169562910949
 30
0.0
  0
VERTEX
  5
819
  8
0
 62
    32
 10
6.9459095317533857
 20
57.0347169562903673
 30
0.0
 42
0.4854532933268258
  0
VERTEX
  5
81A
  8
0
 62
    32
 10
12.9459095317533901
 20
57.0347169562903673
 30
0.0
  0
SEQEND
  5
81B
  8
0
 62
    32
  0
POLYLINE
  5
718
  8
0
 62
    32
 66
     1
 10
0.0
 20
0.0
 30
0.0
 70
     1
  0
VERTEX
  5
81C
  8
0
 62
    32
 10
44.9459095317438297
 20
49.5347169564613523
 30
0.0
  0
VERTEX
  5
81D
  8
0
 62
    32
 10
12.9459095317438404
 20
49.5347169564613523
 30
0.0
  0
VERTEX
  5
81E
  8
0
 62
    32
 10
12.9459095317438404
 20
47.5347169564608976
 30
0.0
  0
VERTEX
  5
81F
  8
0
 62
    32
 10
44.9459095317438297
 20
47.5347169564608976
 30
0.0
  0
SEQEND
  5
820
  8
0
 62
    32
  0
POLYLINE
  5
719
  8
0
 62
    32
 66
     1
 10
0.0
 20
0.0
 30
0.0
 70
     1
  0
VERTEX
  5
821
  8
0
 62
    32
 10
50.9459095317533794
 20
66.2347169562910949
 30
0.0
  0
VERTEX
  5
822
  8
0
 62
    32
 10
44.9459095317533865
 20
72.2347169562910949
 30
0.0
  0
VERTEX
  5
823
  8
0
 62
    32
 10
44.9459095317533865
 20
57.0347169562903673
 30
0.0
 42
0.4854532933268258
  0
VERTEX
  5
824
  8
0
 62
    32
 10
50.9459095317533794
 20
57.0347169562903673
 30
0.0
  0
SEQEND
  5
825
  8
0
 62
    32
  0
POLYLINE
  5
71A
  8
0
 62
    32
 66
     1
 10
0.0
 20
0.0
 30
0.0
 70
     1
  0
VERTEX
  5
826
  8
0
 62
    32
 10
50.9459095317474819
 20
44.2347169564597991
 30
0.0
 42
-0.4142135623730951
  0
VERTEX
  5
827
  8
0
 62
    32
 10
51.2459095317467401
 20
44.5347169564590786
 30
0.0
  0
VERTEX
  5
828
  8
0
 62
    32
 10
53.6459095317411467
 20
44.534716956459981
 30
0.0
 42
0.4142135623728733
  0
VERTEX
  5
829
  8
0
 62
    32
 10
53.9459095317411084
 20
44.8347169564601629
 30
0.0
  0
VERTEX
  5
82A
  8
0
 62
    32
 10
53.9459095317401989
 20
66.2347169564597777
 30
0.0
 42
0.4142135623731298
  0
VERTEX
  5
82B
  8
0
 62
    32
 10
53.6459095317409265
 20
66.5347169564590786
 30
0.0
  0
VERTEX
  5
82C
  8
0
 62
    32
 10
51.2459095317469675
 20
66.5347169564599881
 30
0.0
 42
0.4142135623733171
  0
VERTEX
  5
82D
  8
0
 62
    32
 10
50.9459095317465582
 20
66.2347169564598062
 30
0.0
  0
VERTEX
  5
82E
  8
0
 62
    32
 10
50.9459095317533794
 20
57.0347169562903673
 30
0.0
  0
VERTEX
  5
82F
  8
0
 62
    32
 10
50.9459095317401918
 20
47.8347169564598502
 30
0.0
 42
-0.4142135623727898
  0
VERTEX
  5
830
  8
0
 62
    32
 10
50.6459095317409265
 20
47.5347169564608976
 30
0.0
  0
VERTEX
  5
831
  8
0
 62
    32
 10
33.4459767865908617
 20
47.5347169564608976
 30
0.0
  0
VERTEX
  5
832
  8
0
 62
    32
 10
34.9438444218058777
 20
44.7636663759478068
 30
0.0
 42
0.4394995507124503
  0
VERTEX
  5
833
  8
0
 62
    32
 10
35.6634243633573007
 20
44.6057758453922588
 30
0.0
  0
VERTEX
  5
834
  8
0
 62
    32
 10
37.1851400162854588
 20
45.674271593412179
 30
0.0
  0
VERTEX
  5
835
  8
0
 62
    32
 10
37.6459095317409265
 20
45.6742715934112766
 30
0.0
 42
-0.4142135623730951
  0
VERTEX
  5
836
  8
0
 62
    32
 10
37.9459095317411084
 20
45.3742715934110876
 30
0.0
  0
VERTEX
  5
837
  8
0
 62
    32
 10
37.9459095317411084
 20
41.7742715934125499
 30
0.0
 42
-0.414213562373096
  0
VERTEX
  5
838
  8
0
 62
    32
 10
37.6459095317409265
 20
41.4742715934123609
 30
0.0
  0
VERTEX
  5
839
  8
0
 62
    32
 10
37.1851400162854731
 20
41.4742715934114585
 30
0.0
  0
VERTEX
  5
83A
  8
0
 62
    32
 10
35.7037965953352909
 20
42.3295256162613569
 30
0.0
 42
0.5030796525274464
  0
VERTEX
  5
83B
  8
0
 62
    32
 10
35.4459095317401278
 20
42.1380861013519592
 30
0.0
  0
VERTEX
  5
83C
  8
0
 62
    32
 10
35.4459095317438369
 20
40.7125028679246412
 30
0.0
 42
0.2614125764217817
  0
VERTEX
  5
83D
  8
0
 62
    32
 10
35.9248998999015328
 20
39.8589520706529683
 30
0.0
  0
VERTEX
  5
83E
  8
0
 62
    32
 10
38.3500211829181268
 20
38.3786517172783803
 30
0.0
 42
0.1378721067477584
  0
VERTEX
  5
83F
  8
0
 62
    32
 10
38.5063240724707612
 20
38.334716956460781
 30
0.0
  0
VERTEX
  5
840
  8
0
 62
    32
 10
40.6459095317408412
 20
38.3347169564606318
 30
0.0
 42
0.4142135623731788
  0
VERTEX
  5
841
  8
0
 62
    32
 10
40.9459095317406465
 20
38.6347169564603519
 30
0.0
  0
VERTEX
  5
842
  8
0
 62
    32
 10
40.9459095317438369
 20
42.0347169564613594
 30
0.0
 42
-0.4142135623728203
  0
VERTEX
  5
843
  8
0
 62
    32
 10
41.4459095317438297
 20
42.5347169564608976
 30
0.0
  0
VERTEX
  5
844
  8
0
 62
    32
 10
41.5323336940059491
 20
42.5347169564608976
 30
0.0
 42
-0.3722290659489789
  0
VERTEX
  5
845
  8
0
 62
    32
 10
42.0270548299081668
 20
42.1071807245765797
 30
0.0
 42
0.1393603343396075
  0
VERTEX
  5
846
  8
0
 62
    32
 10
42.6883215348544596
 20
40.635823479646703
 30
0.0
 42
1.0
  0
VERTEX
  5
847
  8
0
 62
    32
 10
43.8362476349670729
 20
41.6013625356527825
 30
0.0
 42
-2.1478203655842831
  0
VERTEX
  5
848
  8
0
 62
    32
 10
46.0555714285186184
 20
41.6013625356547365
 30
0.0
 42
1.0
  0
VERTEX
  5
849
  8
0
 62
    32
 10
47.2034975286352889
 20
40.6358234796452891
 30
0.0
 42
0.1393603343395861
  0
VERTEX
  5
84A
  8
0
 62
    32
 10
47.8647642335768069
 20
42.1071807245769634
 30
0.0
 42
-0.3722290659500056
  0
VERTEX
  5
84B
  8
0
 62
    32
 10
48.3594853694817175
 20
42.5347169564615015
 30
0.0
  0
VERTEX
  5
84C
  8
0
 62
    32
 10
48.4459095317473682
 20
42.5347169564608976
 30
0.0
 42
-0.4142135623710244
  0
VERTEX
  5
84D
  8
0
 62
    32
 10
48.9459095317438297
 20
42.0347169564608905
 30
0.0
  0
VERTEX
  5
84E
  8
0
 62
    32
 10
48.9459095317438297
 20
19.7847169564609011
 30
0.0
 42
-0.4142135623730951
  0
VERTEX
  5
84F
  8
0
 62
    32
 10
48.4459095317438369
 20
19.2847169564609011
 30
0.0
  0
VERTEX
  5
850
  8
0
 62
    32
 10
48.3594853694817175
 20
19.2847169564609011
 30
0.0
 42
-0.3722290659489783
  0
VERTEX
  5
851
  8
0
 62
    32
 10
47.8647642335794927
 20
19.712253188345219
 30
0.0
 42
0.1393603343395136
  0
VERTEX
  5
852
  8
0
 62
    32
 10
47.2034975286333705
 20
21.1836104332740085
 30
0.0
 42
1.0
  0
VERTEX
  5
853
  8
0
 62
    32
 10
46.0555714285206506
 20
20.2180713772680392
 30
0.0
 42
-2.149327362470022
  0
VERTEX
  5
854
  8
0
 62
    32
 10
43.8372500329872494
 20
20.2192618274089888
 30
0.0
 42
0.9984270757207179
  0
VERTEX
  5
855
  8
0
 62
    32
 10
42.6903608991602965
 20
21.1860323869068203
 30
0.0
 42
0.1396338785649732
  0
VERTEX
  5
856
  8
0
 62
    32
 10
42.0270548296014681
 20
19.7122531862503791
 30
0.0
 42
-0.372911106625531
  0
VERTEX
  5
857
  8
0
 62
    32
 10
41.5323336940079315
 20
19.2847169564608905
 30
0.0
 42
-0.4615170149093692
  0
VERTEX
  5
858
  8
0
 62
    32
 10
40.9459095317438369
 20
19.7599461030723589
 30
0.0
  0
VERTEX
  5
859
  8
0
 62
    32
 10
40.9459095317438369
 20
23.1859353356774811
 30
0.0
 42
0.4142135579991401
  0
VERTEX
  5
85A
  8
0
 62
    32
 10
40.6459095362245719
 20
23.4847169564598097
 30
0.0
  0
VERTEX
  5
85B
  8
0
 62
    32
 10
38.5063240724707612
 20
23.4847169564598097
 30
0.0
 42
0.1378721049366325
  0
VERTEX
  5
85C
  8
0
 62
    32
 10
38.3465267553191822
 20
23.438649187931869
 30
0.0
  0
VERTEX
  5
85D
  8
0
 62
    32
 10
35.924899899901412
 20
21.9604818422671997
 30
0.0
 42
0.2614125764224759
  0
VERTEX
  5
85E
  8
0
 62
    32
 10
35.4459095317436024
 20
21.1069310449927414
 30
0.0
  0
VERTEX
  5
85F
  8
0
 62
    32
 10
35.4459095317411084
 20
19.6813478115682194
 30
0.0
 42
0.65672637615181
  0
VERTEX
  5
860
  8
0
 62
    32
 10
35.7827574831355477
 20
19.5354963864869013
 30
0.0
  0
VERTEX
  5
861
  8
0
 62
    32
 10
37.1851400162854588
 20
20.3451623195085212
 30
0.0
  0
VERTEX
  5
862
  8
0
 62
    32
 10
37.6459095317409265
 20
20.3451623195094307
 30
0.0
 42
-0.4142135623730942
  0
VERTEX
  5
863
  8
0
 62
    32
 10
37.9459095317411084
 20
20.0451623195092417
 30
0.0
  0
VERTEX
  5
864
  8
0
 62
    32
 10
37.9459095317411084
 20
16.4451623195088814
 30
0.0
 42
-0.4142135623730951
  0
VERTEX
  5
865
  8
0
 62
    32
 10
37.6459095317409265
 20
16.1451623195086995
 30
0.0
  0
VERTEX
  5
866
  8
0
 62
    32
 10
37.1851400162854588
 20
16.145162319509609
 30
0.0
  0
VERTEX
  5
867
  8
0
 62
    32
 10
35.6634243633569668
 20
17.2136580675288506
 30
0.0
 42
0.4581651431089478
  0
VERTEX
  5
868
  8
0
 62
    32
 10
34.9290717451937667
 20
17.0284381300611187
 30
0.0
  0
VERTEX
  5
869
  8
0
 62
    32
 10
33.4459767865900233
 20
14.2847169564599703
 30
0.0
  0
VERTEX
  5
86A
  8
0
 62
    32
 10
43.1459095317428591
 20
14.2847169564599703
 30
0.0
 42
-0.41421356237386
  0
VERTEX
  5
86B
  8
0
 62
    32
 10
43.4459095317438369
 20
13.9979794262124209
 30
0.0
  0
VERTEX
  5
86C
  8
0
 62
    32
 10
43.4459095317474677
 20
9.3347169564601682
 30
0.0
 42
0.4142135623730951
  0
VERTEX
  5
86D
  8
0
 62
    32
 10
43.7459095317467401
 20
9.0347169564608976
 30
0.0
  0
VERTEX
  5
86E
  8
0
 62
    32
 10
45.3209095317438369
 20
9.0347169564608976
 30
0.0
 42
0.9667558504536991
  0
VERTEX
  5
86F
  8
0
 62
    32
 10
45.3631309242156178
 20
10.2832892089038097
 30
0.0
 42
-0.3653113328654375
  0
VERTEX
  5
870
  8
0
 62
    32
 10
45.177685189393209
 20
10.4624294105266102
 30
0.0
  0
VERTEX
  5
871
  8
0
 62
    32
 10
45.0060828727128097
 20
12.1357884946610106
 30
0.0
 42
-1.107794065926849
  0
VERTEX
  5
872
  8
0
 62
    32
 10
48.8857361907745371
 20
12.1357884946577705
 30
0.0
  0
VERTEX
  5
873
  8
0
 62
    32
 10
48.714133874094351
 20
10.4624294105264006
 30
0.0
 42
-0.3653113328644697
  0
VERTEX
  5
874
  8
0
 62
    32
 10
48.5286881392720133
 20
10.2832892089044492
 30
0.0
 42
0.9879957181748824
  0
VERTEX
  5
875
  8
0
 62
    32
 10
48.7044086900751481
 20
9.0303637814803466
 30
0.0
 42
-0.476847704327976
  0
VERTEX
  5
876
  8
0
 62
    32
 10
48.9459095317465582
 20
8.8347169564601682
 30
0.0
  0
VERTEX
  5
877
  8
0
 62
    32
 10
48.9459095317474819
 20
3.8347169564603329
 30
0.0
 42
0.4142135623732546
  0
VERTEX
  5
878
  8
0
 62
    32
 10
49.2459095317467472
 20
3.5347169564608971
 30
0.0
  0
VERTEX
  5
879
  8
0
 62
    32
 10
50.6459095317409265
 20
3.5347169564599881
 30
0.0
 42
0.4142135623730951
  0
VERTEX
  5
87A
  8
0
 62
    32
 10
50.9459095317411084
 20
3.8347169564601691
 30
0.0
  0
SEQEND
  5
87B
  8
0
 62
    32
  0
ENDSEC
  0
EOF
