  0
SECTION
  2
HEADER
  9
$ACADVER
  1
AC1009
  9
$INSBASE
 10
0.0
 20
0.0
 30
0.0
  9
$EXTMIN
 10
0.055139788265933
 20
0.0705995807502387
 30
0.0
  9
$EXTMAX
 10
142.8648297548035941
 20
94.068940824382608
 30
0.0
  9
$LIMMIN
 10
0.0
 20
0.0
  9
$LIMMAX
 10
420.0
 20
297.0
  9
$ORTHOMODE
 70
     1
  9
$REGENMODE
 70
     1
  9
$FILLMODE
 70
     1
  9
$QTEXTMODE
 70
     0
  9
$MIRRTEXT
 70
     0
  9
$DRAGMODE
 70
     2
  9
$LTSCALE
 40
1.0
  9
$OSMODE
 70
   167
  9
$ATTMODE
 70
     1
  9
$TEXTSIZE
 40
2.5
  9
$TRACEWID
 40
1.0
  9
$TEXTSTYLE
  7
STANDARD
  9
$CLAYER
  8
0
  9
$CELTYPE
  6
BYLAYER
  9
$CECOLOR
 62
    32
  9
$DIMSCALE
 40
1.0
  9
$DIMASZ
 40
2.5
  9
$DIMEXO
 40
0.625
  9
$DIMDLI
 40
3.75
  9
$DIMRND
 40
0.0
  9
$DIMDLE
 40
0.0
  9
$DIMEXE
 40
1.25
  9
$DIMTP
 40
0.0
  9
$DIMTM
 40
0.0
  9
$DIMTXT
 40
2.5
  9
$DIMCEN
 40
2.5
  9
$DIMTSZ
 40
0.0
  9
$DIMTOL
 70
     0
  9
$DIMLIM
 70
     0
  9
$DIMTIH
 70
     0
  9
$DIMTOH
 70
     0
  9
$DIMSE1
 70
     0
  9
$DIMSE2
 70
     0
  9
$DIMTAD
 70
     1
  9
$DIMZIN
 70
     8
  9
$DIMBLK
  1

  9
$DIMASO
 70
     1
  9
$DIMSHO
 70
     1
  9
$DIMPOST
  1

  9
$DIMAPOST
  1

  9
$DIMALT
 70
     0
  9
$DIMALTD
 70
     3
  9
$DIMALTF
 40
0.03937007874016
  9
$DIMLFAC
 40
1.0
  9
$DIMTOFL
 70
     1
  9
$DIMTVP
 40
0.0
  9
$DIMTIX
 70
     0
  9
$DIMSOXD
 70
     0
  9
$DIMSAH
 70
     0
  9
$DIMBLK1
  1

  9
$DIMBLK2
  1

  9
$DIMSTYLE
  2
ISO-25
  9
$DIMCLRD
 70
     0
  9
$DIMCLRE
 70
     0
  9
$DIMCLRT
 70
     0
  9
$DIMTFAC
 40
1.0
  9
$DIMGAP
 40
0.625
  9
$LUNITS
 70
     2
  9
$LUPREC
 70
     4
  9
$SKETCHINC
 40
1.0
  9
$FILLETRAD
 40
0.0
  9
$AUNITS
 70
     0
  9
$AUPREC
 70
     0
  9
$MENU
  1
.
  9
$ELEVATION
 40
0.0
  9
$PELEVATION
 40
0.0
  9
$THICKNESS
 40
0.0
  9
$LIMCHECK
 70
     0
  9
$BLIPMODE
 70
     0
  9
$CHAMFERA
 40
0.0
  9
$CHAMFERB
 40
0.0
  9
$SKPOLY
 70
     0
  9
$TDCREATE
 40
2458870.5814583338797092
  9
$TDUPDATE
 40
2458871.5096990740858018
  9
$TDINDWG
 40
0.0216782407
  9
$TDUSRTIMER
 40
0.0216782407
  9
$USRTIMER
 70
     1
  9
$ANGBASE
 50
0.0
  9
$ANGDIR
 70
     0
  9
$PDMODE
 70
     0
  9
$PDSIZE
 40
0.0
  9
$PLINEWID
 40
0.0
  9
$COORDS
 70
     1
  9
$SPLFRAME
 70
     0
  9
$SPLINETYPE
 70
     6
  9
$SPLINESEGS
 70
     8
  9
$ATTDIA
 70
     1
  9
$ATTREQ
 70
     1
  9
$HANDLING
 70
     1
  9
$HANDSEED
  5
2D7E
  9
$SURFTAB1
 70
     6
  9
$SURFTAB2
 70
     6
  9
$SURFTYPE
 70
     6
  9
$SURFU
 70
     6
  9
$SURFV
 70
     6
  9
$UCSNAME
  2

  9
$UCSORG
 10
0.0
 20
0.0
 30
0.0
  9
$UCSXDIR
 10
1.0
 20
0.0
 30
0.0
  9
$UCSYDIR
 10
0.0
 20
1.0
 30
0.0
  9
$PUCSNAME
  2

  9
$PUCSORG
 10
0.0
 20
0.0
 30
0.0
  9
$PUCSXDIR
 10
1.0
 20
0.0
 30
0.0
  9
$PUCSYDIR
 10
0.0
 20
1.0
 30
0.0
  9
$USERI1
 70
     0
  9
$USERI2
 70
     0
  9
$USERI3
 70
     0
  9
$USERI4
 70
     0
  9
$USERI5
 70
     0
  9
$USERR1
 40
0.0
  9
$USERR2
 40
0.0
  9
$USERR3
 40
0.0
  9
$USERR4
 40
0.0
  9
$USERR5
 40
0.0
  9
$WORLDVIEW
 70
     1
  9
$SHADEDGE
 70
     3
  9
$SHADEDIF
 70
    70
  9
$TILEMODE
 70
     1
  9
$MAXACTVP
 70
    64
  9
$PLIMCHECK
 70
     0
  9
$PEXTMIN
 10
1.0499999523162831
 20
0.7999999523162842
 30
0.0
  9
$PEXTMAX
 10
9.4499995708465594
 20
7.1999995708465567
 30
0.0
  9
$PLIMMIN
 10
-0.2500002402958907
 20
-0.2499999962453767
  9
$PLIMMAX
 10
10.7499995194082203
 20
8.2499997634587334
  9
$UNITMODE
 70
     0
  9
$VISRETAIN
 70
     1
  9
$PLINEGEN
 70
     0
  9
$PSLTSCALE
 70
     1
  0
ENDSEC
  0
SECTION
  2
TABLES
  0
TABLE
  2
VPORT
 70
     1
  0
VPORT
  2
*ACTIVE
 70
     0
 10
0.0
 20
0.0
 11
1.0
 21
1.0
 12
109.8127348563665038
 22
36.0549860119009793
 13
0.0
 23
0.0
 14
10.0
 24
10.0
 15
10.0
 25
10.0
 16
0.0
 26
0.0
 36
1.0
 17
0.0
 27
0.0
 37
0.0
 40
154.279361938054592
 41
2.29156626506024
 42
50.0
 43
0.0
 44
0.0
 50
0.0
 51
0.0
 71
     0
 72
  1000
 73
     1
 74
     3
 75
     0
 76
     1
 77
     0
 78
     0
  0
ENDTAB
  0
TABLE
  2
LTYPE
 70
     1
  0
LTYPE
  2
CONTINUOUS
 70
     0
  3
Solid line
 72
    65
 73
     0
 40
0.0
  0
ENDTAB
  0
TABLE
  2
LAYER
 70
     2
  0
LAYER
  2
0
 70
     0
 62
     7
  6
CONTINUOUS
  0
LAYER
  2
DEFPOINTS
 70
     0
 62
     7
  6
CONTINUOUS
  0
ENDTAB
  0
TABLE
  2
STYLE
 70
     2
  0
STYLE
  2
STANDARD
 70
     0
 40
0.0
 41
1.0
 50
0.0
 71
     0
 42
2.5
  3
txt
  4

  0
ENDTAB
  0
TABLE
  2
VIEW
 70
     0
  0
ENDTAB
  0
TABLE
  2
UCS
 70
     0
  0
ENDTAB
  0
TABLE
  2
APPID
 70
    20
  0
APPID
  2
ACAD
 70
     0
  0
APPID
  2
ACADANNOTATIVE
 70
     0
  0
APPID
  2
ACAD_PSEXT
 70
     0
  0
APPID
  2
ACADANNOPO
 70
     0
  0
APPID
  2
ACAD_DSTYLE_DIMJAG
 70
     0
  0
APPID
  2
ACAD_DSTYLE_DIMTALN
 70
     0
  0
APPID
  2
ACAD_MLEADERVER
 70
     0
  0
APPID
  2
ACAD_NAV_VCDISPLAY
 70
     0
  0
APPID
  2
ACAD_DSTYLE_DIMBREAK
 70
     0
  0
APPID
  2
ACAECLAYERSTANDARD
 70
     0
  0
APPID
  2
ACAUTHENVIRON
 70
     0
  0
APPID
  2
ACDBDYNAMICBLOCKTRUENAME
 70
     0
  0
APPID
  2
ACDBDYNAMICBLOCKGUID
 70
     0
  0
APPID
  2
ACCMTRANSPARENCY
 70
     0
  0
APPID
  2
ACDBBLOCKREPETAG
 70
     0
  0
APPID
  2
GRADIENTCOLOR1ACI
 70
     0
  0
APPID
  2
GRADIENTCOLOR2ACI
 70
     0
  0
APPID
  2
ACDBBLOCKREPBTAG
 70
     0
  0
APPID
  2
ACDBBLOCKARRAYACTIONTAG
 70
     0
  0
APPID
  2
ACAD_EXEMPT_FROM_CAD_STANDARDS
 70
     0
  0
ENDTAB
  0
TABLE
  2
DIMSTYLE
 70
     3
  0
DIMSTYLE
  2
STANDARD
 70
     0
  3

  4

  5

  6

  7

 40
1.0
 41
0.18
 42
0.0625
 43
0.38
 44
0.18
 45
0.0
 46
0.0
 47
0.0
 48
0.0
140
0.18
141
0.09
142
0.0
143
25.3999999999999986
144
1.0
145
0.0
146
1.0
147
0.09
 71
     0
 72
     0
 73
     1
 74
     1
 75
     0
 76
     0
 77
     0
 78
     0
170
     0
171
     2
172
     0
173
     0
174
     0
175
     0
176
     0
177
     0
178
     0
  0
DIMSTYLE
  2
ISO-25
 70
     0
  3

  4

  5

  6

  7

 40
1.0
 41
2.5
 42
0.625
 43
3.75
 44
1.25
 45
0.0
 46
0.0
 47
0.0
 48
0.0
140
2.5
141
2.5
142
0.0
143
0.03937007874016
144
1.0
145
0.0
146
1.0
147
0.625
 71
     0
 72
     0
 73
     0
 74
     0
 75
     0
 76
     0
 77
     1
 78
     8
170
     0
171
     3
172
     1
173
     0
174
     0
175
     0
176
     0
177
     0
178
     0
  0
ENDTAB
  0
ENDSEC
  0
SECTION
  2
BLOCKS
  0
BLOCK
  8
0
  2
$MODEL_SPACE
 70
     0
 10
0.0
 20
0.0
 30
0.0
  3
$MODEL_SPACE
  1

  0
ENDBLK
  5
2BBB
  8
0
  0
BLOCK
 67
     1
  8
0
  2
$PAPER_SPACE
 70
     0
 10
0.0
 20
0.0
 30
0.0
  3
$PAPER_SPACE
  1

  0
ENDBLK
  5
2BB7
 67
     1
  8
0
  0
ENDSEC
  0
SECTION
  2
ENTITIES
  0
POLYLINE
  5
14F2
  8
0
 62
    32
 66
     1
 10
0.0
 20
0.0
 30
0.0
 70
     1
  0
VERTEX
  5
2BEC
  8
0
 62
    32
 10
9.4584474605424802
 20
18.1967443222104102
 30
0.0
  0
VERTEX
  5
2BED
  8
0
 62
    32
 10
58.7584474605435005
 20
18.1967443222104102
 30
0.0
  0
VERTEX
  5
2BEE
  8
0
 62
    32
 10
58.7584474605435005
 20
42.6967753910332632
 30
0.0
  0
VERTEX
  5
2BEF
  8
0
 62
    32
 10
9.4584474605424802
 20
42.6967753909232073
 30
0.0
  0
SEQEND
  5
2BF0
  8
0
 62
    32
  0
POLYLINE
  5
14F3
  8
0
 62
    32
 66
     1
 10
0.0
 20
0.0
 30
0.0
 70
     1
  0
VERTEX
  5
2BF1
  8
0
 62
    32
 10
19.1163301290132708
 20
16.6967443222085805
 30
0.0
  0
VERTEX
  5
2BF2
  8
0
 62
    32
 10
31.2312016093635982
 20
16.6967443222085805
 30
0.0
  0
VERTEX
  5
2BF3
  8
0
 62
    32
 10
31.3754441889370597
 20
5.678052325538367
 30
0.0
 42
0.4142135623730768
  0
VERTEX
  5
2BF4
  8
0
 62
    32
 10
31.8819461505101813
 20
5.1846399595360628
 30
0.0
  0
VERTEX
  5
2BF5
  8
0
 62
    32
 10
32.472878525186168
 20
5.1923756880691982
 30
0.0
 42
0.2840790438404923
  0
VERTEX
  5
2BF6
  8
0
 62
    32
 10
32.9164359315762098
 20
5.474599056142309
 30
0.0
  0
VERTEX
  5
2BF7
  8
0
 62
    32
 10
33.208447460542402
 20
6.0782491803722456
 30
0.0
  0
VERTEX
  5
2BF8
  8
0
 62
    32
 10
33.208447460542402
 20
6.4038888269794683
 30
0.0
  0
VERTEX
  5
2BF9
  8
0
 62
    32
 10
32.708447460542402
 20
6.4038888269794683
 30
0.0
  0
VERTEX
  5
2BFA
  8
0
 62
    32
 10
32.708447460542402
 20
6.5038888269825668
 30
0.0
  0
VERTEX
  5
2BFB
  8
0
 62
    32
 10
33.208447460542402
 20
7.4038888269794612
 30
0.0
  0
VERTEX
  5
2BFC
  8
0
 62
    32
 10
33.208447460542402
 20
7.5038888269814299
 30
0.0
  0
VERTEX
  5
2BFD
  8
0
 62
    32
 10
32.708447460542402
 20
7.5038888269814299
 30
0.0
  0
VERTEX
  5
2BFE
  8
0
 62
    32
 10
32.708447460542402
 20
7.6038888269804303
 30
0.0
  0
VERTEX
  5
2BFF
  8
0
 62
    32
 10
33.208447460542402
 20
8.5038888269825677
 30
0.0
  0
VERTEX
  5
2C00
  8
0
 62
    32
 10
33.208447460542402
 20
8.6038888269804303
 30
0.0
  0
VERTEX
  5
2C01
  8
0
 62
    32
 10
32.708447460542402
 20
8.6038888269804303
 30
0.0
  0
VERTEX
  5
2C02
  8
0
 62
    32
 10
32.708447460542402
 20
8.7038888269823715
 30
0.0
  0
VERTEX
  5
2C03
  8
0
 62
    32
 10
33.208447460542402
 20
9.6038888269804161
 30
0.0
  0
VERTEX
  5
2C04
  8
0
 62
    32
 10
33.208447460542402
 20
9.7038888269823715
 30
0.0
  0
VERTEX
  5
2C05
  8
0
 62
    32
 10
32.708447460542402
 20
9.7038888269823715
 30
0.0
  0
VERTEX
  5
2C06
  8
0
 62
    32
 10
32.708447460542402
 20
9.8038888269813853
 30
0.0
  0
VERTEX
  5
2C07
  8
0
 62
    32
 10
33.1914032633833287
 20
10.8022614988271695
 30
0.0
  0
VERTEX
  5
2C08
  8
0
 62
    32
 10
32.8085587428843297
 20
10.7972497895223007
 30
0.0
  0
VERTEX
  5
2C09
  8
0
 62
    32
 10
32.8072497833275065
 20
10.8972412222792396
 30
0.0
  0
VERTEX
  5
2C0A
  8
0
 62
    32
 10
33.2941173515430293
 20
11.9037003476394005
 30
0.0
  0
VERTEX
  5
2C0B
  8
0
 62
    32
 10
32.7941601877548621
 20
11.8971555498533004
 30
0.0
  0
VERTEX
  5
2C0C
  8
0
 62
    32
 10
32.7928512281985078
 20
11.9971469826113992
 30
0.0
  0
VERTEX
  5
2C0D
  8
0
 62
    32
 10
33.2797187964135972
 20
13.0036061079704197
 30
0.0
  0
VERTEX
  5
2C0E
  8
0
 62
    32
 10
32.7797616326272419
 20
12.9970613101843107
 30
0.0
  0
VERTEX
  5
2C0F
  8
0
 62
    32
 10
32.77845267307044
 20
13.0970527429426404
 30
0.0
  0
VERTEX
  5
2C10
  8
0
 62
    32
 10
33.2653202412850533
 20
14.1035118683025704
 30
0.0
  0
VERTEX
  5
2C11
  8
0
 62
    32
 10
32.7653630774986766
 20
14.09696707051625
 30
0.0
  0
VERTEX
  5
2C12
  8
0
 62
    32
 10
32.7640541179423508
 20
14.1969585032729704
 30
0.0
  0
VERTEX
  5
2C13
  8
0
 62
    32
 10
33.2509216861569925
 20
15.2034176286328808
 30
0.0
  0
VERTEX
  5
2C14
  8
0
 62
    32
 10
32.7509645223701469
 20
15.1968728308486103
 30
0.0
  0
VERTEX
  5
2C15
  8
0
 62
    32
 10
32.7313301290130312
 20
16.6967443222085805
 30
0.0
  0
VERTEX
  5
2C16
  8
0
 62
    32
 10
35.5013301290130201
 20
16.6967443222085805
 30
0.0
  0
VERTEX
  5
2C17
  8
0
 62
    32
 10
35.4816957356567571
 20
15.1968728308486103
 30
0.0
  0
VERTEX
  5
2C18
  8
0
 62
    32
 10
34.981738571869073
 20
15.2034176286328808
 30
0.0
  0
VERTEX
  5
2C19
  8
0
 62
    32
 10
35.468606140084141
 20
14.1969585032729704
 30
0.0
  0
VERTEX
  5
2C1A
  8
0
 62
    32
 10
35.4672971805264368
 20
14.09696707051625
 30
0.0
  0
VERTEX
  5
2C1B
  8
0
 62
    32
 10
34.9673400167400814
 20
14.1035118683025704
 30
0.0
  0
VERTEX
  5
2C1C
  8
0
 62
    32
 10
35.4542075849551779
 20
13.0970527429426404
 30
0.0
  0
VERTEX
  5
2C1D
  8
0
 62
    32
 10
35.4528986253992571
 20
12.9970613101843107
 30
0.0
  0
VERTEX
  5
2C1E
  8
0
 62
    32
 10
34.9529414616124612
 20
13.0036061079704197
 30
0.0
  0
VERTEX
  5
2C1F
  8
0
 62
    32
 10
35.4398090298275577
 20
11.9971469826113992
 30
0.0
  0
VERTEX
  5
2C20
  8
0
 62
    32
 10
35.4385000702702726
 20
11.8971555498533004
 30
0.0
  0
VERTEX
  5
2C21
  8
0
 62
    32
 10
34.9385429064830291
 20
11.9037003476394005
 30
0.0
  0
VERTEX
  5
2C22
  8
0
 62
    32
 10
35.4254104746989924
 20
10.8972412222792396
 30
0.0
  0
VERTEX
  5
2C23
  8
0
 62
    32
 10
35.4241015151426382
 20
10.7972497895223007
 30
0.0
  0
VERTEX
  5
2C24
  8
0
 62
    32
 10
35.0253911867923833
 20
10.8024691936293404
 30
0.0
  0
VERTEX
  5
2C25
  8
0
 62
    32
 10
35.5084474605426124
 20
9.8038888269813853
 30
0.0
  0
VERTEX
  5
2C26
  8
0
 62
    32
 10
35.5084474605426124
 20
9.7038888269823715
 30
0.0
  0
VERTEX
  5
2C27
  8
0
 62
    32
 10
34.952891904986032
 20
9.7038888269823715
 30
0.0
  0
VERTEX
  5
2C28
  8
0
 62
    32
 10
35.5084474605426124
 20
8.7038888269823715
 30
0.0
  0
VERTEX
  5
2C29
  8
0
 62
    32
 10
35.5084474605426124
 20
8.6038888269804303
 30
0.0
  0
VERTEX
  5
2C2A
  8
0
 62
    32
 10
34.952891904986032
 20
8.6038888269804303
 30
0.0
  0
VERTEX
  5
2C2B
  8
0
 62
    32
 10
35.5084474605426124
 20
7.6038888269804303
 30
0.0
  0
VERTEX
  5
2C2C
  8
0
 62
    32
 10
35.5084474605426124
 20
7.5038888269814299
 30
0.0
  0
VERTEX
  5
2C2D
  8
0
 62
    32
 10
34.952891904986032
 20
7.5038888269814299
 30
0.0
  0
VERTEX
  5
2C2E
  8
0
 62
    32
 10
35.5084474605426124
 20
6.5038888269825668
 30
0.0
  0
VERTEX
  5
2C2F
  8
0
 62
    32
 10
35.5084474605426124
 20
6.4038888269794683
 30
0.0
  0
VERTEX
  5
2C30
  8
0
 62
    32
 10
35.0084474605426124
 20
6.4038888269794683
 30
0.0
  0
VERTEX
  5
2C31
  8
0
 62
    32
 10
35.0084474605426124
 20
6.1108394950006106
 30
0.0
  0
VERTEX
  5
2C32
  8
0
 62
    32
 10
35.3162243264489675
 20
5.474599056142309
 30
0.0
 42
0.2840790438404193
  0
VERTEX
  5
2C33
  8
0
 62
    32
 10
35.7597817328394427
 20
5.1923756880691982
 30
0.0
  0
VERTEX
  5
2C34
  8
0
 62
    32
 10
36.3507141075167581
 20
5.1846399595360628
 30
0.0
 42
0.4142135623729646
  0
VERTEX
  5
2C35
  8
0
 62
    32
 10
36.8572160690885298
 20
5.6780523255374504
 30
0.0
  0
VERTEX
  5
2C36
  8
0
 62
    32
 10
37.0014586486634087
 20
16.6967443222085805
 30
0.0
  0
VERTEX
  5
2C37
  8
0
 62
    32
 10
49.1163301290132566
 20
16.6967443222085805
 30
0.0
  0
VERTEX
  5
2C38
  8
0
 62
    32
 10
49.1163301290132566
 20
18.1967443222104102
 30
0.0
  0
VERTEX
  5
2C39
  8
0
 62
    32
 10
19.1163301290132708
 20
18.1967443222104102
 30
0.0
  0
SEQEND
  5
2C3A
  8
0
 62
    32
  0
POLYLINE
  5
14F4
  8
0
 62
    32
 66
     1
 10
0.0
 20
0.0
 30
0.0
 70
     1
  0
VERTEX
  5
2C3B
  8
0
 62
    32
 10
61.9068099676262591
 20
2.956775390924562
 30
0.0
  0
VERTEX
  5
2C3C
  8
0
 62
    32
 10
63.1068099676260701
 20
2.956775390924562
 30
0.0
  0
VERTEX
  5
2C3D
  8
0
 62
    32
 10
63.1068099676260701
 20
10.4567753909245695
 30
0.0
  0
VERTEX
  5
2C3E
  8
0
 62
    32
 10
61.9068099676262591
 20
10.4567753909245695
 30
0.0
  0
SEQEND
  5
2C3F
  8
0
 62
    32
  0
POLYLINE
  5
14F5
  8
0
 62
    32
 66
     1
 10
0.0
 20
0.0
 30
0.0
 70
     1
  0
VERTEX
  5
2C40
  8
0
 62
    32
 10
59.1084474605425214
 20
4.9567753909266079
 30
0.0
  0
VERTEX
  5
2C41
  8
0
 62
    32
 10
61.9068099676262591
 20
4.9567753909266008
 30
0.0
  0
VERTEX
  5
2C42
  8
0
 62
    32
 10
61.9068099676262591
 20
8.4567753909270706
 30
0.0
  0
VERTEX
  5
2C43
  8
0
 62
    32
 10
59.1084474605425214
 20
8.4567753909266017
 30
0.0
  0
SEQEND
  5
2C44
  8
0
 62
    32
  0
POLYLINE
  5
14F6
  8
0
 62
    32
 66
     1
 10
0.0
 20
0.0
 30
0.0
 70
     1
  0
VERTEX
  5
2C45
  8
0
 62
    32
 10
9.1084474605425854
 20
2.6967753909232139
 30
0.0
 42
0.4142135623730951
  0
VERTEX
  5
2C46
  8
0
 62
    32
 10
10.10844746054258
 20
1.6967753909245851
 30
0.0
  0
VERTEX
  5
2C47
  8
0
 62
    32
 10
58.1084474605425072
 20
1.696775390924578
 30
0.0
 42
0.4142135623730951
  0
VERTEX
  5
2C48
  8
0
 62
    32
 10
59.1084474605425214
 20
2.6967753909232068
 30
0.0
  0
VERTEX
  5
2C49
  8
0
 62
    32
 10
59.1084474605425214
 20
12.3938316657724705
 30
0.0
 42
0.1989123673796926
  0
VERTEX
  5
2C4A
  8
0
 62
    32
 10
59.0205794948995006
 20
12.6059637001273792
 30
0.0
  0
VERTEX
  5
2C4B
  8
0
 62
    32
 10
55.3176357697455003
 20
16.3089074252802604
 30
0.0
 42
0.1989123673796281
  0
VERTEX
  5
2C4C
  8
0
 62
    32
 10
55.1055037353883321
 20
16.3967753909244003
 30
0.0
  0
VERTEX
  5
2C4D
  8
0
 62
    32
 10
53.1084474605425072
 20
16.3967753909244003
 30
0.0
  0
VERTEX
  5
2C4E
  8
0
 62
    32
 10
53.1084474605425072
 20
14.8967753909243896
 30
0.0
  0
VERTEX
  5
2C4F
  8
0
 62
    32
 10
54.4841833918283314
 20
14.8967753909243896
 30
0.0
 42
-0.1989123673795379
  0
VERTEX
  5
2C50
  8
0
 62
    32
 10
54.6963154261836877
 20
14.8089074252802604
 30
0.0
  0
VERTEX
  5
2C51
  8
0
 62
    32
 10
57.5205794948967508
 20
11.9846433565705599
 30
0.0
 42
-0.198912367379783
  0
VERTEX
  5
2C52
  8
0
 62
    32
 10
57.6084474605425072
 20
11.7725113222124893
 30
0.0
  0
VERTEX
  5
2C53
  8
0
 62
    32
 10
57.6084474605425072
 20
3.496775390923168
 30
0.0
 42
-0.4142135623730919
  0
VERTEX
  5
2C54
  8
0
 62
    32
 10
57.3084474605423111
 20
3.1967753909232068
 30
0.0
  0
VERTEX
  5
2C55
  8
0
 62
    32
 10
35.3084474605418634
 20
3.1967753909232139
 30
0.0
 42
-0.4142135623730968
  0
VERTEX
  5
2C56
  8
0
 62
    32
 10
35.0084474605426124
 20
3.496775390923176
 30
0.0
  0
VERTEX
  5
2C57
  8
0
 62
    32
 10
35.0084474605426124
 20
6.4038888269794683
 30
0.0
  0
VERTEX
  5
2C58
  8
0
 62
    32
 10
35.5084474605426124
 20
6.4038888269794683
 30
0.0
  0
VERTEX
  5
2C59
  8
0
 62
    32
 10
35.5084474605426124
 20
6.5038888269825668
 30
0.0
  0
VERTEX
  5
2C5A
  8
0
 62
    32
 10
34.952891904986032
 20
7.5038888269814299
 30
0.0
  0
VERTEX
  5
2C5B
  8
0
 62
    32
 10
35.5084474605426124
 20
7.5038888269814299
 30
0.0
  0
VERTEX
  5
2C5C
  8
0
 62
    32
 10
35.5084474605426124
 20
7.6038888269804303
 30
0.0
  0
VERTEX
  5
2C5D
  8
0
 62
    32
 10
34.952891904986032
 20
8.6038888269804303
 30
0.0
  0
VERTEX
  5
2C5E
  8
0
 62
    32
 10
35.5084474605426124
 20
8.6038888269804303
 30
0.0
  0
VERTEX
  5
2C5F
  8
0
 62
    32
 10
35.5084474605426124
 20
8.7038888269823715
 30
0.0
  0
VERTEX
  5
2C60
  8
0
 62
    32
 10
34.952891904986032
 20
9.7038888269823715
 30
0.0
  0
VERTEX
  5
2C61
  8
0
 62
    32
 10
35.5084474605426124
 20
9.7038888269823715
 30
0.0
  0
VERTEX
  5
2C62
  8
0
 62
    32
 10
35.5084474605426124
 20
9.8038888269813853
 30
0.0
  0
VERTEX
  5
2C63
  8
0
 62
    32
 10
34.9711926231696069
 20
10.9145091866382593
 30
0.0
 42
0.2876189327576912
  0
VERTEX
  5
2C64
  8
0
 62
    32
 10
34.5210904189946319
 20
11.1967753909232108
 30
0.0
  0
VERTEX
  5
2C65
  8
0
 62
    32
 10
33.6958045020894801
 20
11.1967753909232108
 30
0.0
 42
0.2876189327576915
  0
VERTEX
  5
2C66
  8
0
 62
    32
 10
33.2457022979140078
 20
10.9145091866382593
 30
0.0
  0
VERTEX
  5
2C67
  8
0
 62
    32
 10
32.708447460542402
 20
9.8038888269813853
 30
0.0
  0
VERTEX
  5
2C68
  8
0
 62
    32
 10
32.708447460542402
 20
9.7038888269823715
 30
0.0
  0
VERTEX
  5
2C69
  8
0
 62
    32
 10
33.208447460542402
 20
9.7038888269823715
 30
0.0
  0
VERTEX
  5
2C6A
  8
0
 62
    32
 10
33.208447460542402
 20
9.6038888269804161
 30
0.0
  0
VERTEX
  5
2C6B
  8
0
 62
    32
 10
32.708447460542402
 20
8.7038888269823715
 30
0.0
  0
VERTEX
  5
2C6C
  8
0
 62
    32
 10
32.708447460542402
 20
8.6038888269804303
 30
0.0
  0
VERTEX
  5
2C6D
  8
0
 62
    32
 10
33.208447460542402
 20
8.6038888269804303
 30
0.0
  0
VERTEX
  5
2C6E
  8
0
 62
    32
 10
33.208447460542402
 20
8.5038888269825677
 30
0.0
  0
VERTEX
  5
2C6F
  8
0
 62
    32
 10
32.708447460542402
 20
7.6038888269804303
 30
0.0
  0
VERTEX
  5
2C70
  8
0
 62
    32
 10
32.708447460542402
 20
7.5038888269814299
 30
0.0
  0
VERTEX
  5
2C71
  8
0
 62
    32
 10
33.208447460542402
 20
7.5038888269814299
 30
0.0
  0
VERTEX
  5
2C72
  8
0
 62
    32
 10
33.208447460542402
 20
7.4038888269794612
 30
0.0
  0
VERTEX
  5
2C73
  8
0
 62
    32
 10
32.708447460542402
 20
6.5038888269825668
 30
0.0
  0
VERTEX
  5
2C74
  8
0
 62
    32
 10
32.708447460542402
 20
6.4038888269794683
 30
0.0
  0
VERTEX
  5
2C75
  8
0
 62
    32
 10
33.208447460542402
 20
6.4038888269794683
 30
0.0
  0
VERTEX
  5
2C76
  8
0
 62
    32
 10
33.208447460542402
 20
3.496775390923176
 30
0.0
 42
-0.4142135623730935
  0
VERTEX
  5
2C77
  8
0
 62
    32
 10
32.908447460542682
 20
3.1967753909232139
 30
0.0
  0
VERTEX
  5
2C78
  8
0
 62
    32
 10
10.90844746054265
 20
3.1967753909232139
 30
0.0
 42
-0.4142135623730951
  0
VERTEX
  5
2C79
  8
0
 62
    32
 10
10.6084474605424592
 20
3.496775390923176
 30
0.0
  0
VERTEX
  5
2C7A
  8
0
 62
    32
 10
10.6084474605424592
 20
11.7725113222133899
 30
0.0
 42
-0.1989123673797408
  0
VERTEX
  5
2C7B
  8
0
 62
    32
 10
10.6963154261874003
 20
11.9846433565714694
 30
0.0
  0
VERTEX
  5
2C7C
  8
0
 62
    32
 10
13.5645134777203697
 20
14.8528414081024405
 30
0.0
 42
-0.198912367379572
  0
VERTEX
  5
2C7D
  8
0
 62
    32
 10
13.6705794948986803
 20
14.8967753909243896
 30
0.0
  0
VERTEX
  5
2C7E
  8
0
 62
    32
 10
15.10844746054258
 20
14.8967753909243896
 30
0.0
  0
VERTEX
  5
2C7F
  8
0
 62
    32
 10
15.10844746054258
 20
16.3967753909244003
 30
0.0
  0
VERTEX
  5
2C80
  8
0
 62
    32
 10
13.1113911856957905
 20
16.3967753909244003
 30
0.0
 42
0.1989123673796255
  0
VERTEX
  5
2C81
  8
0
 62
    32
 10
12.89925915133907
 20
16.3089074252802604
 30
0.0
  0
VERTEX
  5
2C82
  8
0
 62
    32
 10
9.1963154261855564
 20
12.6059637001282994
 30
0.0
 42
0.1989123673796912
  0
VERTEX
  5
2C83
  8
0
 62
    32
 10
9.1084474605425854
 20
12.3938316657733996
 30
0.0
  0
SEQEND
  5
2C84
  8
0
 62
    32
  0
POLYLINE
  5
14F7
  8
0
 62
    32
 66
     1
 10
0.0
 20
0.0
 30
0.0
 70
     1
  0
VERTEX
  5
2C85
  8
0
 62
    32
 10
6.3068099676236713
 20
4.956775390926615
 30
0.0
  0
VERTEX
  5
2C86
  8
0
 62
    32
 10
9.1084474605425854
 20
4.956775390926615
 30
0.0
  0
VERTEX
  5
2C87
  8
0
 62
    32
 10
9.1084474605425854
 20
8.4567753909266141
 30
0.0
  0
VERTEX
  5
2C88
  8
0
 62
    32
 10
6.3068099676236713
 20
8.4567753909266141
 30
0.0
  0
SEQEND
  5
2C89
  8
0
 62
    32
  0
POLYLINE
  5
14F8
  8
0
 62
    32
 66
     1
 10
0.0
 20
0.0
 30
0.0
 70
     1
  0
VERTEX
  5
2C8A
  8
0
 62
    32
 10
5.1068099676242511
 20
2.9567753909245691
 30
0.0
  0
VERTEX
  5
2C8B
  8
0
 62
    32
 10
6.3068099676236713
 20
2.9567753909245691
 30
0.0
  0
VERTEX
  5
2C8C
  8
0
 62
    32
 10
6.3068099676236713
 20
10.4567753909245695
 30
0.0
  0
VERTEX
  5
2C8D
  8
0
 62
    32
 10
5.1068099676242511
 20
10.4567753909245695
 30
0.0
  0
SEQEND
  5
2C8E
  8
0
 62
    32
  0
POLYLINE
  5
14F9
  8
0
 62
    32
 66
     1
 10
0.0
 20
0.0
 30
0.0
 70
     1
  0
VERTEX
  5
2C8F
  8
0
 62
    32
 10
43.2063197398849965
 20
42.7433992693934073
 30
0.0
 42
0.1421976721921061
  0
VERTEX
  5
2C90
  8
0
 62
    32
 10
43.366945208097377
 20
42.6967753909245786
 30
0.0
  0
VERTEX
  5
2C91
  8
0
 62
    32
 10
59.4872355317263697
 20
42.696775391034393
 30
0.0
 42
0.1448793903364585
  0
VERTEX
  5
2C92
  8
0
 62
    32
 10
58.9073278040944004
 20
40.8561135728091287
 30
0.0
 42
1.0
  0
VERTEX
  5
2C93
  8
0
 62
    32
 10
60.4070993468278701
 20
40.829934963154507
 30
0.0
 42
-2.3558523658242061
  0
VERTEX
  5
2C94
  8
0
 62
    32
 10
62.3399695398573002
 20
38.897064770126228
 30
0.0
 42
1.0
  0
VERTEX
  5
2C95
  8
0
 62
    32
 10
62.3661481495130374
 20
37.397293227392062
 30
0.0
 42
0.1448793903361527
  0
VERTEX
  5
2C96
  8
0
 62
    32
 10
64.2068099677378825
 20
37.9772009550242515
 30
0.0
  0
VERTEX
  5
2C97
  8
0
 62
    32
 10
64.206809967626441
 20
37.4104400458925213
 30
0.0
  0
VERTEX
  5
2C98
  8
0
 62
    32
 10
64.2068099676268957
 20
12.2167753909245498
 30
0.0
 42
-0.4142135623730172
  0
VERTEX
  5
2C99
  8
0
 62
    32
 10
63.7068099676269028
 20
11.7167753909245604
 30
0.0
  0
VERTEX
  5
2C9A
  8
0
 62
    32
 10
61.1068099676260701
 20
11.7167753909231802
 30
0.0
 42
0.414213562372991
  0
VERTEX
  5
2C9B
  8
0
 62
    32
 10
60.6068099676260701
 20
11.2167753909231802
 30
0.0
  0
VERTEX
  5
2C9C
  8
0
 62
    32
 10
60.6068099676260701
 20
9.3567753909253284
 30
0.0
 42
0.6153846153845322
  0
VERTEX
  5
2C9D
  8
0
 62
    32
 10
61.9068099676262591
 20
9.356775390923282
 30
0.0
  0
VERTEX
  5
2C9E
  8
0
 62
    32
 10
61.9068099676262591
 20
10.4567753909245695
 30
0.0
  0
VERTEX
  5
2C9F
  8
0
 62
    32
 10
63.1068099676260701
 20
10.4567753909245695
 30
0.0
  0
VERTEX
  5
2CA0
  8
0
 62
    32
 10
63.1068099676260701
 20
2.956775390924562
 30
0.0
  0
VERTEX
  5
2CA1
  8
0
 62
    32
 10
61.9068099676262591
 20
2.956775390924562
 30
0.0
  0
VERTEX
  5
2CA2
  8
0
 62
    32
 10
61.9068099676262591
 20
4.056775390925373
 30
0.0
 42
0.6153846153840894
  0
VERTEX
  5
2CA3
  8
0
 62
    32
 10
60.6068099676260701
 20
4.0567753909244777
 30
0.0
  0
VERTEX
  5
2CA4
  8
0
 62
    32
 10
60.6068099676260701
 20
2.1967753909252532
 30
0.0
 42
0.4142135623731671
  0
VERTEX
  5
2CA5
  8
0
 62
    32
 10
61.1068099676260701
 20
1.696775390924578
 30
0.0
  0
VERTEX
  5
2CA6
  8
0
 62
    32
 10
65.1068099676260772
 20
1.696775390924578
 30
0.0
 42
0.4142135623730951
  0
VERTEX
  5
2CA7
  8
0
 62
    32
 10
65.6068099676256224
 20
2.196775390924564
 30
0.0
  0
VERTEX
  5
2CA8
  8
0
 62
    32
 10
65.6084474605434025
 20
37.1967378919191489
 30
0.0
  0
VERTEX
  5
2CA9
  8
0
 62
    32
 10
65.6068099676256224
 20
51.6967753909232073
 30
0.0
  0
VERTEX
  5
2CAA
  8
0
 62
    32
 10
61.1068099676256296
 20
51.6967753909232073
 30
0.0
 42
0.4142135623733615
  0
VERTEX
  5
2CAB
  8
0
 62
    32
 10
60.6068099676256296
 20
51.1967753909232215
 30
0.0
  0
VERTEX
  5
2CAC
  8
0
 62
    32
 10
60.6068099676260701
 20
50.1967753909245786
 30
0.0
 42
0.414213562372829
  0
VERTEX
  5
2CAD
  8
0
 62
    32
 10
61.1068099676260701
 20
49.6967753909252608
 30
0.0
  0
VERTEX
  5
2CAE
  8
0
 62
    32
 10
63.6068099676256296
 20
49.6967753909252608
 30
0.0
  0
VERTEX
  5
2CAF
  8
0
 62
    32
 10
63.6068099676260701
 20
45.6967753909245786
 30
0.0
  0
VERTEX
  5
2CB0
  8
0
 62
    32
 10
46.0151724747104325
 20
45.6967753909245786
 30
0.0
  0
VERTEX
  5
2CB1
  8
0
 62
    32
 10
46.0151724747090469
 20
49.6967753909252608
 30
0.0
  0
VERTEX
  5
2CB2
  8
0
 62
    32
 10
48.5151724747108872
 20
49.6967753909252608
 30
0.0
 42
0.4142135623728287
  0
VERTEX
  5
2CB3
  8
0
 62
    32
 10
49.0151724747108872
 20
50.1967753909245786
 30
0.0
  0
VERTEX
  5
2CB4
  8
0
 62
    32
 10
49.0151724747108872
 20
51.1967753909232215
 30
0.0
 42
0.4142135093935159
  0
VERTEX
  5
2CB5
  8
0
 62
    32
 10
48.515172565153307
 20
51.6967753909232073
 30
0.0
  0
VERTEX
  5
2CB6
  8
0
 62
    32
 10
42.9867543389984803
 20
51.6967763909244624
 30
0.0
 42
0.0669525176422247
  0
VERTEX
  5
2CB7
  8
0
 62
    32
 10
42.061930691126463
 20
51.5723803948524093
 30
0.0
  0
VERTEX
  5
2CB8
  8
0
 62
    32
 10
41.7859724267907495
 20
51.4967753909245332
 30
0.0
  0
VERTEX
  5
2CB9
  8
0
 62
    32
 10
41.5159724267902988
 20
51.6967753909232073
 30
0.0
  0
VERTEX
  5
2CBA
  8
0
 62
    32
 10
39.9399394351282879
 20
51.6967753909232073
 30
0.0
 42
0.4318902213007532
  0
VERTEX
  5
2CBB
  8
0
 62
    32
 10
39.7402989981258514
 20
51.4847880679046668
 30
0.0
  0
VERTEX
  5
2CBC
  8
0
 62
    32
 10
39.7623269719017713
 20
50.3717754387991974
 30
0.0
  0
VERTEX
  5
2CBD
  8
0
 62
    32
 10
40.3033836028751082
 20
49.434637854590612
 30
0.0
 42
0.3700928233967648
  0
VERTEX
  5
2CBE
  8
0
 62
    32
 10
40.5490327144991696
 20
49.3482193395711803
 30
0.0
  0
VERTEX
  5
2CBF
  8
0
 62
    32
 10
42.6325260567184827
 20
50.1578849228285435
 30
0.0
  0
VERTEX
  5
2CC0
  8
0
 62
    32
 10
42.8484474605418413
 20
50.1578849228285435
 30
0.0
 42
-0.4142135623730882
  0
VERTEX
  5
2CC1
  8
0
 62
    32
 10
43.1484474605406376
 20
49.8578849228285819
 30
0.0
  0
VERTEX
  5
2CC2
  8
0
 62
    32
 10
43.1484474605406376
 20
45.7467753879420727
 30
0.0
 42
-0.414213562373033
  0
VERTEX
  5
2CC3
  8
0
 62
    32
 10
42.9484474605403506
 20
45.5467753879422474
 30
0.0
  0
VERTEX
  5
2CC4
  8
0
 62
    32
 10
42.6129617351209475
 20
45.5467753879431569
 30
0.0
  0
VERTEX
  5
2CC5
  8
0
 62
    32
 10
41.1858438213850988
 20
46.451483572648371
 30
0.0
 42
0.5630482836134048
  0
VERTEX
  5
2CC6
  8
0
 62
    32
 10
40.6984474605403719
 20
46.0944140313415431
 30
0.0
  0
VERTEX
  5
2CC7
  8
0
 62
    32
 10
40.6984474605403719
 20
44.8833116162886583
 30
0.0
 42
0.2568852938753183
  0
VERTEX
  5
2CC8
  8
0
 62
    32
 10
41.1630292331712866
 20
44.0387245445185584
 30
0.0
  0
SEQEND
  5
2CC9
  8
0
 62
    32
  0
POLYLINE
  5
14FA
  8
0
 62
    32
 66
     1
 10
0.0
 20
0.0
 30
0.0
 70
     1
  0
VERTEX
  5
2CCA
  8
0
 62
    32
 10
29.0057230805011912
 20
46.7160899118511992
 30
0.0
  0
VERTEX
  5
2CCB
  8
0
 62
    32
 10
27.5322546386244404
 20
46.7160899118523432
 30
0.0
 42
0.142197656026285
  0
VERTEX
  5
2CCC
  8
0
 62
    32
 10
27.3716291864723686
 20
46.6694660435632471
 30
0.0
  0
VERTEX
  5
2CCD
  8
0
 62
    32
 10
26.9258250049222809
 20
46.3868526113146729
 30
0.0
 42
-0.6201356363362962
  0
VERTEX
  5
2CCE
  8
0
 62
    32
 10
27.5151724747090611
 20
46.1558780856571431
 30
0.0
  0
VERTEX
  5
2CCF
  8
0
 62
    32
 10
27.5151724747090611
 20
44.8833116162886583
 30
0.0
 42
-0.2568852938753173
  0
VERTEX
  5
2CD0
  8
0
 62
    32
 10
27.0505907020795817
 20
44.0387245445185584
 30
0.0
  0
VERTEX
  5
2CD1
  8
0
 62
    32
 10
24.933754090749769
 20
42.6967753909580026
 30
0.0
  0
VERTEX
  5
2CD2
  8
0
 62
    32
 10
43.2798658444355624
 20
42.6967753909984822
 30
0.0
  0
VERTEX
  5
2CD3
  8
0
 62
    32
 10
41.1630292331712866
 20
44.0387245445185584
 30
0.0
 42
-0.2568852938753192
  0
VERTEX
  5
2CD4
  8
0
 62
    32
 10
40.6984474605403719
 20
44.8833116162886583
 30
0.0
  0
VERTEX
  5
2CD5
  8
0
 62
    32
 10
40.6984474605403719
 20
46.0944140313415431
 30
0.0
 42
-0.5630482836133976
  0
VERTEX
  5
2CD6
  8
0
 62
    32
 10
41.1858438213850988
 20
46.451483572648371
 30
0.0
  0
VERTEX
  5
2CD7
  8
0
 62
    32
 10
40.8419907487793665
 20
46.6694660435632471
 30
0.0
 42
0.1421976560262435
  0
VERTEX
  5
2CD8
  8
0
 62
    32
 10
40.6813652966263888
 20
46.7160899118523432
 30
0.0
  0
VERTEX
  5
2CD9
  8
0
 62
    32
 10
39.2078968547491584
 20
46.7160899118523432
 30
0.0
 42
-0.2914734195861651
  0
VERTEX
  5
2CDA
  8
0
 62
    32
 10
38.9360045186370272
 20
46.8893044333303735
 30
0.0
  0
VERTEX
  5
2CDB
  8
0
 62
    32
 10
37.4887856137418325
 20
49.9928753903745786
 30
0.0
 42
0.2914734195861388
  0
VERTEX
  5
2CDC
  8
0
 62
    32
 10
37.2168932776319323
 20
50.1660899118523886
 30
0.0
  0
VERTEX
  5
2CDD
  8
0
 62
    32
 10
30.9967266576202682
 20
50.1660899118523886
 30
0.0
 42
0.291473419586167
  0
VERTEX
  5
2CDE
  8
0
 62
    32
 10
30.7248343215103787
 20
49.9928753903745786
 30
0.0
  0
VERTEX
  5
2CDF
  8
0
 62
    32
 10
29.2776154166119902
 20
46.8893044333294569
 30
0.0
 42
-0.291473419586135
  0
SEQEND
  5
2CE0
  8
0
 62
    32
  0
POLYLINE
  5
14FB
  8
0
 62
    32
 66
     1
 10
0.0
 20
0.0
 30
0.0
 70
     1
  0
VERTEX
  5
2CE1
  8
0
 62
    32
 10
27.9102363323748008
 20
49.434637854590612
 30
0.0
 42
-0.3700928233967711
  0
VERTEX
  5
2CE2
  8
0
 62
    32
 10
27.6645872207502705
 20
49.3482193395711803
 30
0.0
  0
VERTEX
  5
2CE3
  8
0
 62
    32
 10
25.6160427953666598
 20
50.1443034370811276
 30
0.0
 42
0.1979075106054854
  0
VERTEX
  5
2CE4
  8
0
 62
    32
 10
25.4637150990913703
 20
50.1412386790766433
 30
0.0
 42
0.5160073444687262
  0
VERTEX
  5
2CE5
  8
0
 62
    32
 10
25.0651724747092786
 20
49.8578849228285819
 30
0.0
  0
VERTEX
  5
2CE6
  8
0
 62
    32
 10
25.0651724747092786
 20
45.7467753879420727
 30
0.0
 42
0.6613481454685795
  0
VERTEX
  5
2CE7
  8
0
 62
    32
 10
25.4038888863403898
 20
45.6026998621102777
 30
0.0
 42
0.3457270504181441
  0
VERTEX
  5
2CE8
  8
0
 62
    32
 10
25.6496889327406699
 20
45.5778579668026325
 30
0.0
  0
VERTEX
  5
2CE9
  8
0
 62
    32
 10
27.4451752853872613
 20
46.7160899118523432
 30
0.0
  0
VERTEX
  5
2CEA
  8
0
 62
    32
 10
29.0057230805011912
 20
46.7160899118511992
 30
0.0
 42
0.2914734195861662
  0
VERTEX
  5
2CEB
  8
0
 62
    32
 10
29.2776154166119902
 20
46.8893044333294569
 30
0.0
  0
VERTEX
  5
2CEC
  8
0
 62
    32
 10
30.7248343215103787
 20
49.9928753903745786
 30
0.0
 42
-0.2914734195861326
  0
VERTEX
  5
2CED
  8
0
 62
    32
 10
30.9967266576202682
 20
50.1660899118523886
 30
0.0
  0
VERTEX
  5
2CEE
  8
0
 62
    32
 10
37.2168932776319323
 20
50.1660899118523886
 30
0.0
 42
-0.2914734195861702
  0
VERTEX
  5
2CEF
  8
0
 62
    32
 10
37.4887856137418325
 20
49.9928753903745786
 30
0.0
  0
VERTEX
  5
2CF0
  8
0
 62
    32
 10
38.9360045186370272
 20
46.8893044333303735
 30
0.0
 42
0.2914734195861652
  0
VERTEX
  5
2CF1
  8
0
 62
    32
 10
39.2078968547491584
 20
46.7160899118523432
 30
0.0
  0
VERTEX
  5
2CF2
  8
0
 62
    32
 10
40.7684446498626585
 20
46.7160899118523432
 30
0.0
  0
VERTEX
  5
2CF3
  8
0
 62
    32
 10
42.5639310025105786
 20
45.5778579668026325
 30
0.0
 42
0.3457270504176511
  0
VERTEX
  5
2CF4
  8
0
 62
    32
 10
42.8097310489081693
 20
45.6026998621102777
 30
0.0
 42
0.6613481454715781
  0
VERTEX
  5
2CF5
  8
0
 62
    32
 10
43.1484474605406376
 20
45.7467753879420727
 30
0.0
  0
VERTEX
  5
2CF6
  8
0
 62
    32
 10
43.1484474605406376
 20
49.8578849228285819
 30
0.0
 42
0.5160073444670943
  0
VERTEX
  5
2CF7
  8
0
 62
    32
 10
42.7499048361598994
 20
50.1412386790766433
 30
0.0
 42
0.1979075106066123
  0
VERTEX
  5
2CF8
  8
0
 62
    32
 10
42.5975771398828087
 20
50.1443034370811276
 30
0.0
  0
VERTEX
  5
2CF9
  8
0
 62
    32
 10
40.5490327144991696
 20
49.3482193395711803
 30
0.0
 42
-0.3700928233967796
  0
VERTEX
  5
2CFA
  8
0
 62
    32
 10
40.3033836028751082
 20
49.434637854590612
 30
0.0
  0
VERTEX
  5
2CFB
  8
0
 62
    32
 10
39.0839404408504905
 20
51.5467753897735221
 30
0.0
 42
0.2679491936183249
  0
VERTEX
  5
2CFC
  8
0
 62
    32
 10
38.8241328190508668
 20
51.6967753909245715
 30
0.0
  0
VERTEX
  5
2CFD
  8
0
 62
    32
 10
29.3894871161994686
 20
51.6967753909245715
 30
0.0
 42
0.2679491936183277
  0
VERTEX
  5
2CFE
  8
0
 62
    32
 10
29.1296794943994612
 20
51.5467753897735221
 30
0.0
  0
SEQEND
  5
2CFF
  8
0
 62
    32
  0
POLYLINE
  5
14FC
  8
0
 62
    32
 66
     1
 10
0.0
 20
0.0
 30
0.0
 70
     1
  0
VERTEX
  5
2D00
  8
0
 62
    32
 10
2.6068099676242649
 20
2.1967753909245711
 30
0.0
 42
0.414213562373103
  0
VERTEX
  5
2D01
  8
0
 62
    32
 10
3.1068099676242649
 20
1.6967753909245851
 30
0.0
  0
VERTEX
  5
2D02
  8
0
 62
    32
 10
7.1068099676242511
 20
1.6967753909245851
 30
0.0
 42
0.4142135623732381
  0
VERTEX
  5
2D03
  8
0
 62
    32
 10
7.6068099676242511
 20
2.1967753909252599
 30
0.0
  0
VERTEX
  5
2D04
  8
0
 62
    32
 10
7.6068099676233549
 20
4.0567753909253801
 30
0.0
 42
0.6153846153844053
  0
VERTEX
  5
2D05
  8
0
 62
    32
 10
6.3068099676236713
 20
4.0567753909253801
 30
0.0
  0
VERTEX
  5
2D06
  8
0
 62
    32
 10
6.3068099676236713
 20
2.9567753909245691
 30
0.0
  0
VERTEX
  5
2D07
  8
0
 62
    32
 10
5.1068099676242511
 20
2.9567753909245691
 30
0.0
  0
VERTEX
  5
2D08
  8
0
 62
    32
 10
5.1068099676242511
 20
10.4567753909245695
 30
0.0
  0
VERTEX
  5
2D09
  8
0
 62
    32
 10
6.3068099676236713
 20
10.4567753909245695
 30
0.0
  0
VERTEX
  5
2D0A
  8
0
 62
    32
 10
6.3068099676236713
 20
9.3567753909232962
 30
0.0
 42
0.6153846153835416
  0
VERTEX
  5
2D0B
  8
0
 62
    32
 10
7.6068099676242511
 20
9.3567753909253426
 30
0.0
  0
VERTEX
  5
2D0C
  8
0
 62
    32
 10
7.6068099676242511
 20
11.2167753909231802
 30
0.0
 42
0.4142135623729926
  0
VERTEX
  5
2D0D
  8
0
 62
    32
 10
7.1068099676242511
 20
11.7167753909231802
 30
0.0
  0
VERTEX
  5
2D0E
  8
0
 62
    32
 10
4.5068099676229769
 20
11.7167753909245604
 30
0.0
 42
-0.4142135623730185
  0
VERTEX
  5
2D0F
  8
0
 62
    32
 10
4.0068099676230773
 20
12.2167753909245604
 30
0.0
  0
VERTEX
  5
2D10
  8
0
 62
    32
 10
4.0068099676230773
 20
37.4104400458925213
 30
0.0
  0
VERTEX
  5
2D11
  8
0
 62
    32
 10
4.0068099675134832
 20
37.9772009550242728
 30
0.0
 42
0.1448793903361893
  0
VERTEX
  5
2D12
  8
0
 62
    32
 10
5.8474717857377883
 20
37.3972932273920833
 30
0.0
 42
1.0
  0
VERTEX
  5
2D13
  8
0
 62
    32
 10
5.8736503953936028
 20
38.8970647701262422
 30
0.0
 42
-2.355852365824183
  0
VERTEX
  5
2D14
  8
0
 62
    32
 10
7.806520588421157
 20
40.829934963154507
 30
0.0
 42
1.0
  0
VERTEX
  5
2D15
  8
0
 62
    32
 10
9.3062921311554803
 20
40.8561135728091287
 30
0.0
 42
0.1448793903364605
  0
VERTEX
  5
2D16
  8
0
 62
    32
 10
8.726384403523987
 20
42.696775391034393
 30
0.0
  0
VERTEX
  5
2D17
  8
0
 62
    32
 10
24.8466747271506705
 20
42.6967753909245786
 30
0.0
 42
0.1421976721932902
  0
VERTEX
  5
2D18
  8
0
 62
    32
 10
25.0073001953635909
 20
42.7433992693934073
 30
0.0
  0
VERTEX
  5
2D19
  8
0
 62
    32
 10
27.0505907020795817
 20
44.0387245445185584
 30
0.0
 42
0.2568852938753163
  0
VERTEX
  5
2D1A
  8
0
 62
    32
 10
27.5151724747090611
 20
44.8833116162886583
 30
0.0
  0
VERTEX
  5
2D1B
  8
0
 62
    32
 10
27.5151724747090611
 20
46.1558780856571431
 30
0.0
 42
0.6201356363352682
  0
VERTEX
  5
2D1C
  8
0
 62
    32
 10
26.9258250049226611
 20
46.3868526113153479
 30
0.0
  0
VERTEX
  5
2D1D
  8
0
 62
    32
 10
25.6006582001293701
 20
45.5467753879431569
 30
0.0
  0
VERTEX
  5
2D1E
  8
0
 62
    32
 10
25.2651724747090611
 20
45.5467753879431569
 30
0.0
 42
-0.4142135623731055
  0
VERTEX
  5
2D1F
  8
0
 62
    32
 10
25.0651724747092786
 20
45.7467753879420727
 30
0.0
  0
VERTEX
  5
2D20
  8
0
 62
    32
 10
25.0651724747092786
 20
49.8578849228285819
 30
0.0
 42
-0.4142135623730951
  0
VERTEX
  5
2D21
  8
0
 62
    32
 10
25.3651724747080713
 20
50.1578849228285435
 30
0.0
  0
VERTEX
  5
2D22
  8
0
 62
    32
 10
25.581093878531469
 20
50.1578849228285435
 30
0.0
  0
VERTEX
  5
2D23
  8
0
 62
    32
 10
27.6645872207502705
 20
49.3482193395711803
 30
0.0
 42
0.3700928233967586
  0
VERTEX
  5
2D24
  8
0
 62
    32
 10
27.9102363323748008
 20
49.434637854590612
 30
0.0
  0
VERTEX
  5
2D25
  8
0
 62
    32
 10
28.4512929633482017
 20
50.3717754387991974
 30
0.0
  0
VERTEX
  5
2D26
  8
0
 62
    32
 10
28.4736389054976584
 20
51.5008541308850383
 30
0.0
 42
0.4082525098560529
  0
VERTEX
  5
2D27
  8
0
 62
    32
 10
28.2736805001211806
 20
51.6967753909232073
 30
0.0
  0
VERTEX
  5
2D28
  8
0
 62
    32
 10
26.697647508460971
 20
51.6967753909232073
 30
0.0
  0
VERTEX
  5
2D29
  8
0
 62
    32
 10
26.4276475084609892
 20
51.4967753909245332
 30
0.0
  0
VERTEX
  5
2D2A
  8
0
 62
    32
 10
26.1516892441257482
 20
51.5723803948524093
 30
0.0
 42
0.066952517642229
  0
VERTEX
  5
2D2B
  8
0
 62
    32
 10
25.2268655962523916
 20
51.6967763909244624
 30
0.0
  0
VERTEX
  5
2D2C
  8
0
 62
    32
 10
19.6984473700979912
 20
51.6967753909232073
 30
0.0
 42
0.4142135093937772
  0
VERTEX
  5
2D2D
  8
0
 62
    32
 10
19.1984474605385707
 20
51.1967753909232215
 30
0.0
  0
VERTEX
  5
2D2E
  8
0
 62
    32
 10
19.1984474605403683
 20
50.1967753909245786
 30
0.0
 42
0.414213562372829
  0
VERTEX
  5
2D2F
  8
0
 62
    32
 10
19.6984474605390787
 20
49.6967753909252608
 30
0.0
  0
VERTEX
  5
2D30
  8
0
 62
    32
 10
22.1984474605403683
 20
49.6967753909252608
 30
0.0
  0
VERTEX
  5
2D31
  8
0
 62
    32
 10
22.1984474605403683
 20
45.6967753909245786
 30
0.0
  0
VERTEX
  5
2D32
  8
0
 62
    32
 10
4.6068099676242511
 20
45.6967753909245786
 30
0.0
  0
VERTEX
  5
2D33
  8
0
 62
    32
 10
4.6068099676256571
 20
49.6967753909252608
 30
0.0
  0
VERTEX
  5
2D34
  8
0
 62
    32
 10
7.1068099676242511
 20
49.6967753909252608
 30
0.0
 42
0.4142135623728292
  0
VERTEX
  5
2D35
  8
0
 62
    32
 10
7.6068099676242511
 20
50.1967753909245786
 30
0.0
  0
VERTEX
  5
2D36
  8
0
 62
    32
 10
7.6068099676256571
 20
51.1967753909232215
 30
0.0
 42
0.4142135623733615
  0
VERTEX
  5
2D37
  8
0
 62
    32
 10
7.1068099676256571
 20
51.6967753909232073
 30
0.0
  0
VERTEX
  5
2D38
  8
0
 62
    32
 10
2.6068099676256571
 20
51.6967753909232073
 30
0.0
  0
SEQEND
  5
2D39
  8
0
 62
    32
  0
VIEWPORT
  5
27EC
 67
     1
  8
0
 62
    32
 10
5.2499996395561652
 20
3.999999883606677
 30
0.0
 40
20.6080548390948586
 41
8.9929997457669462
 68
     1
 69
     1
1001
ACAD
1000
MVIEW
1002
{
1070
    16
1010
0.0
1020
0.0
1030
0.0
1010
0.0
1020
0.0
1030
1.0
1040
0.0
1040
8.9929997457669462
1040
5.2499996395561652
1040
3.999999883606677
1040
50.0
1040
0.0
1040
0.0
1070
     0
1070
  1000
1070
     1
1070
     1
1070
     0
1070
     0
1070
     0
1070
     0
1040
0.0
1040
0.0
1040
0.0
1040
10.0
1040
10.0
1040
10.0
1040
10.0
1070
     0
1002
{
1002
}
1002
}
  0
VIEWPORT
  5
27F0
 67
     1
  8
0
 62
    32
 10
5.24999976158142
 20
3.99999976158142
 30
0.0
 40
8.3999996185302752
 41
6.3999996185302734
 68
     2
 69
     2
1001
ACAD
1000
MVIEW
1002
{
1070
    16
1010
0.0
1020
0.0
1030
0.0
1010
0.0
1020
0.0
1030
1.0
1040
0.0
1040
99.0478918116532725
1040
64.5559585347268552
1040
18.9261625712687191
1040
50.0
1040
0.0
1040
0.0
1070
     0
1070
  1000
1070
     1
1070
     1
1070
     0
1070
     0
1070
     0
1070
     0
1040
0.0
1040
0.0
1040
0.0
1040
10.0
1040
10.0
1040
10.0
1040
10.0
1070
     0
1002
{
1002
}
1002
}
  0
ENDSEC
  0
EOF
