  0
SECTION
  2
HEADER
  9
$ACADVER
  1
AC1009
  9
$INSBASE
 10
0.0
 20
0.0
 30
0.0
  9
$EXTMIN
 10
5.2384875368732704
 20
2.6059091607771019
 30
0.0
  9
$EXTMAX
 10
134.238487536871105
 20
30.6093989264902717
 30
0.0
  9
$LIMMIN
 10
0.0
 20
0.0
  9
$LIMMAX
 10
420.0
 20
297.0
  9
$ORTHOMODE
 70
     1
  9
$REGENMODE
 70
     1
  9
$FILLMODE
 70
     1
  9
$QTEXTMODE
 70
     0
  9
$MIRRTEXT
 70
     0
  9
$DRAGMODE
 70
     2
  9
$LTSCALE
 40
1.0
  9
$OSMODE
 70
   167
  9
$ATTMODE
 70
     1
  9
$TEXTSIZE
 40
2.5
  9
$TRACEWID
 40
1.0
  9
$TEXTSTYLE
  7
STANDARD
  9
$CLAYER
  8
0
  9
$CELTYPE
  6
BYLAYER
  9
$CECOLOR
 62
     2
  9
$DIMSCALE
 40
1.0
  9
$DIMASZ
 40
2.5
  9
$DIMEXO
 40
0.625
  9
$DIMDLI
 40
3.75
  9
$DIMRND
 40
0.0
  9
$DIMDLE
 40
0.0
  9
$DIMEXE
 40
1.25
  9
$DIMTP
 40
0.0
  9
$DIMTM
 40
0.0
  9
$DIMTXT
 40
2.5
  9
$DIMCEN
 40
2.5
  9
$DIMTSZ
 40
0.0
  9
$DIMTOL
 70
     0
  9
$DIMLIM
 70
     0
  9
$DIMTIH
 70
     0
  9
$DIMTOH
 70
     0
  9
$DIMSE1
 70
     0
  9
$DIMSE2
 70
     0
  9
$DIMTAD
 70
     1
  9
$DIMZIN
 70
     8
  9
$DIMBLK
  1

  9
$DIMASO
 70
     1
  9
$DIMSHO
 70
     1
  9
$DIMPOST
  1

  9
$DIMAPOST
  1

  9
$DIMALT
 70
     0
  9
$DIMALTD
 70
     3
  9
$DIMALTF
 40
0.03937007874016
  9
$DIMLFAC
 40
1.0
  9
$DIMTOFL
 70
     1
  9
$DIMTVP
 40
0.0
  9
$DIMTIX
 70
     0
  9
$DIMSOXD
 70
     0
  9
$DIMSAH
 70
     0
  9
$DIMBLK1
  1

  9
$DIMBLK2
  1

  9
$DIMSTYLE
  2
ISO-25
  9
$DIMCLRD
 70
     0
  9
$DIMCLRE
 70
     0
  9
$DIMCLRT
 70
     0
  9
$DIMTFAC
 40
1.0
  9
$DIMGAP
 40
0.625
  9
$LUNITS
 70
     2
  9
$LUPREC
 70
     4
  9
$SKETCHINC
 40
1.0
  9
$FILLETRAD
 40
0.0
  9
$AUNITS
 70
     0
  9
$AUPREC
 70
     0
  9
$MENU
  1
.
  9
$ELEVATION
 40
0.0
  9
$PELEVATION
 40
0.0
  9
$THICKNESS
 40
0.0
  9
$LIMCHECK
 70
     0
  9
$BLIPMODE
 70
     0
  9
$CHAMFERA
 40
0.0
  9
$CHAMFERB
 40
0.0
  9
$SKPOLY
 70
     0
  9
$TDCREATE
 40
2458815.5936574079096317
  9
$TDUPDATE
 40
2458869.7000925932079554
  9
$TDINDWG
 40
0.0544212963
  9
$TDUSRTIMER
 40
0.0544212963
  9
$USRTIMER
 70
     1
  9
$ANGBASE
 50
0.0
  9
$ANGDIR
 70
     0
  9
$PDMODE
 70
     0
  9
$PDSIZE
 40
0.0
  9
$PLINEWID
 40
0.0
  9
$COORDS
 70
     1
  9
$SPLFRAME
 70
     0
  9
$SPLINETYPE
 70
     6
  9
$SPLINESEGS
 70
     8
  9
$ATTDIA
 70
     1
  9
$ATTREQ
 70
     1
  9
$HANDLING
 70
     1
  9
$HANDSEED
  5
85E
  9
$SURFTAB1
 70
     6
  9
$SURFTAB2
 70
     6
  9
$SURFTYPE
 70
     6
  9
$SURFU
 70
     6
  9
$SURFV
 70
     6
  9
$UCSNAME
  2

  9
$UCSORG
 10
0.0
 20
0.0
 30
0.0
  9
$UCSXDIR
 10
1.0
 20
0.0
 30
0.0
  9
$UCSYDIR
 10
0.0
 20
1.0
 30
0.0
  9
$PUCSNAME
  2

  9
$PUCSORG
 10
0.0
 20
0.0
 30
0.0
  9
$PUCSXDIR
 10
1.0
 20
0.0
 30
0.0
  9
$PUCSYDIR
 10
0.0
 20
1.0
 30
0.0
  9
$USERI1
 70
     0
  9
$USERI2
 70
     0
  9
$USERI3
 70
     0
  9
$USERI4
 70
     0
  9
$USERI5
 70
     0
  9
$USERR1
 40
0.0
  9
$USERR2
 40
0.0
  9
$USERR3
 40
0.0
  9
$USERR4
 40
0.0
  9
$USERR5
 40
0.0
  9
$WORLDVIEW
 70
     1
  9
$SHADEDGE
 70
     3
  9
$SHADEDIF
 70
    70
  9
$TILEMODE
 70
     1
  9
$MAXACTVP
 70
    64
  9
$PLIMCHECK
 70
     0
  9
$PEXTMIN
 10
0.0
 20
0.0
 30
0.0
  9
$PEXTMAX
 10
0.0
 20
0.0
 30
0.0
  9
$PLIMMIN
 10
0.0
 20
0.0
  9
$PLIMMAX
 10
12.0
 20
9.0
  9
$UNITMODE
 70
     0
  9
$VISRETAIN
 70
     1
  9
$PLINEGEN
 70
     0
  9
$PSLTSCALE
 70
     1
  0
ENDSEC
  0
SECTION
  2
TABLES
  0
TABLE
  2
VPORT
 70
     1
  0
VPORT
  2
*ACTIVE
 70
     0
 10
0.0
 20
0.0
 11
1.0
 21
1.0
 12
111.1783040125879012
 22
-1.3516282007410889
 13
0.0
 23
0.0
 14
10.0
 24
10.0
 15
10.0
 25
10.0
 16
0.0
 26
0.0
 36
1.0
 17
0.0
 27
0.0
 37
0.0
 40
117.2934325771924051
 41
2.29156626506024
 42
50.0
 43
0.0
 44
0.0
 50
0.0
 51
0.0
 71
     0
 72
  1000
 73
     1
 74
     3
 75
     0
 76
     1
 77
     0
 78
     0
  0
ENDTAB
  0
TABLE
  2
LTYPE
 70
     2
  0
LTYPE
  2
CONTINUOUS
 70
     0
  3
Solid line
 72
    65
 73
     0
 40
0.0
  0
ENDTAB
  0
TABLE
  2
LAYER
 70
     1
  0
LAYER
  2
0
 70
     0
 62
     7
  6
CONTINUOUS
  0
ENDTAB
  0
TABLE
  2
STYLE
 70
     2
  0
STYLE
  2
STANDARD
 70
     0
 40
0.0
 41
1.0
 50
0.0
 71
     0
 42
2.5
  3
txt
  4

  0
STYLE
  2
ANNOTATIVE
 70
     0
 40
0.0
 41
1.0
 50
0.0
 71
     0
 42
2.5
  3
txt
  4

  0
ENDTAB
  0
TABLE
  2
VIEW
 70
     0
  0
ENDTAB
  0
TABLE
  2
UCS
 70
     0
  0
ENDTAB
  0
TABLE
  2
APPID
 70
    10
  0
APPID
  2
ACAD
 70
     0
  0
APPID
  2
ACADANNOTATIVE
 70
     0
  0
APPID
  2
ACAD_PSEXT
 70
     0
  0
APPID
  2
ACADANNOPO
 70
     0
  0
APPID
  2
ACAD_DSTYLE_DIMJAG
 70
     0
  0
APPID
  2
ACAD_DSTYLE_DIMTALN
 70
     0
  0
APPID
  2
ACAD_MLEADERVER
 70
     0
  0
APPID
  2
ACAD_NAV_VCDISPLAY
 70
     0
  0
APPID
  2
ACDBBLOCKREPETAG
 70
     0
  0
APPID
  2
ACAD_EXEMPT_FROM_CAD_STANDARDS
 70
     0
  0
ENDTAB
  0
TABLE
  2
DIMSTYLE
 70
     4
  0
DIMSTYLE
  2
STANDARD
 70
     0
  3

  4

  5

  6

  7

 40
1.0
 41
0.18
 42
0.0625
 43
0.38
 44
0.18
 45
0.0
 46
0.0
 47
0.0
 48
0.0
140
0.18
141
0.09
142
0.0
143
25.3999999999999986
144
1.0
145
0.0
146
1.0
147
0.09
 71
     0
 72
     0
 73
     1
 74
     1
 75
     0
 76
     0
 77
     0
 78
     0
170
     0
171
     2
172
     0
173
     0
174
     0
175
     0
176
     0
177
     0
178
     0
  0
DIMSTYLE
  2
ANNOTATIVE
 70
     0
  3

  4

  5

  6

  7

 40
0.0
 41
2.5
 42
0.625
 43
3.75
 44
1.25
 45
0.0
 46
0.0
 47
0.0
 48
0.0
140
2.5
141
2.5
142
0.0
143
0.03937007874016
144
1.0
145
0.0
146
1.0
147
0.625
 71
     0
 72
     0
 73
     0
 74
     0
 75
     0
 76
     0
 77
     1
 78
     8
170
     0
171
     3
172
     1
173
     0
174
     0
175
     0
176
     0
177
     0
178
     0
  0
DIMSTYLE
  2
ISO-25
 70
     0
  3

  4

  5

  6

  7

 40
1.0
 41
2.5
 42
0.625
 43
3.75
 44
1.25
 45
0.0
 46
0.0
 47
0.0
 48
0.0
140
2.5
141
2.5
142
0.0
143
0.03937007874016
144
1.0
145
0.0
146
1.0
147
0.625
 71
     0
 72
     0
 73
     0
 74
     0
 75
     0
 76
     0
 77
     1
 78
     8
170
     0
171
     3
172
     1
173
     0
174
     0
175
     0
176
     0
177
     0
178
     0
  0
ENDTAB
  0
ENDSEC
  0
SECTION
  2
BLOCKS
  0
BLOCK
  8
0
  2
$MODEL_SPACE
 70
     0
 10
0.0
 20
0.0
 30
0.0
  3
$MODEL_SPACE
  1

  0
ENDBLK
  5
6DB
  8
0
  0
BLOCK
 67
     1
  8
0
  2
$PAPER_SPACE
 70
     0
 10
0.0
 20
0.0
 30
0.0
  3
$PAPER_SPACE
  1

  0
ENDBLK
  5
6D7
 67
     1
  8
0
  0
ENDSEC
  0
SECTION
  2
ENTITIES
  0
LINE
  5
6ED
  8
0
 62
     2
 10
64.4385359543071843
 20
19.5076739444043206
 30
0.0
 11
63.088487536870268
 21
20.9356501723843706
 31
0.0
  0
ARC
  5
6EE
  8
0
 62
     2
 10
66.4917264687668705
 20
24.2621459976572389
 30
0.0
 40
4.7589504833665464
 50
182.7954616215729118
 51
224.3466509915365066
  0
LINE
  5
6F0
  8
0
 62
     2
 10
61.7384391194331101
 20
24.4430125697804712
 30
0.0
 11
61.7384391194331101
 21
24.4430125697804712
 31
0.0
  0
ARC
  5
6F1
  8
0
 62
     2
 10
61.9734052320821718
 20
24.3488239431665789
 30
0.0
 40
0.2531414060892253
 50
5.4396889460893441
 51
158.1561019528753036
  0
LINE
  5
6F2
  8
0
 62
     2
 10
62.2254066251301765
 20
24.3728212217351512
 30
0.0
 11
62.2874581269507033
 21
23.7252344090797607
 31
0.0
  0
ARC
  5
6F3
  8
0
 62
     2
 10
64.8427878571748693
 20
24.55539158926425
 30
0.0
 40
2.6867956703068159
 50
197.9975707235466018
 51
237.3696686133447997
  0
LINE
  5
6F4
  8
0
 62
     2
 10
63.3940227915392072
 20
22.29266077041434
 30
0.0
 11
64.4385359543071843
 21
21.5076739444043312
 31
0.0
  0
LINE
  5
6F6
  8
0
 62
     2
 10
64.4385359543071843
 20
19.5076739444043206
 30
0.0
 11
64.4385359543071843
 21
19.5076739444043206
 31
0.0
  0
ARC
  5
6F9
  8
0
 62
     2
 10
65.3880091908815473
 20
11.9865501712435805
 30
0.0
 40
1.0231785795506521
 50
338.2638903714420735
 51
69.9712596542717336
  0
ARC
  5
6FC
  8
0
 62
     2
 10
62.1319558786482276
 20
17.3520931176715685
 30
0.0
 40
2.3881852861841981
 50
15.0212839001223806
 51
99.4842498457968816
  0
ARC
  5
6FE
  8
0
 62
     2
 10
62.0539146246759117
 20
17.2061008287618407
 30
0.0
 40
1.9275252888218151
 50
22.2013874577976011
 51
99.4199036801588534
  0
LINE
  5
6FF
  8
0
 62
     2
 10
63.8385359543072965
 20
17.93444171658318
 30
0.0
 11
63.8385359543072965
 21
14.4344417165812704
 31
0.0
  0
ARC
  5
700
  8
0
 62
     2
 10
66.2064072034183368
 20
14.64514205263586
 30
0.0
 40
2.377227141856725
 50
185.084958883286987
 51
250.0434249364406867
  0
ARC
  5
701
  8
0
 62
     2
 10
65.2713989752620733
 20
11.8828960187820201
 30
0.0
 40
0.5420572143239423
 50
329.497467987549328
 51
76.8149039205412549
  0
LINE
  5
702
  8
0
 62
     2
 10
65.7384391194333091
 20
11.6077605479077999
 30
0.0
 11
66.3384391194332181
 21
11.6076341428618903
 31
0.0
  0
LINE
  5
703
  8
0
 62
     2
 10
66.3384391194332181
 20
11.6076341428618903
 30
0.0
 11
66.3384391194332181
 21
11.6076341428618903
 31
0.0
  0
LINE
  5
704
  8
0
 62
     2
 10
75.0384391194371005
 20
13.7076341428630801
 30
0.0
 11
76.3884875368740381
 21
12.2796579148830105
 31
0.0
  0
ARC
  5
705
  8
0
 62
     2
 10
72.9852486049774143
 20
8.95316208961016
 30
0.0
 40
4.7589504833665321
 50
2.7954616215729891
 51
44.3466509915364782
  0
LINE
  5
706
  8
0
 62
     2
 10
77.7385359543092704
 20
20.6076739444037393
 30
0.0
 11
77.7385359543112031
 21
8.7722955174869526
 31
0.0
  0
LINE
  5
707
  8
0
 62
     2
 10
77.7385359543112031
 20
8.7722955174869526
 30
0.0
 11
77.7385359543112031
 21
8.7722955174869526
 31
0.0
  0
ARC
  5
708
  8
0
 62
     2
 10
77.5035698416621415
 20
8.8664841441008377
 30
0.0
 40
0.2531414060892214
 50
185.4396889460917919
 51
338.1561019528771226
  0
LINE
  5
709
  8
0
 62
     2
 10
77.2515684486141367
 20
8.8424868655322442
 30
0.0
 11
77.1895169467936171
 21
9.4900736781876418
 31
0.0
  0
ARC
  5
70A
  8
0
 62
     2
 10
74.634187216569444
 20
8.6599164980031844
 30
0.0
 40
2.6867956703067848
 50
17.9975707235459907
 51
57.3696686133448495
  0
LINE
  5
70B
  8
0
 62
     2
 10
76.082952282205099
 20
10.9226473168530607
 30
0.0
 11
75.0384391194371005
 21
11.7076341428630801
 31
0.0
  0
LINE
  5
70D
  8
0
 62
     2
 10
75.0384391194371005
 20
13.7076341428630801
 30
0.0
 11
75.0384391194371005
 21
13.7076341428630801
 31
0.0
  0
ARC
  5
70E
  8
0
 62
     2
 10
74.0889658828627375
 20
21.2287579160238202
 30
0.0
 40
1.0231785795506489
 50
158.2638903714423009
 51
249.9712596542717051
  0
ARC
  5
711
  8
0
 62
     2
 10
77.3450191950960857
 20
15.8632149695958393
 30
0.0
 40
2.388185286184199
 50
195.0212839001223983
 51
279.48424984579691
  0
ARC
  5
713
  8
0
 62
     2
 10
77.4230604490684016
 20
16.0092072585055405
 30
0.0
 40
1.9275252888218031
 50
202.2013874577966988
 51
279.4199036801584271
  0
LINE
  5
714
  8
0
 62
     2
 10
75.6384391194370096
 20
15.2808663706842207
 30
0.0
 11
75.6384391194370096
 21
18.7808663706861303
 31
0.0
  0
ARC
  5
715
  8
0
 62
     2
 10
73.2705678703259196
 20
18.57016603463153
 30
0.0
 40
2.3772271418567401
 50
5.084958883287034
 51
70.0434249364402888
  0
ARC
  5
716
  8
0
 62
     2
 10
74.2055760984821546
 20
21.3324120684854002
 30
0.0
 40
0.5420572143239598
 50
149.4974679875521133
 51
256.8149039205433155
  0
LINE
  5
717
  8
0
 62
     2
 10
73.7385359543109473
 20
21.6075475393596008
 30
0.0
 11
73.1385359543110667
 21
21.6076739444055086
 31
0.0
  0
LINE
  5
718
  8
0
 62
     2
 10
73.1385359543110667
 20
21.6076739444055086
 30
0.0
 11
73.1385359543110667
 21
21.6076739444055086
 31
0.0
  0
LINE
  5
719
  8
0
 62
     4
 10
80.7385359543083609
 20
6.1076739444055326
 30
0.0
 11
86.7382371555654572
 21
2.605909160777109
 31
0.0
  0
LINE
  5
71A
  8
0
 62
     4
 10
86.7382371555654572
 20
2.605909160777109
 30
0.0
 11
86.7383925570055538
 21
16.6076718391991101
 31
0.0
  0
LINE
  5
71E
  8
0
 62
     4
 10
52.7382685905741511
 20
30.6093989264902717
 30
0.0
 11
58.7386756646046422
 21
27.107634142861869
 31
0.0
  0
LINE
  5
721
  8
0
 62
     4
 10
52.7382737689952492
 20
16.6076362480687507
 30
0.0
 11
52.7382685905741511
 21
30.6093989264902717
 31
0.0
  0
LINE
  5
722
  8
0
 62
     4
 10
52.7387327358159368
 20
27.3093989236793497
 30
0.0
 11
52.738737914235962
 21
27.307636248068679
 31
0.0
  0
LINE
  5
723
  8
0
 62
     2
 10
57.4884391194350926
 20
8.6076341428618548
 30
0.0
 11
53.9667594277129297
 21
9.2286012899262602
 31
0.0
  0
ARC
  5
724
  8
0
 62
     2
 10
54.5384391194443126
 20
9.8576341428534349
 30
0.0
 40
0.8499999999998831
 50
36.0318790733277368
 51
227.7347081039841896
  0
LINE
  5
725
  8
0
 62
     2
 10
55.2258254736801177
 20
10.35763414286364
 30
0.0
 11
58.4384391194360475
 21
10.3576341428620697
 31
0.0
  0
ARC
  5
726
  8
0
 62
     2
 10
58.4384391194361896
 20
10.6576341428618804
 30
0.0
 40
0.2999999999998195
 50
269.9999999999673719
 51
0.0000000000341973
  0
LINE
  5
727
  8
0
 62
     2
 10
58.7384391194360092
 20
10.6576341428620598
 30
0.0
 11
58.7384391194353768
 21
12.6577099861986895
 31
0.0
  0
ARC
  5
728
  8
0
 62
     2
 10
58.7420443920060009
 20
13.2576991539456603
 30
0.0
 40
0.5999999995033268
 50
269.6557197574736051
 51
89.6557197574735483
  0
LINE
  5
729
  8
0
 62
     2
 10
58.7456496645765966
 20
13.8576883216925992
 30
0.0
 11
58.7384391194360092
 21
13.8576883216925992
 31
0.0
  0
LINE
  5
72A
  8
0
 62
     2
 10
58.7384391194360092
 20
13.8576883216925992
 30
0.0
 11
58.7384391194360092
 21
27.1076341428618584
 31
0.0
  0
ARC
  5
72B
  8
0
 62
     2
 10
59.2384391194360092
 20
27.1076341428618797
 30
0.0
 40
0.5
 50
90.0000000001058567
 51
180.0000000000007958
  0
LINE
  5
72C
  8
0
 62
     2
 10
59.2384391194350997
 20
27.6076341428618584
 30
0.0
 11
59.6216439344241778
 21
27.6076341428636489
 31
0.0
  0
ARC
  5
72D
  8
0
 62
     2
 10
59.6216439344255775
 20
27.3076341428654992
 30
0.0
 40
0.2999999999981551
 50
28.9999999998390017
 51
90.0000000002658425
  0
LINE
  5
72E
  8
0
 62
     2
 10
59.8840298465662002
 20
27.4530770289377699
 30
0.0
 11
61.700825031576862
 21
24.1754917536307197
 31
0.0
  0
ARC
  5
72F
  8
0
 62
     2
 10
61.438439119435003
 20
24.0300488675568502
 30
0.0
 40
0.3000000000000278
 50
0.0000000000056996
 51
28.9999999999907807
  0
LINE
  5
730
  8
0
 62
     2
 10
61.7384391194331101
 20
24.4430125697804712
 30
0.0
 11
61.7384391194350997
 21
12.60763414286364
 31
0.0
  0
ARC
  5
731
  8
0
 62
     2
 10
62.7384391194369968
 20
12.6076341428636596
 30
0.0
 40
1.000000000001918
 50
180.0000000000007958
 51
269.9999999998909175
  0
LINE
  5
732
  8
0
 62
     2
 10
62.7384391194350997
 20
11.6076341428617393
 30
0.0
 11
66.3384391193661145
 21
11.6077605479070591
 31
0.0
  0
ARC
  5
733
  8
0
 62
     2
 10
66.3383178491135936
 20
15.0615222867066407
 30
0.0
 40
3.4537617409286292
 50
270.002011798778824
 51
335.4327183648450728
  0
LINE
  5
734
  8
0
 62
     2
 10
69.4794232325562859
 20
13.6255810855393502
 30
0.0
 11
72.1789774388801533
 21
19.4147937632930194
 31
0.0
  0
ARC
  5
735
  8
0
 62
     2
 10
73.5384391194359921
 20
18.7808663706817214
 30
0.0
 40
1.5000000000008891
 50
0.0000000000170987
 51
155.0000000000050022
  0
LINE
  5
736
  8
0
 62
     2
 10
75.0384391194368732
 20
18.7808663706821584
 30
0.0
 11
75.0384391194368732
 21
11.7076341428630393
 31
0.0
  0
ARC
  5
737
  8
0
 62
     2
 10
74.7338008767927988
 20
11.7076341428630499
 30
0.0
 40
0.3046382426440743
 50
280.0109368637847069
 51
359.9999999999984084
  0
LINE
  5
738
  8
0
 62
     2
 10
74.7867580187249246
 20
11.4076341428636301
 30
0.0
 11
73.4384391194360546
 21
11.4076341428618502
 31
0.0
  0
ARC
  5
739
  8
0
 62
     2
 10
73.4384391194371062
 20
10.60763414286086
 30
0.0
 40
0.8000000000009848
 50
90.0000000000773639
 51
179.9999999999290878
  0
LINE
  5
73A
  8
0
 62
     2
 10
72.6384391194361285
 20
10.6076341428618495
 30
0.0
 11
72.6384391194351906
 21
9.5576341428616445
 31
0.0
  0
ARC
  5
73B
  8
0
 62
     2
 10
73.1384391194341106
 20
9.557634142861211
 30
0.0
 40
0.49999999999892
 50
179.9999999999502904
 51
223.6028189727578877
  0
ARC
  5
73D
  8
0
 62
     2
 10
72.0884391194345255
 20
8.5576341428650551
 30
0.0
 40
0.9500000000006895
 50
270.0000000000292744
 51
43.6028154544954774
  0
LINE
  5
73E
  8
0
 62
     2
 10
72.0884391194350229
 20
7.6076341428643701
 30
0.0
 11
71.5384391194350542
 21
7.6076341428618468
 31
0.0
  0
ARC
  5
73F
  8
0
 62
     2
 10
71.5384391194336615
 20
7.907634142860501
 30
0.0
 40
0.2999999999986471
 50
179.999999999527688
 51
270.0000000002657998
  0
LINE
  5
740
  8
0
 62
     2
 10
71.2384391194350144
 20
7.9076341428629737
 30
0.0
 11
71.2384391194351281
 21
10.4823691697822596
 31
0.0
  0
ARC
  5
741
  8
0
 62
     2
 10
70.7384391194355544
 20
10.4823691697822898
 30
0.0
 40
0.4999999999995596
 50
359.9999999999984084
 51
119.9999999999671019
  0
LINE
  5
742
  8
0
 62
     2
 10
70.4884391194360234
 20
10.9153818716742492
 30
0.0
 11
69.4884391194350144
 21
10.3380316024851897
 31
0.0
  0
ARC
  5
743
  8
0
 62
     2
 10
69.6384391194346222
 20
10.0782239813500496
 30
0.0
 40
0.2999999999996294
 50
119.9999999999511999
 51
180.0000000000227942
  0
LINE
  5
744
  8
0
 62
     2
 10
69.3384391194350087
 20
10.0782239813499199
 30
0.0
 11
69.3384391194350087
 21
8.9076341428628592
 31
0.0
  0
ARC
  5
745
  8
0
 62
     2
 10
69.0384391194349973
 20
8.9076341428628538
 30
0.0
 40
0.2999999999999971
 50
270.0000000000110276
 51
0.0000000000016284
  0
LINE
  5
746
  8
0
 62
     2
 10
69.0384391194350542
 20
8.6076341428628638
 30
0.0
 11
57.4884391194350926
 21
8.6076341428618548
 31
0.0
  0
LINE
  5
747
  8
0
 62
     2
 10
57.4884391194350926
 20
8.6076341428618548
 30
0.0
 11
57.4884391194350926
 21
8.6076341428618548
 31
0.0
  0
LINE
  5
748
  8
0
 62
     2
 10
81.9885359543092278
 20
24.6076739444055406
 30
0.0
 11
85.5102156460314546
 21
23.9867067973411316
 31
0.0
  0
ARC
  5
749
  8
0
 62
     2
 10
84.9385359543000078
 20
23.3576739444139605
 30
0.0
 40
0.8499999999998713
 50
216.0318790733277012
 51
47.7347081039853904
  0
LINE
  5
74A
  8
0
 62
     2
 10
84.2511496000642808
 20
22.8576739444037393
 30
0.0
 11
81.0385359543083155
 21
22.8576739444053203
 31
0.0
  0
ARC
  5
74B
  8
0
 62
     2
 10
81.0385359543081449
 20
22.5576739444055114
 30
0.0
 40
0.2999999999998124
 50
89.9999999999702851
 51
180.0000000000349871
  0
LINE
  5
74C
  8
0
 62
     2
 10
80.7385359543083609
 20
22.5576739444053196
 30
0.0
 11
80.7385359543089862
 21
20.5575981010686917
 31
0.0
  0
ARC
  5
74D
  8
0
 62
     2
 10
80.7349306817383763
 20
19.9576089333217404
 30
0.0
 40
0.5999999995033267
 50
89.6557197574747846
 51
269.6557197574736051
  0
LINE
  5
74E
  8
0
 62
     2
 10
80.7313254091677663
 20
19.3576197655747784
 30
0.0
 11
80.7385359543083609
 21
19.3576197655747784
 31
0.0
  0
LINE
  5
74F
  8
0
 62
     2
 10
80.7385359543083609
 20
19.3576197655747784
 30
0.0
 11
80.7385359543083609
 21
6.1076739444055326
 31
0.0
  0
ARC
  5
750
  8
0
 62
     2
 10
80.2385359543083894
 20
6.1076739444055193
 30
0.0
 40
0.4999999999999858
 50
270.000000000104194
 51
0.0000000000008142
  0
LINE
  5
751
  8
0
 62
     2
 10
80.2385359543092562
 20
5.6076739444055326
 30
0.0
 11
79.8553311393201852
 21
5.607673944403742
 31
0.0
  0
ARC
  5
752
  8
0
 62
     2
 10
79.8553311393187641
 20
5.9076739444018918
 30
0.0
 40
0.2999999999981497
 50
208.9999999998410942
 51
270.0000000002686988
  0
LINE
  5
753
  8
0
 62
     2
 10
79.592945227178177
 20
5.7622310583296246
 30
0.0
 11
77.7761500421674725
 21
9.0398163336366792
 31
0.0
  0
ARC
  5
754
  8
0
 62
     2
 10
78.0385359543093102
 20
9.1852592197105167
 30
0.0
 40
0.2999999999999964
 50
180.0000000000023874
 51
208.9999999999859028
  0
ARC
  5
756
  8
0
 62
     2
 10
76.7385359543073662
 20
20.60767394440375
 30
0.0
 40
1.000000000001918
 50
359.9999999999992042
 51
89.999999999889269
  0
LINE
  5
757
  8
0
 62
     2
 10
76.7385359543092989
 20
21.6076739444056614
 30
0.0
 11
73.138535954378284
 21
21.6075475393603291
 31
0.0
  0
ARC
  5
758
  8
0
 62
     2
 10
73.1386572246308049
 20
18.1537858005607085
 30
0.0
 40
3.4537617409286709
 50
90.0020117987783834
 51
155.4327183648451012
  0
LINE
  5
759
  8
0
 62
     2
 10
69.9975518411881126
 20
19.5897270017280292
 30
0.0
 11
67.2979976348642026
 21
13.8005143239743706
 31
0.0
  0
ARC
  5
75A
  8
0
 62
     2
 10
65.938535954308378
 20
14.4344417165856704
 30
0.0
 40
1.500000000000872
 50
180.0000000000171099
 51
335.0000000000048885
  0
LINE
  5
75B
  8
0
 62
     2
 10
64.4385359543075253
 20
14.4344417165852192
 30
0.0
 11
64.4385359543075253
 21
21.5076739444043596
 31
0.0
  0
ARC
  5
75C
  8
0
 62
     2
 10
64.7431741969515713
 20
21.5076739444043703
 30
0.0
 40
0.3046382426440459
 50
100.0109368637880038
 51
180.0000000000023874
  0
LINE
  5
75D
  8
0
 62
     2
 10
64.6902170550194455
 20
21.8076739444037599
 30
0.0
 11
66.0385359543083155
 21
21.8076739444055399
 31
0.0
  0
ARC
  5
75E
  8
0
 62
     2
 10
66.0385359543072923
 20
22.6076739444065389
 30
0.0
 40
0.800000000000999
 50
270.0000000000753175
 51
359.9999999999275246
  0
LINE
  5
75F
  8
0
 62
     2
 10
66.83853595430827
 20
22.6076739444055299
 30
0.0
 11
66.8385359543091653
 21
23.6576739444057509
 31
0.0
  0
ARC
  5
760
  8
0
 62
     2
 10
66.3385359543102311
 20
23.6576739444062198
 30
0.0
 40
0.4999999999989059
 50
359.999999999946283
 51
43.6028189727542568
  0
ARC
  5
762
  8
0
 62
     2
 10
67.3885359543098446
 20
24.6576739444023296
 30
0.0
 40
0.9500000000007055
 50
90.0000000000289049
 51
223.6027956066525917
  0
LINE
  5
763
  8
0
 62
     2
 10
67.3885359543093614
 20
25.6076739444030217
 30
0.0
 11
67.9385359543093443
 21
25.6076739444055406
 31
0.0
  0
ARC
  5
764
  8
0
 62
     2
 10
67.9385359543106802
 20
25.3076739444069183
 30
0.0
 40
0.2999999999986347
 50
359.999999999523709
 51
90.0000000002576854
  0
LINE
  5
765
  8
0
 62
     2
 10
68.2385359543093131
 20
25.3076739444044208
 30
0.0
 11
68.2385359543092704
 21
22.7329389174851393
 31
0.0
  0
ARC
  5
766
  8
0
 62
     2
 10
68.7385359543088157
 20
22.7329389174851215
 30
0.0
 40
0.4999999999995596
 50
179.9999999999984084
 51
299.9999999999665761
  0
LINE
  5
767
  8
0
 62
     2
 10
68.9885359543083609
 20
22.2999262155931497
 30
0.0
 11
69.9885359543093273
 21
22.8772764847822003
 31
0.0
  0
ARC
  5
768
  8
0
 62
     2
 10
69.8385359543097479
 20
23.1370841059173316
 30
0.0
 40
0.2999999999996263
 50
299.9999999999516263
 51
0.0000000000227982
  0
LINE
  5
769
  8
0
 62
     2
 10
70.1385359543093614
 20
23.1370841059174701
 30
0.0
 11
70.1385359543093614
 21
24.3076739444045309
 31
0.0
  0
ARC
  5
76A
  8
0
 62
     2
 10
70.4385359543093728
 20
24.3076739444045309
 30
0.0
 40
0.2999999999999971
 50
90.0000000000052864
 51
179.9999999999992042
  0
LINE
  5
76B
  8
0
 62
     2
 10
70.4385359543093443
 20
24.6076739444045316
 30
0.0
 11
81.9885359543092278
 21
24.6076739444055406
 31
0.0
  0
LINE
  5
76C
  8
0
 62
     2
 10
81.9885359543092278
 20
24.6076739444055406
 30
0.0
 11
81.9885359543092278
 21
24.6076739444055406
 31
0.0
  0
LINE
  5
76D
  8
0
 62
     4
 10
118.7380817501835963
 20
16.6080269943246108
 30
0.0
 11
118.7382371378258057
 21
20.6076718391996714
 31
0.0
  0
LINE
  5
76E
  8
0
 62
     4
 10
111.238487536871105
 20
20.607671839198229
 30
0.0
 11
94.2384875368701387
 21
20.607671839198229
 31
0.0
  0
LINE
  5
76F
  8
0
 62
     4
 10
86.7383925609473181
 20
20.6076718391991314
 30
0.0
 11
86.7383925609473181
 21
16.6076718391991101
 31
0.0
  0
LINE
  5
770
  8
0
 62
     4
 10
86.7383925609473181
 20
16.6076718391991101
 30
0.0
 11
118.7380817501835963
 21
16.6080269943246108
 31
0.0
  0
LINE
  5
772
  8
0
 62
     4
 10
124.7384927152910024
 20
5.905909163588543
 30
0.0
 11
118.7382371555654004
 21
2.605909160777109
 31
0.0
  0
LINE
  5
773
  8
0
 62
     4
 10
118.7382371555654004
 20
2.6059091607771019
 30
0.0
 11
118.7380817501835963
 21
16.6080269943246108
 31
0.0
  0
LINE
  5
777
  8
0
 62
     4
 10
52.7381183675508183
 20
12.6076362480685997
 30
0.0
 11
52.7382737689908723
 21
16.6076480829136983
 31
0.0
  0
LINE
  5
778
  8
0
 62
     4
 10
52.7382737689908581
 20
16.6076480829136983
 30
0.0
 11
20.7382685905768689
 21
16.6076362480682604
 31
0.0
  0
LINE
  5
77A
  8
0
 62
     4
 10
28.2384875368731798
 20
12.6076362480691504
 30
0.0
 11
45.238487536874139
 21
12.6076362480691504
 31
0.0
  0
LINE
  5
77C
  8
0
 62
     4
 10
14.7384875368730892
 20
27.3076362480681887
 30
0.0
 11
20.7382685905741511
 21
30.6093989264902717
 31
0.0
  0
LINE
  5
77D
  8
0
 62
     4
 10
20.7382685905741511
 20
30.6093989264902717
 30
0.0
 11
20.7382685905776398
 21
12.6076362480676991
 31
0.0
  0
LINE
  5
780
  8
0
 62
     4
 10
14.7384823584530906
 20
27.3093989236788701
 30
0.0
 11
14.7384875368730892
 21
27.3076362480681887
 31
0.0
  0
LINE
  5
781
  8
0
 62
     1
 10
134.238487536871105
 20
5.907671839199196
 30
0.0
 11
134.238487536871105
 21
27.3076362480682988
 31
0.0
  0
ARC
  5
782
  8
0
 62
     1
 10
133.9384875368710084
 20
27.3076362480682704
 30
0.0
 40
0.3000000000000398
 50
0.0000000000056996
 51
90.0000000003419558
  0
LINE
  5
783
  8
0
 62
     1
 10
133.9384875368691894
 20
27.6076362480683102
 30
0.0
 11
63.0853248148401633
 21
27.6076362480675215
 31
0.0
  0
ARC
  5
784
  8
0
 62
     1
 10
63.0853248148401917
 20
26.8576362480675392
 30
0.0
 40
0.7499999999999947
 50
90.0000000000020464
 51
222.7870978730591958
  0
LINE
  5
785
  8
0
 62
     1
 10
62.5349126806297591
 20
26.3481792012874187
 30
0.0
 11
64.1586651886016455
 21
24.5938937536896809
 31
0.0
  0
ARC
  5
786
  8
0
 62
     1
 10
63.9385003349174781
 20
24.3901109349776704
 30
0.0
 40
0.299999999999968
 50
0.0000000000276835
 51
42.7870978730542006
  0
LINE
  5
787
  8
0
 62
     1
 10
64.2385003349174326
 20
24.3901109349778089
 30
0.0
 11
64.2385003349183137
 21
22.9418556217841392
 31
0.0
  0
LINE
  5
788
  8
0
 62
     1
 10
64.2385003349183137
 20
22.9418556217841392
 30
0.0
 11
64.3947747291158521
 21
22.0555794911032201
 31
0.0
  0
ARC
  5
789
  8
0
 62
     1
 10
64.6902170550191329
 20
22.1076739444034196
 30
0.0
 40
0.299999999999659
 50
190.0000000000349019
 51
270.0000000000517275
  0
ARC
  5
78B
  8
0
 62
     1
 10
65.6126837343417435
 20
22.107673944402169
 30
0.0
 40
0.2999999999984233
 50
270.0
 51
300.0000000001372769
  0
LINE
  5
78C
  8
0
 62
     1
 10
65.7626837343415787
 20
21.8478663232685513
 30
0.0
 11
66.5885167592615517
 21
22.3246612425131907
 31
0.0
  0
ARC
  5
78D
  8
0
 62
     1
 10
66.4385167592612049
 20
22.584468863648361
 30
0.0
 40
0.3000000000000235
 50
300.0000000000704858
 51
359.9999999999976126
  0
LINE
  5
78E
  8
0
 62
     1
 10
66.7385167592612447
 20
22.5844688636483504
 30
0.0
 11
66.7385167592612447
 21
23.7076718391976584
 31
0.0
  0
ARC
  5
78F
  8
0
 62
     1
 10
66.4385167592612333
 20
23.7076718391976691
 30
0.0
 40
0.3000000000000114
 50
359.9999999999976126
 51
89.9999999998180158
  0
LINE
  5
790
  8
0
 62
     1
 10
66.4385167592621713
 20
24.0076718391976698
 30
0.0
 11
66.0384875368695532
 21
24.0076718391989203
 31
0.0
  0
ARC
  5
791
  8
0
 62
     1
 10
66.0384875368704627
 20
24.3076718391990596
 30
0.0
 40
0.3000000000001393
 50
180.0000000000300986
 51
269.9999999998236717
  0
LINE
  5
792
  8
0
 62
     1
 10
65.738487536870295
 20
24.3076718391988997
 30
0.0
 11
65.738487536870295
 21
25.4076718391973593
 31
0.0
  0
ARC
  5
793
  8
0
 62
     1
 10
66.0384875368703774
 20
25.4076718391973806
 30
0.0
 40
0.3000000000000682
 50
90.000000000013415
 51
180.0000000000015916
  0
LINE
  5
794
  8
0
 62
     1
 10
66.0384875368703206
 20
25.707671839197431
 30
0.0
 11
70.4388278659622813
 21
25.707671839197431
 31
0.0
  0
ARC
  5
795
  8
0
 62
     1
 10
70.4388278659622529
 20
25.4076718391974694
 30
0.0
 40
0.2999999999999669
 50
0.000000000139232
 51
89.9999999999971436
  0
LINE
  5
796
  8
0
 62
     1
 10
70.7388278659622358
 20
25.4076718391982013
 30
0.0
 11
70.7388278659633158
 21
25.0076718391976698
 31
0.0
  0
ARC
  5
797
  8
0
 62
     1
 10
71.0388278659639809
 20
25.0076718391984691
 30
0.0
 40
0.3000000000006793
 50
180.0000000001506066
 51
269.9999999998697149
  0
LINE
  5
798
  8
0
 62
     1
 10
71.0388278659632846
 20
24.7076718391977792
 30
0.0
 11
86.0384875368703064
 21
24.7076718391992216
 31
0.0
  0
ARC
  5
799
  8
0
 62
     1
 10
86.038487536870349
 20
24.4076718391991889
 30
0.0
 40
0.3000000000000327
 50
0.0000000000040711
 51
90.0000000000081286
  0
LINE
  5
79A
  8
0
 62
     1
 10
86.3384875368703604
 20
24.4076718391992102
 30
0.0
 11
86.3384875368703604
 21
22.8076718391989388
 31
0.0
  0
ARC
  5
79B
  8
0
 62
     1
 10
86.038487536870349
 20
22.8076718391989495
 30
0.0
 40
0.3000000000000256
 50
270.0
 51
359.9999999999976126
  0
LINE
  5
79C
  8
0
 62
     1
 10
86.038487536870349
 20
22.507671839198931
 30
0.0
 11
82.330794482170262
 21
22.5076718391976698
 31
0.0
  0
ARC
  5
79D
  8
0
 62
     1
 10
82.3307944821704325
 20
22.2076718391974488
 30
0.0
 40
0.300000000000221
 50
90.0000000000244142
 51
119.9999999999194955
  0
LINE
  5
79E
  8
0
 62
     1
 10
82.1807944821706542
 20
22.4674794603332018
 30
0.0
 11
81.0894359543094083
 21
21.8373833204920693
 31
0.0
  0
ARC
  5
79F
  8
0
 62
     1
 10
81.2394359543089877
 20
21.5775756993567001
 30
0.0
 40
0.2999999999998213
 50
119.9999999999239009
 51
209.8971488566444066
  0
LINE
  5
7A0
  8
0
 62
     1
 10
80.9793594882504379
 20
21.4280423191287213
 30
0.0
 11
81.364526935944383
 21
20.7581384589716009
 31
0.0
  0
ARC
  5
7A1
  8
0
 62
     1
 10
81.6246034020038138
 20
20.9076718392000593
 30
0.0
 40
0.3000000000008745
 50
209.8971488566348
 51
269.9999999999022862
  0
LINE
  5
7A2
  8
0
 62
     1
 10
81.624603402003288
 20
20.6076718391991704
 30
0.0
 11
94.2384875368701387
 21
20.607671839198229
 31
0.0
  0
ARC
  5
7A3
  8
0
 62
     1
 10
94.2384875368701955
 20
21.607671839198229
 30
0.0
 40
1.0
 50
269.9999999999951115
 51
89.9999999999682245
  0
LINE
  5
7A4
  8
0
 62
     1
 10
94.238487536870764
 20
22.607671839198229
 30
0.0
 11
91.4884875368693713
 21
22.6076718391991101
 31
0.0
  0
ARC
  5
7A5
  8
0
 62
     1
 10
91.488487536869755
 20
23.8576718391991385
 30
0.0
 40
1.2500000000000311
 50
90.0000000000183036
 51
269.9999999999816964
  0
LINE
  5
7A6
  8
0
 62
     1
 10
91.4884875368693713
 20
25.1076718391991704
 30
0.0
 11
102.238487536871105
 21
25.1076718391991314
 31
0.0
  0
LINE
  5
7A7
  8
0
 62
     1
 10
102.238487536871105
 20
25.1076718391991314
 30
0.0
 11
102.7384875368700961
 21
25.6076718391991385
 31
0.0
  0
LINE
  5
7A8
  8
0
 62
     1
 10
102.7384875368700961
 20
25.6076718391991385
 30
0.0
 11
103.2384875368700961
 21
25.1076718391991314
 31
0.0
  0
LINE
  5
7A9
  8
0
 62
     1
 10
103.2384875368700961
 20
25.1076718391991314
 30
0.0
 11
113.9884875368710055
 21
25.1076718391991704
 31
0.0
  0
ARC
  5
7AA
  8
0
 62
     1
 10
113.9884875368710055
 20
23.8576718391991598
 30
0.0
 40
1.2500000000000171
 50
270.0000000000370051
 51
89.9999999999987637
  0
LINE
  5
7AB
  8
0
 62
     1
 10
113.9884875368717019
 20
22.6076718391991314
 30
0.0
 11
111.2384875368714034
 21
22.6076718391982183
 31
0.0
  0
ARC
  5
7AC
  8
0
 62
     1
 10
111.2384875368716024
 20
21.607671839198229
 30
0.0
 40
1.0
 50
90.0000000000170957
 51
269.9999999999665761
  0
LINE
  5
7AD
  8
0
 62
     1
 10
111.238487536871105
 20
20.607671839198229
 30
0.0
 11
124.4384875368700989
 21
20.6076718392007798
 31
0.0
  0
ARC
  5
7AE
  8
0
 62
     1
 10
124.4384875368700989
 20
20.3076718392007685
 30
0.0
 40
0.3000000000000114
 50
0.0000000000008142
 51
90.0000000000106013
  0
LINE
  5
7AF
  8
0
 62
     1
 10
124.7384875368701955
 20
20.3076718392007685
 30
0.0
 11
124.7384927152910024
 21
5.9059091635885252
 31
0.0
  0
ARC
  5
7B0
  8
0
 62
     1
 10
125.0367352943728037
 20
5.9059092708271939
 30
0.0
 40
0.2982425790817637
 50
180.0000206017641915
 51
270.3366275792594138
  0
LINE
  5
7B1
  8
0
 62
     1
 10
125.0384875368711022
 20
5.607671839200008
 30
0.0
 11
133.9384875368710084
 21
5.6076718391991767
 31
0.0
  0
ARC
  5
7B2
  8
0
 62
     1
 10
133.9384875368710084
 20
5.9076718391992236
 30
0.0
 40
0.3000000000000398
 50
269.9999999999837996
 51
359.9999999999959073
  0
LINE
  5
7B3
  8
0
 62
     1
 10
5.2384875368732793
 20
27.30763624806821
 30
0.0
 11
5.2384875368732722
 21
5.9076718391991028
 31
0.0
  0
ARC
  5
7B4
  8
0
 62
     1
 10
5.5384875368732764
 20
5.9076718391991028
 30
0.0
 40
0.300000000000006
 50
179.9999999999984084
 51
270.0000000003353762
  0
LINE
  5
7B5
  8
0
 62
     1
 10
5.5384875368750377
 20
5.6076718391990994
 30
0.0
 11
76.39165025890415
 21
5.6076718391998588
 31
0.0
  0
ARC
  5
7B6
  8
0
 62
     1
 10
76.3916502589041215
 20
6.3576718391998588
 30
0.0
 40
0.7500000000000071
 50
270.0000000000021032
 51
42.7870978730584071
  0
LINE
  5
7B7
  8
0
 62
     1
 10
76.9420623931145826
 20
6.8671288859799802
 30
0.0
 11
75.3183098851426962
 21
8.621414333577718
 31
0.0
  0
ARC
  5
7B8
  8
0
 62
     1
 10
75.5384747388268636
 20
8.8251971522897463
 30
0.0
 40
0.2999999999999556
 50
180.0000000000316902
 51
222.7870978730595084
  0
LINE
  5
7B9
  8
0
 62
     1
 10
75.2384747388268806
 20
8.8251971522895687
 30
0.0
 11
75.238474738826028
 21
10.2734524654832402
 31
0.0
  0
LINE
  5
7BA
  8
0
 62
     1
 10
75.238474738826028
 20
10.2734524654832402
 30
0.0
 11
75.0822003446285038
 21
11.1597285961641699
 31
0.0
  0
ARC
  5
7BB
  8
0
 62
     1
 10
74.7867580187252088
 20
11.1076341428639402
 30
0.0
 40
0.2999999999996761
 50
10.0000000000373994
 51
90.0000000000541149
  0
LINE
  5
7BC
  8
0
 62
     1
 10
74.7867580187249246
 20
11.4076341428636301
 30
0.0
 11
73.8642913394025982
 21
11.4076341428636496
 31
0.0
  0
ARC
  5
7BD
  8
0
 62
     1
 10
73.8642913394025697
 20
11.1076341428651801
 30
0.0
 40
0.299999999998473
 50
89.9999999999942872
 51
120.0000000001321041
  0
LINE
  5
7BE
  8
0
 62
     1
 10
73.7142913394027346
 20
11.3674417639988405
 30
0.0
 11
72.8884583144827616
 21
10.8906468447541904
 31
0.0
  0
ARC
  5
7BF
  8
0
 62
     1
 10
73.0384583144831083
 20
10.6308392236190503
 30
0.0
 40
0.3000000000000091
 50
120.0000000000757012
 51
180.0000000000032117
  0
LINE
  5
7C0
  8
0
 62
     1
 10
72.738458314483097
 20
10.6308392236190308
 30
0.0
 11
72.7384583144830685
 21
9.5076362480697298
 31
0.0
  0
ARC
  5
7C1
  8
0
 62
     1
 10
73.0384583144830799
 20
9.5076362480697298
 30
0.0
 40
0.3000000000000114
 50
179.9999999999984084
 51
269.9999999998208864
  0
LINE
  5
7C2
  8
0
 62
     1
 10
73.038458314482142
 20
9.2076362480697185
 30
0.0
 11
73.4384875368747885
 21
9.207636248068475
 31
0.0
  0
ARC
  5
7C3
  8
0
 62
     1
 10
73.4384875368738506
 20
8.9076362480683287
 30
0.0
 40
0.3000000000001322
 50
0.0000000000276835
 51
89.9999999998180158
  0
LINE
  5
7C4
  8
0
 62
     1
 10
73.7384875368739756
 20
8.9076362480684832
 30
0.0
 11
73.738487536874004
 21
7.8076362480700112
 31
0.0
  0
ARC
  5
7C5
  8
0
 62
     1
 10
73.4384875368739642
 20
7.807636248069997
 30
0.0
 40
0.300000000000054
 50
270.000000000013415
 51
0.0000000000024427
  0
LINE
  5
7C6
  8
0
 62
     1
 10
73.4384875368740211
 20
7.5076362480699501
 30
0.0
 11
69.038147207782032
 21
7.5076362480699501
 31
0.0
  0
ARC
  5
7C7
  8
0
 62
     1
 10
69.038147207782032
 20
7.8076362480699251
 30
0.0
 40
0.2999999999999829
 50
180.0000000001400053
 51
270.0
  0
LINE
  5
7C8
  8
0
 62
     1
 10
68.738147207782049
 20
7.8076362480692012
 30
0.0
 11
68.7381472077810258
 21
8.2076362480697256
 31
0.0
  0
ARC
  5
7C9
  8
0
 62
     1
 10
68.4381472077803323
 20
8.2076362480689298
 30
0.0
 40
0.3000000000006793
 50
0.0000000001506311
 51
89.9999999998697291
  0
LINE
  5
7CA
  8
0
 62
     1
 10
68.4381472077810145
 20
8.5076362480696002
 30
0.0
 11
53.4384875368740495
 21
8.5076362480681738
 31
0.0
  0
ARC
  5
7CB
  8
0
 62
     1
 10
53.4384875368739998
 20
8.8076362480682064
 30
0.0
 40
0.3000000000000327
 50
180.0000000000048885
 51
270.0000000000068781
  0
LINE
  5
7CC
  8
0
 62
     1
 10
53.1384875368739813
 20
8.807636248068178
 30
0.0
 11
53.1384875368739813
 21
10.4076362480684406
 31
0.0
  0
ARC
  5
7CD
  8
0
 62
     1
 10
53.4384875368739998
 20
10.4076362480684406
 30
0.0
 40
0.3000000000000256
 50
90.0
 51
180.0
  0
LINE
  5
7CE
  8
0
 62
     1
 10
53.4384875368739998
 20
10.7076362480684697
 30
0.0
 11
57.1461805915739873
 21
10.7076362480697203
 31
0.0
  0
ARC
  5
7CF
  8
0
 62
     1
 10
57.1461805915739234
 20
11.0076362480699395
 30
0.0
 40
0.300000000000221
 50
270.0000000000151203
 51
299.9999999999109832
  0
LINE
  5
7D0
  8
0
 62
     1
 10
57.2961805915736306
 20
10.7478286269341901
 30
0.0
 11
58.387539119434912
 21
11.3779247667753207
 31
0.0
  0
ARC
  5
7D1
  8
0
 62
     1
 10
58.2375391194353469
 20
11.6377323879107006
 30
0.0
 40
0.2999999999998147
 50
299.9999999999228066
 51
29.8971488566453516
  0
LINE
  5
7D2
  8
0
 62
     1
 10
58.4976155854938611
 20
11.7872657681386794
 30
0.0
 11
58.1124481377999302
 21
12.4571696282957802
 31
0.0
  0
ARC
  5
7D3
  8
0
 62
     1
 10
57.8523716717404497
 20
12.3076362480673591
 30
0.0
 40
0.3000000000008647
 50
29.8971488566284513
 51
89.9999999998953655
  0
LINE
  5
7D4
  8
0
 62
     1
 10
57.8523716717409897
 20
12.6076362480682196
 30
0.0
 11
45.238487536874139
 21
12.6076362480691504
 31
0.0
  0
ARC
  5
7D5
  8
0
 62
     1
 10
45.2384875368741035
 20
11.6076362480691504
 30
0.0
 40
1.0
 50
89.9999999999967457
 51
269.9999999999682245
  0
LINE
  5
7D6
  8
0
 62
     1
 10
45.2384875368735493
 20
10.6076362480691504
 30
0.0
 11
47.9884875368749633
 21
10.6076362480682693
 31
0.0
  0
ARC
  5
7D7
  8
0
 62
     1
 10
47.9884875368745725
 20
9.3576362480682462
 30
0.0
 40
1.250000000000024
 50
270.0000000000183036
 51
89.9999999999816822
  0
LINE
  5
7D8
  8
0
 62
     1
 10
47.9884875368749633
 20
8.1076362480682178
 30
0.0
 11
37.2384875368732722
 21
8.1076362480682604
 31
0.0
  0
LINE
  5
7D9
  8
0
 62
     1
 10
37.2384875368732722
 20
8.1076362480682604
 30
0.0
 11
36.7384875368741604
 21
7.6076362480682533
 31
0.0
  0
LINE
  5
7DA
  8
0
 62
     1
 10
36.7384875368741604
 20
7.6076362480682533
 30
0.0
 11
36.2384875368741604
 21
8.1076362480682604
 31
0.0
  0
LINE
  5
7DB
  8
0
 62
     1
 10
36.2384875368741604
 20
8.1076362480682604
 30
0.0
 11
25.4884875368732686
 21
8.1076362480682178
 31
0.0
  0
ARC
  5
7DC
  8
0
 62
     1
 10
25.4884875368732686
 20
9.3576362480682391
 30
0.0
 40
1.2500000000000211
 50
90.0000000000370477
 51
269.9999999999996021
  0
LINE
  5
7DD
  8
0
 62
     1
 10
25.4884875368724515
 20
10.6076362480682604
 30
0.0
 11
28.2384875368729489
 21
10.6076362480691504
 31
0.0
  0
ARC
  5
7DE
  8
0
 62
     1
 10
28.2384875368726114
 20
11.6076362480691504
 30
0.0
 40
1.0
 50
270.0000000000187015
 51
89.9999999999678408
  0
LINE
  5
7DF
  8
0
 62
     1
 10
28.2384875368731798
 20
12.6076362480691504
 30
0.0
 11
15.0384875368742392
 21
12.6076362480665995
 31
0.0
  0
ARC
  5
7E0
  8
0
 62
     1
 10
15.0384875368741895
 20
12.9076362480666198
 30
0.0
 40
0.3000000000000185
 50
179.9999999999984084
 51
270.0000000000093792
  0
LINE
  5
7E1
  8
0
 62
     1
 10
14.7384875368741692
 20
12.9076362480666393
 30
0.0
 11
14.7384823584530906
 21
27.3093989236788701
 31
0.0
  0
ARC
  5
7E2
  8
0
 62
     1
 10
14.4402397793713497
 20
27.3093988164402184
 30
0.0
 40
0.2982425790817709
 50
0.000020601760923
 51
90.3366275792536584
  0
LINE
  5
7E3
  8
0
 62
     1
 10
14.4384875368730796
 20
27.60763624806739
 30
0.0
 11
5.5384875368732764
 21
27.6076362480682214
 31
0.0
  0
ARC
  5
7E4
  8
0
 62
     1
 10
5.5384875368732551
 20
27.3076362480682384
 30
0.0
 40
0.2999999999999705
 50
89.9999999999963336
 51
180.0000000000065086
  0
ENDSEC
  0
EOF
