  0
SECTION
  2
HEADER
  9
$ACADVER
  1
AC1009
  9
$INSBASE
 10
0.0
 20
0.0
 30
0.0
  9
$EXTMIN
 10
5.2384875368732704
 20
2.605909160777101
 30
0.0
  9
$EXTMAX
 10
139.8580702634289992
 20
67.955677720093604
 30
0.0
  9
$LIMMIN
 10
0.0
 20
0.0
  9
$LIMMAX
 10
420.0
 20
297.0
  9
$ORTHOMODE
 70
     1
  9
$REGENMODE
 70
     1
  9
$FILLMODE
 70
     1
  9
$QTEXTMODE
 70
     0
  9
$MIRRTEXT
 70
     0
  9
$DRAGMODE
 70
     2
  9
$LTSCALE
 40
1.0
  9
$OSMODE
 70
    37
  9
$ATTMODE
 70
     1
  9
$TEXTSIZE
 40
2.5
  9
$TRACEWID
 40
1.0
  9
$TEXTSTYLE
  7
STANDARD
  9
$CLAYER
  8
0
  9
$CELTYPE
  6
BYLAYER
  9
$CECOLOR
 62
    41
  9
$DIMSCALE
 40
1.0
  9
$DIMASZ
 40
2.5
  9
$DIMEXO
 40
0.625
  9
$DIMDLI
 40
3.75
  9
$DIMRND
 40
0.0
  9
$DIMDLE
 40
0.0
  9
$DIMEXE
 40
1.25
  9
$DIMTP
 40
0.0
  9
$DIMTM
 40
0.0
  9
$DIMTXT
 40
2.5
  9
$DIMCEN
 40
2.5
  9
$DIMTSZ
 40
0.0
  9
$DIMTOL
 70
     0
  9
$DIMLIM
 70
     0
  9
$DIMTIH
 70
     0
  9
$DIMTOH
 70
     0
  9
$DIMSE1
 70
     0
  9
$DIMSE2
 70
     0
  9
$DIMTAD
 70
     1
  9
$DIMZIN
 70
     8
  9
$DIMBLK
  1

  9
$DIMASO
 70
     1
  9
$DIMSHO
 70
     1
  9
$DIMPOST
  1

  9
$DIMAPOST
  1

  9
$DIMALT
 70
     0
  9
$DIMALTD
 70
     3
  9
$DIMALTF
 40
0.03937007874016
  9
$DIMLFAC
 40
1.0
  9
$DIMTOFL
 70
     1
  9
$DIMTVP
 40
0.0
  9
$DIMTIX
 70
     0
  9
$DIMSOXD
 70
     0
  9
$DIMSAH
 70
     0
  9
$DIMBLK1
  1

  9
$DIMBLK2
  1

  9
$DIMSTYLE
  2
ISO-25
  9
$DIMCLRD
 70
     0
  9
$DIMCLRE
 70
     0
  9
$DIMCLRT
 70
     0
  9
$DIMTFAC
 40
1.0
  9
$DIMGAP
 40
0.625
  9
$LUNITS
 70
     2
  9
$LUPREC
 70
     4
  9
$SKETCHINC
 40
1.0
  9
$FILLETRAD
 40
0.0
  9
$AUNITS
 70
     0
  9
$AUPREC
 70
     0
  9
$MENU
  1
.
  9
$ELEVATION
 40
0.0
  9
$PELEVATION
 40
0.0
  9
$THICKNESS
 40
0.0
  9
$LIMCHECK
 70
     0
  9
$BLIPMODE
 70
     0
  9
$CHAMFERA
 40
0.0
  9
$CHAMFERB
 40
0.0
  9
$SKPOLY
 70
     0
  9
$TDCREATE
 40
2458815.5936574079096317
  9
$TDUPDATE
 40
2458869.9234606479294598
  9
$TDINDWG
 40
0.0755439815
  9
$TDUSRTIMER
 40
0.0755439815
  9
$USRTIMER
 70
     1
  9
$ANGBASE
 50
0.0
  9
$ANGDIR
 70
     0
  9
$PDMODE
 70
     0
  9
$PDSIZE
 40
0.0
  9
$PLINEWID
 40
0.0
  9
$COORDS
 70
     1
  9
$SPLFRAME
 70
     0
  9
$SPLINETYPE
 70
     6
  9
$SPLINESEGS
 70
     8
  9
$ATTDIA
 70
     1
  9
$ATTREQ
 70
     1
  9
$HANDLING
 70
     1
  9
$HANDSEED
  5
CFA
  9
$SURFTAB1
 70
     6
  9
$SURFTAB2
 70
     6
  9
$SURFTYPE
 70
     6
  9
$SURFU
 70
     6
  9
$SURFV
 70
     6
  9
$UCSNAME
  2

  9
$UCSORG
 10
0.0
 20
0.0
 30
0.0
  9
$UCSXDIR
 10
1.0
 20
0.0
 30
0.0
  9
$UCSYDIR
 10
0.0
 20
1.0
 30
0.0
  9
$PUCSNAME
  2

  9
$PUCSORG
 10
0.0
 20
0.0
 30
0.0
  9
$PUCSXDIR
 10
1.0
 20
0.0
 30
0.0
  9
$PUCSYDIR
 10
0.0
 20
1.0
 30
0.0
  9
$USERI1
 70
     0
  9
$USERI2
 70
     0
  9
$USERI3
 70
     0
  9
$USERI4
 70
     0
  9
$USERI5
 70
     0
  9
$USERR1
 40
0.0
  9
$USERR2
 40
0.0
  9
$USERR3
 40
0.0
  9
$USERR4
 40
0.0
  9
$USERR5
 40
0.0
  9
$WORLDVIEW
 70
     1
  9
$SHADEDGE
 70
     3
  9
$SHADEDIF
 70
    70
  9
$TILEMODE
 70
     1
  9
$MAXACTVP
 70
    64
  9
$PLIMCHECK
 70
     0
  9
$PEXTMIN
 10
0.0
 20
0.0
 30
0.0
  9
$PEXTMAX
 10
0.0
 20
0.0
 30
0.0
  9
$PLIMMIN
 10
0.0
 20
0.0
  9
$PLIMMAX
 10
12.0
 20
9.0
  9
$UNITMODE
 70
     0
  9
$VISRETAIN
 70
     1
  9
$PLINEGEN
 70
     0
  9
$PSLTSCALE
 70
     1
  0
ENDSEC
  0
SECTION
  2
TABLES
  0
TABLE
  2
VPORT
 70
     1
  0
VPORT
  2
*ACTIVE
 70
     0
 10
0.0
 20
0.0
 11
1.0
 21
1.0
 12
70.2725373443719121
 22
16.2264746283970602
 13
0.0
 23
0.0
 14
10.0
 24
10.0
 15
10.0
 25
10.0
 16
0.0
 26
0.0
 36
1.0
 17
0.0
 27
0.0
 37
0.0
 40
80.5184425684095544
 41
2.2927120669056151
 42
50.0
 43
0.0
 44
0.0
 50
0.0
 51
0.0
 71
     0
 72
  1000
 73
     1
 74
     3
 75
     0
 76
     1
 77
     0
 78
     0
  0
ENDTAB
  0
TABLE
  2
LTYPE
 70
     2
  0
LTYPE
  2
CONTINUOUS
 70
     0
  3
Solid line
 72
    65
 73
     0
 40
0.0
  0
ENDTAB
  0
TABLE
  2
LAYER
 70
     2
  0
LAYER
  2
0
 70
     0
 62
     7
  6
CONTINUOUS
  0
LAYER
  2
LAYER1
 70
     0
 62
    -7
  6
CONTINUOUS
  0
ENDTAB
  0
TABLE
  2
STYLE
 70
     2
  0
STYLE
  2
STANDARD
 70
     0
 40
0.0
 41
1.0
 50
0.0
 71
     0
 42
2.5
  3
txt
  4

  0
ENDTAB
  0
TABLE
  2
VIEW
 70
     0
  0
ENDTAB
  0
TABLE
  2
UCS
 70
     0
  0
ENDTAB
  0
TABLE
  2
APPID
 70
    12
  0
APPID
  2
ACAD
 70
     0
  0
APPID
  2
ACADANNOTATIVE
 70
     0
  0
APPID
  2
ACAD_PSEXT
 70
     0
  0
APPID
  2
ACADANNOPO
 70
     0
  0
APPID
  2
ACAD_DSTYLE_DIMJAG
 70
     0
  0
APPID
  2
ACAD_DSTYLE_DIMTALN
 70
     0
  0
APPID
  2
ACAD_MLEADERVER
 70
     0
  0
APPID
  2
ACAD_NAV_VCDISPLAY
 70
     0
  0
APPID
  2
ACDBBLOCKREPETAG
 70
     0
  0
APPID
  2
ACAD_EXEMPT_FROM_CAD_STANDARDS
 70
     0
  0
APPID
  2
ACAECLAYERSTANDARD
 70
     0
  0
APPID
  2
ACCMTRANSPARENCY
 70
     0
  0
ENDTAB
  0
TABLE
  2
DIMSTYLE
 70
     4
  0
DIMSTYLE
  2
STANDARD
 70
     0
  3

  4

  5

  6

  7

 40
1.0
 41
0.18
 42
0.0625
 43
0.38
 44
0.18
 45
0.0
 46
0.0
 47
0.0
 48
0.0
140
0.18
141
0.09
142
0.0
143
25.3999999999999986
144
1.0
145
0.0
146
1.0
147
0.09
 71
     0
 72
     0
 73
     1
 74
     1
 75
     0
 76
     0
 77
     0
 78
     0
170
     0
171
     2
172
     0
173
     0
174
     0
175
     0
176
     0
177
     0
178
     0
  0
DIMSTYLE
  2
ISO-25
 70
     0
  3

  4

  5

  6

  7

 40
1.0
 41
2.5
 42
0.625
 43
3.75
 44
1.25
 45
0.0
 46
0.0
 47
0.0
 48
0.0
140
2.5
141
2.5
142
0.0
143
0.03937007874016
144
1.0
145
0.0
146
1.0
147
0.625
 71
     0
 72
     0
 73
     0
 74
     0
 75
     0
 76
     0
 77
     1
 78
     8
170
     0
171
     3
172
     1
173
     0
174
     0
175
     0
176
     0
177
     0
178
     0
  0
ENDTAB
  0
ENDSEC
  0
SECTION
  2
BLOCKS
  0
BLOCK
  8
0
  2
$MODEL_SPACE
 70
     0
 10
0.0
 20
0.0
 30
0.0
  3
$MODEL_SPACE
  1

  0
ENDBLK
  5
8CE
  8
0
  0
BLOCK
 67
     1
  8
0
  2
$PAPER_SPACE
 70
     0
 10
0.0
 20
0.0
 30
0.0
  3
$PAPER_SPACE
  1

  0
ENDBLK
  5
8CA
 67
     1
  8
0
  0
ENDSEC
  0
SECTION
  2
ENTITIES
  0
LINE
  5
6ED
  8
LAYER1
 62
     2
 10
64.4385359543071843
 20
19.5076739444043206
 30
0.0
 11
63.0884875368702609
 21
20.9356501723843706
 31
0.0
  0
ARC
  5
6EE
  8
LAYER1
 62
     2
 10
66.4917264687668705
 20
24.2621459976572389
 30
0.0
 40
4.7589504833665446
 50
182.7954616215727981
 51
224.3466509915365066
  0
LINE
  5
6F0
  8
LAYER1
 62
     2
 10
61.7384391194331101
 20
24.4430125697804783
 30
0.0
 11
61.7384391194331101
 21
24.4430125697804783
 31
0.0
  0
ARC
  5
6F1
  8
LAYER1
 62
     2
 10
61.9734052320821576
 20
24.3488239431665683
 30
0.0
 40
0.2531414060892253
 50
5.4396889460893441
 51
158.1561019528753036
  0
LINE
  5
6F2
  8
LAYER1
 62
     2
 10
62.2254066251301765
 20
24.3728212217351512
 30
0.0
 11
62.2874581269507104
 21
23.7252344090797607
 31
0.0
  0
ARC
  5
6F3
  8
LAYER1
 62
     2
 10
64.8427878571748693
 20
24.55539158926425
 30
0.0
 40
2.686795670306815
 50
197.9975707235466018
 51
237.3696686133447997
  0
LINE
  5
6F4
  8
LAYER1
 62
     2
 10
63.3940227915392072
 20
22.29266077041434
 30
0.0
 11
64.4385359543071843
 21
21.5076739444043312
 31
0.0
  0
LINE
  5
6F6
  8
LAYER1
 62
     2
 10
64.4385359543071843
 20
19.5076739444043206
 30
0.0
 11
64.4385359543071843
 21
19.5076739444043206
 31
0.0
  0
ARC
  5
6F9
  8
LAYER1
 62
     2
 10
65.3880091908815473
 20
11.9865501712435805
 30
0.0
 40
1.0231785795506521
 50
338.2638903714420735
 51
69.9712596542717336
  0
ARC
  5
6FC
  8
LAYER1
 62
     2
 10
62.1319558786482276
 20
17.3520931176715685
 30
0.0
 40
2.3881852861841981
 50
15.0212839001223806
 51
99.4842498457968816
  0
ARC
  5
6FE
  8
LAYER1
 62
     2
 10
62.0539146246759117
 20
17.2061008287618407
 30
0.0
 40
1.9275252888218151
 50
22.2013874577976011
 51
99.4199036801588534
  0
LINE
  5
6FF
  8
LAYER1
 62
     2
 10
63.8385359543072965
 20
17.93444171658318
 30
0.0
 11
63.8385359543072965
 21
14.4344417165812704
 31
0.0
  0
ARC
  5
700
  8
LAYER1
 62
     2
 10
66.2064072034183368
 20
14.64514205263586
 30
0.0
 40
2.377227141856725
 50
185.0849588832869017
 51
250.0434249364406867
  0
ARC
  5
701
  8
LAYER1
 62
     2
 10
65.2713989752620733
 20
11.8828960187820201
 30
0.0
 40
0.5420572143239423
 50
329.497467987549328
 51
76.8149039205412549
  0
LINE
  5
702
  8
LAYER1
 62
     2
 10
65.7384391194333091
 20
11.6077605479077999
 30
0.0
 11
66.3384391194332181
 21
11.6076341428618903
 31
0.0
  0
LINE
  5
703
  8
LAYER1
 62
     2
 10
66.3384391194332181
 20
11.6076341428618903
 30
0.0
 11
66.3384391194332181
 21
11.6076341428618903
 31
0.0
  0
LINE
  5
704
  8
LAYER1
 62
     2
 10
75.0384391194371005
 20
13.7076341428630801
 30
0.0
 11
76.3884875368740524
 21
12.2796579148830105
 31
0.0
  0
ARC
  5
705
  8
LAYER1
 62
     2
 10
72.9852486049774143
 20
8.95316208961016
 30
0.0
 40
4.7589504833665321
 50
2.7954616215729882
 51
44.3466509915364711
  0
LINE
  5
706
  8
LAYER1
 62
     2
 10
77.7385359543092562
 20
20.6076739444037393
 30
0.0
 11
77.7385359543111889
 21
8.7722955174869526
 31
0.0
  0
LINE
  5
707
  8
LAYER1
 62
     2
 10
77.7385359543111889
 20
8.7722955174869526
 30
0.0
 11
77.7385359543111889
 21
8.7722955174869526
 31
0.0
  0
ARC
  5
708
  8
LAYER1
 62
     2
 10
77.5035698416621415
 20
8.8664841441008342
 30
0.0
 40
0.2531414060892214
 50
185.4396889460917066
 51
338.1561019528771226
  0
LINE
  5
709
  8
LAYER1
 62
     2
 10
77.2515684486141367
 20
8.8424868655322424
 30
0.0
 11
77.1895169467936171
 21
9.4900736781876418
 31
0.0
  0
ARC
  5
70A
  8
LAYER1
 62
     2
 10
74.6341872165694156
 20
8.6599164980031844
 30
0.0
 40
2.6867956703067839
 50
17.9975707235459907
 51
57.3696686133448495
  0
LINE
  5
70B
  8
LAYER1
 62
     2
 10
76.082952282205099
 20
10.9226473168530607
 30
0.0
 11
75.0384391194371005
 21
11.7076341428630801
 31
0.0
  0
LINE
  5
70D
  8
LAYER1
 62
     2
 10
75.0384391194371005
 20
13.7076341428630801
 30
0.0
 11
75.0384391194371005
 21
13.7076341428630801
 31
0.0
  0
ARC
  5
70E
  8
LAYER1
 62
     2
 10
74.0889658828627375
 20
21.2287579160238202
 30
0.0
 40
1.0231785795506481
 50
158.2638903714423009
 51
249.9712596542717051
  0
ARC
  5
711
  8
LAYER1
 62
     2
 10
77.3450191950960715
 20
15.8632149695958393
 30
0.0
 40
2.388185286184199
 50
195.0212839001223983
 51
279.48424984579691
  0
ARC
  5
713
  8
LAYER1
 62
     2
 10
77.4230604490684016
 20
16.0092072585055405
 30
0.0
 40
1.9275252888218031
 50
202.2013874577966988
 51
279.4199036801584271
  0
LINE
  5
714
  8
LAYER1
 62
     2
 10
75.6384391194370096
 20
15.2808663706842207
 30
0.0
 11
75.6384391194370096
 21
18.7808663706861196
 31
0.0
  0
ARC
  5
715
  8
LAYER1
 62
     2
 10
73.2705678703259196
 20
18.57016603463153
 30
0.0
 40
2.3772271418567401
 50
5.084958883287034
 51
70.0434249364402888
  0
ARC
  5
716
  8
LAYER1
 62
     2
 10
74.2055760984821546
 20
21.3324120684854002
 30
0.0
 40
0.5420572143239598
 50
149.4974679875521133
 51
256.8149039205433155
  0
LINE
  5
717
  8
LAYER1
 62
     2
 10
73.7385359543109331
 20
21.6075475393596008
 30
0.0
 11
73.1385359543110525
 21
21.6076739444055086
 31
0.0
  0
LINE
  5
718
  8
LAYER1
 62
     2
 10
73.1385359543110525
 20
21.6076739444055086
 30
0.0
 11
73.1385359543110525
 21
21.6076739444055086
 31
0.0
  0
LINE
  5
719
  8
LAYER1
 62
     4
 10
80.7385359543083467
 20
6.1076739444055317
 30
0.0
 11
86.7382371555654572
 21
2.6059091607771081
 31
0.0
  0
LINE
  5
71A
  8
LAYER1
 62
     4
 10
86.7382371555654572
 20
2.6059091607771081
 30
0.0
 11
86.7383925570055538
 21
16.6076718391991101
 31
0.0
  0
LINE
  5
71E
  8
LAYER1
 62
     4
 10
52.7382685905741511
 20
30.6093989264902717
 30
0.0
 11
58.7386756646046422
 21
27.1076341428618797
 31
0.0
  0
LINE
  5
721
  8
LAYER1
 62
     4
 10
52.7382737689952492
 20
16.6076362480687507
 30
0.0
 11
52.7382685905741511
 21
30.6093989264902717
 31
0.0
  0
LINE
  5
722
  8
LAYER1
 62
     4
 10
52.7387327358159297
 20
27.3093989236793497
 30
0.0
 11
52.738737914235962
 21
27.307636248068679
 31
0.0
  0
LINE
  5
723
  8
LAYER1
 62
     2
 10
57.4884391194350926
 20
8.6076341428618566
 30
0.0
 11
53.9667594277129297
 21
9.2286012899262584
 31
0.0
  0
ARC
  5
724
  8
LAYER1
 62
     2
 10
54.5384391194443126
 20
9.8576341428534349
 30
0.0
 40
0.8499999999998831
 50
36.0318790733277368
 51
227.7347081039841896
  0
LINE
  5
725
  8
LAYER1
 62
     2
 10
55.2258254736801319
 20
10.35763414286364
 30
0.0
 11
58.4384391194360404
 21
10.3576341428620697
 31
0.0
  0
ARC
  5
726
  8
LAYER1
 62
     2
 10
58.4384391194361825
 20
10.6576341428618804
 30
0.0
 40
0.2999999999998195
 50
269.999999999967315
 51
0.0000000000341973
  0
LINE
  5
727
  8
LAYER1
 62
     2
 10
58.7384391194360092
 20
10.6576341428620598
 30
0.0
 11
58.7384391194353768
 21
12.6577099861986895
 31
0.0
  0
ARC
  5
728
  8
LAYER1
 62
     2
 10
58.7420443920060009
 20
13.2576991539456603
 30
0.0
 40
0.5999999995033268
 50
269.6557197574736051
 51
89.6557197574735341
  0
LINE
  5
729
  8
LAYER1
 62
     2
 10
58.7456496645765966
 20
13.8576883216925992
 30
0.0
 11
58.7384391194360092
 21
13.8576883216925992
 31
0.0
  0
LINE
  5
72A
  8
LAYER1
 62
     2
 10
58.7384391194360092
 20
13.8576883216925992
 30
0.0
 11
58.7384391194360092
 21
27.1076341428618584
 31
0.0
  0
ARC
  5
72B
  8
LAYER1
 62
     2
 10
59.2384391194360092
 20
27.1076341428618797
 30
0.0
 40
0.5
 50
90.0000000001058567
 51
180.0000000000007958
  0
LINE
  5
72C
  8
LAYER1
 62
     2
 10
59.2384391194350997
 20
27.6076341428618584
 30
0.0
 11
59.6216439344241707
 21
27.6076341428636489
 31
0.0
  0
ARC
  5
72D
  8
LAYER1
 62
     2
 10
59.6216439344255775
 20
27.3076341428654992
 30
0.0
 40
0.2999999999981551
 50
28.9999999998390017
 51
90.0000000002658425
  0
LINE
  5
72E
  8
LAYER1
 62
     2
 10
59.8840298465662002
 20
27.4530770289377699
 30
0.0
 11
61.700825031576862
 21
24.1754917536307197
 31
0.0
  0
ARC
  5
72F
  8
LAYER1
 62
     2
 10
61.4384391194349888
 20
24.0300488675568502
 30
0.0
 40
0.3000000000000278
 50
0.0000000000056996
 51
28.9999999999907807
  0
ARC
  5
731
  8
LAYER1
 62
     2
 10
62.7384391194369968
 20
12.6076341428636596
 30
0.0
 40
1.000000000001918
 50
180.0000000000007958
 51
269.9999999998909175
  0
LINE
  5
734
  8
LAYER1
 62
     2
 10
69.4794232325562859
 20
13.6255810855393502
 30
0.0
 11
72.1789774388801391
 21
19.4147937632930088
 31
0.0
  0
ARC
  5
735
  8
LAYER1
 62
     2
 10
73.5384391194359779
 20
18.7808663706817214
 30
0.0
 40
1.5000000000008891
 50
0.0000000000170987
 51
155.0000000000050022
  0
LINE
  5
736
  8
LAYER1
 62
     2
 10
75.038439119436859
 20
18.7808663706821584
 30
0.0
 11
75.038439119436859
 21
11.7076341428630393
 31
0.0
  0
ARC
  5
737
  8
LAYER1
 62
     2
 10
74.733800876792813
 20
11.7076341428630499
 30
0.0
 40
0.3046382426440743
 50
280.0109368637847069
 51
359.9999999999984084
  0
LINE
  5
738
  8
LAYER1
 62
     2
 10
74.7867580187249246
 20
11.4076341428636301
 30
0.0
 11
73.4384391194360404
 21
11.4076341428618502
 31
0.0
  0
ARC
  5
739
  8
LAYER1
 62
     2
 10
73.4384391194371062
 20
10.60763414286086
 30
0.0
 40
0.8000000000009848
 50
90.0000000000773639
 51
179.9999999999290878
  0
LINE
  5
73A
  8
LAYER1
 62
     2
 10
72.6384391194361285
 20
10.6076341428618495
 30
0.0
 11
72.6384391194351906
 21
9.5576341428616445
 31
0.0
  0
ARC
  5
73B
  8
LAYER1
 62
     2
 10
73.1384391194341106
 20
9.5576341428612128
 30
0.0
 40
0.49999999999892
 50
179.9999999999502904
 51
223.6028189727578877
  0
ARC
  5
73D
  8
LAYER1
 62
     2
 10
72.0884391194345255
 20
8.5576341428650551
 30
0.0
 40
0.9500000000006895
 50
270.0000000000292744
 51
43.6028154544954774
  0
LINE
  5
73E
  8
LAYER1
 62
     2
 10
72.0884391194350229
 20
7.6076341428643692
 30
0.0
 11
71.5384391194350542
 21
7.6076341428618459
 31
0.0
  0
ARC
  5
73F
  8
LAYER1
 62
     2
 10
71.5384391194336615
 20
7.907634142860501
 30
0.0
 40
0.2999999999986471
 50
179.999999999527688
 51
270.0000000002657998
  0
LINE
  5
740
  8
LAYER1
 62
     2
 10
71.2384391194350144
 20
7.9076341428629719
 30
0.0
 11
71.2384391194351281
 21
10.4823691697822596
 31
0.0
  0
ARC
  5
741
  8
LAYER1
 62
     2
 10
70.7384391194355402
 20
10.4823691697822898
 30
0.0
 40
0.4999999999995596
 50
359.9999999999984084
 51
119.9999999999671019
  0
LINE
  5
742
  8
LAYER1
 62
     2
 10
70.4884391194360234
 20
10.9153818716742492
 30
0.0
 11
69.4884391194350144
 21
10.3380316024851897
 31
0.0
  0
ARC
  5
743
  8
LAYER1
 62
     2
 10
69.6384391194346222
 20
10.0782239813500407
 30
0.0
 40
0.2999999999996294
 50
119.9999999999511999
 51
180.0000000000227089
  0
LINE
  5
744
  8
LAYER1
 62
     2
 10
69.3384391194350087
 20
10.0782239813499199
 30
0.0
 11
69.3384391194350087
 21
8.9076341428628592
 31
0.0
  0
ARC
  5
745
  8
LAYER1
 62
     2
 10
69.0384391194349973
 20
8.9076341428628538
 30
0.0
 40
0.2999999999999971
 50
270.0000000000110845
 51
0.0000000000016284
  0
LINE
  5
746
  8
LAYER1
 62
     2
 10
69.0384391194350542
 20
8.6076341428628638
 30
0.0
 11
57.4884391194350926
 21
8.6076341428618566
 31
0.0
  0
LINE
  5
747
  8
LAYER1
 62
     2
 10
57.4884391194350926
 20
8.6076341428618566
 30
0.0
 11
57.4884391194350926
 21
8.6076341428618566
 31
0.0
  0
LINE
  5
748
  8
LAYER1
 62
     2
 10
81.9885359543092278
 20
24.6076739444055406
 30
0.0
 11
85.5102156460314546
 21
23.9867067973411316
 31
0.0
  0
ARC
  5
749
  8
LAYER1
 62
     2
 10
84.9385359543000078
 20
23.3576739444139605
 30
0.0
 40
0.8499999999998713
 50
216.0318790733277012
 51
47.7347081039853904
  0
LINE
  5
74A
  8
LAYER1
 62
     2
 10
84.2511496000642808
 20
22.8576739444037393
 30
0.0
 11
81.0385359543083013
 21
22.8576739444053203
 31
0.0
  0
ARC
  5
74B
  8
LAYER1
 62
     2
 10
81.0385359543081449
 20
22.5576739444055114
 30
0.0
 40
0.2999999999998124
 50
89.9999999999702851
 51
180.0000000000349019
  0
LINE
  5
74C
  8
LAYER1
 62
     2
 10
80.7385359543083467
 20
22.5576739444053196
 30
0.0
 11
80.7385359543089862
 21
20.5575981010686917
 31
0.0
  0
ARC
  5
74D
  8
LAYER1
 62
     2
 10
80.7349306817383763
 20
19.9576089333217404
 30
0.0
 40
0.5999999995033268
 50
89.6557197574747846
 51
269.6557197574736051
  0
LINE
  5
74E
  8
LAYER1
 62
     2
 10
80.7313254091677521
 20
19.3576197655747784
 30
0.0
 11
80.7385359543083467
 21
19.3576197655747784
 31
0.0
  0
LINE
  5
74F
  8
LAYER1
 62
     2
 10
80.7385359543083467
 20
19.3576197655747784
 30
0.0
 11
80.7385359543083467
 21
6.1076739444055317
 31
0.0
  0
ARC
  5
750
  8
LAYER1
 62
     2
 10
80.2385359543084036
 20
6.1076739444055193
 30
0.0
 40
0.4999999999999858
 50
270.000000000104194
 51
0.0000000000008142
  0
LINE
  5
751
  8
LAYER1
 62
     2
 10
80.238535954309242
 20
5.6076739444055317
 30
0.0
 11
79.8553311393201852
 21
5.607673944403742
 31
0.0
  0
ARC
  5
752
  8
LAYER1
 62
     2
 10
79.8553311393187641
 20
5.9076739444018909
 30
0.0
 40
0.2999999999981497
 50
208.999999999841009
 51
270.0000000002686988
  0
LINE
  5
753
  8
LAYER1
 62
     2
 10
79.5929452271781912
 20
5.7622310583296237
 30
0.0
 11
77.7761500421674725
 21
9.0398163336366792
 31
0.0
  0
ARC
  5
754
  8
LAYER1
 62
     2
 10
78.0385359543093102
 20
9.1852592197105132
 30
0.0
 40
0.2999999999999964
 50
180.0000000000023022
 51
208.9999999999859028
  0
ARC
  5
756
  8
LAYER1
 62
     2
 10
76.738535954307352
 20
20.60767394440375
 30
0.0
 40
1.000000000001918
 50
359.9999999999992042
 51
89.999999999889269
  0
LINE
  5
757
  8
LAYER1
 62
     2
 10
76.7385359543093131
 20
21.6076739444056614
 30
0.0
 11
73.1385359543782556
 21
21.6075475393603291
 31
0.0
  0
ARC
  5
758
  8
LAYER1
 62
     2
 10
73.1386572246307907
 20
18.1537858005607085
 30
0.0
 40
3.4537617409286701
 50
90.0020117987783834
 51
155.4327183648449875
  0
LINE
  5
759
  8
LAYER1
 62
     2
 10
69.9975518411881126
 20
19.5897270017280292
 30
0.0
 11
67.2979976348642026
 21
13.8005143239743706
 31
0.0
  0
ARC
  5
75A
  8
LAYER1
 62
     2
 10
65.9385359543083922
 20
14.4344417165856704
 30
0.0
 40
1.5000000000008711
 50
180.0000000000171099
 51
262.3340121796576909
  0
ARC
  5
75C
  8
LAYER1
 62
     2
 10
64.7431741969515713
 20
21.5076739444043703
 30
0.0
 40
0.3046382426440459
 50
100.0109368637880038
 51
180.0000000000023022
  0
LINE
  5
75D
  8
LAYER1
 62
     2
 10
64.6902170550194455
 20
21.8076739444037599
 30
0.0
 11
65.6126837343421414
 21
21.8076739444049714
 31
0.0
  0
ARC
  5
75E
  8
LAYER1
 62
     2
 10
66.0385359543072923
 20
22.6076739444065318
 30
0.0
 40
0.800000000000999
 50
270.0000000000752038
 51
359.9999999999275246
  0
LINE
  5
75F
  8
LAYER1
 62
     2
 10
66.83853595430827
 20
22.6076739444055299
 30
0.0
 11
66.8385359543091653
 21
23.6576739444057615
 31
0.0
  0
ARC
  5
760
  8
LAYER1
 62
     2
 10
66.3385359543102311
 20
23.6576739444062092
 30
0.0
 40
0.4999999999989059
 50
359.999999999946283
 51
43.6028189727542497
  0
ARC
  5
762
  8
LAYER1
 62
     2
 10
67.3885359543098303
 20
24.6576739444023296
 30
0.0
 40
0.9500000000007055
 50
90.0000000000289049
 51
223.6027956066525064
  0
LINE
  5
763
  8
LAYER1
 62
     2
 10
67.3885359543093614
 20
25.6076739444030217
 30
0.0
 11
67.9385359543093443
 21
25.6076739444055406
 31
0.0
  0
ARC
  5
764
  8
LAYER1
 62
     2
 10
67.9385359543106802
 20
25.3076739444069183
 30
0.0
 40
0.2999999999986347
 50
359.9999999995238227
 51
90.0000000002576712
  0
LINE
  5
765
  8
LAYER1
 62
     2
 10
68.2385359543093131
 20
25.3076739444044208
 30
0.0
 11
68.2385359543092704
 21
22.7329389174851286
 31
0.0
  0
ARC
  5
766
  8
LAYER1
 62
     2
 10
68.7385359543088157
 20
22.7329389174851215
 30
0.0
 40
0.4999999999995596
 50
179.9999999999984084
 51
299.9999999999665761
  0
LINE
  5
767
  8
LAYER1
 62
     2
 10
68.9885359543083609
 20
22.2999262155931497
 30
0.0
 11
69.9885359543093273
 21
22.8772764847822003
 31
0.0
  0
ARC
  5
768
  8
LAYER1
 62
     2
 10
69.8385359543097479
 20
23.1370841059173316
 30
0.0
 40
0.2999999999996263
 50
299.9999999999516263
 51
0.0000000000227982
  0
LINE
  5
769
  8
LAYER1
 62
     2
 10
70.1385359543093614
 20
23.1370841059174701
 30
0.0
 11
70.1385359543093614
 21
24.3076739444045309
 31
0.0
  0
ARC
  5
76A
  8
LAYER1
 62
     2
 10
70.4385359543093585
 20
24.3076739444045309
 30
0.0
 40
0.2999999999999971
 50
90.0000000000052864
 51
179.9999999999992042
  0
LINE
  5
76B
  8
LAYER1
 62
     2
 10
70.4385359543093443
 20
24.6076739444045316
 30
0.0
 11
81.9885359543092278
 21
24.6076739444055406
 31
0.0
  0
LINE
  5
76C
  8
LAYER1
 62
     2
 10
81.9885359543092278
 20
24.6076739444055406
 30
0.0
 11
81.9885359543092278
 21
24.6076739444055406
 31
0.0
  0
LINE
  5
76D
  8
LAYER1
 62
     4
 10
118.7380817501835963
 20
16.6080269943246108
 30
0.0
 11
118.7382371378258057
 21
20.6076718391996714
 31
0.0
  0
LINE
  5
76E
  8
LAYER1
 62
     4
 10
111.238487536871105
 20
20.607671839198229
 30
0.0
 11
94.2384875368701245
 21
20.607671839198229
 31
0.0
  0
LINE
  5
76F
  8
LAYER1
 62
     4
 10
86.7383925609473323
 20
20.6076718391991314
 30
0.0
 11
86.7383925609473323
 21
16.6076718391991101
 31
0.0
  0
LINE
  5
770
  8
LAYER1
 62
     4
 10
86.7383925609473323
 20
16.6076718391991101
 30
0.0
 11
118.7380817501835963
 21
16.6080269943246108
 31
0.0
  0
LINE
  5
772
  8
LAYER1
 62
     4
 10
124.7384927152910024
 20
5.905909163588543
 30
0.0
 11
118.7382371555654004
 21
2.6059091607771081
 31
0.0
  0
LINE
  5
773
  8
LAYER1
 62
     4
 10
118.7382371555654004
 20
2.605909160777101
 30
0.0
 11
118.7380817501835963
 21
16.6080269943246108
 31
0.0
  0
LINE
  5
777
  8
LAYER1
 62
     4
 10
52.7381183675508183
 20
12.6076362480685997
 30
0.0
 11
52.7382737689908723
 21
16.6076480829136983
 31
0.0
  0
LINE
  5
778
  8
LAYER1
 62
     4
 10
52.738273768990851
 20
16.6076480829136983
 30
0.0
 11
20.7382685905768689
 21
16.6076362480682604
 31
0.0
  0
LINE
  5
77A
  8
LAYER1
 62
     4
 10
28.2384875368731798
 20
12.6076362480691504
 30
0.0
 11
45.2384875368741319
 21
12.6076362480691504
 31
0.0
  0
LINE
  5
77C
  8
LAYER1
 62
     4
 10
14.7384875368730892
 20
27.3076362480681887
 30
0.0
 11
20.7382685905741511
 21
30.6093989264902717
 31
0.0
  0
LINE
  5
77D
  8
LAYER1
 62
     4
 10
20.7382685905741511
 20
30.6093989264902717
 30
0.0
 11
20.7382685905776398
 21
12.6076362480676991
 31
0.0
  0
LINE
  5
780
  8
LAYER1
 62
     4
 10
14.7384823584530906
 20
27.3093989236788701
 30
0.0
 11
14.7384875368730892
 21
27.3076362480681887
 31
0.0
  0
LINE
  5
781
  8
LAYER1
 62
     1
 10
134.238487536871105
 20
5.907671839199196
 30
0.0
 11
134.238487536871105
 21
27.3076362480682988
 31
0.0
  0
ARC
  5
782
  8
LAYER1
 62
     1
 10
133.9384875368710084
 20
27.3076362480682704
 30
0.0
 40
0.3000000000000398
 50
0.0000000000056996
 51
90.0000000003419558
  0
LINE
  5
783
  8
LAYER1
 62
     1
 10
133.9384875368691894
 20
27.6076362480683102
 30
0.0
 11
63.0853248148401633
 21
27.6076362480675215
 31
0.0
  0
ARC
  5
784
  8
LAYER1
 62
     1
 10
63.0853248148401917
 20
26.8576362480675392
 30
0.0
 40
0.7499999999999947
 50
90.0000000000020464
 51
222.7870978730591958
  0
LINE
  5
785
  8
LAYER1
 62
     1
 10
62.5349126806297591
 20
26.3481792012874187
 30
0.0
 11
64.1586651886016455
 21
24.5938937536896809
 31
0.0
  0
ARC
  5
786
  8
LAYER1
 62
     1
 10
63.9385003349174781
 20
24.3901109349776704
 30
0.0
 40
0.299999999999968
 50
0.0000000000276835
 51
42.7870978730542006
  0
LINE
  5
787
  8
LAYER1
 62
     1
 10
64.2385003349174326
 20
24.3901109349778089
 30
0.0
 11
64.2385003349183137
 21
22.9418556217841392
 31
0.0
  0
LINE
  5
788
  8
LAYER1
 62
     1
 10
64.2385003349183137
 20
22.9418556217841392
 30
0.0
 11
64.3947747291158521
 21
22.0555794911032201
 31
0.0
  0
ARC
  5
789
  8
LAYER1
 62
     1
 10
64.6902170550191187
 20
22.1076739444034196
 30
0.0
 40
0.299999999999659
 50
190.0000000000347882
 51
270.0000000000517275
  0
ARC
  5
78B
  8
LAYER1
 62
     1
 10
65.6126837343417435
 20
22.107673944402169
 30
0.0
 40
0.2999999999984233
 50
270.0
 51
300.0000000001372769
  0
LINE
  5
78C
  8
LAYER1
 62
     1
 10
65.7626837343415787
 20
21.8478663232685513
 30
0.0
 11
66.5885167592615517
 21
22.3246612425131907
 31
0.0
  0
ARC
  5
78D
  8
LAYER1
 62
     1
 10
66.4385167592611907
 20
22.584468863648361
 30
0.0
 40
0.3000000000000235
 50
300.0000000000703722
 51
359.9999999999976126
  0
LINE
  5
78E
  8
LAYER1
 62
     1
 10
66.7385167592612447
 20
22.5844688636483504
 30
0.0
 11
66.7385167592612447
 21
23.7076718391976584
 31
0.0
  0
ARC
  5
78F
  8
LAYER1
 62
     1
 10
66.4385167592612333
 20
23.7076718391976691
 30
0.0
 40
0.3000000000000114
 50
359.9999999999976126
 51
89.9999999998180158
  0
LINE
  5
790
  8
LAYER1
 62
     1
 10
66.4385167592621713
 20
24.0076718391976698
 30
0.0
 11
66.0384875368695532
 21
24.0076718391989203
 31
0.0
  0
ARC
  5
791
  8
LAYER1
 62
     1
 10
66.0384875368704627
 20
24.3076718391990596
 30
0.0
 40
0.3000000000001393
 50
180.0000000000300133
 51
269.9999999998236717
  0
LINE
  5
792
  8
LAYER1
 62
     1
 10
65.738487536870295
 20
24.3076718391988997
 30
0.0
 11
65.738487536870295
 21
25.4076718391973593
 31
0.0
  0
ARC
  5
793
  8
LAYER1
 62
     1
 10
66.0384875368703774
 20
25.4076718391973806
 30
0.0
 40
0.3000000000000682
 50
90.000000000013415
 51
180.0000000000015916
  0
LINE
  5
794
  8
LAYER1
 62
     1
 10
66.0384875368703206
 20
25.707671839197431
 30
0.0
 11
70.4388278659622813
 21
25.707671839197431
 31
0.0
  0
ARC
  5
795
  8
LAYER1
 62
     1
 10
70.4388278659622529
 20
25.4076718391974694
 30
0.0
 40
0.2999999999999669
 50
0.000000000139232
 51
89.9999999999971436
  0
LINE
  5
796
  8
LAYER1
 62
     1
 10
70.7388278659622358
 20
25.4076718391982013
 30
0.0
 11
70.7388278659633158
 21
25.0076718391976698
 31
0.0
  0
ARC
  5
797
  8
LAYER1
 62
     1
 10
71.0388278659639809
 20
25.0076718391984691
 30
0.0
 40
0.3000000000006793
 50
180.0000000001506066
 51
269.9999999998697149
  0
LINE
  5
798
  8
LAYER1
 62
     1
 10
71.0388278659632704
 20
24.7076718391977792
 30
0.0
 11
86.0384875368703064
 21
24.7076718391992216
 31
0.0
  0
ARC
  5
799
  8
LAYER1
 62
     1
 10
86.038487536870349
 20
24.4076718391991889
 30
0.0
 40
0.3000000000000327
 50
0.0000000000040711
 51
90.0000000000081286
  0
LINE
  5
79A
  8
LAYER1
 62
     1
 10
86.3384875368703746
 20
24.4076718391992102
 30
0.0
 11
86.3384875368703746
 21
22.8076718391989388
 31
0.0
  0
ARC
  5
79B
  8
LAYER1
 62
     1
 10
86.038487536870349
 20
22.8076718391989495
 30
0.0
 40
0.3000000000000256
 50
270.0
 51
359.9999999999976126
  0
LINE
  5
79C
  8
LAYER1
 62
     1
 10
86.038487536870349
 20
22.507671839198931
 30
0.0
 11
82.330794482170262
 21
22.5076718391976698
 31
0.0
  0
ARC
  5
79D
  8
LAYER1
 62
     1
 10
82.3307944821704325
 20
22.2076718391974488
 30
0.0
 40
0.300000000000221
 50
90.0000000000244142
 51
119.9999999999194955
  0
LINE
  5
79E
  8
LAYER1
 62
     1
 10
82.1807944821706542
 20
22.4674794603332018
 30
0.0
 11
81.0894359543094083
 21
21.8373833204920693
 31
0.0
  0
ARC
  5
79F
  8
LAYER1
 62
     1
 10
81.2394359543089735
 20
21.5775756993567001
 30
0.0
 40
0.2999999999998213
 50
119.9999999999239009
 51
209.8971488566444066
  0
LINE
  5
7A0
  8
LAYER1
 62
     1
 10
80.9793594882504379
 20
21.4280423191287213
 30
0.0
 11
81.364526935944383
 21
20.7581384589716009
 31
0.0
  0
ARC
  5
7A1
  8
LAYER1
 62
     1
 10
81.6246034020038138
 20
20.9076718392000593
 30
0.0
 40
0.3000000000008745
 50
209.8971488566348
 51
269.9999999999022862
  0
LINE
  5
7A2
  8
LAYER1
 62
     1
 10
81.6246034020033164
 20
20.6076718391991704
 30
0.0
 11
94.2384875368701245
 21
20.607671839198229
 31
0.0
  0
ARC
  5
7A3
  8
LAYER1
 62
     1
 10
94.2384875368702097
 20
21.607671839198229
 30
0.0
 40
1.0
 50
269.9999999999951115
 51
89.9999999999682245
  0
LINE
  5
7A4
  8
LAYER1
 62
     1
 10
94.238487536870764
 20
22.607671839198229
 30
0.0
 11
91.4884875368693571
 21
22.6076718391991101
 31
0.0
  0
ARC
  5
7A5
  8
LAYER1
 62
     1
 10
91.488487536869755
 20
23.8576718391991314
 30
0.0
 40
1.2500000000000311
 50
90.0000000000183036
 51
269.9999999999816964
  0
LINE
  5
7A6
  8
LAYER1
 62
     1
 10
91.4884875368693571
 20
25.1076718391991704
 30
0.0
 11
102.238487536871105
 21
25.1076718391991314
 31
0.0
  0
LINE
  5
7A7
  8
LAYER1
 62
     1
 10
102.238487536871105
 20
25.1076718391991314
 30
0.0
 11
102.7384875368700961
 21
25.6076718391991385
 31
0.0
  0
LINE
  5
7A8
  8
LAYER1
 62
     1
 10
102.7384875368700961
 20
25.6076718391991385
 30
0.0
 11
103.2384875368700961
 21
25.1076718391991314
 31
0.0
  0
LINE
  5
7A9
  8
LAYER1
 62
     1
 10
103.2384875368700961
 20
25.1076718391991314
 30
0.0
 11
113.9884875368710055
 21
25.1076718391991704
 31
0.0
  0
ARC
  5
7AA
  8
LAYER1
 62
     1
 10
113.9884875368710055
 20
23.8576718391991704
 30
0.0
 40
1.2500000000000171
 50
270.0000000000370051
 51
89.9999999999987494
  0
LINE
  5
7AB
  8
LAYER1
 62
     1
 10
113.9884875368717019
 20
22.6076718391991314
 30
0.0
 11
111.2384875368714034
 21
22.6076718391982183
 31
0.0
  0
ARC
  5
7AC
  8
LAYER1
 62
     1
 10
111.2384875368716024
 20
21.607671839198229
 30
0.0
 40
1.0
 50
90.0000000000170814
 51
269.9999999999665761
  0
LINE
  5
7AD
  8
LAYER1
 62
     1
 10
111.238487536871105
 20
20.607671839198229
 30
0.0
 11
124.4384875368700989
 21
20.6076718392007692
 31
0.0
  0
ARC
  5
7AE
  8
LAYER1
 62
     1
 10
124.4384875368700989
 20
20.3076718392007685
 30
0.0
 40
0.3000000000000114
 50
0.0000000000008142
 51
90.0000000000106013
  0
LINE
  5
7AF
  8
LAYER1
 62
     1
 10
124.7384875368701955
 20
20.3076718392007685
 30
0.0
 11
124.7384927152910024
 21
5.9059091635885244
 31
0.0
  0
ARC
  5
7B0
  8
LAYER1
 62
     1
 10
125.0367352943728037
 20
5.905909270827193
 30
0.0
 40
0.2982425790817637
 50
180.0000206017641915
 51
270.3366275792594138
  0
LINE
  5
7B1
  8
LAYER1
 62
     1
 10
125.0384875368711022
 20
5.607671839200008
 30
0.0
 11
133.9384875368710084
 21
5.6076718391991758
 31
0.0
  0
ARC
  5
7B2
  8
LAYER1
 62
     1
 10
133.9384875368710084
 20
5.9076718391992227
 30
0.0
 40
0.3000000000000398
 50
269.9999999999837996
 51
359.9999999999959073
  0
LINE
  5
7B3
  8
LAYER1
 62
     1
 10
5.2384875368732793
 20
27.30763624806821
 30
0.0
 11
5.2384875368732722
 21
5.9076718391991019
 31
0.0
  0
ARC
  5
7B4
  8
LAYER1
 62
     1
 10
5.5384875368732764
 20
5.9076718391991019
 30
0.0
 40
0.300000000000006
 50
179.9999999999984084
 51
270.0000000003353762
  0
LINE
  5
7B5
  8
LAYER1
 62
     1
 10
5.5384875368750368
 20
5.6076718391990994
 30
0.0
 11
76.39165025890415
 21
5.6076718391998579
 31
0.0
  0
ARC
  5
7B6
  8
LAYER1
 62
     1
 10
76.3916502589041215
 20
6.3576718391998579
 30
0.0
 40
0.7500000000000071
 50
270.0000000000021032
 51
42.7870978730584071
  0
LINE
  5
7B7
  8
LAYER1
 62
     1
 10
76.9420623931145684
 20
6.8671288859799802
 30
0.0
 11
75.318309885142682
 21
8.621414333577718
 31
0.0
  0
ARC
  5
7B8
  8
LAYER1
 62
     1
 10
75.5384747388268636
 20
8.8251971522897463
 30
0.0
 40
0.2999999999999556
 50
180.0000000000316902
 51
222.7870978730595084
  0
LINE
  5
7B9
  8
LAYER1
 62
     1
 10
75.2384747388268806
 20
8.8251971522895687
 30
0.0
 11
75.2384747388260138
 21
10.2734524654832402
 31
0.0
  0
LINE
  5
7BA
  8
LAYER1
 62
     1
 10
75.2384747388260138
 20
10.2734524654832402
 30
0.0
 11
75.0822003446284896
 21
11.1597285961641699
 31
0.0
  0
ARC
  5
7BB
  8
LAYER1
 62
     1
 10
74.786758018725223
 20
11.1076341428639402
 30
0.0
 40
0.2999999999996761
 50
10.0000000000373994
 51
90.0000000000541149
  0
LINE
  5
7BC
  8
LAYER1
 62
     1
 10
74.7867580187249246
 20
11.4076341428636301
 30
0.0
 11
73.8642913394025982
 21
11.4076341428636407
 31
0.0
  0
ARC
  5
7BD
  8
LAYER1
 62
     1
 10
73.8642913394025697
 20
11.1076341428651801
 30
0.0
 40
0.299999999998473
 50
89.9999999999942588
 51
120.0000000001321041
  0
LINE
  5
7BE
  8
LAYER1
 62
     1
 10
73.7142913394027346
 20
11.3674417639988405
 30
0.0
 11
72.8884583144827332
 21
10.8906468447541904
 31
0.0
  0
ARC
  5
7BF
  8
LAYER1
 62
     1
 10
73.0384583144830941
 20
10.6308392236190503
 30
0.0
 40
0.3000000000000091
 50
120.0000000000757012
 51
180.0000000000032117
  0
LINE
  5
7C0
  8
LAYER1
 62
     1
 10
72.7384583144830827
 20
10.6308392236190308
 30
0.0
 11
72.7384583144830685
 21
9.5076362480697281
 31
0.0
  0
ARC
  5
7C1
  8
LAYER1
 62
     1
 10
73.0384583144830799
 20
9.5076362480697281
 30
0.0
 40
0.3000000000000114
 50
179.9999999999984084
 51
269.9999999998207727
  0
LINE
  5
7C2
  8
LAYER1
 62
     1
 10
73.038458314482142
 20
9.2076362480697185
 30
0.0
 11
73.4384875368747743
 21
9.2076362480684768
 31
0.0
  0
ARC
  5
7C3
  8
LAYER1
 62
     1
 10
73.4384875368738506
 20
8.9076362480683287
 30
0.0
 40
0.3000000000001322
 50
0.0000000000276835
 51
89.9999999998180158
  0
LINE
  5
7C4
  8
LAYER1
 62
     1
 10
73.7384875368739756
 20
8.9076362480684832
 30
0.0
 11
73.738487536874004
 21
7.8076362480700112
 31
0.0
  0
ARC
  5
7C5
  8
LAYER1
 62
     1
 10
73.4384875368739642
 20
7.807636248069997
 30
0.0
 40
0.300000000000054
 50
270.000000000013415
 51
0.0000000000024427
  0
LINE
  5
7C6
  8
LAYER1
 62
     1
 10
73.4384875368740069
 20
7.5076362480699501
 30
0.0
 11
69.038147207782032
 21
7.5076362480699501
 31
0.0
  0
ARC
  5
7C7
  8
LAYER1
 62
     1
 10
69.038147207782032
 20
7.8076362480699251
 30
0.0
 40
0.2999999999999829
 50
180.0000000001400053
 51
270.0
  0
LINE
  5
7C8
  8
LAYER1
 62
     1
 10
68.738147207782049
 20
7.8076362480692012
 30
0.0
 11
68.7381472077810258
 21
8.2076362480697256
 31
0.0
  0
ARC
  5
7C9
  8
LAYER1
 62
     1
 10
68.4381472077803323
 20
8.2076362480689316
 30
0.0
 40
0.3000000000006793
 50
0.0000000001506311
 51
89.9999999998697291
  0
LINE
  5
7CA
  8
LAYER1
 62
     1
 10
68.4381472077810002
 20
8.5076362480696002
 30
0.0
 11
53.4384875368740495
 21
8.5076362480681702
 31
0.0
  0
ARC
  5
7CB
  8
LAYER1
 62
     1
 10
53.4384875368739927
 20
8.8076362480682064
 30
0.0
 40
0.3000000000000327
 50
180.0000000000048885
 51
270.0000000000068781
  0
LINE
  5
7CC
  8
LAYER1
 62
     1
 10
53.1384875368739813
 20
8.807636248068178
 30
0.0
 11
53.1384875368739813
 21
10.4076362480684406
 31
0.0
  0
ARC
  5
7CD
  8
LAYER1
 62
     1
 10
53.4384875368739927
 20
10.4076362480684406
 30
0.0
 40
0.3000000000000256
 50
90.0
 51
180.0
  0
LINE
  5
7CE
  8
LAYER1
 62
     1
 10
53.4384875368739927
 20
10.7076362480684697
 30
0.0
 11
57.1461805915739802
 21
10.7076362480697203
 31
0.0
  0
ARC
  5
7CF
  8
LAYER1
 62
     1
 10
57.1461805915739234
 20
11.0076362480699395
 30
0.0
 40
0.300000000000221
 50
270.0000000000151203
 51
299.9999999999109832
  0
LINE
  5
7D0
  8
LAYER1
 62
     1
 10
57.2961805915736306
 20
10.7478286269341901
 30
0.0
 11
58.387539119434912
 21
11.3779247667753207
 31
0.0
  0
ARC
  5
7D1
  8
LAYER1
 62
     1
 10
58.2375391194353469
 20
11.6377323879107006
 30
0.0
 40
0.2999999999998147
 50
299.9999999999228066
 51
29.8971488566453516
  0
LINE
  5
7D2
  8
LAYER1
 62
     1
 10
58.4976155854938611
 20
11.7872657681386794
 30
0.0
 11
58.1124481377999302
 21
12.4571696282957802
 31
0.0
  0
ARC
  5
7D3
  8
LAYER1
 62
     1
 10
57.8523716717404426
 20
12.3076362480673591
 30
0.0
 40
0.3000000000008647
 50
29.8971488566284513
 51
89.9999999998953655
  0
LINE
  5
7D4
  8
LAYER1
 62
     1
 10
57.8523716717409826
 20
12.6076362480682196
 30
0.0
 11
45.2384875368741319
 21
12.6076362480691504
 31
0.0
  0
ARC
  5
7D5
  8
LAYER1
 62
     1
 10
45.2384875368740893
 20
11.6076362480691504
 30
0.0
 40
1.0
 50
89.9999999999967315
 51
269.9999999999682814
  0
LINE
  5
7D6
  8
LAYER1
 62
     1
 10
45.2384875368735422
 20
10.6076362480691504
 30
0.0
 11
47.9884875368749491
 21
10.6076362480682693
 31
0.0
  0
ARC
  5
7D7
  8
LAYER1
 62
     1
 10
47.9884875368745583
 20
9.3576362480682462
 30
0.0
 40
1.250000000000024
 50
270.0000000000183036
 51
89.9999999999816822
  0
LINE
  5
7D8
  8
LAYER1
 62
     1
 10
47.9884875368749491
 20
8.1076362480682178
 30
0.0
 11
37.2384875368732722
 21
8.1076362480682587
 31
0.0
  0
LINE
  5
7D9
  8
LAYER1
 62
     1
 10
37.2384875368732722
 20
8.1076362480682587
 30
0.0
 11
36.7384875368741604
 21
7.6076362480682516
 31
0.0
  0
LINE
  5
7DA
  8
LAYER1
 62
     1
 10
36.7384875368741604
 20
7.6076362480682516
 30
0.0
 11
36.2384875368741604
 21
8.1076362480682587
 31
0.0
  0
LINE
  5
7DB
  8
LAYER1
 62
     1
 10
36.2384875368741604
 20
8.1076362480682587
 30
0.0
 11
25.4884875368732686
 21
8.1076362480682178
 31
0.0
  0
ARC
  5
7DC
  8
LAYER1
 62
     1
 10
25.4884875368732686
 20
9.3576362480682391
 30
0.0
 40
1.2500000000000211
 50
90.0000000000370477
 51
269.9999999999996021
  0
LINE
  5
7DD
  8
LAYER1
 62
     1
 10
25.4884875368724515
 20
10.6076362480682604
 30
0.0
 11
28.2384875368729489
 21
10.6076362480691504
 31
0.0
  0
ARC
  5
7DE
  8
LAYER1
 62
     1
 10
28.2384875368726114
 20
11.6076362480691504
 30
0.0
 40
1.0
 50
270.0000000000188152
 51
89.9999999999678408
  0
LINE
  5
7DF
  8
LAYER1
 62
     1
 10
28.2384875368731798
 20
12.6076362480691504
 30
0.0
 11
15.0384875368742392
 21
12.6076362480665995
 31
0.0
  0
ARC
  5
7E0
  8
LAYER1
 62
     1
 10
15.0384875368741895
 20
12.9076362480666198
 30
0.0
 40
0.3000000000000185
 50
179.9999999999984084
 51
270.0000000000093223
  0
LINE
  5
7E1
  8
LAYER1
 62
     1
 10
14.7384875368741692
 20
12.9076362480666393
 30
0.0
 11
14.7384823584530906
 21
27.3093989236788701
 31
0.0
  0
ARC
  5
7E2
  8
LAYER1
 62
     1
 10
14.4402397793713497
 20
27.3093988164402184
 30
0.0
 40
0.2982425790817709
 50
0.000020601760923
 51
90.3366275792536157
  0
LINE
  5
7E3
  8
LAYER1
 62
     1
 10
14.4384875368730796
 20
27.60763624806739
 30
0.0
 11
5.5384875368732764
 21
27.6076362480682214
 31
0.0
  0
ARC
  5
7E4
  8
LAYER1
 62
     1
 10
5.5384875368732551
 20
27.3076362480682384
 30
0.0
 40
0.2999999999999705
 50
89.9999999999963336
 51
180.0000000000065086
  0
LINE
  5
935
  8
LAYER1
 62
     2
 10
65.6089836176435313
 20
21.8076739444049714
 30
0.0
 11
66.0385359543083439
 21
21.8076739444055399
 31
0.0
  0
POLYLINE
  5
968
  8
0
 62
    51
 66
     1
 10
0.0
 20
0.0
 30
0.0
 70
     1
  0
VERTEX
  5
BDE
  8
0
 62
    51
 10
28.2384875368724195
 20
12.6076362480691504
 30
0.0
  0
VERTEX
  5
BDF
  8
0
 62
    51
 10
15.0384875368742392
 20
12.6076362480665995
 30
0.0
 42
-0.4142134570579631
  0
VERTEX
  5
BE0
  8
0
 62
    51
 10
14.7384875368741906
 20
12.9076361401960504
 30
0.0
  0
VERTEX
  5
BE1
  8
0
 62
    51
 10
14.7384823584530995
 20
27.3093989236788808
 30
0.0
 42
0.4159353294597505
  0
VERTEX
  5
BE2
  8
0
 62
    51
 10
14.43848753687233
 20
27.60763624806739
 30
0.0
  0
VERTEX
  5
BE3
  8
0
 62
    51
 10
5.5384875368732853
 20
27.6076362480682107
 30
0.0
 42
0.4142135623731224
  0
VERTEX
  5
BE4
  8
0
 62
    51
 10
5.2384875368732837
 20
27.3076362480682384
 30
0.0
  0
VERTEX
  5
BE5
  8
0
 62
    51
 10
5.2384875368732704
 20
5.907671839199101
 30
0.0
 42
0.4142135623730973
  0
VERTEX
  5
BE6
  8
0
 62
    51
 10
5.5384875368732791
 20
5.6076718391990958
 30
0.0
  0
VERTEX
  5
BE7
  8
0
 62
    51
 10
76.39165025890415
 20
5.6076718391998508
 30
0.0
 42
0.6543012635492299
  0
VERTEX
  5
BE8
  8
0
 62
    51
 10
76.942062393114611
 20
6.8671288859799402
 30
0.0
  0
VERTEX
  5
BE9
  8
0
 62
    51
 10
75.3183098851427104
 20
8.6214143335777411
 30
0.0
 42
-0.1888936561235959
  0
VERTEX
  5
BEA
  8
0
 62
    51
 10
75.2384747388269233
 20
8.8251971522895651
 30
0.0
  0
VERTEX
  5
BEB
  8
0
 62
    51
 10
75.2384747388259996
 20
10.2734524654831993
 30
0.0
  0
VERTEX
  5
BEC
  8
0
 62
    51
 10
75.0822003446285322
 20
11.1597285961641397
 30
0.0
 42
0.3639702342660278
  0
VERTEX
  5
BED
  8
0
 62
    51
 10
74.786758018725223
 20
11.4076341428636105
 30
0.0
  0
VERTEX
  5
BEE
  8
0
 62
    51
 10
73.864291339402584
 20
11.4076341428636496
 30
0.0
 42
0.1316524975877319
  0
VERTEX
  5
BEF
  8
0
 62
    51
 10
73.7142913394030046
 20
11.3674417639989898
 30
0.0
  0
VERTEX
  5
BF0
  8
0
 62
    51
 10
72.8884583144827616
 20
10.8906468447541904
 30
0.0
 42
0.26794919243079
  0
VERTEX
  5
BF1
  8
0
 62
    51
 10
72.7384583144830685
 20
10.6308392236190503
 30
0.0
  0
VERTEX
  5
BF2
  8
0
 62
    51
 10
72.7384583144830685
 20
9.5076362480697281
 30
0.0
 42
0.4142135623721794
  0
VERTEX
  5
BF3
  8
0
 62
    51
 10
73.038458314482142
 20
9.2076362480697167
 30
0.0
  0
VERTEX
  5
BF4
  8
0
 62
    51
 10
73.4384875368747743
 20
9.2076362480684608
 30
0.0
 42
-0.4142135623721894
  0
VERTEX
  5
BF5
  8
0
 62
    51
 10
73.7384875368739898
 20
8.9076362480683322
 30
0.0
  0
VERTEX
  5
BF6
  8
0
 62
    51
 10
73.7384875368740182
 20
7.8076362480699997
 30
0.0
 42
-0.4142135623730995
  0
VERTEX
  5
BF7
  8
0
 62
    51
 10
73.4384875368739642
 20
7.507636248069943
 30
0.0
  0
VERTEX
  5
BF8
  8
0
 62
    51
 10
69.038147207782032
 20
7.5076362480699412
 30
0.0
 42
-0.4142135623723453
  0
VERTEX
  5
BF9
  8
0
 62
    51
 10
68.738147207782049
 20
7.8076362480691559
 30
0.0
  0
VERTEX
  5
BFA
  8
0
 62
    51
 10
68.7381472077810116
 20
8.2076362480696972
 30
0.0
 42
0.4142135623723737
  0
VERTEX
  5
BFB
  8
0
 62
    51
 10
68.4381472077803039
 20
8.5076362480696108
 30
0.0
  0
VERTEX
  5
BFC
  8
0
 62
    51
 10
53.4384875368740282
 20
8.5076362480681738
 30
0.0
 42
-0.4142135623731155
  0
VERTEX
  5
BFD
  8
0
 62
    51
 10
53.1384875368739671
 20
8.8076362480682064
 30
0.0
  0
VERTEX
  5
BFE
  8
0
 62
    51
 10
53.1384875368739671
 20
10.4076362480684406
 30
0.0
 42
-0.4142135623729966
  0
VERTEX
  5
BFF
  8
0
 62
    51
 10
53.4384875368739003
 20
10.7076362480684608
 30
0.0
  0
VERTEX
  5
C00
  8
0
 62
    51
 10
57.1461805915740229
 20
10.7076362480697203
 30
0.0
 42
0.1316524975869645
  0
VERTEX
  5
C01
  8
0
 62
    51
 10
57.2961805915736804
 20
10.7478286269342096
 30
0.0
  0
VERTEX
  5
C02
  8
0
 62
    51
 10
58.387539119434912
 20
11.3779247667753296
 30
0.0
 42
0.4136878900465024
  0
VERTEX
  5
C03
  8
0
 62
    51
 10
58.4976155854938895
 20
11.7872657681386297
 30
0.0
  0
VERTEX
  5
C04
  8
0
 62
    51
 10
58.1124481377998876
 20
12.4571696282958104
 30
0.0
 42
0.2684302435171926
  0
VERTEX
  5
C05
  8
0
 62
    51
 10
57.8523716717404568
 20
12.6076362480682196
 30
0.0
  0
VERTEX
  5
C06
  8
0
 62
    51
 10
45.2384875368741604
 20
12.6076362480691504
 30
0.0
 42
1.0
  0
VERTEX
  5
C07
  8
0
 62
    51
 10
45.238487536873528
 20
10.6076362480691504
 30
0.0
  0
VERTEX
  5
C08
  8
0
 62
    51
 10
47.9884875368749633
 20
10.6076362480682693
 30
0.0
 42
-1.0
  0
VERTEX
  5
C09
  8
0
 62
    51
 10
47.9884875368749491
 20
8.1076362480682214
 30
0.0
  0
VERTEX
  5
C0A
  8
0
 62
    51
 10
37.2384875368732793
 20
8.1076362480682587
 30
0.0
  0
VERTEX
  5
C0B
  8
0
 62
    51
 10
36.7384875368741604
 20
7.6076362480682533
 30
0.0
  0
VERTEX
  5
C0C
  8
0
 62
    51
 10
36.2384875368741604
 20
8.1076362480682587
 30
0.0
  0
VERTEX
  5
C0D
  8
0
 62
    51
 10
25.4884875368732686
 20
8.1076362480682178
 30
0.0
 42
-1.0
  0
VERTEX
  5
C0E
  8
0
 62
    51
 10
25.4884875368724586
 20
10.6076362480682604
 30
0.0
  0
VERTEX
  5
C0F
  8
0
 62
    51
 10
28.2384875368729311
 20
10.6076362480691504
 30
0.0
 42
1.0
  0
SEQEND
  5
C10
  8
0
 62
    51
  0
POLYLINE
  5
96E
  8
0
 62
    51
 66
     1
 10
0.0
 20
0.0
 30
0.0
 70
     1
  0
VERTEX
  5
C11
  8
0
 62
    51
 10
20.7382685905741511
 20
30.6093989264902717
 30
0.0
  0
VERTEX
  5
C12
  8
0
 62
    51
 10
14.7384823590879304
 20
27.3076333986612489
 30
0.0
  0
VERTEX
  5
C13
  8
0
 62
    51
 10
14.7384875368741906
 20
12.9076361401960504
 30
0.0
 42
0.4142134570579631
  0
VERTEX
  5
C14
  8
0
 62
    51
 10
15.0384875368742392
 20
12.6076362480665995
 30
0.0
  0
VERTEX
  5
C15
  8
0
 62
    51
 10
20.7382685905776398
 20
12.6076362480676991
 30
0.0
  0
SEQEND
  5
C16
  8
0
 62
    51
  0
POLYLINE
  5
980
  8
0
 62
    51
 66
     1
 10
0.0
 20
0.0
 30
0.0
 70
     1
  0
VERTEX
  5
C17
  8
0
 62
    51
 10
45.2384875368738477
 20
12.6076362480691504
 30
0.0
  0
VERTEX
  5
C18
  8
0
 62
    51
 10
28.2384875368726789
 20
12.6076362480691504
 30
0.0
 42
-1.0
  0
VERTEX
  5
C19
  8
0
 62
    51
 10
28.2384875368731301
 20
10.6076362480691504
 30
0.0
  0
VERTEX
  5
C1A
  8
0
 62
    51
 10
25.4884875368724586
 20
10.6076362480682604
 30
0.0
 42
1.0
  0
VERTEX
  5
C1B
  8
0
 62
    51
 10
25.4884875368728814
 20
8.1076362480682178
 30
0.0
  0
VERTEX
  5
C1C
  8
0
 62
    51
 10
36.2384875368741604
 20
8.1076362480682604
 30
0.0
  0
VERTEX
  5
C1D
  8
0
 62
    51
 10
36.7384875368741604
 20
7.6076362480682507
 30
0.0
  0
VERTEX
  5
C1E
  8
0
 62
    51
 10
37.2384875368732793
 20
8.1076362480682587
 30
0.0
  0
VERTEX
  5
C1F
  8
0
 62
    51
 10
47.9884875368749491
 20
8.1076362480682214
 30
0.0
 42
1.0
  0
VERTEX
  5
C20
  8
0
 62
    51
 10
47.988487536875347
 20
10.6076362480682693
 30
0.0
  0
VERTEX
  5
C21
  8
0
 62
    51
 10
45.238487536873528
 20
10.6076362480691504
 30
0.0
 42
-1.0
  0
SEQEND
  5
C22
  8
0
 62
    51
  0
POLYLINE
  5
981
  8
0
 62
    51
 66
     1
 10
0.0
 20
0.0
 30
0.0
 70
     1
  0
VERTEX
  5
C23
  8
0
 62
    51
 10
52.7382737689908723
 20
16.6076480829136983
 30
0.0
  0
VERTEX
  5
C24
  8
0
 62
    51
 10
20.7382685905768689
 20
16.6076362480682604
 30
0.0
  0
VERTEX
  5
C25
  8
0
 62
    51
 10
20.7382685905776398
 20
12.6076362480676991
 30
0.0
  0
VERTEX
  5
C26
  8
0
 62
    51
 10
28.2384875368724195
 20
12.6076362480691504
 30
0.0
  0
VERTEX
  5
C27
  8
0
 62
    51
 10
45.2384875368741319
 20
12.6076362480691504
 30
0.0
  0
VERTEX
  5
C28
  8
0
 62
    51
 10
52.7381183675508112
 20
12.6076362480685997
 30
0.0
  0
SEQEND
  5
C29
  8
0
 62
    51
  0
POLYLINE
  5
992
  8
0
 62
    51
 66
     1
 10
0.0
 20
0.0
 30
0.0
 70
     1
  0
VERTEX
  5
C2A
  8
0
 62
    51
 10
58.7384391194360092
 20
27.1077721877529996
 30
0.0
  0
VERTEX
  5
C2B
  8
0
 62
    51
 10
52.7382685905741511
 20
30.6093989264902717
 30
0.0
  0
VERTEX
  5
C2C
  8
0
 62
    51
 10
52.7382737689952492
 20
16.6076362480687507
 30
0.0
  0
VERTEX
  5
C2D
  8
0
 62
    51
 10
52.7381183675508112
 20
12.6076362480685997
 30
0.0
  0
VERTEX
  5
C2E
  8
0
 62
    51
 10
57.852371671740471
 20
12.6076362480682196
 30
0.0
 42
-0.2684302435171857
  0
VERTEX
  5
C2F
  8
0
 62
    51
 10
58.1124481377998876
 20
12.4571696282958104
 30
0.0
  0
VERTEX
  5
C30
  8
0
 62
    51
 10
58.4976155854938895
 20
11.7872657681386297
 30
0.0
 42
-0.4136878900465037
  0
VERTEX
  5
C31
  8
0
 62
    51
 10
58.387539119434912
 20
11.3779247667753296
 30
0.0
  0
VERTEX
  5
C32
  8
0
 62
    51
 10
57.2961805915736804
 20
10.7478286269342096
 30
0.0
 42
-0.1316524975869706
  0
VERTEX
  5
C33
  8
0
 62
    51
 10
57.1461805915740229
 20
10.7076362480697203
 30
0.0
  0
VERTEX
  5
C34
  8
0
 62
    51
 10
54.5384391194440212
 20
10.7076341428533102
 30
0.0
 42
-0.2399316479495638
  0
VERTEX
  5
C35
  8
0
 62
    51
 10
55.2258254736801177
 20
10.35763414286364
 30
0.0
  0
VERTEX
  5
C36
  8
0
 62
    51
 10
58.4384391194360333
 20
10.3576341428620609
 30
0.0
 42
0.4142135623733306
  0
VERTEX
  5
C37
  8
0
 62
    51
 10
58.738439119436002
 20
10.6576341428619692
 30
0.0
  0
VERTEX
  5
C38
  8
0
 62
    51
 10
58.7384391194353768
 20
12.6577099861987001
 30
0.0
 42
1.006026949353575
  0
VERTEX
  5
C39
  8
0
 62
    51
 10
58.7384391194360092
 20
13.8576883216926205
 30
0.0
  0
SEQEND
  5
C3A
  8
0
 62
    51
  0
POLYLINE
  5
9F8
  8
0
 62
    51
 66
     1
 10
0.0
 20
0.0
 30
0.0
 70
     1
  0
VERTEX
  5
C3B
  8
0
 62
    51
 10
118.7382371378258057
 20
20.6076718391996785
 30
0.0
  0
VERTEX
  5
C3C
  8
0
 62
    51
 10
111.238487536871304
 20
20.607671839198229
 30
0.0
  0
VERTEX
  5
C3D
  8
0
 62
    51
 10
94.2384875368704371
 20
20.607671839198229
 30
0.0
  0
VERTEX
  5
C3E
  8
0
 62
    51
 10
86.7383925609473323
 20
20.607671839198801
 30
0.0
  0
VERTEX
  5
C3F
  8
0
 62
    51
 10
86.7383925609473323
 20
16.6076718391991101
 30
0.0
  0
VERTEX
  5
C40
  8
0
 62
    51
 10
118.7380817501835963
 20
16.6080269943246108
 30
0.0
  0
SEQEND
  5
C41
  8
0
 62
    51
  0
POLYLINE
  5
A09
  8
0
 62
    51
 66
     1
 10
0.0
 20
0.0
 30
0.0
 70
     1
  0
VERTEX
  5
C42
  8
0
 62
    51
 10
86.7383925570055538
 20
16.6076718391991101
 30
0.0
  0
VERTEX
  5
C43
  8
0
 62
    51
 10
86.7383925609473323
 20
20.607671839198801
 30
0.0
  0
VERTEX
  5
C44
  8
0
 62
    51
 10
81.6246034020037854
 20
20.6076718391991918
 30
0.0
 42
-0.2684302435172042
  0
VERTEX
  5
C45
  8
0
 62
    51
 10
81.3645269359443262
 20
20.7581384589716187
 30
0.0
  0
VERTEX
  5
C46
  8
0
 62
    51
 10
80.9793594882504095
 20
21.4280423191287888
 30
0.0
 42
-0.4136878900464927
  0
VERTEX
  5
C47
  8
0
 62
    51
 10
81.0894359543094083
 20
21.83738332049208
 30
0.0
  0
VERTEX
  5
C48
  8
0
 62
    51
 10
82.1807944821706542
 20
22.4674794603331698
 30
0.0
 42
-0.1316524975869606
  0
VERTEX
  5
C49
  8
0
 62
    51
 10
82.330794482170333
 20
22.5076718391976698
 30
0.0
  0
VERTEX
  5
C4A
  8
0
 62
    51
 10
84.9385359543002778
 20
22.5076739444141083
 30
0.0
 42
-0.2399316479495497
  0
VERTEX
  5
C4B
  8
0
 62
    51
 10
84.2511496000642239
 20
22.8576739444037393
 30
0.0
  0
VERTEX
  5
C4C
  8
0
 62
    51
 10
81.038535954308287
 20
22.857673944405331
 30
0.0
 42
0.4142135623733344
  0
VERTEX
  5
C4D
  8
0
 62
    51
 10
80.7385359543083325
 20
22.5576739444054191
 30
0.0
  0
VERTEX
  5
C4E
  8
0
 62
    51
 10
80.7385359543089862
 20
20.5575981010686988
 30
0.0
 42
1.0060269493535361
  0
VERTEX
  5
C4F
  8
0
 62
    51
 10
80.7385359543083467
 20
19.3576197655747784
 30
0.0
  0
VERTEX
  5
C50
  8
0
 62
    51
 10
80.7385359543083752
 20
6.1076739444055059
 30
0.0
  0
VERTEX
  5
C51
  8
0
 62
    51
 10
86.7382371555654572
 20
2.605909160777109
 30
0.0
  0
SEQEND
  5
C52
  8
0
 62
    51
  0
POLYLINE
  5
A79
  8
0
 62
    51
 66
     1
 10
0.0
 20
0.0
 30
0.0
 70
     1
  0
VERTEX
  5
C53
  8
0
 62
    51
 10
75.0384391194368732
 20
18.7808663706817214
 30
0.0
 42
0.8025848516716099
  0
VERTEX
  5
C54
  8
0
 62
    51
 10
72.1789774388801391
 20
19.4147937632930088
 30
0.0
  0
VERTEX
  5
C55
  8
0
 62
    51
 10
69.4794232325559733
 20
13.6255810855386894
 30
0.0
 42
-0.293513511651136
  0
VERTEX
  5
C56
  8
0
 62
    51
 10
66.3384391193661287
 20
11.6077605479070591
 30
0.0
  0
VERTEX
  5
C57
  8
0
 62
    51
 10
62.7385093444103603
 20
11.6076341453275091
 30
0.0
 42
-0.4142341309411267
  0
VERTEX
  5
C58
  8
0
 62
    51
 10
61.7384391194350783
 20
12.6076341428634908
 30
0.0
  0
VERTEX
  5
C59
  8
0
 62
    51
 10
61.7384391194350215
 20
24.0300488675568999
 30
0.0
 42
0.1272160680009839
  0
VERTEX
  5
C5A
  8
0
 62
    51
 10
61.7008250315768478
 20
24.175491753630741
 30
0.0
  0
VERTEX
  5
C5B
  8
0
 62
    51
 10
59.8840298465658023
 20
27.4530770289384805
 30
0.0
 42
0.2726312918533726
  0
VERTEX
  5
C5C
  8
0
 62
    51
 10
59.6216439344241707
 20
27.6076341428636489
 30
0.0
  0
VERTEX
  5
C5D
  8
0
 62
    51
 10
59.2384391194336573
 20
27.6076341428618797
 30
0.0
 42
0.4142135623717213
  0
VERTEX
  5
C5E
  8
0
 62
    51
 10
58.7384391194360092
 20
27.1076341428618797
 30
0.0
  0
VERTEX
  5
C5F
  8
0
 62
    51
 10
58.7384391194360092
 20
13.8576883216926205
 30
0.0
 42
-1.0060269493536009
  0
VERTEX
  5
C60
  8
0
 62
    51
 10
58.7384391194353768
 20
12.6577099861987001
 30
0.0
  0
VERTEX
  5
C61
  8
0
 62
    51
 10
58.738439119436002
 20
10.6576341428619692
 30
0.0
 42
-0.4142135623733306
  0
VERTEX
  5
C62
  8
0
 62
    51
 10
58.4384391194360333
 20
10.3576341428620609
 30
0.0
  0
VERTEX
  5
C63
  8
0
 62
    51
 10
55.2258254736801177
 20
10.35763414286364
 30
0.0
 42
1.1077206549809691
  0
VERTEX
  5
C64
  8
0
 62
    51
 10
53.9667594277129226
 20
9.2286012899262602
 30
0.0
  0
VERTEX
  5
C65
  8
0
 62
    51
 10
57.4884391194350926
 20
8.6076341428618584
 30
0.0
  0
VERTEX
  5
C66
  8
0
 62
    51
 10
69.0384391194350258
 20
8.6076341428628567
 30
0.0
 42
0.4142135623730698
  0
VERTEX
  5
C67
  8
0
 62
    51
 10
69.3384391194349945
 20
8.9076341428628538
 30
0.0
  0
VERTEX
  5
C68
  8
0
 62
    51
 10
69.3384391194349945
 20
10.0782239813500496
 30
0.0
 42
-0.2679491924313501
  0
VERTEX
  5
C69
  8
0
 62
    51
 10
69.4884391194350286
 20
10.3380316024851897
 30
0.0
  0
VERTEX
  5
C6A
  8
0
 62
    51
 10
70.488439119436137
 20
10.9153818716743398
 30
0.0
 42
-0.5773502691893561
  0
VERTEX
  5
C6B
  8
0
 62
    51
 10
71.2384391194350854
 20
10.4823691697822596
 30
0.0
  0
VERTEX
  5
C6C
  8
0
 62
    51
 10
71.2384391194350144
 20
7.9076341428605099
 30
0.0
 42
0.4142135623744484
  0
VERTEX
  5
C6D
  8
0
 62
    51
 10
71.5384391194350258
 20
7.607634142861853
 30
0.0
  0
VERTEX
  5
C6E
  8
0
 62
    51
 10
72.0884391194388741
 20
7.6076341428643657
 30
0.0
 42
0.6593961579760446
  0
VERTEX
  5
C6F
  8
0
 62
    51
 10
72.7763701539170569
 20
9.2128065566556874
 30
0.0
 42
-0.1925824035670379
  0
VERTEX
  5
C70
  8
0
 62
    51
 10
72.6384391194351906
 20
9.5576341428616622
 30
0.0
  0
VERTEX
  5
C71
  8
0
 62
    51
 10
72.6384391194361285
 20
10.6076341428615706
 30
0.0
 42
-0.4142135623724467
  0
VERTEX
  5
C72
  8
0
 62
    51
 10
73.4384391194360546
 20
11.4076341428618395
 30
0.0
  0
VERTEX
  5
C73
  8
0
 62
    51
 10
74.7867580187249246
 20
11.4076341428636301
 30
0.0
 42
0.3639161923171581
  0
VERTEX
  5
C74
  8
0
 62
    51
 10
75.0384391194368874
 20
11.7076341428630499
 30
0.0
  0
SEQEND
  5
C75
  8
0
 62
    51
  0
POLYLINE
  5
ADA
  8
0
 62
    51
 66
     1
 10
0.0
 20
0.0
 30
0.0
 70
     1
  0
VERTEX
  5
C76
  8
0
 62
    51
 10
63.3940227915391574
 20
22.2926607704143791
 30
0.0
 42
-0.1735034160694875
  0
VERTEX
  5
C77
  8
0
 62
    51
 10
62.2874581269507175
 20
23.7252344090796612
 30
0.0
  0
VERTEX
  5
C78
  8
0
 62
    51
 10
62.2253782563939524
 20
24.3731172857937715
 30
0.0
 42
0.7858567686423975
  0
VERTEX
  5
C79
  8
0
 62
    51
 10
61.7384391194331101
 20
24.4430125697805209
 30
0.0
  0
VERTEX
  5
C7A
  8
0
 62
    51
 10
61.7384391194331812
 20
24.0300488675608612
 30
0.0
 42
0.1833142025538707
  0
VERTEX
  5
C7B
  8
0
 62
    51
 10
63.0884875368704101
 20
20.9356501723842108
 30
0.0
  0
VERTEX
  5
C7C
  8
0
 62
    51
 10
64.4385359543075253
 20
19.5076739444039617
 30
0.0
  0
VERTEX
  5
C7D
  8
0
 62
    51
 10
64.4385359543075253
 20
21.5076739444040683
 30
0.0
  0
SEQEND
  5
C7E
  8
0
 62
    51
  0
POLYLINE
  5
AE3
  8
0
 62
    51
 66
     1
 10
0.0
 20
0.0
 30
0.0
 70
     1
  0
VERTEX
  5
C7F
  8
0
 62
    51
 10
76.3884875368747203
 20
12.2796579148823
 30
0.0
  0
VERTEX
  5
C80
  8
0
 62
    51
 10
75.0384391194368874
 20
13.7076341428633093
 30
0.0
  0
VERTEX
  5
C81
  8
0
 62
    51
 10
75.0384391194368874
 20
11.70763414286324
 30
0.0
  0
VERTEX
  5
C82
  8
0
 62
    51
 10
76.0829522822052411
 20
10.9226473168529505
 30
0.0
 42
-0.1735034160695015
  0
VERTEX
  5
C83
  8
0
 62
    51
 10
77.1895169467936313
 20
9.4900736781874908
 30
0.0
  0
VERTEX
  5
C84
  8
0
 62
    51
 10
77.2515968173502756
 20
8.8421908014745991
 30
0.0
 42
0.7858567686439202
  0
VERTEX
  5
C85
  8
0
 62
    51
 10
77.7385359543111889
 20
8.7722955174868797
 30
0.0
  0
VERTEX
  5
C86
  8
0
 62
    51
 10
77.7385359543111178
 20
9.1852592197059071
 30
0.0
 42
0.1833142025538384
  0
SEQEND
  5
C87
  8
0
 62
    51
  0
POLYLINE
  5
B19
  8
0
 62
    51
 66
     1
 10
0.0
 20
0.0
 30
0.0
 70
     1
  0
VERTEX
  5
C88
  8
0
 62
    51
 10
111.2384875368719008
 20
20.6076718391982503
 30
0.0
  0
VERTEX
  5
C89
  8
0
 62
    51
 10
124.4384875368700989
 20
20.6076718392007905
 30
0.0
 42
-0.4142134570579631
  0
VERTEX
  5
C8A
  8
0
 62
    51
 10
124.7384875368701955
 20
20.3076719470713414
 30
0.0
  0
VERTEX
  5
C8B
  8
0
 62
    51
 10
124.7384927152912013
 20
5.9059091635885181
 30
0.0
 42
0.4159353294597505
  0
VERTEX
  5
C8C
  8
0
 62
    51
 10
125.0384875368719975
 20
5.6076718392000009
 30
0.0
  0
VERTEX
  5
C8D
  8
0
 62
    51
 10
133.9384875368710084
 20
5.6076718391991838
 30
0.0
 42
0.4142135623731224
  0
VERTEX
  5
C8E
  8
0
 62
    51
 10
134.238487536871105
 20
5.9076718391991596
 30
0.0
  0
VERTEX
  5
C8F
  8
0
 62
    51
 10
134.238487536871105
 20
27.307636248068281
 30
0.0
 42
0.4142135623730973
  0
VERTEX
  5
C90
  8
0
 62
    51
 10
133.9384875368710937
 20
27.6076362480682995
 30
0.0
  0
VERTEX
  5
C91
  8
0
 62
    51
 10
63.0853248148402201
 20
27.6076362480675606
 30
0.0
 42
0.6543012635492299
  0
VERTEX
  5
C92
  8
0
 62
    51
 10
62.5349126806297519
 20
26.3481792012874685
 30
0.0
  0
VERTEX
  5
C93
  8
0
 62
    51
 10
64.1586651886016455
 20
24.5938937536896489
 30
0.0
 42
-0.1888936561235959
  0
VERTEX
  5
C94
  8
0
 62
    51
 10
64.2385003349174326
 20
24.3901109349778515
 30
0.0
  0
VERTEX
  5
C95
  8
0
 62
    51
 10
64.2385003349183705
 20
22.9418556217841996
 30
0.0
  0
VERTEX
  5
C96
  8
0
 62
    51
 10
64.3947747291158237
 20
22.0555794911032592
 30
0.0
 42
0.3639702342660278
  0
VERTEX
  5
C97
  8
0
 62
    51
 10
64.6902170550191329
 20
21.8076739444037884
 30
0.0
  0
VERTEX
  5
C98
  8
0
 62
    51
 10
65.6126837343417719
 20
21.8076739444037386
 30
0.0
 42
0.1316524975877319
  0
VERTEX
  5
C99
  8
0
 62
    51
 10
65.7626837343413513
 20
21.8478663232684092
 30
0.0
  0
VERTEX
  5
C9A
  8
0
 62
    51
 10
66.5885167592616085
 20
22.3246612425132085
 30
0.0
 42
0.26794919243079
  0
VERTEX
  5
C9B
  8
0
 62
    51
 10
66.7385167592613016
 20
22.5844688636483504
 30
0.0
  0
VERTEX
  5
C9C
  8
0
 62
    51
 10
66.7385167592613016
 20
23.7076718391976691
 30
0.0
 42
0.4142135623721794
  0
VERTEX
  5
C9D
  8
0
 62
    51
 10
66.4385167592622281
 20
24.0076718391976804
 30
0.0
  0
VERTEX
  5
C9E
  8
0
 62
    51
 10
66.0384875368695816
 20
24.0076718391989417
 30
0.0
 42
-0.4142135623721894
  0
VERTEX
  5
C9F
  8
0
 62
    51
 10
65.7384875368703661
 20
24.3076718391990809
 30
0.0
  0
VERTEX
  5
CA0
  8
0
 62
    51
 10
65.7384875368703376
 20
25.4076718391973984
 30
0.0
 42
-0.4142135623730995
  0
VERTEX
  5
CA1
  8
0
 62
    51
 10
66.0384875368704058
 20
25.7076718391974701
 30
0.0
  0
VERTEX
  5
CA2
  8
0
 62
    51
 10
70.4388278659623381
 20
25.7076718391974701
 30
0.0
 42
-0.4142135623723453
  0
VERTEX
  5
CA3
  8
0
 62
    51
 10
70.7388278659623211
 20
25.407671839198251
 30
0.0
  0
VERTEX
  5
CA4
  8
0
 62
    51
 10
70.7388278659633443
 20
25.0076718391977089
 30
0.0
 42
0.4142135623723737
  0
VERTEX
  5
CA5
  8
0
 62
    51
 10
71.0388278659640662
 20
24.7076718391977899
 30
0.0
  0
VERTEX
  5
CA6
  8
0
 62
    51
 10
86.0384875368703206
 20
24.7076718391992287
 30
0.0
 42
-0.4142135623731155
  0
VERTEX
  5
CA7
  8
0
 62
    51
 10
86.3384875368703746
 20
24.4076718391991889
 30
0.0
  0
VERTEX
  5
CA8
  8
0
 62
    51
 10
86.3384875368703746
 20
22.8076718391989601
 30
0.0
 42
-0.4142135623729966
  0
VERTEX
  5
CA9
  8
0
 62
    51
 10
86.0384875368704627
 20
22.5076718391989417
 30
0.0
  0
VERTEX
  5
CAA
  8
0
 62
    51
 10
82.330794482170333
 20
22.5076718391976804
 30
0.0
 42
0.1316524975869645
  0
VERTEX
  5
CAB
  8
0
 62
    51
 10
82.1807944821706826
 20
22.4674794603331911
 30
0.0
  0
VERTEX
  5
CAC
  8
0
 62
    51
 10
81.0894359543094367
 20
21.8373833204920693
 30
0.0
 42
0.4136878900465024
  0
VERTEX
  5
CAD
  8
0
 62
    51
 10
80.9793594882504379
 20
21.4280423191287817
 30
0.0
  0
VERTEX
  5
CAE
  8
0
 62
    51
 10
81.3645269359444683
 20
20.7581384589716009
 30
0.0
 42
0.2684302435171926
  0
VERTEX
  5
CAF
  8
0
 62
    51
 10
81.6246034020038849
 20
20.6076718391991811
 30
0.0
  0
VERTEX
  5
CB0
  8
0
 62
    51
 10
94.2384875368701955
 20
20.6076718391982503
 30
0.0
 42
1.0
  0
VERTEX
  5
CB1
  8
0
 62
    51
 10
94.2384875368708208
 20
22.607671839198261
 30
0.0
  0
VERTEX
  5
CB2
  8
0
 62
    51
 10
91.4884875368693855
 20
22.6076718391991314
 30
0.0
 42
-1.0
  0
VERTEX
  5
CB3
  8
0
 62
    51
 10
91.4884875368693855
 20
25.1076718391991811
 30
0.0
  0
VERTEX
  5
CB4
  8
0
 62
    51
 10
102.238487536871105
 20
25.1076718391991491
 30
0.0
  0
VERTEX
  5
CB5
  8
0
 62
    51
 10
102.7384875368701955
 20
25.6076718391991491
 30
0.0
  0
VERTEX
  5
CB6
  8
0
 62
    51
 10
103.2384875368701955
 20
25.1076718391991491
 30
0.0
  0
VERTEX
  5
CB7
  8
0
 62
    51
 10
113.9884875368710055
 20
25.1076718391991811
 30
0.0
 42
-1.0
  0
VERTEX
  5
CB8
  8
0
 62
    51
 10
113.9884875368719008
 20
22.6076718391991314
 30
0.0
  0
VERTEX
  5
CB9
  8
0
 62
    51
 10
111.2384875368714034
 20
22.6076718391982503
 30
0.0
 42
1.0
  0
SEQEND
  5
CBA
  8
0
 62
    51
  0
POLYLINE
  5
B1A
  8
0
 62
    51
 66
     1
 10
0.0
 20
0.0
 30
0.0
 70
     1
  0
VERTEX
  5
CBB
  8
0
 62
    51
 10
64.4385359543074969
 20
14.4344417165856793
 30
0.0
 42
0.8025848516716099
  0
VERTEX
  5
CBC
  8
0
 62
    51
 10
67.297997634864231
 20
13.8005143239743902
 30
0.0
  0
VERTEX
  5
CBD
  8
0
 62
    51
 10
69.9975518411883968
 20
19.5897270017287184
 30
0.0
 42
-0.293513511651136
  0
VERTEX
  5
CBE
  8
0
 62
    51
 10
73.1385359543782272
 20
21.6075475393603398
 30
0.0
  0
VERTEX
  5
CBF
  8
0
 62
    51
 10
76.7384657293339956
 20
21.6076739419398898
 30
0.0
 42
-0.4142341309411267
  0
VERTEX
  5
CC0
  8
0
 62
    51
 10
77.7385359543092704
 20
20.6076739444039099
 30
0.0
  0
VERTEX
  5
CC1
  8
0
 62
    51
 10
77.7385359543093131
 20
9.1852592197105025
 30
0.0
 42
0.1272160680009839
  0
VERTEX
  5
CC2
  8
0
 62
    51
 10
77.7761500421675009
 20
9.0398163336366562
 30
0.0
  0
VERTEX
  5
CC3
  8
0
 62
    51
 10
79.5929452271785607
 20
5.762231058328922
 30
0.0
 42
0.2726312918533726
  0
VERTEX
  5
CC4
  8
0
 62
    51
 10
79.8553311393201852
 20
5.6076739444037491
 30
0.0
  0
VERTEX
  5
CC5
  8
0
 62
    51
 10
80.2385359543106773
 20
5.6076739444055193
 30
0.0
 42
0.4142135623717213
  0
VERTEX
  5
CC6
  8
0
 62
    51
 10
80.7385359543083467
 20
6.1076739444055193
 30
0.0
  0
VERTEX
  5
CC7
  8
0
 62
    51
 10
80.7385359543083467
 20
19.3576197655747784
 30
0.0
 42
-1.0060269493536009
  0
VERTEX
  5
CC8
  8
0
 62
    51
 10
80.7385359543089862
 20
20.5575981010686988
 30
0.0
  0
VERTEX
  5
CC9
  8
0
 62
    51
 10
80.7385359543083609
 20
22.5576739444054297
 30
0.0
 42
-0.4142135623733306
  0
VERTEX
  5
CCA
  8
0
 62
    51
 10
81.0385359543083155
 20
22.8576739444053416
 30
0.0
  0
VERTEX
  5
CCB
  8
0
 62
    51
 10
84.2511496000642239
 20
22.8576739444037713
 30
0.0
 42
1.1077206549809691
  0
VERTEX
  5
CCC
  8
0
 62
    51
 10
85.5102156460314546
 20
23.9867067973411494
 30
0.0
  0
VERTEX
  5
CCD
  8
0
 62
    51
 10
81.9885359543092704
 20
24.6076739444055406
 30
0.0
  0
VERTEX
  5
CCE
  8
0
 62
    51
 10
70.4385359543093443
 20
24.6076739444045494
 30
0.0
 42
0.4142135623730698
  0
VERTEX
  5
CCF
  8
0
 62
    51
 10
70.1385359543093614
 20
24.3076739444045486
 30
0.0
  0
VERTEX
  5
CD0
  8
0
 62
    51
 10
70.1385359543093614
 20
23.1370841059173493
 30
0.0
 42
-0.2679491924313501
  0
VERTEX
  5
CD1
  8
0
 62
    51
 10
69.9885359543093273
 20
22.8772764847822216
 30
0.0
  0
VERTEX
  5
CD2
  8
0
 62
    51
 10
68.9885359543082046
 20
22.2999262155930609
 30
0.0
 42
-0.5773502691893561
  0
VERTEX
  5
CD3
  8
0
 62
    51
 10
68.2385359543092704
 20
22.7329389174851286
 30
0.0
  0
VERTEX
  5
CD4
  8
0
 62
    51
 10
68.2385359543093557
 20
25.3076739444068899
 30
0.0
 42
0.4142135623744484
  0
VERTEX
  5
CD5
  8
0
 62
    51
 10
67.9385359543093159
 20
25.6076739444055406
 30
0.0
  0
VERTEX
  5
CD6
  8
0
 62
    51
 10
67.388535954305496
 20
25.6076739444030395
 30
0.0
 42
0.6593961579760446
  0
VERTEX
  5
CD7
  8
0
 62
    51
 10
66.700604919827299
 20
24.0025015306117204
 30
0.0
 42
-0.1925824035670379
  0
VERTEX
  5
CD8
  8
0
 62
    51
 10
66.8385359543091653
 20
23.6576739444057509
 30
0.0
  0
VERTEX
  5
CD9
  8
0
 62
    51
 10
66.8385359543082416
 20
22.6076739444058212
 30
0.0
 42
-0.4142135623724467
  0
VERTEX
  5
CDA
  8
0
 62
    51
 10
66.0385359543083155
 20
21.8076739444055612
 30
0.0
  0
VERTEX
  5
CDB
  8
0
 62
    51
 10
64.6902170550194455
 20
21.8076739444037813
 30
0.0
 42
0.3639161923171581
  0
VERTEX
  5
CDC
  8
0
 62
    51
 10
64.4385359543074685
 20
21.507673944404349
 30
0.0
  0
SEQEND
  5
CDD
  8
0
 62
    51
  0
POLYLINE
  5
B1B
  8
0
 62
    51
 66
     1
 10
0.0
 20
0.0
 30
0.0
 70
     1
  0
VERTEX
  5
CDE
  8
0
 62
    51
 10
118.7387064831701053
 20
2.6059091607771201
 30
0.0
  0
VERTEX
  5
CDF
  8
0
 62
    51
 10
124.738492714656303
 20
5.9076746886061464
 30
0.0
  0
VERTEX
  5
CE0
  8
0
 62
    51
 10
124.7384875368700961
 20
20.3076719470713307
 30
0.0
 42
0.4142134570579631
  0
VERTEX
  5
CE1
  8
0
 62
    51
 10
124.4384875368699994
 20
20.6076718392007905
 30
0.0
  0
VERTEX
  5
CE2
  8
0
 62
    51
 10
118.7387064831665953
 20
20.6076718391996891
 30
0.0
  0
SEQEND
  5
CE3
  8
0
 62
    51
  0
LINE
  5
B5B
  8
LAYER1
 62
     2
 10
64.4385359543071985
 20
17.9710578304943098
 30
0.0
 11
64.4385359543075253
 21
14.4344417165852192
 31
0.0
  0
LINE
  5
B5C
  8
LAYER1
 62
     2
 10
66.3384391194332181
 20
11.6076341428618797
 30
0.0
 11
65.7384391194333091
 21
11.6077605479077999
 31
0.0
  0
LINE
  5
B5D
  8
LAYER1
 62
     2
 10
61.7384391194333304
 20
19.7076341428638102
 30
0.0
 11
61.7384391194333304
 21
19.107634142863791
 31
0.0
  0
POLYLINE
  5
B87
  8
0
 62
    51
 66
     1
 10
0.0
 20
0.0
 30
0.0
 70
     1
  0
VERTEX
  5
CE4
  8
0
 62
    51
 10
64.4385359543071985
 20
17.9710578304943098
 30
0.0
 42
0.3861835673939817
  0
VERTEX
  5
CE5
  8
0
 62
    51
 10
61.7384391194333304
 20
19.7076341428638102
 30
0.0
  0
VERTEX
  5
CE6
  8
0
 62
    51
 10
61.7384391194333304
 20
19.107634142863791
 30
0.0
 42
-0.3502857224856561
  0
VERTEX
  5
CE7
  8
0
 62
    51
 10
63.8385359543072965
 20
17.9344417165831516
 30
0.0
  0
VERTEX
  5
CE8
  8
0
 62
    51
 10
63.8385359543072965
 20
14.4344417165809595
 30
0.0
 42
0.2912768075631116
  0
VERTEX
  5
CE9
  8
0
 62
    51
 10
65.3950409317553039
 20
12.4106636667059504
 30
0.0
 42
-0.505779673755284
  0
VERTEX
  5
CEA
  8
0
 62
    51
 10
65.7384391194332665
 20
11.6077605479077999
 30
0.0
  0
VERTEX
  5
CEB
  8
0
 62
    51
 10
66.3384391194332181
 20
11.6076341428618797
 30
0.0
 42
0.4229687292791355
  0
VERTEX
  5
CEC
  8
0
 62
    51
 10
65.7384391194311348
 20
12.9478478727013595
 30
0.0
 42
-0.3755467193932585
  0
VERTEX
  5
CED
  8
0
 62
    51
 10
64.4385359543075253
 20
14.4344417165855301
 30
0.0
  0
SEQEND
  5
CEE
  8
0
 62
    51
  0
POLYLINE
  5
B88
  8
0
 62
    51
 66
     1
 10
0.0
 20
0.0
 30
0.0
 70
     1
  0
VERTEX
  5
CEF
  8
0
 62
    51
 10
75.0384395894195251
 20
15.2442713242978805
 30
0.0
 42
0.3861835673939817
  0
VERTEX
  5
CF0
  8
0
 62
    51
 10
77.7385364242933861
 20
13.5076950119283801
 30
0.0
  0
VERTEX
  5
CF1
  8
0
 62
    51
 10
77.7385364242934003
 20
14.1076950119283993
 30
0.0
 42
-0.3502857224856561
  0
VERTEX
  5
CF2
  8
0
 62
    51
 10
75.6384395894194199
 20
15.2808874382090405
 30
0.0
  0
VERTEX
  5
CF3
  8
0
 62
    51
 10
75.6384395894194199
 20
18.7808874382112307
 30
0.0
 42
0.2912768075631116
  0
VERTEX
  5
CF4
  8
0
 62
    51
 10
74.0819346119714197
 20
20.8046654880862398
 30
0.0
 42
-0.505779673755284
  0
VERTEX
  5
CF5
  8
0
 62
    51
 10
73.7385364242934429
 20
21.6075686068843886
 30
0.0
  0
VERTEX
  5
CF6
  8
0
 62
    51
 10
73.1385364242935054
 20
21.6076950119303213
 30
0.0
 42
0.4229687292791355
  0
VERTEX
  5
CF7
  8
0
 62
    51
 10
73.7385364242955745
 20
20.2674812820908308
 30
0.0
 42
-0.3755467193932585
  0
VERTEX
  5
CF8
  8
0
 62
    51
 10
75.0384395894191982
 20
18.7808874382066584
 30
0.0
  0
SEQEND
  5
CF9
  8
0
 62
    51
  0
ENDSEC
  0
EOF
