  0
SECTION
  2
HEADER
  9
$ACADVER
  1
AC1009
  9
$INSBASE
 10
0.0
 20
0.0
 30
0.0
  9
$EXTMIN
 10
-40.0851156312332932
 20
10.8883497274548002
 30
0.0
  9
$EXTMAX
 10
37.9183741344803522
 20
139.8883497274526064
 30
0.0
  9
$LIMMIN
 10
0.0
 20
0.0
  9
$LIMMAX
 10
420.0
 20
297.0
  9
$ORTHOMODE
 70
     1
  9
$REGENMODE
 70
     1
  9
$FILLMODE
 70
     1
  9
$QTEXTMODE
 70
     0
  9
$MIRRTEXT
 70
     0
  9
$DRAGMODE
 70
     2
  9
$LTSCALE
 40
1.0
  9
$OSMODE
 70
   167
  9
$ATTMODE
 70
     1
  9
$TEXTSIZE
 40
2.5
  9
$TRACEWID
 40
1.0
  9
$TEXTSTYLE
  7
STANDARD
  9
$CLAYER
  8
0
  9
$CELTYPE
  6
BYLAYER
  9
$CECOLOR
 62
     2
  9
$DIMSCALE
 40
1.0
  9
$DIMASZ
 40
2.5
  9
$DIMEXO
 40
0.625
  9
$DIMDLI
 40
3.75
  9
$DIMRND
 40
0.0
  9
$DIMDLE
 40
0.0
  9
$DIMEXE
 40
1.25
  9
$DIMTP
 40
0.0
  9
$DIMTM
 40
0.0
  9
$DIMTXT
 40
2.5
  9
$DIMCEN
 40
2.5
  9
$DIMTSZ
 40
0.0
  9
$DIMTOL
 70
     0
  9
$DIMLIM
 70
     0
  9
$DIMTIH
 70
     0
  9
$DIMTOH
 70
     0
  9
$DIMSE1
 70
     0
  9
$DIMSE2
 70
     0
  9
$DIMTAD
 70
     1
  9
$DIMZIN
 70
     8
  9
$DIMBLK
  1

  9
$DIMASO
 70
     1
  9
$DIMSHO
 70
     1
  9
$DIMPOST
  1

  9
$DIMAPOST
  1

  9
$DIMALT
 70
     0
  9
$DIMALTD
 70
     3
  9
$DIMALTF
 40
0.03937007874016
  9
$DIMLFAC
 40
1.0
  9
$DIMTOFL
 70
     1
  9
$DIMTVP
 40
0.0
  9
$DIMTIX
 70
     0
  9
$DIMSOXD
 70
     0
  9
$DIMSAH
 70
     0
  9
$DIMBLK1
  1

  9
$DIMBLK2
  1

  9
$DIMSTYLE
  2
ISO-25
  9
$DIMCLRD
 70
     0
  9
$DIMCLRE
 70
     0
  9
$DIMCLRT
 70
     0
  9
$DIMTFAC
 40
1.0
  9
$DIMGAP
 40
0.625
  9
$LUNITS
 70
     2
  9
$LUPREC
 70
     4
  9
$SKETCHINC
 40
1.0
  9
$FILLETRAD
 40
0.0
  9
$AUNITS
 70
     0
  9
$AUPREC
 70
     0
  9
$MENU
  1
.
  9
$ELEVATION
 40
0.0
  9
$PELEVATION
 40
0.0
  9
$THICKNESS
 40
0.0
  9
$LIMCHECK
 70
     0
  9
$BLIPMODE
 70
     0
  9
$CHAMFERA
 40
0.0
  9
$CHAMFERB
 40
0.0
  9
$SKPOLY
 70
     0
  9
$TDCREATE
 40
2458815.5936574079096317
  9
$TDUPDATE
 40
2458815.693379629869014
  9
$TDINDWG
 40
0.0521990741
  9
$TDUSRTIMER
 40
0.0521990741
  9
$USRTIMER
 70
     1
  9
$ANGBASE
 50
0.0
  9
$ANGDIR
 70
     0
  9
$PDMODE
 70
     0
  9
$PDSIZE
 40
0.0
  9
$PLINEWID
 40
0.0
  9
$COORDS
 70
     1
  9
$SPLFRAME
 70
     0
  9
$SPLINETYPE
 70
     6
  9
$SPLINESEGS
 70
     8
  9
$ATTDIA
 70
     1
  9
$ATTREQ
 70
     1
  9
$HANDLING
 70
     1
  9
$HANDSEED
  5
A48
  9
$SURFTAB1
 70
     6
  9
$SURFTAB2
 70
     6
  9
$SURFTYPE
 70
     6
  9
$SURFU
 70
     6
  9
$SURFV
 70
     6
  9
$UCSNAME
  2

  9
$UCSORG
 10
0.0
 20
0.0
 30
0.0
  9
$UCSXDIR
 10
1.0
 20
0.0
 30
0.0
  9
$UCSYDIR
 10
0.0
 20
1.0
 30
0.0
  9
$PUCSNAME
  2

  9
$PUCSORG
 10
0.0
 20
0.0
 30
0.0
  9
$PUCSXDIR
 10
1.0
 20
0.0
 30
0.0
  9
$PUCSYDIR
 10
0.0
 20
1.0
 30
0.0
  9
$USERI1
 70
     0
  9
$USERI2
 70
     0
  9
$USERI3
 70
     0
  9
$USERI4
 70
     0
  9
$USERI5
 70
     0
  9
$USERR1
 40
0.0
  9
$USERR2
 40
0.0
  9
$USERR3
 40
0.0
  9
$USERR4
 40
0.0
  9
$USERR5
 40
0.0
  9
$WORLDVIEW
 70
     1
  9
$SHADEDGE
 70
     3
  9
$SHADEDIF
 70
    70
  9
$TILEMODE
 70
     1
  9
$MAXACTVP
 70
    64
  9
$PLIMCHECK
 70
     0
  9
$PEXTMIN
 10
0.0
 20
0.0
 30
0.0
  9
$PEXTMAX
 10
0.0
 20
0.0
 30
0.0
  9
$PLIMMIN
 10
0.0
 20
0.0
  9
$PLIMMAX
 10
12.0
 20
9.0
  9
$UNITMODE
 70
     0
  9
$VISRETAIN
 70
     1
  9
$PLINEGEN
 70
     0
  9
$PSLTSCALE
 70
     1
  0
ENDSEC
  0
SECTION
  2
TABLES
  0
TABLE
  2
VPORT
 70
     1
  0
VPORT
  2
*ACTIVE
 70
     0
 10
0.0
 20
0.0
 11
1.0
 21
1.0
 12
42.7906282293689273
 22
82.0037796474391882
 13
0.0
 23
0.0
 14
10.0
 24
10.0
 15
10.0
 25
10.0
 16
0.0
 26
0.0
 36
1.0
 17
0.0
 27
0.0
 37
0.0
 40
219.6773018906818038
 41
2.29156626506024
 42
50.0
 43
0.0
 44
0.0
 50
0.0
 51
0.0
 71
     0
 72
  1000
 73
     1
 74
     3
 75
     0
 76
     1
 77
     0
 78
     0
  0
ENDTAB
  0
TABLE
  2
LTYPE
 70
     2
  0
LTYPE
  2
CONTINUOUS
 70
     0
  3
Solid line
 72
    65
 73
     0
 40
0.0
  0
ENDTAB
  0
TABLE
  2
LAYER
 70
     2
  0
LAYER
  2
0
 70
     0
 62
     7
  6
CONTINUOUS
  0
ENDTAB
  0
TABLE
  2
STYLE
 70
     2
  0
STYLE
  2
STANDARD
 70
     0
 40
0.0
 41
1.0
 50
0.0
 71
     0
 42
2.5
  3
txt
  4

  0
ENDTAB
  0
TABLE
  2
VIEW
 70
     0
  0
ENDTAB
  0
TABLE
  2
UCS
 70
     0
  0
ENDTAB
  0
TABLE
  2
APPID
 70
    11
  0
APPID
  2
ACAD
 70
     0
  0
APPID
  2
ACADANNOTATIVE
 70
     0
  0
APPID
  2
ACAD_PSEXT
 70
     0
  0
APPID
  2
ACADANNOPO
 70
     0
  0
APPID
  2
ACAD_DSTYLE_DIMJAG
 70
     0
  0
APPID
  2
ACAD_DSTYLE_DIMTALN
 70
     0
  0
APPID
  2
ACAD_MLEADERVER
 70
     0
  0
APPID
  2
ACAD_NAV_VCDISPLAY
 70
     0
  0
APPID
  2
ACDBBLOCKREPETAG
 70
     0
  0
APPID
  2
ACAECLAYERSTANDARD
 70
     0
  0
APPID
  2
ACCMTRANSPARENCY
 70
     0
  0
ENDTAB
  0
TABLE
  2
DIMSTYLE
 70
     4
  0
DIMSTYLE
  2
STANDARD
 70
     0
  3

  4

  5

  6

  7

 40
1.0
 41
0.18
 42
0.0625
 43
0.38
 44
0.18
 45
0.0
 46
0.0
 47
0.0
 48
0.0
140
0.18
141
0.09
142
0.0
143
25.3999999999999986
144
1.0
145
0.0
146
1.0
147
0.09
 71
     0
 72
     0
 73
     1
 74
     1
 75
     0
 76
     0
 77
     0
 78
     0
170
     0
171
     2
172
     0
173
     0
174
     0
175
     0
176
     0
177
     0
178
     0
  0
DIMSTYLE
  2
ISO-25
 70
     0
  3

  4

  5

  6

  7

 40
1.0
 41
2.5
 42
0.625
 43
3.75
 44
1.25
 45
0.0
 46
0.0
 47
0.0
 48
0.0
140
2.5
141
2.5
142
0.0
143
0.03937007874016
144
1.0
145
0.0
146
1.0
147
0.625
 71
     0
 72
     0
 73
     0
 74
     0
 75
     0
 76
     0
 77
     1
 78
     8
170
     0
171
     3
172
     1
173
     0
174
     0
175
     0
176
     0
177
     0
178
     0
  0
ENDTAB
  0
ENDSEC
  0
SECTION
  2
BLOCKS
  0
BLOCK
  8
0
  2
$MODEL_SPACE
 70
     0
 10
0.0
 20
0.0
 30
0.0
  3
$MODEL_SPACE
  1

  0
ENDBLK
  5
6DB
  8
0
  0
BLOCK
 67
     1
  8
0
  2
$PAPER_SPACE
 70
     0
 10
0.0
 20
0.0
 30
0.0
  3
$PAPER_SPACE
  1

  0
ENDBLK
  5
6D7
 67
     1
  8
0
  0
ENDSEC
  0
SECTION
  2
ENTITIES
  0
POLYLINE
  5
76E
  8
0
 62
     2
 66
     1
 10
0.0
 20
0.0
 30
0.0
 70
     1
  0
VERTEX
  5
954
  8
0
 62
     2
 10
34.9166114560582628
 20
139.5883497274525098
 30
0.0
 42
0.4142135623731216
  0
VERTEX
  5
955
  8
0
 62
     2
 10
34.6166114560582088
 20
139.8883497274526064
 30
0.0
  0
VERTEX
  5
956
  8
0
 62
     2
 10
13.2166470471891699
 20
139.8883497274526064
 30
0.0
 42
0.4142135623730985
  0
VERTEX
  5
957
  8
0
 62
     2
 10
12.9166470471891301
 20
139.5883497274525951
 30
0.0
  0
VERTEX
  5
958
  8
0
 62
     2
 10
12.9166470471899295
 20
68.7351870054216931
 30
0.0
 42
0.654301263549233
  0
VERTEX
  5
959
  8
0
 62
     2
 10
14.1761040939700003
 20
68.184774871211232
 30
0.0
  0
VERTEX
  5
95A
  8
0
 62
     2
 10
16.0166426095081889
 20
69.888362525498863
 30
0.0
  0
VERTEX
  5
95B
  8
0
 62
     2
 10
17.5824276734733509
 20
69.8883625254998293
 30
0.0
  0
VERTEX
  5
95C
  8
0
 62
     2
 10
18.4687038041542415
 20
70.0446369196973535
 30
0.0
 42
0.3639702342660109
  0
VERTEX
  5
95D
  8
0
 62
     2
 10
18.716609350853691
 20
70.3400792456006343
 30
0.0
  0
VERTEX
  5
95E
  8
0
 62
     2
 10
18.7166093508537195
 20
71.2625459249232733
 30
0.0
 42
0.1316524975877341
  0
VERTEX
  5
95F
  8
0
 62
     2
 10
18.6764169719890702
 20
71.4125459249228243
 30
0.0
  0
VERTEX
  5
960
  8
0
 62
     2
 10
18.1996220527442496
 20
72.2383789498430815
 30
0.0
 42
0.2679491924307735
  0
VERTEX
  5
961
  8
0
 62
     2
 10
17.9398144316091006
 20
72.3883789498427603
 30
0.0
  0
VERTEX
  5
962
  8
0
 62
     2
 10
16.8166114560597784
 20
72.3883789498427603
 30
0.0
 42
1.0639469859602231
  0
VERTEX
  5
963
  8
0
 62
     2
 10
16.46622093330609
 20
71.8547682025928793
 30
0.0
 42
-0.5990329924177055
  0
VERTEX
  5
964
  8
0
 62
     2
 10
16.2166114560583985
 20
71.3883497274518533
 30
0.0
  0
VERTEX
  5
965
  8
0
 62
     2
 10
15.1166114560600899
 20
71.388349727451839
 30
0.0
 42
-0.4142135623730995
  0
VERTEX
  5
966
  8
0
 62
     2
 10
14.8166114560600199
 20
71.6883497274519073
 30
0.0
  0
VERTEX
  5
967
  8
0
 62
     2
 10
14.8166114560600199
 20
76.0886900565437827
 30
0.0
 42
-0.4142135623723011
  0
VERTEX
  5
968
  8
0
 62
     2
 10
15.1166114560591804
 20
76.3886900565437514
 30
0.0
  0
VERTEX
  5
969
  8
0
 62
     2
 10
15.5166114560598007
 20
76.3886900565448315
 30
0.0
 42
0.4142135623723321
  0
VERTEX
  5
96A
  8
0
 62
     2
 10
15.8166114560596807
 20
76.6886900565455392
 30
0.0
  0
VERTEX
  5
96B
  8
0
 62
     2
 10
15.8166114560582294
 20
91.688349727451822
 30
0.0
 42
-0.4142135623731244
  0
VERTEX
  5
96C
  8
0
 62
     2
 10
16.1166114560582585
 20
91.988349727451876
 30
0.0
  0
VERTEX
  5
96D
  8
0
 62
     2
 10
17.7166114560585086
 20
91.988349727451876
 30
0.0
 42
-0.414213562372998
  0
VERTEX
  5
96E
  8
0
 62
     2
 10
18.01661145605852
 20
91.6883497274519641
 30
0.0
  0
VERTEX
  5
96F
  8
0
 62
     2
 10
18.0166114560597812
 20
87.9806566727518202
 30
0.0
 42
0.1316524975869663
  0
VERTEX
  5
970
  8
0
 62
     2
 10
18.0568038349242705
 20
87.8306566727521556
 30
0.0
  0
VERTEX
  5
971
  8
0
 62
     2
 10
18.6868999747653817
 20
86.7392981448909381
 30
0.0
 42
0.4136878900464861
  0
VERTEX
  5
972
  8
0
 62
     2
 10
19.0962409761286693
 20
86.6292216788319536
 30
0.0
  0
VERTEX
  5
973
  8
0
 62
     2
 10
19.7661448362858394
 20
87.0143891265258844
 30
0.0
 42
0.2684302435172051
  0
VERTEX
  5
974
  8
0
 62
     2
 10
19.9166114560582805
 20
87.2744655925853294
 30
0.0
  0
VERTEX
  5
975
  8
0
 62
     2
 10
19.9166114560592185
 20
99.8883497274516543
 30
0.0
 42
1.0
  0
VERTEX
  5
976
  8
0
 62
     2
 10
17.9166114560592185
 20
99.8883497274522938
 30
0.0
  0
VERTEX
  5
977
  8
0
 62
     2
 10
17.9166114560583409
 20
97.1383497274509011
 30
0.0
 42
-1.0
  0
VERTEX
  5
978
  8
0
 62
     2
 10
15.4166114560582805
 20
97.1383497274509011
 30
0.0
  0
VERTEX
  5
979
  8
0
 62
     2
 10
15.4166114560583107
 20
107.8883497274526064
 30
0.0
  0
VERTEX
  5
97A
  8
0
 62
     2
 10
14.9166114560583107
 20
108.3883497274515975
 30
0.0
  0
VERTEX
  5
97B
  8
0
 62
     2
 10
15.4166114560583107
 20
108.8883497274515975
 30
0.0
  0
VERTEX
  5
97C
  8
0
 62
     2
 10
15.4166114560582805
 20
119.638349727452507
 30
0.0
 42
-1.0
  0
VERTEX
  5
97D
  8
0
 62
     2
 10
17.916611456058309
 20
119.6383497274533028
 30
0.0
  0
VERTEX
  5
97E
  8
0
 62
     2
 10
17.9166114560592185
 20
116.8883497274529049
 30
0.0
 42
1.0
  0
VERTEX
  5
97F
  8
0
 62
     2
 10
19.9166114560592185
 20
116.8883497274529049
 30
0.0
  0
VERTEX
  5
980
  8
0
 62
     2
 10
19.9166114560566605
 20
130.0883497274516003
 30
0.0
 42
-0.4142134570579642
  0
VERTEX
  5
981
  8
0
 62
     2
 10
20.2166113481861096
 20
130.3883497274516117
 30
0.0
  0
VERTEX
  5
982
  8
0
 62
     2
 10
34.618374131668908
 20
130.3883549058726032
 30
0.0
 42
0.415935329458943
  0
VERTEX
  5
983
  8
0
 62
     2
 10
34.9166114560574385
 20
130.6883497274525894
 30
0.0
  0
SEQEND
  5
984
  8
0
 62
     2
  0
POLYLINE
  5
77B
  8
0
 62
     2
 66
     1
 10
0.0
 20
0.0
 30
0.0
 70
     1
  0
VERTEX
  5
985
  8
0
 62
     2
 10
37.9183741344803522
 20
92.388099346146987
 30
0.0
  0
VERTEX
  5
986
  8
0
 62
     2
 10
23.9166114560583409
 20
92.3882547475870268
 30
0.0
  0
VERTEX
  5
987
  8
0
 62
     2
 10
23.9166114560583409
 20
86.3883981448898766
 30
0.0
  0
VERTEX
  5
988
  8
0
 62
     2
 10
34.616655399965012
 20
86.3883981448898766
 30
0.0
  0
SEQEND
  5
989
  8
0
 62
     2
  0
POLYLINE
  5
77C
  8
0
 62
     2
 66
     1
 10
0.0
 20
0.0
 30
0.0
 70
     1
  0
VERTEX
  5
98A
  8
0
 62
     2
 10
23.9162562957237093
 20
124.3884132861096958
 30
0.0
  0
VERTEX
  5
98B
  8
0
 62
     2
 10
19.91661145605784
 20
124.3885686737517062
 30
0.0
  0
VERTEX
  5
98C
  8
0
 62
     2
 10
19.9166114560583303
 20
92.3882547515288337
 30
0.0
  0
VERTEX
  5
98D
  8
0
 62
     2
 10
23.9166114560583409
 20
92.3882547515288195
 30
0.0
  0
SEQEND
  5
98E
  8
0
 62
     2
  0
POLYLINE
  5
77D
  8
0
 62
     2
 66
     1
 10
0.0
 20
0.0
 30
0.0
 70
     1
  0
VERTEX
  5
98F
  8
0
 62
     2
 10
34.616608606772111
 20
130.3883549050183035
 30
0.0
  0
VERTEX
  5
990
  8
0
 62
     2
 10
23.9166114560583409
 20
130.3883497274516969
 30
0.0
  0
VERTEX
  5
991
  8
0
 62
     2
 10
23.9166114560583409
 20
124.3884132723115954
 30
0.0
  0
VERTEX
  5
992
  8
0
 62
     2
 10
37.9183741344803522
 20
124.3885686737517062
 30
0.0
  0
SEQEND
  5
993
  8
0
 62
     2
  0
POLYLINE
  5
7A6
  8
0
 62
     2
 66
     1
 10
0.0
 20
0.0
 30
0.0
 70
     1
  0
VERTEX
  5
997
  8
0
 62
     2
 10
34.7620522369285396
 20
85.2428074177600763
 30
0.0
 42
0.4374196901182818
  0
VERTEX
  5
998
  8
0
 62
     2
 10
34.8667691389179168
 20
85.6707834275374438
 30
0.0
 42
0.5531682007707955
  0
VERTEX
  5
999
  8
0
 62
     2
 10
34.4166093508519282
 20
86.3883981448898766
 30
0.0
  0
VERTEX
  5
99A
  8
0
 62
     2
 10
21.1666635296826797
 20
86.3883981448898766
 30
0.0
 42
-1.0060269493535099
  0
VERTEX
  5
99B
  8
0
 62
     2
 10
19.9666851941887593
 20
86.3883981448905161
 30
0.0
  0
VERTEX
  5
99C
  8
0
 62
     2
 10
17.966609350852039
 20
86.3883981448898766
 30
0.0
 42
-0.4142135623733305
  0
VERTEX
  5
99D
  8
0
 62
     2
 10
17.6666093508521307
 20
86.6883981448898311
 30
0.0
  0
VERTEX
  5
99E
  8
0
 62
     2
 10
17.6666093508537116
 20
89.9010117906457964
 30
0.0
 42
1.1077206549809691
  0
VERTEX
  5
99F
  8
0
 62
     2
 10
16.5375764979163193
 20
91.160077836612956
 30
0.0
  0
VERTEX
  5
9A0
  8
0
 62
     2
 10
15.9166093508519193
 20
87.6383981448907718
 30
0.0
  0
VERTEX
  5
9A1
  8
0
 62
     2
 10
15.9166093508529105
 20
76.0883981448908742
 30
0.0
 42
0.4142135623730702
  0
VERTEX
  5
9A2
  8
0
 62
     2
 10
16.2166093508529308
 20
75.7883981448908912
 30
0.0
  0
VERTEX
  5
9A3
  8
0
 62
     2
 10
17.3871991893401088
 20
75.7883981448908912
 30
0.0
 42
-0.2679491924313529
  0
VERTEX
  5
9A4
  8
0
 62
     2
 10
17.6470068104752507
 20
75.6383981448908429
 30
0.0
  0
VERTEX
  5
9A5
  8
0
 62
     2
 10
18.2243570796643688
 20
74.6383981448897487
 30
0.0
 42
-0.5773502691893473
  0
VERTEX
  5
9A6
  8
0
 62
     2
 10
17.7913443777723188
 20
73.8883981448908003
 30
0.0
  0
VERTEX
  5
9A7
  8
0
 62
     2
 10
15.2166093508505504
 20
73.8883981448908429
 30
0.0
 42
0.414213562374443
  0
VERTEX
  5
9A8
  8
0
 62
     2
 10
14.9166093508519104
 20
73.5883981448908457
 30
0.0
  0
VERTEX
  5
9A9
  8
0
 62
     2
 10
14.9166093508544293
 20
73.0383981448870117
 30
0.0
 42
0.3000210814290057
  0
VERTEX
  5
9AA
  8
0
 62
     2
 10
15.4923860172042698
 20
72.1652103663737279
 30
0.0
 42
0.3000210814307367
  0
VERTEX
  5
9AB
  8
0
 62
     2
 10
16.52178176464475
 20
72.3504671104079051
 30
0.0
 42
-0.1925824035677131
  0
VERTEX
  5
9AC
  8
0
 62
     2
 10
16.8666093508516397
 20
72.4883981448906809
 30
0.0
  0
VERTEX
  5
9AD
  8
0
 62
     2
 10
17.9166093508515694
 20
72.4883981448897998
 30
0.0
 42
-0.4142135623724627
  0
VERTEX
  5
9AE
  8
0
 62
     2
 10
18.7166093508519111
 20
71.6883981448898595
 30
0.0
  0
VERTEX
  5
9AF
  8
0
 62
     2
 10
18.716609350853691
 20
70.3400792456009611
 30
0.0
 42
0.3639161923171374
  0
VERTEX
  5
9B0
  8
0
 62
     2
 10
19.0166093508530807
 20
70.088398144889041
 30
0.0
  0
VERTEX
  5
9B1
  8
0
 62
     2
 10
26.0898415786717806
 20
70.088398144889041
 30
0.0
 42
0.802584851671606
  0
VERTEX
  5
9B2
  8
0
 62
     2
 10
26.7237689712830786
 20
72.9478598254457324
 30
0.0
  0
VERTEX
  5
9B3
  8
0
 62
     2
 10
20.9345562935294787
 20
75.6474140317695856
 30
0.0
 42
-0.2935135116511971
  0
VERTEX
  5
9B4
  8
0
 62
     2
 10
18.9167357558971183
 20
78.7883981449597997
 30
0.0
  0
VERTEX
  5
9B5
  8
0
 62
     2
 10
18.9166093533175683
 20
82.3883279198649348
 30
0.0
 42
-0.4142341309559923
  0
VERTEX
  5
9B6
  8
0
 62
     2
 10
19.916609350853701
 20
83.3883981448908003
 30
0.0
  0
VERTEX
  5
9B7
  8
0
 62
     2
 10
31.3390240755469307
 20
83.3883981448908571
 30
0.0
 42
0.127216068001025
  0
VERTEX
  5
9B8
  8
0
 62
     2
 10
31.4844669616208108
 20
83.4260122327490166
 30
0.0
  0
SEQEND
  5
9B9
  8
0
 62
     2
  0
POLYLINE
  5
842
  8
0
 62
     2
 66
     1
 10
0.0
 20
0.0
 30
0.0
 70
     1
  0
VERTEX
  5
9BA
  8
0
 62
     2
 10
31.0342096170698092
 20
82.8393791373751327
 30
0.0
  0
VERTEX
  5
9BB
  8
0
 62
     2
 10
31.682092493806671
 20
82.9014590079340792
 30
0.0
 42
0.7858567686058212
  0
VERTEX
  5
9BC
  8
0
 62
     2
 10
31.7519877777704984
 20
83.3883981448927329
 30
0.0
  0
VERTEX
  5
9BD
  8
0
 62
     2
 10
31.3390240755470906
 20
83.3883981448924345
 30
0.0
 42
0.1833142025536497
  0
VERTEX
  5
9BE
  8
0
 62
     2
 10
28.2446253803744405
 20
82.038349727455568
 30
0.0
  0
VERTEX
  5
9BF
  8
0
 62
     2
 10
26.8166491523943691
 20
80.6883013100186304
 30
0.0
  0
VERTEX
  5
9C0
  8
0
 62
     2
 10
28.8166491523943691
 20
80.6883013100186304
 30
0.0
  0
VERTEX
  5
9C1
  8
0
 62
     2
 10
29.6016359784043992
 20
81.7328144727866288
 30
0.0
 42
-0.1735034160695031
  0
SEQEND
  5
9C2
  8
0
 62
     2
  0
POLYLINE
  5
843
  8
0
 62
     2
 66
     1
 10
0.0
 20
0.0
 30
0.0
 70
     1
  0
VERTEX
  5
9C3
  8
0
 62
     2
 10
27.016609350853841
 20
83.3883981448924914
 30
0.0
  0
VERTEX
  5
9C4
  8
0
 62
     2
 10
26.4166093508538502
 20
83.3883981448924914
 30
0.0
 42
-0.3502857224856517
  0
VERTEX
  5
9C5
  8
0
 62
     2
 10
25.2434169245732392
 20
81.2883013100185252
 30
0.0
  0
VERTEX
  5
9C6
  8
0
 62
     2
 10
21.7434169245713207
 20
81.2883013100185252
 30
0.0
 42
0.2912768075631458
  0
VERTEX
  5
9C7
  8
0
 62
     2
 10
19.719638874695999
 20
79.7317963325705108
 30
0.0
 42
-0.5057796737552795
  0
VERTEX
  5
9C8
  8
0
 62
     2
 10
18.9167357558978502
 20
79.3883981448924914
 30
0.0
  0
VERTEX
  5
9C9
  8
0
 62
     2
 10
18.9166093508519495
 20
78.7883981448925965
 30
0.0
 42
0.422968729278449
  0
VERTEX
  5
9CA
  8
0
 62
     2
 10
20.2568230806906016
 20
79.3883981448924345
 30
0.0
 42
-0.3755467193936071
  0
VERTEX
  5
9CB
  8
0
 62
     2
 10
21.7434169245762696
 20
80.6883013100186872
 30
0.0
  0
VERTEX
  5
9CC
  8
0
 62
     2
 10
25.280033038484369
 20
80.6883013100186304
 30
0.0
 42
0.3861835673939807
  0
SEQEND
  5
9CD
  8
0
 62
     2
  0
POLYLINE
  5
856
  8
0
 62
     2
 66
     1
 10
0.0
 20
0.0
 30
0.0
 70
     1
  0
VERTEX
  5
9CE
  8
0
 62
     2
 10
28.1136196285514792
 20
71.0449031223367911
 30
0.0
 42
-0.5057796737553111
  0
VERTEX
  5
9CF
  8
0
 62
     2
 10
28.9165227473496387
 20
71.3883013100148247
 30
0.0
  0
VERTEX
  5
9D0
  8
0
 62
     2
 10
28.9166491523955607
 20
71.9883013100147338
 30
0.0
 42
0.4229687292784543
  0
VERTEX
  5
9D1
  8
0
 62
     2
 10
27.5764354225568908
 20
71.3883013100148673
 30
0.0
 42
-0.3755467193935988
  0
VERTEX
  5
9D2
  8
0
 62
     2
 10
26.0898415786712512
 20
70.0883981448886715
 30
0.0
  0
VERTEX
  5
9D3
  8
0
 62
     2
 10
22.5532254647631198
 20
70.0883981448887141
 30
0.0
 42
0.3861835673939808
  0
VERTEX
  5
9D4
  8
0
 62
     2
 10
20.8166491523936514
 20
67.3883013100148531
 30
0.0
  0
VERTEX
  5
9D5
  8
0
 62
     2
 10
21.4166491523936493
 20
67.3883013100148531
 30
0.0
 42
-0.3502857224856517
  0
VERTEX
  5
9D6
  8
0
 62
     2
 10
22.589841578674271
 20
69.4883981448888193
 30
0.0
  0
VERTEX
  5
9D7
  8
0
 62
     2
 10
26.0898415786761717
 20
69.4883981448888193
 30
0.0
 42
0.2912768075631405
  0
SEQEND
  5
9D8
  8
0
 62
     2
  0
POLYLINE
  5
857
  8
0
 62
     2
 66
     1
 10
0.0
 20
0.0
 30
0.0
 70
     1
  0
VERTEX
  5
9D9
  8
0
 62
     2
 10
21.0166093508531304
 20
70.0883981448887141
 30
0.0
  0
VERTEX
  5
9DA
  8
0
 62
     2
 10
19.0166093508531198
 20
70.0883981448887141
 30
0.0
  0
VERTEX
  5
9DB
  8
0
 62
     2
 10
18.2316225248431003
 20
69.0438849821207299
 30
0.0
 42
-0.1735034160695033
  0
VERTEX
  5
9DC
  8
0
 62
     2
 10
16.7990488861776903
 20
67.9373203175322118
 30
0.0
  0
VERTEX
  5
9DD
  8
0
 62
     2
 10
16.1511660094408285
 20
67.8752404469732653
 30
0.0
 42
0.7858567686058106
  0
VERTEX
  5
9DE
  8
0
 62
     2
 10
16.0812707254769798
 20
67.3883013100146258
 30
0.0
  0
VERTEX
  5
9DF
  8
0
 62
     2
 10
16.4942344277004196
 20
67.38830131001491
 30
0.0
 42
0.1833142025536498
  0
VERTEX
  5
9E0
  8
0
 62
     2
 10
19.5886331228730803
 20
68.7383497274518049
 30
0.0
  0
SEQEND
  5
9E1
  8
0
 62
     2
  0
POLYLINE
  5
8C1
  8
0
 62
     2
 66
     1
 10
0.0
 20
0.0
 30
0.0
 70
     1
  0
VERTEX
  5
9E2
  8
0
 62
     2
 10
29.116649152395599
 20
79.0883013100175702
 30
0.0
  0
VERTEX
  5
9E3
  8
0
 62
     2
 10
29.1166491523938191
 20
80.4366202093064544
 30
0.0
 42
0.3639161923171574
  0
VERTEX
  5
9E4
  8
0
 62
     2
 10
28.8166491523944011
 20
80.688301310018403
 30
0.0
  0
VERTEX
  5
9E5
  8
0
 62
     2
 10
21.7434169245757403
 20
80.688301310018403
 30
0.0
 42
0.802584851671607
  0
VERTEX
  5
9E6
  8
0
 62
     2
 10
21.1094895319644387
 20
77.8288396294616831
 30
0.0
  0
VERTEX
  5
9E7
  8
0
 62
     2
 10
26.8987022097180493
 20
75.1292854231378158
 30
0.0
 42
-0.2935135116511979
  0
VERTEX
  5
9E8
  8
0
 62
     2
 10
28.9165227473503883
 20
71.9883013099476443
 30
0.0
  0
VERTEX
  5
9E9
  8
0
 62
     2
 10
28.9166491499299383
 20
68.3883715350393118
 30
0.0
 42
-0.4142341309550656
  0
VERTEX
  5
9EA
  8
0
 62
     2
 10
27.9166491523937985
 20
67.3883013100166153
 30
0.0
  0
VERTEX
  5
9EB
  8
0
 62
     2
 10
16.4942344277006114
 20
67.3883013100165442
 30
0.0
 42
0.1272160680010242
  0
VERTEX
  5
9EC
  8
0
 62
     2
 10
16.34879154162671
 20
67.3506872221583848
 30
0.0
  0
VERTEX
  5
9ED
  8
0
 62
     2
 10
13.0712062663189705
 20
65.533892037147325
 30
0.0
 42
0.2726312918533711
  0
VERTEX
  5
9EE
  8
0
 62
     2
 10
12.9166491523938003
 20
65.2715061250057147
 30
0.0
  0
VERTEX
  5
9EF
  8
0
 62
     2
 10
12.9166491523955909
 20
64.8883013100151942
 30
0.0
 42
0.4142135623717249
  0
VERTEX
  5
9F0
  8
0
 62
     2
 10
13.4166491523955802
 20
64.388301310017539
 30
0.0
  0
VERTEX
  5
9F1
  8
0
 62
     2
 10
26.6665949735648518
 20
64.388301310017539
 30
0.0
 42
-1.006026949353471
  0
VERTEX
  5
9F2
  8
0
 62
     2
 10
27.8665733090587615
 20
64.3883013100169137
 30
0.0
  0
VERTEX
  5
9F3
  8
0
 62
     2
 10
29.8666491523954782
 20
64.388301310017539
 30
0.0
 42
-0.4142135623733306
  0
VERTEX
  5
9F4
  8
0
 62
     2
 10
30.1666491523953901
 20
64.0883013100175702
 30
0.0
  0
VERTEX
  5
9F5
  8
0
 62
     2
 10
30.1666491523938092
 20
60.8756876642616476
 30
0.0
 42
1.1077206549809699
  0
VERTEX
  5
9F6
  8
0
 62
     2
 10
31.2956820053312015
 20
59.6166216182944524
 30
0.0
  0
VERTEX
  5
9F7
  8
0
 62
     2
 10
31.9166491523955997
 20
63.1383013100166295
 30
0.0
  0
VERTEX
  5
9F8
  8
0
 62
     2
 10
31.9166491523945908
 20
74.6883013100165414
 30
0.0
 42
0.4142135623730693
  0
VERTEX
  5
9F9
  8
0
 62
     2
 10
31.6166491523946007
 20
74.9883013100165101
 30
0.0
  0
VERTEX
  5
9FA
  8
0
 62
     2
 10
30.4460593139074085
 20
74.9883013100165101
 30
0.0
 42
-0.2679491924313516
  0
VERTEX
  5
9FB
  8
0
 62
     2
 10
30.1862516927722702
 20
75.1383013100165442
 30
0.0
  0
VERTEX
  5
9FC
  8
0
 62
     2
 10
29.6089014235831307
 20
76.1383013100176811
 30
0.0
 42
-0.5773502691893536
  0
VERTEX
  5
9FD
  8
0
 62
     2
 10
30.0419141254751985
 20
76.8883013100166437
 30
0.0
  0
VERTEX
  5
9FE
  8
0
 62
     2
 10
32.6166491523969526
 20
76.8883013100165442
 30
0.0
 42
0.4142135623744461
  0
VERTEX
  5
9FF
  8
0
 62
     2
 10
32.9166491523955997
 20
77.1883013100165556
 30
0.0
  0
VERTEX
  5
A00
  8
0
 62
     2
 10
32.9166491523930915
 20
77.7383013100204039
 30
0.0
 42
0.3000210814290096
  0
VERTEX
  5
A01
  8
0
 62
     2
 10
32.3408724860432528
 20
78.6114890885336877
 30
0.0
 42
0.3000210814307453
  0
VERTEX
  5
A02
  8
0
 62
     2
 10
31.3114767386027388
 20
78.4262323444995104
 30
0.0
 42
-0.1925824035677282
  0
VERTEX
  5
A03
  8
0
 62
     2
 10
30.9666491523958101
 20
78.2883013100167204
 30
0.0
  0
VERTEX
  5
A04
  8
0
 62
     2
 10
29.9166491523958911
 20
78.2883013100176441
 30
0.0
 42
-0.4142135623724509
  0
SEQEND
  5
A05
  8
0
 62
     2
  0
POLYLINE
  5
8CE
  8
0
 62
     2
 66
     1
 10
0.0
 20
0.0
 30
0.0
 70
     1
  0
VERTEX
  5
A06
  8
0
 62
     2
 10
23.9166470471892012
 20
26.3882861825957207
 30
0.0
  0
VERTEX
  5
A07
  8
0
 62
     2
 10
9.914884368767197
 20
26.3881307811556809
 30
0.0
  0
VERTEX
  5
A08
  8
0
 62
     2
 10
13.21664989647544
 20
20.3883445498889486
 30
0.0
  0
VERTEX
  5
A09
  8
0
 62
     2
 10
23.9166470471892012
 20
20.3883497274557008
 30
0.0
  0
SEQEND
  5
A0A
  8
0
 62
     2
  0
POLYLINE
  5
8CF
  8
0
 62
     2
 66
     1
 10
0.0
 20
0.0
 30
0.0
 70
     1
  0
VERTEX
  5
A0B
  8
0
 62
     2
 10
27.9162918868546015
 20
58.3884447171766325
 30
0.0
  0
VERTEX
  5
A0C
  8
0
 62
     2
 10
23.9166470471887216
 20
58.388600104818579
 30
0.0
  0
VERTEX
  5
A0D
  8
0
 62
     2
 10
23.9166470471892012
 20
26.3882861825957207
 30
0.0
  0
VERTEX
  5
A0E
  8
0
 62
     2
 10
27.9166470471892083
 20
26.3882861825957207
 30
0.0
  0
SEQEND
  5
A0F
  8
0
 62
     2
  0
POLYLINE
  5
8D0
  8
0
 62
     2
 66
     1
 10
0.0
 20
0.0
 30
0.0
 70
     1
  0
VERTEX
  5
A10
  8
0
 62
     2
 10
23.9166470471887216
 20
64.3885365599586095
 30
0.0
  0
VERTEX
  5
A11
  8
0
 62
     2
 10
9.9148843687666997
 20
64.3883811585185413
 30
0.0
  0
VERTEX
  5
A12
  8
0
 62
     2
 10
13.2166498964749408
 20
58.3885949272518019
 30
0.0
  0
VERTEX
  5
A13
  8
0
 62
     2
 10
23.9166470471887216
 20
58.388600104818579
 30
0.0
  0
SEQEND
  5
A14
  8
0
 62
     2
  0
POLYLINE
  5
903
  8
0
 62
     2
 66
     1
 10
0.0
 20
0.0
 30
0.0
 70
     1
  0
VERTEX
  5
A15
  8
0
 62
     2
 10
34.916611456057602
 20
82.0415124494856514
 30
0.0
 42
0.6543012635492244
  0
VERTEX
  5
A16
  8
0
 62
     2
 10
33.6571544092775312
 20
82.5919245836961124
 30
0.0
  0
VERTEX
  5
A17
  8
0
 62
     2
 10
31.9028689616797188
 20
80.9681720757241834
 30
0.0
 42
-0.188893656123592
  0
VERTEX
  5
A18
  8
0
 62
     2
 10
31.6990861429679107
 20
80.8883369294084105
 30
0.0
  0
VERTEX
  5
A19
  8
0
 62
     2
 10
30.250830829774241
 20
80.8883369294075436
 30
0.0
  0
VERTEX
  5
A1A
  8
0
 62
     2
 10
29.3645546990933113
 20
80.7320625352100336
 30
0.0
 42
0.3639702342660204
  0
VERTEX
  5
A1B
  8
0
 62
     2
 10
29.1166491523938298
 20
80.4366202093067244
 30
0.0
  0
VERTEX
  5
A1C
  8
0
 62
     2
 10
29.1166491523938085
 20
79.5141535299840854
 30
0.0
 42
0.1316524975877308
  0
VERTEX
  5
A1D
  8
0
 62
     2
 10
29.1568415312584683
 20
79.3641535299845202
 30
0.0
  0
VERTEX
  5
A1E
  8
0
 62
     2
 10
29.6336364505032712
 20
78.5383205050642914
 30
0.0
 42
0.267949192430776
  0
VERTEX
  5
A1F
  8
0
 62
     2
 10
29.8934440716384096
 20
78.3883205050646268
 30
0.0
  0
VERTEX
  5
A20
  8
0
 62
     2
 10
31.0166470471877282
 20
78.3883205050645984
 30
0.0
 42
0.4142135623721886
  0
VERTEX
  5
A21
  8
0
 62
     2
 10
31.3166470471877503
 20
78.6883205050636718
 30
0.0
  0
VERTEX
  5
A22
  8
0
 62
     2
 10
31.3166470471889902
 20
79.0883497274563041
 30
0.0
 42
-0.4142135623721776
  0
VERTEX
  5
A23
  8
0
 62
     2
 10
31.6166470471891188
 20
79.3883497274555054
 30
0.0
  0
VERTEX
  5
A24
  8
0
 62
     2
 10
32.7166470471874504
 20
79.3883497274555339
 30
0.0
 42
-0.4142135623730995
  0
VERTEX
  5
A25
  8
0
 62
     2
 10
33.0166470471875115
 20
79.0883497274554941
 30
0.0
  0
VERTEX
  5
A26
  8
0
 62
     2
 10
33.0166470471875115
 20
74.6880093983635618
 30
0.0
 42
-0.4142135623723253
  0
VERTEX
  5
A27
  8
0
 62
     2
 10
32.7166470471883102
 20
74.3880093983635788
 30
0.0
  0
VERTEX
  5
A28
  8
0
 62
     2
 10
32.3166470471877503
 20
74.3880093983625414
 30
0.0
 42
0.4142135623723547
  0
VERTEX
  5
A29
  8
0
 62
     2
 10
32.0166470471878597
 20
74.0880093983618337
 30
0.0
  0
VERTEX
  5
A2A
  8
0
 62
     2
 10
32.0166470471892879
 20
59.0883497274555722
 30
0.0
 42
-0.4142135623731252
  0
VERTEX
  5
A2B
  8
0
 62
     2
 10
31.7166470471892588
 20
58.7883497274555111
 30
0.0
  0
VERTEX
  5
A2C
  8
0
 62
     2
 10
30.1166470471890193
 20
58.7883497274555111
 30
0.0
 42
-0.4142135623729997
  0
VERTEX
  5
A2D
  8
0
 62
     2
 10
29.8166470471890008
 20
59.0883497274554372
 30
0.0
  0
VERTEX
  5
A2E
  8
0
 62
     2
 10
29.8166470471877396
 20
62.7960427821555527
 30
0.0
 42
0.1316524975869645
  0
VERTEX
  5
A2F
  8
0
 62
     2
 10
29.7764546683232396
 20
62.9460427821552102
 30
0.0
  0
VERTEX
  5
A30
  8
0
 62
     2
 10
29.1463585284821391
 20
64.0374013100164348
 30
0.0
 42
0.4136878900464998
  0
VERTEX
  5
A31
  8
0
 62
     2
 10
28.7370175271188408
 20
64.1474777760754193
 30
0.0
  0
VERTEX
  5
A32
  8
0
 62
     2
 10
28.0671136669616601
 20
63.7623103283814388
 30
0.0
 42
0.2684302435171936
  0
VERTEX
  5
A33
  8
0
 62
     2
 10
27.9166470471892403
 20
63.502233862322008
 30
0.0
  0
VERTEX
  5
A34
  8
0
 62
     2
 10
27.9166470471883095
 20
50.8883497274556973
 30
0.0
 42
1.0
  0
VERTEX
  5
A35
  8
0
 62
     2
 10
29.9166470471883095
 20
50.8883497274550578
 30
0.0
  0
VERTEX
  5
A36
  8
0
 62
     2
 10
29.9166470471892012
 20
53.6383497274565073
 30
0.0
 42
-1.0
  0
VERTEX
  5
A37
  8
0
 62
     2
 10
32.4166470471892509
 20
53.6383497274565002
 30
0.0
  0
VERTEX
  5
A38
  8
0
 62
     2
 10
32.4166470471892083
 20
42.8883497274547807
 30
0.0
  0
VERTEX
  5
A39
  8
0
 62
     2
 10
32.9166470471892225
 20
42.3883497274556902
 30
0.0
  0
VERTEX
  5
A3A
  8
0
 62
     2
 10
32.4166470471892083
 20
41.8883497274556902
 30
0.0
  0
VERTEX
  5
A3B
  8
0
 62
     2
 10
32.4166470471892509
 20
31.1383497274548091
 30
0.0
 42
-1.0
  0
VERTEX
  5
A3C
  8
0
 62
     2
 10
29.9166470471892083
 20
31.1383497274539884
 30
0.0
  0
VERTEX
  5
A3D
  8
0
 62
     2
 10
29.9166470471883095
 20
33.8883497274544823
 30
0.0
 42
1.0
  0
VERTEX
  5
A3E
  8
0
 62
     2
 10
27.9166470471883095
 20
33.888349727454397
 30
0.0
  0
VERTEX
  5
A3F
  8
0
 62
     2
 10
27.916647047190871
 20
20.6883497274557797
 30
0.0
 42
-0.4142134570579634
  0
VERTEX
  5
A40
  8
0
 62
     2
 10
27.6166471550614183
 20
20.3883497274557186
 30
0.0
  0
VERTEX
  5
A41
  8
0
 62
     2
 10
13.2148843715786004
 20
20.3883445490346311
 30
0.0
 42
0.4159353294589413
  0
VERTEX
  5
A42
  8
0
 62
     2
 10
12.9166470471900805
 20
20.0883497274546805
 30
0.0
  0
VERTEX
  5
A43
  8
0
 62
     2
 10
12.9166470471892598
 20
11.1883497274548098
 30
0.0
 42
0.4142135623731235
  0
VERTEX
  5
A44
  8
0
 62
     2
 10
13.2166470471892303
 20
10.8883497274548002
 30
0.0
  0
VERTEX
  5
A45
  8
0
 62
     2
 10
34.6166114560583722
 20
10.8883497274548002
 30
0.0
 42
0.4142135623730986
  0
VERTEX
  5
A46
  8
0
 62
     2
 10
34.9166114560583765
 20
11.1883497274548205
 30
0.0
  0
SEQEND
  5
A47
  8
0
 62
     2
  0
ENDSEC
  0
EOF
