  0
SECTION
  2
HEADER
  9
$ACADVER
  1
AC1009
  9
$INSBASE
 10
0.0
 20
0.0
 30
0.0
  9
$EXTMIN
 10
5.2102670972354872
 20
2.59675667597537
 30
-0.0015258207003583
  9
$EXTMAX
 10
134.249268223356097
 20
30.6263126372665511
 30
0.0000000349246037
  9
$LIMMIN
 10
0.0
 20
0.0
  9
$LIMMAX
 10
420.0
 20
297.0
  9
$ORTHOMODE
 70
     1
  9
$REGENMODE
 70
     1
  9
$FILLMODE
 70
     1
  9
$QTEXTMODE
 70
     0
  9
$MIRRTEXT
 70
     0
  9
$DRAGMODE
 70
     2
  9
$LTSCALE
 40
1.0
  9
$OSMODE
 70
   167
  9
$ATTMODE
 70
     1
  9
$TEXTSIZE
 40
2.5
  9
$TRACEWID
 40
1.0
  9
$TEXTSTYLE
  7
STANDARD
  9
$CLAYER
  8
0
  9
$CELTYPE
  6
BYLAYER
  9
$CECOLOR
 62
    30
  9
$DIMSCALE
 40
1.0
  9
$DIMASZ
 40
2.5
  9
$DIMEXO
 40
0.625
  9
$DIMDLI
 40
3.75
  9
$DIMRND
 40
0.0
  9
$DIMDLE
 40
0.0
  9
$DIMEXE
 40
1.25
  9
$DIMTP
 40
0.0
  9
$DIMTM
 40
0.0
  9
$DIMTXT
 40
2.5
  9
$DIMCEN
 40
2.5
  9
$DIMTSZ
 40
0.0
  9
$DIMTOL
 70
     0
  9
$DIMLIM
 70
     0
  9
$DIMTIH
 70
     0
  9
$DIMTOH
 70
     0
  9
$DIMSE1
 70
     0
  9
$DIMSE2
 70
     0
  9
$DIMTAD
 70
     1
  9
$DIMZIN
 70
     8
  9
$DIMBLK
  1

  9
$DIMASO
 70
     1
  9
$DIMSHO
 70
     1
  9
$DIMPOST
  1

  9
$DIMAPOST
  1

  9
$DIMALT
 70
     0
  9
$DIMALTD
 70
     3
  9
$DIMALTF
 40
0.03937007874016
  9
$DIMLFAC
 40
1.0
  9
$DIMTOFL
 70
     1
  9
$DIMTVP
 40
0.0
  9
$DIMTIX
 70
     0
  9
$DIMSOXD
 70
     0
  9
$DIMSAH
 70
     0
  9
$DIMBLK1
  1

  9
$DIMBLK2
  1

  9
$DIMSTYLE
  2
ISO-25
  9
$DIMCLRD
 70
     0
  9
$DIMCLRE
 70
     0
  9
$DIMCLRT
 70
     0
  9
$DIMTFAC
 40
1.0
  9
$DIMGAP
 40
0.625
  9
$LUNITS
 70
     2
  9
$LUPREC
 70
     4
  9
$SKETCHINC
 40
1.0
  9
$FILLETRAD
 40
0.0
  9
$AUNITS
 70
     0
  9
$AUPREC
 70
     0
  9
$MENU
  1
.
  9
$ELEVATION
 40
0.0
  9
$PELEVATION
 40
0.0
  9
$THICKNESS
 40
0.0
  9
$LIMCHECK
 70
     0
  9
$BLIPMODE
 70
     0
  9
$CHAMFERA
 40
0.0
  9
$CHAMFERB
 40
0.0
  9
$SKPOLY
 70
     0
  9
$TDCREATE
 40
2458815.5936574079096317
  9
$TDUPDATE
 40
2458870.408333333209157
  9
$TDINDWG
 40
0.0944328704
  9
$TDUSRTIMER
 40
0.0944328704
  9
$USRTIMER
 70
     1
  9
$ANGBASE
 50
0.0
  9
$ANGDIR
 70
     0
  9
$PDMODE
 70
     0
  9
$PDSIZE
 40
0.0
  9
$PLINEWID
 40
0.0
  9
$COORDS
 70
     1
  9
$SPLFRAME
 70
     0
  9
$SPLINETYPE
 70
     6
  9
$SPLINESEGS
 70
     8
  9
$ATTDIA
 70
     1
  9
$ATTREQ
 70
     1
  9
$HANDLING
 70
     1
  9
$HANDSEED
  5
13C9
  9
$SURFTAB1
 70
     6
  9
$SURFTAB2
 70
     6
  9
$SURFTYPE
 70
     6
  9
$SURFU
 70
     6
  9
$SURFV
 70
     6
  9
$UCSNAME
  2

  9
$UCSORG
 10
0.0
 20
0.0
 30
0.0
  9
$UCSXDIR
 10
1.0
 20
0.0
 30
0.0
  9
$UCSYDIR
 10
0.0
 20
1.0
 30
0.0
  9
$PUCSNAME
  2

  9
$PUCSORG
 10
0.0
 20
0.0
 30
0.0
  9
$PUCSXDIR
 10
1.0
 20
0.0
 30
0.0
  9
$PUCSYDIR
 10
0.0
 20
1.0
 30
0.0
  9
$USERI1
 70
     0
  9
$USERI2
 70
     0
  9
$USERI3
 70
     0
  9
$USERI4
 70
     0
  9
$USERI5
 70
     0
  9
$USERR1
 40
0.0
  9
$USERR2
 40
0.0
  9
$USERR3
 40
0.0
  9
$USERR4
 40
0.0
  9
$USERR5
 40
0.0
  9
$WORLDVIEW
 70
     1
  9
$SHADEDGE
 70
     3
  9
$SHADEDIF
 70
    70
  9
$TILEMODE
 70
     1
  9
$MAXACTVP
 70
    64
  9
$PLIMCHECK
 70
     0
  9
$PEXTMIN
 10
0.0
 20
0.0
 30
0.0
  9
$PEXTMAX
 10
0.0
 20
0.0
 30
0.0
  9
$PLIMMIN
 10
0.0
 20
0.0
  9
$PLIMMAX
 10
12.0
 20
9.0
  9
$UNITMODE
 70
     0
  9
$VISRETAIN
 70
     1
  9
$PLINEGEN
 70
     0
  9
$PSLTSCALE
 70
     1
  0
ENDSEC
  0
SECTION
  2
TABLES
  0
TABLE
  2
VPORT
 70
     1
  0
VPORT
  2
*ACTIVE
 70
     0
 10
0.0
 20
0.0
 11
1.0
 21
1.0
 12
127.5215706007827947
 22
-23.9099658385273415
 13
0.0
 23
0.0
 14
10.0
 24
10.0
 15
10.0
 25
10.0
 16
0.0
 26
0.0
 36
1.0
 17
0.0
 27
0.0
 37
0.0
 40
144.6088092256709103
 41
2.29156626506024
 42
50.0
 43
0.0
 44
0.0
 50
0.0
 51
0.0
 71
     0
 72
  1000
 73
     1
 74
     3
 75
     0
 76
     1
 77
     0
 78
     0
  0
ENDTAB
  0
TABLE
  2
LTYPE
 70
     2
  0
LTYPE
  2
CONTINUOUS
 70
     0
  3
Solid line
 72
    65
 73
     0
 40
0.0
  0
ENDTAB
  0
TABLE
  2
LAYER
 70
     3
  0
LAYER
  2
0
 70
     0
 62
     7
  6
CONTINUOUS
  0
LAYER
  2
LAYER1
 70
     0
 62
     7
  6
CONTINUOUS
  0
LAYER
  2
DEFPOINTS
 70
     0
 62
     7
  6
CONTINUOUS
  0
ENDTAB
  0
TABLE
  2
STYLE
 70
     2
  0
STYLE
  2
STANDARD
 70
     0
 40
0.0
 41
1.0
 50
0.0
 71
     0
 42
2.5
  3
txt
  4

  0
ENDTAB
  0
TABLE
  2
VIEW
 70
     0
  0
ENDTAB
  0
TABLE
  2
UCS
 70
     0
  0
ENDTAB
  0
TABLE
  2
APPID
 70
    12
  0
APPID
  2
ACAD
 70
     0
  0
APPID
  2
ACADANNOTATIVE
 70
     0
  0
APPID
  2
ACAD_PSEXT
 70
     0
  0
APPID
  2
ACADANNOPO
 70
     0
  0
APPID
  2
ACAD_DSTYLE_DIMJAG
 70
     0
  0
APPID
  2
ACAD_DSTYLE_DIMTALN
 70
     0
  0
APPID
  2
ACAD_MLEADERVER
 70
     0
  0
APPID
  2
ACAD_NAV_VCDISPLAY
 70
     0
  0
APPID
  2
ACDBBLOCKREPETAG
 70
     0
  0
APPID
  2
ACAD_EXEMPT_FROM_CAD_STANDARDS
 70
     0
  0
APPID
  2
ACAECLAYERSTANDARD
 70
     0
  0
APPID
  2
ACCMTRANSPARENCY
 70
     0
  0
ENDTAB
  0
TABLE
  2
DIMSTYLE
 70
     4
  0
DIMSTYLE
  2
STANDARD
 70
     0
  3

  4

  5

  6

  7

 40
1.0
 41
0.18
 42
0.0625
 43
0.38
 44
0.18
 45
0.0
 46
0.0
 47
0.0
 48
0.0
140
0.18
141
0.09
142
0.0
143
25.3999999999999986
144
1.0
145
0.0
146
1.0
147
0.09
 71
     0
 72
     0
 73
     1
 74
     1
 75
     0
 76
     0
 77
     0
 78
     0
170
     0
171
     2
172
     0
173
     0
174
     0
175
     0
176
     0
177
     0
178
     0
  0
DIMSTYLE
  2
ISO-25
 70
     0
  3

  4

  5

  6

  7

 40
1.0
 41
2.5
 42
0.625
 43
3.75
 44
1.25
 45
0.0
 46
0.0
 47
0.0
 48
0.0
140
2.5
141
2.5
142
0.0
143
0.03937007874016
144
1.0
145
0.0
146
1.0
147
0.625
 71
     0
 72
     0
 73
     0
 74
     0
 75
     0
 76
     0
 77
     1
 78
     8
170
     0
171
     3
172
     1
173
     0
174
     0
175
     0
176
     0
177
     0
178
     0
  0
ENDTAB
  0
ENDSEC
  0
SECTION
  2
BLOCKS
  0
BLOCK
  8
0
  2
$MODEL_SPACE
 70
     0
 10
0.0
 20
0.0
 30
0.0
  3
$MODEL_SPACE
  1

  0
ENDBLK
  5
D6A
  8
0
  0
BLOCK
 67
     1
  8
0
  2
$PAPER_SPACE
 70
     0
 10
0.0
 20
0.0
 30
0.0
  3
$PAPER_SPACE
  1

  0
ENDBLK
  5
D66
 67
     1
  8
0
  0
ENDSEC
  0
SECTION
  2
ENTITIES
  0
POLYLINE
  5
1214
  8
0
 62
    30
 66
     1
 10
0.0
 20
0.0
 30
0.0
 70
     1
  0
VERTEX
  5
1277
  8
0
 62
    30
 10
76.3884875368748339
 20
12.2796579148821792
 30
0.0
  0
VERTEX
  5
1278
  8
0
 62
    30
 10
75.038439119436859
 20
13.7076341428633199
 30
0.0
  0
VERTEX
  5
1279
  8
0
 62
    30
 10
75.0384391194368447
 20
11.7076341428632507
 30
0.0
  0
VERTEX
  5
127A
  8
0
 62
    30
 10
76.0829522822052127
 20
10.9226473168529701
 30
0.0
 42
-0.1735034160695041
  0
VERTEX
  5
127B
  8
0
 62
    30
 10
77.1895169467936313
 20
9.4900736781875086
 30
0.0
  0
VERTEX
  5
127C
  8
0
 62
    30
 10
77.2515968173513841
 20
8.8421908014630262
 30
0.0
 42
0.7858567686253617
  0
VERTEX
  5
127D
  8
0
 62
    30
 10
77.7385359543111889
 20
8.7722955174868762
 30
0.0
  0
VERTEX
  5
127E
  8
0
 62
    30
 10
77.7385359543111178
 20
9.1852592197055891
 30
0.0
 42
0.183314202553846
  0
SEQEND
  5
127F
  8
0
 62
    30
  0
POLYLINE
  5
1215
  8
0
 62
    30
 66
     1
 10
0.0
 20
0.0
 30
0.0
 70
     1
  0
VERTEX
  5
1280
  8
0
 62
    30
 10
61.7384391194338917
 20
19.707634142863899
 30
0.0
  0
VERTEX
  5
1281
  8
0
 62
    30
 10
61.7384391194339983
 20
19.1076341428639012
 30
0.0
 42
-0.3502857224855592
  0
VERTEX
  5
1282
  8
0
 62
    30
 10
63.8385359543072965
 20
17.9344417165831409
 30
0.0
  0
VERTEX
  5
1283
  8
0
 62
    30
 10
63.8385359543072965
 20
14.4344417165809293
 30
0.0
 42
0.2912768075630813
  0
VERTEX
  5
1284
  8
0
 62
    30
 10
65.3950409317550339
 20
12.4106636667060002
 30
0.0
 42
-0.5057796737554298
  0
VERTEX
  5
1285
  8
0
 62
    30
 10
65.7384391194332807
 20
11.6077605479077999
 30
0.0
  0
VERTEX
  5
1286
  8
0
 62
    30
 10
66.3384391194332181
 20
11.6076341428618797
 30
0.0
  0
VERTEX
  5
1287
  8
0
 62
    30
 10
62.7385093444215372
 20
11.6076341453275091
 30
0.0
 42
-0.4142341309443993
  0
VERTEX
  5
1288
  8
0
 62
    30
 10
61.7384391194350926
 20
12.6076341428634802
 30
0.0
  0
VERTEX
  5
1289
  8
0
 62
    30
 10
61.7384391194350002
 20
24.0300488675568999
 30
0.0
 42
0.1272160680009841
  0
VERTEX
  5
128A
  8
0
 62
    30
 10
61.7008250315768265
 20
24.175491753630741
 30
0.0
  0
VERTEX
  5
128B
  8
0
 62
    30
 10
59.8840298465658023
 20
27.4530770289384805
 30
0.0
 42
0.2726312918533767
  0
VERTEX
  5
128C
  8
0
 62
    30
 10
59.6216439344241707
 20
27.6076341428636489
 30
0.0
  0
VERTEX
  5
128D
  8
0
 62
    30
 10
59.2384391194336501
 20
27.6076341428618797
 30
0.0
 42
0.4142135623717214
  0
VERTEX
  5
128E
  8
0
 62
    30
 10
58.7384391194360092
 20
27.1076341428618903
 30
0.0
  0
VERTEX
  5
128F
  8
0
 62
    30
 10
58.7384391194360092
 20
13.8576883216944804
 30
0.0
  0
VERTEX
  5
1290
  8
0
 62
    30
 10
58.7312282917417434
 20
11.0076346977722608
 30
0.0
 42
-0.4142135623707003
  0
VERTEX
  5
1291
  8
0
 62
    30
 10
58.4312282917417676
 20
10.7076346977750401
 30
0.0
  0
VERTEX
  5
1292
  8
0
 62
    30
 10
55.2258251911264608
 20
10.7076346977765802
 30
0.0
  0
VERTEX
  5
1293
  8
0
 62
    30
 10
54.5384391194440212
 20
10.7076341428533102
 30
0.0
  0
VERTEX
  5
1294
  8
0
 62
    30
 10
53.4384881110488479
 20
10.7076362480679101
 30
0.0
 42
0.4142141229462854
  0
VERTEX
  5
1295
  8
0
 62
    30
 10
53.1384875368739671
 20
10.4076362480684406
 30
0.0
  0
VERTEX
  5
1296
  8
0
 62
    30
 10
53.1384875368739529
 20
8.8076362480682047
 30
0.0
 42
0.414213562373126
  0
VERTEX
  5
1297
  8
0
 62
    30
 10
53.4384875368740211
 20
8.5076362480681755
 30
0.0
  0
VERTEX
  5
1298
  8
0
 62
    30
 10
68.4381472077803039
 20
8.5076362480696108
 30
0.0
 42
-0.4142135623723633
  0
VERTEX
  5
1299
  8
0
 62
    30
 10
68.7381472077810116
 20
8.2076362480697096
 30
0.0
  0
VERTEX
  5
129A
  8
0
 62
    30
 10
68.738147207782049
 20
7.8076362480691461
 30
0.0
 42
0.4142135623723355
  0
VERTEX
  5
129B
  8
0
 62
    30
 10
69.038147207782032
 20
7.5076362480699412
 30
0.0
  0
VERTEX
  5
129C
  8
0
 62
    30
 10
73.4384875368739642
 20
7.507636248069943
 30
0.0
 42
0.414213562373103
  0
VERTEX
  5
129D
  8
0
 62
    30
 10
73.7384875368740182
 20
7.8076362480700041
 30
0.0
  0
VERTEX
  5
129E
  8
0
 62
    30
 10
73.7384875368739898
 20
8.9076362480683375
 30
0.0
 42
0.4142135623721638
  0
VERTEX
  5
129F
  8
0
 62
    30
 10
73.4384875368747885
 20
9.2076362480684608
 30
0.0
  0
VERTEX
  5
12A0
  8
0
 62
    30
 10
73.038458314482142
 20
9.2076362480697185
 30
0.0
 42
-0.4142135623721784
  0
VERTEX
  5
12A1
  8
0
 62
    30
 10
72.7384583144830685
 20
9.5076362480697298
 30
0.0
  0
VERTEX
  5
12A2
  8
0
 62
    30
 10
72.7384583144830685
 20
10.6308392236190503
 30
0.0
 42
-0.2679491924307793
  0
VERTEX
  5
12A3
  8
0
 62
    30
 10
72.8884583144827332
 20
10.8906468447541904
 30
0.0
  0
VERTEX
  5
12A4
  8
0
 62
    30
 10
73.7142913394030046
 20
11.3674417639990004
 30
0.0
 42
-0.1316524975877191
  0
VERTEX
  5
12A5
  8
0
 62
    30
 10
73.8642913394025697
 20
11.4076341428636496
 30
0.0
  0
VERTEX
  5
12A6
  8
0
 62
    30
 10
74.7867580187249246
 20
11.4076341428636301
 30
0.0
 42
0.3639161923171588
  0
VERTEX
  5
12A7
  8
0
 62
    30
 10
75.0384391194368874
 20
11.7076341428630499
 30
0.0
  0
VERTEX
  5
12A8
  8
0
 62
    30
 10
75.038439119436859
 20
18.7808663706821584
 30
0.0
  0
VERTEX
  5
12A9
  8
0
 62
    30
 10
75.0384395894191982
 20
18.7808874382067401
 30
0.0
  0
VERTEX
  5
12AA
  8
0
 62
    30
 10
75.0384395894195251
 20
15.2442713242978805
 30
0.0
 42
0.3884532576539406
  0
VERTEX
  5
12AB
  8
0
 62
    30
 10
77.7385359543104073
 20
13.5076739444034892
 30
0.0
  0
VERTEX
  5
12AC
  8
0
 62
    30
 10
77.7385359543103078
 20
14.1076739444034605
 30
0.0
 42
-0.3502857224855486
  0
VERTEX
  5
12AD
  8
0
 62
    30
 10
75.6384391194370096
 20
15.2808663706842704
 30
0.0
  0
VERTEX
  5
12AE
  8
0
 62
    30
 10
75.6384391194370096
 20
18.7808663706859704
 30
0.0
 42
0.2912768075631815
  0
VERTEX
  5
12AF
  8
0
 62
    30
 10
74.0819341419887962
 20
20.8046444205614911
 30
0.0
 42
-0.505779673755189
  0
VERTEX
  5
12B0
  8
0
 62
    30
 10
73.7385359543109189
 20
21.6075475393596008
 30
0.0
  0
VERTEX
  5
12B1
  8
0
 62
    30
 10
73.1385359543110525
 20
21.6076739444055086
 30
0.0
  0
VERTEX
  5
12B2
  8
0
 62
    30
 10
73.1385359543782556
 20
21.6075475393603291
 30
0.0
  0
VERTEX
  5
12B3
  8
0
 62
    30
 10
76.7384657292328143
 20
21.6076739419398791
 30
0.0
 42
-0.4142341309707646
  0
VERTEX
  5
12B4
  8
0
 62
    30
 10
77.7385359543092704
 20
20.6076739444039099
 30
0.0
  0
VERTEX
  5
12B5
  8
0
 62
    30
 10
77.7385359543093131
 20
9.1852592197104634
 30
0.0
 42
0.1272160680009896
  0
VERTEX
  5
12B6
  8
0
 62
    30
 10
77.7761500421674867
 20
9.0398163336366295
 30
0.0
  0
VERTEX
  5
12B7
  8
0
 62
    30
 10
79.5929452271785465
 20
5.7622310583289043
 30
0.0
 42
0.2726312918533564
  0
VERTEX
  5
12B8
  8
0
 62
    30
 10
79.8553311393201568
 20
5.6076739444037393
 30
0.0
  0
VERTEX
  5
12B9
  8
0
 62
    30
 10
80.2385359543106347
 20
5.6076739444055193
 30
0.0
 42
0.414213562371734
  0
VERTEX
  5
12BA
  8
0
 62
    30
 10
80.7385359543083325
 20
6.1076739444055264
 30
0.0
  0
VERTEX
  5
12BB
  8
0
 62
    30
 10
80.7385359543082899
 20
22.2076718391978609
 30
0.0
 42
-0.4142134042696119
  0
VERTEX
  5
12BC
  8
0
 62
    30
 10
81.0385357923683785
 20
22.50767183919762
 30
0.0
  0
VERTEX
  5
12BD
  8
0
 62
    30
 10
84.9385359542994536
 20
22.5076739444140905
 30
0.0
  0
VERTEX
  5
12BE
  8
0
 62
    30
 10
86.0384869626954725
 20
22.5076718391994817
 30
0.0
 42
0.4142141229462847
  0
VERTEX
  5
12BF
  8
0
 62
    30
 10
86.3384875368703604
 20
22.8076718391989495
 30
0.0
  0
VERTEX
  5
12C0
  8
0
 62
    30
 10
86.338487536870332
 20
24.4076718391991996
 30
0.0
 42
0.4142135623731184
  0
VERTEX
  5
12C1
  8
0
 62
    30
 10
86.0384875368702779
 20
24.7076718391992216
 30
0.0
  0
VERTEX
  5
12C2
  8
0
 62
    30
 10
71.0388278659640662
 20
24.7076718391977899
 30
0.0
 42
-0.4142135623723322
  0
VERTEX
  5
12C3
  8
0
 62
    30
 10
70.7388278659633443
 20
25.0076718391976698
 30
0.0
  0
VERTEX
  5
12C4
  8
0
 62
    30
 10
70.7388278659623211
 20
25.4076718391983185
 30
0.0
 42
0.4142135623722815
  0
VERTEX
  5
12C5
  8
0
 62
    30
 10
70.4388278659623381
 20
25.7076718391974701
 30
0.0
  0
VERTEX
  5
12C6
  8
0
 62
    30
 10
66.0384875368704058
 20
25.7076718391974808
 30
0.0
 42
0.4142135623730951
  0
VERTEX
  5
12C7
  8
0
 62
    30
 10
65.7384875368703376
 20
25.407671839197409
 30
0.0
  0
VERTEX
  5
12C8
  8
0
 62
    30
 10
65.7384875368703661
 20
24.3076718391990916
 30
0.0
 42
0.4142135623721925
  0
VERTEX
  5
12C9
  8
0
 62
    30
 10
66.0384875368695674
 20
24.0076718391989417
 30
0.0
  0
VERTEX
  5
12CA
  8
0
 62
    30
 10
66.4385167592621997
 20
24.0076718391976804
 30
0.0
 42
-0.4142135623721575
  0
VERTEX
  5
12CB
  8
0
 62
    30
 10
66.7385167592612447
 20
23.7076718391976691
 30
0.0
  0
VERTEX
  5
12CC
  8
0
 62
    30
 10
66.7385167592612163
 20
22.5844688636483717
 30
0.0
 42
-0.267949192430794
  0
VERTEX
  5
12CD
  8
0
 62
    30
 10
66.5885167592615375
 20
22.3246612425132014
 30
0.0
  0
VERTEX
  5
12CE
  8
0
 62
    30
 10
65.7626837343412944
 20
21.8478663232683985
 30
0.0
 42
-0.1316524975877211
  0
VERTEX
  5
12CF
  8
0
 62
    30
 10
65.6126837343417435
 20
21.8076739444037386
 30
0.0
  0
VERTEX
  5
12D0
  8
0
 62
    30
 10
64.4385359543074685
 20
21.8076739444037315
 30
0.0
  0
VERTEX
  5
12D1
  8
0
 62
    30
 10
64.4385359543074685
 20
21.507673944404349
 30
0.0
  0
VERTEX
  5
12D2
  8
0
 62
    30
 10
64.4385359543074827
 20
17.9710578304932405
 30
0.0
 42
0.3861835673940465
  0
SEQEND
  5
12D3
  8
0
 62
    30
  0
POLYLINE
  5
1216
  8
0
 62
    30
 66
     1
 10
0.0
 20
0.0
 30
0.0
 70
     1
  0
VERTEX
  5
12D4
  8
0
 62
    30
 10
63.3940227915391574
 20
22.2926607704143791
 30
0.0
 42
-0.1735034160694873
  0
VERTEX
  5
12D5
  8
0
 62
    30
 10
62.2874581269507175
 20
23.7252344090796612
 30
0.0
  0
VERTEX
  5
12D6
  8
0
 62
    30
 10
62.2253782563956506
 20
24.3731172857760896
 30
0.0
 42
0.7858567686707371
  0
VERTEX
  5
12D7
  8
0
 62
    30
 10
61.7384391194331101
 20
24.4430125697805103
 30
0.0
  0
VERTEX
  5
12D8
  8
0
 62
    30
 10
61.7384391194331812
 20
24.0300488675611099
 30
0.0
 42
0.1833142025538855
  0
VERTEX
  5
12D9
  8
0
 62
    30
 10
63.0884875368704172
 20
20.9356501723841895
 30
0.0
  0
VERTEX
  5
12DA
  8
0
 62
    30
 10
64.4385359543074685
 20
19.5076739444040008
 30
0.0
  0
VERTEX
  5
12DB
  8
0
 62
    30
 10
64.4385359543074543
 20
21.5076739444041216
 30
0.0
  0
SEQEND
  5
12DC
  8
0
 62
    30
  0
POLYLINE
  5
1217
  8
0
 62
    30
 66
     1
 10
0.0
 20
0.0
 30
0.0
 70
     1
  0
VERTEX
  5
12DD
  8
0
 62
    30
 10
20.7382685905741688
 20
30.6093989264902717
 30
0.0
  0
VERTEX
  5
12DE
  8
0
 62
    30
 10
14.7384881189046393
 20
27.3074381311053287
 30
0.0
  0
VERTEX
  5
12DF
  8
0
 62
    30
 10
14.7384875368741692
 20
12.9076362601924206
 30
0.0
 42
0.4142135742116674
  0
VERTEX
  5
12E0
  8
0
 62
    30
 10
15.0384875368742108
 20
12.6076362480665995
 30
0.0
  0
VERTEX
  5
12E1
  8
0
 62
    30
 10
20.7382685905776292
 20
12.6076362480668998
 30
0.0
  0
SEQEND
  5
12E2
  8
0
 62
    30
  0
POLYLINE
  5
1218
  8
0
 62
    30
 66
     1
 10
0.0
 20
0.0
 30
0.0
 70
     1
  0
VERTEX
  5
12E3
  8
0
 62
    30
 10
58.738439119436002
 20
27.1077721877530209
 30
0.0
  0
VERTEX
  5
12E4
  8
0
 62
    30
 10
52.7382685905741795
 20
30.6093989264902611
 30
0.0
  0
VERTEX
  5
12E5
  8
0
 62
    30
 10
52.7382737689952421
 20
16.6076362480687507
 30
0.0
  0
VERTEX
  5
12E6
  8
0
 62
    30
 10
52.7381183675508112
 20
12.6076362480685997
 30
0.0
  0
VERTEX
  5
12E7
  8
0
 62
    30
 10
58.4748152161456929
 20
12.6060431807979896
 30
0.0
 42
-0.2684302435238751
  0
VERTEX
  5
12E8
  8
0
 62
    30
 10
58.7348916822125702
 20
12.45557656102552
 30
0.0
  0
VERTEX
  5
12E9
  8
0
 62
    30
 10
58.7384391194360092
 20
13.8576883216940807
 30
0.0
  0
SEQEND
  5
12EA
  8
0
 62
    30
  0
POLYLINE
  5
1219
  8
0
 62
    30
 66
     1
 10
0.0
 20
0.0
 30
0.0
 70
     1
  0
VERTEX
  5
12EB
  8
0
 62
    30
 10
52.7382737689952421
 20
16.6076362480687507
 30
0.0
  0
VERTEX
  5
12EC
  8
0
 62
    30
 10
52.7382737689908581
 20
16.6076480829136983
 30
0.0
  0
VERTEX
  5
12ED
  8
0
 62
    30
 10
20.7382685905768689
 20
16.6076362480682604
 30
0.0
  0
VERTEX
  5
12EE
  8
0
 62
    30
 10
20.7382685905776292
 20
12.6076362480668998
 30
0.0
  0
VERTEX
  5
12EF
  8
0
 62
    30
 10
52.7381183675508325
 20
12.6076362480685997
 30
0.0
  0
SEQEND
  5
12F0
  8
0
 62
    30
  0
POLYLINE
  5
121A
  8
0
 62
    30
 66
     1
 10
0.0
 20
0.0
 30
0.0
 70
     1
  0
VERTEX
  5
12F1
  8
0
 62
    30
 10
47.9884875368753185
 20
10.6076362480682693
 30
0.0
  0
VERTEX
  5
12F2
  8
0
 62
    30
 10
45.2384875368733574
 20
10.6076362480691504
 30
0.0
 42
-1.0
  0
VERTEX
  5
12F3
  8
0
 62
    30
 10
45.2384875368735493
 20
12.6076362480691504
 30
0.0
  0
VERTEX
  5
12F4
  8
0
 62
    30
 10
28.2384875368725297
 20
12.6076362480691504
 30
0.0
 42
-1.0
  0
VERTEX
  5
12F5
  8
0
 62
    30
 10
28.2384875368730484
 20
10.6076362480691504
 30
0.0
  0
VERTEX
  5
12F6
  8
0
 62
    30
 10
25.4884875368728707
 20
10.6076362480682604
 30
0.0
 42
1.0
  0
VERTEX
  5
12F7
  8
0
 62
    30
 10
25.4884875368730697
 20
8.1076362480682178
 30
0.0
  0
VERTEX
  5
12F8
  8
0
 62
    30
 10
36.2384875368741532
 20
8.1076362480682587
 30
0.0
  0
VERTEX
  5
12F9
  8
0
 62
    30
 10
36.7384875368741817
 20
7.6076362480682507
 30
0.0
  0
VERTEX
  5
12FA
  8
0
 62
    30
 10
37.2384875368732509
 20
8.1076362480682604
 30
0.0
  0
VERTEX
  5
12FB
  8
0
 62
    30
 10
47.988487536874942
 20
8.1076362480682231
 30
0.0
 42
1.0
  0
SEQEND
  5
12FC
  8
0
 62
    30
  0
POLYLINE
  5
121B
  8
0
 62
    30
 66
     1
 10
0.0
 20
0.0
 30
0.0
 70
     1
  0
VERTEX
  5
12FD
  8
0
 62
    30
 10
75.038439119436859
 20
18.7808663706817214
 30
0.0
 42
0.8025848516716109
  0
VERTEX
  5
12FE
  8
0
 62
    30
 10
72.1789774388801106
 20
19.4147937632930088
 30
0.0
  0
VERTEX
  5
12FF
  8
0
 62
    30
 10
69.4794232325559449
 20
13.6255810855386397
 30
0.0
 42
-0.2935135116511312
  0
VERTEX
  5
1300
  8
0
 62
    30
 10
66.3384391193661287
 20
11.6077605479070503
 30
0.0
  0
VERTEX
  5
1301
  8
0
 62
    30
 10
62.7385093444293318
 20
11.6076341453275091
 30
0.0
 42
-0.4142341309466804
  0
VERTEX
  5
1302
  8
0
 62
    30
 10
61.7384391194350997
 20
12.6076341428634802
 30
0.0
  0
VERTEX
  5
1303
  8
0
 62
    30
 10
61.7384391194350002
 20
24.0300488675568999
 30
0.0
 42
0.127216068000984
  0
VERTEX
  5
1304
  8
0
 62
    30
 10
61.7008250315768265
 20
24.175491753630741
 30
0.0
  0
VERTEX
  5
1305
  8
0
 62
    30
 10
59.8840298465658023
 20
27.4530770289384805
 30
0.0
 42
0.2726312918533767
  0
VERTEX
  5
1306
  8
0
 62
    30
 10
59.6216439344241707
 20
27.6076341428636489
 30
0.0
  0
VERTEX
  5
1307
  8
0
 62
    30
 10
59.2384391194336501
 20
27.6076341428618797
 30
0.0
 42
0.4142135623717214
  0
VERTEX
  5
1308
  8
0
 62
    30
 10
58.7384391194360092
 20
27.1076341428618903
 30
0.0
  0
VERTEX
  5
1309
  8
0
 62
    30
 10
58.7384391194360092
 20
13.8576883216944804
 30
0.0
  0
VERTEX
  5
130A
  8
0
 62
    30
 10
58.7312282917417434
 20
11.0076346977722608
 30
0.0
 42
-0.4142135623707003
  0
VERTEX
  5
130B
  8
0
 62
    30
 10
58.4312282917417676
 20
10.7076346977750401
 30
0.0
  0
VERTEX
  5
130C
  8
0
 62
    30
 10
55.2258251911264608
 20
10.7076346977765802
 30
0.0
  0
VERTEX
  5
130D
  8
0
 62
    30
 10
54.5384391194440212
 20
10.7076341428533102
 30
0.0
  0
VERTEX
  5
130E
  8
0
 62
    30
 10
53.4384881110488479
 20
10.7076362480679101
 30
0.0
 42
0.4142141229462854
  0
VERTEX
  5
130F
  8
0
 62
    30
 10
53.1384875368739671
 20
10.4076362480684406
 30
0.0
  0
VERTEX
  5
1310
  8
0
 62
    30
 10
53.1384875368739529
 20
8.8076362480682047
 30
0.0
 42
0.414213562373126
  0
VERTEX
  5
1311
  8
0
 62
    30
 10
53.4384875368740211
 20
8.5076362480681755
 30
0.0
  0
VERTEX
  5
1312
  8
0
 62
    30
 10
68.4381472077803039
 20
8.5076362480696108
 30
0.0
 42
-0.4142135623723633
  0
VERTEX
  5
1313
  8
0
 62
    30
 10
68.7381472077810116
 20
8.2076362480697096
 30
0.0
  0
VERTEX
  5
1314
  8
0
 62
    30
 10
68.738147207782049
 20
7.8076362480691461
 30
0.0
 42
0.4142135623723355
  0
VERTEX
  5
1315
  8
0
 62
    30
 10
69.038147207782032
 20
7.5076362480699412
 30
0.0
  0
VERTEX
  5
1316
  8
0
 62
    30
 10
73.4384875368739642
 20
7.507636248069943
 30
0.0
 42
0.414213562373103
  0
VERTEX
  5
1317
  8
0
 62
    30
 10
73.7384875368740182
 20
7.8076362480700041
 30
0.0
  0
VERTEX
  5
1318
  8
0
 62
    30
 10
73.7384875368739898
 20
8.9076362480683375
 30
0.0
 42
0.4142135623721638
  0
VERTEX
  5
1319
  8
0
 62
    30
 10
73.4384875368747885
 20
9.2076362480684608
 30
0.0
  0
VERTEX
  5
131A
  8
0
 62
    30
 10
73.038458314482142
 20
9.2076362480697185
 30
0.0
 42
-0.4142135623721784
  0
VERTEX
  5
131B
  8
0
 62
    30
 10
72.7384583144830685
 20
9.5076362480697298
 30
0.0
  0
VERTEX
  5
131C
  8
0
 62
    30
 10
72.7384583144830685
 20
10.6308392236190503
 30
0.0
 42
-0.2679491924307793
  0
VERTEX
  5
131D
  8
0
 62
    30
 10
72.8884583144827332
 20
10.8906468447541904
 30
0.0
  0
VERTEX
  5
131E
  8
0
 62
    30
 10
73.7142913394030046
 20
11.3674417639990004
 30
0.0
 42
-0.1316524975877191
  0
VERTEX
  5
131F
  8
0
 62
    30
 10
73.8642913394025697
 20
11.4076341428636496
 30
0.0
  0
VERTEX
  5
1320
  8
0
 62
    30
 10
74.7867580187249246
 20
11.4076341428636301
 30
0.0
 42
0.3639161923171588
  0
VERTEX
  5
1321
  8
0
 62
    30
 10
75.0384391194368874
 20
11.7076341428630499
 30
0.0
  0
SEQEND
  5
1322
  8
0
 62
    30
  0
POLYLINE
  5
121C
  8
0
 62
    30
 66
     1
 10
0.0
 20
0.0
 30
0.0
 70
     1
  0
VERTEX
  5
1323
  8
0
 62
    30
 10
86.338487536870332
 20
24.4076718391991996
 30
0.0
 42
0.4142135623731211
  0
VERTEX
  5
1324
  8
0
 62
    30
 10
86.0384875368702779
 20
24.7076718391992216
 30
0.0
  0
VERTEX
  5
1325
  8
0
 62
    30
 10
71.0388278659640662
 20
24.7076718391977899
 30
0.0
 42
-0.4142135623723322
  0
VERTEX
  5
1326
  8
0
 62
    30
 10
70.7388278659633443
 20
25.0076718391976698
 30
0.0
  0
VERTEX
  5
1327
  8
0
 62
    30
 10
70.7388278659623211
 20
25.4076718391983185
 30
0.0
 42
0.4142135623722815
  0
VERTEX
  5
1328
  8
0
 62
    30
 10
70.4388278659623381
 20
25.7076718391974701
 30
0.0
  0
VERTEX
  5
1329
  8
0
 62
    30
 10
66.0384875368704058
 20
25.7076718391974808
 30
0.0
 42
0.4142135623730951
  0
VERTEX
  5
132A
  8
0
 62
    30
 10
65.7384875368703376
 20
25.407671839197409
 30
0.0
  0
VERTEX
  5
132B
  8
0
 62
    30
 10
65.7384875368703661
 20
24.3076718391990916
 30
0.0
 42
0.4142135623721925
  0
VERTEX
  5
132C
  8
0
 62
    30
 10
66.0384875368695674
 20
24.0076718391989417
 30
0.0
  0
VERTEX
  5
132D
  8
0
 62
    30
 10
66.4385167592621997
 20
24.0076718391976804
 30
0.0
 42
-0.4142135623721575
  0
VERTEX
  5
132E
  8
0
 62
    30
 10
66.7385167592612447
 20
23.7076718391976691
 30
0.0
  0
VERTEX
  5
132F
  8
0
 62
    30
 10
66.7385167592612163
 20
22.5844688636483717
 30
0.0
 42
-0.267949192430794
  0
VERTEX
  5
1330
  8
0
 62
    30
 10
66.5885167592615375
 20
22.3246612425132014
 30
0.0
  0
VERTEX
  5
1331
  8
0
 62
    30
 10
65.7626837343412944
 20
21.8478663232683985
 30
0.0
 42
-0.1316524975877211
  0
VERTEX
  5
1332
  8
0
 62
    30
 10
65.6126837343417435
 20
21.8076739444037386
 30
0.0
  0
VERTEX
  5
1333
  8
0
 62
    30
 10
64.4385359543074685
 20
21.8076739444037315
 30
0.0
  0
VERTEX
  5
1334
  8
0
 62
    30
 10
64.4385359543074685
 20
21.507673944404349
 30
0.0
  0
VERTEX
  5
1335
  8
0
 62
    30
 10
64.4385359543074969
 20
14.4344417165856704
 30
0.0
 42
0.8025848516716081
  0
VERTEX
  5
1336
  8
0
 62
    30
 10
67.2979976348642452
 20
13.8005143239743795
 30
0.0
  0
VERTEX
  5
1337
  8
0
 62
    30
 10
69.9975518411883968
 20
19.5897270017287184
 30
0.0
 42
-0.2935135116511312
  0
VERTEX
  5
1338
  8
0
 62
    30
 10
73.1385359543782414
 20
21.6075475393603291
 30
0.0
  0
VERTEX
  5
1339
  8
0
 62
    30
 10
76.7384657292359691
 20
21.6076739419398791
 30
0.0
 42
-0.4142341309698386
  0
VERTEX
  5
133A
  8
0
 62
    30
 10
77.7385359543092704
 20
20.6076739444039099
 30
0.0
  0
VERTEX
  5
133B
  8
0
 62
    30
 10
77.7385359543093131
 20
9.1852592197104634
 30
0.0
 42
0.1272160680009896
  0
VERTEX
  5
133C
  8
0
 62
    30
 10
77.7761500421674867
 20
9.0398163336366295
 30
0.0
  0
VERTEX
  5
133D
  8
0
 62
    30
 10
79.5929452271785465
 20
5.7622310583289043
 30
0.0
 42
0.2726312918533564
  0
VERTEX
  5
133E
  8
0
 62
    30
 10
79.8553311393201568
 20
5.6076739444037393
 30
0.0
  0
VERTEX
  5
133F
  8
0
 62
    30
 10
80.2385359543106347
 20
5.6076739444055193
 30
0.0
 42
0.414213562371734
  0
VERTEX
  5
1340
  8
0
 62
    30
 10
80.7385359543083325
 20
6.1076739444055264
 30
0.0
  0
VERTEX
  5
1341
  8
0
 62
    30
 10
80.7385359543082899
 20
22.2076718391978609
 30
0.0
 42
-0.4142134042696119
  0
VERTEX
  5
1342
  8
0
 62
    30
 10
81.0385357923683785
 20
22.50767183919762
 30
0.0
  0
VERTEX
  5
1343
  8
0
 62
    30
 10
84.9385359542994536
 20
22.5076739444140905
 30
0.0
  0
VERTEX
  5
1344
  8
0
 62
    30
 10
86.0384869626954725
 20
22.5076718391994817
 30
0.0
 42
0.4142141229462847
  0
VERTEX
  5
1345
  8
0
 62
    30
 10
86.3384875368703604
 20
22.8076718391989495
 30
0.0
  0
SEQEND
  5
1346
  8
0
 62
    30
  0
POLYLINE
  5
121D
  8
0
 62
    30
 66
     1
 10
0.0
 20
0.0
 30
0.0
 70
     1
  0
VERTEX
  5
1347
  8
0
 62
    30
 10
86.7383925570055538
 20
16.6076718391991101
 30
0.0
  0
VERTEX
  5
1348
  8
0
 62
    30
 10
86.7383925609473323
 20
20.6076718391992415
 30
0.0
  0
VERTEX
  5
1349
  8
0
 62
    30
 10
80.7385359543084462
 20
20.6076718391989893
 30
0.0
  0
VERTEX
  5
134A
  8
0
 62
    30
 10
80.7385359543083325
 20
6.1076739444055006
 30
0.0
  0
VERTEX
  5
134B
  8
0
 62
    30
 10
86.7382371555654572
 20
2.605909160777109
 30
0.0
  0
SEQEND
  5
134C
  8
0
 62
    30
  0
POLYLINE
  5
121E
  8
0
 62
    30
 66
     1
 10
0.0
 20
0.0
 30
0.0
 70
     1
  0
VERTEX
  5
134D
  8
0
 62
    30
 10
124.7384875366415002
 20
20.3076601274004105
 30
0.0
 42
0.4142249967756858
  0
VERTEX
  5
134E
  8
0
 62
    30
 10
124.4384875368700989
 20
20.6076718392007798
 30
0.0
  0
VERTEX
  5
134F
  8
0
 62
    30
 10
118.7380817501833974
 20
20.6076718392005382
 30
0.0
  0
VERTEX
  5
1350
  8
0
 62
    30
 10
118.7380817501835963
 20
16.6080269943246108
 30
0.0
  0
VERTEX
  5
1351
  8
0
 62
    30
 10
118.7382371555654004
 20
2.6059091607771121
 30
0.0
  0
VERTEX
  5
1352
  8
0
 62
    30
 10
124.7379383568224966
 20
6.107673944405505
 30
0.0
  0
SEQEND
  5
1353
  8
0
 62
    30
  0
POLYLINE
  5
121F
  8
0
 62
    30
 66
     1
 10
0.0
 20
0.0
 30
0.0
 70
     1
  0
VERTEX
  5
1354
  8
0
 62
    30
 10
118.7380817501833974
 20
20.6076718392005596
 30
0.0
  0
VERTEX
  5
1355
  8
0
 62
    30
 10
86.7383925609473323
 20
20.6076718391992415
 30
0.0
  0
VERTEX
  5
1356
  8
0
 62
    30
 10
86.7383925570055538
 20
16.6076718391990603
 30
0.0
  0
VERTEX
  5
1357
  8
0
 62
    30
 10
118.7380817501835963
 20
16.6080269943246108
 30
0.0
  0
SEQEND
  5
1358
  8
0
 62
    30
  0
POLYLINE
  5
1220
  8
0
 62
    30
 66
     1
 10
0.0
 20
0.0
 30
0.0
 70
     1
  0
VERTEX
  5
1359
  8
0
 62
    30
 10
111.238487536871304
 20
22.6076718391982183
 30
0.0
  0
VERTEX
  5
135A
  8
0
 62
    30
 10
113.9884875368719008
 20
22.6076718391991314
 30
0.0
 42
1.0
  0
VERTEX
  5
135B
  8
0
 62
    30
 10
113.9884875368714034
 20
25.1076718391991811
 30
0.0
  0
VERTEX
  5
135C
  8
0
 62
    30
 10
103.2384875368701955
 20
25.1076718391991491
 30
0.0
  0
VERTEX
  5
135D
  8
0
 62
    30
 10
102.7384875368700961
 20
25.6076718391992095
 30
0.0
  0
VERTEX
  5
135E
  8
0
 62
    30
 10
102.238487536871105
 20
25.1076718391991314
 30
0.0
  0
VERTEX
  5
135F
  8
0
 62
    30
 10
91.4884875368693713
 20
25.1076718391991811
 30
0.0
 42
1.0
  0
VERTEX
  5
1360
  8
0
 62
    30
 10
91.4884875368689592
 20
22.6076718391991314
 30
0.0
  0
VERTEX
  5
1361
  8
0
 62
    30
 10
94.238487536870835
 20
22.607671839198261
 30
0.0
 42
-1.0
  0
VERTEX
  5
1362
  8
0
 62
    30
 10
94.238487536870565
 20
20.6076718391982503
 30
0.0
  0
VERTEX
  5
1363
  8
0
 62
    30
 10
111.2384875368717019
 20
20.607671839198229
 30
0.0
 42
-1.0
  0
SEQEND
  5
1364
  8
0
 62
    30
  0
POLYLINE
  5
1221
  8
0
 62
    30
 66
     1
 10
0.0
 20
0.0
 30
0.0
 70
     1
  0
VERTEX
  5
1365
  8
0
 62
    30
 10
134.238487536871105
 20
27.307636248068281
 30
0.0
 42
0.4142135623730984
  0
VERTEX
  5
1366
  8
0
 62
    30
 10
133.9384875368710084
 20
27.6076362480682995
 30
0.0
  0
VERTEX
  5
1367
  8
0
 62
    30
 10
63.0853248148402201
 20
27.6076362480675606
 30
0.0
 42
0.654301263549228
  0
VERTEX
  5
1368
  8
0
 62
    30
 10
62.5349126806297377
 20
26.3481792012874791
 30
0.0
  0
VERTEX
  5
1369
  8
0
 62
    30
 10
64.1586651886016455
 20
24.5938937536896489
 30
0.0
 42
-0.1888936561235885
  0
VERTEX
  5
136A
  8
0
 62
    30
 10
64.2385003349174326
 20
24.3901109349778586
 30
0.0
  0
VERTEX
  5
136B
  8
0
 62
    30
 10
64.2385003349183137
 20
22.9418556217841285
 30
0.0
  0
VERTEX
  5
136C
  8
0
 62
    30
 10
64.3947747291158521
 20
22.0555794911032201
 30
0.0
  0
VERTEX
  5
136D
  8
0
 62
    30
 10
64.4385359543074685
 20
21.8076739444037315
 30
0.0
  0
VERTEX
  5
136E
  8
0
 62
    30
 10
65.6126837343417435
 20
21.8076739444037386
 30
0.0
 42
0.1316524975877141
  0
VERTEX
  5
136F
  8
0
 62
    30
 10
65.7626837343412944
 20
21.8478663232683985
 30
0.0
  0
VERTEX
  5
1370
  8
0
 62
    30
 10
66.5885167592615375
 20
22.3246612425131907
 30
0.0
 42
0.2679491924307802
  0
VERTEX
  5
1371
  8
0
 62
    30
 10
66.7385167592612163
 20
22.5844688636483504
 30
0.0
  0
VERTEX
  5
1372
  8
0
 62
    30
 10
66.7385167592612447
 20
23.7076718391976407
 30
0.0
 42
0.4142135623722005
  0
VERTEX
  5
1373
  8
0
 62
    30
 10
66.4385167592621713
 20
24.0076718391976804
 30
0.0
  0
VERTEX
  5
1374
  8
0
 62
    30
 10
66.0384875368695816
 20
24.0076718391989417
 30
0.0
 42
-0.414213562372188
  0
VERTEX
  5
1375
  8
0
 62
    30
 10
65.7384875368703661
 20
24.3076718391990809
 30
0.0
  0
VERTEX
  5
1376
  8
0
 62
    30
 10
65.7384875368703376
 20
25.4076718391973913
 30
0.0
 42
-0.4142135623731141
  0
VERTEX
  5
1377
  8
0
 62
    30
 10
66.0384875368704058
 20
25.7076718391974808
 30
0.0
  0
VERTEX
  5
1378
  8
0
 62
    30
 10
70.4388278659623381
 20
25.7076718391974701
 30
0.0
 42
-0.4142135623723024
  0
VERTEX
  5
1379
  8
0
 62
    30
 10
70.7388278659623211
 20
25.4076718391983007
 30
0.0
  0
VERTEX
  5
137A
  8
0
 62
    30
 10
70.7388278659633443
 20
25.0076718391977302
 30
0.0
 42
0.4142135623723944
  0
VERTEX
  5
137B
  8
0
 62
    30
 10
71.0388278659640662
 20
24.7076718391977899
 30
0.0
  0
VERTEX
  5
137C
  8
0
 62
    30
 10
86.0384875368702779
 20
24.7076718391992216
 30
0.0
 42
-0.4142135623731211
  0
VERTEX
  5
137D
  8
0
 62
    30
 10
86.338487536870332
 20
24.4076718391991996
 30
0.0
  0
VERTEX
  5
137E
  8
0
 62
    30
 10
86.3384875368703604
 20
22.8076718391989601
 30
0.0
 42
-0.4142135623730283
  0
VERTEX
  5
137F
  8
0
 62
    30
 10
86.0384875368704058
 20
22.507671839198931
 30
0.0
  0
VERTEX
  5
1380
  8
0
 62
    30
 10
81.0385359543080455
 20
22.5076718391976698
 30
0.0
 42
0.4142135623730238
  0
VERTEX
  5
1381
  8
0
 62
    30
 10
80.7385359543082757
 20
22.2076718391978609
 30
0.0
  0
VERTEX
  5
1382
  8
0
 62
    30
 10
80.7385359543082899
 20
20.6076718391989893
 30
0.0
  0
VERTEX
  5
1383
  8
0
 62
    30
 10
94.2384875368705508
 20
20.6076718391982503
 30
0.0
 42
1.0
  0
VERTEX
  5
1384
  8
0
 62
    30
 10
94.2384875368709913
 20
22.607671839198261
 30
0.0
  0
VERTEX
  5
1385
  8
0
 62
    30
 10
91.4884875368689734
 20
22.6076718391991314
 30
0.0
 42
-1.0
  0
VERTEX
  5
1386
  8
0
 62
    30
 10
91.4884875368691866
 20
25.1076718391991811
 30
0.0
  0
VERTEX
  5
1387
  8
0
 62
    30
 10
102.238487536871105
 20
25.1076718391991314
 30
0.0
  0
VERTEX
  5
1388
  8
0
 62
    30
 10
102.7384875368700961
 20
25.6076718391992095
 30
0.0
  0
VERTEX
  5
1389
  8
0
 62
    30
 10
103.2384875368701955
 20
25.1076718391991491
 30
0.0
  0
VERTEX
  5
138A
  8
0
 62
    30
 10
113.9884875368714034
 20
25.1076718391991811
 30
0.0
 42
-1.0
  0
VERTEX
  5
138B
  8
0
 62
    30
 10
113.9884875368720998
 20
22.6076718391991314
 30
0.0
  0
VERTEX
  5
138C
  8
0
 62
    30
 10
111.238487536871304
 20
22.6076718391982183
 30
0.0
 42
1.0
  0
VERTEX
  5
138D
  8
0
 62
    30
 10
111.2384875368712045
 20
20.607671839198229
 30
0.0
  0
VERTEX
  5
138E
  8
0
 62
    30
 10
124.4384875368699994
 20
20.6076718392007798
 30
0.0
 42
-0.41422499677573
  0
VERTEX
  5
138F
  8
0
 62
    30
 10
124.7384875366415002
 20
20.3076601274004105
 30
0.0
  0
VERTEX
  5
1390
  8
0
 62
    30
 10
124.7384927152910024
 20
20.3076718392007685
 30
0.0
  0
VERTEX
  5
1391
  8
0
 62
    30
 10
124.7379383568224966
 20
6.1076739444055761
 30
0.0
  0
VERTEX
  5
1392
  8
0
 62
    30
 10
124.7384972175468931
 20
5.904270518689116
 30
0.0
 42
0.4143250233312644
  0
VERTEX
  5
1393
  8
0
 62
    30
 10
125.0384875368688
 20
5.607671839200008
 30
0.0
  0
VERTEX
  5
1394
  8
0
 62
    30
 10
133.9384875368710084
 20
5.6076718391991838
 30
0.0
 42
0.4142135623731227
  0
VERTEX
  5
1395
  8
0
 62
    30
 10
134.2384875368709913
 20
5.9076718391992236
 30
0.0
  0
SEQEND
  5
1396
  8
0
 62
    30
  0
POLYLINE
  5
1222
  8
0
 62
    30
 66
     1
 10
0.0
 20
0.0
 30
0.0
 70
     1
  0
VERTEX
  5
1397
  8
0
 62
    30
 10
5.2384875368731789
 20
5.9076718391990957
 30
0.0
 42
0.4142135623730984
  0
VERTEX
  5
1398
  8
0
 62
    30
 10
5.5384875368731912
 20
5.6076718391990852
 30
0.0
  0
VERTEX
  5
1399
  8
0
 62
    30
 10
76.3916502589040363
 20
5.607671839199817
 30
0.0
 42
0.654301263549228
  0
VERTEX
  5
139A
  8
0
 62
    30
 10
76.9420623931145116
 20
6.867128885979894
 30
0.0
  0
VERTEX
  5
139B
  8
0
 62
    30
 10
75.3183098851426109
 20
8.6214143335777216
 30
0.0
 42
-0.1888936561235885
  0
VERTEX
  5
139C
  8
0
 62
    30
 10
75.2384747388268238
 20
8.8251971522895154
 30
0.0
  0
VERTEX
  5
139D
  8
0
 62
    30
 10
75.2384747388259427
 20
10.2734524654832402
 30
0.0
  0
VERTEX
  5
139E
  8
0
 62
    30
 10
75.0822003446284043
 20
11.1597285961641504
 30
0.0
  0
VERTEX
  5
139F
  8
0
 62
    30
 10
75.0384391194367879
 20
11.4076341428636407
 30
0.0
  0
VERTEX
  5
13A0
  8
0
 62
    30
 10
73.8642913394025129
 20
11.4076341428636301
 30
0.0
 42
0.1316524975877141
  0
VERTEX
  5
13A1
  8
0
 62
    30
 10
73.714291339402962
 20
11.3674417639989809
 30
0.0
  0
VERTEX
  5
13A2
  8
0
 62
    30
 10
72.8884583144827189
 20
10.8906468447541798
 30
0.0
 42
0.2679491924307802
  0
VERTEX
  5
13A3
  8
0
 62
    30
 10
72.7384583144830401
 20
10.6308392236190201
 30
0.0
  0
VERTEX
  5
13A4
  8
0
 62
    30
 10
72.7384583144830117
 20
9.5076362480697334
 30
0.0
 42
0.4142135623722005
  0
VERTEX
  5
13A5
  8
0
 62
    30
 10
73.0384583144820851
 20
9.2076362480696972
 30
0.0
  0
VERTEX
  5
13A6
  8
0
 62
    30
 10
73.4384875368746748
 20
9.2076362480684324
 30
0.0
 42
-0.414213562372188
  0
VERTEX
  5
13A7
  8
0
 62
    30
 10
73.7384875368738903
 20
8.9076362480682931
 30
0.0
  0
VERTEX
  5
13A8
  8
0
 62
    30
 10
73.7384875368739188
 20
7.8076362480699819
 30
0.0
 42
-0.4142135623731141
  0
VERTEX
  5
13A9
  8
0
 62
    30
 10
73.4384875368738506
 20
7.5076362480698959
 30
0.0
  0
VERTEX
  5
13AA
  8
0
 62
    30
 10
69.0381472077819183
 20
7.5076362480699004
 30
0.0
 42
-0.4142135623723024
  0
VERTEX
  5
13AB
  8
0
 62
    30
 10
68.7381472077819353
 20
7.8076362480690733
 30
0.0
  0
VERTEX
  5
13AC
  8
0
 62
    30
 10
68.7381472077809121
 20
8.2076362480696403
 30
0.0
 42
0.4142135623723944
  0
VERTEX
  5
13AD
  8
0
 62
    30
 10
68.4381472077801902
 20
8.5076362480695877
 30
0.0
  0
VERTEX
  5
13AE
  8
0
 62
    30
 10
53.4384875368739785
 20
8.5076362480681524
 30
0.0
 42
-0.4142135623731211
  0
VERTEX
  5
13AF
  8
0
 62
    30
 10
53.1384875368739173
 20
8.807636248068178
 30
0.0
  0
VERTEX
  5
13B0
  8
0
 62
    30
 10
53.1384875368738889
 20
10.4076362480684104
 30
0.0
 42
-0.4142135623730283
  0
VERTEX
  5
13B1
  8
0
 62
    30
 10
53.4384875368738506
 20
10.7076362480684395
 30
0.0
  0
VERTEX
  5
13B2
  8
0
 62
    30
 10
58.438439119436218
 20
10.7076362480697007
 30
0.0
 42
0.4142135623730238
  0
VERTEX
  5
13B3
  8
0
 62
    30
 10
58.7384391194359807
 20
11.0076362480695096
 30
0.0
  0
VERTEX
  5
13B4
  8
0
 62
    30
 10
58.7384391194359665
 20
12.6076362480683795
 30
0.0
  0
VERTEX
  5
13B5
  8
0
 62
    30
 10
45.2384875368736985
 20
12.6076362480691309
 30
0.0
 42
1.0
  0
VERTEX
  5
13B6
  8
0
 62
    30
 10
45.238487536873258
 20
10.6076362480691095
 30
0.0
  0
VERTEX
  5
13B7
  8
0
 62
    30
 10
47.9884875368752688
 20
10.6076362480682391
 30
0.0
 42
-1.0
  0
VERTEX
  5
13B8
  8
0
 62
    30
 10
47.9884875368750698
 20
8.1076362480681965
 30
0.0
  0
VERTEX
  5
13B9
  8
0
 62
    30
 10
37.2384875368731727
 20
8.1076362480682462
 30
0.0
  0
VERTEX
  5
13BA
  8
0
 62
    30
 10
36.7384875368741106
 20
7.6076362480681707
 30
0.0
  0
VERTEX
  5
13BB
  8
0
 62
    30
 10
36.2384875368740467
 20
8.1076362480682285
 30
0.0
  0
VERTEX
  5
13BC
  8
0
 62
    30
 10
25.4884875368727783
 20
8.1076362480681965
 30
0.0
 42
-1.0
  0
VERTEX
  5
13BD
  8
0
 62
    30
 10
25.4884875368721602
 20
10.6076362480682391
 30
0.0
  0
VERTEX
  5
13BE
  8
0
 62
    30
 10
28.2384875368729809
 20
10.6076362480691504
 30
0.0
 42
1.0
  0
VERTEX
  5
13BF
  8
0
 62
    30
 10
28.2384875368730697
 20
12.6076362480691504
 30
0.0
  0
VERTEX
  5
13C0
  8
0
 62
    30
 10
15.0384875368742108
 20
12.6076362480665995
 30
0.0
 42
-0.41422499677573
  0
VERTEX
  5
13C1
  8
0
 62
    30
 10
14.7384875371027508
 20
12.9076479598669707
 30
0.0
  0
VERTEX
  5
13C2
  8
0
 62
    30
 10
14.7384823584531794
 20
12.9076362480666091
 30
0.0
  0
VERTEX
  5
13C3
  8
0
 62
    30
 10
14.7390367169216994
 20
27.1076341428618015
 30
0.0
  0
VERTEX
  5
13C4
  8
0
 62
    30
 10
14.7384778561972798
 20
27.3110375685782714
 30
0.0
 42
0.4143250233312644
  0
VERTEX
  5
13C5
  8
0
 62
    30
 10
14.4384875368754706
 20
27.6076362480673687
 30
0.0
  0
VERTEX
  5
13C6
  8
0
 62
    30
 10
5.5384875368732764
 20
27.6076362480682
 30
0.0
 42
0.4142135623731227
  0
VERTEX
  5
13C7
  8
0
 62
    30
 10
5.2384875368732082
 20
27.3076362480681603
 30
0.0
  0
SEQEND
  5
13C8
  8
0
 62
    30
  0
ENDSEC
  0
EOF
