  0
SECTION
  2
HEADER
  9
$ACADVER
  1
AC1009
  9
$INSBASE
 10
0.0
 20
0.0
 30
0.0
  9
$EXTMIN
 10
9.9148843687667068
 20
10.8883497274548091
 30
0.0
  9
$EXTMAX
 10
37.9183741344803522
 20
139.8883497274526064
 30
0.0
  9
$LIMMIN
 10
0.0
 20
0.0
  9
$LIMMAX
 10
420.0
 20
297.0
  9
$ORTHOMODE
 70
     1
  9
$REGENMODE
 70
     1
  9
$FILLMODE
 70
     1
  9
$QTEXTMODE
 70
     0
  9
$MIRRTEXT
 70
     0
  9
$DRAGMODE
 70
     2
  9
$LTSCALE
 40
1.0
  9
$OSMODE
 70
   167
  9
$ATTMODE
 70
     1
  9
$TEXTSIZE
 40
2.5
  9
$TRACEWID
 40
1.0
  9
$TEXTSTYLE
  7
STANDARD
  9
$CLAYER
  8
0
  9
$CELTYPE
  6
BYLAYER
  9
$CECOLOR
 62
     2
  9
$DIMSCALE
 40
1.0
  9
$DIMASZ
 40
2.5
  9
$DIMEXO
 40
0.625
  9
$DIMDLI
 40
3.75
  9
$DIMRND
 40
0.0
  9
$DIMDLE
 40
0.0
  9
$DIMEXE
 40
1.25
  9
$DIMTP
 40
0.0
  9
$DIMTM
 40
0.0
  9
$DIMTXT
 40
2.5
  9
$DIMCEN
 40
2.5
  9
$DIMTSZ
 40
0.0
  9
$DIMTOL
 70
     0
  9
$DIMLIM
 70
     0
  9
$DIMTIH
 70
     0
  9
$DIMTOH
 70
     0
  9
$DIMSE1
 70
     0
  9
$DIMSE2
 70
     0
  9
$DIMTAD
 70
     1
  9
$DIMZIN
 70
     8
  9
$DIMBLK
  1

  9
$DIMASO
 70
     1
  9
$DIMSHO
 70
     1
  9
$DIMPOST
  1

  9
$DIMAPOST
  1

  9
$DIMALT
 70
     0
  9
$DIMALTD
 70
     3
  9
$DIMALTF
 40
0.03937007874016
  9
$DIMLFAC
 40
1.0
  9
$DIMTOFL
 70
     1
  9
$DIMTVP
 40
0.0
  9
$DIMTIX
 70
     0
  9
$DIMSOXD
 70
     0
  9
$DIMSAH
 70
     0
  9
$DIMBLK1
  1

  9
$DIMBLK2
  1

  9
$DIMSTYLE
  2
ISO-25
  9
$DIMCLRD
 70
     0
  9
$DIMCLRE
 70
     0
  9
$DIMCLRT
 70
     0
  9
$DIMTFAC
 40
1.0
  9
$DIMGAP
 40
0.625
  9
$LUNITS
 70
     2
  9
$LUPREC
 70
     4
  9
$SKETCHINC
 40
1.0
  9
$FILLETRAD
 40
0.0
  9
$AUNITS
 70
     0
  9
$AUPREC
 70
     0
  9
$MENU
  1
.
  9
$ELEVATION
 40
0.0
  9
$PELEVATION
 40
0.0
  9
$THICKNESS
 40
0.0
  9
$LIMCHECK
 70
     0
  9
$BLIPMODE
 70
     0
  9
$CHAMFERA
 40
0.0
  9
$CHAMFERB
 40
0.0
  9
$SKPOLY
 70
     0
  9
$TDCREATE
 40
2458815.5936574079096317
  9
$TDUPDATE
 40
2458815.6511921300552785
  9
$TDINDWG
 40
0.0468865741
  9
$TDUSRTIMER
 40
0.0468865741
  9
$USRTIMER
 70
     1
  9
$ANGBASE
 50
0.0
  9
$ANGDIR
 70
     0
  9
$PDMODE
 70
     0
  9
$PDSIZE
 40
0.0
  9
$PLINEWID
 40
0.0
  9
$COORDS
 70
     1
  9
$SPLFRAME
 70
     0
  9
$SPLINETYPE
 70
     6
  9
$SPLINESEGS
 70
     8
  9
$ATTDIA
 70
     1
  9
$ATTREQ
 70
     1
  9
$HANDLING
 70
     1
  9
$HANDSEED
  5
66B
  9
$SURFTAB1
 70
     6
  9
$SURFTAB2
 70
     6
  9
$SURFTYPE
 70
     6
  9
$SURFU
 70
     6
  9
$SURFV
 70
     6
  9
$UCSNAME
  2

  9
$UCSORG
 10
0.0
 20
0.0
 30
0.0
  9
$UCSXDIR
 10
1.0
 20
0.0
 30
0.0
  9
$UCSYDIR
 10
0.0
 20
1.0
 30
0.0
  9
$PUCSNAME
  2

  9
$PUCSORG
 10
0.0
 20
0.0
 30
0.0
  9
$PUCSXDIR
 10
1.0
 20
0.0
 30
0.0
  9
$PUCSYDIR
 10
0.0
 20
1.0
 30
0.0
  9
$USERI1
 70
     0
  9
$USERI2
 70
     0
  9
$USERI3
 70
     0
  9
$USERI4
 70
     0
  9
$USERI5
 70
     0
  9
$USERR1
 40
0.0
  9
$USERR2
 40
0.0
  9
$USERR3
 40
0.0
  9
$USERR4
 40
0.0
  9
$USERR5
 40
0.0
  9
$WORLDVIEW
 70
     1
  9
$SHADEDGE
 70
     3
  9
$SHADEDIF
 70
    70
  9
$TILEMODE
 70
     1
  9
$MAXACTVP
 70
    64
  9
$PLIMCHECK
 70
     0
  9
$PEXTMIN
 10
0.0
 20
0.0
 30
0.0
  9
$PEXTMAX
 10
0.0
 20
0.0
 30
0.0
  9
$PLIMMIN
 10
0.0
 20
0.0
  9
$PLIMMAX
 10
12.0
 20
9.0
  9
$UNITMODE
 70
     0
  9
$VISRETAIN
 70
     1
  9
$PLINEGEN
 70
     0
  9
$PSLTSCALE
 70
     1
  0
ENDSEC
  0
SECTION
  2
TABLES
  0
TABLE
  2
VPORT
 70
     1
  0
VPORT
  2
*ACTIVE
 70
     0
 10
0.0
 20
0.0
 11
1.0
 21
1.0
 12
21.5358580228568712
 22
50.2504860152944914
 13
0.0
 23
0.0
 14
10.0
 24
10.0
 15
10.0
 25
10.0
 16
0.0
 26
0.0
 36
1.0
 17
0.0
 27
0.0
 37
0.0
 40
214.9613788237649885
 41
2.29156626506024
 42
50.0
 43
0.0
 44
0.0
 50
0.0
 51
0.0
 71
     0
 72
  1000
 73
     1
 74
     3
 75
     0
 76
     1
 77
     0
 78
     0
  0
ENDTAB
  0
TABLE
  2
LTYPE
 70
     1
  0
LTYPE
  2
CONTINUOUS
 70
     0
  3
Solid line
 72
    65
 73
     0
 40
0.0
  0
ENDTAB
  0
TABLE
  2
LAYER
 70
     1
  0
LAYER
  2
0
 70
     0
 62
     7
  6
CONTINUOUS
  0
ENDTAB
  0
TABLE
  2
STYLE
 70
     2
  0
STYLE
  2
STANDARD
 70
     0
 40
0.0
 41
1.0
 50
0.0
 71
     0
 42
2.5
  3
txt
  4

  0
STYLE
  2
ANNOTATIVE
 70
     0
 40
0.0
 41
1.0
 50
0.0
 71
     0
 42
2.5
  3
txt
  4

  0
ENDTAB
  0
TABLE
  2
VIEW
 70
     0
  0
ENDTAB
  0
TABLE
  2
UCS
 70
     0
  0
ENDTAB
  0
TABLE
  2
APPID
 70
     9
  0
APPID
  2
ACAD
 70
     0
  0
APPID
  2
ACAD_PSEXT
 70
     0
  0
APPID
  2
ACADANNOPO
 70
     0
  0
APPID
  2
ACADANNOTATIVE
 70
     0
  0
APPID
  2
ACAD_DSTYLE_DIMJAG
 70
     0
  0
APPID
  2
ACAD_DSTYLE_DIMTALN
 70
     0
  0
APPID
  2
ACAD_MLEADERVER
 70
     0
  0
APPID
  2
ACAD_NAV_VCDISPLAY
 70
     0
  0
APPID
  2
ACDBBLOCKREPETAG
 70
     0
  0
ENDTAB
  0
TABLE
  2
DIMSTYLE
 70
     3
  0
DIMSTYLE
  2
STANDARD
 70
     0
  3

  4

  5

  6

  7

 40
1.0
 41
0.18
 42
0.0625
 43
0.38
 44
0.18
 45
0.0
 46
0.0
 47
0.0
 48
0.0
140
0.18
141
0.09
142
0.0
143
25.3999999999999986
144
1.0
145
0.0
146
1.0
147
0.09
 71
     0
 72
     0
 73
     1
 74
     1
 75
     0
 76
     0
 77
     0
 78
     0
170
     0
171
     2
172
     0
173
     0
174
     0
175
     0
176
     0
177
     0
178
     0
  0
DIMSTYLE
  2
ANNOTATIVE
 70
     0
  3

  4

  5

  6

  7

 40
0.0
 41
2.5
 42
0.625
 43
3.75
 44
1.25
 45
0.0
 46
0.0
 47
0.0
 48
0.0
140
2.5
141
2.5
142
0.0
143
0.03937007874016
144
1.0
145
0.0
146
1.0
147
0.625
 71
     0
 72
     0
 73
     0
 74
     0
 75
     0
 76
     0
 77
     1
 78
     8
170
     0
171
     3
172
     1
173
     0
174
     0
175
     0
176
     0
177
     0
178
     0
  0
DIMSTYLE
  2
ISO-25
 70
     0
  3

  4

  5

  6

  7

 40
1.0
 41
2.5
 42
0.625
 43
3.75
 44
1.25
 45
0.0
 46
0.0
 47
0.0
 48
0.0
140
2.5
141
2.5
142
0.0
143
0.03937007874016
144
1.0
145
0.0
146
1.0
147
0.625
 71
     0
 72
     0
 73
     0
 74
     0
 75
     0
 76
     0
 77
     1
 78
     8
170
     0
171
     3
172
     1
173
     0
174
     0
175
     0
176
     0
177
     0
178
     0
  0
ENDTAB
  0
ENDSEC
  0
SECTION
  2
BLOCKS
  0
BLOCK
  8
0
  2
$MODEL_SPACE
 70
     0
 10
0.0
 20
0.0
 30
0.0
  3
$MODEL_SPACE
  1

  0
ENDBLK
  5
21
  8
0
  0
BLOCK
 67
     1
  8
0
  2
$PAPER_SPACE
 70
     0
 10
0.0
 20
0.0
 30
0.0
  3
$PAPER_SPACE
  1

  0
ENDBLK
  5
D5
 67
     1
  8
0
  0
ENDSEC
  0
SECTION
  2
ENTITIES
  0
POLYLINE
  5
27B
  8
0
 62
     1
 66
     1
 10
0.0
 20
0.0
 30
0.0
  0
VERTEX
  5
565
  8
0
 62
     1
 10
13.2166470471892694
 20
10.8883497274548091
 30
0.0
  0
VERTEX
  5
566
  8
0
 62
     1
 10
34.6166114560583722
 20
10.8883497274548091
 30
0.0
 42
0.4142135623748155
  0
VERTEX
  5
567
  8
0
 62
     1
 10
34.9166114560583765
 20
11.1883497274565702
 30
0.0
  0
VERTEX
  5
568
  8
0
 62
     1
 10
34.916611456057602
 20
82.0415124494856656
 30
0.0
 42
0.6543012635492522
  0
VERTEX
  5
569
  8
0
 62
     1
 10
33.6571544092774815
 20
82.591924583696084
 30
0.0
  0
VERTEX
  5
56A
  8
0
 62
     1
 10
31.9028689616797401
 20
80.968172075724226
 30
0.0
 42
-0.1888936561236306
  0
VERTEX
  5
56B
  8
0
 62
     1
 10
31.6990861429678894
 20
80.8883369294084247
 30
0.0
  0
VERTEX
  5
56C
  8
0
 62
     1
 10
30.2508308297742197
 20
80.8883369294075436
 30
0.0
  0
VERTEX
  5
56D
  8
0
 62
     1
 10
29.36455469909329
 20
80.7320625352100194
 30
0.0
 42
0.3639702342662848
  0
VERTEX
  5
56E
  8
0
 62
     1
 10
29.1166491523938298
 20
80.4366202093064544
 30
0.0
  0
VERTEX
  5
56F
  8
0
 62
     1
 10
29.1166491523938085
 20
79.5141535299841138
 30
0.0
 42
0.1316524975880067
  0
VERTEX
  5
570
  8
0
 62
     1
 10
29.1568415312586211
 20
79.3641535299842644
 30
0.0
  0
VERTEX
  5
571
  8
0
 62
     1
 10
29.6336364505032712
 20
78.5383205050642914
 30
0.0
 42
0.2679491924307861
  0
VERTEX
  5
572
  8
0
 62
     1
 10
29.8934440716384309
 20
78.3883205050646268
 30
0.0
  0
VERTEX
  5
573
  8
0
 62
     1
 10
31.0166470471877282
 20
78.3883205050645984
 30
0.0
 42
0.4142135623721866
  0
VERTEX
  5
574
  8
0
 62
     1
 10
31.3166470471877503
 20
78.6883205050636718
 30
0.0
  0
VERTEX
  5
575
  8
0
 62
     1
 10
31.3166470471889902
 20
79.0883497274563183
 30
0.0
 42
-0.4142135623720272
  0
VERTEX
  5
576
  8
0
 62
     1
 10
31.6166470471889802
 20
79.3883497274555054
 30
0.0
  0
VERTEX
  5
577
  8
0
 62
     1
 10
32.7166470471874504
 20
79.3883497274555339
 30
0.0
 42
-0.4142135623730406
  0
VERTEX
  5
578
  8
0
 62
     1
 10
33.0166470471875115
 20
79.0883497274555509
 30
0.0
  0
VERTEX
  5
579
  8
0
 62
     1
 10
33.0166470471875115
 20
74.6880093983635618
 30
0.0
 42
-0.4142135623723739
  0
VERTEX
  5
57A
  8
0
 62
     1
 10
32.7166470471882604
 20
74.388009398363593
 30
0.0
  0
VERTEX
  5
57B
  8
0
 62
     1
 10
32.3166470471877432
 20
74.3880093983625557
 30
0.0
 42
0.4142135623716522
  0
VERTEX
  5
57C
  8
0
 62
     1
 10
32.0166470471878597
 20
74.0880093983625443
 30
0.0
  0
VERTEX
  5
57D
  8
0
 62
     1
 10
32.0166470471892879
 20
59.0883497274555793
 30
0.0
 42
-0.4142135623731104
  0
VERTEX
  5
57E
  8
0
 62
     1
 10
31.7166470471892801
 20
58.7883497274555182
 30
0.0
  0
VERTEX
  5
57F
  8
0
 62
     1
 10
30.1166470471890193
 20
58.7883497274555182
 30
0.0
 42
-0.4142135623730951
  0
VERTEX
  5
580
  8
0
 62
     1
 10
29.8166470471890008
 20
59.0883497274555367
 30
0.0
  0
VERTEX
  5
581
  8
0
 62
     1
 10
29.8166470471877396
 20
62.7960427821555385
 30
0.0
 42
0.1316524975869334
  0
VERTEX
  5
582
  8
0
 62
     1
 10
29.7764546683232716
 20
62.9460427821551605
 30
0.0
  0
VERTEX
  5
583
  8
0
 62
     1
 10
29.1463585284821391
 20
64.0374013100164348
 30
0.0
 42
0.4136878900465547
  0
VERTEX
  5
584
  8
0
 62
     1
 10
28.7370175271187911
 20
64.1474777760753909
 30
0.0
  0
VERTEX
  5
585
  8
0
 62
     1
 10
28.0671136669616814
 20
63.7623103283814601
 30
0.0
 42
0.2684302435167489
  0
VERTEX
  5
586
  8
0
 62
     1
 10
27.9166470471892403
 20
63.5022338623225266
 30
0.0
  0
VERTEX
  5
587
  8
0
 62
     1
 10
27.9166470471883095
 20
50.8883497274556973
 30
0.0
 42
0.9999999999997545
  0
VERTEX
  5
588
  8
0
 62
     1
 10
29.9166470471883095
 20
50.8883497274550791
 30
0.0
  0
VERTEX
  5
589
  8
0
 62
     1
 10
29.9166470471892012
 20
53.6383497274565073
 30
0.0
 42
-0.9999999999996795
  0
VERTEX
  5
58A
  8
0
 62
     1
 10
32.4166470471892509
 20
53.6383497274565073
 30
0.0
  0
VERTEX
  5
58B
  8
0
 62
     1
 10
32.4166470471892083
 20
42.8883497274547878
 30
0.0
  0
VERTEX
  5
58C
  8
0
 62
     1
 10
32.9166470471892225
 20
42.3883497274556973
 30
0.0
  0
VERTEX
  5
58D
  8
0
 62
     1
 10
32.4166470471892083
 20
41.8883497274556973
 30
0.0
  0
VERTEX
  5
58E
  8
0
 62
     1
 10
32.4166470471892509
 20
31.1383497274547913
 30
0.0
 42
-0.9999999999996735
  0
VERTEX
  5
58F
  8
0
 62
     1
 10
29.9166470471892083
 20
31.1383497274539884
 30
0.0
  0
VERTEX
  5
590
  8
0
 62
     1
 10
29.9166470471883095
 20
33.8883497274544823
 30
0.0
 42
0.9999999999995555
  0
VERTEX
  5
591
  8
0
 62
     1
 10
27.9166470471883095
 20
33.8883497274547096
 30
0.0
  0
VERTEX
  5
592
  8
0
 62
     1
 10
27.916647047190871
 20
20.6883497274557691
 30
0.0
 42
-0.414213562373153
  0
VERTEX
  5
593
  8
0
 62
     1
 10
27.6166470471908383
 20
20.3883497274557008
 30
0.0
  0
VERTEX
  5
594
  8
0
 62
     1
 10
13.2148843715786004
 20
20.3883445490346311
 30
0.0
 42
0.4159353294590168
  0
VERTEX
  5
595
  8
0
 62
     1
 10
12.9166470471900805
 20
20.0883497274546095
 30
0.0
  0
VERTEX
  5
596
  8
0
 62
     1
 10
12.9166470471892598
 20
11.1883497274547992
 30
0.0
 42
0.4142135623731493
  0
VERTEX
  5
597
  8
0
 62
     1
 10
13.2166470471892694
 20
10.8883497274548091
 30
0.0
 42
2.474469480500038
  0
SEQEND
  5
598
  8
0
 62
     1
  0
POLYLINE
  5
4AA
  8
0
 62
     1
 66
     1
 10
0.0
 20
0.0
 30
0.0
  0
VERTEX
  5
599
  8
0
 62
     1
 10
34.6166114560582514
 20
139.8883497274526064
 30
0.0
  0
VERTEX
  5
59A
  8
0
 62
     1
 10
13.2166470471891504
 20
139.8883497274526064
 30
0.0
 42
0.4142135623748155
  0
VERTEX
  5
59B
  8
0
 62
     1
 10
12.9166470471891408
 20
139.5883497274508045
 30
0.0
  0
VERTEX
  5
59C
  8
0
 62
     1
 10
12.9166470471899402
 20
68.7351870054216931
 30
0.0
 42
0.6543012635492522
  0
VERTEX
  5
59D
  8
0
 62
     1
 10
14.17610409397005
 20
68.1847748712112747
 30
0.0
  0
VERTEX
  5
59E
  8
0
 62
     1
 10
15.9303895415677896
 20
69.8085273791831611
 30
0.0
 42
-0.1888936561236306
  0
VERTEX
  5
59F
  8
0
 62
     1
 10
16.1341723602796492
 20
69.8883625254989624
 30
0.0
  0
VERTEX
  5
5A0
  8
0
 62
     1
 10
17.5824276734733189
 20
69.8883625254998435
 30
0.0
  0
VERTEX
  5
5A1
  8
0
 62
     1
 10
18.4687038041542415
 20
70.0446369196973535
 30
0.0
 42
0.3639702342662848
  0
VERTEX
  5
5A2
  8
0
 62
     1
 10
18.7166093508537017
 20
70.3400792456009185
 30
0.0
  0
VERTEX
  5
5A3
  8
0
 62
     1
 10
18.7166093508537301
 20
71.2625459249232733
 30
0.0
 42
0.1316524975880067
  0
VERTEX
  5
5A4
  8
0
 62
     1
 10
18.6764169719889104
 20
71.4125459249231085
 30
0.0
  0
VERTEX
  5
5A5
  8
0
 62
     1
 10
18.1996220527442709
 20
72.2383789498430815
 30
0.0
 42
0.2679491924307861
  0
VERTEX
  5
5A6
  8
0
 62
     1
 10
17.9398144316091113
 20
72.3883789498427745
 30
0.0
  0
VERTEX
  5
5A7
  8
0
 62
     1
 10
16.8166114560597997
 20
72.3883789498427745
 30
0.0
 42
0.4142135623721866
  0
VERTEX
  5
5A8
  8
0
 62
     1
 10
16.5166114560597883
 20
72.0883789498437011
 30
0.0
  0
VERTEX
  5
5A9
  8
0
 62
     1
 10
16.5166114560585413
 20
71.6883497274510688
 30
0.0
 42
-0.4142135623720272
  0
VERTEX
  5
5AA
  8
0
 62
     1
 10
16.2166114560585584
 20
71.3883497274518533
 30
0.0
  0
VERTEX
  5
5AB
  8
0
 62
     1
 10
15.1166114560601006
 20
71.388349727451839
 30
0.0
 42
-0.4142135623730406
  0
VERTEX
  5
5AC
  8
0
 62
     1
 10
14.8166114560600306
 20
71.6883497274518362
 30
0.0
  0
VERTEX
  5
5AD
  8
0
 62
     1
 10
14.8166114560600306
 20
76.0886900565437969
 30
0.0
 42
-0.4142135623723739
  0
VERTEX
  5
5AE
  8
0
 62
     1
 10
15.1166114560592693
 20
76.3886900565437656
 30
0.0
  0
VERTEX
  5
5AF
  8
0
 62
     1
 10
15.5166114560597901
 20
76.3886900565448315
 30
0.0
 42
0.4142135623716522
  0
VERTEX
  5
5B0
  8
0
 62
     1
 10
15.8166114560596895
 20
76.6886900565448286
 30
0.0
  0
VERTEX
  5
5B1
  8
0
 62
     1
 10
15.81661145605824
 20
91.6883497274517936
 30
0.0
 42
-0.4142135623731104
  0
VERTEX
  5
5B2
  8
0
 62
     1
 10
16.1166114560582514
 20
91.988349727451876
 30
0.0
  0
VERTEX
  5
5B3
  8
0
 62
     1
 10
17.7166114560585299
 20
91.988349727451876
 30
0.0
 42
-0.4142135623730951
  0
VERTEX
  5
5B4
  8
0
 62
     1
 10
18.0166114560585306
 20
91.6883497274518646
 30
0.0
  0
VERTEX
  5
5B5
  8
0
 62
     1
 10
18.0166114560597883
 20
87.980656672751806
 30
0.0
 42
0.1316524975869334
  0
VERTEX
  5
5B6
  8
0
 62
     1
 10
18.0568038349242705
 20
87.830656672752184
 30
0.0
  0
VERTEX
  5
5B7
  8
0
 62
     1
 10
18.6868999747653888
 20
86.7392981448909381
 30
0.0
 42
0.4136878900465547
  0
VERTEX
  5
5B8
  8
0
 62
     1
 10
19.0962409761287404
 20
86.629221678831982
 30
0.0
  0
VERTEX
  5
5B9
  8
0
 62
     1
 10
19.7661448362858607
 20
87.0143891265258844
 30
0.0
 42
0.2684302435167489
  0
VERTEX
  5
5BA
  8
0
 62
     1
 10
19.9166114560582912
 20
87.2744655925848321
 30
0.0
  0
VERTEX
  5
5BB
  8
0
 62
     1
 10
19.9166114560592291
 20
99.8883497274516543
 30
0.0
 42
0.9999999999997545
  0
VERTEX
  5
5BC
  8
0
 62
     1
 10
17.9166114560592291
 20
99.8883497274522938
 30
0.0
  0
VERTEX
  5
5BD
  8
0
 62
     1
 10
17.9166114560583516
 20
97.1383497274508869
 30
0.0
 42
-0.9999999999996795
  0
VERTEX
  5
5BE
  8
0
 62
     1
 10
15.4166114560582894
 20
97.1383497274508869
 30
0.0
  0
VERTEX
  5
5BF
  8
0
 62
     1
 10
15.4166114560583196
 20
107.8883497274526064
 30
0.0
  0
VERTEX
  5
5C0
  8
0
 62
     1
 10
14.9166114560583196
 20
108.3883497274515975
 30
0.0
  0
VERTEX
  5
5C1
  8
0
 62
     1
 10
15.4166114560583196
 20
108.8883497274515975
 30
0.0
  0
VERTEX
  5
5C2
  8
0
 62
     1
 10
15.4166114560582894
 20
119.638349727452507
 30
0.0
 42
-0.9999999999996735
  0
VERTEX
  5
5C3
  8
0
 62
     1
 10
17.9166114560583196
 20
119.6383497274533028
 30
0.0
  0
VERTEX
  5
5C4
  8
0
 62
     1
 10
17.9166114560592291
 20
116.8883497274529049
 30
0.0
 42
0.9999999999995555
  0
VERTEX
  5
5C5
  8
0
 62
     1
 10
19.9166114560592291
 20
116.8883497274526064
 30
0.0
  0
VERTEX
  5
5C6
  8
0
 62
     1
 10
19.9166114560566712
 20
130.0883497274516003
 30
0.0
 42
-0.414213562373153
  0
VERTEX
  5
5C7
  8
0
 62
     1
 10
20.216611456056679
 20
130.3883497274516969
 30
0.0
  0
VERTEX
  5
5C8
  8
0
 62
     1
 10
34.6183741316689293
 20
130.3883549058726885
 30
0.0
 42
0.4159353294590168
  0
VERTEX
  5
5C9
  8
0
 62
     1
 10
34.9166114560574528
 20
130.6883497274527031
 30
0.0
  0
VERTEX
  5
5CA
  8
0
 62
     1
 10
34.9166114560582699
 20
139.5883497274525098
 30
0.0
 42
0.4142135623731493
  0
VERTEX
  5
5CB
  8
0
 62
     1
 10
34.6166114560582514
 20
139.8883497274526064
 30
0.0
 42
2.474469480500038
  0
SEQEND
  5
5CC
  8
0
 62
     1
  0
POLYLINE
  5
4AB
  8
0
 62
     4
 66
     1
 10
0.0
 20
0.0
 30
0.0
 70
     1
  0
VERTEX
  5
5CD
  8
0
 62
     4
 10
13.2166470471892801
 20
20.3883497274546208
 30
0.0
  0
VERTEX
  5
5CE
  8
0
 62
     4
 10
9.9148843687672024
 20
26.3881307811556809
 30
0.0
  0
VERTEX
  5
5CF
  8
0
 62
     4
 10
23.9166470471892083
 20
26.3882861825957207
 30
0.0
  0
VERTEX
  5
5D0
  8
0
 62
     4
 10
23.9166470471892083
 20
20.3883497274557008
 30
0.0
  0
VERTEX
  5
5D1
  8
0
 62
     4
 10
13.2148843715786004
 20
20.3883445490346311
 30
0.0
  0
SEQEND
  5
5D2
  8
0
 62
     4
  0
POLYLINE
  5
4AC
  8
0
 62
     4
 66
     1
 10
0.0
 20
0.0
 30
0.0
 70
     1
  0
VERTEX
  5
5D3
  8
0
 62
     4
 10
27.916647047189219
 20
58.3884447033785321
 30
0.0
  0
VERTEX
  5
5D4
  8
0
 62
     4
 10
23.9166470471887216
 20
58.388600104818579
 30
0.0
  0
VERTEX
  5
5D5
  8
0
 62
     4
 10
23.9166470471892083
 20
26.3882861825957207
 30
0.0
  0
VERTEX
  5
5D6
  8
0
 62
     4
 10
27.916647047189219
 20
26.3882861825957207
 30
0.0
  0
VERTEX
  5
5D7
  8
0
 62
     4
 10
27.9162918868548005
 20
58.3884446994367323
 30
0.0
  0
SEQEND
  5
5D8
  8
0
 62
     4
  0
POLYLINE
  5
4AD
  8
0
 62
     4
 66
     1
 10
0.0
 20
0.0
 30
0.0
 70
     1
  0
VERTEX
  5
5D9
  8
0
 62
     4
 10
34.6166114560582727
 20
130.3883497274526917
 30
0.0
  0
VERTEX
  5
5DA
  8
0
 62
     4
 10
37.9183741344803522
 20
124.3885686737517062
 30
0.0
  0
VERTEX
  5
5DB
  8
0
 62
     4
 10
23.9166114560583409
 20
124.3884132723115954
 30
0.0
  0
VERTEX
  5
5DC
  8
0
 62
     4
 10
23.9166114560583409
 20
130.3883497274516969
 30
0.0
  0
VERTEX
  5
5DD
  8
0
 62
     4
 10
34.6183741316689435
 20
130.3883549058726885
 30
0.0
  0
SEQEND
  5
5DE
  8
0
 62
     4
  0
POLYLINE
  5
4AE
  8
0
 62
     4
 66
     1
 10
0.0
 20
0.0
 30
0.0
 70
     1
  0
VERTEX
  5
5DF
  8
0
 62
     4
 10
23.9166114560583409
 20
124.3884132723115954
 30
0.0
  0
VERTEX
  5
5E0
  8
0
 62
     4
 10
19.91661145605784
 20
124.3885686737517062
 30
0.0
  0
VERTEX
  5
5E1
  8
0
 62
     4
 10
19.9166114560583303
 20
92.3882547515288337
 30
0.0
  0
VERTEX
  5
5E2
  8
0
 62
     4
 10
23.9166114560583409
 20
92.3882547515288337
 30
0.0
  0
VERTEX
  5
5E3
  8
0
 62
     4
 10
23.9162562957239118
 20
124.3884132683698027
 30
0.0
  0
SEQEND
  5
5E4
  8
0
 62
     4
  0
POLYLINE
  5
4B1
  8
0
 62
     2
 66
     1
 10
0.0
 20
0.0
 30
0.0
 70
     1
  0
VERTEX
  5
5E5
  8
0
 62
     2
 10
15.91660935085193
 20
87.6383981448907861
 30
0.0
  0
VERTEX
  5
5E6
  8
0
 62
     2
 10
16.53757649791633
 20
91.160077836612956
 30
0.0
 42
-1.1077206549809691
  0
VERTEX
  5
5E7
  8
0
 62
     2
 10
17.6666093508537188
 20
89.9010117906457964
 30
0.0
  0
VERTEX
  5
5E8
  8
0
 62
     2
 10
17.6666093508521413
 20
86.6883981448898453
 30
0.0
 42
0.4142135623734284
  0
VERTEX
  5
5E9
  8
0
 62
     2
 10
17.9666093508521385
 20
86.3883981448898908
 30
0.0
  0
VERTEX
  5
5EA
  8
0
 62
     2
 10
19.96668519418877
 20
86.3883981448905161
 30
0.0
 42
0.9999999999999998
  0
VERTEX
  5
5EB
  8
0
 62
     2
 10
21.1666635296826797
 20
86.3811875997492962
 30
0.0
  0
VERTEX
  5
5EC
  8
0
 62
     2
 10
21.1666635296826797
 20
86.3883981448898908
 30
0.0
  0
VERTEX
  5
5ED
  8
0
 62
     2
 10
34.4166093508519282
 20
86.3883981448898908
 30
0.0
 42
-0.4142135623725624
  0
VERTEX
  5
5EE
  8
0
 62
     2
 10
34.9166093508519282
 20
85.8883981448908003
 30
0.0
  0
VERTEX
  5
5EF
  8
0
 62
     2
 10
34.9166093508537188
 20
85.5051933299017008
 30
0.0
 42
-0.2726312918540959
  0
VERTEX
  5
5F0
  8
0
 62
     2
 10
34.7620522369278433
 20
85.2428074177597068
 30
0.0
  0
VERTEX
  5
5F1
  8
0
 62
     2
 10
31.4844669616207788
 20
83.4260122327490166
 30
0.0
 42
-0.1272160680009745
  0
VERTEX
  5
5F2
  8
0
 62
     2
 10
31.3390240755469485
 20
83.3883981448908571
 30
0.0
  0
VERTEX
  5
5F3
  8
0
 62
     2
 10
19.9166093508537188
 20
83.3883981448908003
 30
0.0
 42
0.4142135623725342
  0
VERTEX
  5
5F4
  8
0
 62
     2
 10
18.9166093508518003
 20
82.3883981448908145
 30
0.0
  0
VERTEX
  5
5F5
  8
0
 62
     2
 10
18.916735755897129
 20
78.7883981449597997
 30
0.0
 42
0.2935135116511927
  0
VERTEX
  5
5F6
  8
0
 62
     2
 10
20.9345562935294289
 20
75.6474140317696424
 30
0.0
  0
VERTEX
  5
5F7
  8
0
 62
     2
 10
26.7237689712830893
 20
72.9478598254457324
 30
0.0
 42
-0.802584851671485
  0
VERTEX
  5
5F8
  8
0
 62
     2
 10
26.0898415786722389
 20
70.0883981448890268
 30
0.0
  0
VERTEX
  5
5F9
  8
0
 62
     2
 10
19.0166093508531091
 20
70.0883981448890268
 30
0.0
 42
-0.3639161923171516
  0
VERTEX
  5
5FA
  8
0
 62
     2
 10
18.7166093508537017
 20
70.3400792456009611
 30
0.0
  0
VERTEX
  5
5FB
  8
0
 62
     2
 10
18.7166093508519182
 20
71.6883981448898453
 30
0.0
 42
0.4142135623723401
  0
VERTEX
  5
5FC
  8
0
 62
     2
 10
17.9166093508519317
 20
72.4883981448897998
 30
0.0
  0
VERTEX
  5
5FD
  8
0
 62
     2
 10
16.8666093508517108
 20
72.4883981448906951
 30
0.0
 42
0.1925824035677232
  0
VERTEX
  5
5FE
  8
0
 62
     2
 10
16.5217817646447784
 20
72.3504671104079193
 30
0.0
 42
-0.3000210814307452
  0
VERTEX
  5
5FF
  8
0
 62
     2
 10
15.4923860172042804
 20
72.1652103663737279
 30
0.0
 42
-0.300021081430119
  0
VERTEX
  5
600
  8
0
 62
     2
 10
14.91660935085444
 20
73.0383981448908912
 30
0.0
  0
VERTEX
  5
601
  8
0
 62
     2
 10
14.9166093508519193
 20
73.5883981448908457
 30
0.0
 42
-0.4142135623768607
  0
VERTEX
  5
602
  8
0
 62
     2
 10
15.2166093508530498
 20
73.8883981448908429
 30
0.0
  0
VERTEX
  5
603
  8
0
 62
     2
 10
17.7913443777723295
 20
73.8883981448908003
 30
0.0
 42
0.5773502691894482
  0
VERTEX
  5
604
  8
0
 62
     2
 10
18.2243570796643084
 20
74.6383981448898908
 30
0.0
  0
VERTEX
  5
605
  8
0
 62
     2
 10
17.6470068104752613
 20
75.6383981448908429
 30
0.0
 42
0.2679491924314551
  0
VERTEX
  5
606
  8
0
 62
     2
 10
17.3871991893400093
 20
75.7883981448908912
 30
0.0
  0
VERTEX
  5
607
  8
0
 62
     2
 10
16.2166093508529308
 20
75.7883981448908912
 30
0.0
 42
-0.4142135623730502
  0
VERTEX
  5
608
  8
0
 62
     2
 10
15.91660935085293
 20
76.0883981448908457
 30
0.0
  0
VERTEX
  5
609
  8
0
 62
     2
 10
15.91660935085193
 20
87.6383981448907861
 30
0.0
  0
SEQEND
  5
60A
  8
0
 62
     2
  0
POLYLINE
  5
4B2
  8
0
 62
     2
 66
     1
 10
0.0
 20
0.0
 30
0.0
 70
     1
  0
VERTEX
  5
60B
  8
0
 62
     2
 10
31.9166491523956104
 20
63.1383013100166295
 30
0.0
  0
VERTEX
  5
60C
  8
0
 62
     2
 10
31.2956820053312015
 20
59.6166216182944595
 30
0.0
 42
-1.1077206549809691
  0
VERTEX
  5
60D
  8
0
 62
     2
 10
30.1666491523938198
 20
60.8756876642616476
 30
0.0
  0
VERTEX
  5
60E
  8
0
 62
     2
 10
30.1666491523954008
 20
64.0883013100175702
 30
0.0
 42
0.4142135623734284
  0
VERTEX
  5
60F
  8
0
 62
     2
 10
29.8666491523954001
 20
64.388301310017539
 30
0.0
  0
VERTEX
  5
610
  8
0
 62
     2
 10
27.8665733090587686
 20
64.3883013100169137
 30
0.0
 42
0.9999999999999998
  0
VERTEX
  5
611
  8
0
 62
     2
 10
26.6665949735648589
 20
64.3955118551581336
 30
0.0
  0
VERTEX
  5
612
  8
0
 62
     2
 10
26.6665949735648589
 20
64.388301310017539
 30
0.0
  0
VERTEX
  5
613
  8
0
 62
     2
 10
13.4166491523955997
 20
64.388301310017539
 30
0.0
 42
-0.4142135623725624
  0
VERTEX
  5
614
  8
0
 62
     2
 10
12.9166491523955997
 20
64.8883013100166153
 30
0.0
  0
VERTEX
  5
615
  8
0
 62
     2
 10
12.9166491523938092
 20
65.2715061250057147
 30
0.0
 42
-0.2726312918540959
  0
VERTEX
  5
616
  8
0
 62
     2
 10
13.07120626631969
 20
65.5338920371477229
 30
0.0
  0
VERTEX
  5
617
  8
0
 62
     2
 10
16.3487915416267491
 20
67.350687222158399
 30
0.0
 42
-0.1272160680009745
  0
VERTEX
  5
618
  8
0
 62
     2
 10
16.4942344277005901
 20
67.3883013100165726
 30
0.0
  0
VERTEX
  5
619
  8
0
 62
     2
 10
27.9166491523938198
 20
67.3883013100166153
 30
0.0
 42
0.4142135623725342
  0
VERTEX
  5
61A
  8
0
 62
     2
 10
28.9166491523957205
 20
68.3883013100166295
 30
0.0
  0
VERTEX
  5
61B
  8
0
 62
     2
 10
28.916522747350399
 20
71.9883013099476443
 30
0.0
 42
0.2935135116511927
  0
VERTEX
  5
61C
  8
0
 62
     2
 10
26.8987022097181097
 20
75.1292854231378016
 30
0.0
  0
VERTEX
  5
61D
  8
0
 62
     2
 10
21.1094895319644387
 20
77.8288396294616831
 30
0.0
 42
-0.802584851671485
  0
VERTEX
  5
61E
  8
0
 62
     2
 10
21.7434169245752997
 20
80.688301310018403
 30
0.0
  0
VERTEX
  5
61F
  8
0
 62
     2
 10
28.8166491523944188
 20
80.688301310018403
 30
0.0
 42
-0.3639161923171516
  0
VERTEX
  5
620
  8
0
 62
     2
 10
29.1166491523938298
 20
80.4366202093064544
 30
0.0
  0
VERTEX
  5
621
  8
0
 62
     2
 10
29.1166491523956097
 20
79.0883013100175702
 30
0.0
 42
0.4142135623723401
  0
VERTEX
  5
622
  8
0
 62
     2
 10
29.9166491523956104
 20
78.2883013100176299
 30
0.0
  0
VERTEX
  5
623
  8
0
 62
     2
 10
30.9666491523958207
 20
78.2883013100167204
 30
0.0
 42
0.1925824035677232
  0
VERTEX
  5
624
  8
0
 62
     2
 10
31.3114767386027495
 20
78.4262323444995104
 30
0.0
 42
-0.3000210814307452
  0
VERTEX
  5
625
  8
0
 62
     2
 10
32.3408724860432528
 20
78.6114890885336877
 30
0.0
 42
-0.300021081430119
  0
VERTEX
  5
626
  8
0
 62
     2
 10
32.9166491523930915
 20
77.7383013100165527
 30
0.0
  0
VERTEX
  5
627
  8
0
 62
     2
 10
32.9166491523956068
 20
77.1883013100165698
 30
0.0
 42
-0.4142135623768607
  0
VERTEX
  5
628
  8
0
 62
     2
 10
32.616649152394487
 20
76.8883013100165584
 30
0.0
  0
VERTEX
  5
629
  8
0
 62
     2
 10
30.0419141254751985
 20
76.8883013100166295
 30
0.0
 42
0.5773502691894482
  0
VERTEX
  5
62A
  8
0
 62
     2
 10
29.6089014235832089
 20
76.1383013100175532
 30
0.0
  0
VERTEX
  5
62B
  8
0
 62
     2
 10
30.1862516927722702
 20
75.1383013100165584
 30
0.0
 42
0.2679491924314551
  0
VERTEX
  5
62C
  8
0
 62
     2
 10
30.4460593139075399
 20
74.9883013100165243
 30
0.0
  0
VERTEX
  5
62D
  8
0
 62
     2
 10
31.6166491523946007
 20
74.9883013100165243
 30
0.0
 42
-0.4142135623730502
  0
VERTEX
  5
62E
  8
0
 62
     2
 10
31.9166491523946014
 20
74.6883013100165698
 30
0.0
  0
VERTEX
  5
62F
  8
0
 62
     2
 10
31.9166491523956104
 20
63.1383013100166295
 30
0.0
  0
SEQEND
  5
630
  8
0
 62
     2
  0
POLYLINE
  5
4B3
  8
0
 62
     4
 66
     1
 10
0.0
 20
0.0
 30
0.0
 70
     1
  0
VERTEX
  5
631
  8
0
 62
     4
 10
13.2166470471887791
 20
58.3886001048174919
 30
0.0
  0
VERTEX
  5
632
  8
0
 62
     4
 10
9.9148843687667068
 20
64.3883811585185413
 30
0.0
  0
VERTEX
  5
633
  8
0
 62
     4
 10
23.9166470471887216
 20
64.3885365599585953
 30
0.0
  0
VERTEX
  5
634
  8
0
 62
     4
 10
23.9166470471887216
 20
58.388600104818579
 30
0.0
  0
VERTEX
  5
635
  8
0
 62
     4
 10
13.2148843715781101
 20
58.3885949263974879
 30
0.0
  0
SEQEND
  5
636
  8
0
 62
     4
  0
POLYLINE
  5
4B5
  8
0
 62
     4
 66
     1
 10
0.0
 20
0.0
 30
0.0
 70
     1
  0
VERTEX
  5
637
  8
0
 62
     4
 10
34.6166114560582727
 20
86.3883182924459447
 30
0.0
  0
VERTEX
  5
638
  8
0
 62
     4
 10
37.9183741344803522
 20
92.388099346146987
 30
0.0
  0
VERTEX
  5
639
  8
0
 62
     4
 10
23.9166114560583409
 20
92.3882547475870552
 30
0.0
  0
VERTEX
  5
63A
  8
0
 62
     4
 10
23.9166114560583409
 20
86.3883182924470105
 30
0.0
  0
VERTEX
  5
63B
  8
0
 62
     4
 10
34.6183741316689435
 20
86.3883131140259479
 30
0.0
  0
SEQEND
  5
63C
  8
0
 62
     4
  0
POLYLINE
  5
4C5
  8
0
 62
     2
 66
     1
 10
0.0
 20
0.0
 30
0.0
 70
     1
  0
VERTEX
  5
63D
  8
0
 62
     2
 10
18.9166093508519602
 20
78.7883981448925965
 30
0.0
 42
0.4229687292784496
  0
VERTEX
  5
63E
  8
0
 62
     2
 10
20.2568230806906087
 20
79.3883981448924487
 30
0.0
 42
-0.3755467193932443
  0
VERTEX
  5
63F
  8
0
 62
     2
 10
21.7434169245743796
 20
80.6883013100186872
 30
0.0
  0
VERTEX
  5
640
  8
0
 62
     2
 10
25.2800330384843797
 20
80.6883013100186304
 30
0.0
 42
0.3861835673939807
  0
VERTEX
  5
641
  8
0
 62
     2
 10
27.0166093508538516
 20
83.3883981448925056
 30
0.0
  0
VERTEX
  5
642
  8
0
 62
     2
 10
26.4166093508538609
 20
83.3883981448925056
 30
0.0
 42
-0.3502857224856518
  0
VERTEX
  5
643
  8
0
 62
     2
 10
25.2434169245732392
 20
81.2883013100185252
 30
0.0
  0
VERTEX
  5
644
  8
0
 62
     2
 10
21.7434169245713314
 20
81.2883013100185252
 30
0.0
 42
0.2912768075631425
  0
VERTEX
  5
645
  8
0
 62
     2
 10
19.7196388746960203
 20
79.731796332570525
 30
0.0
 42
-0.5057796737552974
  0
VERTEX
  5
646
  8
0
 62
     2
 10
18.9167357558978608
 20
79.3883981448925056
 30
0.0
  0
VERTEX
  5
647
  8
0
 62
     2
 10
18.9166093508519602
 20
78.7883981448925965
 30
0.0
  0
SEQEND
  5
648
  8
0
 62
     2
  0
POLYLINE
  5
4C9
  8
0
 62
     2
 66
     1
 10
0.0
 20
0.0
 30
0.0
 70
     1
  0
VERTEX
  5
649
  8
0
 62
     2
 10
26.8166491523943797
 20
80.6883013100186304
 30
0.0
  0
VERTEX
  5
64A
  8
0
 62
     2
 10
28.2446253803744405
 20
82.0383497274555538
 30
0.0
 42
-0.1833142025536496
  0
VERTEX
  5
64B
  8
0
 62
     2
 10
31.3390240755470906
 20
83.3883981448924487
 30
0.0
  0
VERTEX
  5
64C
  8
0
 62
     2
 10
31.7519877777705091
 20
83.3883981448927329
 30
0.0
  0
VERTEX
  5
64D
  8
0
 62
     2
 10
31.7519877777705091
 20
83.3883981448927329
 30
0.0
 42
-0.7863320061812962
  0
VERTEX
  5
64E
  8
0
 62
     2
 10
31.681796429725221
 20
82.9014306391956666
 30
0.0
  0
VERTEX
  5
64F
  8
0
 62
     2
 10
31.0342096170698198
 20
82.8393791373751469
 30
0.0
 42
0.1735034160695035
  0
VERTEX
  5
650
  8
0
 62
     2
 10
29.6016359784043992
 20
81.7328144727866288
 30
0.0
  0
VERTEX
  5
651
  8
0
 62
     2
 10
28.8166491523943797
 20
80.6883013100186304
 30
0.0
  0
VERTEX
  5
652
  8
0
 62
     2
 10
26.8166491523943797
 20
80.6883013100186304
 30
0.0
  0
SEQEND
  5
653
  8
0
 62
     2
  0
POLYLINE
  5
4CC
  8
0
 62
     2
 66
     1
 10
0.0
 20
0.0
 30
0.0
 70
     1
  0
VERTEX
  5
654
  8
0
 62
     2
 10
28.9166491523955713
 20
71.988301310014748
 30
0.0
 42
0.4229687292784496
  0
VERTEX
  5
655
  8
0
 62
     2
 10
27.5764354225569086
 20
71.3883013100148958
 30
0.0
 42
-0.3755467193932443
  0
VERTEX
  5
656
  8
0
 62
     2
 10
26.0898415786731483
 20
70.0883981448886715
 30
0.0
  0
VERTEX
  5
657
  8
0
 62
     2
 10
22.5532254647631412
 20
70.0883981448887141
 30
0.0
 42
0.3861835673939807
  0
VERTEX
  5
658
  8
0
 62
     2
 10
20.8166491523936585
 20
67.3883013100148531
 30
0.0
  0
VERTEX
  5
659
  8
0
 62
     2
 10
21.41664915239366
 20
67.3883013100148531
 30
0.0
 42
-0.3502857224856518
  0
VERTEX
  5
65A
  8
0
 62
     2
 10
22.5898415786742817
 20
69.4883981448888193
 30
0.0
  0
VERTEX
  5
65B
  8
0
 62
     2
 10
26.0898415786761895
 20
69.4883981448888193
 30
0.0
 42
0.2912768075631425
  0
VERTEX
  5
65C
  8
0
 62
     2
 10
28.1136196285515005
 20
71.0449031223368195
 30
0.0
 42
-0.5057796737552974
  0
VERTEX
  5
65D
  8
0
 62
     2
 10
28.91652274734966
 20
71.3883013100148247
 30
0.0
  0
VERTEX
  5
65E
  8
0
 62
     2
 10
28.9166491523955713
 20
71.988301310014748
 30
0.0
  0
SEQEND
  5
65F
  8
0
 62
     2
  0
POLYLINE
  5
4CD
  8
0
 62
     2
 66
     1
 10
0.0
 20
0.0
 30
0.0
 70
     1
  0
VERTEX
  5
660
  8
0
 62
     2
 10
21.0166093508531411
 20
70.0883981448887141
 30
0.0
  0
VERTEX
  5
661
  8
0
 62
     2
 10
19.588633122873091
 20
68.7383497274517907
 30
0.0
 42
-0.1833142025536496
  0
VERTEX
  5
662
  8
0
 62
     2
 10
16.4942344277004302
 20
67.38830131001491
 30
0.0
  0
VERTEX
  5
663
  8
0
 62
     2
 10
16.0812707254770011
 20
67.3883013100146258
 30
0.0
  0
VERTEX
  5
664
  8
0
 62
     2
 10
16.0812707254770011
 20
67.3883013100146258
 30
0.0
 42
-0.7863320061812962
  0
VERTEX
  5
665
  8
0
 62
     2
 10
16.1514620735223104
 20
67.8752688157116921
 30
0.0
  0
VERTEX
  5
666
  8
0
 62
     2
 10
16.799048886177701
 20
67.9373203175322118
 30
0.0
 42
0.1735034160695035
  0
VERTEX
  5
667
  8
0
 62
     2
 10
18.2316225248431216
 20
69.0438849821207299
 30
0.0
  0
VERTEX
  5
668
  8
0
 62
     2
 10
19.0166093508531411
 20
70.0883981448887141
 30
0.0
  0
VERTEX
  5
669
  8
0
 62
     2
 10
21.0166093508531411
 20
70.0883981448887141
 30
0.0
  0
SEQEND
  5
66A
  8
0
 62
     2
  0
ENDSEC
  0
EOF
