  0
SECTION
  2
HEADER
  9
$ACADVER
  1
AC1009
  9
$INSBASE
 10
0.0
 20
0.0
 30
0.0
  9
$EXTMIN
 10
0.0512705091983889
 20
0.0589148761458773
 30
-0.0000000349181948
  9
$EXTMAX
 10
97.4954229657253109
 20
38.0812229242656031
 30
0.0000000814935747
  9
$LIMMIN
 10
0.0
 20
0.0
  9
$LIMMAX
 10
420.0
 20
297.0
  9
$ORTHOMODE
 70
     1
  9
$REGENMODE
 70
     1
  9
$FILLMODE
 70
     1
  9
$QTEXTMODE
 70
     0
  9
$MIRRTEXT
 70
     0
  9
$DRAGMODE
 70
     2
  9
$LTSCALE
 40
1.0
  9
$OSMODE
 70
   167
  9
$ATTMODE
 70
     1
  9
$TEXTSIZE
 40
2.5
  9
$TRACEWID
 40
1.0
  9
$TEXTSTYLE
  7
STANDARD
  9
$CLAYER
  8
DEFPOINTS
  9
$CELTYPE
  6
BYLAYER
  9
$CECOLOR
 62
    32
  9
$DIMSCALE
 40
1.0
  9
$DIMASZ
 40
2.5
  9
$DIMEXO
 40
0.625
  9
$DIMDLI
 40
3.75
  9
$DIMRND
 40
0.0
  9
$DIMDLE
 40
0.0
  9
$DIMEXE
 40
1.25
  9
$DIMTP
 40
0.0
  9
$DIMTM
 40
0.0
  9
$DIMTXT
 40
2.5
  9
$DIMCEN
 40
2.5
  9
$DIMTSZ
 40
0.0
  9
$DIMTOL
 70
     0
  9
$DIMLIM
 70
     0
  9
$DIMTIH
 70
     0
  9
$DIMTOH
 70
     0
  9
$DIMSE1
 70
     0
  9
$DIMSE2
 70
     0
  9
$DIMTAD
 70
     1
  9
$DIMZIN
 70
     8
  9
$DIMBLK
  1

  9
$DIMASO
 70
     1
  9
$DIMSHO
 70
     1
  9
$DIMPOST
  1

  9
$DIMAPOST
  1

  9
$DIMALT
 70
     0
  9
$DIMALTD
 70
     3
  9
$DIMALTF
 40
0.03937007874016
  9
$DIMLFAC
 40
1.0
  9
$DIMTOFL
 70
     1
  9
$DIMTVP
 40
0.0
  9
$DIMTIX
 70
     0
  9
$DIMSOXD
 70
     0
  9
$DIMSAH
 70
     0
  9
$DIMBLK1
  1

  9
$DIMBLK2
  1

  9
$DIMSTYLE
  2
ISO-25
  9
$DIMCLRD
 70
     0
  9
$DIMCLRE
 70
     0
  9
$DIMCLRT
 70
     0
  9
$DIMTFAC
 40
1.0
  9
$DIMGAP
 40
0.625
  9
$LUNITS
 70
     2
  9
$LUPREC
 70
     4
  9
$SKETCHINC
 40
1.0
  9
$FILLETRAD
 40
0.0
  9
$AUNITS
 70
     0
  9
$AUPREC
 70
     0
  9
$MENU
  1
.
  9
$ELEVATION
 40
0.0
  9
$PELEVATION
 40
0.0
  9
$THICKNESS
 40
0.0
  9
$LIMCHECK
 70
     0
  9
$BLIPMODE
 70
     0
  9
$CHAMFERA
 40
0.0
  9
$CHAMFERB
 40
0.0
  9
$SKPOLY
 70
     0
  9
$TDCREATE
 40
2458870.5814583338797092
  9
$TDUPDATE
 40
2458872.4647916671819985
  9
$TDINDWG
 40
0.0258564815
  9
$TDUSRTIMER
 40
0.0258564815
  9
$USRTIMER
 70
     1
  9
$ANGBASE
 50
0.0
  9
$ANGDIR
 70
     0
  9
$PDMODE
 70
     0
  9
$PDSIZE
 40
0.0
  9
$PLINEWID
 40
0.0
  9
$COORDS
 70
     1
  9
$SPLFRAME
 70
     0
  9
$SPLINETYPE
 70
     6
  9
$SPLINESEGS
 70
     8
  9
$ATTDIA
 70
     1
  9
$ATTREQ
 70
     1
  9
$HANDLING
 70
     1
  9
$HANDSEED
  5
3220
  9
$SURFTAB1
 70
     6
  9
$SURFTAB2
 70
     6
  9
$SURFTYPE
 70
     6
  9
$SURFU
 70
     6
  9
$SURFV
 70
     6
  9
$UCSNAME
  2

  9
$UCSORG
 10
0.0
 20
0.0
 30
0.0
  9
$UCSXDIR
 10
1.0
 20
0.0
 30
0.0
  9
$UCSYDIR
 10
0.0
 20
1.0
 30
0.0
  9
$PUCSNAME
  2

  9
$PUCSORG
 10
0.0
 20
0.0
 30
0.0
  9
$PUCSXDIR
 10
1.0
 20
0.0
 30
0.0
  9
$PUCSYDIR
 10
0.0
 20
1.0
 30
0.0
  9
$USERI1
 70
     0
  9
$USERI2
 70
     0
  9
$USERI3
 70
     0
  9
$USERI4
 70
     0
  9
$USERI5
 70
     0
  9
$USERR1
 40
0.0
  9
$USERR2
 40
0.0
  9
$USERR3
 40
0.0
  9
$USERR4
 40
0.0
  9
$USERR5
 40
0.0
  9
$WORLDVIEW
 70
     1
  9
$SHADEDGE
 70
     3
  9
$SHADEDIF
 70
    70
  9
$TILEMODE
 70
     1
  9
$MAXACTVP
 70
    64
  9
$PLIMCHECK
 70
     0
  9
$PEXTMIN
 10
1.0499999523162831
 20
0.7999999523162842
 30
0.0
  9
$PEXTMAX
 10
9.4499995708465594
 20
7.1999995708465567
 30
0.0
  9
$PLIMMIN
 10
-0.2500002402958907
 20
-0.2499999962453767
  9
$PLIMMAX
 10
10.7499995194082203
 20
8.2499997634587334
  9
$UNITMODE
 70
     0
  9
$VISRETAIN
 70
     1
  9
$PLINEGEN
 70
     0
  9
$PSLTSCALE
 70
     1
  0
ENDSEC
  0
SECTION
  2
TABLES
  0
TABLE
  2
VPORT
 70
     1
  0
VPORT
  2
*ACTIVE
 70
     0
 10
0.0
 20
0.0
 11
1.0
 21
1.0
 12
60.3678083511014165
 22
18.4019485248547312
 13
0.0
 23
0.0
 14
10.0
 24
10.0
 15
10.0
 25
10.0
 16
0.0
 26
0.0
 36
1.0
 17
0.0
 27
0.0
 37
0.0
 40
68.2510847511616703
 41
2.29156626506024
 42
50.0
 43
0.0
 44
0.0
 50
0.0
 51
0.0
 71
     0
 72
  1000
 73
     1
 74
     3
 75
     0
 76
     1
 77
     0
 78
     0
  0
ENDTAB
  0
TABLE
  2
LTYPE
 70
     2
  0
LTYPE
  2
CONTINUOUS
 70
     0
  3
Solid line
 72
    65
 73
     0
 40
0.0
  0
ENDTAB
  0
TABLE
  2
LAYER
 70
     4
  0
LAYER
  2
0
 70
     0
 62
     7
  6
CONTINUOUS
  0
LAYER
  2
DEFPOINTS
 70
     0
 62
    -7
  6
CONTINUOUS
  0
ENDTAB
  0
TABLE
  2
STYLE
 70
     4
  0
STYLE
  2
STANDARD
 70
     0
 40
0.0
 41
1.0
 50
0.0
 71
     0
 42
2.5
  3
txt
  4

  0
ENDTAB
  0
TABLE
  2
VIEW
 70
     0
  0
ENDTAB
  0
TABLE
  2
UCS
 70
     0
  0
ENDTAB
  0
TABLE
  2
APPID
 70
    21
  0
APPID
  2
ACAD
 70
     0
  0
APPID
  2
ACADANNOTATIVE
 70
     0
  0
APPID
  2
ACAD_PSEXT
 70
     0
  0
APPID
  2
ACADANNOPO
 70
     0
  0
APPID
  2
ACAD_DSTYLE_DIMJAG
 70
     0
  0
APPID
  2
ACAD_DSTYLE_DIMTALN
 70
     0
  0
APPID
  2
ACAD_MLEADERVER
 70
     0
  0
APPID
  2
ACAD_NAV_VCDISPLAY
 70
     0
  0
APPID
  2
ACAD_DSTYLE_DIMBREAK
 70
     0
  0
APPID
  2
ACAECLAYERSTANDARD
 70
     0
  0
APPID
  2
ACAUTHENVIRON
 70
     0
  0
APPID
  2
ACDBDYNAMICBLOCKTRUENAME
 70
     0
  0
APPID
  2
ACDBDYNAMICBLOCKGUID
 70
     0
  0
APPID
  2
ACCMTRANSPARENCY
 70
     0
  0
APPID
  2
ACDBBLOCKREPETAG
 70
     0
  0
APPID
  2
GRADIENTCOLOR1ACI
 70
     0
  0
APPID
  2
GRADIENTCOLOR2ACI
 70
     0
  0
APPID
  2
ACDBBLOCKREPBTAG
 70
     0
  0
APPID
  2
ACDBBLOCKARRAYACTIONTAG
 70
     0
  0
APPID
  2
ACAD_EXEMPT_FROM_CAD_STANDARDS
 70
     0
  0
APPID
  2
ACADANNOAV
 70
     0
  0
ENDTAB
  0
TABLE
  2
DIMSTYLE
 70
     5
  0
DIMSTYLE
  2
STANDARD
 70
     0
  3

  4

  5

  6

  7

 40
1.0
 41
0.18
 42
0.0625
 43
0.38
 44
0.18
 45
0.0
 46
0.0
 47
0.0
 48
0.0
140
0.18
141
0.09
142
0.0
143
25.3999999999999986
144
1.0
145
0.0
146
1.0
147
0.09
 71
     0
 72
     0
 73
     1
 74
     1
 75
     0
 76
     0
 77
     0
 78
     0
170
     0
171
     2
172
     0
173
     0
174
     0
175
     0
176
     0
177
     0
178
     0
  0
DIMSTYLE
  2
ISO-25
 70
     0
  3

  4

  5

  6

  7

 40
1.0
 41
2.5
 42
0.625
 43
3.75
 44
1.25
 45
0.0
 46
0.0
 47
0.0
 48
0.0
140
2.5
141
2.5
142
0.0
143
0.03937007874016
144
1.0
145
0.0
146
1.0
147
0.625
 71
     0
 72
     0
 73
     0
 74
     0
 75
     0
 76
     0
 77
     1
 78
     8
170
     0
171
     3
172
     1
173
     0
174
     0
175
     0
176
     0
177
     0
178
     0
  0
ENDTAB
  0
ENDSEC
  0
SECTION
  2
BLOCKS
  0
BLOCK
  8
0
  2
$MODEL_SPACE
 70
     0
 10
0.0
 20
0.0
 30
0.0
  3
$MODEL_SPACE
  1

  0
ENDBLK
  5
2BBB
  8
0
  0
BLOCK
 67
     1
  8
0
  2
$PAPER_SPACE
 70
     0
 10
0.0
 20
0.0
 30
0.0
  3
$PAPER_SPACE
  1

  0
ENDBLK
  5
2BB7
 67
     1
  8
0
  0
ENDSEC
  0
SECTION
  2
ENTITIES
  0
LINE
  5
2D14
  8
DEFPOINTS
 62
   242
 10
38.1826922506515984
 20
15.9997065647929695
 30
0.0
 11
39.7044079035768007
 21
14.9312108167722499
 31
0.0
1001
ACDBBLOCKREPETAG
1070
     1
1071
        0
1005
2D14
  0
LINE
  5
2D15
  8
DEFPOINTS
 62
   242
 10
39.7044079035768007
 20
14.9312108167722499
 30
0.0
 11
40.1651774190322612
 21
14.9312108167722499
 31
0.0
1001
ACDBBLOCKREPETAG
1070
     1
1071
        1
1005
2D15
  0
ARC
  5
2D16
  8
DEFPOINTS
 62
   242
 10
40.1651774190322612
 20
15.2312108167733395
 30
0.0
 40
0.3000000000001819
 50
270.0
 51
0.0
1001
ACDBBLOCKREPETAG
1070
     1
1071
        2
1005
2D16
  0
ARC
  5
2D17
  8
DEFPOINTS
 62
   242
 10
40.1651774190322612
 20
18.831210816771879
 30
0.0
 40
0.3000000000001819
 50
0.0000000000521102
 51
90.0
1001
ACDBBLOCKREPETAG
1070
     1
1071
        3
1005
2D17
  0
LINE
  5
2D18
  8
DEFPOINTS
 62
   242
 10
40.1651774190322612
 20
19.1312108167729811
 30
0.0
 11
39.7044079035768007
 21
19.1312108167729811
 31
0.0
1001
ACDBBLOCKREPETAG
1070
     1
1071
        4
1005
2D18
  0
LINE
  5
2D19
  8
DEFPOINTS
 62
   242
 10
39.7044079035768007
 20
19.1312108167729811
 30
0.0
 11
37.6526327773681331
 21
17.946617895336999
 31
0.0
1001
ACDBBLOCKREPETAG
1070
     1
1071
        5
1005
2D19
  0
ARC
  5
2D1A
  8
DEFPOINTS
 62
   242
 10
37.5951327773582307
 20
18.0462108167720316
 30
0.0
 40
0.1149999999997914
 50
270.0
 51
299.9999999999972147
1001
ACDBBLOCKREPETAG
1070
     1
1071
        6
1005
2D1A
  0
LINE
  5
2D1B
  8
DEFPOINTS
 62
   242
 10
37.5951327773582307
 20
17.9312108167722499
 30
0.0
 11
36.5662643061587005
 21
17.9312108167722499
 31
0.0
1001
ACDBBLOCKREPETAG
1070
     1
1071
        7
1005
2D1B
  0
ARC
  5
2D1C
  8
DEFPOINTS
 62
   242
 10
36.5662643061587005
 20
17.6312108167720716
 30
0.0
 40
0.3000000000006366
 50
90.0
 51
155.0000000000709974
1001
ACDBBLOCKREPETAG
1070
     1
1071
        8
1005
2D1C
  0
LINE
  5
2D1D
  8
DEFPOINTS
 62
   242
 10
36.2943719700488074
 20
17.7579962952949018
 30
0.0
 11
34.8471530651513604
 21
14.6544253382506895
 31
0.0
1001
ACDBBLOCKREPETAG
1070
     1
1071
        9
1005
2D1D
  0
ARC
  5
2D1E
  8
DEFPOINTS
 62
   242
 10
34.5752607290414815
 20
14.7812108167735197
 30
0.0
 40
0.3000000000009071
 50
270.0
 51
335.0000000000708837
1001
ACDBBLOCKREPETAG
1070
     1
1071
       10
1005
2D1E
  0
LINE
  5
2D20
  8
DEFPOINTS
 62
   242
 10
35.9938795341877977
 20
13.0706004740633599
 30
0.0
 11
37.4631123090875917
 21
15.8418160342188195
 31
0.0
1001
ACDBBLOCKREPETAG
1070
     1
1071
       12
1005
2D20
  0
ARC
  5
2D21
  8
DEFPOINTS
 62
   242
 10
37.8953667558598681
 20
15.5905072734384404
 30
0.0
 40
0.5
 50
54.924805553831817
 51
149.8266745430111939
1001
ACDBBLOCKREPETAG
1070
     1
1071
       13
1005
2D21
  0
ARC
  5
2D33
  8
DEFPOINTS
 62
   242
 10
38.1629410403886666
 20
18.4694571557360696
 30
0.0
 40
0.1977679488041127
 50
179.6209674002531926
 51
302.0775572277034939
1001
ACDBBLOCKREPETAG
1070
     1
1071
       31
1005
2D33
  0
LINE
  5
2D34
  8
DEFPOINTS
 62
   242
 10
24.7476625874187484
 20
15.9997065647929695
 30
0.0
 11
23.2259469344935496
 21
14.9312108167722499
 31
0.0
1001
ACDBBLOCKREPETAG
1070
     1
1071
       32
1005
2D34
  0
LINE
  5
2D35
  8
DEFPOINTS
 62
   242
 10
23.2259469344935496
 20
14.9312108167722499
 30
0.0
 11
22.7651774190380785
 21
14.9312108167722499
 31
0.0
1001
ACDBBLOCKREPETAG
1070
     1
1071
       33
1005
2D35
  0
ARC
  5
2D36
  8
DEFPOINTS
 62
   242
 10
22.7651774190380785
 20
15.2312108167733395
 30
0.0
 40
0.3000000000001819
 50
180.0
 51
270.0
1001
ACDBBLOCKREPETAG
1070
     1
1071
       34
1005
2D36
  0
ARC
  5
2D37
  8
DEFPOINTS
 62
   242
 10
22.7651774190380785
 20
18.831210816771879
 30
0.0
 40
0.3000000000001819
 50
90.0
 51
179.999999999947903
1001
ACDBBLOCKREPETAG
1070
     1
1071
       35
1005
2D37
  0
LINE
  5
2D38
  8
DEFPOINTS
 62
   242
 10
22.7651774190380785
 20
19.1312108167729811
 30
0.0
 11
23.2259469344935496
 21
19.1312108167729811
 31
0.0
1001
ACDBBLOCKREPETAG
1070
     1
1071
       36
1005
2D38
  0
LINE
  5
2D39
  8
DEFPOINTS
 62
   242
 10
23.2259469344935496
 20
19.1312108167729811
 30
0.0
 11
25.2777220607022208
 21
17.946617895336999
 31
0.0
1001
ACDBBLOCKREPETAG
1070
     1
1071
       37
1005
2D39
  0
ARC
  5
2D3A
  8
DEFPOINTS
 62
   242
 10
25.335222060712109
 20
18.0462108167720316
 30
0.0
 40
0.1149999999997914
 50
240.0000000000028137
 51
270.0
1001
ACDBBLOCKREPETAG
1070
     1
1071
       38
1005
2D3A
  0
LINE
  5
2D3B
  8
DEFPOINTS
 62
   242
 10
25.335222060712109
 20
17.9312108167722499
 30
0.0
 11
26.3640905319116392
 21
17.9312108167722499
 31
0.0
1001
ACDBBLOCKREPETAG
1070
     1
1071
       39
1005
2D3B
  0
ARC
  5
2D3C
  8
DEFPOINTS
 62
   242
 10
26.3640905319116392
 20
17.6312108167720716
 30
0.0
 40
0.3000000000006366
 50
24.9999999999289386
 51
90.0
1001
ACDBBLOCKREPETAG
1070
     1
1071
       40
1005
2D3C
  0
LINE
  5
2D3D
  8
DEFPOINTS
 62
   242
 10
26.6359828680215287
 20
17.7579962952949018
 30
0.0
 11
28.08320177291899
 21
14.6544253382506895
 31
0.0
1001
ACDBBLOCKREPETAG
1070
     1
1071
       41
1005
2D3D
  0
ARC
  5
2D3E
  8
DEFPOINTS
 62
   242
 10
28.3550941090288688
 20
14.7812108167735197
 30
0.0
 40
0.3000000000009071
 50
204.9999999999288889
 51
270.0
1001
ACDBBLOCKREPETAG
1070
     1
1071
       42
1005
2D3E
  0
LINE
  5
2D3F
  8
DEFPOINTS
 62
   242
 10
28.3550941090288688
 20
14.4812108167733395
 30
0.0
 11
34.5752607290414815
 21
14.4812108167733395
 31
0.0
1001
ACDBBLOCKREPETAG
1070
     1
1071
       43
1005
2D3F
  0
LINE
  5
2D42
  8
DEFPOINTS
 62
   242
 10
26.9364753030532391
 20
13.0706005447385003
 30
0.0
 11
25.4672425289827515
 21
15.8418160342188195
 31
0.0
1001
ACDBBLOCKREPETAG
1070
     1
1071
       46
1005
2D42
  0
ARC
  5
2D43
  8
DEFPOINTS
 62
   242
 10
25.0349880822104787
 20
15.5905072734384404
 30
0.0
 40
0.5
 50
30.1733254569887599
 51
125.075194446183005
1001
ACDBBLOCKREPETAG
1070
     1
1071
       47
1005
2D43
  0
ARC
  5
2D57
  8
DEFPOINTS
 62
   242
 10
24.7653629954780783
 20
18.4710504172541512
 30
0.0
 40
0.1998146267553403
 50
232.2560720961546963
 51
359.9182881983479092
1001
ACDBBLOCKREPETAG
1070
     1
1071
       67
1005
2D57
  0
LINE
  5
2D58
  8
DEFPOINTS
 62
   242
 10
24.9651770355921983
 20
18.4707652214218605
 30
0.0
 11
24.9651770355921983
 21
22.0707655088279999
 31
0.0
1001
ACDBBLOCKREPETAG
1070
     1
1071
       68
1005
2D58
  0
ARC
  5
2D59
  8
DEFPOINTS
 62
   242
 10
24.7651774190344511
 20
22.0707654537235385
 30
0.0
 40
0.2
 50
0.0
 51
90.0
1001
ACDBBLOCKREPETAG
1070
     1
1071
       69
1005
2D59
  0
ARC
  5
2D5B
  8
DEFPOINTS
 62
   242
 10
19.6651774190349897
 20
22.0707654537235385
 30
0.0
 40
0.2
 50
90.0
 51
180.0
1001
ACDBBLOCKREPETAG
1070
     1
1071
       71
1005
2D5B
  0
LINE
  5
2D5C
  8
DEFPOINTS
 62
   242
 10
19.4651775310558115
 20
22.0707655088279999
 30
0.0
 11
19.4651775310558115
 21
16.5707656550456512
 31
0.0
1001
ACDBBLOCKREPETAG
1070
     1
1071
       72
1005
2D5C
  0
ARC
  5
2D5D
  8
DEFPOINTS
 62
   242
 10
18.9651774190351716
 20
16.5707654537235385
 30
0.0
 40
0.5000000000000057
 50
270.0
 51
0.0
1001
ACDBBLOCKREPETAG
1070
     1
1071
       73
1005
2D5D
  0
LINE
  5
2D5E
  8
DEFPOINTS
 62
   242
 10
18.9651774490994285
 20
16.0707651074279703
 30
0.0
 11
17.1177405646812986
 21
16.0707651074279703
 31
0.0
1001
ACDBBLOCKREPETAG
1070
     1
1071
       74
1005
2D5E
  0
ARC
  5
2D5F
  8
DEFPOINTS
 62
   242
 10
17.1177405612143012
 20
16.5707654537235385
 30
0.0
 40
0.5000000000000062
 50
188.4473170394875012
 51
270.0
1001
ACDBBLOCKREPETAG
1070
     1
1071
       75
1005
2D5F
  0
ARC
  5
2D60
  8
DEFPOINTS
 62
   242
 10
15.8813013678445696
 20
16.3871405068879312
 30
0.0
 40
0.7500000000000056
 50
8.4473170394876291
 51
130.06772952784209
1001
ACDBBLOCKREPETAG
1070
     1
1071
       76
1005
2D60
  0
ARC
  5
2D61
  8
DEFPOINTS
 62
   242
 10
14.4651774190351698
 20
18.0707654537235385
 30
0.0
 40
1.449999999999996
 50
49.9322704721580735
 51
310.067729527841891
1001
ACDBBLOCKREPETAG
1070
     1
1071
       77
1005
2D61
  0
ARC
  5
2D62
  8
DEFPOINTS
 62
   242
 10
15.8813013678445696
 20
19.7543904005591386
 30
0.0
 40
0.7500000000000026
 50
229.93227047215791
 51
49.9322704721580735
1001
ACDBBLOCKREPETAG
1070
     1
1071
       78
1005
2D62
  0
ARC
  5
2D63
  8
DEFPOINTS
 62
   242
 10
14.4651774190351698
 20
18.0707654537235385
 30
0.0
 40
2.9500000000000011
 50
49.9322704721580735
 51
171.6669170036799983
1001
ACDBBLOCKREPETAG
1070
     1
1071
       79
1005
2D63
  0
ARC
  5
2D64
  8
DEFPOINTS
 62
   242
 10
11.0516015812954702
 20
18.5707654537235385
 30
0.0
 40
0.5
 50
270.0
 51
351.6669170036799983
1001
ACDBBLOCKREPETAG
1070
     1
1071
       80
1005
2D64
  0
LINE
  5
2D65
  8
DEFPOINTS
 62
   242
 10
11.0516014757376997
 20
18.0707654352535201
 30
0.0
 11
9.9651773708683322
 21
18.0707654352535201
 31
0.0
1001
ACDBBLOCKREPETAG
1070
     1
1071
       81
1005
2D65
  0
ARC
  5
2D66
  8
DEFPOINTS
 62
   242
 10
9.9651774190351716
 20
18.5707654537235385
 30
0.0
 40
0.5
 50
180.0
 51
270.0
1001
ACDBBLOCKREPETAG
1070
     1
1071
       82
1005
2D66
  0
LINE
  5
2D67
  8
DEFPOINTS
 62
   242
 10
9.4651772889119457
 20
18.5707655172099102
 30
0.0
 11
9.4651397892166642
 21
26.07060058278444
 31
0.0
1001
ACDBBLOCKREPETAG
1070
     1
1071
       83
1005
2D67
  0
ARC
  5
2D6B
  8
DEFPOINTS
 62
   242
 10
8.8760951842145772
 20
34.3555367764143114
 30
0.0
 40
0.7205910837920236
 50
35.1700180065107517
 51
82.8987089390947034
1001
ACDBBLOCKREPETAG
1070
     1
1071
       87
1005
2D6B
  0
LINE
  5
2D6C
  8
DEFPOINTS
 62
   242
 10
8.9651772069555626
 20
35.0706005837072325
 30
0.0
 11
6.9651023733240471
 21
35.0706005837072325
 31
0.0
1001
ACDBBLOCKREPETAG
1070
     1
1071
       88
1005
2D6C
  0
ARC
  5
2D6D
  8
DEFPOINTS
 62
   242
 10
6.9651022279285861
 20
34.5706003158846897
 30
0.0
 40
0.5000000000000029
 50
90.0
 51
180.0
1001
ACDBBLOCKREPETAG
1070
     1
1071
       89
1005
2D6D
  0
LINE
  5
2D6E
  8
DEFPOINTS
 62
   242
 10
6.4651022913676597
 20
34.5706005017508531
 30
0.0
 11
6.465102291367657
 21
13.2706003631700504
 31
0.0
1001
ACDBBLOCKREPETAG
1070
     1
1071
       90
1005
2D6E
  0
ARC
  5
2D6F
  8
DEFPOINTS
 62
   242
 10
6.6651022279293102
 20
13.2706003158854209
 30
0.0
 40
0.2000000000000796
 50
180.0
 51
270.0
1001
ACDBBLOCKREPETAG
1070
     1
1071
       91
1005
2D6F
  0
LINE
  5
2D70
  8
DEFPOINTS
 62
   242
 10
6.6651019516211809
 20
13.0706007029165203
 30
0.0
 11
56.2652526101410331
 21
13.0706003158853399
 31
0.0
1001
ACDBBLOCKREPETAG
1070
     1
1071
       92
1005
2D70
  0
LINE
  5
2D73
  8
DEFPOINTS
 62
   242
 10
37.9651778024790474
 20
18.4707652214213986
 30
0.0
 11
37.9651778024790474
 21
22.0707655088275487
 31
0.0
1001
ACDBBLOCKREPETAG
1070
     1
1071
       95
1005
2D73
  0
ARC
  5
2D74
  8
DEFPOINTS
 62
   242
 10
38.1651774190349897
 20
22.0707654537235385
 30
0.0
 40
0.2000000000000028
 50
90.0
 51
180.0
1001
ACDBBLOCKREPETAG
1070
     1
1071
       96
1005
2D74
  0
ARC
  5
2D76
  8
DEFPOINTS
 62
   242
 10
43.2651774190353535
 20
22.0707654537235385
 30
0.0
 40
0.1999999999999993
 50
0.0
 51
90.0
1001
ACDBBLOCKREPETAG
1070
     1
1071
       98
1005
2D76
  0
LINE
  5
2D77
  8
DEFPOINTS
 62
   242
 10
43.4651773070154377
 20
22.0707655088275487
 30
0.0
 11
43.4651773070154377
 21
16.5707656550451894
 31
0.0
1001
ACDBBLOCKREPETAG
1070
     1
1071
       99
1005
2D77
  0
ARC
  5
2D78
  8
DEFPOINTS
 62
   242
 10
43.9651774190351716
 20
16.5707654537235385
 30
0.0
 40
0.5000000000000036
 50
180.0
 51
270.0
1001
ACDBBLOCKREPETAG
1070
     1
1071
      100
1005
2D78
  0
LINE
  5
2D79
  8
DEFPOINTS
 62
   242
 10
43.9651773889718172
 20
16.0707651074275191
 30
0.0
 11
45.8126142733899471
 21
16.0707651074275191
 31
0.0
1001
ACDBBLOCKREPETAG
1070
     1
1071
      101
1005
2D79
  0
ARC
  5
2D7A
  8
DEFPOINTS
 62
   242
 10
45.8126142768560314
 20
16.5707654537235385
 30
0.0
 40
0.5000000000000038
 50
270.0
 51
351.5526829605897206
1001
ACDBBLOCKREPETAG
1070
     1
1071
      102
1005
2D7A
  0
ARC
  5
2D7B
  8
DEFPOINTS
 62
   242
 10
47.0490534702257719
 20
16.3871405068879312
 30
0.0
 40
0.7499999999999987
 50
49.9322704721746788
 51
171.5526829605896921
1001
ACDBBLOCKREPETAG
1070
     1
1071
      103
1005
2D7B
  0
ARC
  5
2D7C
  8
DEFPOINTS
 62
   242
 10
48.4651774190351716
 20
18.0707654537235385
 30
0.0
 40
1.4500000000000071
 50
229.9322704721745936
 51
130.0677295278252927
1001
ACDBBLOCKREPETAG
1070
     1
1071
      104
1005
2D7C
  0
ARC
  5
2D7D
  8
DEFPOINTS
 62
   242
 10
47.0490534702257719
 20
19.7543904005591386
 30
0.0
 40
0.7499999999999979
 50
130.0677295278252927
 51
310.0677295278252927
1001
ACDBBLOCKREPETAG
1070
     1
1071
      105
1005
2D7D
  0
ARC
  5
2D7E
  8
DEFPOINTS
 62
   242
 10
48.4651774190351716
 20
18.0707654537235385
 30
0.0
 40
2.9499999999999962
 50
8.3330829962941753
 51
130.0677295278252927
1001
ACDBBLOCKREPETAG
1070
     1
1071
      106
1005
2D7E
  0
ARC
  5
2D7F
  8
DEFPOINTS
 62
   242
 10
51.8787532567748713
 20
18.5707654537235314
 30
0.0
 40
0.5000000000000019
 50
188.3330829962941095
 51
270.0
1001
ACDBBLOCKREPETAG
1070
     1
1071
      107
1005
2D7F
  0
LINE
  5
2D80
  8
DEFPOINTS
 62
   242
 10
51.8787533623335477
 20
18.0707654352530582
 30
0.0
 11
52.9651774672029205
 21
18.0707654352530582
 31
0.0
1001
ACDBBLOCKREPETAG
1070
     1
1071
      108
1005
2D80
  0
ARC
  5
2D81
  8
DEFPOINTS
 62
   242
 10
52.9651774190351716
 20
18.5707654537235314
 30
0.0
 40
0.4999999999999965
 50
270.0
 51
0.0
1001
ACDBBLOCKREPETAG
1070
     1
1071
      109
1005
2D81
  0
LINE
  5
2D82
  8
DEFPOINTS
 62
   242
 10
53.4651775491593071
 20
18.5707655172094483
 30
0.0
 11
53.4651775491593071
 21
26.07060058278444
 31
0.0
1001
ACDBBLOCKREPETAG
1070
     1
1071
      110
1005
2D82
  0
LINE
  5
2D86
  8
DEFPOINTS
 62
   242
 10
53.4651775491593071
 20
38.0706001441225226
 30
0.0
 11
96.9651790914294907
 21
38.0706001441225226
 31
0.0
1001
ACDBBLOCKREPETAG
1070
     1
1071
      114
1005
2D86
  0
ARC
  5
2D87
  8
DEFPOINTS
 62
   242
 10
96.9651774190351858
 20
37.5706003158846826
 30
0.0
 40
0.5
 50
0.0
 51
90.0
1001
ACDBBLOCKREPETAG
1070
     1
1071
      115
1005
2D87
  0
LINE
  5
2D88
  8
DEFPOINTS
 62
   242
 10
97.4651763794181534
 20
37.5706000621661289
 30
0.0
 11
97.4651763794181534
 21
32.5706001739248379
 31
0.0
1001
ACDBBLOCKREPETAG
1070
     1
1071
      116
1005
2D88
  0
ARC
  5
2D89
  8
DEFPOINTS
 62
   242
 10
96.9651774190351858
 20
32.5706003158846826
 30
0.0
 40
0.5
 50
270.0
 51
0.0
1001
ACDBBLOCKREPETAG
1070
     1
1071
      117
1005
2D89
  0
LINE
  5
2D8A
  8
DEFPOINTS
 62
   242
 10
96.9651790914294907
 20
32.0706000919684513
 30
0.0
 11
89.9651760813949295
 21
32.0706000919684513
 31
0.0
1001
ACDBBLOCKREPETAG
1070
     1
1071
      118
1005
2D8A
  0
ARC
  5
2D8B
  8
DEFPOINTS
 62
   242
 10
89.9651774190351716
 20
32.5706003158846826
 30
0.0
 40
0.5
 50
180.0
 51
270.0
1001
ACDBBLOCKREPETAG
1070
     1
1071
      119
1005
2D8B
  0
LINE
  5
2D8C
  8
DEFPOINTS
 62
   242
 10
89.4651787934062668
 20
32.5706001739248379
 30
0.0
 11
89.4651787934062668
 21
34.8705999921306713
 31
0.0
1001
ACDBBLOCKREPETAG
1070
     1
1071
      120
1005
2D8C
  0
ARC
  5
2D8D
  8
DEFPOINTS
 62
   242
 10
89.2651774190353535
 20
34.8706003158848574
 30
0.0
 40
0.2000000000000028
 50
0.0
 51
90.0
1001
ACDBBLOCKREPETAG
1070
     1
1071
      121
1005
2D8D
  0
LINE
  5
2D8E
  8
DEFPOINTS
 62
   242
 10
89.265179133152742
 20
35.0706005837067707
 30
0.0
 11
56.6652522069571205
 21
35.0706005837067778
 31
0.0
1001
ACDBBLOCKREPETAG
1070
     1
1071
      122
1005
2D8E
  0
ARC
  5
2D8F
  8
DEFPOINTS
 62
   242
 10
56.6652526101406693
 20
34.8706003158848716
 30
0.0
 40
0.1999999999999993
 50
90.0
 51
180.0
1001
ACDBBLOCKREPETAG
1070
     1
1071
      123
1005
2D8F
  0
LINE
  5
2D90
  8
DEFPOINTS
 62
   242
 10
56.4652525467035886
 20
34.8705999921306784
 30
0.0
 11
56.4652525467035886
 21
13.2706003631695904
 31
0.0
1001
ACDBBLOCKREPETAG
1070
     1
1071
      124
1005
2D90
  0
ARC
  5
2D91
  8
DEFPOINTS
 62
   242
 10
56.2652526101410331
 20
13.2706003158854102
 30
0.0
 40
0.2000000000000739
 50
270.0
 51
0.0
1001
ACDBBLOCKREPETAG
1070
     1
1071
      125
1005
2D91
  0
ARC
  5
2D95
  8
DEFPOINTS
 62
   242
 10
62.5551397882677591
 20
34.5706005807501384
 30
0.0
 40
0.4999999999999787
 50
359.9999999999992042
 51
90.0000000000024443
  0
LINE
  5
2D96
  8
DEFPOINTS
 62
   242
 10
62.5551397882677378
 20
35.0706005807501171
 30
0.0
 11
58.5551397882677378
 21
35.0706005807501171
 31
0.0
  0
ARC
  5
2D97
  8
DEFPOINTS
 62
   242
 10
58.555139788267951
 20
34.5706005807498968
 30
0.0
 40
0.5000000000002132
 50
90.0000000000244142
 51
180.0000000000528928
  0
LINE
  5
2D98
  8
DEFPOINTS
 62
   242
 10
58.0551397882677378
 20
34.5706005807494421
 30
0.0
 11
58.0551397882686615
 21
32.7106005807493219
 31
0.0
  0
ARC
  5
2D99
  8
DEFPOINTS
 62
   242
 10
58.7051397882682977
 20
33.0387255807493929
 30
0.0
 40
0.7281249999997041
 50
206.7849955075195965
 51
333.2150044924803751
  0
LINE
  5
2D9A
  8
DEFPOINTS
 62
   242
 10
59.355139788267941
 20
32.7106005807493219
 30
0.0
 11
59.355139788267941
 21
33.8106005807501333
 31
0.0
  0
LINE
  5
2D9B
  8
DEFPOINTS
 62
   242
 10
59.355139788267941
 20
33.8106005807501333
 30
0.0
 11
60.5551397882677378
 21
33.8106005807501333
 31
0.0
  0
LINE
  5
2D9C
  8
DEFPOINTS
 62
   242
 10
60.5551397882677378
 20
33.8106005807501333
 30
0.0
 11
60.5551397882677378
 21
26.3106005807501298
 31
0.0
  0
LINE
  5
2D9D
  8
DEFPOINTS
 62
   242
 10
60.5551397882677378
 20
26.3106005807501298
 30
0.0
 11
59.355139788267941
 21
26.3106005807501298
 31
0.0
  0
LINE
  5
2D9E
  8
DEFPOINTS
 62
   242
 10
59.355139788267941
 20
26.3106005807501298
 30
0.0
 11
59.355139788267941
 21
27.4106005807514101
 31
0.0
  0
ARC
  5
2D9F
  8
DEFPOINTS
 62
   242
 10
58.7051397882683617
 20
27.0824755807490689
 30
0.0
 40
0.7281250000006733
 50
26.7849955076818311
 51
153.2150044924989061
  0
LINE
  5
2DA0
  8
DEFPOINTS
 62
   242
 10
58.0551397882677378
 20
27.4106005807493602
 30
0.0
 11
58.0551397882677378
 21
25.5506005807515102
 31
0.0
  0
ARC
  5
2DA1
  8
DEFPOINTS
 62
   242
 10
58.5551397882678302
 20
25.550600580751599
 30
0.0
 40
0.5000000000000853
 50
180.0000000000096918
 51
269.9999999999902229
  0
LINE
  5
2DA2
  8
DEFPOINTS
 62
   242
 10
58.5551397882677378
 20
25.0506005807515209
 30
0.0
 11
61.1551397882685706
 21
25.0506005807501388
 31
0.0
  0
ARC
  5
2DA3
  8
DEFPOINTS
 62
   242
 10
61.1551397882685066
 20
24.5506005807500784
 30
0.0
 40
0.5000000000000604
 50
0.0000000000077351
 51
89.9999999999934914
  0
LINE
  5
2DA4
  8
DEFPOINTS
 62
   242
 10
61.6551397882685706
 20
24.5506005807501495
 30
0.0
 11
61.6551397882681229
 21
14.3569359257821798
 31
0.0
  0
LINE
  5
2DA5
  8
DEFPOINTS
 62
   242
 10
61.6551397882681229
 20
14.3569359257821798
 30
0.0
 11
61.6551397883786123
 21
13.7901750166504407
 31
0.0
  0
ARC
  5
2DA6
  8
DEFPOINTS
 62
   242
 10
59.7551397882668596
 20
10.9706005807485099
 30
0.0
 40
3.4000000000024029
 50
56.0255240474647209
 51
88.9999999999823643
  0
ARC
  5
2DA7
  8
DEFPOINTS
 62
   242
 10
59.8013886653268401
 20
13.6201969729155508
 30
0.0
 40
0.7499999999997863
 50
89.0000000000066223
 51
269.0000000000067075
  0
ARC
  5
2DA8
  8
DEFPOINTS
 62
   242
 10
59.7551397882684796
 20
10.9706005807508795
 30
0.0
 40
1.900000000000436
 50
180.9999999999955094
 51
89.0000000000108002
  0
ARC
  5
2DA9
  8
DEFPOINTS
 62
   242
 10
57.1055433961039327
 20
10.9243517036928708
 30
0.0
 40
0.7499999999996576
 50
0.9999999999503856
 51
180.9999999999502052
  0
ARC
  5
2DAA
  8
DEFPOINTS
 62
   242
 10
59.7551397882667601
 20
10.9706005807489202
 30
0.0
 40
3.3999999999980002
 50
180.9999999999430997
 51
213.9744759525216011
  0
LINE
  5
2DAB
  8
DEFPOINTS
 62
   242
 10
56.9355653523680303
 20
9.0706005806403027
 30
0.0
 11
40.8152750287408708
 21
9.0706005807501242
 31
0.0
  0
ARC
  5
2DAC
  8
DEFPOINTS
 62
   242
 10
40.8152750287385615
 20
8.7706005807513456
 30
0.0
 40
0.2999999999987786
 50
89.9999999995589661
 51
122.3722790083917999
  0
LINE
  5
2DAD
  8
DEFPOINTS
 62
   242
 10
40.654649560528469
 20
9.0239767022812885
 30
0.0
 11
38.6113590538129827
 21
7.7286514271561373
 31
0.0
  0
ARC
  5
2DAE
  8
DEFPOINTS
 62
   242
 10
39.1467772811836809
 20
6.884064355386867
 30
0.0
 40
1.0000000000002851
 50
122.3722790084863021
 51
180.0000000000472085
  0
LINE
  5
2DAF
  8
DEFPOINTS
 62
   242
 10
38.1467772811833967
 20
6.8840643553860428
 30
0.0
 11
38.1467772811833967
 21
5.6114978860221072
 31
0.0
  0
ARC
  5
2DB0
  8
DEFPOINTS
 62
   242
 10
38.4987566513401518
 20
5.6422299131770117
 30
0.0
 40
0.3533184604701485
 50
184.9899553689650133
 51
292.5364912785099136
  0
LINE
  5
2DB1
  8
DEFPOINTS
 62
   242
 10
38.6341736420263189
 20
5.3158923990256408
 30
0.0
 11
40.0122608231517987
 21
6.1895180048720704
 31
0.0
  0
ARC
  5
2DB2
  8
DEFPOINTS
 62
   242
 10
40.1193444579203273
 20
6.020600583731385
 30
0.0
 40
0.2000000000001513
 50
90.0000000001404459
 51
122.3722753771921958
  0
LINE
  5
2DB3
  8
DEFPOINTS
 62
   242
 10
40.1193444579198371
 20
6.220600583731537
 30
0.0
 11
40.3967772811833967
 21
6.220600583731537
 31
0.0
  0
ARC
  5
2DB4
  8
DEFPOINTS
 62
   242
 10
40.3967772811832475
 20
6.0206005837329419
 30
0.0
 40
0.1999999999985951
 50
359.9999999999104148
 51
89.9999999999592859
  0
LINE
  5
2DB5
  8
DEFPOINTS
 62
   242
 10
40.5967772811818506
 20
6.0206005837326302
 30
0.0
 11
40.5967772811823124
 21
1.9094910488461201
 31
0.0
  0
ARC
  5
2DB6
  8
DEFPOINTS
 62
   242
 10
40.2967772811829335
 20
1.9094910488455481
 30
0.0
 40
0.2999999999993861
 50
270.0000000001098783
 51
0.0000000001091566
  0
LINE
  5
2DB7
  8
DEFPOINTS
 62
   242
 10
40.2967772811835019
 20
1.609491048846166
 30
0.0
 11
40.0808558773610315
 21
1.609491048846166
 31
0.0
  0
LINE
  5
2DB8
  8
DEFPOINTS
 62
   242
 10
40.0808558773610315
 20
1.609491048846166
 30
0.0
 11
37.997362535141292
 21
2.4191566321035221
 31
0.0
  0
ARC
  5
2DB9
  8
DEFPOINTS
 62
   242
 10
37.9249185047174677
 20
2.2327381178517318
 30
0.0
 40
0.1999999999997288
 50
68.7633940825185732
 51
150.0000002538905903
  0
LINE
  5
2DBA
  8
DEFPOINTS
 62
   242
 10
37.7517134235176783
 20
2.3327381170840891
 30
0.0
 11
37.2106567925438867
 21
1.3956005328755039
 31
0.0
  0
LINE
  5
2DBB
  8
DEFPOINTS
 62
   242
 10
37.2106567925438867
 20
1.3956005328755039
 30
0.0
 11
37.1883108503943731
 21
0.2665218407896646
 31
0.0
  0
ARC
  5
2DBC
  8
DEFPOINTS
 62
   242
 10
37.3882692557702683
 20
0.2706005807518737
 30
0.0
 40
0.2000000000003824
 50
181.1685539382210095
 51
270.0000000000385967
  0
LINE
  5
2DBD
  8
DEFPOINTS
 62
   242
 10
37.3882692557704033
 20
0.0706005807514885
 30
0.0
 11
38.964302247432002
 21
0.0706005807514885
 31
0.0
  0
LINE
  5
2DBE
  8
DEFPOINTS
 62
   242
 10
38.964302247432002
 20
0.0706005807514885
 30
0.0
 11
39.2343022474324172
 21
0.2706005807501697
 31
0.0
  0
LINE
  5
2DBF
  8
DEFPOINTS
 62
   242
 10
39.2343022474324172
 20
0.2706005807501697
 30
0.0
 11
39.5102605117672283
 21
0.1949955768222935
 31
0.0
  0
ARC
  5
2DC0
  8
DEFPOINTS
 62
   242
 10
40.4350835265469968
 20
3.5705995807515318
 30
0.0
 40
3.50000000000135
 50
254.6784899250619958
 51
270.0000103638683981
  0
LINE
  5
2DC1
  8
DEFPOINTS
 62
   242
 10
40.4350841596396933
 20
0.0705995807502404
 30
0.0
 11
45.963502385796339
 21
0.0706005807514885
 31
0.0
  0
ARC
  5
2DC2
  8
DEFPOINTS
 62
   242
 10
45.9635022953539831
 20
0.5706005807504889
 30
0.0
 40
0.4999999999990087
 50
270.000010363930528
 51
0.0000000001145381
  0
LINE
  5
2DC3
  8
DEFPOINTS
 62
   242
 10
46.4635022953530026
 20
0.5706005807514885
 30
0.0
 11
46.4635022953530026
 21
1.570600580750124
 31
0.0
  0
ARC
  5
2DC4
  8
DEFPOINTS
 62
   242
 10
45.9635022953526473
 20
1.5706005807491039
 30
0.0
 40
0.5000000000003411
 50
0.0000000001168154
 51
90.0000000000643183
  0
LINE
  5
2DC5
  8
DEFPOINTS
 62
   242
 10
45.9635022953520931
 20
2.0706005807494421
 30
0.0
 11
43.4635022953520931
 21
2.0706005807494421
 31
0.0
  0
LINE
  5
2DC6
  8
DEFPOINTS
 62
   242
 10
43.4635022953520931
 20
2.0706005807494421
 30
0.0
 11
43.4635022953520931
 21
6.0706005807501242
 31
0.0
  0
LINE
  5
2DC7
  8
DEFPOINTS
 62
   242
 10
43.4635022953520931
 20
6.0706005807501242
 30
0.0
 11
61.0551397882677378
 21
6.0706005807501242
 31
0.0
  0
LINE
  5
2DC8
  8
DEFPOINTS
 62
   242
 10
61.0551397882677378
 20
6.0706005807501242
 30
0.0
 11
61.0551397882663878
 21
2.0706005807494421
 31
0.0
  0
LINE
  5
2DC9
  8
DEFPOINTS
 62
   242
 10
61.0551397882663878
 20
2.0706005807494421
 30
0.0
 11
58.5551397882677378
 21
2.0706005807494421
 31
0.0
  0
ARC
  5
2DCA
  8
DEFPOINTS
 62
   242
 10
58.5551397882676312
 20
1.5706005807495551
 30
0.0
 40
0.4999999999998864
 50
89.9999999999869686
 51
179.9999999999348006
  0
LINE
  5
2DCB
  8
DEFPOINTS
 62
   242
 10
58.0551397882677378
 20
1.570600580750124
 30
0.0
 11
58.0551397882663807
 21
0.5706005807514885
 31
0.0
  0
ARC
  5
2DCC
  8
DEFPOINTS
 62
   242
 10
58.5551397882661604
 20
0.5706005807512682
 30
0.0
 40
0.4999999999997798
 50
179.9999999999747047
 51
270.0000000000268869
  0
LINE
  5
2DCD
  8
DEFPOINTS
 62
   242
 10
58.5551397882663878
 20
0.0706005807514885
 30
0.0
 11
63.0551397882663807
 21
0.0706005807514885
 31
0.0
  0
LINE
  5
2DCE
  8
DEFPOINTS
 62
   242
 10
63.0551397882663807
 20
0.0706005807514885
 30
0.0
 11
63.0551397882677378
 21
34.5706005807501313
 31
0.0
  0
LINE
  5
2DCF
  8
DEFPOINTS
 62
   242
 10
60.5551397882677378
 20
33.8106005807501333
 30
0.0
 11
59.355139788267941
 21
33.8106005807501333
 31
0.0
  0
LINE
  5
2DD0
  8
DEFPOINTS
 62
   242
 10
59.355139788267941
 20
33.8106005807501333
 30
0.0
 11
59.355139788267941
 21
26.3106005807501298
 31
0.0
  0
LINE
  5
2DD1
  8
DEFPOINTS
 62
   242
 10
59.355139788267941
 20
26.3106005807501298
 30
0.0
 11
60.5551397882677378
 21
26.3106005807501298
 31
0.0
  0
LINE
  5
2DD2
  8
DEFPOINTS
 62
   242
 10
60.5551397882677378
 20
26.3106005807501298
 30
0.0
 11
60.5551397882677378
 21
33.8106005807501333
 31
0.0
  0
LINE
  5
2DD3
  8
DEFPOINTS
 62
   242
 10
59.355139788267941
 20
31.8106005807480905
 30
0.0
 11
56.4651397899046898
 21
31.8106005809575016
 31
0.0
  0
LINE
  5
2DD4
  8
DEFPOINTS
 62
   242
 10
56.4651397899046898
 20
31.8106005809575016
 30
0.0
 11
56.4651397896532075
 21
28.3106005807480905
 31
0.0
  0
LINE
  5
2DD5
  8
DEFPOINTS
 62
   242
 10
56.4651397896532075
 20
28.3106005807480905
 30
0.0
 11
59.355139788267941
 21
28.3106005807480905
 31
0.0
  0
LINE
  5
2DD6
  8
DEFPOINTS
 62
   242
 10
59.355139788267941
 20
28.3106005807480905
 30
0.0
 11
59.355139788267941
 21
31.8106005807480905
 31
0.0
  0
LINE
  5
2DD7
  8
DEFPOINTS
 62
   242
 10
47.4651397892166429
 20
26.07060058278444
 30
0.0
 11
15.4651397892180302
 21
26.07060058278444
 31
0.0
  0
LINE
  5
2DD8
  8
DEFPOINTS
 62
   242
 10
15.4651397892180302
 20
26.07060058278444
 30
0.0
 11
15.4651397892180302
 21
22.2706005827844784
 31
0.0
  0
LINE
  5
2DD9
  8
DEFPOINTS
 62
   242
 10
15.4651397892180302
 20
22.2706005827844784
 30
0.0
 11
47.4651397892166429
 21
22.2706005827844784
 31
0.0
  0
LINE
  5
2DDA
  8
DEFPOINTS
 62
   242
 10
47.4651397892166429
 20
22.2706005827844784
 30
0.0
 11
47.4651397892166429
 21
26.07060058278444
 31
0.0
  0
LINE
  5
2DDB
  8
DEFPOINTS
 62
   242
 10
53.4651397892157405
 20
34.770600582784482
 30
0.0
 11
47.4651397892180213
 21
37.7817255617871979
 31
0.0
  0
LINE
  5
2DDC
  8
DEFPOINTS
 62
   242
 10
47.4651397892180213
 20
37.7817255617871979
 30
0.0
 11
47.4651397892166429
 21
26.07060058278444
 31
0.0
  0
LINE
  5
2DDD
  8
DEFPOINTS
 62
   242
 10
47.4651397892166429
 20
26.07060058278444
 30
0.0
 11
53.4651397892157405
 21
26.07060058278444
 31
0.0
  0
LINE
  5
2DDE
  8
DEFPOINTS
 62
   242
 10
53.4651397892157405
 20
26.07060058278444
 30
0.0
 11
53.4651397892157405
 21
34.770600582784482
 31
0.0
  0
LINE
  5
2DDF
  8
DEFPOINTS
 62
   242
 10
15.4651397892157494
 20
37.7706005827844677
 30
0.0
 11
9.4651397892166642
 21
34.770600582784482
 31
0.0
  0
LINE
  5
2DE0
  8
DEFPOINTS
 62
   242
 10
9.4651397892166642
 20
34.770600582784482
 30
0.0
 11
9.4651397892166642
 21
26.07060058278444
 31
0.0
  0
LINE
  5
2DE1
  8
DEFPOINTS
 62
   242
 10
9.4651397892166642
 20
26.07060058278444
 30
0.0
 11
15.4651397892180302
 21
26.07060058278444
 31
0.0
  0
LINE
  5
2DE2
  8
DEFPOINTS
 62
   242
 10
15.4651397892180302
 20
26.07060058278444
 30
0.0
 11
15.4651397892157494
 21
37.7706005827844677
 31
0.0
  0
LINE
  5
2DE3
  8
DEFPOINTS
 62
   242
 10
6.4651397899056047
 20
31.8106005807480905
 30
0.0
 11
3.7551397882657511
 21
31.8106005807480905
 31
0.0
  0
LINE
  5
2DE4
  8
DEFPOINTS
 62
   242
 10
3.7551397882657511
 20
31.8106005807480905
 30
0.0
 11
3.7551397882657511
 21
28.3106005807480905
 31
0.0
  0
LINE
  5
2DE5
  8
DEFPOINTS
 62
   242
 10
3.7551397882657511
 20
28.3106005807480905
 30
0.0
 11
6.4651397896536764
 21
28.3106005805532313
 31
0.0
  0
LINE
  5
2DE6
  8
DEFPOINTS
 62
   242
 10
6.4651397896536764
 20
28.3106005805532313
 30
0.0
 11
6.4651397899056047
 21
31.8106005807480905
 31
0.0
  0
LINE
  5
2DE7
  8
DEFPOINTS
 62
   242
 10
3.7551397882657511
 20
33.8106005807501333
 30
0.0
 11
2.555139788265933
 21
33.8106005807501333
 31
0.0
  0
LINE
  5
2DE8
  8
DEFPOINTS
 62
   242
 10
2.555139788265933
 20
33.8106005807501333
 30
0.0
 11
2.555139788265933
 21
26.3106005807501298
 31
0.0
  0
LINE
  5
2DE9
  8
DEFPOINTS
 62
   242
 10
2.555139788265933
 20
26.3106005807501298
 30
0.0
 11
3.7551397882657511
 21
26.3106005807501298
 31
0.0
  0
LINE
  5
2DEA
  8
DEFPOINTS
 62
   242
 10
3.7551397882657511
 20
26.3106005807501298
 30
0.0
 11
3.7551397882657511
 21
33.8106005807501333
 31
0.0
  0
LINE
  5
2DEB
  8
DEFPOINTS
 62
   242
 10
2.555139788265933
 20
33.8106005807501333
 30
0.0
 11
3.7551397882657511
 21
33.8106005807501333
 31
0.0
  0
LINE
  5
2DEC
  8
DEFPOINTS
 62
   242
 10
3.7551397882657511
 20
33.8106005807501333
 30
0.0
 11
3.7551397882657511
 21
32.7106005807493219
 31
0.0
  0
ARC
  5
2DED
  8
DEFPOINTS
 62
   242
 10
4.4051397882656156
 20
33.0387255807504516
 30
0.0
 40
0.728125000000389
 50
206.7849955075863022
 51
333.2150044924925965
  0
LINE
  5
2DEE
  8
DEFPOINTS
 62
   242
 10
5.055139788265933
 20
32.7106005807502171
 30
0.0
 11
5.055139788265933
 21
34.5706005807494421
 31
0.0
  0
ARC
  5
2DEF
  8
DEFPOINTS
 62
   242
 10
4.5551397882656559
 20
34.5706005807498471
 30
0.0
 40
0.5000000000002763
 50
359.9999999999536158
 51
89.9999999999683666
  0
LINE
  5
2DF0
  8
DEFPOINTS
 62
   242
 10
4.555139788265933
 20
35.0706005807501171
 30
0.0
 11
0.5551397882659331
 21
35.0706005807501171
 31
0.0
  0
ARC
  5
2DF1
  8
DEFPOINTS
 62
   242
 10
0.5551397882659193
 20
34.5706005807501313
 30
0.0
 40
0.4999999999999858
 50
89.9999999999984084
 51
180.0
  0
LINE
  5
2DF2
  8
DEFPOINTS
 62
   242
 10
0.055139788265933
 20
34.5706005807501313
 30
0.0
 11
0.0551397882663878
 21
0.0706005807514885
 31
0.0
  0
LINE
  5
2DF3
  8
DEFPOINTS
 62
   242
 10
0.0551397882663878
 20
0.0706005807514885
 30
0.0
 11
4.5551397882663851
 21
0.0706005807514885
 31
0.0
  0
ARC
  5
2DF4
  8
DEFPOINTS
 62
   242
 10
4.5551397882666134
 20
0.5706005807512611
 30
0.0
 40
0.4999999999997726
 50
269.9999999999739089
 51
0.0000000000260551
  0
LINE
  5
2DF5
  8
DEFPOINTS
 62
   242
 10
5.0551397882663851
 20
0.5706005807514885
 30
0.0
 11
5.055139788265933
 21
1.570600580750124
 31
0.0
  0
ARC
  5
2DF6
  8
DEFPOINTS
 62
   242
 10
4.5551397882660458
 20
1.5706005807495551
 30
0.0
 40
0.4999999999998864
 50
0.0000000000651123
 51
90.0000000000130314
  0
LINE
  5
2DF7
  8
DEFPOINTS
 62
   242
 10
4.555139788265933
 20
2.0706005807494421
 30
0.0
 11
2.055139788266386
 21
2.0706005807494421
 31
0.0
  0
LINE
  5
2DF8
  8
DEFPOINTS
 62
   242
 10
2.055139788266386
 20
2.0706005807494421
 30
0.0
 11
2.055139788265933
 21
6.0706005807501242
 31
0.0
  0
LINE
  5
2DF9
  8
DEFPOINTS
 62
   242
 10
2.055139788265933
 20
6.0706005807501242
 30
0.0
 11
19.6467772811815813
 21
6.0706005807501242
 31
0.0
  0
LINE
  5
2DFA
  8
DEFPOINTS
 62
   242
 10
19.6467772811815813
 20
6.0706005807501242
 30
0.0
 11
19.6467772811834003
 21
2.0706005807494421
 31
0.0
  0
LINE
  5
2DFB
  8
DEFPOINTS
 62
   242
 10
19.6467772811834003
 20
2.0706005807494421
 30
0.0
 11
17.1467772811815813
 21
2.0706005807494421
 31
0.0
  0
ARC
  5
2DFC
  8
DEFPOINTS
 62
   242
 10
17.1467772811814712
 20
1.5706005807495551
 30
0.0
 40
0.4999999999998864
 50
89.9999999999869686
 51
179.9999999999348006
  0
LINE
  5
2DFD
  8
DEFPOINTS
 62
   242
 10
16.6467772811815813
 20
1.570600580750124
 30
0.0
 11
16.6467772811811301
 21
0.5706005807514885
 31
0.0
  0
ARC
  5
2DFE
  8
DEFPOINTS
 62
   242
 10
17.1467772811803592
 20
0.5706005807507145
 30
0.0
 40
0.4999999999992362
 50
179.9999999999112958
 51
269.9999896360963021
  0
LINE
  5
2DFF
  8
DEFPOINTS
 62
   242
 10
17.1467771907382414
 20
0.0706005807514885
 30
0.0
 11
22.6751954168939918
 21
0.0705995807502404
 31
0.0
  0
ARC
  5
2E00
  8
DEFPOINTS
 62
   242
 10
22.6751960499864396
 20
3.570599580749994
 30
0.0
 40
3.4999999999998108
 50
269.9999896361356946
 51
285.3215100749413864
  0
LINE
  5
2E01
  8
DEFPOINTS
 62
   242
 10
23.6000190647659984
 20
0.1949955768222935
 30
0.0
 11
23.875977329101719
 21
0.2706005807501697
 31
0.0
  0
LINE
  5
2E02
  8
DEFPOINTS
 62
   242
 10
23.875977329101719
 20
0.2706005807501697
 30
0.0
 11
24.1459773291021484
 21
0.0706005807514885
 31
0.0
  0
LINE
  5
2E03
  8
DEFPOINTS
 62
   242
 10
24.1459773291021484
 20
0.0706005807514885
 30
0.0
 11
25.7220103207628199
 21
0.0706005807514885
 31
0.0
  0
ARC
  5
2E04
  8
DEFPOINTS
 62
   242
 10
25.7220103207630295
 20
0.2706005807509948
 30
0.0
 40
0.1999999999995062
 50
269.9999999999399733
 51
3.4361745321942938
  0
LINE
  5
2E05
  8
DEFPOINTS
 62
   242
 10
25.9216507577657609
 20
0.282587903770036
 30
0.0
 11
25.8996227839907185
 21
1.3956005328755039
 31
0.0
  0
LINE
  5
2E06
  8
DEFPOINTS
 62
   242
 10
25.8996227839907185
 20
1.3956005328755039
 30
0.0
 11
25.3585661530164508
 21
2.3327381170840891
 31
0.0
  0
ARC
  5
2E07
  8
DEFPOINTS
 62
   242
 10
25.1853610718168888
 20
2.2327381178519792
 30
0.0
 40
0.1999999999994193
 50
29.9999997460801993
 51
111.2366059174473065
  0
LINE
  5
2E08
  8
DEFPOINTS
 62
   242
 10
25.1129170413932989
 20
2.4191566321035221
 30
0.0
 11
23.0294236991735488
 21
1.609491048846166
 31
0.0
  0
LINE
  5
2E09
  8
DEFPOINTS
 62
   242
 10
23.0294236991735488
 20
1.609491048846166
 30
0.0
 11
22.8135022953510997
 21
1.609491048846166
 31
0.0
  0
ARC
  5
2E0A
  8
DEFPOINTS
 62
   242
 10
22.8135022953509896
 20
1.909491048846232
 30
0.0
 40
0.3000000000000662
 50
180.0000000000214868
 51
270.0000000000209752
  0
LINE
  5
2E0B
  8
DEFPOINTS
 62
   242
 10
22.5135022953509214
 20
1.9094910488461201
 30
0.0
 11
22.513502295351369
 21
6.0206005837326302
 31
0.0
  0
ARC
  5
2E0C
  8
DEFPOINTS
 62
   242
 10
22.7135022953516597
 20
6.0206005837321497
 30
0.0
 40
0.2000000000002977
 50
89.9999999998748166
 51
179.9999999998626095
  0
LINE
  5
2E0D
  8
DEFPOINTS
 62
   242
 10
22.7135022953521002
 20
6.2206005837324483
 30
0.0
 11
22.9909351186147504
 21
6.220600583731537
 31
0.0
  0
ARC
  5
2E0E
  8
DEFPOINTS
 62
   242
 10
22.9909351186134998
 20
6.020600583733442
 30
0.0
 40
0.199999999998095
 50
57.6277246226366415
 51
89.9999999996417444
  0
LINE
  5
2E0F
  8
DEFPOINTS
 62
   242
 10
23.0980187533814387
 20
6.1895180048720704
 30
0.0
 11
24.4761059345064496
 21
5.3158923990263229
 31
0.0
  0
ARC
  5
2E10
  8
DEFPOINTS
 62
   242
 10
24.6115229251944498
 20
5.642229913177311
 30
0.0
 40
0.353318460470493
 50
247.4635087211923121
 51
4.9899553679278759
  0
LINE
  5
2E11
  8
DEFPOINTS
 62
   242
 10
24.9635022953521002
 20
5.6729619403258749
 30
0.0
 11
24.9635022953521002
 21
6.8840643553860428
 31
0.0
  0
ARC
  5
2E12
  8
DEFPOINTS
 62
   242
 10
23.9635022953513683
 20
6.8840643553860543
 30
0.0
 40
1.0000000000007281
 50
359.9999999999993747
 51
57.6277209915606505
  0
LINE
  5
2E13
  8
DEFPOINTS
 62
   242
 10
24.4989205227216189
 20
7.7286514271561373
 30
0.0
 11
22.4556300160056708
 21
9.0239767022812885
 31
0.0
  0
ARC
  5
2E14
  8
DEFPOINTS
 62
   242
 10
22.2950045477954717
 20
8.7706005807509406
 30
0.0
 40
0.2999999999991826
 50
57.6277209916312501
 51
90.0000000002463025
  0
LINE
  5
2E15
  8
DEFPOINTS
 62
   242
 10
22.2950045477941714
 20
9.0706005807501242
 30
0.0
 11
6.1747142241651991
 21
9.0706005806403027
 31
0.0
  0
ARC
  5
2E16
  8
DEFPOINTS
 62
   242
 10
3.3551397882668761
 20
10.9706005807504603
 30
0.0
 40
3.3999999999985211
 50
326.0255240474530183
 51
359.0000000000310934
  0
ARC
  5
2E17
  8
DEFPOINTS
 62
   242
 10
6.0047361804297452
 20
10.9243517036928708
 30
0.0
 40
0.7500000000001111
 50
359.0000000000504201
 51
179.0000000000501927
  0
ARC
  5
2E18
  8
DEFPOINTS
 62
   242
 10
3.3551397882656531
 20
10.9706005807517606
 30
0.0
 40
1.8999999999995441
 50
90.999999999962057
 51
358.99999999997749
  0
ARC
  5
2E19
  8
DEFPOINTS
 62
   242
 10
3.3088909112072988
 20
13.6201969729155508
 30
0.0
 40
0.749999999999802
 50
271.000000000062812
 51
91.0000000000627978
  0
ARC
  5
2E1A
  8
DEFPOINTS
 62
   242
 10
3.3551397882668672
 20
10.9706005807484193
 30
0.0
 40
3.4000000000025019
 50
91.0000000000259774
 51
123.9744759525351014
  0
LINE
  5
2E1B
  8
DEFPOINTS
 62
   242
 10
1.4551397881550641
 20
13.7901750166504407
 30
0.0
 11
1.4551397882660231
 21
14.3569359257821798
 31
0.0
  0
LINE
  5
2E1C
  8
DEFPOINTS
 62
   242
 10
1.4551397882660231
 20
14.3569359257821798
 30
0.0
 11
1.4551397882646591
 21
24.5506005807501495
 31
0.0
  0
ARC
  5
2E1D
  8
DEFPOINTS
 62
   242
 10
1.9551397882647179
 20
24.5506005807500784
 30
0.0
 40
0.5000000000000595
 50
90.0000000000068212
 51
179.9999999999922125
  0
LINE
  5
2E1E
  8
DEFPOINTS
 62
   242
 10
1.9551397882646591
 20
25.0506005807501388
 30
0.0
 11
4.555139788265933
 21
25.0506005807515209
 31
0.0
  0
ARC
  5
2E1F
  8
DEFPOINTS
 62
   242
 10
4.5551397882658469
 20
25.550600580751599
 30
0.0
 40
0.5000000000000853
 50
270.0000000000097771
 51
359.9999999999902229
  0
LINE
  5
2E20
  8
DEFPOINTS
 62
   242
 10
5.055139788265933
 20
25.5506005807515102
 30
0.0
 11
5.055139788265933
 21
27.4106005807493602
 31
0.0
  0
ARC
  5
2E21
  8
DEFPOINTS
 62
   242
 10
4.4051397882653252
 20
27.0824755807502413
 30
0.0
 40
0.7281250000001473
 50
26.7849955074190014
 51
153.2150044924005954
  0
LINE
  5
2E22
  8
DEFPOINTS
 62
   242
 10
3.7551397882657511
 20
27.4106005807514101
 30
0.0
 11
3.7551397882657511
 21
26.3106005807501298
 31
0.0
  0
LINE
  5
2E23
  8
DEFPOINTS
 62
   242
 10
3.7551397882657511
 20
26.3106005807501298
 30
0.0
 11
2.555139788265933
 21
26.3106005807501298
 31
0.0
  0
LINE
  5
2E24
  8
DEFPOINTS
 62
   242
 10
2.555139788265933
 20
26.3106005807501298
 30
0.0
 11
2.555139788265933
 21
33.8106005807501333
 31
0.0
  0
LINE
  5
2E26
  8
DEFPOINTS
 62
   242
 10
8.759410843493697
 20
13.0706005836495898
 30
0.0
 11
8.759410843493697
 21
9.070600580648259
 31
0.0
  0
LINE
  5
2E27
  8
DEFPOINTS
 62
   242
 10
8.759410843493697
 20
9.070600580648259
 30
0.0
 11
40.8152750287408708
 21
9.0706005807501242
 31
0.0
  0
LINE
  5
2E28
  8
DEFPOINTS
 62
   242
 10
40.8152750287408708
 20
9.0706005807501242
 30
0.0
 11
54.7594108434936828
 21
9.0706005806553094
 31
0.0
  0
LINE
  5
2E29
  8
DEFPOINTS
 62
   242
 10
54.7594108434936828
 20
9.0706005806553094
 30
0.0
 11
54.7594108434936828
 21
13.0706005803342595
 31
0.0
  0
ARC
  5
2E2A
  8
DEFPOINTS
 62
   242
 10
37.9249185047174677
 20
2.2327381178517189
 30
0.0
 40
0.199999999999743
 50
68.7633940825199232
 51
150.0000002538874071
  0
LINE
  5
2E2B
  8
DEFPOINTS
 62
   242
 10
37.997362535141292
 20
2.4191566321035221
 30
0.0
 11
40.0459069605244693
 21
1.623072534593575
 31
0.0
  0
ARC
  5
2E2C
  8
DEFPOINTS
 62
   242
 10
40.1183509909539211
 20
1.8094910488451621
 30
0.0
 40
0.2000000000015838
 50
248.7633940809911053
 51
293.5418204685631167
  0
ARC
  5
2E2D
  8
DEFPOINTS
 62
   242
 10
40.2967772811831821
 20
1.909491048845692
 30
0.0
 40
0.2999999999991459
 50
250.8237345360174118
 51
0.0000000000816766
  0
LINE
  5
2E2E
  8
DEFPOINTS
 62
   242
 10
40.5967772811823124
 20
1.9094910488461201
 30
0.0
 11
40.5967772811818506
 21
6.0206005837326302
 31
0.0
  0
ARC
  5
2E2F
  8
DEFPOINTS
 62
   242
 10
40.3967772811831622
 20
6.020600583732846
 30
0.0
 40
0.1999999999986883
 50
359.999999999937927
 51
89.9999999999328253
  0
LINE
  5
2E30
  8
DEFPOINTS
 62
   242
 10
40.3967772811833967
 20
6.220600583731537
 30
0.0
 11
40.1193444579198371
 21
6.220600583731537
 31
0.0
  0
ARC
  5
2E31
  8
DEFPOINTS
 62
   242
 10
40.1193444579203273
 20
6.020600583731385
 30
0.0
 40
0.2000000000001521
 50
90.0000000001404459
 51
122.3722753771921958
  0
LINE
  5
2E32
  8
DEFPOINTS
 62
   242
 10
40.0122608231517987
 20
6.1895180048720704
 30
0.0
 11
38.2903205694196913
 21
5.0979099281114468
 31
0.0
  0
ARC
  5
2E33
  8
DEFPOINTS
 62
   242
 10
38.1296951172673033
 20
5.3512860598217591
 30
0.0
 40
0.2999999999994003
 50
270.0000000001451781
 51
302.3722753771983776
  0
LINE
  5
2E34
  8
DEFPOINTS
 62
   242
 10
38.1296951172680565
 20
5.0512860598223579
 30
0.0
 11
36.6562266753903714
 21
5.0512860598234948
 31
0.0
  0
ARC
  5
2E35
  8
DEFPOINTS
 62
   242
 10
36.6562266753912525
 20
4.7512860598241931
 30
0.0
 40
0.2999999999993026
 50
90.0000000001682849
 51
155.0000000001830074
  0
LINE
  5
2E36
  8
DEFPOINTS
 62
   242
 10
36.3843343392804925
 20
4.878071538345238
 30
0.0
 11
34.9371154343816812
 21
1.774500581300116
 31
0.0
  0
ARC
  5
2E37
  8
DEFPOINTS
 62
   242
 10
34.6652230982717029
 20
1.901286059820702
 30
0.0
 40
0.2999999999983922
 50
270.0000000001899139
 51
335.0000000001991225
  0
LINE
  5
2E38
  8
DEFPOINTS
 62
   242
 10
34.6652230982726905
 20
1.601286059822314
 30
0.0
 11
28.4450564782610016
 21
1.601286059822314
 31
0.0
  0
ARC
  5
2E39
  8
DEFPOINTS
 62
   242
 10
28.4450564782617512
 20
1.9012860598210319
 30
0.0
 40
0.2999999999987184
 50
204.9999999998412932
 51
269.9999999998574935
  0
LINE
  5
2E3A
  8
DEFPOINTS
 62
   242
 10
28.1731641421515597
 20
1.774500581300116
 30
0.0
 11
26.7259452372545603
 21
4.8780715383443294
 31
0.0
  0
ARC
  5
2E3B
  8
DEFPOINTS
 62
   242
 10
26.4540529011435304
 20
4.7512860598224709
 30
0.0
 40
0.299999999999886
 50
24.9999999999359304
 51
89.9999999999538574
  0
LINE
  5
2E3C
  8
DEFPOINTS
 62
   242
 10
26.4540529011437684
 20
5.0512860598223579
 30
0.0
 11
24.9805844592660797
 21
5.0512860598223579
 31
0.0
  0
ARC
  5
2E3D
  8
DEFPOINTS
 62
   242
 10
24.9805844592659199
 20
5.3512860598248917
 30
0.0
 40
0.3000000000025338
 50
237.6277246229753075
 51
270.0000000000298996
  0
LINE
  5
2E3E
  8
DEFPOINTS
 62
   242
 10
24.8199590071126295
 20
5.0979099281114468
 30
0.0
 11
23.0980187533814387
 21
6.1895180048720704
 31
0.0
  0
ARC
  5
2E3F
  8
DEFPOINTS
 62
   242
 10
22.9909351186135886
 20
6.0206005837337599
 30
0.0
 40
0.1999999999977764
 50
57.6277246226102235
 51
89.999999999668205
  0
LINE
  5
2E40
  8
DEFPOINTS
 62
   242
 10
22.9909351186147504
 20
6.220600583731537
 30
0.0
 11
22.7135022953521002
 21
6.2206005837324483
 31
0.0
  0
ARC
  5
2E41
  8
DEFPOINTS
 62
   242
 10
22.7135022953516383
 20
6.020600583732171
 30
0.0
 40
0.2000000000002764
 50
89.9999999998687059
 51
179.9999999998686917
  0
LINE
  5
2E42
  8
DEFPOINTS
 62
   242
 10
22.513502295351369
 20
6.0206005837326302
 30
0.0
 11
22.5135022953509214
 21
1.9094910488461201
 31
0.0
  0
ARC
  5
2E43
  8
DEFPOINTS
 62
   242
 10
22.8135022953508795
 20
1.9094910488447461
 30
0.0
 40
0.2999999999999581
 50
179.9999999997376108
 51
289.1762654655070151
  0
ARC
  5
2E44
  8
DEFPOINTS
 62
   242
 10
22.9919285855849402
 20
1.8094910488457949
 30
0.0
 40
0.200000000000135
 50
246.4581795321898881
 51
291.2366059174394763
  0
LINE
  5
2E45
  8
DEFPOINTS
 62
   242
 10
23.0643726160087716
 20
1.623072534593575
 30
0.0
 11
25.1129170413932989
 21
2.4191566321035221
 31
0.0
  0
ARC
  5
2E46
  8
DEFPOINTS
 62
   242
 10
25.1853610718168994
 20
2.2327381178519929
 30
0.0
 40
0.1999999999994074
 50
29.9999997460778012
 51
111.2366059174506034
  0
LINE
  5
2E47
  8
DEFPOINTS
 62
   242
 10
25.3585661530164508
 20
2.3327381170840891
 30
0.0
 11
26.5780093150410792
 21
0.2206005819011807
 31
0.0
  0
ARC
  5
2E48
  8
DEFPOINTS
 62
   242
 10
26.8378169368407811
 20
0.3706005807497862
 30
0.0
 40
0.2999999999996612
 50
209.9999997461185899
 51
269.9999999999802753
  0
LINE
  5
2E49
  8
DEFPOINTS
 62
   242
 10
26.8378169368406816
 20
0.0706005807501242
 30
0.0
 11
36.2724626396925487
 21
0.0706005807501242
 31
0.0
  0
ARC
  5
2E4A
  8
DEFPOINTS
 62
   242
 10
36.2724626396926766
 20
0.3706005807501987
 30
0.0
 40
0.3000000000000745
 50
269.9999999999755005
 51
330.0000002538366175
  0
LINE
  5
2E4B
  8
DEFPOINTS
 62
   242
 10
36.53227026149262
 20
0.2206005819011807
 30
0.0
 11
37.7517134235176783
 21
2.3327381170840891
 31
0.0
  0
ARC
  5
2E4C
  8
DEFPOINTS
 62
   242
 10
36.6562266753912525
 20
4.7512860598242019
 30
0.0
 40
0.2999999999992909
 50
90.0000000001669065
 51
155.0000000001842011
  0
LINE
  5
2E4D
  8
DEFPOINTS
 62
   242
 10
36.6562266753903714
 20
5.0512860598234948
 30
0.0
 11
38.1296951172680565
 21
5.0512860598223579
 31
0.0
  0
ARC
  5
2E4E
  8
DEFPOINTS
 62
   242
 10
38.1296951172673175
 20
5.3512860598216854
 30
0.0
 40
0.2999999999993266
 50
270.0000000001410854
 51
302.3722753772025271
  0
LINE
  5
2E4F
  8
DEFPOINTS
 62
   242
 10
38.2903205694196913
 20
5.0979099281114468
 30
0.0
 11
38.6341736420249617
 21
5.3158923990256408
 31
0.0
  0
ARC
  5
2E50
  8
DEFPOINTS
 62
   242
 10
38.4987566513398605
 20
5.6422299131771361
 30
0.0
 40
0.3533184604698536
 50
184.9899553689892002
 51
292.5364912783435898
  0
LINE
  5
2E51
  8
DEFPOINTS
 62
   242
 10
38.1467772811833967
 20
5.6114978860221072
 30
0.0
 11
38.1467772811833967
 21
6.8840643553860428
 31
0.0
  0
ARC
  5
2E52
  8
DEFPOINTS
 62
   242
 10
39.1467772811836809
 20
6.8840643553868697
 30
0.0
 40
1.000000000000284
 50
122.3722790084864016
 51
180.0000000000472937
  0
LINE
  5
2E53
  8
DEFPOINTS
 62
   242
 10
38.6113590538129827
 20
7.7286514271561373
 30
0.0
 11
40.728195665194562
 21
9.0706005807501242
 31
0.0
  0
LINE
  5
2E54
  8
DEFPOINTS
 62
   242
 10
40.728195665194562
 20
9.0706005807501242
 30
0.0
 11
22.2950045477941714
 21
9.0706005807501242
 31
0.0
  0
ARC
  5
2E55
  8
DEFPOINTS
 62
   242
 10
22.2950045477954788
 20
8.7706005807509975
 30
0.0
 40
0.2999999999991267
 50
57.6277209916283013
 51
90.0000000002496989
  0
LINE
  5
2E56
  8
DEFPOINTS
 62
   242
 10
22.4556300160056708
 20
9.0239767022812885
 30
0.0
 11
24.4989205227216189
 21
7.7286514271561373
 31
0.0
  0
ARC
  5
2E57
  8
DEFPOINTS
 62
   242
 10
23.9635022953513683
 20
6.8840643553860499
 30
0.0
 40
1.000000000000735
 50
359.9999999999996021
 51
57.6277209915604232
  0
LINE
  5
2E58
  8
DEFPOINTS
 62
   242
 10
24.9635022953521002
 20
6.8840643553860428
 30
0.0
 11
24.9635022953521002
 21
5.6729619403258749
 31
0.0
  0
ARC
  5
2E59
  8
DEFPOINTS
 62
   242
 10
24.6115229251945209
 20
5.6422299131772027
 30
0.0
 40
0.3533184604704238
 50
247.4635087211738096
 51
4.9899553679464841
  0
LINE
  5
2E5A
  8
DEFPOINTS
 62
   242
 10
24.4761059345064496
 20
5.3158923990263229
 30
0.0
 11
24.8199590071126295
 21
5.0979099281114468
 31
0.0
  0
ARC
  5
2E5B
  8
DEFPOINTS
 62
   242
 10
24.9805844592659305
 20
5.351286059824921
 30
0.0
 40
0.3000000000025615
 50
237.6277246229770981
 51
270.0000000000284786
  0
LINE
  5
2E5C
  8
DEFPOINTS
 62
   242
 10
24.9805844592660797
 20
5.0512860598223579
 30
0.0
 11
26.4540529011437684
 21
5.0512860598223579
 31
0.0
  0
ARC
  5
2E5D
  8
DEFPOINTS
 62
   242
 10
26.4540529011435304
 20
4.7512860598224709
 30
0.0
 40
0.299999999999887
 50
24.9999999999359304
 51
89.9999999999538574
  0
LINE
  5
2E5E
  8
DEFPOINTS
 62
   242
 10
26.7259452372545603
 20
4.8780715383443294
 30
0.0
 11
28.1731641421515597
 21
1.774500581300116
 31
0.0
  0
ARC
  5
2E5F
  8
DEFPOINTS
 62
   242
 10
28.4450564782617583
 20
1.901286059821059
 30
0.0
 40
0.2999999999987459
 50
204.9999999998445901
 51
269.9999999998540829
  0
LINE
  5
2E60
  8
DEFPOINTS
 62
   242
 10
28.4450564782610016
 20
1.601286059822314
 30
0.0
 11
34.6652230982726905
 21
1.601286059822314
 31
0.0
  0
ARC
  5
2E61
  8
DEFPOINTS
 62
   242
 10
34.66522309827171
 20
1.9012860598206749
 30
0.0
 40
0.2999999999983613
 50
270.0000000001871854
 51
335.0000000002025899
  0
LINE
  5
2E62
  8
DEFPOINTS
 62
   242
 10
34.9371154343816812
 20
1.774500581300116
 30
0.0
 11
36.3843343392804925
 21
4.878071538345238
 31
0.0
  0
LINE
  5
2E63
  8
DEFPOINTS
 62
   242
 10
40.4651774190324431
 20
15.2312108167733395
 30
0.0
 11
40.4651774190324431
 21
18.8312108167721597
 31
0.0
  0
LINE
  5
2E64
  8
DEFPOINTS
 62
   242
 10
22.4651774190379001
 20
15.2312108167733395
 30
0.0
 11
22.4651774190379001
 21
18.8312108167721597
 31
0.0
  0
LINE
  5
2E6A
  8
DEFPOINTS
 62
   242
 10
53.4651397892157405
 20
34.770600582784482
 30
0.0
 11
53.4651775491593071
 21
38.0706001441225226
 31
0.0
  0
POLYLINE
  5
3004
  8
0
 62
    32
 66
     1
 10
0.0
 20
0.0
 30
0.0
 70
     1
  0
VERTEX
  5
3073
  8
0
 62
    32
 10
59.355139788267941
 20
31.8106005807480905
 30
0.0
  0
VERTEX
  5
3074
  8
0
 62
    32
 10
56.4652525467035886
 20
31.810600580957491
 30
0.0
  0
VERTEX
  5
3075
  8
0
 62
    32
 10
56.4652525467035886
 20
28.3106005807480905
 30
0.0
  0
VERTEX
  5
3076
  8
0
 62
    32
 10
59.355139788267941
 20
28.3106005807480905
 30
0.0
  0
SEQEND
  5
3077
  8
0
 62
    32
  0
POLYLINE
  5
3005
  8
0
 62
    32
 66
     1
 10
0.0
 20
0.0
 30
0.0
 70
     1
  0
VERTEX
  5
3078
  8
0
 62
    32
 10
60.5551397882677378
 20
33.8106005807501333
 30
0.0
  0
VERTEX
  5
3079
  8
0
 62
    32
 10
59.355139788267941
 20
33.8106005807501333
 30
0.0
  0
VERTEX
  5
307A
  8
0
 62
    32
 10
59.355139788267941
 20
32.7106005807493219
 30
0.0
  0
VERTEX
  5
307B
  8
0
 62
    32
 10
59.355139788267941
 20
26.3106005807501298
 30
0.0
  0
VERTEX
  5
307C
  8
0
 62
    32
 10
60.5551397882677378
 20
26.3106005807501298
 30
0.0
  0
SEQEND
  5
307D
  8
0
 62
    32
  0
POLYLINE
  5
3006
  8
0
 62
    32
 66
     1
 10
0.0
 20
0.0
 30
0.0
 70
     1
  0
VERTEX
  5
307E
  8
0
 62
    32
 10
3.7551397882657511
 20
33.8106005807501333
 30
0.0
  0
VERTEX
  5
307F
  8
0
 62
    32
 10
2.555139788265925
 20
33.8106005807501404
 30
0.0
  0
VERTEX
  5
3080
  8
0
 62
    32
 10
2.555139788265925
 20
26.3106005807501298
 30
0.0
  0
VERTEX
  5
3081
  8
0
 62
    32
 10
3.755139788265744
 20
26.3106005807501298
 30
0.0
  0
SEQEND
  5
3082
  8
0
 62
    32
  0
POLYLINE
  5
3007
  8
0
 62
    32
 66
     1
 10
0.0
 20
0.0
 30
0.0
 70
     1
  0
VERTEX
  5
3083
  8
0
 62
    32
 10
6.465102291367649
 20
31.8106005807480905
 30
0.0
  0
VERTEX
  5
3084
  8
0
 62
    32
 10
3.7551397882657511
 20
31.8106005807480905
 30
0.0
  0
VERTEX
  5
3085
  8
0
 62
    32
 10
3.7551397882657578
 20
28.3106005807480905
 30
0.0
  0
VERTEX
  5
3086
  8
0
 62
    32
 10
6.465102291367657
 20
28.3106005805532313
 30
0.0
  0
SEQEND
  5
3087
  8
0
 62
    32
  0
POLYLINE
  5
3008
  8
0
 62
    32
 66
     1
 10
0.0
 20
0.0
 30
0.0
 70
     1
  0
VERTEX
  5
3088
  8
0
 62
    32
 10
15.4651397892157494
 20
37.770600582784482
 30
0.0
  0
VERTEX
  5
3089
  8
0
 62
    32
 10
9.4651397892166642
 20
34.770600582784482
 30
0.0
  0
VERTEX
  5
308A
  8
0
 62
    32
 10
9.4651397892166642
 20
26.07060058278444
 30
0.0
  0
VERTEX
  5
308B
  8
0
 62
    32
 10
15.4651397892180302
 20
26.07060058278444
 30
0.0
  0
SEQEND
  5
308C
  8
0
 62
    32
  0
POLYLINE
  5
3009
  8
0
 62
    32
 66
     1
 10
0.0
 20
0.0
 30
0.0
 70
     1
  0
VERTEX
  5
308D
  8
0
 62
    32
 10
53.4651397892157405
 20
34.770600582784482
 30
0.0
  0
VERTEX
  5
308E
  8
0
 62
    32
 10
47.4651397892180213
 20
37.7817255617871979
 30
0.0
  0
VERTEX
  5
308F
  8
0
 62
    32
 10
47.4651397892166429
 20
26.07060058278444
 30
0.0
  0
VERTEX
  5
3090
  8
0
 62
    32
 10
53.4651397892157405
 20
26.07060058278444
 30
0.0
  0
SEQEND
  5
3091
  8
0
 62
    32
  0
POLYLINE
  5
300A
  8
0
 62
    32
 66
     1
 10
0.0
 20
0.0
 30
0.0
 70
     1
  0
VERTEX
  5
3092
  8
0
 62
    32
 10
47.4651397892166429
 20
26.07060058278444
 30
0.0
  0
VERTEX
  5
3093
  8
0
 62
    32
 10
47.4651397892166429
 20
22.2706005827844784
 30
0.0
  0
VERTEX
  5
3094
  8
0
 62
    32
 10
43.2570582323028887
 20
22.2706005827844784
 30
0.0
 42
-0.4258451227101917
  0
VERTEX
  5
3095
  8
0
 62
    32
 10
43.4651773070154377
 20
22.0709771326193014
 30
0.0
  0
VERTEX
  5
3096
  8
0
 62
    32
 10
43.4651774190351716
 20
16.5707654537235385
 30
0.0
 42
0.4142135623730962
  0
VERTEX
  5
3097
  8
0
 62
    32
 10
43.9651774190351716
 20
16.0707654537235314
 30
0.0
  0
VERTEX
  5
3098
  8
0
 62
    32
 10
45.8126141831326734
 20
16.0707654537235385
 30
0.0
 42
0.3716617233668844
  0
VERTEX
  5
3099
  8
0
 62
    32
 10
46.3071899542042118
 20
16.4973154749892501
 30
0.0
 42
-0.5868162455922493
  0
VERTEX
  5
309A
  8
0
 62
    32
 10
47.53182299822884
 20
16.9611035569453712
 30
0.0
 42
2.1478203655785828
  0
VERTEX
  5
309B
  8
0
 62
    32
 10
47.531822998229039
 20
19.1804273505014784
 30
0.0
 42
-1.0
  0
VERTEX
  5
309C
  8
0
 62
    32
 10
46.5662839422220927
 20
20.3283534506168415
 30
0.0
 42
-0.5874865212179984
  0
VERTEX
  5
309D
  8
0
 62
    32
 10
51.3840321208705717
 20
18.4983016856075899
 30
0.0
 42
0.3722290659500272
  0
VERTEX
  5
309E
  8
0
 62
    32
 10
51.8787532567748713
 20
18.0707654537235314
 30
0.0
  0
VERTEX
  5
309F
  8
0
 62
    32
 10
52.9651774105346007
 20
18.0707654537235385
 30
0.0
 42
0.414213567352619
  0
VERTEX
  5
30A0
  8
0
 62
    32
 10
53.4651774190351716
 20
18.5707654537235385
 30
0.0
  0
VERTEX
  5
30A1
  8
0
 62
    32
 10
53.4651775491593071
 20
26.07060058278444
 30
0.0
  0
SEQEND
  5
30A2
  8
0
 62
    32
  0
POLYLINE
  5
300B
  8
0
 62
    32
 66
     1
 10
0.0
 20
0.0
 30
0.0
 70
     1
  0
VERTEX
  5
30A3
  8
0
 62
    32
 10
15.4651397892180302
 20
26.07060058278444
 30
0.0
  0
VERTEX
  5
30A4
  8
0
 62
    32
 10
9.4651397892166642
 20
26.07060058278444
 30
0.0
  0
VERTEX
  5
30A5
  8
0
 62
    32
 10
9.4651774190414244
 20
18.5707629536888703
 30
0.0
 42
0.4142120978874516
  0
VERTEX
  5
30A6
  8
0
 62
    32
 10
9.9651774190351716
 20
18.0707654537235385
 30
0.0
  0
VERTEX
  5
30A7
  8
0
 62
    32
 10
11.0516015727951
 20
18.0707654537235385
 30
0.0
 42
0.372229070789114
  0
VERTEX
  5
30A8
  8
0
 62
    32
 10
11.5463227171998106
 20
18.4983016856075899
 30
0.0
 42
-0.5874865212178954
  0
VERTEX
  5
30A9
  8
0
 62
    32
 10
16.3640708958478385
 20
20.3283534506168202
 30
0.0
 42
-1.0
  0
VERTEX
  5
30AA
  8
0
 62
    32
 10
15.3985318398413202
 20
19.1804273505018301
 30
0.0
 42
2.1478203655783701
  0
VERTEX
  5
30AB
  8
0
 62
    32
 10
15.3985318398413007
 20
16.9611035569455986
 30
0.0
 42
-0.586816245592845
  0
VERTEX
  5
30AC
  8
0
 62
    32
 10
16.6231648838665791
 20
16.4973154749893212
 30
0.0
 42
0.3716616700318552
  0
VERTEX
  5
30AD
  8
0
 62
    32
 10
17.1177405612143012
 20
16.0707654537235314
 30
0.0
  0
VERTEX
  5
30AE
  8
0
 62
    32
 10
18.9651773253119309
 20
16.0707654537235385
 30
0.0
 42
0.4142136172749014
  0
VERTEX
  5
30AF
  8
0
 62
    32
 10
19.4651774190351787
 20
16.5707654537235385
 30
0.0
  0
VERTEX
  5
30B0
  8
0
 62
    32
 10
19.4651775310514985
 20
22.070553778046321
 30
0.0
 42
-0.4026768836799054
  0
VERTEX
  5
30B1
  8
0
 62
    32
 10
19.6570582323024894
 20
22.2706005827844784
 30
0.0
  0
VERTEX
  5
30B2
  8
0
 62
    32
 10
15.4651397892180302
 20
22.2706005827844784
 30
0.0
  0
SEQEND
  5
30B3
  8
0
 62
    32
  0
POLYLINE
  5
300C
  8
0
 62
    32
 66
     1
 10
0.0
 20
0.0
 30
0.0
 70
     1
  0
VERTEX
  5
30B4
  8
0
 62
    32
 10
47.4651397892166429
 20
26.07060058278444
 30
0.0
  0
VERTEX
  5
30B5
  8
0
 62
    32
 10
15.4651397892180302
 20
26.07060058278444
 30
0.0
  0
VERTEX
  5
30B6
  8
0
 62
    32
 10
15.4651397892180302
 20
22.2706005827844784
 30
0.0
  0
VERTEX
  5
30B7
  8
0
 62
    32
 10
47.4651397892166429
 20
22.2706005827844784
 30
0.0
  0
SEQEND
  5
30B8
  8
0
 62
    32
  0
POLYLINE
  5
300D
  8
0
 62
    32
 66
     1
 10
0.0
 20
0.0
 30
0.0
 70
     1
  0
VERTEX
  5
30B9
  8
0
 62
    32
 10
36.2943719700471519
 20
17.7579962952945714
 30
0.0
 42
-0.291473419586067
  0
VERTEX
  5
30BA
  8
0
 62
    32
 10
36.5662643061587005
 20
17.9312108167727011
 30
0.0
  0
VERTEX
  5
30BB
  8
0
 62
    32
 10
37.5951327773581809
 20
17.9312108167722393
 30
0.0
 42
0.1316524975877739
  0
VERTEX
  5
30BC
  8
0
 62
    32
 10
37.6526327773582281
 20
17.9466178953370594
 30
0.0
  0
VERTEX
  5
30BD
  8
0
 62
    32
 10
38.2679690165361706
 20
18.3018824386676897
 30
0.0
 42
-0.58717808458133
  0
VERTEX
  5
30BE
  8
0
 62
    32
 10
37.9651778024790474
 20
18.4680921261796307
 30
0.0
  0
VERTEX
  5
30BF
  8
0
 62
    32
 10
37.9651778024790474
 20
22.0703738193568491
 30
0.0
 42
-0.4029383311128224
  0
VERTEX
  5
30C0
  8
0
 62
    32
 10
38.1570582323024112
 20
22.2706005827844784
 30
0.0
  0
VERTEX
  5
30C1
  8
0
 62
    32
 10
24.7570582323019508
 20
22.2706005827844784
 30
0.0
 42
-0.4255794125587024
  0
VERTEX
  5
30C2
  8
0
 62
    32
 10
24.9651770355921983
 20
22.0711570871613105
 30
0.0
  0
VERTEX
  5
30C3
  8
0
 62
    32
 10
24.9651770355921983
 20
18.4715346059028285
 30
0.0
 42
-0.5339217366005095
  0
VERTEX
  5
30C4
  8
0
 62
    32
 10
24.6896838645382886
 20
18.2861219061868283
 30
0.0
  0
VERTEX
  5
30C5
  8
0
 62
    32
 10
25.2777220607121187
 20
17.9466178953370594
 30
0.0
 42
0.131652497587665
  0
VERTEX
  5
30C6
  8
0
 62
    32
 10
25.3352220607121197
 20
17.9312108167722286
 30
0.0
  0
VERTEX
  5
30C7
  8
0
 62
    32
 10
26.3640905319116392
 20
17.9312108167727011
 30
0.0
 42
-0.2914734195860685
  0
VERTEX
  5
30C8
  8
0
 62
    32
 10
26.6359828680232091
 20
17.7579962952945714
 30
0.0
  0
VERTEX
  5
30C9
  8
0
 62
    32
 10
28.0832017729170111
 20
14.6544253382510092
 30
0.0
 42
0.2914734195861752
  0
VERTEX
  5
30CA
  8
0
 62
    32
 10
28.3550941090288688
 20
14.4812108167726201
 30
0.0
  0
VERTEX
  5
30CB
  8
0
 62
    32
 10
34.5752607290415099
 20
14.4812108167726201
 30
0.0
 42
0.2914734195860342
  0
VERTEX
  5
30CC
  8
0
 62
    32
 10
34.8471530651532788
 20
14.6544253382509098
 30
0.0
  0
SEQEND
  5
30CD
  8
0
 62
    32
  0
POLYLINE
  5
300E
  8
0
 62
    32
 66
     1
 10
0.0
 20
0.0
 30
0.0
 70
     1
  0
VERTEX
  5
30CE
  8
0
 62
    32
 10
37.4447889847199278
 20
15.8072552195753406
 30
0.0
 42
-0.4630478180295626
  0
VERTEX
  5
30CF
  8
0
 62
    32
 10
38.1826922506486284
 20
15.9997065647921701
 30
0.0
  0
VERTEX
  5
30D0
  8
0
 62
    32
 10
39.7044079035768007
 20
14.9312108167722499
 30
0.0
  0
VERTEX
  5
30D1
  8
0
 62
    32
 10
40.1651774190322612
 20
14.9312108167731594
 30
0.0
 42
0.4142135623730968
  0
VERTEX
  5
30D2
  8
0
 62
    32
 10
40.4651774190324431
 20
15.2312108167733395
 30
0.0
  0
VERTEX
  5
30D3
  8
0
 62
    32
 10
40.4651774190324431
 20
18.831210816771879
 30
0.0
 42
0.4142135623730958
  0
VERTEX
  5
30D4
  8
0
 62
    32
 10
40.1651774190322612
 20
19.1312108167720716
 30
0.0
  0
VERTEX
  5
30D5
  8
0
 62
    32
 10
39.7044079035768007
 20
19.1312108167729811
 30
0.0
  0
VERTEX
  5
30D6
  8
0
 62
    32
 10
37.6259469344978399
 20
17.9312108167722499
 30
0.0
  0
VERTEX
  5
30D7
  8
0
 62
    32
 10
36.5662643061587005
 20
17.9312108167727011
 30
0.0
 42
0.2914734195860653
  0
VERTEX
  5
30D8
  8
0
 62
    32
 10
36.2943719700471519
 20
17.7579962952945714
 30
0.0
  0
VERTEX
  5
30D9
  8
0
 62
    32
 10
34.8471530651533428
 20
14.6544253382510092
 30
0.0
 42
-0.2914734195861742
  0
VERTEX
  5
30DA
  8
0
 62
    32
 10
34.5752607290414815
 20
14.4812108167726201
 30
0.0
  0
VERTEX
  5
30DB
  8
0
 62
    32
 10
28.3550941090288298
 20
14.4812108167726201
 30
0.0
 42
-0.2914734195860351
  0
VERTEX
  5
30DC
  8
0
 62
    32
 10
28.0832017729170609
 20
14.6544253382509098
 30
0.0
  0
VERTEX
  5
30DD
  8
0
 62
    32
 10
26.6359828680232695
 20
17.7579962952944399
 30
0.0
 42
0.2914734195861957
  0
VERTEX
  5
30DE
  8
0
 62
    32
 10
26.3640905319116392
 20
17.9312108167727011
 30
0.0
  0
VERTEX
  5
30DF
  8
0
 62
    32
 10
25.3044079035725282
 20
17.9312108167722286
 30
0.0
  0
VERTEX
  5
30E0
  8
0
 62
    32
 10
23.2259469344935496
 20
19.1312108167729811
 30
0.0
  0
VERTEX
  5
30E1
  8
0
 62
    32
 10
22.7651774190380785
 20
19.1312108167720716
 30
0.0
 42
0.4142135623730958
  0
VERTEX
  5
30E2
  8
0
 62
    32
 10
22.4651774190379001
 20
18.831210816771879
 30
0.0
  0
VERTEX
  5
30E3
  8
0
 62
    32
 10
22.4651774190379001
 20
15.2312108167733395
 30
0.0
 42
0.4142135623730951
  0
VERTEX
  5
30E4
  8
0
 62
    32
 10
22.7651774190380785
 20
14.9312108167731594
 30
0.0
  0
VERTEX
  5
30E5
  8
0
 62
    32
 10
23.2259469344935496
 20
14.9312108167722499
 30
0.0
  0
VERTEX
  5
30E6
  8
0
 62
    32
 10
24.7476625874217113
 20
15.9997065647921701
 30
0.0
 42
-0.4394995507149796
  0
VERTEX
  5
30E7
  8
0
 62
    32
 10
25.4672425289752589
 20
15.8418160342329593
 30
0.0
  0
VERTEX
  5
30E8
  8
0
 62
    32
 10
26.9364753030532391
 20
13.0706005447385003
 30
0.0
  0
VERTEX
  5
30E9
  8
0
 62
    32
 10
35.9938795341877977
 20
13.0706004740633599
 30
0.0
  0
SEQEND
  5
30EA
  8
0
 62
    32
  0
POLYLINE
  5
300F
  8
0
 62
    32
 66
     1
 10
0.0
 20
0.0
 30
0.0
 70
     1
  0
VERTEX
  5
30EB
  8
0
 62
    32
 10
61.6551397882685706
 20
24.5506005807500607
 30
0.0
 42
0.4142135623729538
  0
VERTEX
  5
30EC
  8
0
 62
    32
 10
61.1551397882687766
 20
25.0506005807501388
 30
0.0
  0
VERTEX
  5
30ED
  8
0
 62
    32
 10
58.5551397882675602
 20
25.0506005807515209
 30
0.0
 42
-0.41421356237294
  0
VERTEX
  5
30EE
  8
0
 62
    32
 10
58.0551397882677378
 20
25.550600580751599
 30
0.0
  0
VERTEX
  5
30EF
  8
0
 62
    32
 10
58.0551397882677378
 20
27.4106005807493496
 30
0.0
 42
-0.6153846153835494
  0
VERTEX
  5
30F0
  8
0
 62
    32
 10
59.355139788267941
 20
27.4106005807514101
 30
0.0
  0
VERTEX
  5
30F1
  8
0
 62
    32
 10
59.355139788267941
 20
28.3106005807480905
 30
0.0
  0
VERTEX
  5
30F2
  8
0
 62
    32
 10
56.4652525467035886
 20
28.3106005807480905
 30
0.0
  0
VERTEX
  5
30F3
  8
0
 62
    32
 10
56.4652525467035886
 20
13.2707596112101207
 30
0.0
 42
-0.4144468665308915
  0
VERTEX
  5
30F4
  8
0
 62
    32
 10
56.2652526085804183
 20
13.0706003158853399
 30
0.0
  0
VERTEX
  5
30F5
  8
0
 62
    32
 10
54.7594108434936828
 20
13.0706003276354608
 30
0.0
  0
VERTEX
  5
30F6
  8
0
 62
    32
 10
54.7594108434936828
 20
9.0706005806551282
 30
0.0
  0
VERTEX
  5
30F7
  8
0
 62
    32
 10
56.9355653523680303
 20
9.0706005806403027
 30
0.0
 42
-0.1448793903364694
  0
VERTEX
  5
30F8
  8
0
 62
    32
 10
56.3556576247369705
 20
10.9112623988656896
 30
0.0
 42
-1.0
  0
VERTEX
  5
30F9
  8
0
 62
    32
 10
57.8554291674708878
 20
10.9374410085206506
 30
0.0
 42
2.355852365824556
  0
VERTEX
  5
30FA
  8
0
 62
    32
 10
59.7882993604990105
 20
12.8703112015484606
 30
0.0
 42
-1.0
  0
VERTEX
  5
30FB
  8
0
 62
    32
 10
59.8144779701551528
 20
14.3700827442826196
 30
0.0
 42
-0.144879390336157
  0
VERTEX
  5
30FC
  8
0
 62
    32
 10
61.6551397883786123
 20
13.7901750166504407
 30
0.0
  0
VERTEX
  5
30FD
  8
0
 62
    32
 10
61.6551397882681229
 20
14.3569359257821798
 30
0.0
  0
SEQEND
  5
30FE
  8
0
 62
    32
  0
POLYLINE
  5
3010
  8
0
 62
    32
 66
     1
 10
0.0
 20
0.0
 30
0.0
 70
     1
  0
VERTEX
  5
30FF
  8
0
 62
    32
 10
6.465102291367657
 20
28.3106005805532384
 30
0.0
  0
VERTEX
  5
3100
  8
0
 62
    32
 10
3.7551397882657511
 20
28.3106005807480905
 30
0.0
  0
VERTEX
  5
3101
  8
0
 62
    32
 10
3.7551397882657511
 20
27.4106005807514101
 30
0.0
 42
-0.6153846153845312
  0
VERTEX
  5
3102
  8
0
 62
    32
 10
5.055139788265933
 20
27.4106005807493602
 30
0.0
  0
VERTEX
  5
3103
  8
0
 62
    32
 10
5.055139788265933
 20
25.550600580751599
 30
0.0
 42
-0.414213562372941
  0
VERTEX
  5
3104
  8
0
 62
    32
 10
4.5551397882661098
 20
25.0506005807515209
 30
0.0
  0
VERTEX
  5
3105
  8
0
 62
    32
 10
1.955139788264453
 20
25.0506005807501388
 30
0.0
 42
0.4142135623729749
  0
VERTEX
  5
3106
  8
0
 62
    32
 10
1.4551397882646659
 20
24.5506005807500109
 30
0.0
  0
VERTEX
  5
3107
  8
0
 62
    32
 10
1.4551397882660231
 20
14.3569359257821798
 30
0.0
  0
VERTEX
  5
3108
  8
0
 62
    32
 10
1.455139788155065
 20
13.7901750166504407
 30
0.0
 42
-0.1448793903361981
  0
VERTEX
  5
3109
  8
0
 62
    32
 10
3.2958016063791362
 20
14.3700827442826409
 30
0.0
 42
-1.0
  0
VERTEX
  5
310A
  8
0
 62
    32
 10
3.3219802160353562
 20
12.87031120154845
 30
0.0
 42
2.3558523658241541
  0
VERTEX
  5
310B
  8
0
 62
    32
 10
5.2548504090623416
 20
10.9374410085208602
 30
0.0
 42
-1.0
  0
VERTEX
  5
310C
  8
0
 62
    32
 10
6.7546219517971622
 20
10.9112623988656807
 30
0.0
 42
-0.1448793903364673
  0
VERTEX
  5
310D
  8
0
 62
    32
 10
6.1747142241651991
 20
9.0706005806403027
 30
0.0
  0
VERTEX
  5
310E
  8
0
 62
    32
 10
8.7594108434936881
 20
9.0706005806579117
 30
0.0
  0
VERTEX
  5
310F
  8
0
 62
    32
 10
8.759410843493697
 20
13.0706006865745792
 30
0.0
  0
VERTEX
  5
3110
  8
0
 62
    32
 10
6.6654956883400942
 20
13.0706007029134508
 30
0.0
 42
-0.4145565294573999
  0
VERTEX
  5
3111
  8
0
 62
    32
 10
6.465102291367657
 20
13.2704410194110398
 30
0.0
  0
SEQEND
  5
3112
  8
0
 62
    32
  0
POLYLINE
  5
3011
  8
0
 62
    32
 66
     1
 10
0.0
 20
0.0
 30
0.0
 70
     1
  0
VERTEX
  5
3113
  8
0
 62
    32
 10
54.7594108434936828
 20
13.0706003276354608
 30
0.0
  0
VERTEX
  5
3114
  8
0
 62
    32
 10
8.759410843493697
 20
13.0706006865745792
 30
0.0
  0
VERTEX
  5
3115
  8
0
 62
    32
 10
8.7594108434936881
 20
9.0706005806579117
 30
0.0
  0
VERTEX
  5
3116
  8
0
 62
    32
 10
22.2950045477941714
 20
9.0706005807501242
 30
0.0
  0
VERTEX
  5
3117
  8
0
 62
    32
 10
40.8152750287408708
 20
9.0706005807501242
 30
0.0
  0
VERTEX
  5
3118
  8
0
 62
    32
 10
54.7594108434936828
 20
9.0706005806551282
 30
0.0
  0
SEQEND
  5
3119
  8
0
 62
    32
  0
POLYLINE
  5
3012
  8
0
 62
    32
 66
     1
 10
0.0
 20
0.0
 30
0.0
 70
     1
  0
VERTEX
  5
311A
  8
0
 62
    32
 10
15.3985318398414908
 20
16.9611035569453783
 30
0.0
 42
-2.1478203655785779
  0
VERTEX
  5
311B
  8
0
 62
    32
 10
15.3985318398413007
 20
19.1804273505014713
 30
0.0
 42
1.0
  0
VERTEX
  5
311C
  8
0
 62
    32
 10
16.3640708958483714
 20
20.3283534506167491
 30
0.0
 42
0.587486521218014
  0
VERTEX
  5
311D
  8
0
 62
    32
 10
11.5463227171997609
 20
18.4983016856076006
 30
0.0
 42
-0.372229065950029
  0
VERTEX
  5
311E
  8
0
 62
    32
 10
11.0516015812954596
 20
18.0707654537235385
 30
0.0
  0
VERTEX
  5
311F
  8
0
 62
    32
 10
9.9651774275355436
 20
18.0707654537235385
 30
0.0
 42
-0.4142121028668534
  0
VERTEX
  5
3120
  8
0
 62
    32
 10
9.4651774190414173
 20
18.5707629536888703
 30
0.0
  0
VERTEX
  5
3121
  8
0
 62
    32
 10
9.4651397892166642
 20
26.07060058278444
 30
0.0
  0
VERTEX
  5
3122
  8
0
 62
    32
 10
9.4651397892166642
 20
34.7706005827844891
 30
0.0
 42
0.2113203635683097
  0
VERTEX
  5
3123
  8
0
 62
    32
 10
8.9651752691960525
 20
35.0706005837072325
 30
0.0
  0
VERTEX
  5
3124
  8
0
 62
    32
 10
6.9651022279285817
 20
35.0706003158846897
 30
0.0
 42
0.4143611127739355
  0
VERTEX
  5
3125
  8
0
 62
    32
 10
6.465102291367657
 20
34.5703484447461804
 30
0.0
  0
VERTEX
  5
3126
  8
0
 62
    32
 10
6.465102291367657
 20
31.8106005807480905
 30
0.0
  0
VERTEX
  5
3127
  8
0
 62
    32
 10
6.4651397899056056
 20
31.8106005807480905
 30
0.0
  0
VERTEX
  5
3128
  8
0
 62
    32
 10
6.4651397896536764
 20
28.3106005805532313
 30
0.0
  0
VERTEX
  5
3129
  8
0
 62
    32
 10
6.4651022909716138
 20
13.2704415174258301
 30
0.0
 42
0.4145572589605134
  0
VERTEX
  5
312A
  8
0
 62
    32
 10
6.6654956883400791
 20
13.0706007029134508
 30
0.0
  0
VERTEX
  5
312B
  8
0
 62
    32
 10
26.9364753030532498
 20
13.0706005447385003
 30
0.0
  0
VERTEX
  5
312C
  8
0
 62
    32
 10
25.4672425289752589
 20
15.8418160342329593
 30
0.0
 42
0.4394995507149796
  0
VERTEX
  5
312D
  8
0
 62
    32
 10
24.7476625874217113
 20
15.9997065647921701
 30
0.0
  0
VERTEX
  5
312E
  8
0
 62
    32
 10
23.2259469344935496
 20
14.9312108167722499
 30
0.0
  0
VERTEX
  5
312F
  8
0
 62
    32
 10
22.7651774190380785
 20
14.9312108167731594
 30
0.0
 42
-0.4142135623730951
  0
VERTEX
  5
3130
  8
0
 62
    32
 10
22.4651774190379001
 20
15.2312108167733395
 30
0.0
  0
VERTEX
  5
3131
  8
0
 62
    32
 10
22.4651774190379001
 20
18.831210816771879
 30
0.0
 42
-0.4142135623730958
  0
VERTEX
  5
3132
  8
0
 62
    32
 10
22.7651774190380785
 20
19.1312108167720716
 30
0.0
  0
VERTEX
  5
3133
  8
0
 62
    32
 10
23.2259469344935496
 20
19.1312108167729811
 30
0.0
  0
VERTEX
  5
3134
  8
0
 62
    32
 10
24.6896838645382815
 20
18.286121906186839
 30
0.0
 42
0.5339217366028857
  0
VERTEX
  5
3135
  8
0
 62
    32
 10
24.9651770355921983
 20
18.4715346059042993
 30
0.0
  0
VERTEX
  5
3136
  8
0
 62
    32
 10
24.9651770355921983
 20
22.0711570871594809
 30
0.0
 42
0.4255794125613931
  0
VERTEX
  5
3137
  8
0
 62
    32
 10
24.7570582323019508
 20
22.2706005827844784
 30
0.0
  0
VERTEX
  5
3138
  8
0
 62
    32
 10
19.6570582323024894
 20
22.2706005827844784
 30
0.0
 42
0.4026768896037621
  0
VERTEX
  5
3139
  8
0
 62
    32
 10
19.4651775310558115
 20
22.0705537739684594
 30
0.0
  0
VERTEX
  5
313A
  8
0
 62
    32
 10
19.4651774190351787
 20
16.5707654537235385
 30
0.0
 42
-0.4142135623730951
  0
VERTEX
  5
313B
  8
0
 62
    32
 10
18.9651774190351716
 20
16.0707654537235314
 30
0.0
  0
VERTEX
  5
313C
  8
0
 62
    32
 10
18.9651774490994214
 20
16.0707651074279703
 30
0.0
  0
VERTEX
  5
313D
  8
0
 62
    32
 10
17.1177405612143012
 20
16.0707654537235314
 30
0.0
 42
-0.3716616700320779
  0
VERTEX
  5
313E
  8
0
 62
    32
 10
16.6231648838661314
 20
16.4973154749892501
 30
0.0
 42
0.5868162455922495
  0
SEQEND
  5
313F
  8
0
 62
    32
  0
POLYLINE
  5
3013
  8
0
 62
    32
 66
     1
 10
0.0
 20
0.0
 30
0.0
 70
     1
  0
VERTEX
  5
3140
  8
0
 62
    32
 10
97.4651763794181534
 20
37.5716199314678576
 30
0.0
 42
0.4138591039011583
  0
VERTEX
  5
3141
  8
0
 62
    32
 10
96.9647629770758499
 20
38.0706001441225226
 30
0.0
  0
VERTEX
  5
3142
  8
0
 62
    32
 10
53.4651775491593071
 20
38.0706001441225226
 30
0.0
  0
VERTEX
  5
3143
  8
0
 62
    32
 10
53.4651397892157405
 20
34.770600582784482
 30
0.0
  0
VERTEX
  5
3144
  8
0
 62
    32
 10
53.4651397892157405
 20
26.07060058278444
 30
0.0
  0
VERTEX
  5
3145
  8
0
 62
    32
 10
53.4651774190288265
 20
18.5707679711084701
 30
0.0
 42
-0.4142150370238163
  0
VERTEX
  5
3146
  8
0
 62
    32
 10
52.9651774190351716
 20
18.0707654537235385
 30
0.0
  0
VERTEX
  5
3147
  8
0
 62
    32
 10
52.9651774672029205
 20
18.0707654352530582
 30
0.0
  0
VERTEX
  5
3148
  8
0
 62
    32
 10
51.8787532567748713
 20
18.0707654537235314
 30
0.0
 42
-0.3722290659500505
  0
VERTEX
  5
3149
  8
0
 62
    32
 10
51.3840321208705291
 20
18.4983016856075793
 30
0.0
 42
0.5874865212178962
  0
VERTEX
  5
314A
  8
0
 62
    32
 10
46.5662839422224977
 20
20.3283534506168095
 30
0.0
 42
1.0
  0
VERTEX
  5
314B
  8
0
 62
    32
 10
47.5318229982289608
 20
19.180427350501791
 30
0.0
 42
-2.1478203655784438
  0
VERTEX
  5
314C
  8
0
 62
    32
 10
47.531822998229039
 20
16.9611035569455986
 30
0.0
 42
0.5868162455928557
  0
VERTEX
  5
314D
  8
0
 62
    32
 10
46.3071899542037499
 20
16.4973154749893212
 30
0.0
 42
-0.3716616700318538
  0
VERTEX
  5
314E
  8
0
 62
    32
 10
45.8126142768560314
 20
16.0707654537235314
 30
0.0
  0
VERTEX
  5
314F
  8
0
 62
    32
 10
43.9651775127585367
 20
16.0707654537235385
 30
0.0
 42
-0.4142136172749754
  0
VERTEX
  5
3150
  8
0
 62
    32
 10
43.4651774190351716
 20
16.5707654537235385
 30
0.0
  0
VERTEX
  5
3151
  8
0
 62
    32
 10
43.4651773070111176
 20
22.0709771366917096
 30
0.0
 42
0.4258451166965937
  0
VERTEX
  5
3152
  8
0
 62
    32
 10
43.2570582323028532
 20
22.2706005827844784
 30
0.0
  0
VERTEX
  5
3153
  8
0
 62
    32
 10
38.1570582323024112
 20
22.2706005827844784
 30
0.0
 42
0.4029383311128224
  0
VERTEX
  5
3154
  8
0
 62
    32
 10
37.9651778024790474
 20
22.0703738193568491
 30
0.0
  0
VERTEX
  5
3155
  8
0
 62
    32
 10
37.9651778024790474
 20
18.4680921261799007
 30
0.0
 42
0.5871780844175428
  0
VERTEX
  5
3156
  8
0
 62
    32
 10
38.2679690164543018
 20
18.3018824386163814
 30
0.0
  0
VERTEX
  5
3157
  8
0
 62
    32
 10
39.7044079035768007
 20
19.1312108167729811
 30
0.0
  0
VERTEX
  5
3158
  8
0
 62
    32
 10
40.1651774190322612
 20
19.1312108167720716
 30
0.0
 42
-0.4142135623730958
  0
VERTEX
  5
3159
  8
0
 62
    32
 10
40.4651774190324431
 20
18.831210816771879
 30
0.0
  0
VERTEX
  5
315A
  8
0
 62
    32
 10
40.4651774190324431
 20
15.2312108167733395
 30
0.0
 42
-0.4142135623730951
  0
VERTEX
  5
315B
  8
0
 62
    32
 10
40.1651774190322612
 20
14.9312108167731594
 30
0.0
  0
VERTEX
  5
315C
  8
0
 62
    32
 10
39.7044079035768007
 20
14.9312108167722499
 30
0.0
  0
VERTEX
  5
315D
  8
0
 62
    32
 10
38.1826922506486284
 20
15.9997065647921701
 30
0.0
 42
0.4630478180295917
  0
VERTEX
  5
315E
  8
0
 62
    32
 10
37.4447889847199065
 20
15.8072552195752891
 30
0.0
  0
VERTEX
  5
315F
  8
0
 62
    32
 10
35.9938795341877977
 20
13.0706004740633599
 30
0.0
  0
VERTEX
  5
3160
  8
0
 62
    32
 10
56.2652526085804183
 20
13.0706003158853399
 30
0.0
 42
0.4144468665308915
  0
VERTEX
  5
3161
  8
0
 62
    32
 10
56.4652525467035886
 20
13.2707596112101207
 30
0.0
  0
VERTEX
  5
3162
  8
0
 62
    32
 10
56.4652525467035886
 20
28.3106005807480905
 30
0.0
  0
VERTEX
  5
3163
  8
0
 62
    32
 10
56.4651397896532075
 20
28.3106005807480905
 30
0.0
  0
VERTEX
  5
3164
  8
0
 62
    32
 10
56.4651397899046898
 20
31.8106005809575016
 30
0.0
  0
VERTEX
  5
3165
  8
0
 62
    32
 10
56.4652526102764512
 20
34.8706076856117022
 30
0.0
 42
-0.4142027696992105
  0
VERTEX
  5
3166
  8
0
 62
    32
 10
56.6652526101406693
 20
35.0706003158848674
 30
0.0
  0
VERTEX
  5
3167
  8
0
 62
    32
 10
56.6652522069571205
 20
35.0706005837067778
 30
0.0
  0
VERTEX
  5
3168
  8
0
 62
    32
 10
89.2651774190353535
 20
35.0706003158848674
 30
0.0
 42
-0.4142135623730951
  0
VERTEX
  5
3169
  8
0
 62
    32
 10
89.4651774190353564
 20
34.8706003158848574
 30
0.0
  0
VERTEX
  5
316A
  8
0
 62
    32
 10
89.4651787941069045
 20
32.5694276821696178
 30
0.0
 42
0.4135268155218775
  0
VERTEX
  5
316B
  8
0
 62
    32
 10
89.9651774190351716
 20
32.0706003158846826
 30
0.0
  0
VERTEX
  5
316C
  8
0
 62
    32
 10
96.9651774030411531
 20
32.0706003158846826
 30
0.0
 42
0.4148109753454498
  0
VERTEX
  5
316D
  8
0
 62
    32
 10
97.4651763794181534
 20
32.5716199314678505
 30
0.0
  0
SEQEND
  5
316E
  8
0
 62
    32
  0
POLYLINE
  5
3014
  8
0
 62
    32
 66
     1
 10
0.0
 20
0.0
 30
0.0
 70
     1
  0
VERTEX
  5
316F
  8
0
 62
    32
 10
38.1467772811833967
 20
6.8840643553868706
 30
0.0
 42
-0.2568852938753492
  0
VERTEX
  5
3170
  8
0
 62
    32
 10
38.6113590538137927
 20
7.728651427156648
 30
0.0
  0
VERTEX
  5
3171
  8
0
 62
    32
 10
40.7281956651946189
 20
9.0706005807498471
 30
0.0
  0
VERTEX
  5
3172
  8
0
 62
    32
 10
22.2950045477945196
 20
9.0706005807501224
 30
0.0
 42
-0.1421976721922932
  0
VERTEX
  5
3173
  8
0
 62
    32
 10
22.4556300160059301
 20
9.0239767022811286
 30
0.0
  0
VERTEX
  5
3174
  8
0
 62
    32
 10
24.49892052272142
 20
7.7286514271562634
 30
0.0
 42
-0.2568852938753765
  0
VERTEX
  5
3175
  8
0
 62
    32
 10
24.9635022953521002
 20
6.8840643553860543
 30
0.0
  0
VERTEX
  5
3176
  8
0
 62
    32
 10
24.9635022953521002
 20
5.6729619403258731
 30
0.0
 42
-0.5630482836088154
  0
VERTEX
  5
3177
  8
0
 62
    32
 10
24.4761059345057816
 20
5.3158923990266
 30
0.0
  0
VERTEX
  5
3178
  8
0
 62
    32
 10
24.81995900711253
 20
5.0979099281115063
 30
0.0
 42
0.1421976560262116
  0
VERTEX
  5
3179
  8
0
 62
    32
 10
24.9805844592659199
 20
5.0512860598223579
 30
0.0
  0
VERTEX
  5
317A
  8
0
 62
    32
 10
26.4540529011435304
 20
5.051286059822357
 30
0.0
 42
-0.2914734195861033
  0
VERTEX
  5
317B
  8
0
 62
    32
 10
26.7259452372544288
 20
4.8780715383446216
 30
0.0
  0
VERTEX
  5
317C
  8
0
 62
    32
 10
28.1731641421519008
 20
1.774500581299375
 30
0.0
 42
0.2914734195860965
  0
VERTEX
  5
317D
  8
0
 62
    32
 10
28.4450564782617406
 20
1.601286059822314
 30
0.0
  0
VERTEX
  5
317E
  8
0
 62
    32
 10
34.66522309827171
 20
1.6012860598223151
 30
0.0
 42
0.2914734195859998
  0
VERTEX
  5
317F
  8
0
 62
    32
 10
34.9371154343811767
 20
1.7745005812990691
 30
0.0
  0
VERTEX
  5
3180
  8
0
 62
    32
 10
36.3843343392809331
 20
4.8780715383462008
 30
0.0
 42
-0.2914734195862072
  0
VERTEX
  5
3181
  8
0
 62
    32
 10
36.6562266753914798
 20
5.051286059823493
 30
0.0
  0
VERTEX
  5
3182
  8
0
 62
    32
 10
38.1296951172670902
 20
5.0512860598223579
 30
0.0
 42
0.1421976560263467
  0
VERTEX
  5
3183
  8
0
 62
    32
 10
38.290320569418931
 20
5.0979099281109681
 30
0.0
  0
VERTEX
  5
3184
  8
0
 62
    32
 10
38.7361247509678179
 20
5.3805233603585023
 30
0.0
 42
-0.6201356363359612
  0
VERTEX
  5
3185
  8
0
 62
    32
 10
38.1467772811833967
 20
5.6114978860221143
 30
0.0
  0
SEQEND
  5
3186
  8
0
 62
    32
  0
POLYLINE
  5
3015
  8
0
 62
    32
 66
     1
 10
0.0
 20
0.0
 30
0.0
 70
     1
  0
VERTEX
  5
3187
  8
0
 62
    32
 10
25.8996227839907185
 20
1.3956005328755039
 30
0.0
  0
VERTEX
  5
3188
  8
0
 62
    32
 10
25.3585661530163406
 20
2.332738117084272
 30
0.0
 42
0.3700928233966561
  0
VERTEX
  5
3189
  8
0
 62
    32
 10
25.112917041393171
 20
2.419156632103475
 30
0.0
  0
VERTEX
  5
318A
  8
0
 62
    32
 10
23.0294236991735488
 20
1.609491048846166
 30
0.0
  0
VERTEX
  5
318B
  8
0
 62
    32
 10
22.8135022953508795
 20
1.6094910488447871
 30
0.0
 42
-0.4142135623731312
  0
VERTEX
  5
318C
  8
0
 62
    32
 10
22.5135022953509107
 20
1.909491048844778
 30
0.0
  0
VERTEX
  5
318D
  8
0
 62
    32
 10
22.513502295351369
 20
6.0206005837321941
 30
0.0
 42
-0.4142135623740254
  0
VERTEX
  5
318E
  8
0
 62
    32
 10
22.7135022953522991
 20
6.2206005837324483
 30
0.0
  0
VERTEX
  5
318F
  8
0
 62
    32
 10
23.0489880207705191
 20
6.2206005837313461
 30
0.0
  0
VERTEX
  5
3190
  8
0
 62
    32
 10
24.4761059345064602
 20
5.3158923990263212
 30
0.0
 42
0.5630482836081333
  0
VERTEX
  5
3191
  8
0
 62
    32
 10
24.9635022953521002
 20
5.6729619403258731
 30
0.0
  0
VERTEX
  5
3192
  8
0
 62
    32
 10
24.9635022953521002
 20
6.8840643553860543
 30
0.0
 42
0.2568852938753767
  0
VERTEX
  5
3193
  8
0
 62
    32
 10
24.49892052272142
 20
7.7286514271562634
 30
0.0
  0
VERTEX
  5
3194
  8
0
 62
    32
 10
22.4556300160059088
 20
9.0239767022811392
 30
0.0
 42
0.1421976721932193
  0
VERTEX
  5
3195
  8
0
 62
    32
 10
22.2950045477934395
 20
9.0706005807501242
 30
0.0
  0
VERTEX
  5
3196
  8
0
 62
    32
 10
6.1747142241651991
 20
9.0706005806403027
 30
0.0
 42
0.1448793903364343
  0
VERTEX
  5
3197
  8
0
 62
    32
 10
6.7546219517971551
 20
10.9112623988652402
 30
0.0
 42
1.0
  0
VERTEX
  5
3198
  8
0
 62
    32
 10
5.2548504090623354
 20
10.9374410085207501
 30
0.0
 42
-2.355852365823869
  0
VERTEX
  5
3199
  8
0
 62
    32
 10
3.3219802160351359
 20
12.87031120154845
 30
0.0
 42
1.0
  0
VERTEX
  5
319A
  8
0
 62
    32
 10
3.2958016063785318
 20
14.3700827442826302
 30
0.0
 42
0.1448793903361527
  0
VERTEX
  5
319B
  8
0
 62
    32
 10
1.455139788155065
 20
13.7901750166504407
 30
0.0
  0
VERTEX
  5
319C
  8
0
 62
    32
 10
1.4551397882660231
 20
14.3569359257821798
 30
0.0
  0
VERTEX
  5
319D
  8
0
 62
    32
 10
1.4551397882646591
 20
24.5506005807500109
 30
0.0
 42
-0.4142135623729792
  0
VERTEX
  5
319E
  8
0
 62
    32
 10
1.955139788264453
 20
25.0506005807501388
 30
0.0
  0
VERTEX
  5
319F
  8
0
 62
    32
 10
4.5551397882661098
 20
25.0506005807515209
 30
0.0
 42
0.4142135623729368
  0
VERTEX
  5
31A0
  8
0
 62
    32
 10
5.055139788265925
 20
25.550600580751599
 30
0.0
  0
VERTEX
  5
31A1
  8
0
 62
    32
 10
5.055139788265933
 20
27.4106005807493602
 30
0.0
 42
0.6153846153845312
  0
VERTEX
  5
31A2
  8
0
 62
    32
 10
3.7551397882657511
 20
27.4106005807514101
 30
0.0
  0
VERTEX
  5
31A3
  8
0
 62
    32
 10
3.7551397882657511
 20
26.3106005807501298
 30
0.0
  0
VERTEX
  5
31A4
  8
0
 62
    32
 10
2.555139788265925
 20
26.3106005807501298
 30
0.0
  0
VERTEX
  5
31A5
  8
0
 62
    32
 10
2.555139788265933
 20
33.8106005807501333
 30
0.0
  0
VERTEX
  5
31A6
  8
0
 62
    32
 10
3.7551397882657511
 20
33.8106005807501333
 30
0.0
  0
VERTEX
  5
31A7
  8
0
 62
    32
 10
3.7551397882657511
 20
32.7106005807493219
 30
0.0
 42
0.6153846153840778
  0
VERTEX
  5
31A8
  8
0
 62
    32
 10
5.055139788265933
 20
32.7106005807502171
 30
0.0
  0
VERTEX
  5
31A9
  8
0
 62
    32
 10
5.055139788265933
 20
34.5706005807498471
 30
0.0
 42
0.4142135623730956
  0
VERTEX
  5
31AA
  8
0
 62
    32
 10
4.555139788265655
 20
35.0706005807501171
 30
0.0
  0
VERTEX
  5
31AB
  8
0
 62
    32
 10
0.5551397882659188
 20
35.0706005807501171
 30
0.0
 42
0.414213562373099
  0
VERTEX
  5
31AC
  8
0
 62
    32
 10
0.055139788265933
 20
34.5706005807501313
 30
0.0
  0
VERTEX
  5
31AD
  8
0
 62
    32
 10
0.0551397882663949
 20
0.0706005807514885
 30
0.0
  0
VERTEX
  5
31AE
  8
0
 62
    32
 10
4.5551397882666151
 20
0.0706005807514885
 30
0.0
 42
0.4142135623732283
  0
VERTEX
  5
31AF
  8
0
 62
    32
 10
5.0551397882663869
 20
0.5706005807514885
 30
0.0
  0
VERTEX
  5
31B0
  8
0
 62
    32
 10
5.055139788265933
 20
1.5706005807497829
 30
0.0
 42
0.4142135623729619
  0
VERTEX
  5
31B1
  8
0
 62
    32
 10
4.5551397882660458
 20
2.0706005807494421
 30
0.0
  0
VERTEX
  5
31B2
  8
0
 62
    32
 10
2.0551397882663869
 20
2.0706005807494412
 30
0.0
  0
VERTEX
  5
31B3
  8
0
 62
    32
 10
2.055139788265933
 20
6.0706005807501242
 30
0.0
  0
VERTEX
  5
31B4
  8
0
 62
    32
 10
19.6467772811815706
 20
6.0706005807501242
 30
0.0
  0
VERTEX
  5
31B5
  8
0
 62
    32
 10
19.6467772811833896
 20
2.0706005807494421
 30
0.0
  0
VERTEX
  5
31B6
  8
0
 62
    32
 10
17.1467772811814712
 20
2.0706005807494421
 30
0.0
 42
0.414213562372963
  0
VERTEX
  5
31B7
  8
0
 62
    32
 10
16.6467772811815813
 20
1.5706005807497809
 30
0.0
  0
VERTEX
  5
31B8
  8
0
 62
    32
 10
16.6467772811811301
 20
0.5706005807509404
 30
0.0
 42
0.4142135093935941
  0
VERTEX
  5
31B9
  8
0
 62
    32
 10
17.1467771907384687
 20
0.0706005807514858
 30
0.0
  0
VERTEX
  5
31BA
  8
0
 62
    32
 10
22.6751954168931711
 20
0.0705995807502404
 30
0.0
 42
0.0669525176421868
  0
VERTEX
  5
31BB
  8
0
 62
    32
 10
23.600019064764691
 20
0.1949955768219365
 30
0.0
  0
VERTEX
  5
31BC
  8
0
 62
    32
 10
23.875977329101719
 20
0.2706005807501688
 30
0.0
  0
VERTEX
  5
31BD
  8
0
 62
    32
 10
24.1459773291021484
 20
0.0706005807514885
 30
0.0
  0
VERTEX
  5
31BE
  8
0
 62
    32
 10
25.7220103207630295
 20
0.0706005807514885
 30
0.0
 42
0.4318902213004105
  0
VERTEX
  5
31BF
  8
0
 62
    32
 10
25.9216507577657609
 20
0.2825879037700236
 30
0.0
  0
SEQEND
  5
31C0
  8
0
 62
    32
  0
POLYLINE
  5
3016
  8
0
 62
    32
 66
     1
 10
0.0
 20
0.0
 30
0.0
 70
     1
  0
VERTEX
  5
31C1
  8
0
 62
    32
 10
37.751713423517721
 20
2.3327381170841379
 30
0.0
 42
-0.3700928233967116
  0
VERTEX
  5
31C2
  8
0
 62
    32
 10
37.9973625351413133
 20
2.4191566321035132
 30
0.0
  0
VERTEX
  5
31C3
  8
0
 62
    32
 10
40.0459069605294076
 20
1.623072534591653
 30
0.0
 42
0.1979075106072922
  0
VERTEX
  5
31C4
  8
0
 62
    32
 10
40.1982346568070597
 20
1.6261372925964479
 30
0.0
 42
0.5160073444613529
  0
VERTEX
  5
31C5
  8
0
 62
    32
 10
40.5967772811823195
 20
1.909491048845724
 30
0.0
  0
VERTEX
  5
31C6
  8
0
 62
    32
 10
40.5967772811818506
 20
6.020600583732965
 30
0.0
 42
0.4142135623730623
  0
VERTEX
  5
31C7
  8
0
 62
    32
 10
40.3967772811832475
 20
6.220600583731537
 30
0.0
  0
VERTEX
  5
31C8
  8
0
 62
    32
 10
40.1193444579203273
 20
6.220600583731537
 30
0.0
 42
0.1421976560262428
  0
VERTEX
  5
31C9
  8
0
 62
    32
 10
40.0122608231522108
 20
6.1895180048723306
 30
0.0
  0
VERTEX
  5
31CA
  8
0
 62
    32
 10
38.6341736420263189
 20
5.3158923990256408
 30
0.0
  0
VERTEX
  5
31CB
  8
0
 62
    32
 10
38.2903205694185473
 20
5.0979099281107318
 30
0.0
 42
-0.1421976560259728
  0
VERTEX
  5
31CC
  8
0
 62
    32
 10
38.129695117267083
 20
5.0512860598223579
 30
0.0
  0
VERTEX
  5
31CD
  8
0
 62
    32
 10
36.6562266753914798
 20
5.051286059823493
 30
0.0
 42
0.2914734195862074
  0
VERTEX
  5
31CE
  8
0
 62
    32
 10
36.3843343392809331
 20
4.8780715383462008
 30
0.0
  0
VERTEX
  5
31CF
  8
0
 62
    32
 10
34.9371154343811767
 20
1.7745005812990691
 30
0.0
 42
-0.2914734195860004
  0
VERTEX
  5
31D0
  8
0
 62
    32
 10
34.66522309827171
 20
1.601286059822314
 30
0.0
  0
VERTEX
  5
31D1
  8
0
 62
    32
 10
28.4450564782617512
 20
1.601286059822314
 30
0.0
 42
-0.2914734195860999
  0
VERTEX
  5
31D2
  8
0
 62
    32
 10
28.1731641421519008
 20
1.774500581299375
 30
0.0
  0
VERTEX
  5
31D3
  8
0
 62
    32
 10
26.7259452372544288
 20
4.8780715383446216
 30
0.0
 42
0.2914734195861002
  0
VERTEX
  5
31D4
  8
0
 62
    32
 10
26.4540529011435304
 20
5.051286059822357
 30
0.0
  0
VERTEX
  5
31D5
  8
0
 62
    32
 10
24.9805844592659199
 20
5.0512860598223579
 30
0.0
 42
-0.1421976560262117
  0
VERTEX
  5
31D6
  8
0
 62
    32
 10
24.81995900711253
 20
5.0979099281115063
 30
0.0
  0
VERTEX
  5
31D7
  8
0
 62
    32
 10
23.0980187533804191
 20
6.1895180048727134
 30
0.0
 42
0.1421976560253721
  0
VERTEX
  5
31D8
  8
0
 62
    32
 10
22.9909351186142494
 20
6.220600583731537
 30
0.0
  0
VERTEX
  5
31D9
  8
0
 62
    32
 10
22.7135022953522991
 20
6.2206005837324483
 30
0.0
 42
0.4142135623740259
  0
VERTEX
  5
31DA
  8
0
 62
    32
 10
22.513502295351369
 20
6.0206005837321932
 30
0.0
  0
VERTEX
  5
31DB
  8
0
 62
    32
 10
22.5135022953509214
 20
1.909491048844778
 30
0.0
 42
0.5160073444693721
  0
VERTEX
  5
31DC
  8
0
 62
    32
 10
22.9120449197346083
 20
1.6261372925974791
 30
0.0
 42
0.197907510604142
  0
VERTEX
  5
31DD
  8
0
 62
    32
 10
23.0643726160089315
 20
1.623072534593635
 30
0.0
  0
VERTEX
  5
31DE
  8
0
 62
    32
 10
25.1129170413931213
 20
2.4191566321034532
 30
0.0
 42
-0.3700928233967428
  0
VERTEX
  5
31DF
  8
0
 62
    32
 10
25.3585661530163406
 20
2.332738117084272
 30
0.0
  0
VERTEX
  5
31E0
  8
0
 62
    32
 10
25.8996227839907185
 20
1.3956005328755039
 30
0.0
  0
VERTEX
  5
31E1
  8
0
 62
    32
 10
26.5780093150410401
 20
0.2206005819012544
 30
0.0
 42
0.2679491936184997
  0
VERTEX
  5
31E2
  8
0
 62
    32
 10
26.8378169368407811
 20
0.0706005807501251
 30
0.0
  0
VERTEX
  5
31E3
  8
0
 62
    32
 10
36.2724626396926766
 20
0.0706005807501242
 30
0.0
 42
0.2679491936183885
  0
VERTEX
  5
31E4
  8
0
 62
    32
 10
36.5322702614927124
 20
0.2206005819013495
 30
0.0
  0
SEQEND
  5
31E5
  8
0
 62
    32
  0
POLYLINE
  5
3017
  8
0
 62
    32
 66
     1
 10
0.0
 20
0.0
 30
0.0
 70
     1
  0
VERTEX
  5
31E6
  8
0
 62
    32
 10
63.0551397882677378
 20
34.5706005807501171
 30
0.0
 42
0.4142135623731075
  0
VERTEX
  5
31E7
  8
0
 62
    32
 10
62.5551397882677591
 20
35.0706005807501171
 30
0.0
  0
VERTEX
  5
31E8
  8
0
 62
    32
 10
58.5551397885189502
 20
35.0706005807501171
 30
0.0
 42
0.4142135625202675
  0
VERTEX
  5
31E9
  8
0
 62
    32
 10
58.0551397882677378
 20
34.5706005807496481
 30
0.0
  0
VERTEX
  5
31EA
  8
0
 62
    32
 10
58.0551397882686615
 20
32.7106005807493219
 30
0.0
 42
0.6153846153844063
  0
VERTEX
  5
31EB
  8
0
 62
    32
 10
59.355139788267941
 20
32.7106005807493219
 30
0.0
  0
VERTEX
  5
31EC
  8
0
 62
    32
 10
59.355139788267941
 20
33.8106005807501333
 30
0.0
  0
VERTEX
  5
31ED
  8
0
 62
    32
 10
60.5551397882677378
 20
33.8106005807501333
 30
0.0
  0
VERTEX
  5
31EE
  8
0
 62
    32
 10
60.5551397882677378
 20
26.3106005807501298
 30
0.0
  0
VERTEX
  5
31EF
  8
0
 62
    32
 10
59.355139788267941
 20
26.3106005807501298
 30
0.0
  0
VERTEX
  5
31F0
  8
0
 62
    32
 10
59.355139788267941
 20
27.4106005807514101
 30
0.0
 42
0.6153846153835494
  0
VERTEX
  5
31F1
  8
0
 62
    32
 10
58.0551397882677378
 20
27.4106005807493389
 30
0.0
  0
VERTEX
  5
31F2
  8
0
 62
    32
 10
58.0551397882677378
 20
25.550600580751599
 30
0.0
 42
0.41421356237294
  0
VERTEX
  5
31F3
  8
0
 62
    32
 10
58.5551397882675602
 20
25.0506005807515209
 30
0.0
  0
VERTEX
  5
31F4
  8
0
 62
    32
 10
61.1551397882687766
 20
25.0506005807501317
 30
0.0
 42
-0.4142135623729516
  0
VERTEX
  5
31F5
  8
0
 62
    32
 10
61.6551397882685706
 20
24.5506005807500607
 30
0.0
  0
VERTEX
  5
31F6
  8
0
 62
    32
 10
61.6551397882681229
 20
14.3569359257821798
 30
0.0
  0
VERTEX
  5
31F7
  8
0
 62
    32
 10
61.6551397883786123
 20
13.7901750166504407
 30
0.0
 42
0.144879390336159
  0
VERTEX
  5
31F8
  8
0
 62
    32
 10
59.8144779701551172
 20
14.3700827442826196
 30
0.0
 42
1.0
  0
VERTEX
  5
31F9
  8
0
 62
    32
 10
59.7882993604991526
 20
12.8703112015484606
 30
0.0
 42
-2.3558523658243962
  0
VERTEX
  5
31FA
  8
0
 62
    32
 10
57.8554291674708878
 20
10.9374410085206009
 30
0.0
 42
1.0
  0
VERTEX
  5
31FB
  8
0
 62
    32
 10
56.3556576247369634
 20
10.9112623988659596
 30
0.0
 42
0.1448793903364899
  0
VERTEX
  5
31FC
  8
0
 62
    32
 10
56.9355653523680303
 20
9.0706005806403027
 30
0.0
  0
VERTEX
  5
31FD
  8
0
 62
    32
 10
40.8152750287406008
 20
9.0706005807501242
 30
0.0
 42
0.1421976721932472
  0
VERTEX
  5
31FE
  8
0
 62
    32
 10
40.6546495605282914
 20
9.0239767022811748
 30
0.0
  0
VERTEX
  5
31FF
  8
0
 62
    32
 10
38.6113590538137927
 20
7.728651427156648
 30
0.0
 42
0.2568852938753498
  0
VERTEX
  5
3200
  8
0
 62
    32
 10
38.1467772811833967
 20
6.8840643553868679
 30
0.0
  0
VERTEX
  5
3201
  8
0
 62
    32
 10
38.1467772811833967
 20
5.6114978860221942
 30
0.0
 42
0.6201356363295416
  0
VERTEX
  5
3202
  8
0
 62
    32
 10
38.7361247509625173
 20
5.3805233603544886
 30
0.0
  0
VERTEX
  5
3203
  8
0
 62
    32
 10
40.0612915557629918
 20
6.220600583731537
 30
0.0
  0
VERTEX
  5
3204
  8
0
 62
    32
 10
40.3967772811832475
 20
6.220600583731537
 30
0.0
 42
-0.4142135623730629
  0
VERTEX
  5
3205
  8
0
 62
    32
 10
40.5967772811818506
 20
6.020600583732965
 30
0.0
  0
VERTEX
  5
3206
  8
0
 62
    32
 10
40.5967772811823195
 20
1.9094910488457251
 30
0.0
 42
-0.4142135623731286
  0
VERTEX
  5
3207
  8
0
 62
    32
 10
40.2967772811831821
 20
1.6094910488465459
 30
0.0
  0
VERTEX
  5
3208
  8
0
 62
    32
 10
40.0808558773610315
 20
1.6094910488461669
 30
0.0
  0
VERTEX
  5
3209
  8
0
 62
    32
 10
37.9973625351413133
 20
2.4191566321035132
 30
0.0
 42
0.370092823396766
  0
VERTEX
  5
320A
  8
0
 62
    32
 10
37.7517134235176997
 20
2.3327381170841059
 30
0.0
  0
VERTEX
  5
320B
  8
0
 62
    32
 10
37.2106567925438867
 20
1.395600532875503
 30
0.0
  0
VERTEX
  5
320C
  8
0
 62
    32
 10
37.1883108503943731
 20
0.2665218407896628
 30
0.0
 42
0.4082525098557369
  0
VERTEX
  5
320D
  8
0
 62
    32
 10
37.3882692557702683
 20
0.0706005807514902
 30
0.0
  0
VERTEX
  5
320E
  8
0
 62
    32
 10
38.964302247432002
 20
0.0706005807514885
 30
0.0
  0
VERTEX
  5
320F
  8
0
 62
    32
 10
39.2343022474324172
 20
0.2706005807501706
 30
0.0
  0
VERTEX
  5
3210
  8
0
 62
    32
 10
39.5102605117655017
 20
0.1949955768227696
 30
0.0
 42
0.0669525176423983
  0
VERTEX
  5
3211
  8
0
 62
    32
 10
40.4350841596402617
 20
0.0705995807502404
 30
0.0
  0
VERTEX
  5
3212
  8
0
 62
    32
 10
45.9635023857958771
 20
0.0706005807514885
 30
0.0
 42
0.4142135093934604
  0
VERTEX
  5
3213
  8
0
 62
    32
 10
46.4635022953530026
 20
0.5706005807504875
 30
0.0
  0
VERTEX
  5
3214
  8
0
 62
    32
 10
46.4635022953530026
 20
1.5706005807491039
 30
0.0
 42
0.4142135623730951
  0
VERTEX
  5
3215
  8
0
 62
    32
 10
45.9635022953526473
 20
2.0706005807494452
 30
0.0
  0
VERTEX
  5
3216
  8
0
 62
    32
 10
43.4635022953520931
 20
2.0706005807494421
 30
0.0
  0
VERTEX
  5
3217
  8
0
 62
    32
 10
43.4635022953520931
 20
6.0706005807501242
 30
0.0
  0
VERTEX
  5
3218
  8
0
 62
    32
 10
61.0551397882677378
 20
6.0706005807501242
 30
0.0
  0
VERTEX
  5
3219
  8
0
 62
    32
 10
61.0551397882663878
 20
2.0706005807494412
 30
0.0
  0
VERTEX
  5
321A
  8
0
 62
    32
 10
58.5551397882676312
 20
2.0706005807494421
 30
0.0
 42
0.4142135623726956
  0
VERTEX
  5
321B
  8
0
 62
    32
 10
58.0551397882677378
 20
1.570600580750237
 30
0.0
  0
VERTEX
  5
321C
  8
0
 62
    32
 10
58.0551397882663807
 20
0.5706005807519503
 30
0.0
 42
0.4142135623734946
  0
VERTEX
  5
321D
  8
0
 62
    32
 10
58.5551397882661604
 20
0.0706005807514885
 30
0.0
  0
VERTEX
  5
321E
  8
0
 62
    32
 10
63.0551397882663807
 20
0.0706005807514876
 30
0.0
  0
SEQEND
  5
321F
  8
0
 62
    32
  0
VIEWPORT
  5
27EC
 67
     1
  8
0
 62
    32
 10
5.2499996395561652
 20
3.999999883606677
 30
0.0
 40
20.6080548390948586
 41
8.9929997457669462
 68
     1
 69
     1
1001
ACAD
1000
MVIEW
1002
{
1070
    16
1010
0.0
1020
0.0
1030
0.0
1010
0.0
1020
0.0
1030
1.0
1040
0.0
1040
8.9929997457669462
1040
5.2499996395561652
1040
3.999999883606677
1040
50.0
1040
0.0
1040
0.0
1070
     0
1070
  1000
1070
     1
1070
     1
1070
     0
1070
     0
1070
     0
1070
     0
1040
0.0
1040
0.0
1040
0.0
1040
10.0
1040
10.0
1040
10.0
1040
10.0
1070
     0
1002
{
1002
}
1002
}
  0
VIEWPORT
  5
27F0
 67
     1
  8
0
 62
    32
 10
5.24999976158142
 20
3.99999976158142
 30
0.0
 40
8.3999996185302752
 41
6.3999996185302734
 68
     2
 69
     2
1001
ACAD
1000
MVIEW
1002
{
1070
    16
1010
0.0
1020
0.0
1030
0.0
1010
0.0
1020
0.0
1030
1.0
1040
0.0
1040
99.0478918116532725
1040
64.5559585347268552
1040
18.9261625712687191
1040
50.0
1040
0.0
1040
0.0
1070
     0
1070
  1000
1070
     1
1070
     1
1070
     0
1070
     0
1070
     0
1070
     0
1040
0.0
1040
0.0
1040
0.0
1040
10.0
1040
10.0
1040
10.0
1040
10.0
1070
     0
1002
{
1002
}
1002
}
  0
ENDSEC
  0
EOF
