  0
SECTION
  2
HEADER
  9
$ACADVER
  1
AC1009
  9
$INSBASE
 10
0.0
 20
0.0
 30
0.0
  9
$EXTMIN
 10
5.628621895447508
 20
4.5254340767912691
 30
0.0
  9
$EXTMAX
 10
173.0993651166783138
 20
189.2254340766241967
 30
0.0
  9
$LIMMIN
 10
0.0
 20
0.0
  9
$LIMMAX
 10
420.0
 20
297.0
  9
$ORTHOMODE
 70
     0
  9
$REGENMODE
 70
     1
  9
$FILLMODE
 70
     1
  9
$QTEXTMODE
 70
     0
  9
$MIRRTEXT
 70
     0
  9
$DRAGMODE
 70
     2
  9
$LTSCALE
 40
1.0
  9
$OSMODE
 70
   167
  9
$ATTMODE
 70
     1
  9
$TEXTSIZE
 40
2.5
  9
$TRACEWID
 40
1.0
  9
$TEXTSTYLE
  7
STANDARD
  9
$CLAYER
  8
0
  9
$CELTYPE
  6
BYLAYER
  9
$CECOLOR
 62
   256
  9
$DIMSCALE
 40
1.0
  9
$DIMASZ
 40
2.5
  9
$DIMEXO
 40
0.625
  9
$DIMDLI
 40
3.75
  9
$DIMRND
 40
0.0
  9
$DIMDLE
 40
0.0
  9
$DIMEXE
 40
1.25
  9
$DIMTP
 40
0.0
  9
$DIMTM
 40
0.0
  9
$DIMTXT
 40
2.5
  9
$DIMCEN
 40
2.5
  9
$DIMTSZ
 40
0.0
  9
$DIMTOL
 70
     0
  9
$DIMLIM
 70
     0
  9
$DIMTIH
 70
     0
  9
$DIMTOH
 70
     0
  9
$DIMSE1
 70
     0
  9
$DIMSE2
 70
     0
  9
$DIMTAD
 70
     1
  9
$DIMZIN
 70
     8
  9
$DIMBLK
  1

  9
$DIMASO
 70
     1
  9
$DIMSHO
 70
     1
  9
$DIMPOST
  1

  9
$DIMAPOST
  1

  9
$DIMALT
 70
     0
  9
$DIMALTD
 70
     3
  9
$DIMALTF
 40
0.03937007874016
  9
$DIMLFAC
 40
1.0
  9
$DIMTOFL
 70
     1
  9
$DIMTVP
 40
0.0
  9
$DIMTIX
 70
     0
  9
$DIMSOXD
 70
     0
  9
$DIMSAH
 70
     0
  9
$DIMBLK1
  1

  9
$DIMBLK2
  1

  9
$DIMSTYLE
  2
ISO-25
  9
$DIMCLRD
 70
     0
  9
$DIMCLRE
 70
     0
  9
$DIMCLRT
 70
     0
  9
$DIMTFAC
 40
1.0
  9
$DIMGAP
 40
0.625
  9
$LUNITS
 70
     2
  9
$LUPREC
 70
     4
  9
$SKETCHINC
 40
1.0
  9
$FILLETRAD
 40
0.0
  9
$AUNITS
 70
     0
  9
$AUPREC
 70
     0
  9
$MENU
  1
.
  9
$ELEVATION
 40
0.0
  9
$PELEVATION
 40
0.0
  9
$THICKNESS
 40
0.0
  9
$LIMCHECK
 70
     0
  9
$BLIPMODE
 70
     0
  9
$CHAMFERA
 40
0.0
  9
$CHAMFERB
 40
0.0
  9
$SKPOLY
 70
     0
  9
$TDCREATE
 40
2458873.580196759197861
  9
$TDUPDATE
 40
2458873.5806597229093313
  9
$TDINDWG
 40
0.000462963
  9
$TDUSRTIMER
 40
0.000462963
  9
$USRTIMER
 70
     1
  9
$ANGBASE
 50
0.0
  9
$ANGDIR
 70
     0
  9
$PDMODE
 70
     0
  9
$PDSIZE
 40
0.0
  9
$PLINEWID
 40
0.0
  9
$COORDS
 70
     1
  9
$SPLFRAME
 70
     0
  9
$SPLINETYPE
 70
     6
  9
$SPLINESEGS
 70
     8
  9
$ATTDIA
 70
     1
  9
$ATTREQ
 70
     1
  9
$HANDLING
 70
     1
  9
$HANDSEED
  5
8B0
  9
$SURFTAB1
 70
     6
  9
$SURFTAB2
 70
     6
  9
$SURFTYPE
 70
     6
  9
$SURFU
 70
     6
  9
$SURFV
 70
     6
  9
$UCSNAME
  2

  9
$UCSORG
 10
0.0
 20
0.0
 30
0.0
  9
$UCSXDIR
 10
1.0
 20
0.0
 30
0.0
  9
$UCSYDIR
 10
0.0
 20
1.0
 30
0.0
  9
$PUCSNAME
  2

  9
$PUCSORG
 10
0.0
 20
0.0
 30
0.0
  9
$PUCSXDIR
 10
1.0
 20
0.0
 30
0.0
  9
$PUCSYDIR
 10
0.0
 20
1.0
 30
0.0
  9
$USERI1
 70
     0
  9
$USERI2
 70
     0
  9
$USERI3
 70
     0
  9
$USERI4
 70
     0
  9
$USERI5
 70
     0
  9
$USERR1
 40
0.0
  9
$USERR2
 40
0.0
  9
$USERR3
 40
0.0
  9
$USERR4
 40
0.0
  9
$USERR5
 40
0.0
  9
$WORLDVIEW
 70
     1
  9
$SHADEDGE
 70
     3
  9
$SHADEDIF
 70
    70
  9
$TILEMODE
 70
     1
  9
$MAXACTVP
 70
    64
  9
$PLIMCHECK
 70
     0
  9
$PEXTMIN
 10
0.0
 20
0.0
 30
0.0
  9
$PEXTMAX
 10
0.0
 20
0.0
 30
0.0
  9
$PLIMMIN
 10
0.0
 20
0.0
  9
$PLIMMAX
 10
12.0
 20
9.0
  9
$UNITMODE
 70
     0
  9
$VISRETAIN
 70
     1
  9
$PLINEGEN
 70
     0
  9
$PSLTSCALE
 70
     1
  0
ENDSEC
  0
SECTION
  2
TABLES
  0
TABLE
  2
VPORT
 70
     1
  0
VPORT
  2
*ACTIVE
 70
     0
 10
0.0
 20
0.0
 11
1.0
 21
1.0
 12
213.783776014321603
 22
108.2219479079485041
 13
0.0
 23
0.0
 14
10.0
 24
10.0
 15
10.0
 25
10.0
 16
0.0
 26
0.0
 36
1.0
 17
0.0
 27
0.0
 37
0.0
 40
258.0975306126013038
 41
2.29156626506024
 42
50.0
 43
0.0
 44
0.0
 50
0.0
 51
0.0
 71
     0
 72
  1000
 73
     1
 74
     3
 75
     0
 76
     1
 77
     0
 78
     0
  0
ENDTAB
  0
TABLE
  2
LTYPE
 70
     1
  0
LTYPE
  2
CONTINUOUS
 70
     0
  3
Solid line
 72
    65
 73
     0
 40
0.0
  0
ENDTAB
  0
TABLE
  2
LAYER
 70
     1
  0
LAYER
  2
0
 70
     0
 62
     7
  6
CONTINUOUS
  0
ENDTAB
  0
TABLE
  2
STYLE
 70
     2
  0
STYLE
  2
STANDARD
 70
     0
 40
0.0
 41
1.0
 50
0.0
 71
     0
 42
2.5
  3
txt
  4

  0
ENDTAB
  0
TABLE
  2
VIEW
 70
     0
  0
ENDTAB
  0
TABLE
  2
UCS
 70
     0
  0
ENDTAB
  0
TABLE
  2
APPID
 70
     8
  0
APPID
  2
ACAD
 70
     0
  0
APPID
  2
ACAD_PSEXT
 70
     0
  0
APPID
  2
ACADANNOPO
 70
     0
  0
APPID
  2
ACADANNOTATIVE
 70
     0
  0
APPID
  2
ACAD_DSTYLE_DIMJAG
 70
     0
  0
APPID
  2
ACAD_DSTYLE_DIMTALN
 70
     0
  0
APPID
  2
ACAD_MLEADERVER
 70
     0
  0
APPID
  2
ACAD_NAV_VCDISPLAY
 70
     0
  0
ENDTAB
  0
TABLE
  2
DIMSTYLE
 70
     3
  0
DIMSTYLE
  2
STANDARD
 70
     0
  3

  4

  5

  6

  7

 40
1.0
 41
0.18
 42
0.0625
 43
0.38
 44
0.18
 45
0.0
 46
0.0
 47
0.0
 48
0.0
140
0.18
141
0.09
142
0.0
143
25.3999999999999986
144
1.0
145
0.0
146
1.0
147
0.09
 71
     0
 72
     0
 73
     1
 74
     1
 75
     0
 76
     0
 77
     0
 78
     0
170
     0
171
     2
172
     0
173
     0
174
     0
175
     0
176
     0
177
     0
178
     0
  0
DIMSTYLE
  2
ISO-25
 70
     0
  3

  4

  5

  6

  7

 40
1.0
 41
2.5
 42
0.625
 43
3.75
 44
1.25
 45
0.0
 46
0.0
 47
0.0
 48
0.0
140
2.5
141
2.5
142
0.0
143
0.03937007874016
144
1.0
145
0.0
146
1.0
147
0.625
 71
     0
 72
     0
 73
     0
 74
     0
 75
     0
 76
     0
 77
     1
 78
     8
170
     0
171
     3
172
     1
173
     0
174
     0
175
     0
176
     0
177
     0
178
     0
  0
ENDTAB
  0
ENDSEC
  0
SECTION
  2
BLOCKS
  0
BLOCK
  8
0
  2
$MODEL_SPACE
 70
     0
 10
0.0
 20
0.0
 30
0.0
  3
$MODEL_SPACE
  1

  0
ENDBLK
  5
21
  8
0
  0
BLOCK
 67
     1
  8
0
  2
$PAPER_SPACE
 70
     0
 10
0.0
 20
0.0
 30
0.0
  3
$PAPER_SPACE
  1

  0
ENDBLK
  5
D5
 67
     1
  8
0
  0
ENDSEC
  0
SECTION
  2
ENTITIES
  0
POLYLINE
  5
299
  8
0
 66
     1
 10
0.0
 20
0.0
 30
0.0
 70
     1
  0
VERTEX
  5
5E0
  8
0
 10
151.6286218954473952
 20
89.2212131178723666
 30
0.0
  0
VERTEX
  5
5E1
  8
0
 10
116.1286218954473952
 20
89.2212131178732761
 30
0.0
  0
VERTEX
  5
5E2
  8
0
 10
116.1286218954473952
 20
61.5212131178738986
 30
0.0
  0
VERTEX
  5
5E3
  8
0
 10
150.6286218954473952
 20
61.5212131178738986
 30
0.0
  0
VERTEX
  5
5E4
  8
0
 10
150.6286218954473952
 20
63.5212131178738986
 30
0.0
  0
VERTEX
  5
5E5
  8
0
 10
151.6286218954473952
 20
63.5212131178738986
 30
0.0
  0
SEQEND
  5
5E6
  8
0
  0
POLYLINE
  5
29A
  8
0
 66
     1
 10
0.0
 20
0.0
 30
0.0
 70
     1
  0
VERTEX
  5
5E7
  8
0
 10
114.1286218954473952
 20
89.221213117871244
 30
0.0
  0
VERTEX
  5
5E8
  8
0
 10
80.6286218954474947
 20
89.221213117871244
 30
0.0
  0
VERTEX
  5
5E9
  8
0
 10
80.6286218954474947
 20
73.0212131178723212
 30
0.0
  0
VERTEX
  5
5EA
  8
0
 10
73.0286218954489641
 20
73.0212131178723212
 30
0.0
  0
VERTEX
  5
5EB
  8
0
 10
73.0286218954489641
 20
63.5212131178732307
 30
0.0
  0
VERTEX
  5
5EC
  8
0
 10
74.0286218954489641
 20
63.5212131178732307
 30
0.0
  0
VERTEX
  5
5ED
  8
0
 10
74.0286218954489641
 20
61.5254340767912709
 30
0.0
  0
VERTEX
  5
5EE
  8
0
 10
81.0993651166783138
 20
61.5254340767912709
 30
0.0
 42
-0.4142135623730904
  0
VERTEX
  5
5EF
  8
0
 10
85.0993651166783138
 20
57.5254340767912709
 30
0.0
  0
VERTEX
  5
5F0
  8
0
 10
85.0993651166783138
 20
32.5254340767912709
 30
0.0
 42
0.4142135623730951
  0
VERTEX
  5
5F1
  8
0
 10
87.0993651166783138
 20
30.5254340767912709
 30
0.0
  0
VERTEX
  5
5F2
  8
0
 10
108.3786218954473952
 20
30.5254340767912709
 30
0.0
  0
VERTEX
  5
5F3
  8
0
 10
108.3786218954473952
 20
61.5212131178738986
 30
0.0
  0
VERTEX
  5
5F4
  8
0
 10
113.1286218954484042
 20
61.5212131178738986
 30
0.0
  0
VERTEX
  5
5F5
  8
0
 10
113.1286218954484042
 20
63.5212131178754902
 30
0.0
  0
VERTEX
  5
5F6
  8
0
 10
114.1286218954473952
 20
63.5212131178754902
 30
0.0
  0
SEQEND
  5
5F7
  8
0
  0
POLYLINE
  5
29B
  8
0
 66
     1
 10
0.0
 20
0.0
 30
0.0
 70
     1
  0
VERTEX
  5
5F8
  8
0
 10
71.0286218954489783
 20
75.7712131178732307
 30
0.0
  0
VERTEX
  5
5F9
  8
0
 10
73.0286218954489641
 20
75.7712131178732307
 30
0.0
  0
VERTEX
  5
5FA
  8
0
 10
73.0286218954489641
 20
75.0212131178723212
 30
0.0
  0
VERTEX
  5
5FB
  8
0
 10
73.9286218954472218
 20
75.0212131178732307
 30
0.0
 42
-0.4142135623731926
  0
VERTEX
  5
5FC
  8
0
 10
73.6286218954475089
 20
75.3212131178734126
 30
0.0
  0
VERTEX
  5
5FD
  8
0
 10
73.6286218954475089
 20
75.7212131178732335
 30
0.0
 42
0.4142135623730951
  0
VERTEX
  5
5FE
  8
0
 10
73.3286218954473412
 20
76.0212131178732307
 30
0.0
  0
VERTEX
  5
5FF
  8
0
 10
62.8286218954582409
 20
76.0212131178732307
 30
0.0
 42
0.4142135623730951
  0
VERTEX
  5
600
  8
0
 10
62.3286218954591433
 20
75.5212131178732307
 30
0.0
  0
VERTEX
  5
601
  8
0
 10
62.3286218954591433
 20
61.7712131178732307
 30
0.0
 42
-0.3612867611959036
  0
VERTEX
  5
602
  8
0
 10
62.124367528746113
 20
61.5254340767912709
 30
0.0
  0
VERTEX
  5
603
  8
0
 10
71.0286218954489783
 20
61.5254340767912709
 30
0.0
  0
SEQEND
  5
604
  8
0
  0
POLYLINE
  5
29C
  8
0
 66
     1
 10
0.0
 20
0.0
 30
0.0
 70
     1
  0
VERTEX
  5
605
  8
0
 10
59.8286218954441296
 20
67.5212131178739128
 30
0.0
 42
0.4142135623723542
  0
VERTEX
  5
606
  8
0
 10
59.3286218954441367
 20
68.0212131178732307
 30
0.0
  0
VERTEX
  5
607
  8
0
 10
49.1286218954475018
 20
68.0212131178732307
 30
0.0
 42
0.4142135623730951
  0
VERTEX
  5
608
  8
0
 10
48.6286218954475018
 20
67.5212131178732307
 30
0.0
  0
VERTEX
  5
609
  8
0
 10
48.6286218954475018
 20
61.7712131178732307
 30
0.0
 42
-0.3612867611947468
  0
VERTEX
  5
60A
  8
0
 10
48.4243675287358428
 20
61.5254340767912709
 30
0.0
  0
VERTEX
  5
60B
  8
0
 10
60.0328762621708094
 20
61.5254340767912709
 30
0.0
 42
-0.361286761195023
  0
VERTEX
  5
60C
  8
0
 10
59.8286218954582623
 20
61.7712131178723212
 30
0.0
  0
SEQEND
  5
60D
  8
0
  0
POLYLINE
  5
29D
  8
0
 66
     1
 10
0.0
 20
0.0
 30
0.0
 70
     1
  0
VERTEX
  5
60E
  8
0
 10
45.6286218954475018
 20
67.5212131178732307
 30
0.0
 42
0.4142135623730951
  0
VERTEX
  5
60F
  8
0
 10
45.1286218954475018
 20
68.0212131178732307
 30
0.0
  0
VERTEX
  5
610
  8
0
 10
34.9286218954504193
 20
68.0212131178732307
 30
0.0
 42
0.4142135623730951
  0
VERTEX
  5
611
  8
0
 10
34.4286218954504193
 20
67.5212131178732307
 30
0.0
  0
VERTEX
  5
612
  8
0
 10
34.4286218954504193
 20
61.7712131178732307
 30
0.0
 42
-0.3612867611935338
  0
VERTEX
  5
613
  8
0
 10
34.2243675287387603
 20
61.525434076792628
 30
0.0
  0
VERTEX
  5
614
  8
0
 10
45.8328762621591608
 20
61.5254340767912709
 30
0.0
 42
-0.3612867611945117
  0
VERTEX
  5
615
  8
0
 10
45.6286218954475018
 20
61.7712131178732307
 30
0.0
  0
SEQEND
  5
616
  8
0
  0
POLYLINE
  5
29E
  8
0
 66
     1
 10
0.0
 20
0.0
 30
0.0
 70
     1
  0
VERTEX
  5
617
  8
0
 10
31.9286218954504193
 20
75.5212131178732307
 30
0.0
 42
0.4142135623730371
  0
VERTEX
  5
618
  8
0
 10
31.4286218954504193
 20
76.0212131178732307
 30
0.0
  0
VERTEX
  5
619
  8
0
 10
13.0993651166782996
 20
76.0233235973259838
 30
0.0
  0
VERTEX
  5
61A
  8
0
 10
13.0993651166782996
 20
63.525434076792628
 30
0.0
 42
0.4142135623730911
  0
VERTEX
  5
61B
  8
0
 10
15.0993651166782996
 20
61.525434076792628
 30
0.0
  0
VERTEX
  5
61C
  8
0
 10
32.1328762621598116
 20
61.525434076792628
 30
0.0
 42
-0.3612867611933629
  0
VERTEX
  5
61D
  8
0
 10
31.9286218954504193
 20
61.7712131178732307
 30
0.0
  0
SEQEND
  5
61E
  8
0
  0
POLYLINE
  5
29F
  8
0
 66
     1
 10
0.0
 20
0.0
 30
0.0
 70
     1
  0
VERTEX
  5
61F
  8
0
 10
18.2992970302285585
 20
90.1212131178733529
 30
0.0
  0
VERTEX
  5
620
  8
0
 10
19.1286218954474982
 20
90.1212131178733529
 30
0.0
  0
VERTEX
  5
621
  8
0
 10
19.1286218954474982
 20
90.2212131178732619
 30
0.0
 42
0.4142135623731369
  0
VERTEX
  5
622
  8
0
 10
18.8286218954473306
 20
90.5212131178738986
 30
0.0
  0
VERTEX
  5
623
  8
0
 10
18.1286218954588811
 20
90.5212131178738986
 30
0.0
 42
0.4142135623731161
  0
VERTEX
  5
624
  8
0
 10
17.8286218954591398
 20
90.2212131178732619
 30
0.0
  0
VERTEX
  5
625
  8
0
 10
17.8286218954591398
 20
83.3212131178738531
 30
0.0
 42
0.4142135623730815
  0
VERTEX
  5
626
  8
0
 10
18.1286218954588811
 20
83.0212131178732164
 30
0.0
  0
VERTEX
  5
627
  8
0
 10
18.8286218954473306
 20
83.0212131178732164
 30
0.0
 42
0.4142135623730951
  0
VERTEX
  5
628
  8
0
 10
19.1286218954474982
 20
83.3212131178738531
 30
0.0
  0
VERTEX
  5
629
  8
0
 10
19.1286218954474982
 20
83.4212131178740037
 30
0.0
  0
VERTEX
  5
62A
  8
0
 10
18.2992970302285585
 20
83.4212131178740037
 30
0.0
  0
SEQEND
  5
62B
  8
0
  0
POLYLINE
  5
2A0
  8
0
 66
     1
 10
0.0
 20
0.0
 30
0.0
 70
     1
  0
VERTEX
  5
62C
  8
0
 10
64.4767646795363447
 20
91.0224783919320402
 30
0.0
  0
VERTEX
  5
62D
  8
0
 10
63.7886927282662626
 20
91.0224783919320402
 30
0.0
  0
VERTEX
  5
62E
  8
0
 10
63.7886927282662626
 20
93.6283897616440441
 30
0.0
  0
VERTEX
  5
62F
  8
0
 10
66.4685510626278528
 20
93.6283897616440441
 30
0.0
  0
VERTEX
  5
630
  8
0
 10
66.4685510626278528
 20
91.0224783919320402
 30
0.0
  0
VERTEX
  5
631
  8
0
 10
65.7804791113581757
 20
91.0224783919320402
 30
0.0
  0
VERTEX
  5
632
  8
0
 10
65.7804791113581757
 20
78.5212131178732307
 30
0.0
  0
VERTEX
  5
633
  8
0
 10
67.4286218954504193
 20
78.5212131178732307
 30
0.0
  0
VERTEX
  5
634
  8
0
 10
67.4286218954504193
 20
83.5254340767942125
 30
0.0
 42
-0.4142135623750304
  0
VERTEX
  5
635
  8
0
 10
67.1286218954474947
 20
83.8254340767953181
 30
0.0
  0
VERTEX
  5
636
  8
0
 10
67.1286218954502374
 20
88.8254340767944228
 30
0.0
 42
0.4142135623728663
  0
VERTEX
  5
637
  8
0
 10
66.928621895450874
 20
89.0254340767942267
 30
0.0
  0
VERTEX
  5
638
  8
0
 10
66.7536218954502232
 20
89.0254340767942267
 30
0.0
 42
-0.9667558504634794
  0
VERTEX
  5
639
  8
0
 10
66.7114005029749251
 20
90.2740063292371815
 30
0.0
 42
0.3653113328633426
  0
VERTEX
  5
63A
  8
0
 10
66.8968462377953301
 20
90.4531465308582341
 30
0.0
  0
VERTEX
  5
63B
  8
0
 10
67.0684485544780955
 20
92.1265056149895969
 30
0.0
 42
1.107794065927554
  0
VERTEX
  5
63C
  8
0
 10
63.1887952364182794
 20
92.126505614995267
 30
0.0
  0
VERTEX
  5
63D
  8
0
 10
63.3603975530964902
 20
90.4531465308643448
 30
0.0
 42
0.3653113328647652
  0
VERTEX
  5
63E
  8
0
 10
63.5458432879219117
 20
90.2740063292385457
 30
0.0
 42
-0.9667558504700958
  0
VERTEX
  5
63F
  8
0
 10
63.5036218954475018
 20
89.0254340767942267
 30
0.0
  0
VERTEX
  5
640
  8
0
 10
61.9286218954481527
 20
89.0254340767942267
 30
0.0
 42
-0.4142135623730951
  0
VERTEX
  5
641
  8
0
 10
61.6286218954475018
 20
89.3254340767953039
 30
0.0
  0
VERTEX
  5
642
  8
0
 10
61.6286218954475018
 20
93.9886965465466346
 30
0.0
 42
0.4142135623740315
  0
VERTEX
  5
643
  8
0
 10
61.3286218954464175
 20
94.275434076793303
 30
0.0
  0
VERTEX
  5
644
  8
0
 10
59.1286218954493421
 20
94.275434076793303
 30
0.0
  0
VERTEX
  5
645
  8
0
 10
59.1286218954493421
 20
74.2712131178738986
 30
0.0
  0
VERTEX
  5
646
  8
0
 10
51.1286218954493421
 20
74.2712131178738986
 30
0.0
  0
VERTEX
  5
647
  8
0
 10
51.1286218954493421
 20
78.2712131178738986
 30
0.0
  0
VERTEX
  5
648
  8
0
 10
48.1593983018543526
 20
78.2712131178738986
 30
0.0
 42
-0.2259663871192425
  0
VERTEX
  5
649
  8
0
 10
49.3310602063989876
 20
76.7313929593194501
 30
0.0
  0
VERTEX
  5
64A
  8
0
 10
50.5455181268622411
 20
70.9189509308803281
 30
0.0
 42
0.3550928276014522
  0
VERTEX
  5
64B
  8
0
 10
51.0349488626212704
 20
70.5212131178732307
 30
0.0
  0
VERTEX
  5
64C
  8
0
 10
54.5786218954582409
 20
70.5212131178732307
 30
0.0
  0
VERTEX
  5
64D
  8
0
 10
55.0786218954591504
 20
70.0212131178732307
 30
0.0
  0
VERTEX
  5
64E
  8
0
 10
55.5786218954591504
 20
70.5212131178732307
 30
0.0
  0
VERTEX
  5
64F
  8
0
 10
59.3286218954582409
 20
70.5212131178732307
 30
0.0
 42
0.4142135623730951
  0
VERTEX
  5
650
  8
0
 10
59.8286218954582623
 20
71.0212131178732307
 30
0.0
  0
VERTEX
  5
651
  8
0
 10
59.8286218954582623
 20
78.2712131178732307
 30
0.0
 42
-0.4142135623730951
  0
VERTEX
  5
652
  8
0
 10
60.0786218954582409
 20
78.5212131178732307
 30
0.0
  0
VERTEX
  5
653
  8
0
 10
64.4767646795363447
 20
78.5212131178732307
 30
0.0
  0
SEQEND
  5
654
  8
0
  0
POLYLINE
  5
2A1
  8
0
 66
     1
 10
0.0
 20
0.0
 30
0.0
 70
     1
  0
VERTEX
  5
655
  8
0
 10
35.1286218954493421
 20
94.275434076793303
 30
0.0
  0
VERTEX
  5
656
  8
0
 10
32.9153594256941915
 20
94.275434076793303
 30
0.0
 42
0.4142135623724846
  0
VERTEX
  5
657
  8
0
 10
32.6286218954475018
 20
93.9754340767919842
 30
0.0
  0
VERTEX
  5
658
  8
0
 10
32.6286218954475018
 20
89.3254340767953039
 30
0.0
 42
-0.4142135623730951
  0
VERTEX
  5
659
  8
0
 10
32.3286218954464175
 20
89.0254340767942267
 30
0.0
  0
VERTEX
  5
65A
  8
0
 10
30.7536218954474982
 20
89.0254340767942267
 30
0.0
 42
-0.9667558504702423
  0
VERTEX
  5
65B
  8
0
 10
30.7114005029735715
 20
90.2740063292385457
 30
0.0
 42
0.3653113328647652
  0
VERTEX
  5
65C
  8
0
 10
30.8968462377980586
 20
90.4531465308643448
 30
0.0
  0
VERTEX
  5
65D
  8
0
 10
31.0684485544762801
 20
92.126505614995267
 30
0.0
 42
1.107794065927554
  0
VERTEX
  5
65E
  8
0
 10
27.1887952364173806
 20
92.1265056149895969
 30
0.0
  0
VERTEX
  5
65F
  8
0
 10
27.3603975531006007
 20
90.4531465308582341
 30
0.0
 42
0.3653113328630873
  0
VERTEX
  5
660
  8
0
 10
27.5458432879187285
 20
90.2740063292371815
 30
0.0
 42
-0.9667558504685647
  0
VERTEX
  5
661
  8
0
 10
27.5036218954447911
 20
89.0254340767942267
 30
0.0
  0
VERTEX
  5
662
  8
0
 10
27.3286218954450604
 20
89.0254340767942267
 30
0.0
 42
0.4142135623728766
  0
VERTEX
  5
663
  8
0
 10
27.1286218954447911
 20
88.8254340767944228
 30
0.0
  0
VERTEX
  5
664
  8
0
 10
27.1286218954475089
 20
83.8254340767953181
 30
0.0
 42
-0.4142135623732476
  0
VERTEX
  5
665
  8
0
 10
26.8286218954464211
 20
83.5254340767942125
 30
0.0
  0
VERTEX
  5
666
  8
0
 10
25.4286218954504193
 20
83.5254340767942125
 30
0.0
 42
-0.4142135623730879
  0
VERTEX
  5
667
  8
0
 10
25.1286218954502409
 20
83.8254340767944228
 30
0.0
  0
VERTEX
  5
668
  8
0
 10
25.1286218954502409
 20
85.0212131178732307
 30
0.0
  0
VERTEX
  5
669
  8
0
 10
19.1286218954474982
 20
85.0212131178732307
 30
0.0
  0
VERTEX
  5
66A
  8
0
 10
19.1286218954474982
 20
83.7712131178732307
 30
0.0
 42
-1.0
  0
VERTEX
  5
66B
  8
0
 10
20.1286218954484184
 20
83.7712131178732307
 30
0.0
  0
VERTEX
  5
66C
  8
0
 10
20.1286218954475089
 20
82.0212131178738986
 30
0.0
 42
-0.414213562373026
  0
VERTEX
  5
66D
  8
0
 10
19.8286218954473199
 20
81.7212131178746546
 30
0.0
  0
VERTEX
  5
66E
  8
0
 10
16.6286218954493314
 20
81.7212131178746546
 30
0.0
  0
VERTEX
  5
66F
  8
0
 10
13.0993651166782996
 20
79.5924954279951038
 30
0.0
  0
VERTEX
  5
670
  8
0
 10
13.0993651166782996
 20
78.5212131178732307
 30
0.0
  0
VERTEX
  5
671
  8
0
 10
28.4767646795363589
 20
78.5212131178732307
 30
0.0
  0
VERTEX
  5
672
  8
0
 10
28.4767646795363589
 20
91.0224783919320402
 30
0.0
  0
VERTEX
  5
673
  8
0
 10
27.788692728266259
 20
91.0224783919320402
 30
0.0
  0
VERTEX
  5
674
  8
0
 10
27.788692728266259
 20
93.6283897616440441
 30
0.0
  0
VERTEX
  5
675
  8
0
 10
30.4685510626278599
 20
93.6283897616440441
 30
0.0
  0
VERTEX
  5
676
  8
0
 10
30.4685510626278599
 20
91.0224783919320402
 30
0.0
  0
VERTEX
  5
677
  8
0
 10
29.7804791113582112
 20
91.0224783919320402
 30
0.0
  0
VERTEX
  5
678
  8
0
 10
29.7804791113582112
 20
78.5212131178732307
 30
0.0
  0
VERTEX
  5
679
  8
0
 10
33.9286218954504193
 20
78.5212131178732307
 30
0.0
 42
-0.4142135623730951
  0
VERTEX
  5
67A
  8
0
 10
34.4286218954504193
 20
78.0212131178732307
 30
0.0
  0
VERTEX
  5
67B
  8
0
 10
34.4286218954504193
 20
71.0212131178732307
 30
0.0
 42
0.4142135623730951
  0
VERTEX
  5
67C
  8
0
 10
34.9286218954504193
 20
70.5212131178732307
 30
0.0
  0
VERTEX
  5
67D
  8
0
 10
38.6786218954504193
 20
70.5212131178732307
 30
0.0
  0
VERTEX
  5
67E
  8
0
 10
39.1786218954490479
 20
70.0212131178732307
 30
0.0
  0
VERTEX
  5
67F
  8
0
 10
39.6786218954504193
 20
70.5212131178732307
 30
0.0
  0
VERTEX
  5
680
  8
0
 10
43.222294928278302
 20
70.5212131178732307
 30
0.0
 42
0.3550928276014365
  0
VERTEX
  5
681
  8
0
 10
43.7117256640482168
 20
70.9189509308880588
 30
0.0
  0
VERTEX
  5
682
  8
0
 10
44.9261835845096371
 20
76.7313929593194501
 30
0.0
 42
-0.2259663871192068
  0
VERTEX
  5
683
  8
0
 10
46.0978454890547482
 20
78.2712131178738986
 30
0.0
  0
VERTEX
  5
684
  8
0
 10
43.1286218954493279
 20
78.2712131178738986
 30
0.0
  0
VERTEX
  5
685
  8
0
 10
43.1286218954493279
 20
74.2712131178738986
 30
0.0
  0
VERTEX
  5
686
  8
0
 10
35.1286218954493421
 20
74.2712131178738986
 30
0.0
  0
SEQEND
  5
687
  8
0
  0
POLYLINE
  5
2A2
  8
0
 66
     1
 10
0.0
 20
0.0
 30
0.0
 70
     1
  0
VERTEX
  5
688
  8
0
 10
67.1286218954474947
 20
159.025434076794113
 30
0.0
 42
0.4142135623730951
  0
VERTEX
  5
689
  8
0
 10
66.6286218954484184
 20
159.5254340767941983
 30
0.0
 42
0.4188114577205705
  0
VERTEX
  5
68A
  8
0
 10
66.0492881813562462
 20
159.1104540214404892
 30
0.0
 42
-0.1404564805069285
  0
VERTEX
  5
68B
  8
0
 10
65.386209892341526
 20
157.6265405999814107
 30
0.0
 42
-1.0
  0
VERTEX
  5
68C
  8
0
 10
64.2382837922219636
 20
158.5920796559881865
 30
0.0
 42
2.1478203655790362
  0
VERTEX
  5
68D
  8
0
 10
62.0189599986703328
 20
158.5920796559875043
 30
0.0
 42
-1.0
  0
VERTEX
  5
68E
  8
0
 10
60.8710338985584869
 20
157.6265405999793074
 30
0.0
 42
-0.1393603343394231
  0
VERTEX
  5
68F
  8
0
 10
60.2097671936118104
 20
159.0978978449080898
 30
0.0
 42
0.3722290659459955
  0
VERTEX
  5
690
  8
0
 10
59.7150460577091735
 20
159.5254340767941983
 30
0.0
 42
0.470690279720859
  0
VERTEX
  5
691
  8
0
 10
59.1286218954475018
 20
159.025434076794113
 30
0.0
  0
VERTEX
  5
692
  8
0
 10
59.1286218954475018
 20
155.6254340767931126
 30
0.0
 42
-0.4142135669510018
  0
VERTEX
  5
693
  8
0
 10
58.8298402699939516
 20
155.3254340767942949
 30
0.0
  0
VERTEX
  5
694
  8
0
 10
56.6047102392623174
 20
155.3254340767942949
 30
0.0
  0
VERTEX
  5
695
  8
0
 10
54.1076122636073791
 20
156.8496691909901131
 30
0.0
 42
-0.261412576423812
  0
VERTEX
  5
696
  8
0
 10
53.6286218954475018
 20
157.70321998826401
 30
0.0
  0
VERTEX
  5
697
  8
0
 10
53.6286218954475018
 20
159.664988713744691
 30
0.0
  0
VERTEX
  5
698
  8
0
 10
52.2297087825701283
 20
159.664988713744691
 30
0.0
 42
-0.2914734195861597
  0
VERTEX
  5
699
  8
0
 10
51.9578164464593328
 20
159.8382032352232045
 30
0.0
  0
VERTEX
  5
69A
  8
0
 10
50.5105975415627881
 20
162.9417741922682126
 30
0.0
 42
0.2914734195861651
  0
VERTEX
  5
69B
  8
0
 10
50.2387052054537904
 20
163.1149887137451913
 30
0.0
  0
VERTEX
  5
69C
  8
0
 10
44.0185385854416609
 20
163.1149887137451913
 30
0.0
 42
0.2914734195861779
  0
VERTEX
  5
69D
  8
0
 10
43.7466462493308512
 20
162.9417741922682126
 30
0.0
  0
VERTEX
  5
69E
  8
0
 10
42.2994273444365874
 20
159.8382032352232045
 30
0.0
 42
-0.2914734195861615
  0
VERTEX
  5
69F
  8
0
 10
42.0275350083239729
 20
159.664988713744691
 30
0.0
  0
VERTEX
  5
6A0
  8
0
 10
40.6286218954475018
 20
159.664988713744691
 30
0.0
  0
VERTEX
  5
6A1
  8
0
 10
40.6286218954484113
 20
157.70321998826401
 30
0.0
 42
-0.2614125764238824
  0
VERTEX
  5
6A2
  8
0
 10
40.1496315272885411
 20
156.8496691909901131
 30
0.0
  0
VERTEX
  5
6A3
  8
0
 10
37.6525335516331623
 20
155.3254340767942949
 30
0.0
  0
VERTEX
  5
6A4
  8
0
 10
35.4286218954481527
 20
155.3254340767942949
 30
0.0
 42
-0.4142135623731507
  0
VERTEX
  5
6A5
  8
0
 10
35.1286218954475018
 20
155.6254340767951874
 30
0.0
  0
VERTEX
  5
6A6
  8
0
 10
35.1286218954475018
 20
159.025434076794113
 30
0.0
 42
0.4142135623730951
  0
VERTEX
  5
6A7
  8
0
 10
34.6286218954484184
 20
159.5254340767941983
 30
0.0
 42
0.4188114576679498
  0
VERTEX
  5
6A8
  8
0
 10
34.0492881813707982
 20
159.1104540215183079
 30
0.0
 42
-0.1404564805148714
  0
VERTEX
  5
6A9
  8
0
 10
33.3862098923369714
 20
157.6265405999793074
 30
0.0
 42
-1.0
  0
VERTEX
  5
6AA
  8
0
 10
32.2382837922237968
 20
158.5920796559861969
 30
0.0
 42
2.1478203655805741
  0
VERTEX
  5
6AB
  8
0
 10
30.0189599986739495
 20
158.5920796559881865
 30
0.0
 42
-1.0
  0
VERTEX
  5
6AC
  8
0
 10
28.8710338985534882
 20
157.6265405999814107
 30
0.0
 42
-0.1393603343384995
  0
VERTEX
  5
6AD
  8
0
 10
28.2097671936154413
 20
159.0978978449093972
 30
0.0
 42
0.3722290659502557
  0
VERTEX
  5
6AE
  8
0
 10
27.7150460577091806
 20
159.5254340767941983
 30
0.0
 42
0.4706902797205583
  0
VERTEX
  5
6AF
  8
0
 10
27.1286218954475089
 20
159.025434076794113
 30
0.0
  0
VERTEX
  5
6B0
  8
0
 10
27.1286218954475089
 20
99.7754340767942125
 30
0.0
 42
0.4142135623730951
  0
VERTEX
  5
6B1
  8
0
 10
27.6286218954484184
 20
99.2754340767942267
 30
0.0
 42
0.418811457669991
  0
VERTEX
  5
6B2
  8
0
 10
28.2079556095246815
 20
99.6904141320735562
 30
0.0
 42
-0.1404564805145774
  0
VERTEX
  5
6B3
  8
0
 10
28.8710338985594106
 20
101.1743275536078954
 30
0.0
 42
-1.0
  0
VERTEX
  5
6B4
  8
0
 10
30.0189599986703115
 20
100.2087884976011054
 30
0.0
 42
2.147820366412958
  0
VERTEX
  5
6B5
  8
0
 10
32.2382837916653671
 20
100.2087884982572064
 30
0.0
 42
-1.001575392878534
  0
VERTEX
  5
6B6
  8
0
 10
33.3862098919772805
 20
101.1743275540399054
 30
0.0
 42
-0.1394487148001074
  0
VERTEX
  5
6B7
  8
0
 10
34.0476246838203522
 20
99.7019580755204657
 30
0.0
 42
0.3723277767740579
  0
VERTEX
  5
6B8
  8
0
 10
34.5421977331853824
 20
99.2754340767942267
 30
0.0
 42
0.4767529764296953
  0
VERTEX
  5
6B9
  8
0
 10
35.1286218954475018
 20
99.7754340767942125
 30
0.0
  0
VERTEX
  5
6BA
  8
0
 10
35.1286218954475018
 20
103.1754340767919018
 30
0.0
 42
-0.4142135623730951
  0
VERTEX
  5
6BB
  8
0
 10
35.427403516218078
 20
103.4754340767929932
 30
0.0
  0
VERTEX
  5
6BC
  8
0
 10
37.6525335516617972
 20
103.4754340767929932
 30
0.0
  0
VERTEX
  5
6BD
  8
0
 10
40.1496315272898983
 20
101.9511989626012962
 30
0.0
 42
-0.2614125764228208
  0
VERTEX
  5
6BE
  8
0
 10
40.6286218954484113
 20
101.0976481653260066
 30
0.0
  0
VERTEX
  5
6BF
  8
0
 10
40.6286218954484113
 20
99.135879439842256
 30
0.0
  0
VERTEX
  5
6C0
  8
0
 10
42.0275350083239729
 20
99.135879439842256
 30
0.0
 42
-0.2914734195861697
  0
VERTEX
  5
6C1
  8
0
 10
42.2994273444365874
 20
98.9626649183631173
 30
0.0
  0
VERTEX
  5
6C2
  8
0
 10
43.7466462493308512
 20
95.8590939613195587
 30
0.0
 42
0.2914734195861813
  0
VERTEX
  5
6C3
  8
0
 10
44.0185385854416609
 20
95.6858794398421963
 30
0.0
  0
VERTEX
  5
6C4
  8
0
 10
50.2387052054537904
 20
95.6858794398421963
 30
0.0
 42
0.2914734195861734
  0
VERTEX
  5
6C5
  8
0
 10
50.5105975415627881
 20
95.8590939613195587
 30
0.0
  0
VERTEX
  5
6C6
  8
0
 10
51.9578164464593328
 20
98.9626649183639842
 30
0.0
 42
-0.2914734195861697
  0
VERTEX
  5
6C7
  8
0
 10
52.2297087825701283
 20
99.135879439842256
 30
0.0
  0
VERTEX
  5
6C8
  8
0
 10
53.6286218954475018
 20
99.135879439842256
 30
0.0
  0
VERTEX
  5
6C9
  8
0
 10
53.6286218954475018
 20
101.0976481653260066
 30
0.0
 42
-0.261412576422823
  0
VERTEX
  5
6CA
  8
0
 10
54.1076122636060219
 20
101.9511989626012962
 30
0.0
  0
VERTEX
  5
6CB
  8
0
 10
56.6047102392336683
 20
103.4754340767929932
 30
0.0
  0
VERTEX
  5
6CC
  8
0
 10
58.8286218954464175
 20
103.4754340767929932
 30
0.0
 42
-0.4142135623765081
  0
VERTEX
  5
6CD
  8
0
 10
59.1286218954475018
 20
103.176652456018104
 30
0.0
  0
VERTEX
  5
6CE
  8
0
 10
59.1286218954475018
 20
99.7673267810493911
 30
0.0
 42
0.4142135623689068
  0
VERTEX
  5
6CF
  8
0
 10
59.6286218954502374
 20
99.2754340767851602
 30
0.0
 42
0.4189328453276246
  0
VERTEX
  5
6D0
  8
0
 10
60.2077844408041685
 20
99.689207642370306
 30
0.0
 42
-0.1405617880965075
  0
VERTEX
  5
6D1
  8
0
 10
60.871033898608971
 20
101.1743275536713043
 30
0.0
 42
-1.001575393123167
  0
VERTEX
  5
6D2
  8
0
 10
62.0189599990495566
 20
100.2087884980440009
 30
0.0
 42
2.1478203661420912
  0
VERTEX
  5
6D3
  8
0
 10
64.2382837922237826
 20
100.2087884976011054
 30
0.0
 42
-1.0
  0
VERTEX
  5
6D4
  8
0
 10
65.3862098923374333
 20
101.1743275536078954
 30
0.0
 42
-0.1393603343394454
  0
VERTEX
  5
6D5
  8
0
 10
66.0474765972827527
 20
99.7029703086811878
 30
0.0
 42
0.3722290659459317
  0
VERTEX
  5
6D6
  8
0
 10
66.5421977331853896
 20
99.2754340767942267
 30
0.0
 42
0.47069027972085
  0
VERTEX
  5
6D7
  8
0
 10
67.1286218954474947
 20
99.7754340767942125
 30
0.0
  0
SEQEND
  5
6D8
  8
0
  0
POLYLINE
  5
2A3
  8
0
 66
     1
 10
0.0
 20
0.0
 30
0.0
 70
     1
  0
VERTEX
  5
6D9
  8
0
 10
69.1286218954493279
 20
183.2254340766241114
 30
0.0
  0
VERTEX
  5
6DA
  8
0
 10
63.1286218954502303
 20
189.2254340766241967
 30
0.0
  0
VERTEX
  5
6DB
  8
0
 10
63.1286218954502303
 20
174.0254340766242933
 30
0.0
 42
0.4854532933268258
  0
VERTEX
  5
6DC
  8
0
 10
69.1286218954493279
 20
174.0254340766242933
 30
0.0
  0
SEQEND
  5
6DD
  8
0
  0
POLYLINE
  5
2A4
  8
0
 66
     1
 10
0.0
 20
0.0
 30
0.0
 70
     1
  0
VERTEX
  5
6DE
  8
0
 10
31.1286218954502409
 20
189.2254340766241967
 30
0.0
  0
VERTEX
  5
6DF
  8
0
 10
25.1286218954502409
 20
183.2254340766241114
 30
0.0
  0
VERTEX
  5
6E0
  8
0
 10
25.1286218954502409
 20
174.0254340766242933
 30
0.0
 42
0.4854532933268258
  0
VERTEX
  5
6E1
  8
0
 10
31.1286218954502409
 20
174.0254340766242933
 30
0.0
  0
SEQEND
  5
6E2
  8
0
  0
POLYLINE
  5
2A5
  8
0
 66
     1
 10
0.0
 20
0.0
 30
0.0
 70
     1
  0
VERTEX
  5
6E3
  8
0
 10
63.1286218954402187
 20
166.5254340767953067
 30
0.0
  0
VERTEX
  5
6E4
  8
0
 10
31.1286218954402294
 20
166.5254340767953067
 30
0.0
  0
VERTEX
  5
6E5
  8
0
 10
31.1286218954402294
 20
164.525434076794113
 30
0.0
  0
VERTEX
  5
6E6
  8
0
 10
63.1286218954402187
 20
164.525434076794113
 30
0.0
  0
SEQEND
  5
6E7
  8
0
  0
POLYLINE
  5
2A6
  8
0
 66
     1
 10
0.0
 20
0.0
 30
0.0
 70
     1
  0
VERTEX
  5
6E8
  8
0
 10
52.1057523686737412
 20
164.525434076794113
 30
0.0
  0
VERTEX
  5
6E9
  8
0
 10
42.1514914222221933
 20
164.525434076794113
 30
0.0
  0
VERTEX
  5
6EA
  8
0
 10
40.9332430548052884
 20
162.3856352598212993
 30
0.0
 42
-0.3735287541868786
  0
VERTEX
  5
6EB
  8
0
 10
40.6863991485734999
 20
162.2971181414638977
 30
0.0
  0
VERTEX
  5
6EC
  8
0
 10
38.6378547231885179
 20
163.0932022389739871
 30
0.0
 42
0.1979075105986839
  0
VERTEX
  5
6ED
  8
0
 10
38.4855270269168912
 20
163.0901374809691049
 30
0.0
 42
0.5160073444712613
  0
VERTEX
  5
6EE
  8
0
 10
38.0869844025325008
 20
162.8067837247234877
 30
0.0
  0
VERTEX
  5
6EF
  8
0
 10
38.0869844025325008
 20
158.6956741898360974
 30
0.0
 42
0.4142135623730951
  0
VERTEX
  5
6F0
  8
0
 10
38.2869844025318571
 20
158.4956741898359951
 30
0.0
  0
VERTEX
  5
6F1
  8
0
 10
38.564417225793143
 20
158.4956741898359951
 30
0.0
 42
0.1421976560262309
  0
VERTEX
  5
6F2
  8
0
 10
38.6715008605621122
 20
158.5267567686954067
 30
0.0
  0
VERTEX
  5
6F3
  8
0
 10
40.3934411142937435
 20
159.6183648454563127
 30
0.0
 42
-0.1421976560262095
  0
VERTEX
  5
6F4
  8
0
 10
40.5540665664462807
 20
159.664988713744691
 30
0.0
  0
VERTEX
  5
6F5
  8
0
 10
42.0275350083239729
 20
159.664988713744691
 30
0.0
 42
0.2914734195861616
  0
VERTEX
  5
6F6
  8
0
 10
42.2994273444365874
 20
159.8382032352232045
 30
0.0
  0
VERTEX
  5
6F7
  8
0
 10
43.7466462493308512
 20
162.9417741922682126
 30
0.0
 42
-0.2914734195861651
  0
VERTEX
  5
6F8
  8
0
 10
44.0185385854416609
 20
163.1149887137451913
 30
0.0
  0
VERTEX
  5
6F9
  8
0
 10
50.2387052054537904
 20
163.1149887137451913
 30
0.0
 42
-0.2914734195861651
  0
VERTEX
  5
6FA
  8
0
 10
50.5105975415627881
 20
162.9417741922682126
 30
0.0
  0
VERTEX
  5
6FB
  8
0
 10
51.9578164464593328
 20
159.8382032352232045
 30
0.0
 42
0.2914734195861468
  0
VERTEX
  5
6FC
  8
0
 10
52.2297087825701283
 20
159.664988713744691
 30
0.0
  0
VERTEX
  5
6FD
  8
0
 10
53.7031772244491776
 20
159.664988713744691
 30
0.0
 42
-0.1421976560262216
  0
VERTEX
  5
6FE
  8
0
 10
53.8638026766017219
 20
159.6183648454563127
 30
0.0
  0
VERTEX
  5
6FF
  8
0
 10
55.5857429303333674
 20
158.5267567686954067
 30
0.0
 42
0.1421976560262403
  0
VERTEX
  5
700
  8
0
 10
55.6928265651014271
 20
158.4956741898359951
 30
0.0
  0
VERTEX
  5
701
  8
0
 10
55.9702593883626989
 20
158.4956741898359951
 30
0.0
 42
0.4142135623730951
  0
VERTEX
  5
702
  8
0
 10
56.1702593883638883
 20
158.6956741898360974
 30
0.0
  0
VERTEX
  5
703
  8
0
 10
56.1702593883638883
 20
162.8067837247234877
 30
0.0
 42
0.5160073444594562
  0
VERTEX
  5
704
  8
0
 10
55.7717167639854097
 20
163.0901374809691049
 30
0.0
 42
0.1979075106092576
  0
VERTEX
  5
705
  8
0
 10
55.6193890677073881
 20
163.0932022389739871
 30
0.0
  0
VERTEX
  5
706
  8
0
 10
53.5708446423219584
 20
162.2971181414648925
 30
0.0
 42
-0.3700928233967968
  0
VERTEX
  5
707
  8
0
 10
53.3251955306983376
 20
162.3835366564842104
 30
0.0
  0
SEQEND
  5
708
  8
0
  0
POLYLINE
  5
2A7
  8
0
 66
     1
 10
0.0
 20
0.0
 30
0.0
 70
     1
  0
VERTEX
  5
709
  8
0
 10
30.4685510626278599
 20
93.6283897616440441
 30
0.0
  0
VERTEX
  5
70A
  8
0
 10
27.788692728266259
 20
93.6283897616440441
 30
0.0
  0
VERTEX
  5
70B
  8
0
 10
27.788692728266259
 20
91.0224783919320402
 30
0.0
  0
VERTEX
  5
70C
  8
0
 10
30.4685510626278599
 20
91.0224783919320402
 30
0.0
  0
SEQEND
  5
70D
  8
0
  0
POLYLINE
  5
2A8
  8
0
 66
     1
 10
0.0
 20
0.0
 30
0.0
 70
     1
  0
VERTEX
  5
70E
  8
0
 10
38.0869844025325008
 20
100.1051939637511055
 30
0.0
 42
-0.4142135623730951
  0
VERTEX
  5
70F
  8
0
 10
38.2869844025318571
 20
100.3051939637511936
 30
0.0
  0
VERTEX
  5
710
  8
0
 10
38.564417225793143
 20
100.3051939637511936
 30
0.0
 42
-0.1421976560262257
  0
VERTEX
  5
711
  8
0
 10
38.6715008605621122
 20
100.2741113848918957
 30
0.0
  0
VERTEX
  5
712
  8
0
 10
40.3934411142937435
 20
99.1825033081315581
 30
0.0
 42
0.2069175598853823
  0
VERTEX
  5
713
  8
0
 10
40.6286218954484113
 20
99.1452912382283102
 30
0.0
  0
VERTEX
  5
714
  8
0
 10
40.6286218954484113
 20
101.0976481653260066
 30
0.0
 42
0.2614125764228208
  0
VERTEX
  5
715
  8
0
 10
40.1496315272898983
 20
101.9511989626012962
 30
0.0
  0
VERTEX
  5
716
  8
0
 10
37.7245102442822073
 20
103.4314993159758984
 30
0.0
 42
0.1378721067392848
  0
VERTEX
  5
717
  8
0
 10
37.5641133635391427
 20
103.4754340767929932
 30
0.0
  0
VERTEX
  5
718
  8
0
 10
35.427403516218078
 20
103.4754340767929932
 30
0.0
 42
0.4142135623730951
  0
VERTEX
  5
719
  8
0
 10
35.1286218954475018
 20
103.1754340767919018
 30
0.0
  0
VERTEX
  5
71A
  8
0
 10
35.1286218954475018
 20
99.7754340767942125
 30
0.0
 42
-0.414213562474779
  0
VERTEX
  5
71B
  8
0
 10
34.6367291910111277
 20
99.2754340767842365
 30
0.0
  0
VERTEX
  5
71C
  8
0
 10
34.5421977331808492
 20
99.2754340767942267
 30
0.0
 42
-0.3729111077195843
  0
VERTEX
  5
71D
  8
0
 10
34.0474765973132207
 20
99.7029703084883749
 30
0.0
 42
0.1396338775139761
  0
VERTEX
  5
71E
  8
0
 10
33.3841705346268398
 20
101.176749499415493
 30
0.0
 42
0.9984270847351
  0
VERTEX
  5
71F
  8
0
 10
32.2372813965704381
 20
100.2099789449279967
 30
0.0
 42
-2.149327358904475
  0
VERTEX
  5
720
  8
0
 10
30.0189599986703115
 20
100.2087884976011054
 30
0.0
 42
1.0
  0
VERTEX
  5
721
  8
0
 10
28.8710338985585011
 20
101.1743275536078954
 30
0.0
 42
0.1393603343394449
  0
VERTEX
  5
722
  8
0
 10
28.2097671936118211
 20
99.7029703086811878
 30
0.0
 42
-0.372229065949289
  0
VERTEX
  5
723
  8
0
 10
27.7150460577041713
 20
99.2754340767942267
 30
0.0
  0
VERTEX
  5
724
  8
0
 10
27.6286218954461518
 20
99.2754340767942267
 30
0.0
 42
-0.4142135623723209
  0
VERTEX
  5
725
  8
0
 10
27.1286218954475089
 20
99.7754340767942125
 30
0.0
  0
VERTEX
  5
726
  8
0
 10
27.1286218954475089
 20
159.025434076794113
 30
0.0
 42
-0.4142135623730951
  0
VERTEX
  5
727
  8
0
 10
27.6286218954484184
 20
159.5254340767941983
 30
0.0
  0
VERTEX
  5
728
  8
0
 10
27.7150460577105306
 20
159.5254340767941983
 30
0.0
 42
-0.3722290659500187
  0
VERTEX
  5
729
  8
0
 10
28.2097671936154413
 20
159.0978978449093972
 30
0.0
 42
0.1393603343385317
  0
VERTEX
  5
72A
  8
0
 10
28.8710338985534882
 20
157.6265405999814107
 30
0.0
 42
1.0
  0
VERTEX
  5
72B
  8
0
 10
30.0189599986725817
 20
158.5920796559881865
 30
0.0
 42
-2.1478203655790562
  0
VERTEX
  5
72C
  8
0
 10
32.2382837922237968
 20
158.5920796559875043
 30
0.0
 42
1.0
  0
VERTEX
  5
72D
  8
0
 10
33.3862098923369714
 20
157.6265405999793074
 30
0.0
 42
0.1393603343394226
  0
VERTEX
  5
72E
  8
0
 10
34.0474765972827598
 20
159.0978978449080898
 30
0.0
 42
-0.372229065949353
  0
VERTEX
  5
72F
  8
0
 10
34.5421977331913084
 20
159.5254340767941983
 30
0.0
  0
VERTEX
  5
730
  8
0
 10
34.6286218954493421
 20
159.5254340767941983
 30
0.0
 42
-0.4142135623723209
  0
VERTEX
  5
731
  8
0
 10
35.1286218954475018
 20
159.025434076794113
 30
0.0
  0
VERTEX
  5
732
  8
0
 10
35.1286218954475018
 20
155.6254340767951874
 30
0.0
 42
0.4142135623731504
  0
VERTEX
  5
733
  8
0
 10
35.4286218954481527
 20
155.3254340767942949
 30
0.0
  0
VERTEX
  5
734
  8
0
 10
37.5682073547210393
 20
155.3254340767942949
 30
0.0
 42
0.137872106702777
  0
VERTEX
  5
735
  8
0
 10
37.7280046736842607
 20
155.3715018464465061
 30
0.0
  0
VERTEX
  5
736
  8
0
 10
40.1496315272885411
 20
156.8496691909901131
 30
0.0
 42
0.2614125764238825
  0
VERTEX
  5
737
  8
0
 10
40.6286218954484113
 20
157.70321998826401
 30
0.0
  0
VERTEX
  5
738
  8
0
 10
40.6286218954475018
 20
159.6555769153600011
 30
0.0
 42
0.2069175598849494
  0
VERTEX
  5
739
  8
0
 10
40.3934411142937435
 20
159.6183648454563127
 30
0.0
  0
VERTEX
  5
73A
  8
0
 10
38.6715008605621122
 20
158.5267567686954067
 30
0.0
 42
-0.142197656026249
  0
VERTEX
  5
73B
  8
0
 10
38.564417225793143
 20
158.4956741898359951
 30
0.0
  0
VERTEX
  5
73C
  8
0
 10
38.2869844025318571
 20
158.4956741898359951
 30
0.0
 42
-0.4142135623730951
  0
VERTEX
  5
73D
  8
0
 10
38.0869844025325008
 20
158.6956741898360974
 30
0.0
  0
VERTEX
  5
73E
  8
0
 10
38.0869844025325008
 20
162.8067837247234877
 30
0.0
 42
-0.4142135623730951
  0
VERTEX
  5
73F
  8
0
 10
38.3869844025308566
 20
163.1067837247225043
 30
0.0
  0
VERTEX
  5
740
  8
0
 10
38.6029058063533128
 20
163.1067837247225043
 30
0.0
  0
VERTEX
  5
741
  8
0
 10
40.6863991485734999
 20
162.2971181414638977
 30
0.0
 42
0.3735287541868858
  0
VERTEX
  5
742
  8
0
 10
40.9332430548052884
 20
162.3856352598212993
 30
0.0
  0
VERTEX
  5
743
  8
0
 10
42.1514914222221933
 20
164.525434076794113
 30
0.0
  0
VERTEX
  5
744
  8
0
 10
25.4286218954481491
 20
164.525434076794113
 30
0.0
 42
-0.4142135623730395
  0
VERTEX
  5
745
  8
0
 10
25.1286218954475089
 20
164.8254340767952044
 30
0.0
  0
VERTEX
  5
746
  8
0
 10
25.1286218954447804
 20
183.2254340767929932
 30
0.0
 42
0.4142135623732614
  0
VERTEX
  5
747
  8
0
 10
24.8286218954441509
 20
183.525434076794113
 30
0.0
  0
VERTEX
  5
748
  8
0
 10
22.4286218954490586
 20
183.5254340767918961
 30
0.0
 42
0.414213562372901
  0
VERTEX
  5
749
  8
0
 10
22.1286218954474982
 20
183.2254340767912026
 30
0.0
  0
VERTEX
  5
74A
  8
0
 10
22.1286218954502409
 20
161.8254340767944086
 30
0.0
 42
0.4142135623728175
  0
VERTEX
  5
74B
  8
0
 10
22.4286218954490586
 20
161.5254340767941983
 30
0.0
  0
VERTEX
  5
74C
  8
0
 10
24.8286218954464211
 20
161.5254340767920098
 30
0.0
 42
-0.4142135623728731
  0
VERTEX
  5
74D
  8
0
 10
25.1286218954475089
 20
161.2254340767912026
 30
0.0
  0
VERTEX
  5
74E
  8
0
 10
25.1286218954502409
 20
83.8254340767944228
 30
0.0
 42
0.4142135623730811
  0
VERTEX
  5
74F
  8
0
 10
25.4286218954504193
 20
83.5254340767942125
 30
0.0
  0
VERTEX
  5
750
  8
0
 10
26.8286218954464211
 20
83.5254340767942125
 30
0.0
 42
0.4142135623732547
  0
VERTEX
  5
751
  8
0
 10
27.1286218954475089
 20
83.8254340767953181
 30
0.0
  0
VERTEX
  5
752
  8
0
 10
27.1286218954447911
 20
88.8254340767944228
 30
0.0
 42
-0.4142135623728663
  0
VERTEX
  5
753
  8
0
 10
27.3286218954450604
 20
89.0254340767942267
 30
0.0
  0
VERTEX
  5
754
  8
0
 10
27.5036218954447911
 20
89.0254340767942267
 30
0.0
 42
0.9667558504634692
  0
VERTEX
  5
755
  8
0
 10
27.5458432879187285
 20
90.2740063292371815
 30
0.0
 42
-0.3653113328633521
  0
VERTEX
  5
756
  8
0
 10
27.3603975531006007
 20
90.4531465308582341
 30
0.0
  0
VERTEX
  5
757
  8
0
 10
27.1887952364173806
 20
92.1265056149895969
 30
0.0
 42
-1.1077940659275141
  0
VERTEX
  5
758
  8
0
 10
31.0684485544762801
 20
92.126505614995267
 30
0.0
  0
VERTEX
  5
759
  8
0
 10
30.8968462377980586
 20
90.4531465308643448
 30
0.0
 42
-0.3653113328647652
  0
VERTEX
  5
75A
  8
0
 10
30.7114005029735715
 20
90.2740063292385457
 30
0.0
 42
0.9667558504700958
  0
VERTEX
  5
75B
  8
0
 10
30.7536218954474982
 20
89.0254340767942267
 30
0.0
  0
VERTEX
  5
75C
  8
0
 10
32.3286218954464175
 20
89.0254340767942267
 30
0.0
 42
0.4142135623730951
  0
VERTEX
  5
75D
  8
0
 10
32.6286218954475018
 20
89.3254340767953039
 30
0.0
  0
VERTEX
  5
75E
  8
0
 10
32.6286218954475018
 20
93.9754340767931353
 30
0.0
 42
-0.4142135623724565
  0
VERTEX
  5
75F
  8
0
 10
32.9153594256955628
 20
94.275434076793303
 30
0.0
  0
VERTEX
  5
760
  8
0
 10
42.1514914222221933
 20
94.275434076793303
 30
0.0
  0
VERTEX
  5
761
  8
0
 10
40.9320482601552698
 20
96.4173314971771873
 30
0.0
 42
0.3700928232767686
  0
VERTEX
  5
762
  8
0
 10
40.6863991485734999
 20
96.5037500121229641
 30
0.0
  0
VERTEX
  5
763
  8
0
 10
38.6029058063533128
 20
95.694084428864457
 30
0.0
  0
VERTEX
  5
764
  8
0
 10
38.3869844025308566
 20
95.6940844288651533
 30
0.0
 42
-0.4142135623731088
  0
VERTEX
  5
765
  8
0
 10
38.0869844025325008
 20
95.9940844288651078
 30
0.0
  0
SEQEND
  5
766
  8
0
  0
POLYLINE
  5
2A9
  8
0
 66
     1
 10
0.0
 20
0.0
 30
0.0
 70
     1
  0
VERTEX
  5
767
  8
0
 10
56.1702593883638883
 20
100.1051939637511055
 30
0.0
 42
0.4142135623730951
  0
VERTEX
  5
768
  8
0
 10
55.9702593883626989
 20
100.3051939637511936
 30
0.0
  0
VERTEX
  5
769
  8
0
 10
55.6928265651018677
 20
100.3051939637511936
 30
0.0
 42
0.1421976560264252
  0
VERTEX
  5
76A
  8
0
 10
55.5857429303333674
 20
100.2741113848918957
 30
0.0
  0
VERTEX
  5
76B
  8
0
 10
53.8638026766017219
 20
99.1825033081315581
 30
0.0
 42
-0.1421976560262371
  0
VERTEX
  5
76C
  8
0
 10
53.7031772244491776
 20
99.135879439842256
 30
0.0
  0
VERTEX
  5
76D
  8
0
 10
52.2297087825701283
 20
99.135879439842256
 30
0.0
 42
0.2914734195861679
  0
VERTEX
  5
76E
  8
0
 10
51.9578164464593328
 20
98.9626649183639842
 30
0.0
  0
VERTEX
  5
76F
  8
0
 10
50.5105975415627881
 20
95.8590939613195587
 30
0.0
 42
-0.2914734195861882
  0
VERTEX
  5
770
  8
0
 10
50.2387052054537904
 20
95.6858794398421963
 30
0.0
  0
VERTEX
  5
771
  8
0
 10
44.0185385854416609
 20
95.6858794398421963
 30
0.0
 42
-0.2914734195861859
  0
VERTEX
  5
772
  8
0
 10
43.7466462493308512
 20
95.8590939613195587
 30
0.0
  0
VERTEX
  5
773
  8
0
 10
42.2994273444365874
 20
98.9626649183631173
 30
0.0
 42
0.2914734195861779
  0
VERTEX
  5
774
  8
0
 10
42.0275350083239729
 20
99.135879439842256
 30
0.0
  0
VERTEX
  5
775
  8
0
 10
40.5540665664462807
 20
99.135879439842256
 30
0.0
 42
-0.1421976560261888
  0
VERTEX
  5
776
  8
0
 10
40.3934411142937435
 20
99.1825033081315581
 30
0.0
  0
VERTEX
  5
777
  8
0
 10
38.6715008605621122
 20
100.2741113848918957
 30
0.0
 42
0.1421976560262024
  0
VERTEX
  5
778
  8
0
 10
38.564417225793143
 20
100.3051939637511936
 30
0.0
  0
VERTEX
  5
779
  8
0
 10
38.2869844025318571
 20
100.3051939637511936
 30
0.0
 42
0.4142135623731369
  0
VERTEX
  5
77A
  8
0
 10
38.0869844025325008
 20
100.1051939637511055
 30
0.0
  0
VERTEX
  5
77B
  8
0
 10
38.0869844025325008
 20
95.9940844288651078
 30
0.0
 42
0.4142135623730951
  0
VERTEX
  5
77C
  8
0
 10
38.3869844025308566
 20
95.6940844288651533
 30
0.0
  0
VERTEX
  5
77D
  8
0
 10
38.565410692762832
 20
95.694084428864457
 30
0.0
 42
0.0929282955803851
  0
VERTEX
  5
77E
  8
0
 10
38.6378547231885179
 20
95.70766591461323
 30
0.0
  0
VERTEX
  5
77F
  8
0
 10
40.6863991485734999
 20
96.5037500121229641
 30
0.0
 42
-0.3700928232738827
  0
VERTEX
  5
780
  8
0
 10
40.9320482601543674
 20
96.417331497178111
 30
0.0
  0
VERTEX
  5
781
  8
0
 10
42.1514914222221933
 20
94.275434076793303
 30
0.0
  0
VERTEX
  5
782
  8
0
 10
52.1081507543081983
 20
94.275434076793303
 30
0.0
  0
VERTEX
  5
783
  8
0
 10
53.3238353265020208
 20
96.414937651031309
 30
0.0
 42
-0.3740108785498995
  0
VERTEX
  5
784
  8
0
 10
53.5708446423219584
 20
96.5037500121229641
 30
0.0
  0
VERTEX
  5
785
  8
0
 10
55.6193890677073881
 20
95.70766591461323
 30
0.0
 42
0.0929282955800268
  0
VERTEX
  5
786
  8
0
 10
55.6918330981312621
 20
95.694084428864457
 30
0.0
  0
VERTEX
  5
787
  8
0
 10
55.8702593883627898
 20
95.694084428864457
 30
0.0
 42
0.4142135623730744
  0
VERTEX
  5
788
  8
0
 10
56.1702593883638883
 20
95.9940844288651078
 30
0.0
  0
SEQEND
  5
789
  8
0
  0
POLYLINE
  5
2AA
  8
0
 66
     1
 10
0.0
 20
0.0
 30
0.0
 70
     1
  0
VERTEX
  5
78A
  8
0
 10
66.4685510626278528
 20
93.6283897616440441
 30
0.0
  0
VERTEX
  5
78B
  8
0
 10
63.7886927282662626
 20
93.6283897616440441
 30
0.0
  0
VERTEX
  5
78C
  8
0
 10
63.7886927282662626
 20
91.0224783919320402
 30
0.0
  0
VERTEX
  5
78D
  8
0
 10
66.4685510626278528
 20
91.0224783919320402
 30
0.0
  0
SEQEND
  5
78E
  8
0
  0
POLYLINE
  5
2AB
  8
0
 66
     1
 10
0.0
 20
0.0
 30
0.0
 70
     1
  0
VERTEX
  5
78F
  8
0
 10
69.1286218954475089
 20
161.2254340767912026
 30
0.0
 42
-0.4142135623728731
  0
VERTEX
  5
790
  8
0
 10
69.4286218954481456
 20
161.5254340767920098
 30
0.0
  0
VERTEX
  5
791
  8
0
 10
71.8286218954450533
 20
161.5254340767941983
 30
0.0
 42
0.4142135623728453
  0
VERTEX
  5
792
  8
0
 10
72.1286218954447662
 20
161.8254340767944086
 30
0.0
  0
VERTEX
  5
793
  8
0
 10
72.1286218954474947
 20
183.2254340767912026
 30
0.0
 42
0.4142135623729007
  0
VERTEX
  5
794
  8
0
 10
71.8286218954464175
 20
183.5254340767918961
 30
0.0
  0
VERTEX
  5
795
  8
0
 10
69.428621895450874
 20
183.525434076794113
 30
0.0
 42
0.4142135623733168
  0
VERTEX
  5
796
  8
0
 10
69.1286218954502232
 20
183.2254340767929932
 30
0.0
  0
VERTEX
  5
797
  8
0
 10
69.1286218954493279
 20
174.0254340766242933
 30
0.0
  0
VERTEX
  5
798
  8
0
 10
69.1286218954475089
 20
164.8254340767952044
 30
0.0
 42
-0.4142135623730119
  0
VERTEX
  5
799
  8
0
 10
68.8286218954464175
 20
164.525434076794113
 30
0.0
  0
VERTEX
  5
79A
  8
0
 10
52.1057523686737412
 20
164.525434076794113
 30
0.0
  0
VERTEX
  5
79B
  8
0
 10
53.3251955306974494
 20
162.3835366564852905
 30
0.0
 42
0.3700928233982904
  0
VERTEX
  5
79C
  8
0
 10
53.5708446423219584
 20
162.2971181414648925
 30
0.0
  0
VERTEX
  5
79D
  8
0
 10
55.6543379845426287
 20
163.1067837247225043
 30
0.0
  0
VERTEX
  5
79E
  8
0
 10
55.8702593883627898
 20
163.1067837247225043
 30
0.0
 42
-0.4142135623730951
  0
VERTEX
  5
79F
  8
0
 10
56.1702593883638883
 20
162.8067837247234877
 30
0.0
  0
VERTEX
  5
7A0
  8
0
 10
56.1702593883638883
 20
158.6956741898360974
 30
0.0
 42
-0.4142135623730951
  0
VERTEX
  5
7A1
  8
0
 10
55.9702593883626989
 20
158.4956741898359951
 30
0.0
  0
VERTEX
  5
7A2
  8
0
 10
55.6928265651018677
 20
158.4956741898359951
 30
0.0
 42
-0.1421976560264305
  0
VERTEX
  5
7A3
  8
0
 10
55.5857429303333674
 20
158.5267567686954067
 30
0.0
  0
VERTEX
  5
7A4
  8
0
 10
53.8638026766017219
 20
159.6183648454563127
 30
0.0
 42
0.2069175598853803
  0
VERTEX
  5
7A5
  8
0
 10
53.6286218954475018
 20
159.6555769153592053
 30
0.0
  0
VERTEX
  5
7A6
  8
0
 10
53.6286218954475018
 20
157.70321998826401
 30
0.0
 42
0.2614125764238207
  0
VERTEX
  5
7A7
  8
0
 10
54.1076122636073791
 20
156.8496691909901131
 30
0.0
  0
VERTEX
  5
7A8
  8
0
 10
56.5327335466123486
 20
155.3693688376293096
 30
0.0
 42
0.1378721067902268
  0
VERTEX
  5
7A9
  8
0
 10
56.6931304274204493
 20
155.3254340767942949
 30
0.0
  0
VERTEX
  5
7AA
  8
0
 10
58.8286218954464175
 20
155.3254340767942949
 30
0.0
 42
0.4142135623731645
  0
VERTEX
  5
7AB
  8
0
 10
59.1286218954475018
 20
155.6254340767951874
 30
0.0
  0
VERTEX
  5
7AC
  8
0
 10
59.1286218954475018
 20
159.025434076794113
 30
0.0
 42
-0.4142135623730951
  0
VERTEX
  5
7AD
  8
0
 10
59.6286218954484184
 20
159.5254340767941983
 30
0.0
  0
VERTEX
  5
7AE
  8
0
 10
59.7150460577041784
 20
159.5254340767941983
 30
0.0
 42
-0.3722290659493487
  0
VERTEX
  5
7AF
  8
0
 10
60.2097671936118104
 20
159.0978978449080898
 30
0.0
 42
0.1393603343394429
  0
VERTEX
  5
7B0
  8
0
 10
60.8710338985584869
 20
157.6265405999793074
 30
0.0
 42
1.0
  0
VERTEX
  5
7B1
  8
0
 10
62.0189599986703328
 20
158.5920796559861969
 30
0.0
 42
-2.1478203655805741
  0
VERTEX
  5
7B2
  8
0
 10
64.2382837922219636
 20
158.5920796559881865
 30
0.0
 42
1.0
  0
VERTEX
  5
7B3
  8
0
 10
65.386209892341526
 20
157.6265405999814107
 30
0.0
 42
0.1393603343384989
  0
VERTEX
  5
7B4
  8
0
 10
66.0474765972804647
 20
159.0978978449093972
 30
0.0
 42
-0.372229065950009
  0
VERTEX
  5
7B5
  8
0
 10
66.5421977331853896
 20
159.5254340767941983
 30
0.0
  0
VERTEX
  5
7B6
  8
0
 10
66.6286218954484184
 20
159.5254340767941983
 30
0.0
 42
-0.4142135623730951
  0
VERTEX
  5
7B7
  8
0
 10
67.1286218954474947
 20
159.025434076794113
 30
0.0
  0
VERTEX
  5
7B8
  8
0
 10
67.1286218954474947
 20
99.7754340767942125
 30
0.0
 42
-0.4142135623730951
  0
VERTEX
  5
7B9
  8
0
 10
66.6286218954484184
 20
99.2754340767942267
 30
0.0
  0
VERTEX
  5
7BA
  8
0
 10
66.5421977331913013
 20
99.2754340767942267
 30
0.0
 42
-0.372229065949285
  0
VERTEX
  5
7BB
  8
0
 10
66.0474765972827527
 20
99.7029703086811878
 30
0.0
 42
0.1393603343394605
  0
VERTEX
  5
7BC
  8
0
 10
65.3862098923369786
 20
101.1743275536078954
 30
0.0
 42
1.0
  0
VERTEX
  5
7BD
  8
0
 10
64.2382837922237826
 20
100.2087884976011054
 30
0.0
 42
-2.1493273593621072
  0
VERTEX
  5
7BE
  8
0
 10
62.0199623946292604
 20
100.2099789452890946
 30
0.0
 42
0.9984270847012998
  0
VERTEX
  5
7BF
  8
0
 10
60.8730732562549903
 20
101.1767494994002021
 30
0.0
 42
0.1396338774951104
  0
VERTEX
  5
7C0
  8
0
 10
60.2097671936104391
 20
99.7029703086855221
 30
0.0
 42
-0.3722290658968706
  0
VERTEX
  5
7C1
  8
0
 10
59.7162422170950933
 20
99.2754340767942267
 30
0.0
  0
VERTEX
  5
7C2
  8
0
 10
59.6286218953942821
 20
99.2754340767842365
 30
0.0
 42
-0.41421356233613
  0
VERTEX
  5
7C3
  8
0
 10
59.1286218954475018
 20
99.7673267810493911
 30
0.0
  0
VERTEX
  5
7C4
  8
0
 10
59.1286218954475018
 20
103.176652456018104
 30
0.0
 42
0.4142135623765081
  0
VERTEX
  5
7C5
  8
0
 10
58.8286218954464175
 20
103.4754340767929932
 30
0.0
  0
VERTEX
  5
7C6
  8
0
 10
56.689036436170781
 20
103.4754340767929932
 30
0.0
 42
0.137872106753955
  0
VERTEX
  5
7C7
  8
0
 10
56.5292391171579993
 20
103.429366307127097
 30
0.0
  0
VERTEX
  5
7C8
  8
0
 10
54.1076122636060219
 20
101.9511989626012962
 30
0.0
 42
0.2614125764228268
  0
VERTEX
  5
7C9
  8
0
 10
53.6286218954475018
 20
101.0976481653260066
 30
0.0
  0
VERTEX
  5
7CA
  8
0
 10
53.6286218954475018
 20
99.1452912382283102
 30
0.0
 42
0.206917559885389
  0
VERTEX
  5
7CB
  8
0
 10
53.8638026766017219
 20
99.1825033081315581
 30
0.0
  0
VERTEX
  5
7CC
  8
0
 10
55.5857429303333674
 20
100.2741113848918957
 30
0.0
 42
-0.1421976560262024
  0
VERTEX
  5
7CD
  8
0
 10
55.6928265651014271
 20
100.3051939637511936
 30
0.0
  0
VERTEX
  5
7CE
  8
0
 10
55.9702593883626989
 20
100.3051939637511936
 30
0.0
 42
-0.4142135623731158
  0
VERTEX
  5
7CF
  8
0
 10
56.1702593883638883
 20
100.1051939637511055
 30
0.0
  0
VERTEX
  5
7D0
  8
0
 10
56.1702593883638883
 20
95.9940844288651078
 30
0.0
 42
-0.4142135623730951
  0
VERTEX
  5
7D1
  8
0
 10
55.8702593883627898
 20
95.694084428864457
 30
0.0
  0
VERTEX
  5
7D2
  8
0
 10
55.6543379845426287
 20
95.694084428864457
 30
0.0
  0
VERTEX
  5
7D3
  8
0
 10
53.5708446423219584
 20
96.5037500121229641
 30
0.0
 42
0.3740108785498995
  0
VERTEX
  5
7D4
  8
0
 10
53.3238353265020208
 20
96.414937651031309
 30
0.0
  0
VERTEX
  5
7D5
  8
0
 10
52.1081507543081983
 20
94.275434076793303
 30
0.0
  0
VERTEX
  5
7D6
  8
0
 10
61.3286218954464175
 20
94.275434076793303
 30
0.0
 42
-0.4142135623740315
  0
VERTEX
  5
7D7
  8
0
 10
61.6286218954475018
 20
93.9886965465466346
 30
0.0
  0
VERTEX
  5
7D8
  8
0
 10
61.6286218954475018
 20
89.3254340767953039
 30
0.0
 42
0.4142135623730951
  0
VERTEX
  5
7D9
  8
0
 10
61.9286218954481527
 20
89.0254340767942267
 30
0.0
  0
VERTEX
  5
7DA
  8
0
 10
63.5036218954475018
 20
89.0254340767942267
 30
0.0
 42
0.9667558504702464
  0
VERTEX
  5
7DB
  8
0
 10
63.5458432879219117
 20
90.2740063292385457
 30
0.0
 42
-0.3653113328647652
  0
VERTEX
  5
7DC
  8
0
 10
63.3603975530964902
 20
90.4531465308643448
 30
0.0
  0
VERTEX
  5
7DD
  8
0
 10
63.1887952364182794
 20
92.126505614995267
 30
0.0
 42
-1.1077940659275161
  0
VERTEX
  5
7DE
  8
0
 10
67.0684485544780955
 20
92.1265056149895969
 30
0.0
  0
VERTEX
  5
7DF
  8
0
 10
66.8968462377953301
 20
90.4531465308582341
 30
0.0
 42
-0.3653113328630782
  0
VERTEX
  5
7E0
  8
0
 10
66.7114005029749251
 20
90.2740063292371815
 30
0.0
 42
0.9667558504686439
  0
VERTEX
  5
7E1
  8
0
 10
66.7536218954502232
 20
89.0254340767942267
 30
0.0
  0
VERTEX
  5
7E2
  8
0
 10
66.928621895450874
 20
89.0254340767942267
 30
0.0
 42
-0.4142135623728663
  0
VERTEX
  5
7E3
  8
0
 10
67.1286218954502374
 20
88.8254340767944228
 30
0.0
  0
VERTEX
  5
7E4
  8
0
 10
67.1286218954474947
 20
83.8254340767953181
 30
0.0
 42
0.4142135623732476
  0
VERTEX
  5
7E5
  8
0
 10
67.4286218954481313
 20
83.5254340767942125
 30
0.0
  0
VERTEX
  5
7E6
  8
0
 10
68.8286218954450533
 20
83.5254340767942125
 30
0.0
 42
0.4142135623730879
  0
VERTEX
  5
7E7
  8
0
 10
69.1286218954443257
 20
83.8254340767944228
 30
0.0
  0
SEQEND
  5
7E8
  8
0
  0
POLYLINE
  5
2AC
  8
0
 66
     1
 10
0.0
 20
0.0
 30
0.0
 70
     1
  0
VERTEX
  5
7E9
  8
0
 10
65.7804791113581757
 20
91.0224783919320402
 30
0.0
  0
VERTEX
  5
7EA
  8
0
 10
64.4767646795363447
 20
91.0224783919320402
 30
0.0
  0
VERTEX
  5
7EB
  8
0
 10
64.4767646795363447
 20
78.5212131178732307
 30
0.0
  0
VERTEX
  5
7EC
  8
0
 10
65.7804791113581757
 20
78.5212131178732307
 30
0.0
  0
SEQEND
  5
7ED
  8
0
  0
POLYLINE
  5
2AD
  8
0
 66
     1
 10
0.0
 20
0.0
 30
0.0
 70
     1
  0
VERTEX
  5
7EE
  8
0
 10
68.8286218954450533
 20
83.5254340767942125
 30
0.0
  0
VERTEX
  5
7EF
  8
0
 10
67.4286218954504193
 20
83.5254340767942125
 30
0.0
  0
VERTEX
  5
7F0
  8
0
 10
67.4286218954504193
 20
78.5212131178732307
 30
0.0
  0
VERTEX
  5
7F1
  8
0
 10
68.8286218954450533
 20
78.5212131178732307
 30
0.0
  0
SEQEND
  5
7F2
  8
0
  0
POLYLINE
  5
2AE
  8
0
 66
     1
 10
0.0
 20
0.0
 30
0.0
 70
     1
  0
VERTEX
  5
7F3
  8
0
 10
59.1286218954493421
 20
94.275434076793303
 30
0.0
  0
VERTEX
  5
7F4
  8
0
 10
35.1286218954493421
 20
94.275434076793303
 30
0.0
  0
VERTEX
  5
7F5
  8
0
 10
35.1286218954493421
 20
74.2712131178738986
 30
0.0
  0
VERTEX
  5
7F6
  8
0
 10
43.1286218954493279
 20
74.2712131178738986
 30
0.0
  0
VERTEX
  5
7F7
  8
0
 10
43.1286218954493279
 20
78.2712131178738986
 30
0.0
  0
VERTEX
  5
7F8
  8
0
 10
51.1286218954493421
 20
78.2712131178738986
 30
0.0
  0
VERTEX
  5
7F9
  8
0
 10
51.1286218954493421
 20
74.2712131178738986
 30
0.0
  0
VERTEX
  5
7FA
  8
0
 10
59.1286218954493421
 20
74.2712131178738986
 30
0.0
  0
SEQEND
  5
7FB
  8
0
  0
POLYLINE
  5
2AF
  8
0
 66
     1
 10
0.0
 20
0.0
 30
0.0
 70
     1
  0
VERTEX
  5
7FC
  8
0
 10
29.7804791113582112
 20
91.0224783919320402
 30
0.0
  0
VERTEX
  5
7FD
  8
0
 10
28.4767646795363589
 20
91.0224783919320402
 30
0.0
  0
VERTEX
  5
7FE
  8
0
 10
28.4767646795363589
 20
78.5212131178732307
 30
0.0
  0
VERTEX
  5
7FF
  8
0
 10
29.7804791113582112
 20
78.5212131178732307
 30
0.0
  0
SEQEND
  5
800
  8
0
  0
POLYLINE
  5
2B0
  8
0
 66
     1
 10
0.0
 20
0.0
 30
0.0
 70
     1
  0
VERTEX
  5
801
  8
0
 10
25.1286218954502409
 20
88.5212131178738986
 30
0.0
  0
VERTEX
  5
802
  8
0
 10
19.1286218954474982
 20
88.5212131178732164
 30
0.0
  0
VERTEX
  5
803
  8
0
 10
19.1286218954474982
 20
85.0212131178732307
 30
0.0
  0
VERTEX
  5
804
  8
0
 10
25.1286218954502409
 20
85.0212131178732307
 30
0.0
  0
SEQEND
  5
805
  8
0
  0
POLYLINE
  5
2B1
  8
0
 66
     1
 10
0.0
 20
0.0
 30
0.0
 70
     1
  0
VERTEX
  5
806
  8
0
 10
19.1286218954474982
 20
90.1212131178733529
 30
0.0
  0
VERTEX
  5
807
  8
0
 10
18.2992970302285585
 20
90.1212131178733529
 30
0.0
  0
VERTEX
  5
808
  8
0
 10
18.2992970302285585
 20
83.4212131178740037
 30
0.0
  0
VERTEX
  5
809
  8
0
 10
19.1286218954474982
 20
83.4212131178740037
 30
0.0
  0
SEQEND
  5
80A
  8
0
  0
POLYLINE
  5
2B2
  8
0
 66
     1
 10
0.0
 20
0.0
 30
0.0
 70
     1
  0
VERTEX
  5
80B
  8
0
 10
15.1286218954475
 20
87.5294706873689705
 30
0.0
  0
VERTEX
  5
80C
  8
0
 10
15.1286218954475
 20
90.2212131178732619
 30
0.0
 42
0.4142135623731438
  0
VERTEX
  5
80D
  8
0
 10
14.8286218954473199
 20
90.5212131178738986
 30
0.0
  0
VERTEX
  5
80E
  8
0
 10
7.4286218954472352
 20
90.5212131178738986
 30
0.0
 42
0.4142135623731091
  0
VERTEX
  5
80F
  8
0
 10
7.1286218954475071
 20
90.2212131178732619
 30
0.0
  0
VERTEX
  5
810
  8
0
 10
7.1286218954475071
 20
82.0212131178738986
 30
0.0
 42
-0.4142135623731091
  0
VERTEX
  5
811
  8
0
 10
6.8286218954473261
 20
81.7212131178746546
 30
0.0
  0
VERTEX
  5
812
  8
0
 10
5.9286218954472352
 20
81.7212131178746546
 30
0.0
  0
VERTEX
  5
813
  8
0
 10
9.0993651166783138
 20
79.6084077936411774
 30
0.0
  0
VERTEX
  5
814
  8
0
 10
9.0993651166783138
 20
88.521213117860043
 30
0.0
  0
VERTEX
  5
815
  8
0
 10
13.0993651166782996
 20
88.5212131178611941
 30
0.0
  0
VERTEX
  5
816
  8
0
 10
13.0993651166782996
 20
79.5924954279951038
 30
0.0
  0
VERTEX
  5
817
  8
0
 10
16.6286218954493314
 20
81.7212131178746546
 30
0.0
  0
VERTEX
  5
818
  8
0
 10
15.4286218954481402
 20
81.7212131178746546
 30
0.0
 42
-0.4142135623730744
  0
VERTEX
  5
819
  8
0
 10
15.1286218954475
 20
82.0212131178738986
 30
0.0
  0
SEQEND
  5
81A
  8
0
  0
POLYLINE
  5
2B3
  8
0
 66
     1
 10
0.0
 20
0.0
 30
0.0
 70
     1
  0
VERTEX
  5
81B
  8
0
 10
20.1286218954484184
 20
92.5212131178738844
 30
0.0
 42
0.8373990671681339
  0
VERTEX
  5
81C
  8
0
 10
18.190303165050981
 20
92.8669846611860663
 30
0.0
 42
-0.384371134366659
  0
VERTEX
  5
81D
  8
0
 10
17.6101517398334302
 20
92.5322621949341766
 30
0.0
  0
VERTEX
  5
81E
  8
0
 10
13.0876864305301908
 20
93.499114963749193
 30
0.0
 42
0.1057001567184322
  0
VERTEX
  5
81F
  8
0
 10
12.6695573603638998
 20
93.499114963749193
 30
0.0
  0
VERTEX
  5
820
  8
0
 10
8.1470920510770366
 20
92.5322621949341766
 30
0.0
 42
-0.3843711343793373
  0
VERTEX
  5
821
  8
0
 10
7.5669406258522249
 20
92.8669846612067289
 30
0.0
 42
0.8373990671621715
  0
VERTEX
  5
822
  8
0
 10
5.628621895447508
 20
92.5212131178738844
 30
0.0
  0
VERTEX
  5
823
  8
0
 10
5.628621895447508
 20
82.0212131178738986
 30
0.0
 42
0.4142135623730951
  0
VERTEX
  5
824
  8
0
 10
5.9286218954472352
 20
81.7212131178746546
 30
0.0
  0
VERTEX
  5
825
  8
0
 10
6.8286218954473261
 20
81.7212131178746546
 30
0.0
 42
0.4142135623731091
  0
VERTEX
  5
826
  8
0
 10
7.1286218954475071
 20
82.0212131178738986
 30
0.0
  0
VERTEX
  5
827
  8
0
 10
7.1286218954475071
 20
90.2212131178732619
 30
0.0
 42
-0.4142135623731091
  0
VERTEX
  5
828
  8
0
 10
7.4286218954472352
 20
90.5212131178738986
 30
0.0
  0
VERTEX
  5
829
  8
0
 10
14.8286218954473199
 20
90.5212131178738986
 30
0.0
 42
-0.4142135623731438
  0
VERTEX
  5
82A
  8
0
 10
15.1286218954475
 20
90.2212131178732619
 30
0.0
  0
VERTEX
  5
82B
  8
0
 10
15.1286218954475
 20
87.5294706873689705
 30
0.0
  0
VERTEX
  5
82C
  8
0
 10
15.1286218954475
 20
82.0212131178738986
 30
0.0
 42
0.4142135623730815
  0
VERTEX
  5
82D
  8
0
 10
15.4286218954481402
 20
81.7212131178746546
 30
0.0
  0
VERTEX
  5
82E
  8
0
 10
19.8286218954473199
 20
81.7212131178746546
 30
0.0
 42
0.4142135623730189
  0
VERTEX
  5
82F
  8
0
 10
20.1286218954475089
 20
82.0212131178738986
 30
0.0
  0
VERTEX
  5
830
  8
0
 10
20.1286218954484184
 20
83.7712131178732307
 30
0.0
 42
1.0
  0
VERTEX
  5
831
  8
0
 10
19.1286218954474982
 20
83.7712131178732307
 30
0.0
  0
VERTEX
  5
832
  8
0
 10
19.1286218954474982
 20
83.4212131178740037
 30
0.0
  0
VERTEX
  5
833
  8
0
 10
19.1286218954474982
 20
83.3212131178738531
 30
0.0
 42
-0.4142135623730951
  0
VERTEX
  5
834
  8
0
 10
18.8286218954473306
 20
83.0212131178732164
 30
0.0
  0
VERTEX
  5
835
  8
0
 10
18.1286218954588811
 20
83.0212131178732164
 30
0.0
 42
-0.4142135623730744
  0
VERTEX
  5
836
  8
0
 10
17.8286218954591398
 20
83.3212131178738531
 30
0.0
  0
VERTEX
  5
837
  8
0
 10
17.8286218954591398
 20
90.2212131178732619
 30
0.0
 42
-0.4142135623731161
  0
VERTEX
  5
838
  8
0
 10
18.1286218954588811
 20
90.5212131178738986
 30
0.0
  0
VERTEX
  5
839
  8
0
 10
18.8286218954473306
 20
90.5212131178738986
 30
0.0
 42
-0.4142135623730951
  0
VERTEX
  5
83A
  8
0
 10
19.1286218954474982
 20
90.2212131178732619
 30
0.0
  0
VERTEX
  5
83B
  8
0
 10
19.1286218954474982
 20
89.7712131178738986
 30
0.0
 42
1.0
  0
VERTEX
  5
83C
  8
0
 10
20.1286218954484184
 20
89.7712131178738986
 30
0.0
  0
SEQEND
  5
83D
  8
0
  0
POLYLINE
  5
2B4
  8
0
 66
     1
 10
0.0
 20
0.0
 30
0.0
 70
     1
  0
VERTEX
  5
83E
  8
0
 10
50.5455181268622411
 20
70.9189509308803281
 30
0.0
  0
VERTEX
  5
83F
  8
0
 10
49.3310602063989876
 20
76.7313929593194501
 30
0.0
 42
0.2259663871192417
  0
VERTEX
  5
840
  8
0
 10
48.1593983018543526
 20
78.2712131178738986
 30
0.0
  0
VERTEX
  5
841
  8
0
 10
46.0978454890547482
 20
78.2712131178738986
 30
0.0
 42
0.2259663871192072
  0
VERTEX
  5
842
  8
0
 10
44.9261835845096371
 20
76.7313929593194501
 30
0.0
  0
VERTEX
  5
843
  8
0
 10
43.7117256640482168
 20
70.9189509308880588
 30
0.0
 42
-0.3550928276014366
  0
VERTEX
  5
844
  8
0
 10
43.222294928278302
 20
70.5212131178732307
 30
0.0
  0
VERTEX
  5
845
  8
0
 10
39.6786218954504193
 20
70.5212131178732307
 30
0.0
  0
VERTEX
  5
846
  8
0
 10
39.1786218954490479
 20
70.0212131178732307
 30
0.0
  0
VERTEX
  5
847
  8
0
 10
38.6786218954504193
 20
70.5212131178732307
 30
0.0
  0
VERTEX
  5
848
  8
0
 10
34.9286218954504193
 20
70.5212131178732307
 30
0.0
 42
-0.4142135623730951
  0
VERTEX
  5
849
  8
0
 10
34.4286218954504193
 20
71.0212131178732307
 30
0.0
  0
VERTEX
  5
84A
  8
0
 10
34.4286218954504193
 20
78.0212131178732307
 30
0.0
 42
0.4142135623730951
  0
VERTEX
  5
84B
  8
0
 10
33.9286218954504193
 20
78.5212131178732307
 30
0.0
  0
VERTEX
  5
84C
  8
0
 10
13.0993651166782996
 20
78.5212131178732307
 30
0.0
  0
VERTEX
  5
84D
  8
0
 10
13.0993651166782996
 20
76.0233235973259838
 30
0.0
  0
VERTEX
  5
84E
  8
0
 10
31.4286218954504193
 20
76.0212131178732307
 30
0.0
 42
-0.4142135623730371
  0
VERTEX
  5
84F
  8
0
 10
31.9286218954504193
 20
75.5212131178732307
 30
0.0
  0
VERTEX
  5
850
  8
0
 10
31.9286218954504193
 20
61.7712131178732307
 30
0.0
 42
0.4691981564903517
  0
VERTEX
  5
851
  8
0
 10
32.2243675287387603
 20
61.525434076792628
 30
0.0
  0
VERTEX
  5
852
  8
0
 10
34.2243675287387603
 20
61.525434076792628
 30
0.0
 42
0.3612867611935206
  0
VERTEX
  5
853
  8
0
 10
34.4286218954504193
 20
61.7712131178732307
 30
0.0
  0
VERTEX
  5
854
  8
0
 10
34.4286218954504193
 20
67.5212131178732307
 30
0.0
 42
-0.4142135623730951
  0
VERTEX
  5
855
  8
0
 10
34.9286218954504193
 20
68.0212131178732307
 30
0.0
  0
VERTEX
  5
856
  8
0
 10
45.1286218954475018
 20
68.0212131178732307
 30
0.0
 42
-0.4142135623730951
  0
VERTEX
  5
857
  8
0
 10
45.6286218954475018
 20
67.5212131178732307
 30
0.0
  0
VERTEX
  5
858
  8
0
 10
45.6286218954475018
 20
61.7712131178732307
 30
0.0
 42
0.4691981564890836
  0
VERTEX
  5
859
  8
0
 10
45.9243675287358428
 20
61.5254340767912709
 30
0.0
  0
VERTEX
  5
85A
  8
0
 10
48.4243675287358428
 20
61.5254340767912709
 30
0.0
 42
0.3612867611947535
  0
VERTEX
  5
85B
  8
0
 10
48.6286218954475018
 20
61.7712131178732307
 30
0.0
  0
VERTEX
  5
85C
  8
0
 10
48.6286218954475018
 20
67.5212131178732307
 30
0.0
 42
-0.4142135623730951
  0
VERTEX
  5
85D
  8
0
 10
49.1286218954475018
 20
68.0212131178732307
 30
0.0
  0
VERTEX
  5
85E
  8
0
 10
59.3286218954441367
 20
68.0212131178732307
 30
0.0
 42
-0.4142135623723542
  0
VERTEX
  5
85F
  8
0
 10
59.8286218954441296
 20
67.5212131178739128
 30
0.0
  0
VERTEX
  5
860
  8
0
 10
59.8286218954582623
 20
61.7712131178723212
 30
0.0
 42
0.4691981564870022
  0
VERTEX
  5
861
  8
0
 10
60.124367528746113
 20
61.5254340767912709
 30
0.0
  0
VERTEX
  5
862
  8
0
 10
62.124367528746113
 20
61.5254340767912709
 30
0.0
 42
0.3612867611958888
  0
VERTEX
  5
863
  8
0
 10
62.3286218954591433
 20
61.7712131178732307
 30
0.0
  0
VERTEX
  5
864
  8
0
 10
62.3286218954591433
 20
75.5212131178732307
 30
0.0
 42
-0.4142135623730951
  0
VERTEX
  5
865
  8
0
 10
62.8286218954582409
 20
76.0212131178732307
 30
0.0
  0
VERTEX
  5
866
  8
0
 10
73.3286218954473412
 20
76.0212131178732307
 30
0.0
 42
-0.4142135623730951
  0
VERTEX
  5
867
  8
0
 10
73.6286218954475089
 20
75.7212131178732335
 30
0.0
  0
VERTEX
  5
868
  8
0
 10
73.6286218954475089
 20
75.3212131178734126
 30
0.0
 42
0.4142135623731923
  0
VERTEX
  5
869
  8
0
 10
73.9286218954472218
 20
75.0212131178732307
 30
0.0
  0
VERTEX
  5
86A
  8
0
 10
78.6286218954525111
 20
75.0212131178738986
 30
0.0
  0
VERTEX
  5
86B
  8
0
 10
78.6286218954475089
 20
78.2212131178723666
 30
0.0
 42
0.4142135623729181
  0
VERTEX
  5
86C
  8
0
 10
78.3286218954473412
 20
78.5212131178723212
 30
0.0
  0
VERTEX
  5
86D
  8
0
 10
76.6286218954475089
 20
78.5212131178732307
 30
0.0
  0
VERTEX
  5
86E
  8
0
 10
76.1286218954475089
 20
78.0212131178732307
 30
0.0
  0
VERTEX
  5
86F
  8
0
 10
75.6286218954475089
 20
78.5212131178732307
 30
0.0
  0
VERTEX
  5
870
  8
0
 10
60.0786218954582409
 20
78.5212131178732307
 30
0.0
 42
0.4142135623730951
  0
VERTEX
  5
871
  8
0
 10
59.8286218954582623
 20
78.2712131178732307
 30
0.0
  0
VERTEX
  5
872
  8
0
 10
59.8286218954582623
 20
71.0212131178732307
 30
0.0
 42
-0.4142135623730951
  0
VERTEX
  5
873
  8
0
 10
59.3286218954582409
 20
70.5212131178732307
 30
0.0
  0
VERTEX
  5
874
  8
0
 10
55.5786218954591504
 20
70.5212131178732307
 30
0.0
  0
VERTEX
  5
875
  8
0
 10
55.0786218954591504
 20
70.0212131178732307
 30
0.0
  0
VERTEX
  5
876
  8
0
 10
54.5786218954582409
 20
70.5212131178732307
 30
0.0
  0
VERTEX
  5
877
  8
0
 10
51.0349488626212704
 20
70.5212131178732307
 30
0.0
 42
-0.3550928276014593
  0
SEQEND
  5
878
  8
0
  0
POLYLINE
  5
2B5
  8
0
 66
     1
 10
0.0
 20
0.0
 30
0.0
 70
     1
  0
VERTEX
  5
879
  8
0
 10
153.6286218954473952
 20
89.221213117871244
 30
0.0
  0
VERTEX
  5
87A
  8
0
 10
153.0428354578203027
 20
90.635426680244322
 30
0.0
  0
VERTEX
  5
87B
  8
0
 10
151.6286218954473952
 20
91.221213117871244
 30
0.0
  0
VERTEX
  5
87C
  8
0
 10
80.6286218954474947
 20
91.221213117871244
 30
0.0
  0
VERTEX
  5
87D
  8
0
 10
79.2144083330741609
 20
90.635426680244322
 30
0.0
  0
VERTEX
  5
87E
  8
0
 10
78.6286218954475089
 20
89.221213117871244
 30
0.0
  0
VERTEX
  5
87F
  8
0
 10
78.6286218954525111
 20
75.0212131178738986
 30
0.0
  0
VERTEX
  5
880
  8
0
 10
73.0286218954489641
 20
75.0212131178723212
 30
0.0
  0
VERTEX
  5
881
  8
0
 10
73.0286218954489641
 20
75.7712131178732307
 30
0.0
  0
VERTEX
  5
882
  8
0
 10
71.0286218954489783
 20
75.7712131178732307
 30
0.0
  0
VERTEX
  5
883
  8
0
 10
71.0286218954489783
 20
61.5254340767912709
 30
0.0
  0
VERTEX
  5
884
  8
0
 10
74.0286218954489641
 20
61.5254340767912709
 30
0.0
  0
VERTEX
  5
885
  8
0
 10
74.0286218954489641
 20
63.5212131178732307
 30
0.0
  0
VERTEX
  5
886
  8
0
 10
73.0286218954489641
 20
63.5212131178732307
 30
0.0
  0
VERTEX
  5
887
  8
0
 10
73.0286218954489641
 20
73.0212131178723212
 30
0.0
  0
VERTEX
  5
888
  8
0
 10
80.6286218954474947
 20
73.0212131178723212
 30
0.0
  0
VERTEX
  5
889
  8
0
 10
80.6286218954474947
 20
89.221213117871244
 30
0.0
  0
VERTEX
  5
88A
  8
0
 10
114.1286218954473952
 20
89.221213117871244
 30
0.0
  0
VERTEX
  5
88B
  8
0
 10
114.1286218954473952
 20
63.5212131178754902
 30
0.0
  0
VERTEX
  5
88C
  8
0
 10
113.1286218954484042
 20
63.5212131178754902
 30
0.0
  0
VERTEX
  5
88D
  8
0
 10
113.1286218954484042
 20
61.5212131178738986
 30
0.0
  0
VERTEX
  5
88E
  8
0
 10
116.1286218954473952
 20
61.5212131178738986
 30
0.0
  0
VERTEX
  5
88F
  8
0
 10
116.1286218954473952
 20
89.2212131178732761
 30
0.0
  0
VERTEX
  5
890
  8
0
 10
151.6286218954473952
 20
89.2212131178723666
 30
0.0
  0
VERTEX
  5
891
  8
0
 10
151.6286218954473952
 20
63.5212131178738986
 30
0.0
  0
VERTEX
  5
892
  8
0
 10
150.6286218954473952
 20
63.5212131178738986
 30
0.0
  0
VERTEX
  5
893
  8
0
 10
150.6286218954473952
 20
61.5212131178738986
 30
0.0
  0
VERTEX
  5
894
  8
0
 10
153.6286218954473952
 20
61.5212131178738986
 30
0.0
  0
SEQEND
  5
895
  8
0
  0
POLYLINE
  5
2B6
  8
0
 66
     1
 10
0.0
 20
0.0
 30
0.0
 70
     1
  0
VERTEX
  5
896
  8
0
 10
158.3786218954475089
 20
61.5212131178738986
 30
0.0
  0
VERTEX
  5
897
  8
0
 10
108.3786218954473952
 20
61.5212131178738986
 30
0.0
  0
VERTEX
  5
898
  8
0
 10
108.3786218954473952
 20
30.5254340767912709
 30
0.0
  0
VERTEX
  5
899
  8
0
 10
158.3786218954475089
 20
30.5254340767912709
 30
0.0
  0
SEQEND
  5
89A
  8
0
  0
POLYLINE
  5
2B7
  8
0
 66
     1
 10
0.0
 20
0.0
 30
0.0
 70
     1
  0
VERTEX
  5
89B
  8
0
 10
169.0993651166783138
 20
30.5254340767912709
 30
0.0
  0
VERTEX
  5
89C
  8
0
 10
87.0993651166783138
 20
30.5254340767912709
 30
0.0
 42
-0.4142135623730951
  0
VERTEX
  5
89D
  8
0
 10
85.0993651166783138
 20
32.5254340767912709
 30
0.0
  0
VERTEX
  5
89E
  8
0
 10
85.0993651166783138
 20
57.5254340767912709
 30
0.0
 42
0.4142135623730911
  0
VERTEX
  5
89F
  8
0
 10
81.0993651166783138
 20
61.5254340767912709
 30
0.0
  0
VERTEX
  5
8A0
  8
0
 10
15.0993651166782996
 20
61.525434076792628
 30
0.0
 42
-0.4142135623730911
  0
VERTEX
  5
8A1
  8
0
 10
13.0993651166782996
 20
63.525434076792628
 30
0.0
  0
VERTEX
  5
8A2
  8
0
 10
13.0993651166782996
 20
88.5212131178611941
 30
0.0
  0
VERTEX
  5
8A3
  8
0
 10
9.0993651166783138
 20
88.521213117860043
 30
0.0
  0
VERTEX
  5
8A4
  8
0
 10
9.0993651166783138
 20
61.525434076792628
 30
0.0
 42
0.4142135623730869
  0
VERTEX
  5
8A5
  8
0
 10
13.0993651166782996
 20
57.5254340767933172
 30
0.0
  0
VERTEX
  5
8A6
  8
0
 10
79.0993651166783138
 20
57.5254340767912709
 30
0.0
 42
-0.4142135623730866
  0
VERTEX
  5
8A7
  8
0
 10
81.0993651166783138
 20
55.5254340767912709
 30
0.0
  0
VERTEX
  5
8A8
  8
0
 10
81.0993651166783138
 20
30.5254340767912709
 30
0.0
 42
0.4142135623730982
  0
VERTEX
  5
8A9
  8
0
 10
85.0993651166783138
 20
26.5254340767912709
 30
0.0
  0
VERTEX
  5
8AA
  8
0
 10
167.0993651166783138
 20
26.5254340767926315
 30
0.0
 42
-0.4142135623730982
  0
VERTEX
  5
8AB
  8
0
 10
169.0993651166783138
 20
24.5254340767926386
 30
0.0
  0
VERTEX
  5
8AC
  8
0
 10
169.0993651166783138
 20
4.5254340767912691
 30
0.0
  0
VERTEX
  5
8AD
  8
0
 10
173.0993651166783138
 20
4.5254340767912691
 30
0.0
  0
VERTEX
  5
8AE
  8
0
 10
173.0993651166783138
 20
26.5254340767912709
 30
0.0
 42
0.4142135623730958
  0
SEQEND
  5
8AF
  8
0
  0
ENDSEC
  0
EOF
