  0
SECTION
  2
HEADER
  9
$ACADVER
  1
AC1009
  9
$INSBASE
 10
0.0
 20
0.0
 30
0.0
  9
$EXTMIN
 10
2.5152899499881878
 20
2.549575746426759
 30
0.0
  9
$EXTMAX
 10
143.6057162352554997
 20
68.4010532138560308
 30
0.0
  9
$LIMMIN
 10
0.0
 20
0.0
  9
$LIMMAX
 10
420.0
 20
297.0
  9
$ORTHOMODE
 70
     1
  9
$REGENMODE
 70
     1
  9
$FILLMODE
 70
     1
  9
$QTEXTMODE
 70
     0
  9
$MIRRTEXT
 70
     0
  9
$DRAGMODE
 70
     2
  9
$LTSCALE
 40
1.0
  9
$OSMODE
 70
   167
  9
$ATTMODE
 70
     1
  9
$TEXTSIZE
 40
2.5
  9
$TRACEWID
 40
1.0
  9
$TEXTSTYLE
  7
STANDARD
  9
$CLAYER
  8
0
  9
$CELTYPE
  6
BYLAYER
  9
$CECOLOR
 62
    32
  9
$DIMSCALE
 40
1.0
  9
$DIMASZ
 40
2.5
  9
$DIMEXO
 40
0.625
  9
$DIMDLI
 40
3.75
  9
$DIMRND
 40
0.0
  9
$DIMDLE
 40
0.0
  9
$DIMEXE
 40
1.25
  9
$DIMTP
 40
0.0
  9
$DIMTM
 40
0.0
  9
$DIMTXT
 40
2.5
  9
$DIMCEN
 40
2.5
  9
$DIMTSZ
 40
0.0
  9
$DIMTOL
 70
     0
  9
$DIMLIM
 70
     0
  9
$DIMTIH
 70
     0
  9
$DIMTOH
 70
     0
  9
$DIMSE1
 70
     0
  9
$DIMSE2
 70
     0
  9
$DIMTAD
 70
     1
  9
$DIMZIN
 70
     8
  9
$DIMBLK
  1

  9
$DIMASO
 70
     1
  9
$DIMSHO
 70
     1
  9
$DIMPOST
  1

  9
$DIMAPOST
  1

  9
$DIMALT
 70
     0
  9
$DIMALTD
 70
     3
  9
$DIMALTF
 40
0.03937007874016
  9
$DIMLFAC
 40
1.0
  9
$DIMTOFL
 70
     1
  9
$DIMTVP
 40
0.0
  9
$DIMTIX
 70
     0
  9
$DIMSOXD
 70
     0
  9
$DIMSAH
 70
     0
  9
$DIMBLK1
  1

  9
$DIMBLK2
  1

  9
$DIMSTYLE
  2
ISO-25
  9
$DIMCLRD
 70
     0
  9
$DIMCLRE
 70
     0
  9
$DIMCLRT
 70
     0
  9
$DIMTFAC
 40
1.0
  9
$DIMGAP
 40
0.625
  9
$LUNITS
 70
     2
  9
$LUPREC
 70
     4
  9
$SKETCHINC
 40
1.0
  9
$FILLETRAD
 40
0.0
  9
$AUNITS
 70
     0
  9
$AUPREC
 70
     0
  9
$MENU
  1
.
  9
$ELEVATION
 40
0.0
  9
$PELEVATION
 40
0.0
  9
$THICKNESS
 40
0.0
  9
$LIMCHECK
 70
     0
  9
$BLIPMODE
 70
     0
  9
$CHAMFERA
 40
0.0
  9
$CHAMFERB
 40
0.0
  9
$SKPOLY
 70
     0
  9
$TDCREATE
 40
2458871.4624768518842757
  9
$TDUPDATE
 40
2458871.4754050928167999
  9
$TDINDWG
 40
0.0121412037
  9
$TDUSRTIMER
 40
0.0121412037
  9
$USRTIMER
 70
     1
  9
$ANGBASE
 50
0.0
  9
$ANGDIR
 70
     0
  9
$PDMODE
 70
     0
  9
$PDSIZE
 40
0.0
  9
$PLINEWID
 40
0.0
  9
$COORDS
 70
     1
  9
$SPLFRAME
 70
     0
  9
$SPLINETYPE
 70
     6
  9
$SPLINESEGS
 70
     8
  9
$ATTDIA
 70
     1
  9
$ATTREQ
 70
     1
  9
$HANDLING
 70
     1
  9
$HANDSEED
  5
1A59
  9
$SURFTAB1
 70
     6
  9
$SURFTAB2
 70
     6
  9
$SURFTYPE
 70
     6
  9
$SURFU
 70
     6
  9
$SURFV
 70
     6
  9
$UCSNAME
  2

  9
$UCSORG
 10
0.0
 20
0.0
 30
0.0
  9
$UCSXDIR
 10
1.0
 20
0.0
 30
0.0
  9
$UCSYDIR
 10
0.0
 20
1.0
 30
0.0
  9
$PUCSNAME
  2

  9
$PUCSORG
 10
0.0
 20
0.0
 30
0.0
  9
$PUCSXDIR
 10
1.0
 20
0.0
 30
0.0
  9
$PUCSYDIR
 10
0.0
 20
1.0
 30
0.0
  9
$USERI1
 70
     0
  9
$USERI2
 70
     0
  9
$USERI3
 70
     0
  9
$USERI4
 70
     0
  9
$USERI5
 70
     0
  9
$USERR1
 40
0.0
  9
$USERR2
 40
0.0
  9
$USERR3
 40
0.0
  9
$USERR4
 40
0.0
  9
$USERR5
 40
0.0
  9
$WORLDVIEW
 70
     1
  9
$SHADEDGE
 70
     3
  9
$SHADEDIF
 70
    70
  9
$TILEMODE
 70
     1
  9
$MAXACTVP
 70
    64
  9
$PLIMCHECK
 70
     0
  9
$PEXTMIN
 10
0.0
 20
0.0
 30
0.0
  9
$PEXTMAX
 10
0.0
 20
0.0
 30
0.0
  9
$PLIMMIN
 10
0.0
 20
0.0
  9
$PLIMMAX
 10
12.0
 20
9.0
  9
$UNITMODE
 70
     0
  9
$VISRETAIN
 70
     1
  9
$PLINEGEN
 70
     0
  9
$PSLTSCALE
 70
     1
  0
ENDSEC
  0
SECTION
  2
TABLES
  0
TABLE
  2
VPORT
 70
     1
  0
VPORT
  2
*ACTIVE
 70
     0
 10
0.0
 20
0.0
 11
1.0
 21
1.0
 12
181.7047966615104997
 22
81.6279421054423437
 13
0.0
 23
0.0
 14
10.0
 24
10.0
 15
10.0
 25
10.0
 16
0.0
 26
0.0
 36
1.0
 17
0.0
 27
0.0
 37
0.0
 40
281.7965656071900753
 41
2.29156626506024
 42
50.0
 43
0.0
 44
0.0
 50
0.0
 51
0.0
 71
     0
 72
  1000
 73
     1
 74
     3
 75
     0
 76
     1
 77
     0
 78
     0
  0
ENDTAB
  0
TABLE
  2
LTYPE
 70
     1
  0
LTYPE
  2
CONTINUOUS
 70
     0
  3
Solid line
 72
    65
 73
     0
 40
0.0
  0
ENDTAB
  0
TABLE
  2
LAYER
 70
     2
  0
LAYER
  2
0
 70
     0
 62
     7
  6
CONTINUOUS
  0
LAYER
  2
DEFPOINTS
 70
     0
 62
     7
  6
CONTINUOUS
  0
ENDTAB
  0
TABLE
  2
STYLE
 70
     4
  0
STYLE
  2
STANDARD
 70
     0
 40
0.0
 41
1.0
 50
0.0
 71
     0
 42
2.5
  3
txt
  4

  0
ENDTAB
  0
TABLE
  2
VIEW
 70
     0
  0
ENDTAB
  0
TABLE
  2
UCS
 70
     0
  0
ENDTAB
  0
TABLE
  2
APPID
 70
    20
  0
APPID
  2
ACAD
 70
     0
  0
APPID
  2
ACADANNOTATIVE
 70
     0
  0
APPID
  2
ACAD_PSEXT
 70
     0
  0
APPID
  2
ACADANNOPO
 70
     0
  0
APPID
  2
ACAD_DSTYLE_DIMJAG
 70
     0
  0
APPID
  2
ACAD_DSTYLE_DIMTALN
 70
     0
  0
APPID
  2
ACAD_MLEADERVER
 70
     0
  0
APPID
  2
ACAD_NAV_VCDISPLAY
 70
     0
  0
APPID
  2
ACAD_DSTYLE_DIMBREAK
 70
     0
  0
APPID
  2
ACAECLAYERSTANDARD
 70
     0
  0
APPID
  2
ACAUTHENVIRON
 70
     0
  0
APPID
  2
ACDBDYNAMICBLOCKTRUENAME
 70
     0
  0
APPID
  2
ACDBDYNAMICBLOCKGUID
 70
     0
  0
APPID
  2
ACCMTRANSPARENCY
 70
     0
  0
APPID
  2
ACDBBLOCKREPETAG
 70
     0
  0
APPID
  2
GRADIENTCOLOR1ACI
 70
     0
  0
APPID
  2
GRADIENTCOLOR2ACI
 70
     0
  0
APPID
  2
ACDBBLOCKREPBTAG
 70
     0
  0
APPID
  2
ACDBBLOCKARRAYACTIONTAG
 70
     0
  0
APPID
  2
ACAD_EXEMPT_FROM_CAD_STANDARDS
 70
     0
  0
ENDTAB
  0
TABLE
  2
DIMSTYLE
 70
     3
  0
DIMSTYLE
  2
STANDARD
 70
     0
  3

  4

  5

  6

  7

 40
1.0
 41
0.18
 42
0.0625
 43
0.38
 44
0.18
 45
0.0
 46
0.0
 47
0.0
 48
0.0
140
0.18
141
0.09
142
0.0
143
25.3999999999999986
144
1.0
145
0.0
146
1.0
147
0.09
 71
     0
 72
     0
 73
     1
 74
     1
 75
     0
 76
     0
 77
     0
 78
     0
170
     0
171
     2
172
     0
173
     0
174
     0
175
     0
176
     0
177
     0
178
     0
  0
DIMSTYLE
  2
ISO-25
 70
     0
  3

  4

  5

  6

  7

 40
1.0
 41
2.5
 42
0.625
 43
3.75
 44
1.25
 45
0.0
 46
0.0
 47
0.0
 48
0.0
140
2.5
141
2.5
142
0.0
143
0.03937007874016
144
1.0
145
0.0
146
1.0
147
0.625
 71
     0
 72
     0
 73
     0
 74
     0
 75
     0
 76
     0
 77
     1
 78
     8
170
     0
171
     3
172
     1
173
     0
174
     0
175
     0
176
     0
177
     0
178
     0
  0
ENDTAB
  0
ENDSEC
  0
SECTION
  2
BLOCKS
  0
BLOCK
  8
0
  2
$MODEL_SPACE
 70
     0
 10
0.0
 20
0.0
 30
0.0
  3
$MODEL_SPACE
  1

  0
ENDBLK
  5
178B
  8
0
  0
BLOCK
 67
     1
  8
0
  2
$PAPER_SPACE
 70
     0
 10
0.0
 20
0.0
 30
0.0
  3
$PAPER_SPACE
  1

  0
ENDBLK
  5
1787
 67
     1
  8
0
  0
ENDSEC
  0
SECTION
  2
ENTITIES
  0
POLYLINE
  5
BC4
  8
0
 62
    32
 66
     1
 10
0.0
 20
0.0
 30
0.0
 70
     1
  0
VERTEX
  5
17C9
  8
0
 62
    32
 10
38.8444845010027322
 20
50.4532297698686776
 30
0.0
 42
0.2914734195861674
  0
VERTEX
  5
17CA
  8
0
 62
    32
 10
39.116376837112611
 20
50.2800152483904412
 30
0.0
  0
VERTEX
  5
17CB
  8
0
 62
    32
 10
40.5898452789903033
 20
50.2800152483915568
 30
0.0
 42
-0.142197656026282
  0
VERTEX
  5
17CC
  8
0
 62
    32
 10
40.750470731141931
 20
50.2333913801024892
 30
0.0
  0
VERTEX
  5
17CD
  8
0
 62
    32
 10
41.0943238037472227
 20
50.015408909188281
 30
0.0
 42
0.5070356667008996
  0
VERTEX
  5
17CE
  8
0
 62
    32
 10
40.6069274429056435
 20
49.7198034221918306
 30
0.0
  0
VERTEX
  5
17CF
  8
0
 62
    32
 10
40.6069274429056435
 20
48.4472369528278932
 30
0.0
 42
0.2568852938753162
  0
VERTEX
  5
17D0
  8
0
 62
    32
 10
41.0715092155352224
 20
47.6026498810578005
 30
0.0
  0
VERTEX
  5
17D1
  8
0
 62
    32
 10
43.1883458269168088
 20
46.2607007274637994
 30
0.0
  0
VERTEX
  5
17D2
  8
0
 62
    32
 10
24.7551547095164395
 20
46.2607007274637994
 30
0.0
 42
0.1421976721923538
  0
VERTEX
  5
17D3
  8
0
 62
    32
 10
24.9157801777279317
 20
46.3073246059326422
 30
0.0
  0
VERTEX
  5
17D4
  8
0
 62
    32
 10
26.9590706844438692
 20
47.6026498810578005
 30
0.0
 42
0.2568852938753144
  0
VERTEX
  5
17D5
  8
0
 62
    32
 10
27.4236524570743398
 20
48.4472369528278932
 30
0.0
  0
VERTEX
  5
17D6
  8
0
 62
    32
 10
27.4236524570743398
 20
49.6583393678880682
 30
0.0
 42
0.5630482836081404
  0
VERTEX
  5
17D7
  8
0
 62
    32
 10
26.9362560962287105
 20
50.0154089091876131
 30
0.0
  0
VERTEX
  5
17D8
  8
0
 62
    32
 10
27.2801091688348798
 20
50.2333913801024892
 30
0.0
 42
-0.1421976560262375
  0
VERTEX
  5
17D9
  8
0
 62
    32
 10
27.4407346209883301
 20
50.2800152483915568
 30
0.0
  0
VERTEX
  5
17DA
  8
0
 62
    32
 10
28.9142030628660116
 20
50.2800152483915568
 30
0.0
 42
0.2914734195861716
  0
VERTEX
  5
17DB
  8
0
 62
    32
 10
29.1860953989768106
 20
50.4532297698696084
 30
0.0
  0
VERTEX
  5
17DC
  8
0
 62
    32
 10
30.63331430387381
 20
53.5568007269138207
 30
0.0
 42
-0.2914734195861326
  0
VERTEX
  5
17DD
  8
0
 62
    32
 10
30.9052066399832412
 20
53.7300152483916165
 30
0.0
  0
VERTEX
  5
17DE
  8
0
 62
    32
 10
37.1253732599949373
 20
53.7300152483916165
 30
0.0
 42
-0.2914734195861639
  0
VERTEX
  5
17DF
  8
0
 62
    32
 10
37.3972655961039067
 20
53.5568007269138207
 30
0.0
  0
SEQEND
  5
17E0
  8
0
 62
    32
  0
POLYLINE
  5
BC5
  8
0
 62
    32
 66
     1
 10
0.0
 20
0.0
 30
0.0
 70
     1
  0
VERTEX
  5
17E1
  8
0
 62
    32
 10
40.2118635852399322
 20
52.9985631911298469
 30
0.0
 42
0.3700928233967419
  0
VERTEX
  5
17E2
  8
0
 62
    32
 10
40.457512696863553
 20
52.9121446761104082
 30
0.0
  0
VERTEX
  5
17E3
  8
0
 62
    32
 10
42.506057122246709
 20
53.7082287736203625
 30
0.0
 42
-0.1979075106141122
  0
VERTEX
  5
17E4
  8
0
 62
    32
 10
42.6583848185292567
 20
53.7051640156174486
 30
0.0
 42
-0.5160073444618229
  0
VERTEX
  5
17E5
  8
0
 62
    32
 10
43.0569274429045592
 20
53.421810259367831
 30
0.0
  0
VERTEX
  5
17E6
  8
0
 62
    32
 10
43.0569274429041116
 20
49.3107007244813076
 30
0.0
 42
-0.414213562373064
  0
VERTEX
  5
17E7
  8
0
 62
    32
 10
42.8569274429056577
 20
49.1107007244823919
 30
0.0
  0
VERTEX
  5
17E8
  8
0
 62
    32
 10
42.5794946196421122
 20
49.1107007244823919
 30
0.0
 42
-0.1421976560262388
  0
VERTEX
  5
17E9
  8
0
 62
    32
 10
42.4724109848740312
 20
49.1417833033418603
 30
0.0
  0
VERTEX
  5
17EA
  8
0
 62
    32
 10
40.750470731141931
 20
50.2333913801024892
 30
0.0
 42
0.1421976560262457
  0
VERTEX
  5
17EB
  8
0
 62
    32
 10
40.5898452789903033
 20
50.2800152483915568
 30
0.0
  0
VERTEX
  5
17EC
  8
0
 62
    32
 10
39.116376837112611
 20
50.2800152483904412
 30
0.0
 42
-0.2914734195861567
  0
VERTEX
  5
17ED
  8
0
 62
    32
 10
38.8444845010027322
 20
50.4532297698686776
 30
0.0
  0
VERTEX
  5
17EE
  8
0
 62
    32
 10
37.3972655961039067
 20
53.5568007269138207
 30
0.0
 42
0.2914734195861326
  0
VERTEX
  5
17EF
  8
0
 62
    32
 10
37.1253732599949373
 20
53.7300152483916165
 30
0.0
  0
VERTEX
  5
17F0
  8
0
 62
    32
 10
30.9052066399832412
 20
53.7300152483916165
 30
0.0
 42
0.2914734195861639
  0
VERTEX
  5
17F1
  8
0
 62
    32
 10
30.63331430387381
 20
53.5568007269138207
 30
0.0
  0
VERTEX
  5
17F2
  8
0
 62
    32
 10
29.1860953989768106
 20
50.4532297698696084
 30
0.0
 42
-0.2914734195861716
  0
VERTEX
  5
17F3
  8
0
 62
    32
 10
28.9142030628660116
 20
50.2800152483915568
 30
0.0
  0
VERTEX
  5
17F4
  8
0
 62
    32
 10
27.4407346209883301
 20
50.2800152483915568
 30
0.0
 42
0.1421976560262514
  0
VERTEX
  5
17F5
  8
0
 62
    32
 10
27.2801091688348798
 20
50.2333913801024892
 30
0.0
  0
VERTEX
  5
17F6
  8
0
 62
    32
 10
25.558168915103689
 20
49.1417833033418603
 30
0.0
 42
-0.1421976560262665
  0
VERTEX
  5
17F7
  8
0
 62
    32
 10
25.4510852803370007
 20
49.1107007244823919
 30
0.0
  0
VERTEX
  5
17F8
  8
0
 62
    32
 10
25.1736524570743612
 20
49.1107007244814824
 30
0.0
 42
-0.4142135623730951
  0
VERTEX
  5
17F9
  8
0
 62
    32
 10
24.97365245707363
 20
49.3107007244813076
 30
0.0
  0
VERTEX
  5
17FA
  8
0
 62
    32
 10
24.9736524570731717
 20
53.421810259367831
 30
0.0
 42
-0.5160073444712509
  0
VERTEX
  5
17FB
  8
0
 62
    32
 10
25.3721950814571215
 20
53.7051640156165604
 30
0.0
 42
-0.1979075106035819
  0
VERTEX
  5
17FC
  8
0
 62
    32
 10
25.5245227777310291
 20
53.7082287736203625
 30
0.0
  0
VERTEX
  5
17FD
  8
0
 62
    32
 10
27.5730672031155599
 20
52.9121446761104082
 30
0.0
 42
0.3700928233967669
  0
VERTEX
  5
17FE
  8
0
 62
    32
 10
27.8187163147387189
 20
52.9985631911298469
 30
0.0
  0
VERTEX
  5
17FF
  8
0
 62
    32
 10
29.0381594767633189
 20
55.1107007263127571
 30
0.0
 42
-0.2679491936183312
  0
VERTEX
  5
1800
  8
0
 62
    32
 10
29.2979670985629213
 20
55.2607007274638207
 30
0.0
  0
VERTEX
  5
1801
  8
0
 62
    32
 10
38.7326128014148026
 20
55.2607007274638207
 30
0.0
 42
-0.2679491936183309
  0
VERTEX
  5
1802
  8
0
 62
    32
 10
38.992420423214881
 20
55.1107007263127571
 30
0.0
  0
SEQEND
  5
1803
  8
0
 62
    32
  0
POLYLINE
  5
BC7
  8
0
 62
    32
 66
     1
 10
0.0
 20
0.0
 30
0.0
 70
     1
  0
VERTEX
  5
1804
  8
0
 62
    32
 10
57.219561005215958
 20
30.26070072755601
 30
0.0
  0
VERTEX
  5
1805
  8
0
 62
    32
 10
11.2195610052159491
 20
30.2607007275560314
 30
0.0
  0
VERTEX
  5
1806
  8
0
 62
    32
 10
11.2195610052159491
 20
46.260700727565677
 30
0.0
  0
VERTEX
  5
1807
  8
0
 62
    32
 10
43.2754251904631175
 20
46.2607007274638207
 30
0.0
  0
VERTEX
  5
1808
  8
0
 62
    32
 10
57.2195610052159509
 20
46.2607007275586426
 30
0.0
  0
SEQEND
  5
1809
  8
0
 62
    32
  0
POLYLINE
  5
BC9
  8
0
 62
    32
 66
     1
 10
0.0
 20
0.0
 30
0.0
 70
     1
  0
VERTEX
  5
180A
  8
0
 62
    32
 10
5.0152899499881904
 20
6.5207007274638
 30
0.0
  0
VERTEX
  5
180B
  8
0
 62
    32
 10
6.2152899499880014
 20
6.5207007274638
 30
0.0
  0
VERTEX
  5
180C
  8
0
 62
    32
 10
6.2152899499880014
 20
7.6207007274646079
 30
0.0
 42
-0.6153846153840749
  0
VERTEX
  5
180D
  8
0
 62
    32
 10
7.5152899499881904
 20
7.6207007274637197
 30
0.0
  0
VERTEX
  5
180E
  8
0
 62
    32
 10
7.5152899499881904
 20
5.7607007274644877
 30
0.0
 42
-0.4142135623731671
  0
VERTEX
  5
180F
  8
0
 62
    32
 10
7.0152899499881904
 20
5.2607007274638127
 30
0.0
  0
VERTEX
  5
1810
  8
0
 62
    32
 10
3.0152899499881878
 20
5.2607007274638127
 30
0.0
 42
-0.414213562373103
  0
VERTEX
  5
1811
  8
0
 62
    32
 10
2.5152899499881878
 20
5.760700727463802
 30
0.0
  0
VERTEX
  5
1812
  8
0
 62
    32
 10
2.515289949988639
 20
55.2607007274624493
 30
0.0
  0
VERTEX
  5
1813
  8
0
 62
    32
 10
7.0152899499886407
 20
55.2607007274624493
 30
0.0
 42
-0.4142135623733615
  0
VERTEX
  5
1814
  8
0
 62
    32
 10
7.5152899499886407
 20
54.7607007274624493
 30
0.0
  0
VERTEX
  5
1815
  8
0
 62
    32
 10
7.5152899499881904
 20
53.7607007274638065
 30
0.0
 42
-0.414213562372829
  0
VERTEX
  5
1816
  8
0
 62
    32
 10
7.0152899499881904
 20
53.2607007274645028
 30
0.0
  0
VERTEX
  5
1817
  8
0
 62
    32
 10
4.5152899499886407
 20
53.2607007274645028
 30
0.0
  0
VERTEX
  5
1818
  8
0
 62
    32
 10
4.5152899499881904
 20
49.2607007274637994
 30
0.0
  0
VERTEX
  5
1819
  8
0
 62
    32
 10
22.1069274429038387
 20
49.2607007274637994
 30
0.0
  0
VERTEX
  5
181A
  8
0
 62
    32
 10
22.1069274429056613
 20
53.2607007274645028
 30
0.0
  0
VERTEX
  5
181B
  8
0
 62
    32
 10
19.6069274429038387
 20
53.2607007274645028
 30
0.0
 42
-0.4142135623728287
  0
VERTEX
  5
181C
  8
0
 62
    32
 10
19.1069274429038387
 20
53.7607007274638065
 30
0.0
  0
VERTEX
  5
181D
  8
0
 62
    32
 10
19.1069274429033804
 20
54.7607007274624493
 30
0.0
 42
-0.4142135093937824
  0
VERTEX
  5
181E
  8
0
 62
    32
 10
19.6069273524604988
 20
55.2607007274624493
 30
0.0
  0
VERTEX
  5
181F
  8
0
 62
    32
 10
25.1353455786162385
 20
55.2607017274636902
 30
0.0
 42
-0.0669525176422247
  0
VERTEX
  5
1820
  8
0
 62
    32
 10
26.0601692264882594
 20
55.1363057313916372
 30
0.0
  0
VERTEX
  5
1821
  8
0
 62
    32
 10
26.3361274908239693
 20
55.0607007274637681
 30
0.0
  0
VERTEX
  5
1822
  8
0
 62
    32
 10
26.6061274908244094
 20
55.2607007274624493
 30
0.0
  0
VERTEX
  5
1823
  8
0
 62
    32
 10
28.1821604824850596
 20
55.2607007274624493
 30
0.0
 42
-0.4318902213007429
  0
VERTEX
  5
1824
  8
0
 62
    32
 10
28.3818009194880005
 20
55.0487134044439017
 30
0.0
  0
VERTEX
  5
1825
  8
0
 62
    32
 10
28.3597729457129617
 20
53.9357007753384323
 30
0.0
  0
VERTEX
  5
1826
  8
0
 62
    32
 10
27.8187163147387189
 20
52.9985631911298469
 30
0.0
 42
-0.3700928233967397
  0
VERTEX
  5
1827
  8
0
 62
    32
 10
27.5730672031155599
 20
52.9121446761104082
 30
0.0
  0
VERTEX
  5
1828
  8
0
 62
    32
 10
25.4895738608958098
 20
53.7218102593677713
 30
0.0
  0
VERTEX
  5
1829
  8
0
 62
    32
 10
25.2736524570733607
 20
53.7218102593677713
 30
0.0
 42
0.4142135623730951
  0
VERTEX
  5
182A
  8
0
 62
    32
 10
24.9736524570731717
 20
53.421810259367831
 30
0.0
  0
VERTEX
  5
182B
  8
0
 62
    32
 10
24.97365245707363
 20
49.3107007244813076
 30
0.0
 42
0.414213562373033
  0
VERTEX
  5
182C
  8
0
 62
    32
 10
25.1736524570743612
 20
49.1107007244814824
 30
0.0
  0
VERTEX
  5
182D
  8
0
 62
    32
 10
25.4510852803370007
 20
49.1107007244823919
 30
0.0
 42
0.142197656026031
  0
VERTEX
  5
182E
  8
0
 62
    32
 10
25.558168915103689
 20
49.1417833033418603
 30
0.0
  0
VERTEX
  5
182F
  8
0
 62
    32
 10
26.9362560962287105
 20
50.0154089091876131
 30
0.0
 42
-0.5630482836079258
  0
VERTEX
  5
1830
  8
0
 62
    32
 10
27.4236524570743398
 20
49.6583393678880682
 30
0.0
  0
VERTEX
  5
1831
  8
0
 62
    32
 10
27.4236524570743398
 20
48.4472369528278932
 30
0.0
 42
-0.2568852938753163
  0
VERTEX
  5
1832
  8
0
 62
    32
 10
26.9590706844438692
 20
47.6026498810578005
 30
0.0
  0
VERTEX
  5
1833
  8
0
 62
    32
 10
24.9157801777279317
 20
46.3073246059326422
 30
0.0
 42
-0.1421976721923261
  0
VERTEX
  5
1834
  8
0
 62
    32
 10
24.7551547095164395
 20
46.2607007274637994
 30
0.0
  0
VERTEX
  5
1835
  8
0
 62
    32
 10
8.6348643858874503
 20
46.2607007275736422
 30
0.0
 42
-0.1448793903364586
  0
VERTEX
  5
1836
  8
0
 62
    32
 10
9.2147721135194161
 20
44.4200389093483494
 30
0.0
 42
-1.0
  0
VERTEX
  5
1837
  8
0
 62
    32
 10
7.715000570784575
 20
44.3938602996937632
 30
0.0
 42
2.3558523658241941
  0
VERTEX
  5
1838
  8
0
 62
    32
 10
5.7821303777583308
 20
42.4609901066654629
 30
0.0
 42
-1.0
  0
VERTEX
  5
1839
  8
0
 62
    32
 10
5.7559517681007684
 20
40.9612185639313111
 30
0.0
 42
-0.1448793903361517
  0
VERTEX
  5
183A
  8
0
 62
    32
 10
3.915289949877319
 20
41.5411262915634865
 30
0.0
  0
VERTEX
  5
183B
  8
0
 62
    32
 10
3.9152899499882809
 20
40.9743653824317491
 30
0.0
  0
VERTEX
  5
183C
  8
0
 62
    32
 10
3.91528994998691
 20
15.78070072746379
 30
0.0
 42
0.4142135623730212
  0
VERTEX
  5
183D
  8
0
 62
    32
 10
4.41528994998691
 20
15.2807007274638007
 30
0.0
  0
VERTEX
  5
183E
  8
0
 62
    32
 10
7.0152899499881904
 20
15.2807007274624294
 30
0.0
 42
-0.4142135623729951
  0
VERTEX
  5
183F
  8
0
 62
    32
 10
7.5152899499881904
 20
14.7807007274624294
 30
0.0
  0
VERTEX
  5
1840
  8
0
 62
    32
 10
7.5152899499881904
 20
12.9207007274645793
 30
0.0
 42
-0.6153846153845322
  0
VERTEX
  5
1841
  8
0
 62
    32
 10
6.2152899499880014
 20
12.9207007274625294
 30
0.0
  0
VERTEX
  5
1842
  8
0
 62
    32
 10
6.2152899499880014
 20
14.0207007274638098
 30
0.0
  0
VERTEX
  5
1843
  8
0
 62
    32
 10
5.0152899499881904
 20
14.0207007274638098
 30
0.0
  0
SEQEND
  5
1844
  8
0
 62
    32
  0
POLYLINE
  5
BCA
  8
0
 62
    32
 66
     1
 10
0.0
 20
0.0
 30
0.0
 70
     1
  0
VERTEX
  5
1845
  8
0
 62
    32
 10
6.2152899499880014
 20
6.5207007274638
 30
0.0
  0
VERTEX
  5
1846
  8
0
 62
    32
 10
5.0152899499881904
 20
6.5207007274638
 30
0.0
  0
VERTEX
  5
1847
  8
0
 62
    32
 10
5.0152899499881904
 20
14.0207007274638098
 30
0.0
  0
VERTEX
  5
1848
  8
0
 62
    32
 10
6.2152899499880014
 20
14.0207007274638098
 30
0.0
  0
SEQEND
  5
1849
  8
0
 62
    32
  0
POLYLINE
  5
BCB
  8
0
 62
    32
 66
     1
 10
0.0
 20
0.0
 30
0.0
 70
     1
  0
VERTEX
  5
184A
  8
0
 62
    32
 10
8.9252899516278603
 20
8.5207007274658508
 30
0.0
  0
VERTEX
  5
184B
  8
0
 62
    32
 10
6.2152899499880014
 20
8.5207007274658508
 30
0.0
  0
VERTEX
  5
184C
  8
0
 62
    32
 10
6.2152899499880014
 20
12.0207007274658508
 30
0.0
  0
VERTEX
  5
184D
  8
0
 62
    32
 10
8.9252899513759303
 20
12.0207007276606994
 30
0.0
  0
SEQEND
  5
184E
  8
0
 62
    32
  0
POLYLINE
  5
BCC
  8
0
 62
    32
 66
     1
 10
0.0
 20
0.0
 30
0.0
 70
     1
  0
VERTEX
  5
184F
  8
0
 62
    32
 10
17.9252899509402894
 20
14.2607007254295102
 30
0.0
  0
VERTEX
  5
1850
  8
0
 62
    32
 10
11.9252899512122195
 20
14.2607007254295102
 30
0.0
  0
VERTEX
  5
1851
  8
0
 62
    32
 10
11.9252899506592502
 20
21.9607007246146608
 30
0.0
 42
-0.4142135623715136
  0
VERTEX
  5
1852
  8
0
 62
    32
 10
12.2296924321004798
 20
22.2607007246378004
 30
0.0
  0
VERTEX
  5
1853
  8
0
 62
    32
 10
13.5181920821206507
 20
22.2607007247305688
 30
0.0
 42
-0.3690518409833699
  0
VERTEX
  5
1854
  8
0
 62
    32
 10
14.0056367602311393
 20
21.8386518560126994
 30
0.0
 42
0.5881188155282706
  0
VERTEX
  5
1855
  8
0
 62
    32
 10
18.8241834276192215
 20
20.0031127282237797
 30
0.0
 42
1.0710968010886841
  0
VERTEX
  5
1856
  8
0
 62
    32
 10
17.8586443714840506
 20
21.151038828281699
 30
0.0
 42
-2.1478203655637711
  0
VERTEX
  5
1857
  8
0
 62
    32
 10
17.8586443713589915
 20
23.3703626218256417
 30
0.0
 42
0.6429829774824253
  0
VERTEX
  5
1858
  8
0
 62
    32
 10
19.0913226888988987
 20
23.9560221385146583
 30
0.0
 42
-0.4187889142896088
  0
VERTEX
  5
1859
  8
0
 62
    32
 10
19.3912862047005703
 20
24.2607007251523612
 30
0.0
  0
VERTEX
  5
185A
  8
0
 62
    32
 10
21.6252899504899005
 20
24.2607007253146882
 30
0.0
 42
-0.4142135623731162
  0
VERTEX
  5
185B
  8
0
 62
    32
 10
21.9252899505128092
 20
23.9607007253358688
 30
0.0
  0
VERTEX
  5
185C
  8
0
 62
    32
 10
21.9252899509179997
 20
18.3607007253375691
 30
0.0
 42
0.4142135623518526
  0
VERTEX
  5
185D
  8
0
 62
    32
 10
22.2252899509200006
 20
18.0607007253578615
 30
0.0
  0
VERTEX
  5
185E
  8
0
 62
    32
 10
17.9252899509402894
 20
18.06070072542947
 30
0.0
  0
SEQEND
  5
185F
  8
0
 62
    32
  0
POLYLINE
  5
BCD
  8
0
 62
    32
 66
     1
 10
0.0
 20
0.0
 30
0.0
 70
     1
  0
VERTEX
  5
1860
  8
0
 62
    32
 10
55.9252899512149426
 20
14.2607007254295102
 30
0.0
  0
VERTEX
  5
1861
  8
0
 62
    32
 10
49.925289950938911
 20
14.2607007254295102
 30
0.0
  0
VERTEX
  5
1862
  8
0
 62
    32
 10
49.925289950938911
 20
18.0607007254294913
 30
0.0
  0
VERTEX
  5
1863
  8
0
 62
    32
 10
45.6252899509173488
 20
18.0607007270438089
 30
0.0
 42
0.4142135623940673
  0
VERTEX
  5
1864
  8
0
 62
    32
 10
45.9252899509184473
 20
18.3607007270678899
 30
0.0
  0
VERTEX
  5
1865
  8
0
 62
    32
 10
45.9252899505182768
 20
23.960700727065511
 30
0.0
 42
-0.4142135623731054
  0
VERTEX
  5
1866
  8
0
 62
    32
 10
46.2252899504966308
 20
24.2607007270875208
 30
0.0
  0
VERTEX
  5
1867
  8
0
 62
    32
 10
48.4592936962845897
 20
24.2607007272480608
 30
0.0
 42
-0.4187889142892363
  0
VERTEX
  5
1868
  8
0
 62
    32
 10
48.7592572121308123
 20
23.9560221406526601
 30
0.0
 42
0.642982977482868
  0
VERTEX
  5
1869
  8
0
 62
    32
 10
49.9919355297557928
 20
23.3703626241407711
 30
0.0
 42
-2.1478203655657042
  0
VERTEX
  5
186A
  8
0
 62
    32
 10
49.9919355299499486
 20
21.151038830598651
 30
0.0
 42
1.0710968011016271
  0
VERTEX
  5
186B
  8
0
 62
    32
 10
49.0263964739902889
 20
20.0031127303938305
 30
0.0
 42
0.5881188155650815
  0
VERTEX
  5
186C
  8
0
 62
    32
 10
53.8449431411532871
 20
21.8386518592154992
 30
0.0
 42
-0.3727641987050843
  0
VERTEX
  5
186D
  8
0
 62
    32
 10
54.3388657884112192
 20
22.260700727672571
 30
0.0
  0
VERTEX
  5
186E
  8
0
 62
    32
 10
55.6252899506340626
 20
22.26070072776443
 30
0.0
 42
-0.4142135623147626
  0
VERTEX
  5
186F
  8
0
 62
    32
 10
55.9252899506601509
 20
21.9562982463845913
 30
0.0
  0
SEQEND
  5
1870
  8
0
 62
    32
  0
POLYLINE
  5
BCE
  8
0
 62
    32
 66
     1
 10
0.0
 20
0.0
 30
0.0
 70
     1
  0
VERTEX
  5
1871
  8
0
 62
    32
 10
40.4252899507674783
 20
20.4384866381375616
 30
0.0
 42
0.2614125764229834
  0
VERTEX
  5
1872
  8
0
 62
    32
 10
40.9042803189882918
 20
19.5849358409003607
 30
0.0
  0
VERTEX
  5
1873
  8
0
 62
    32
 10
43.4013782971193223
 20
18.06070072542947
 30
0.0
  0
VERTEX
  5
1874
  8
0
 62
    32
 10
24.3648754101910683
 20
18.0607007255115484
 30
0.0
 42
0.137872106765941
  0
VERTEX
  5
1875
  8
0
 62
    32
 10
24.5211782997622585
 20
18.1046354863402783
 30
0.0
  0
VERTEX
  5
1876
  8
0
 62
    32
 10
26.9462995826717204
 20
19.5849358398947118
 30
0.0
 42
0.2614125764230107
  0
VERTEX
  5
1877
  8
0
 62
    32
 10
27.4252899507674783
 20
20.4384866372005405
 30
0.0
  0
VERTEX
  5
1878
  8
0
 62
    32
 10
27.4252899506710683
 20
21.799901684951589
 30
0.0
 42
0.5444489917469361
  0
VERTEX
  5
1879
  8
0
 62
    32
 10
27.0950375426910988
 20
22.077457569918721
 30
0.0
  0
VERTEX
  5
187A
  8
0
 62
    32
 10
27.5998729888948411
 20
22.3856104424234204
 30
0.0
 42
-0.1378721067479522
  0
VERTEX
  5
187B
  8
0
 62
    32
 10
27.6519739520787198
 20
22.4002553627007188
 30
0.0
  0
VERTEX
  5
187C
  8
0
 62
    32
 10
28.8242030635038802
 20
22.4002553627843888
 30
0.0
 42
0.2914734195862664
  0
VERTEX
  5
187D
  8
0
 62
    32
 10
29.0960953996032998
 20
22.5734698842826589
 30
0.0
  0
VERTEX
  5
187E
  8
0
 62
    32
 10
30.54331430427521
 20
25.6770408414305606
 30
0.0
 42
-0.2914734195862421
  0
VERTEX
  5
187F
  8
0
 62
    32
 10
30.815206640373269
 20
25.8502553629279106
 30
0.0
  0
VERTEX
  5
1880
  8
0
 62
    32
 10
37.0353732603836008
 20
25.8502553633756094
 30
0.0
 42
-0.2914734195861554
  0
VERTEX
  5
1881
  8
0
 62
    32
 10
37.3072655965071434
 20
25.6770408419187284
 30
0.0
  0
VERTEX
  5
1882
  8
0
 62
    32
 10
38.7544845016274166
 20
22.5734698849784188
 30
0.0
 42
0.2914734195862085
  0
VERTEX
  5
1883
  8
0
 62
    32
 10
39.0263768377518474
 20
22.4002553635197295
 30
0.0
  0
VERTEX
  5
1884
  8
0
 62
    32
 10
40.1986059491765602
 20
22.4002553636045292
 30
0.0
 42
-0.1378721067478707
  0
VERTEX
  5
1885
  8
0
 62
    32
 10
40.2507069123627232
 20
22.3856104433356506
 30
0.0
  0
VERTEX
  5
1886
  8
0
 62
    32
 10
40.7555423586101071
 20
22.0774575709034586
 30
0.0
 42
0.4658308297456462
  0
VERTEX
  5
1887
  8
0
 62
    32
 10
40.4252899506660626
 20
21.8640698715618207
 30
0.0
  0
SEQEND
  5
1888
  8
0
 62
    32
  0
POLYLINE
  5
BCF
  8
0
 62
    32
 66
     1
 10
0.0
 20
0.0
 30
0.0
 70
     1
  0
VERTEX
  5
1889
  8
0
 62
    32
 10
17.9252899509380086
 20
2.560700725429478
 30
0.0
  0
VERTEX
  5
188A
  8
0
 62
    32
 10
11.9252899509389092
 20
5.56070072542947
 30
0.0
  0
VERTEX
  5
188B
  8
0
 62
    32
 10
11.9252899509389092
 20
14.2607007254295102
 30
0.0
  0
VERTEX
  5
188C
  8
0
 62
    32
 10
17.9252899509402894
 20
14.2607007254295102
 30
0.0
  0
SEQEND
  5
188D
  8
0
 62
    32
  0
POLYLINE
  5
BD0
  8
0
 62
    32
 66
     1
 10
0.0
 20
0.0
 30
0.0
 70
     1
  0
VERTEX
  5
188E
  8
0
 62
    32
 10
55.9252899509380015
 20
5.5607007254294798
 30
0.0
  0
VERTEX
  5
188F
  8
0
 62
    32
 10
49.9252899509402823
 20
2.549575746426759
 30
0.0
  0
VERTEX
  5
1890
  8
0
 62
    32
 10
49.925289950938911
 20
14.2607007254295102
 30
0.0
  0
VERTEX
  5
1891
  8
0
 62
    32
 10
55.9252899509380015
 20
14.2607007254295102
 30
0.0
  0
SEQEND
  5
1892
  8
0
 62
    32
  0
POLYLINE
  5
BD1
  8
0
 62
    32
 66
     1
 10
0.0
 20
0.0
 30
0.0
 70
     1
  0
VERTEX
  5
1893
  8
0
 62
    32
 10
49.925289950938911
 20
14.2607007254295102
 30
0.0
  0
VERTEX
  5
1894
  8
0
 62
    32
 10
17.9252899509402894
 20
14.2607007254295102
 30
0.0
  0
VERTEX
  5
1895
  8
0
 62
    32
 10
17.9252899509402894
 20
18.06070072542947
 30
0.0
  0
VERTEX
  5
1896
  8
0
 62
    32
 10
49.925289950938911
 20
18.0607007254294913
 30
0.0
  0
SEQEND
  5
1897
  8
0
 62
    32
  0
POLYLINE
  5
BD2
  8
0
 62
    32
 66
     1
 10
0.0
 20
0.0
 30
0.0
 70
     1
  0
VERTEX
  5
1898
  8
0
 62
    32
 10
39.9049121974845775
 20
24.5241887577366384
 30
0.0
 42
0.4630328573284425
  0
VERTEX
  5
1899
  8
0
 62
    32
 10
40.6428047821024165
 20
24.3317596156168001
 30
0.0
  0
VERTEX
  5
189A
  8
0
 62
    32
 10
42.1645204349525784
 20
25.4002553637464104
 30
0.0
  0
VERTEX
  5
189B
  8
0
 62
    32
 10
42.5752899504096831
 20
25.4002553637766404
 30
0.0
 42
-0.4142135623730673
  0
VERTEX
  5
189C
  8
0
 62
    32
 10
42.8752899504303215
 20
25.1002553637976291
 30
0.0
  0
VERTEX
  5
189D
  8
0
 62
    32
 10
42.8752899506881633
 20
21.5002553637974891
 30
0.0
 42
-0.4142135623731523
  0
VERTEX
  5
189E
  8
0
 62
    32
 10
42.5752899507120901
 20
21.2002553637745592
 30
0.0
  0
VERTEX
  5
189F
  8
0
 62
    32
 10
42.2207390018735325
 20
21.2002553637497684
 30
0.0
 42
-0.137872106747739
  0
VERTEX
  5
18A0
  8
0
 62
    32
 10
42.1686380386878383
 20
21.2149002840184409
 30
0.0
  0
VERTEX
  5
18A1
  8
0
 62
    32
 10
40.2267146814875716
 20
22.40025536360681
 30
0.0
  0
VERTEX
  5
18A2
  8
0
 62
    32
 10
39.0263768377518474
 20
22.4002553635197295
 30
0.0
 42
-0.2914734195861901
  0
VERTEX
  5
18A3
  8
0
 62
    32
 10
38.7544845016274166
 20
22.5734698849784188
 30
0.0
  0
VERTEX
  5
18A4
  8
0
 62
    32
 10
37.3072655965071434
 20
25.6770408419187284
 30
0.0
 42
0.2914734195861231
  0
VERTEX
  5
18A5
  8
0
 62
    32
 10
37.0353732603836008
 20
25.8502553633756094
 30
0.0
  0
VERTEX
  5
18A6
  8
0
 62
    32
 10
30.815206640373269
 20
25.8502553629279106
 30
0.0
 42
0.2914734195862175
  0
VERTEX
  5
18A7
  8
0
 62
    32
 10
30.54331430427521
 20
25.6770408414305606
 30
0.0
  0
VERTEX
  5
18A8
  8
0
 62
    32
 10
29.0960953996032998
 20
22.5734698842826589
 30
0.0
 42
-0.2914734195862361
  0
VERTEX
  5
18A9
  8
0
 62
    32
 10
28.8242030635038802
 20
22.4002553627843888
 30
0.0
  0
VERTEX
  5
18AA
  8
0
 62
    32
 10
27.6238652197681702
 20
22.4002553626984593
 30
0.0
  0
VERTEX
  5
18AB
  8
0
 62
    32
 10
25.6819418627366112
 20
21.2149002828297313
 30
0.0
 42
-0.1378721067479447
  0
VERTEX
  5
18AC
  8
0
 62
    32
 10
25.6298408995536384
 20
21.200255362553559
 30
0.0
  0
VERTEX
  5
18AD
  8
0
 62
    32
 10
25.2752899507160009
 20
21.2002553625278694
 30
0.0
 42
-0.4142135623730396
  0
VERTEX
  5
18AE
  8
0
 62
    32
 10
24.97528995069489
 20
21.5002553625064508
 30
0.0
  0
VERTEX
  5
18AF
  8
0
 62
    32
 10
24.9752899504352399
 20
25.1002553625072693
 30
0.0
 42
-0.4142135623731091
  0
VERTEX
  5
18B0
  8
0
 62
    32
 10
25.275289950413601
 20
25.4002553625283696
 30
0.0
  0
VERTEX
  5
18B1
  8
0
 62
    32
 10
25.6860594658688797
 20
25.4002553625586103
 30
0.0
  0
VERTEX
  5
18B2
  8
0
 62
    32
 10
27.2077751188741104
 20
24.3317596146472717
 30
0.0
 42
0.4394995507180346
  0
VERTEX
  5
18B3
  8
0
 62
    32
 10
27.9273550604190213
 20
24.4896501452646085
 30
0.0
  0
VERTEX
  5
18B4
  8
0
 62
    32
 10
29.3965878338691518
 20
27.2607007258744893
 30
0.0
  0
VERTEX
  5
18B5
  8
0
 62
    32
 10
38.4539920663456698
 20
27.2607007265277197
 30
0.0
  0
SEQEND
  5
18B6
  8
0
 62
    32
  0
POLYLINE
  5
BD3
  8
0
 62
    32
 66
     1
 10
0.0
 20
0.0
 30
0.0
 70
     1
  0
VERTEX
  5
18B7
  8
0
 62
    32
 10
27.9273550604190213
 20
24.4896501452646085
 30
0.0
 42
-0.4394995507180195
  0
VERTEX
  5
18B8
  8
0
 62
    32
 10
27.2077751188741104
 20
24.3317596146472717
 30
0.0
  0
VERTEX
  5
18B9
  8
0
 62
    32
 10
25.6860594658688797
 20
25.4002553625586103
 30
0.0
  0
VERTEX
  5
18BA
  8
0
 62
    32
 10
25.275289950413601
 20
25.4002553625283696
 30
0.0
 42
0.4142135623731229
  0
VERTEX
  5
18BB
  8
0
 62
    32
 10
24.9752899504352399
 20
25.1002553625072693
 30
0.0
  0
VERTEX
  5
18BC
  8
0
 62
    32
 10
24.97528995069489
 20
21.5002553625064508
 30
0.0
 42
0.4142135623730013
  0
VERTEX
  5
18BD
  8
0
 62
    32
 10
25.2752899507160009
 20
21.2002553625278694
 30
0.0
  0
VERTEX
  5
18BE
  8
0
 62
    32
 10
25.6579496318641986
 20
21.2002553625558505
 30
0.0
  0
VERTEX
  5
18BF
  8
0
 62
    32
 10
27.0950375426910988
 20
22.077457569918721
 30
0.0
 42
-0.5444489917469462
  0
VERTEX
  5
18C0
  8
0
 62
    32
 10
27.4252899506710683
 20
21.799901684951589
 30
0.0
  0
VERTEX
  5
18C1
  8
0
 62
    32
 10
27.4252899507674783
 20
20.4384866372005405
 30
0.0
 42
-0.2614125764230057
  0
VERTEX
  5
18C2
  8
0
 62
    32
 10
26.9462995826717204
 20
19.5849358398947118
 30
0.0
  0
VERTEX
  5
18C3
  8
0
 62
    32
 10
24.5211782997622585
 20
18.1046354863402783
 30
0.0
 42
-0.137872106765941
  0
VERTEX
  5
18C4
  8
0
 62
    32
 10
24.3648754101910683
 20
18.0607007255115484
 30
0.0
  0
VERTEX
  5
18C5
  8
0
 62
    32
 10
22.2252812438142691
 20
18.0607007254847183
 30
0.0
 42
-0.4142050615367225
  0
VERTEX
  5
18C6
  8
0
 62
    32
 10
21.9252899509179997
 20
18.3607007253375691
 30
0.0
  0
VERTEX
  5
18C7
  8
0
 62
    32
 10
21.9252899505128092
 20
23.9607007253358688
 30
0.0
 42
0.4142135623731387
  0
VERTEX
  5
18C8
  8
0
 62
    32
 10
21.6252899504899005
 20
24.2607007253146882
 30
0.0
  0
VERTEX
  5
18C9
  8
0
 62
    32
 10
19.3912862047005703
 20
24.2607007251523612
 30
0.0
 42
0.4187889142892117
  0
VERTEX
  5
18CA
  8
0
 62
    32
 10
19.0913226888988987
 20
23.9560221385146583
 30
0.0
 42
-0.6429829774828975
  0
VERTEX
  5
18CB
  8
0
 62
    32
 10
17.8586443713589915
 20
23.3703626218256417
 30
0.0
 42
2.2152752471096671
  0
VERTEX
  5
18CC
  8
0
 62
    32
 10
17.9095970667605116
 20
21.1959756426018799
 30
0.0
 42
-1.023707649299187
  0
VERTEX
  5
18CD
  8
0
 62
    32
 10
18.8241834276342388
 20
20.0031127282358092
 30
0.0
 42
-0.5874865212221474
  0
VERTEX
  5
18CE
  8
0
 62
    32
 10
14.0064352488244506
 20
21.833164492896131
 30
0.0
 42
0.3722290659472121
  0
VERTEX
  5
18CF
  8
0
 62
    32
 10
13.5181920821206507
 20
22.2607007247305688
 30
0.0
  0
VERTEX
  5
18D0
  8
0
 62
    32
 10
12.2296924321004798
 20
22.2607007246378004
 30
0.0
 42
0.4142135623712619
  0
VERTEX
  5
18D1
  8
0
 62
    32
 10
11.9252899506592502
 20
21.9607007246146608
 30
0.0
  0
VERTEX
  5
18D2
  8
0
 62
    32
 10
11.9252899518393196
 20
5.5607007246154723
 30
0.0
 42
-0.414213562372904
  0
VERTEX
  5
18D3
  8
0
 62
    32
 10
11.6252899518595996
 20
5.260700724593895
 30
0.0
  0
VERTEX
  5
18D4
  8
0
 62
    32
 10
9.2252899518645108
 20
5.2607007244195207
 30
0.0
 42
-0.4142135623732823
  0
VERTEX
  5
18D5
  8
0
 62
    32
 10
8.9252899518411404
 20
5.560700724399922
 30
0.0
  0
VERTEX
  5
18D6
  8
0
 62
    32
 10
8.9252899503027265
 20
26.9607007243995582
 30
0.0
 42
-0.4142135623730657
  0
VERTEX
  5
18D7
  8
0
 62
    32
 10
9.2252899502806258
 20
27.2607007244202002
 30
0.0
  0
VERTEX
  5
18D8
  8
0
 62
    32
 10
29.3965878338691518
 20
27.2607007258744893
 30
0.0
  0
SEQEND
  5
18D9
  8
0
 62
    32
  0
POLYLINE
  5
BD4
  8
0
 62
    32
 66
     1
 10
0.0
 20
0.0
 30
0.0
 70
     1
  0
VERTEX
  5
18DA
  8
0
 62
    32
 10
58.9252899518411368
 20
5.5607007280035807
 30
0.0
 42
-0.4142135623732598
  0
VERTEX
  5
18DB
  8
0
 62
    32
 10
58.625289951860502
 20
5.2607007279806579
 30
0.0
  0
VERTEX
  5
18DC
  8
0
 62
    32
 10
56.2252899518640632
 20
5.2607007278085192
 30
0.0
 42
-0.4142135623940562
  0
VERTEX
  5
18DD
  8
0
 62
    32
 10
55.9252899518415916
 20
5.5607007278087108
 30
0.0
  0
VERTEX
  5
18DE
  8
0
 62
    32
 10
55.9252899509380015
 20
14.2607007254295102
 30
0.0
  0
VERTEX
  5
18DF
  8
0
 62
    32
 10
55.9252899506592485
 20
21.95629824636368
 30
0.0
 42
0.4142135623357789
  0
VERTEX
  5
18E0
  8
0
 62
    32
 10
55.6252899506340626
 20
22.26070072776443
 30
0.0
  0
VERTEX
  5
18E1
  8
0
 62
    32
 10
54.3388657884112192
 20
22.260700727672571
 30
0.0
 42
0.3759491577964895
  0
VERTEX
  5
18E2
  8
0
 62
    32
 10
53.8441446525117513
 20
21.8331644957533193
 30
0.0
 42
-0.5874865212171703
  0
VERTEX
  5
18E3
  8
0
 62
    32
 10
49.0263964739902889
 20
20.0031127303938305
 30
0.0
 42
-1.023707649244997
  0
VERTEX
  5
18E4
  8
0
 62
    32
 10
49.9409828346552871
 20
21.1959756449204306
 30
0.0
 42
2.2152752471271082
  0
VERTEX
  5
18E5
  8
0
 62
    32
 10
49.9919355297557928
 20
23.3703626241407711
 30
0.0
 42
-0.6429829774825795
  0
VERTEX
  5
18E6
  8
0
 62
    32
 10
48.7592572121321695
 20
23.9560221406526601
 30
0.0
 42
0.4187889142897581
  0
VERTEX
  5
18E7
  8
0
 62
    32
 10
48.4592936962845897
 20
24.2607007272480608
 30
0.0
  0
VERTEX
  5
18E8
  8
0
 62
    32
 10
46.2252899504966308
 20
24.2607007270875208
 30
0.0
 42
0.4142135623730673
  0
VERTEX
  5
18E9
  8
0
 62
    32
 10
45.9252899505182768
 20
23.960700727065511
 30
0.0
  0
VERTEX
  5
18EA
  8
0
 62
    32
 10
45.9252899509184473
 20
18.3607007270678899
 30
0.0
 42
-0.4142135623940427
  0
VERTEX
  5
18EB
  8
0
 62
    32
 10
45.6252899509173488
 20
18.0607007270438089
 30
0.0
  0
VERTEX
  5
18EC
  8
0
 62
    32
 10
43.4857044916635687
 20
18.0607007268898911
 30
0.0
 42
-0.1378721067440828
  0
VERTEX
  5
18ED
  8
0
 62
    32
 10
43.3294016021128527
 20
18.1046354876961217
 30
0.0
  0
VERTEX
  5
18EE
  8
0
 62
    32
 10
40.9042803189882918
 20
19.5849358409003607
 30
0.0
 42
-0.2614125764229866
  0
VERTEX
  5
18EF
  8
0
 62
    32
 10
40.4252899507674783
 20
20.4384866381375616
 30
0.0
  0
VERTEX
  5
18F0
  8
0
 62
    32
 10
40.4252899506660626
 20
21.8640698715618207
 30
0.0
 42
-0.4658308297457782
  0
VERTEX
  5
18F1
  8
0
 62
    32
 10
40.7555423586101071
 20
22.0774575709034586
 30
0.0
  0
VERTEX
  5
18F2
  8
0
 62
    32
 10
42.1926302695634305
 20
21.2002553637477398
 30
0.0
  0
VERTEX
  5
18F3
  8
0
 62
    32
 10
42.5752899507120901
 20
21.2002553637745592
 30
0.0
 42
0.4142135623731507
  0
VERTEX
  5
18F4
  8
0
 62
    32
 10
42.8752899506881633
 20
21.5002553637974891
 30
0.0
  0
VERTEX
  5
18F5
  8
0
 62
    32
 10
42.8752899504303215
 20
25.1002553637976291
 30
0.0
 42
0.4142135623730431
  0
VERTEX
  5
18F6
  8
0
 62
    32
 10
42.5752899504096831
 20
25.4002553637766404
 30
0.0
  0
VERTEX
  5
18F7
  8
0
 62
    32
 10
42.1645204349525784
 20
25.4002553637464104
 30
0.0
  0
VERTEX
  5
18F8
  8
0
 62
    32
 10
40.6428047821024165
 20
24.3317596156168001
 30
0.0
 42
-0.4630328573286632
  0
VERTEX
  5
18F9
  8
0
 62
    32
 10
39.9049121974845775
 20
24.5241887577377895
 30
0.0
  0
VERTEX
  5
18FA
  8
0
 62
    32
 10
38.4539920663456698
 20
27.2607007265277197
 30
0.0
  0
VERTEX
  5
18FB
  8
0
 62
    32
 10
58.6252899502725313
 20
27.2607007279806588
 30
0.0
 42
-0.4142135623730555
  0
VERTEX
  5
18FC
  8
0
 62
    32
 10
58.925289950296353
 20
26.96070072800185
 30
0.0
  0
SEQEND
  5
18FD
  8
0
 62
    32
  0
POLYLINE
  5
BD5
  8
0
 62
    32
 66
     1
 10
0.0
 20
0.0
 30
0.0
 70
     1
  0
VERTEX
  5
18FE
  8
0
 62
    32
 10
61.8152899499901665
 20
8.5207007274658508
 30
0.0
  0
VERTEX
  5
18FF
  8
0
 62
    32
 10
58.9252899516269508
 20
8.5207007272564503
 30
0.0
  0
VERTEX
  5
1900
  8
0
 62
    32
 10
58.9252899513754684
 20
12.0207007274658508
 30
0.0
  0
VERTEX
  5
1901
  8
0
 62
    32
 10
61.8152899499901665
 20
12.0207007274658508
 30
0.0
  0
SEQEND
  5
1902
  8
0
 62
    32
  0
POLYLINE
  5
BD6
  8
0
 62
    32
 66
     1
 10
0.0
 20
0.0
 30
0.0
 70
     1
  0
VERTEX
  5
1903
  8
0
 62
    32
 10
63.0152899499899917
 20
6.520700727463808
 30
0.0
  0
VERTEX
  5
1904
  8
0
 62
    32
 10
61.8152899499901665
 20
6.520700727463808
 30
0.0
  0
VERTEX
  5
1905
  8
0
 62
    32
 10
61.8152899499901665
 20
14.0207007274638205
 30
0.0
  0
VERTEX
  5
1906
  8
0
 62
    32
 10
63.0152899499899917
 20
14.0207007274638205
 30
0.0
  0
SEQEND
  5
1907
  8
0
 62
    32
  0
POLYLINE
  5
BD7
  8
0
 62
    32
 66
     1
 10
0.0
 20
0.0
 30
0.0
 70
     1
  0
VERTEX
  5
1908
  8
0
 62
    32
 10
65.5152899499899917
 20
5.76070072746381
 30
0.0
 42
-0.4142135623731109
  0
VERTEX
  5
1909
  8
0
 62
    32
 10
65.0152899499899917
 20
5.260700727463834
 30
0.0
  0
VERTEX
  5
190A
  8
0
 62
    32
 10
61.0152899499899917
 20
5.260700727463834
 30
0.0
 42
-0.4142135623732381
  0
VERTEX
  5
190B
  8
0
 62
    32
 10
60.5152899499899917
 20
5.7607007274644948
 30
0.0
  0
VERTEX
  5
190C
  8
0
 62
    32
 10
60.5152899499909225
 20
7.620700727464615
 30
0.0
 42
-0.6153846153844053
  0
VERTEX
  5
190D
  8
0
 62
    32
 10
61.8152899499901665
 20
7.620700727464615
 30
0.0
  0
VERTEX
  5
190E
  8
0
 62
    32
 10
61.8152899499901665
 20
6.520700727463808
 30
0.0
  0
VERTEX
  5
190F
  8
0
 62
    32
 10
63.0152899499899917
 20
6.520700727463808
 30
0.0
  0
VERTEX
  5
1910
  8
0
 62
    32
 10
63.0152899499899917
 20
14.0207007274638205
 30
0.0
  0
VERTEX
  5
1911
  8
0
 62
    32
 10
61.8152899499901665
 20
14.0207007274638205
 30
0.0
  0
VERTEX
  5
1912
  8
0
 62
    32
 10
61.8152899499901665
 20
12.9207007274625294
 30
0.0
 42
-0.6153846153835416
  0
VERTEX
  5
1913
  8
0
 62
    32
 10
60.5152899499899917
 20
12.9207007274645793
 30
0.0
  0
VERTEX
  5
1914
  8
0
 62
    32
 10
60.5152899499899917
 20
14.7807007274624294
 30
0.0
 42
-0.4142135623729951
  0
VERTEX
  5
1915
  8
0
 62
    32
 10
61.0152899499899917
 20
15.2807007274624294
 30
0.0
  0
VERTEX
  5
1916
  8
0
 62
    32
 10
63.6152899499908102
 20
15.2807007274638096
 30
0.0
 42
0.4142135623730212
  0
VERTEX
  5
1917
  8
0
 62
    32
 10
64.1152899499908102
 20
15.78070072746379
 30
0.0
  0
VERTEX
  5
1918
  8
0
 62
    32
 10
64.1152899499903839
 20
40.9743653824317704
 30
0.0
  0
VERTEX
  5
1919
  8
0
 62
    32
 10
64.1152899501008733
 20
41.5411262915634865
 30
0.0
 42
-0.1448793903361893
  0
VERTEX
  5
191A
  8
0
 62
    32
 10
62.274628131876959
 20
40.9612185639313111
 30
0.0
 42
-1.0
  0
VERTEX
  5
191B
  8
0
 62
    32
 10
62.2484495222212217
 20
42.4609901066654629
 30
0.0
 42
2.3558523658241861
  0
VERTEX
  5
191C
  8
0
 62
    32
 10
60.3155793291931417
 20
44.3938602996937632
 30
0.0
 42
-1.0
  0
VERTEX
  5
191D
  8
0
 62
    32
 10
58.8158077864592315
 20
44.4200389093483565
 30
0.0
 42
-0.1448793903364606
  0
VERTEX
  5
191E
  8
0
 62
    32
 10
59.3957155140902771
 20
46.2607007275736422
 30
0.0
  0
VERTEX
  5
191F
  8
0
 62
    32
 10
43.2754251904631175
 20
46.2607007274637994
 30
0.0
 42
-0.1421976721932963
  0
VERTEX
  5
1920
  8
0
 62
    32
 10
43.1147997222507229
 20
46.3073246059326422
 30
0.0
  0
VERTEX
  5
1921
  8
0
 62
    32
 10
41.0715092155352224
 20
47.6026498810578005
 30
0.0
 42
-0.2568852938753143
  0
VERTEX
  5
1922
  8
0
 62
    32
 10
40.6069274429056435
 20
48.4472369528278932
 30
0.0
  0
VERTEX
  5
1923
  8
0
 62
    32
 10
40.6069274429056435
 20
49.7198034221918306
 30
0.0
 42
-0.50703566670194
  0
VERTEX
  5
1924
  8
0
 62
    32
 10
41.0943238037485727
 20
50.015408909188281
 30
0.0
  0
VERTEX
  5
1925
  8
0
 62
    32
 10
42.4724109848740312
 20
49.1417833033418603
 30
0.0
 42
0.1421976560262388
  0
VERTEX
  5
1926
  8
0
 62
    32
 10
42.5794946196421122
 20
49.1107007244823919
 30
0.0
  0
VERTEX
  5
1927
  8
0
 62
    32
 10
42.8569274429056577
 20
49.1107007244823919
 30
0.0
 42
0.4142135623733449
  0
VERTEX
  5
1928
  8
0
 62
    32
 10
43.0569274429041116
 20
49.3107007244813076
 30
0.0
  0
VERTEX
  5
1929
  8
0
 62
    32
 10
43.0569274429045592
 20
53.421810259367831
 30
0.0
 42
0.4142135623730951
  0
VERTEX
  5
192A
  8
0
 62
    32
 10
42.7569274429057629
 20
53.7218102593677713
 30
0.0
  0
VERTEX
  5
192B
  8
0
 62
    32
 10
42.5410060390832925
 20
53.7218102593677713
 30
0.0
  0
VERTEX
  5
192C
  8
0
 62
    32
 10
40.457512696863553
 20
52.9121446761104082
 30
0.0
 42
-0.3700928233967671
  0
VERTEX
  5
192D
  8
0
 62
    32
 10
40.2118635852399322
 20
52.9985631911298469
 30
0.0
  0
VERTEX
  5
192E
  8
0
 62
    32
 10
39.6708069542661406
 20
53.9357007753384323
 30
0.0
  0
VERTEX
  5
192F
  8
0
 62
    32
 10
39.6484610121166128
 20
55.0647794674242732
 30
0.0
 42
-0.4082525098559311
  0
VERTEX
  5
1930
  8
0
 62
    32
 10
39.84841941749265
 20
55.2607007274624493
 30
0.0
  0
VERTEX
  5
1931
  8
0
 62
    32
 10
41.4244524091542274
 20
55.2607007274624493
 30
0.0
  0
VERTEX
  5
1932
  8
0
 62
    32
 10
41.6944524091546711
 20
55.0607007274637681
 30
0.0
  0
VERTEX
  5
1933
  8
0
 62
    32
 10
41.970410673489468
 20
55.1363057313916372
 30
0.0
 42
-0.0669525176422279
  0
VERTEX
  5
1934
  8
0
 62
    32
 10
42.8952343213619471
 20
55.2607017274636902
 30
0.0
  0
VERTEX
  5
1935
  8
0
 62
    32
 10
48.4236525475185999
 20
55.2607007274624493
 30
0.0
 42
-0.4142135093937741
  0
VERTEX
  5
1936
  8
0
 62
    32
 10
48.9236524570752422
 20
54.7607007274624493
 30
0.0
  0
VERTEX
  5
1937
  8
0
 62
    32
 10
48.9236524570752422
 20
53.7607007274638065
 30
0.0
 42
-0.414213562372829
  0
VERTEX
  5
1938
  8
0
 62
    32
 10
48.4236524570743398
 20
53.2607007274645028
 30
0.0
  0
VERTEX
  5
1939
  8
0
 62
    32
 10
45.9236524570743398
 20
53.2607007274645028
 30
0.0
  0
VERTEX
  5
193A
  8
0
 62
    32
 10
45.9236524570743398
 20
49.2607007274637994
 30
0.0
  0
VERTEX
  5
193B
  8
0
 62
    32
 10
63.5152899499899917
 20
49.2607007274637994
 30
0.0
  0
VERTEX
  5
193C
  8
0
 62
    32
 10
63.5152899499886416
 20
53.2607007274645028
 30
0.0
  0
VERTEX
  5
193D
  8
0
 62
    32
 10
61.0152899499899917
 20
53.2607007274645028
 30
0.0
 42
-0.4142135623728287
  0
VERTEX
  5
193E
  8
0
 62
    32
 10
60.5152899499899917
 20
53.7607007274638065
 30
0.0
  0
VERTEX
  5
193F
  8
0
 62
    32
 10
60.5152899499886416
 20
54.7607007274624493
 30
0.0
 42
-0.4142135623733615
  0
VERTEX
  5
1940
  8
0
 62
    32
 10
61.0152899499886416
 20
55.2607007274624706
 30
0.0
  0
VERTEX
  5
1941
  8
0
 62
    32
 10
65.5152899499886416
 20
55.2607007274624706
 30
0.0
  0
SEQEND
  5
1942
  8
0
 62
    32
  0
POLYLINE
  5
BD8
  8
0
 62
    32
 66
     1
 10
0.0
 20
0.0
 30
0.0
 70
     1
  0
VERTEX
  5
1943
  8
0
 62
    32
 10
68.5152899499909154
 20
5.7606632284583759
 30
0.0
  0
VERTEX
  5
1944
  8
0
 62
    32
 10
65.5152899499909154
 20
5.7606632284583759
 30
0.0
  0
VERTEX
  5
1945
  8
0
 62
    32
 10
65.5152899499904038
 20
25.760663228458391
 30
0.0
  0
VERTEX
  5
1946
  8
0
 62
    32
 10
68.515991726853656
 20
25.7608036179776008
 30
0.0
  0
SEQEND
  5
1947
  8
0
 62
    32
  0
POLYLINE
  5
BDB
  8
0
 62
    32
 66
     1
 10
0.0
 20
0.0
 30
0.0
 70
     1
  0
VERTEX
  5
1948
  8
0
 62
    32
 10
72.2169274429080446
 20
6.520700727463808
 30
0.0
  0
VERTEX
  5
1949
  8
0
 62
    32
 10
71.0169274429082549
 20
6.520700727463808
 30
0.0
  0
VERTEX
  5
194A
  8
0
 62
    32
 10
71.0169274429082549
 20
14.0207007274638205
 30
0.0
  0
VERTEX
  5
194B
  8
0
 62
    32
 10
72.2169274429080446
 20
14.0207007274638205
 30
0.0
  0
SEQEND
  5
194C
  8
0
 62
    32
  0
POLYLINE
  5
BDC
  8
0
 62
    32
 66
     1
 10
0.0
 20
0.0
 30
0.0
 70
     1
  0
VERTEX
  5
194D
  8
0
 62
    32
 10
75.0152899499918107
 20
8.5207007274658615
 30
0.0
  0
VERTEX
  5
194E
  8
0
 62
    32
 10
72.2169274429080446
 20
8.5207007274658508
 30
0.0
  0
VERTEX
  5
194F
  8
0
 62
    32
 10
72.2169274429080446
 20
12.0207007274663198
 30
0.0
  0
VERTEX
  5
1950
  8
0
 62
    32
 10
75.0152899499918107
 20
12.0207007274658508
 30
0.0
  0
SEQEND
  5
1951
  8
0
 62
    32
  0
POLYLINE
  5
BDE
  8
0
 62
    32
 66
     1
 10
0.0
 20
0.0
 30
0.0
 70
     1
  0
VERTEX
  5
1952
  8
0
 62
    32
 10
127.8169274429104973
 20
8.5207007274658615
 30
0.0
  0
VERTEX
  5
1953
  8
0
 62
    32
 10
125.0152899499917964
 20
8.5207007274658615
 30
0.0
  0
VERTEX
  5
1954
  8
0
 62
    32
 10
125.0152899499917964
 20
12.0207007274658704
 30
0.0
  0
VERTEX
  5
1955
  8
0
 62
    32
 10
127.8169274429104973
 20
12.0207007274658704
 30
0.0
  0
SEQEND
  5
1956
  8
0
 62
    32
  0
POLYLINE
  5
BDF
  8
0
 62
    32
 66
     1
 10
0.0
 20
0.0
 30
0.0
 70
     1
  0
VERTEX
  5
1957
  8
0
 62
    32
 10
129.0169274429100028
 20
6.5207007274638222
 30
0.0
  0
VERTEX
  5
1958
  8
0
 62
    32
 10
127.8169274429104973
 20
6.5207007274638222
 30
0.0
  0
VERTEX
  5
1959
  8
0
 62
    32
 10
127.8169274429104973
 20
14.0207007274638205
 30
0.0
  0
VERTEX
  5
195A
  8
0
 62
    32
 10
129.0169274429100028
 20
14.0207007274638205
 30
0.0
  0
SEQEND
  5
195B
  8
0
 62
    32
  0
POLYLINE
  5
BE0
  8
0
 62
    32
 66
     1
 10
0.0
 20
0.0
 30
0.0
 70
     1
  0
VERTEX
  5
195C
  8
0
 62
    32
 10
90.9174176706492432
 20
46.3073246059326635
 30
0.0
 42
-0.1421976721921061
  0
VERTEX
  5
195D
  8
0
 62
    32
 10
90.7567922024369551
 20
46.2607007274638207
 30
0.0
  0
VERTEX
  5
195E
  8
0
 62
    32
 10
74.636501878807934
 20
46.2607007275736422
 30
0.0
 42
-0.1448793903364585
  0
VERTEX
  5
195F
  8
0
 62
    32
 10
75.2164096064399104
 20
44.4200389093483565
 30
0.0
 42
-1.0
  0
VERTEX
  5
1960
  8
0
 62
    32
 10
73.7166380637064549
 20
44.3938602996937703
 30
0.0
 42
2.3558523658242061
  0
VERTEX
  5
1961
  8
0
 62
    32
 10
71.7837678706770248
 20
42.4609901066654629
 30
0.0
 42
-1.0
  0
VERTEX
  5
1962
  8
0
 62
    32
 10
71.7575892610212662
 20
40.9612185639313111
 30
0.0
 42
-0.1448793903361527
  0
VERTEX
  5
1963
  8
0
 62
    32
 10
69.9169274427964638
 20
41.5411262915634865
 30
0.0
  0
VERTEX
  5
1964
  8
0
 62
    32
 10
69.9169274429078769
 20
40.9743653824317704
 30
0.0
  0
VERTEX
  5
1965
  8
0
 62
    32
 10
69.9169274429074221
 20
15.78070072746379
 30
0.0
 42
0.4142135623730172
  0
VERTEX
  5
1966
  8
0
 62
    32
 10
70.4169274429074221
 20
15.2807007274638096
 30
0.0
  0
VERTEX
  5
1967
  8
0
 62
    32
 10
73.0169274429082549
 20
15.2807007274624294
 30
0.0
 42
-0.414213562372991
  0
VERTEX
  5
1968
  8
0
 62
    32
 10
73.5169274429082549
 20
14.7807007274624294
 30
0.0
  0
VERTEX
  5
1969
  8
0
 62
    32
 10
73.5169274429082549
 20
12.9207007274645793
 30
0.0
 42
-0.6153846153845322
  0
VERTEX
  5
196A
  8
0
 62
    32
 10
72.2169274429080446
 20
12.9207007274625294
 30
0.0
  0
VERTEX
  5
196B
  8
0
 62
    32
 10
72.2169274429080446
 20
14.0207007274638205
 30
0.0
  0
VERTEX
  5
196C
  8
0
 62
    32
 10
71.0169274429082549
 20
14.0207007274638205
 30
0.0
  0
VERTEX
  5
196D
  8
0
 62
    32
 10
71.0169274429082549
 20
6.520700727463808
 30
0.0
  0
VERTEX
  5
196E
  8
0
 62
    32
 10
72.2169274429080446
 20
6.520700727463808
 30
0.0
  0
VERTEX
  5
196F
  8
0
 62
    32
 10
72.2169274429080446
 20
7.620700727464615
 30
0.0
 42
-0.6153846153840894
  0
VERTEX
  5
1970
  8
0
 62
    32
 10
73.5169274429082549
 20
7.6207007274637268
 30
0.0
  0
VERTEX
  5
1971
  8
0
 62
    32
 10
73.5169274429082549
 20
5.7607007274644948
 30
0.0
 42
-0.4142135623731671
  0
VERTEX
  5
1972
  8
0
 62
    32
 10
73.0169274429082549
 20
5.260700727463834
 30
0.0
  0
VERTEX
  5
1973
  8
0
 62
    32
 10
69.0169274429082549
 20
5.260700727463834
 30
0.0
 42
-0.4142135623730951
  0
VERTEX
  5
1974
  8
0
 62
    32
 10
68.5169274429086954
 20
5.76070072746381
 30
0.0
  0
VERTEX
  5
1975
  8
0
 62
    32
 10
68.5152899499909154
 20
40.7606632284583768
 30
0.0
  0
VERTEX
  5
1976
  8
0
 62
    32
 10
68.5169274429086954
 20
55.2607007274624706
 30
0.0
  0
VERTEX
  5
1977
  8
0
 62
    32
 10
73.0169274429086954
 20
55.2607007274624706
 30
0.0
 42
-0.4142135623733615
  0
VERTEX
  5
1978
  8
0
 62
    32
 10
73.5169274429086954
 20
54.7607007274624635
 30
0.0
  0
VERTEX
  5
1979
  8
0
 62
    32
 10
73.5169274429082549
 20
53.7607007274638278
 30
0.0
 42
-0.414213562372829
  0
VERTEX
  5
197A
  8
0
 62
    32
 10
73.0169274429082549
 20
53.2607007274645028
 30
0.0
  0
VERTEX
  5
197B
  8
0
 62
    32
 10
70.5169274429086954
 20
53.2607007274645028
 30
0.0
  0
VERTEX
  5
197C
  8
0
 62
    32
 10
70.5169274429082549
 20
49.2607007274638278
 30
0.0
  0
VERTEX
  5
197D
  8
0
 62
    32
 10
88.1085649358238356
 20
49.2607007274638278
 30
0.0
  0
VERTEX
  5
197E
  8
0
 62
    32
 10
88.1085649358252567
 20
53.2607007274645028
 30
0.0
  0
VERTEX
  5
197F
  8
0
 62
    32
 10
85.6085649358234235
 20
53.2607007274645028
 30
0.0
 42
-0.4142135623728287
  0
VERTEX
  5
1980
  8
0
 62
    32
 10
85.1085649358234235
 20
53.7607007274638278
 30
0.0
  0
VERTEX
  5
1981
  8
0
 62
    32
 10
85.1085649358234235
 20
54.7607007274624635
 30
0.0
 42
-0.4142135093935159
  0
VERTEX
  5
1982
  8
0
 62
    32
 10
85.6085648453810251
 20
55.2607007274624706
 30
0.0
  0
VERTEX
  5
1983
  8
0
 62
    32
 10
91.136983071535866
 20
55.2607017274637116
 30
0.0
 42
-0.0669525176422247
  0
VERTEX
  5
1984
  8
0
 62
    32
 10
92.0618067194078264
 20
55.1363057313916585
 30
0.0
  0
VERTEX
  5
1985
  8
0
 62
    32
 10
92.3377649837435257
 20
55.0607007274637823
 30
0.0
  0
VERTEX
  5
1986
  8
0
 62
    32
 10
92.6077649837439481
 20
55.2607007274624706
 30
0.0
  0
VERTEX
  5
1987
  8
0
 62
    32
 10
94.1837979754060655
 20
55.2607007274624706
 30
0.0
 42
-0.4318902213007532
  0
VERTEX
  5
1988
  8
0
 62
    32
 10
94.3834384124084664
 20
55.048713404443923
 30
0.0
  0
VERTEX
  5
1989
  8
0
 62
    32
 10
94.3614104386325749
 20
53.9357007753384394
 30
0.0
  0
VERTEX
  5
198A
  8
0
 62
    32
 10
93.8203538076591741
 20
52.9985631911298611
 30
0.0
 42
-0.3700928233967648
  0
VERTEX
  5
198B
  8
0
 62
    32
 10
93.5747046960351838
 20
52.9121446761104295
 30
0.0
  0
VERTEX
  5
198C
  8
0
 62
    32
 10
91.4912113538158422
 20
53.7218102593677926
 30
0.0
  0
VERTEX
  5
198D
  8
0
 62
    32
 10
91.2752899499924553
 20
53.7218102593677926
 30
0.0
 42
0.4142135623730882
  0
VERTEX
  5
198E
  8
0
 62
    32
 10
90.9752899499936518
 20
53.421810259367831
 30
0.0
  0
VERTEX
  5
198F
  8
0
 62
    32
 10
90.9752899499936518
 20
49.3107007244813218
 30
0.0
 42
0.414213562373033
  0
VERTEX
  5
1990
  8
0
 62
    32
 10
91.1752899499939389
 20
49.1107007244815108
 30
0.0
  0
VERTEX
  5
1991
  8
0
 62
    32
 10
91.5107756754133561
 20
49.110700724482399
 30
0.0
  0
VERTEX
  5
1992
  8
0
 62
    32
 10
92.9378935891491551
 20
50.0154089091876202
 30
0.0
 42
-0.5630482836134048
  0
VERTEX
  5
1993
  8
0
 62
    32
 10
93.4252899499939531
 20
49.6583393678807994
 30
0.0
  0
VERTEX
  5
1994
  8
0
 62
    32
 10
93.4252899499939531
 20
48.4472369528278932
 30
0.0
 42
-0.2568852938753183
  0
VERTEX
  5
1995
  8
0
 62
    32
 10
92.9607081773629602
 20
47.6026498810578005
 30
0.0
  0
SEQEND
  5
1996
  8
0
 62
    32
  0
POLYLINE
  5
BE2
  8
0
 62
    32
 66
     1
 10
0.0
 20
0.0
 30
0.0
 70
     1
  0
VERTEX
  5
1997
  8
0
 62
    32
 10
106.2135010781593962
 20
52.9985631911298611
 30
0.0
 42
0.3700928233967711
  0
VERTEX
  5
1998
  8
0
 62
    32
 10
106.4591501897839976
 20
52.9121446761104295
 30
0.0
  0
VERTEX
  5
1999
  8
0
 62
    32
 10
108.5076946151675941
 20
53.7082287736203696
 30
0.0
 42
-0.1979075106054854
  0
VERTEX
  5
199A
  8
0
 62
    32
 10
108.6600223114430008
 20
53.7051640156158925
 30
0.0
 42
-0.5160073444687262
  0
VERTEX
  5
199B
  8
0
 62
    32
 10
109.0585649358250038
 20
53.421810259367831
 30
0.0
  0
VERTEX
  5
199C
  8
0
 62
    32
 10
109.0585649358250038
 20
49.3107007244813218
 30
0.0
 42
-0.6613481454685795
  0
VERTEX
  5
199D
  8
0
 62
    32
 10
108.7198485241937931
 20
49.1666251986495269
 30
0.0
 42
-0.3457270504181441
  0
VERTEX
  5
199E
  8
0
 62
    32
 10
108.4740484777936018
 20
49.1417833033418816
 30
0.0
  0
VERTEX
  5
199F
  8
0
 62
    32
 10
106.6785621251469962
 20
50.2800152483915923
 30
0.0
  0
VERTEX
  5
19A0
  8
0
 62
    32
 10
105.1180143300330059
 20
50.2800152483904483
 30
0.0
 42
-0.2914734195861662
  0
VERTEX
  5
19A1
  8
0
 62
    32
 10
104.8461219939222957
 20
50.4532297698687131
 30
0.0
  0
VERTEX
  5
19A2
  8
0
 62
    32
 10
103.3989030890239036
 20
53.556800726913842
 30
0.0
 42
0.2914734195861326
  0
VERTEX
  5
19A3
  8
0
 62
    32
 10
103.1270107529140034
 20
53.730015248391652
 30
0.0
  0
VERTEX
  5
19A4
  8
0
 62
    32
 10
96.9068441329023642
 20
53.730015248391652
 30
0.0
 42
0.2914734195861702
  0
VERTEX
  5
19A5
  8
0
 62
    32
 10
96.6349517967924641
 20
53.556800726913842
 30
0.0
  0
VERTEX
  5
19A6
  8
0
 62
    32
 10
95.187732891897241
 20
50.4532297698696226
 30
0.0
 42
-0.2914734195861652
  0
VERTEX
  5
19A7
  8
0
 62
    32
 10
94.9158405557851523
 20
50.2800152483915923
 30
0.0
  0
VERTEX
  5
19A8
  8
0
 62
    32
 10
93.3552927606716594
 20
50.2800152483915923
 30
0.0
  0
VERTEX
  5
19A9
  8
0
 62
    32
 10
91.5598064080237606
 20
49.1417833033418816
 30
0.0
 42
-0.3457270504176511
  0
VERTEX
  5
19AA
  8
0
 62
    32
 10
91.3140063616261557
 20
49.1666251986495269
 30
0.0
 42
-0.6613481454715781
  0
VERTEX
  5
19AB
  8
0
 62
    32
 10
90.9752899499936518
 20
49.3107007244813218
 30
0.0
  0
VERTEX
  5
19AC
  8
0
 62
    32
 10
90.9752899499936518
 20
53.421810259367831
 30
0.0
 42
-0.5160073444670943
  0
VERTEX
  5
19AD
  8
0
 62
    32
 10
91.3738325743743616
 20
53.7051640156158925
 30
0.0
 42
-0.1979075106066123
  0
VERTEX
  5
19AE
  8
0
 62
    32
 10
91.5261602706514452
 20
53.7082287736203696
 30
0.0
  0
VERTEX
  5
19AF
  8
0
 62
    32
 10
93.5747046960351838
 20
52.9121446761104295
 30
0.0
 42
0.3700928233967796
  0
VERTEX
  5
19B0
  8
0
 62
    32
 10
93.8203538076591741
 20
52.9985631911298611
 30
0.0
  0
VERTEX
  5
19B1
  8
0
 62
    32
 10
95.0397969696838629
 20
55.1107007263127713
 30
0.0
 42
-0.2679491936183249
  0
VERTEX
  5
19B2
  8
0
 62
    32
 10
95.299604591483444
 20
55.2607007274638207
 30
0.0
  0
VERTEX
  5
19B3
  8
0
 62
    32
 10
104.7342502943347995
 20
55.2607007274638207
 30
0.0
 42
-0.2679491936183277
  0
VERTEX
  5
19B4
  8
0
 62
    32
 10
104.9940579161348069
 20
55.1107007263127713
 30
0.0
  0
SEQEND
  5
19B5
  8
0
 62
    32
  0
POLYLINE
  5
BE3
  8
0
 62
    32
 66
     1
 10
0.0
 20
0.0
 30
0.0
 70
     1
  0
VERTEX
  5
19B6
  8
0
 62
    32
 10
131.5169274429100028
 20
5.7607007274638127
 30
0.0
 42
-0.414213562373103
  0
VERTEX
  5
19B7
  8
0
 62
    32
 10
131.0169274429100028
 20
5.260700727463834
 30
0.0
  0
VERTEX
  5
19B8
  8
0
 62
    32
 10
127.0169274429100028
 20
5.260700727463834
 30
0.0
 42
-0.4142135623732381
  0
VERTEX
  5
19B9
  8
0
 62
    32
 10
126.5169274429100028
 20
5.760700727464509
 30
0.0
  0
VERTEX
  5
19BA
  8
0
 62
    32
 10
126.5169274429108981
 20
7.6207007274646257
 30
0.0
 42
-0.6153846153844053
  0
VERTEX
  5
19BB
  8
0
 62
    32
 10
127.8169274429104973
 20
7.6207007274646257
 30
0.0
  0
VERTEX
  5
19BC
  8
0
 62
    32
 10
127.8169274429104973
 20
6.5207007274638222
 30
0.0
  0
VERTEX
  5
19BD
  8
0
 62
    32
 10
129.0169274429100028
 20
6.5207007274638222
 30
0.0
  0
VERTEX
  5
19BE
  8
0
 62
    32
 10
129.0169274429100028
 20
14.0207007274638205
 30
0.0
  0
VERTEX
  5
19BF
  8
0
 62
    32
 10
127.8169274429104973
 20
14.0207007274638205
 30
0.0
  0
VERTEX
  5
19C0
  8
0
 62
    32
 10
127.8169274429104973
 20
12.9207007274625507
 30
0.0
 42
-0.6153846153835416
  0
VERTEX
  5
19C1
  8
0
 62
    32
 10
126.5169274429100028
 20
12.92070072746459
 30
0.0
  0
VERTEX
  5
19C2
  8
0
 62
    32
 10
126.5169274429100028
 20
14.7807007274624294
 30
0.0
 42
-0.4142135623729926
  0
VERTEX
  5
19C3
  8
0
 62
    32
 10
127.0169274429100028
 20
15.2807007274624294
 30
0.0
  0
VERTEX
  5
19C4
  8
0
 62
    32
 10
129.6169274429113045
 20
15.2807007274638096
 30
0.0
 42
0.4142135623730185
  0
VERTEX
  5
19C5
  8
0
 62
    32
 10
130.1169274429111908
 20
15.7807007274638096
 30
0.0
  0
VERTEX
  5
19C6
  8
0
 62
    32
 10
130.1169274429111908
 20
40.9743653824317704
 30
0.0
  0
VERTEX
  5
19C7
  8
0
 62
    32
 10
130.1169274430208986
 20
41.5411262915635007
 30
0.0
 42
-0.1448793903361893
  0
VERTEX
  5
19C8
  8
0
 62
    32
 10
128.2762656247963946
 20
40.9612185639313182
 30
0.0
 42
-1.0
  0
VERTEX
  5
19C9
  8
0
 62
    32
 10
128.2500870151405934
 20
42.4609901066654771
 30
0.0
 42
2.355852365824183
  0
VERTEX
  5
19CA
  8
0
 62
    32
 10
126.317216822113096
 20
44.3938602996937703
 30
0.0
 42
-1.0
  0
VERTEX
  5
19CB
  8
0
 62
    32
 10
124.8174452793787026
 20
44.4200389093483565
 30
0.0
 42
-0.1448793903364605
  0
VERTEX
  5
19CC
  8
0
 62
    32
 10
125.3973530070102953
 20
46.2607007275736422
 30
0.0
  0
VERTEX
  5
19CD
  8
0
 62
    32
 10
109.2770626833836047
 20
46.2607007274638207
 30
0.0
 42
-0.1421976721932902
  0
VERTEX
  5
19CE
  8
0
 62
    32
 10
109.1164372151706061
 20
46.3073246059326635
 30
0.0
  0
VERTEX
  5
19CF
  8
0
 62
    32
 10
107.0731467084548001
 20
47.6026498810578005
 30
0.0
 42
-0.2568852938753163
  0
VERTEX
  5
19D0
  8
0
 62
    32
 10
106.6085649358251999
 20
48.4472369528278932
 30
0.0
  0
VERTEX
  5
19D1
  8
0
 62
    32
 10
106.6085649358251999
 20
49.7198034221963923
 30
0.0
 42
-0.6201356363352682
  0
VERTEX
  5
19D2
  8
0
 62
    32
 10
107.1979124056116035
 20
49.950777947854597
 30
0.0
  0
VERTEX
  5
19D3
  8
0
 62
    32
 10
108.523079210405001
 20
49.110700724482399
 30
0.0
  0
VERTEX
  5
19D4
  8
0
 62
    32
 10
108.8585649358251999
 20
49.110700724482399
 30
0.0
 42
0.4142135623731055
  0
VERTEX
  5
19D5
  8
0
 62
    32
 10
109.0585649358250038
 20
49.3107007244813218
 30
0.0
  0
VERTEX
  5
19D6
  8
0
 62
    32
 10
109.0585649358250038
 20
53.421810259367831
 30
0.0
 42
0.4142135623730951
  0
VERTEX
  5
19D7
  8
0
 62
    32
 10
108.7585649358262003
 20
53.7218102593677926
 30
0.0
  0
VERTEX
  5
19D8
  8
0
 62
    32
 10
108.5426435320027991
 20
53.7218102593677926
 30
0.0
  0
VERTEX
  5
19D9
  8
0
 62
    32
 10
106.4591501897839976
 20
52.9121446761104295
 30
0.0
 42
-0.3700928233967586
  0
VERTEX
  5
19DA
  8
0
 62
    32
 10
106.2135010781593962
 20
52.9985631911298611
 30
0.0
  0
VERTEX
  5
19DB
  8
0
 62
    32
 10
105.6724444471859954
 20
53.9357007753384394
 30
0.0
  0
VERTEX
  5
19DC
  8
0
 62
    32
 10
105.6500985050365955
 20
55.0647794674242803
 30
0.0
 42
-0.4082525098560529
  0
VERTEX
  5
19DD
  8
0
 62
    32
 10
105.8500569104131017
 20
55.2607007274624706
 30
0.0
  0
VERTEX
  5
19DE
  8
0
 62
    32
 10
107.4260899020733007
 20
55.2607007274624706
 30
0.0
  0
VERTEX
  5
19DF
  8
0
 62
    32
 10
107.6960899020732967
 20
55.0607007274637823
 30
0.0
  0
VERTEX
  5
19E0
  8
0
 62
    32
 10
107.9720481664084986
 20
55.1363057313916585
 30
0.0
 42
-0.066952517642229
  0
VERTEX
  5
19E1
  8
0
 62
    32
 10
108.8968718142818943
 20
55.2607017274637116
 30
0.0
  0
VERTEX
  5
19E2
  8
0
 62
    32
 10
114.4252900404362947
 20
55.2607007274624706
 30
0.0
 42
-0.4142135093937772
  0
VERTEX
  5
19E3
  8
0
 62
    32
 10
114.925289949995701
 20
54.7607007274624635
 30
0.0
  0
VERTEX
  5
19E4
  8
0
 62
    32
 10
114.9252899499938962
 20
53.7607007274638278
 30
0.0
 42
-0.414213562372829
  0
VERTEX
  5
19E5
  8
0
 62
    32
 10
114.4252899499953031
 20
53.2607007274645028
 30
0.0
  0
VERTEX
  5
19E6
  8
0
 62
    32
 10
111.9252899499938962
 20
53.2607007274645028
 30
0.0
  0
VERTEX
  5
19E7
  8
0
 62
    32
 10
111.9252899499938962
 20
49.2607007274638278
 30
0.0
  0
VERTEX
  5
19E8
  8
0
 62
    32
 10
129.5169274429100028
 20
49.2607007274638278
 30
0.0
  0
VERTEX
  5
19E9
  8
0
 62
    32
 10
129.5169274429086954
 20
53.2607007274645028
 30
0.0
  0
VERTEX
  5
19EA
  8
0
 62
    32
 10
127.0169274429100028
 20
53.2607007274645028
 30
0.0
 42
-0.4142135623728292
  0
VERTEX
  5
19EB
  8
0
 62
    32
 10
126.5169274429100028
 20
53.7607007274638278
 30
0.0
  0
VERTEX
  5
19EC
  8
0
 62
    32
 10
126.5169274429085959
 20
54.7607007274624635
 30
0.0
 42
-0.4142135623733615
  0
VERTEX
  5
19ED
  8
0
 62
    32
 10
127.0169274429085959
 20
55.2607007274624706
 30
0.0
  0
VERTEX
  5
19EE
  8
0
 62
    32
 10
131.5169274429086101
 20
55.2607007274624706
 30
0.0
  0
SEQEND
  5
19EF
  8
0
 62
    32
  0
POLYLINE
  5
C30
  8
0
 62
    32
 66
     1
 10
0.0
 20
0.0
 30
0.0
 70
     1
  0
VERTEX
  5
19F0
  8
0
 62
    32
 10
64.1152899499903839
 20
40.9743653824317704
 30
0.0
  0
VERTEX
  5
19F1
  8
0
 62
    32
 10
64.1152899501008733
 20
41.5411262915634865
 30
0.0
 42
-0.1448793903361586
  0
VERTEX
  5
19F2
  8
0
 62
    32
 10
62.2746281318773427
 20
40.9612185639313111
 30
0.0
 42
-1.0
  0
VERTEX
  5
19F3
  8
0
 62
    32
 10
62.2484495222214065
 20
42.46099010666547
 30
0.0
 42
2.3558523658243882
  0
VERTEX
  5
19F4
  8
0
 62
    32
 10
60.3155793291931417
 20
44.3938602996933227
 30
0.0
 42
-1.0
  0
VERTEX
  5
19F5
  8
0
 62
    32
 10
58.8158077864592315
 20
44.4200389093479728
 30
0.0
 42
-0.1448793903364907
  0
VERTEX
  5
19F6
  8
0
 62
    32
 10
59.3957155140902771
 20
46.2607007275736422
 30
0.0
  0
VERTEX
  5
19F7
  8
0
 62
    32
 10
57.2195610052159509
 20
46.2607007275588131
 30
0.0
  0
VERTEX
  5
19F8
  8
0
 62
    32
 10
57.219561005215958
 20
30.26070072755601
 30
0.0
  0
VERTEX
  5
19F9
  8
0
 62
    32
 10
11.2195610052159491
 20
30.2607007275560314
 30
0.0
  0
VERTEX
  5
19FA
  8
0
 62
    32
 10
11.2195610052159491
 20
46.2607007275560065
 30
0.0
  0
VERTEX
  5
19FB
  8
0
 62
    32
 10
8.6348643858874503
 20
46.2607007275736422
 30
0.0
 42
-0.1448793903364343
  0
VERTEX
  5
19FC
  8
0
 62
    32
 10
9.2147721135194054
 20
44.4200389093486834
 30
0.0
 42
-1.0
  0
VERTEX
  5
19FD
  8
0
 62
    32
 10
7.7150005707845892
 20
44.3938602996931877
 30
0.0
 42
2.3558523658238681
  0
VERTEX
  5
19FE
  8
0
 62
    32
 10
5.7821303777573902
 20
42.4609901066654629
 30
0.0
 42
-1.0
  0
VERTEX
  5
19FF
  8
0
 62
    32
 10
5.755951768100779
 20
40.9612185639313111
 30
0.0
 42
-0.1448793903361528
  0
VERTEX
  5
1A00
  8
0
 62
    32
 10
3.915289949877319
 20
41.5411262915634865
 30
0.0
  0
VERTEX
  5
1A01
  8
0
 62
    32
 10
3.9152899499882809
 20
40.9743653824317491
 30
0.0
  0
VERTEX
  5
1A02
  8
0
 62
    32
 10
3.91528994998691
 20
15.7807007274638806
 30
0.0
 42
0.4142135623729568
  0
VERTEX
  5
1A03
  8
0
 62
    32
 10
4.4152899499867138
 20
15.2807007274638007
 30
0.0
  0
VERTEX
  5
1A04
  8
0
 62
    32
 10
7.0152899499883601
 20
15.2807007274624294
 30
0.0
 42
-0.4142135623729411
  0
VERTEX
  5
1A05
  8
0
 62
    32
 10
7.5152899499881904
 20
14.7807007274623494
 30
0.0
  0
VERTEX
  5
1A06
  8
0
 62
    32
 10
7.5152899499881904
 20
12.9207007274645793
 30
0.0
 42
-0.6153846153845323
  0
VERTEX
  5
1A07
  8
0
 62
    32
 10
6.2152899499880014
 20
12.9207007274625294
 30
0.0
  0
VERTEX
  5
1A08
  8
0
 62
    32
 10
6.2152899499880014
 20
12.0207007274658508
 30
0.0
  0
VERTEX
  5
1A09
  8
0
 62
    32
 10
8.9252899513767403
 20
12.0207007276606994
 30
0.0
  0
VERTEX
  5
1A0A
  8
0
 62
    32
 10
8.9252899503027265
 20
26.9607007243993593
 30
0.0
 42
-0.4142135623730335
  0
VERTEX
  5
1A0B
  8
0
 62
    32
 10
9.2252899502803913
 20
27.2607007244202002
 30
0.0
  0
VERTEX
  5
1A0C
  8
0
 62
    32
 10
29.3965878338691518
 20
27.2607007258744893
 30
0.0
  0
VERTEX
  5
1A0D
  8
0
 62
    32
 10
38.4539920663456698
 20
27.2607007265277197
 30
0.0
  0
VERTEX
  5
1A0E
  8
0
 62
    32
 10
58.6252899502733698
 20
27.2607007279806588
 30
0.0
 42
-0.414213562373049
  0
VERTEX
  5
1A0F
  8
0
 62
    32
 10
58.925289950296353
 20
26.960700728000969
 30
0.0
  0
VERTEX
  5
1A10
  8
0
 62
    32
 10
58.9252899513748218
 20
12.0207007274658508
 30
0.0
  0
VERTEX
  5
1A11
  8
0
 62
    32
 10
61.8152899499901665
 20
12.0207007274658508
 30
0.0
  0
VERTEX
  5
1A12
  8
0
 62
    32
 10
61.8152899499901665
 20
12.9207007274625294
 30
0.0
 42
-0.6153846153835416
  0
VERTEX
  5
1A13
  8
0
 62
    32
 10
60.5152899499899917
 20
12.9207007274645793
 30
0.0
  0
VERTEX
  5
1A14
  8
0
 62
    32
 10
60.5152899499899917
 20
14.7807007274623494
 30
0.0
 42
-0.4142135623729389
  0
VERTEX
  5
1A15
  8
0
 62
    32
 10
61.0152899499898211
 20
15.2807007274624294
 30
0.0
  0
VERTEX
  5
1A16
  8
0
 62
    32
 10
63.6152899499910234
 20
15.2807007274638096
 30
0.0
 42
0.4142135623729465
  0
VERTEX
  5
1A17
  8
0
 62
    32
 10
64.1152899499908102
 20
15.7807007274638593
 30
0.0
  0
SEQEND
  5
1A18
  8
0
 62
    32
  0
ENDSEC
  0
EOF
