  0
SECTION
  2
HEADER
  9
$ACADVER
  1
AC1009
  9
$INSBASE
 10
0.0
 20
0.0
 30
0.0
  9
$EXTMIN
 10
0.0512705091983889
 20
0.0589148761458773
 30
-0.0015258207003583
  9
$EXTMAX
 10
129.0582281782504879
 20
37.7866520010710474
 30
0.0000000349246037
  9
$LIMMIN
 10
0.0
 20
0.0
  9
$LIMMAX
 10
420.0
 20
297.0
  9
$ORTHOMODE
 70
     1
  9
$REGENMODE
 70
     1
  9
$FILLMODE
 70
     1
  9
$QTEXTMODE
 70
     0
  9
$MIRRTEXT
 70
     0
  9
$DRAGMODE
 70
     2
  9
$LTSCALE
 40
1.0
  9
$OSMODE
 70
   167
  9
$ATTMODE
 70
     1
  9
$TEXTSIZE
 40
2.5
  9
$TRACEWID
 40
1.0
  9
$TEXTSTYLE
  7
STANDARD
  9
$CLAYER
  8
0
  9
$CELTYPE
  6
BYLAYER
  9
$CECOLOR
 62
    32
  9
$DIMSCALE
 40
1.0
  9
$DIMASZ
 40
2.5
  9
$DIMEXO
 40
0.625
  9
$DIMDLI
 40
3.75
  9
$DIMRND
 40
0.0
  9
$DIMDLE
 40
0.0
  9
$DIMEXE
 40
1.25
  9
$DIMTP
 40
0.0
  9
$DIMTM
 40
0.0
  9
$DIMTXT
 40
2.5
  9
$DIMCEN
 40
2.5
  9
$DIMTSZ
 40
0.0
  9
$DIMTOL
 70
     0
  9
$DIMLIM
 70
     0
  9
$DIMTIH
 70
     0
  9
$DIMTOH
 70
     0
  9
$DIMSE1
 70
     0
  9
$DIMSE2
 70
     0
  9
$DIMTAD
 70
     1
  9
$DIMZIN
 70
     8
  9
$DIMBLK
  1

  9
$DIMASO
 70
     1
  9
$DIMSHO
 70
     1
  9
$DIMPOST
  1

  9
$DIMAPOST
  1

  9
$DIMALT
 70
     0
  9
$DIMALTD
 70
     3
  9
$DIMALTF
 40
0.03937007874016
  9
$DIMLFAC
 40
1.0
  9
$DIMTOFL
 70
     1
  9
$DIMTVP
 40
0.0
  9
$DIMTIX
 70
     0
  9
$DIMSOXD
 70
     0
  9
$DIMSAH
 70
     0
  9
$DIMBLK1
  1

  9
$DIMBLK2
  1

  9
$DIMSTYLE
  2
ISO-25
  9
$DIMCLRD
 70
     0
  9
$DIMCLRE
 70
     0
  9
$DIMCLRT
 70
     0
  9
$DIMTFAC
 40
1.0
  9
$DIMGAP
 40
0.625
  9
$LUNITS
 70
     2
  9
$LUPREC
 70
     4
  9
$SKETCHINC
 40
1.0
  9
$FILLETRAD
 40
0.0
  9
$AUNITS
 70
     0
  9
$AUPREC
 70
     0
  9
$MENU
  1
.
  9
$ELEVATION
 40
0.0
  9
$PELEVATION
 40
0.0
  9
$THICKNESS
 40
0.0
  9
$LIMCHECK
 70
     0
  9
$BLIPMODE
 70
     0
  9
$CHAMFERA
 40
0.0
  9
$CHAMFERB
 40
0.0
  9
$SKPOLY
 70
     0
  9
$TDCREATE
 40
2458870.5814583338797092
  9
$TDUPDATE
 40
2458870.6039814809337258
  9
$TDINDWG
 40
0.0206018519
  9
$TDUSRTIMER
 40
0.0206018519
  9
$USRTIMER
 70
     1
  9
$ANGBASE
 50
0.0
  9
$ANGDIR
 70
     0
  9
$PDMODE
 70
     0
  9
$PDSIZE
 40
0.0
  9
$PLINEWID
 40
0.0
  9
$COORDS
 70
     1
  9
$SPLFRAME
 70
     0
  9
$SPLINETYPE
 70
     6
  9
$SPLINESEGS
 70
     8
  9
$ATTDIA
 70
     1
  9
$ATTREQ
 70
     1
  9
$HANDLING
 70
     1
  9
$HANDSEED
  5
2B4B
  9
$SURFTAB1
 70
     6
  9
$SURFTAB2
 70
     6
  9
$SURFTYPE
 70
     6
  9
$SURFU
 70
     6
  9
$SURFV
 70
     6
  9
$UCSNAME
  2

  9
$UCSORG
 10
0.0
 20
0.0
 30
0.0
  9
$UCSXDIR
 10
1.0
 20
0.0
 30
0.0
  9
$UCSYDIR
 10
0.0
 20
1.0
 30
0.0
  9
$PUCSNAME
  2

  9
$PUCSORG
 10
0.0
 20
0.0
 30
0.0
  9
$PUCSXDIR
 10
1.0
 20
0.0
 30
0.0
  9
$PUCSYDIR
 10
0.0
 20
1.0
 30
0.0
  9
$USERI1
 70
     0
  9
$USERI2
 70
     0
  9
$USERI3
 70
     0
  9
$USERI4
 70
     0
  9
$USERI5
 70
     0
  9
$USERR1
 40
0.0
  9
$USERR2
 40
0.0
  9
$USERR3
 40
0.0
  9
$USERR4
 40
0.0
  9
$USERR5
 40
0.0
  9
$WORLDVIEW
 70
     1
  9
$SHADEDGE
 70
     3
  9
$SHADEDIF
 70
    70
  9
$TILEMODE
 70
     1
  9
$MAXACTVP
 70
    64
  9
$PLIMCHECK
 70
     0
  9
$PEXTMIN
 10
1.049999952316284
 20
0.7999999523162842
 30
0.0
  9
$PEXTMAX
 10
9.4499995708465594
 20
7.1999995708465576
 30
0.0
  9
$PLIMMIN
 10
-0.2500002402958907
 20
-0.2499999962453767
  9
$PLIMMAX
 10
10.7499995194082203
 20
8.2499997634587334
  9
$UNITMODE
 70
     0
  9
$VISRETAIN
 70
     1
  9
$PLINEGEN
 70
     0
  9
$PSLTSCALE
 70
     1
  0
ENDSEC
  0
SECTION
  2
TABLES
  0
TABLE
  2
VPORT
 70
     1
  0
VPORT
  2
*ACTIVE
 70
     0
 10
0.0
 20
0.0
 11
1.0
 21
1.0
 12
105.1536212665839969
 22
10.8370788865649903
 13
0.0
 23
0.0
 14
10.0
 24
10.0
 15
10.0
 25
10.0
 16
0.0
 26
0.0
 36
1.0
 17
0.0
 27
0.0
 37
0.0
 40
152.0675078614584947
 41
2.29156626506024
 42
50.0
 43
0.0
 44
0.0
 50
0.0
 51
0.0
 71
     0
 72
  1000
 73
     1
 74
     3
 75
     0
 76
     1
 77
     0
 78
     0
  0
ENDTAB
  0
TABLE
  2
LTYPE
 70
     1
  0
LTYPE
  2
CONTINUOUS
 70
     0
  3
Solid line
 72
    65
 73
     0
 40
0.0
  0
ENDTAB
  0
TABLE
  2
LAYER
 70
     3
  0
LAYER
  2
0
 70
     0
 62
     7
  6
CONTINUOUS
  0
LAYER
  2
DEFPOINTS
 70
     0
 62
     7
  6
CONTINUOUS
  0
ENDTAB
  0
TABLE
  2
STYLE
 70
     6
  0
STYLE
  2
STANDARD
 70
     0
 40
0.0
 41
1.0
 50
0.0
 71
     0
 42
2.5
  3
txt
  4

  0
ENDTAB
  0
TABLE
  2
VIEW
 70
     2
  0
ENDTAB
  0
TABLE
  2
UCS
 70
     0
  0
ENDTAB
  0
TABLE
  2
APPID
 70
    20
  0
APPID
  2
ACAD
 70
     0
  0
APPID
  2
ACADANNOTATIVE
 70
     0
  0
APPID
  2
ACAD_PSEXT
 70
     0
  0
APPID
  2
ACADANNOPO
 70
     0
  0
APPID
  2
ACAD_DSTYLE_DIMJAG
 70
     0
  0
APPID
  2
ACAD_DSTYLE_DIMTALN
 70
     0
  0
APPID
  2
ACAD_MLEADERVER
 70
     0
  0
APPID
  2
ACAD_NAV_VCDISPLAY
 70
     0
  0
APPID
  2
ACAD_DSTYLE_DIMBREAK
 70
     0
  0
APPID
  2
ACAECLAYERSTANDARD
 70
     0
  0
APPID
  2
ACAUTHENVIRON
 70
     0
  0
APPID
  2
ACDBDYNAMICBLOCKTRUENAME
 70
     0
  0
APPID
  2
ACDBDYNAMICBLOCKGUID
 70
     0
  0
APPID
  2
ACCMTRANSPARENCY
 70
     0
  0
APPID
  2
ACDBBLOCKREPETAG
 70
     0
  0
APPID
  2
GRADIENTCOLOR1ACI
 70
     0
  0
APPID
  2
GRADIENTCOLOR2ACI
 70
     0
  0
APPID
  2
ACDBBLOCKREPBTAG
 70
     0
  0
APPID
  2
ACDBBLOCKARRAYACTIONTAG
 70
     0
  0
APPID
  2
ACAD_EXEMPT_FROM_CAD_STANDARDS
 70
     0
  0
ENDTAB
  0
TABLE
  2
DIMSTYLE
 70
     3
  0
DIMSTYLE
  2
STANDARD
 70
     0
  3

  4

  5

  6

  7

 40
1.0
 41
0.18
 42
0.0625
 43
0.38
 44
0.18
 45
0.0
 46
0.0
 47
0.0
 48
0.0
140
0.18
141
0.09
142
0.0
143
25.3999999999999986
144
1.0
145
0.0
146
1.0
147
0.09
 71
     0
 72
     0
 73
     1
 74
     1
 75
     0
 76
     0
 77
     0
 78
     0
170
     0
171
     2
172
     0
173
     0
174
     0
175
     0
176
     0
177
     0
178
     0
  0
DIMSTYLE
  2
ISO-25
 70
     0
  3

  4

  5

  6

  7

 40
1.0
 41
2.5
 42
0.625
 43
3.75
 44
1.25
 45
0.0
 46
0.0
 47
0.0
 48
0.0
140
2.5
141
2.5
142
0.0
143
0.03937007874016
144
1.0
145
0.0
146
1.0
147
0.625
 71
     0
 72
     0
 73
     0
 74
     0
 75
     0
 76
     0
 77
     1
 78
     8
170
     0
171
     3
172
     1
173
     0
174
     0
175
     0
176
     0
177
     0
178
     0
  0
ENDTAB
  0
ENDSEC
  0
SECTION
  2
BLOCKS
  0
BLOCK
  8
0
  2
$MODEL_SPACE
 70
     0
 10
0.0
 20
0.0
 30
0.0
  3
$MODEL_SPACE
  1

  0
ENDBLK
  5
2798
  8
0
  0
BLOCK
 67
     1
  8
0
 62
    32
  2
$PAPER_SPACE
 70
     0
 10
0.0
 20
0.0
 30
0.0
  3
$PAPER_SPACE
  1

  0
ENDBLK
  5
27E8
 67
     1
  8
0
 62
    32
  0
ENDSEC
  0
SECTION
  2
ENTITIES
  0
POLYLINE
  5
14DD
  8
0
 62
    32
 66
     1
 10
0.0
 20
0.0
 30
0.0
 70
     1
  0
VERTEX
  5
2812
  8
0
 62
    32
 10
36.3843343392804925
 20
4.878071538345238
 30
0.0
 42
-0.2914734195861674
  0
VERTEX
  5
2813
  8
0
 62
    32
 10
36.6562266753903714
 20
5.0512860598234957
 30
0.0
  0
VERTEX
  5
2814
  8
0
 62
    32
 10
38.1296951172680565
 20
5.0512860598223588
 30
0.0
 42
0.142197656026282
  0
VERTEX
  5
2815
  8
0
 62
    32
 10
38.2903205694196913
 20
5.0979099281114477
 30
0.0
  0
VERTEX
  5
2816
  8
0
 62
    32
 10
38.6341736420249617
 20
5.3158923990256417
 30
0.0
 42
-0.5070356667008996
  0
VERTEX
  5
2817
  8
0
 62
    32
 10
38.1467772811833967
 20
5.6114978860221072
 30
0.0
  0
VERTEX
  5
2818
  8
0
 62
    32
 10
38.1467772811833967
 20
6.8840643553860437
 30
0.0
 42
-0.2568852938753162
  0
VERTEX
  5
2819
  8
0
 62
    32
 10
38.6113590538129827
 20
7.7286514271561373
 30
0.0
  0
VERTEX
  5
281A
  8
0
 62
    32
 10
40.728195665194562
 20
9.0706005807501242
 30
0.0
  0
VERTEX
  5
281B
  8
0
 62
    32
 10
22.2950045477941785
 20
9.0706005807501242
 30
0.0
 42
-0.1421976721923538
  0
VERTEX
  5
281C
  8
0
 62
    32
 10
22.4556300160056708
 20
9.0239767022812885
 30
0.0
  0
VERTEX
  5
281D
  8
0
 62
    32
 10
24.4989205227216189
 20
7.7286514271561373
 30
0.0
 42
-0.2568852938753144
  0
VERTEX
  5
281E
  8
0
 62
    32
 10
24.9635022953521002
 20
6.8840643553860437
 30
0.0
  0
VERTEX
  5
281F
  8
0
 62
    32
 10
24.9635022953521002
 20
5.6729619403258758
 30
0.0
 42
-0.5630482836081404
  0
VERTEX
  5
2820
  8
0
 62
    32
 10
24.4761059345064496
 20
5.3158923990263238
 30
0.0
  0
VERTEX
  5
2821
  8
0
 62
    32
 10
24.8199590071126295
 20
5.0979099281114477
 30
0.0
 42
0.1421976560262375
  0
VERTEX
  5
2822
  8
0
 62
    32
 10
24.9805844592660797
 20
5.0512860598223588
 30
0.0
  0
VERTEX
  5
2823
  8
0
 62
    32
 10
26.4540529011437684
 20
5.0512860598223588
 30
0.0
 42
-0.2914734195861716
  0
VERTEX
  5
2824
  8
0
 62
    32
 10
26.7259452372545603
 20
4.8780715383443294
 30
0.0
  0
VERTEX
  5
2825
  8
0
 62
    32
 10
28.1731641421515597
 20
1.7745005813001169
 30
0.0
 42
0.2914734195861326
  0
VERTEX
  5
2826
  8
0
 62
    32
 10
28.4450564782610016
 20
1.601286059822314
 30
0.0
  0
VERTEX
  5
2827
  8
0
 62
    32
 10
34.6652230982726905
 20
1.601286059822314
 30
0.0
 42
0.2914734195861639
  0
VERTEX
  5
2828
  8
0
 62
    32
 10
34.937115434381667
 20
1.7745005813001169
 30
0.0
  0
SEQEND
  5
2829
  8
0
 62
    32
  0
POLYLINE
  5
14DE
  8
0
 62
    32
 66
     1
 10
0.0
 20
0.0
 30
0.0
 70
     1
  0
VERTEX
  5
282A
  8
0
 62
    32
 10
37.7517134235176783
 20
2.33273811708409
 30
0.0
 42
-0.3700928233967419
  0
VERTEX
  5
282B
  8
0
 62
    32
 10
37.997362535141292
 20
2.4191566321035221
 30
0.0
  0
VERTEX
  5
282C
  8
0
 62
    32
 10
40.0459069605244622
 20
1.623072534593575
 30
0.0
 42
0.1979075106141122
  0
VERTEX
  5
282D
  8
0
 62
    32
 10
40.1982346568070099
 20
1.626137292596467
 30
0.0
 42
0.5160073444618229
  0
VERTEX
  5
282E
  8
0
 62
    32
 10
40.5967772811823124
 20
1.9094910488461201
 30
0.0
  0
VERTEX
  5
282F
  8
0
 62
    32
 10
40.5967772811818506
 20
6.0206005837326302
 30
0.0
 42
0.414213562373064
  0
VERTEX
  5
2830
  8
0
 62
    32
 10
40.3967772811833967
 20
6.2206005837315379
 30
0.0
  0
VERTEX
  5
2831
  8
0
 62
    32
 10
40.1193444579198513
 20
6.2206005837315379
 30
0.0
 42
0.1421976560262388
  0
VERTEX
  5
2832
  8
0
 62
    32
 10
40.0122608231517916
 20
6.1895180048720704
 30
0.0
  0
VERTEX
  5
2833
  8
0
 62
    32
 10
38.2903205694196913
 20
5.0979099281114477
 30
0.0
 42
-0.1421976560262457
  0
VERTEX
  5
2834
  8
0
 62
    32
 10
38.1296951172680565
 20
5.0512860598223588
 30
0.0
  0
VERTEX
  5
2835
  8
0
 62
    32
 10
36.6562266753903714
 20
5.0512860598234957
 30
0.0
 42
0.2914734195861567
  0
VERTEX
  5
2836
  8
0
 62
    32
 10
36.3843343392804925
 20
4.878071538345238
 30
0.0
  0
VERTEX
  5
2837
  8
0
 62
    32
 10
34.937115434381667
 20
1.7745005813001169
 30
0.0
 42
-0.2914734195861326
  0
VERTEX
  5
2838
  8
0
 62
    32
 10
34.6652230982726905
 20
1.601286059822314
 30
0.0
  0
VERTEX
  5
2839
  8
0
 62
    32
 10
28.4450564782610016
 20
1.601286059822314
 30
0.0
 42
-0.2914734195861639
  0
VERTEX
  5
283A
  8
0
 62
    32
 10
28.1731641421515597
 20
1.7745005813001169
 30
0.0
  0
VERTEX
  5
283B
  8
0
 62
    32
 10
26.7259452372545603
 20
4.8780715383443294
 30
0.0
 42
0.2914734195861716
  0
VERTEX
  5
283C
  8
0
 62
    32
 10
26.4540529011437684
 20
5.0512860598223588
 30
0.0
  0
VERTEX
  5
283D
  8
0
 62
    32
 10
24.9805844592660797
 20
5.0512860598223588
 30
0.0
 42
-0.1421976560262514
  0
VERTEX
  5
283E
  8
0
 62
    32
 10
24.8199590071126295
 20
5.0979099281114477
 30
0.0
  0
VERTEX
  5
283F
  8
0
 62
    32
 10
23.0980187533814387
 20
6.1895180048720704
 30
0.0
 42
0.1421976560262665
  0
VERTEX
  5
2840
  8
0
 62
    32
 10
22.9909351186147504
 20
6.2206005837315379
 30
0.0
  0
VERTEX
  5
2841
  8
0
 62
    32
 10
22.7135022953521002
 20
6.2206005837324483
 30
0.0
 42
0.4142135623730951
  0
VERTEX
  5
2842
  8
0
 62
    32
 10
22.513502295351369
 20
6.0206005837326302
 30
0.0
  0
VERTEX
  5
2843
  8
0
 62
    32
 10
22.5135022953509214
 20
1.9094910488461201
 30
0.0
 42
0.5160073444712509
  0
VERTEX
  5
2844
  8
0
 62
    32
 10
22.9120449197348499
 20
1.6261372925973769
 30
0.0
 42
0.1979075106035819
  0
VERTEX
  5
2845
  8
0
 62
    32
 10
23.0643726160087716
 20
1.623072534593575
 30
0.0
  0
VERTEX
  5
2846
  8
0
 62
    32
 10
25.1129170413932989
 20
2.4191566321035221
 30
0.0
 42
-0.3700928233967669
  0
VERTEX
  5
2847
  8
0
 62
    32
 10
25.3585661530164508
 20
2.33273811708409
 30
0.0
  0
VERTEX
  5
2848
  8
0
 62
    32
 10
26.5780093150410792
 20
0.2206005819011807
 30
0.0
 42
0.2679491936183312
  0
VERTEX
  5
2849
  8
0
 62
    32
 10
26.8378169368406816
 20
0.0706005807501242
 30
0.0
  0
VERTEX
  5
284A
  8
0
 62
    32
 10
36.2724626396925487
 20
0.0706005807501242
 30
0.0
 42
0.2679491936183309
  0
VERTEX
  5
284B
  8
0
 62
    32
 10
36.53227026149262
 20
0.2206005819011807
 30
0.0
  0
SEQEND
  5
284C
  8
0
 62
    32
  0
POLYLINE
  5
14DF
  8
0
 62
    32
 66
     1
 10
0.0
 20
0.0
 30
0.0
 70
     1
  0
VERTEX
  5
284D
  8
0
 62
    32
 10
61.6551397882685706
 20
24.5506005807501495
 30
0.0
 42
0.4142135623730219
  0
VERTEX
  5
284E
  8
0
 62
    32
 10
61.1551397882685706
 20
25.0506005807501388
 30
0.0
  0
VERTEX
  5
284F
  8
0
 62
    32
 10
58.555139788267752
 20
25.0506005807515102
 30
0.0
 42
-0.4142135623729951
  0
VERTEX
  5
2850
  8
0
 62
    32
 10
58.055139788267752
 20
25.5506005807515102
 30
0.0
  0
VERTEX
  5
2851
  8
0
 62
    32
 10
58.055139788267752
 20
27.4106005807493602
 30
0.0
 42
-0.6153846153835416
  0
VERTEX
  5
2852
  8
0
 62
    32
 10
59.355139788267941
 20
27.4106005807514101
 30
0.0
  0
VERTEX
  5
2853
  8
0
 62
    32
 10
59.355139788267941
 20
28.3106005807480905
 30
0.0
  0
VERTEX
  5
2854
  8
0
 62
    32
 10
56.4651397896532217
 20
28.3106005807480905
 30
0.0
  0
VERTEX
  5
2855
  8
0
 62
    32
 10
56.4651397885740991
 20
13.3706005802121108
 30
0.0
 42
-0.4142135623730522
  0
VERTEX
  5
2856
  8
0
 62
    32
 10
56.1651397885502774
 20
13.0706005802333003
 30
0.0
  0
VERTEX
  5
2857
  8
0
 62
    32
 10
54.7594108434936899
 20
13.0706005803342595
 30
0.0
  0
VERTEX
  5
2858
  8
0
 62
    32
 10
54.7594108434936899
 20
9.0706005806553094
 30
0.0
  0
VERTEX
  5
2859
  8
0
 62
    32
 10
56.9355653523680303
 20
9.0706005806403027
 30
0.0
 42
-0.1448793903364584
  0
VERTEX
  5
285A
  8
0
 62
    32
 10
56.3556576247356134
 20
10.9112623988655706
 30
0.0
 42
-1.0
  0
VERTEX
  5
285B
  8
0
 62
    32
 10
57.855429167470902
 20
10.9374410085201799
 30
0.0
 42
2.355852365824195
  0
VERTEX
  5
285C
  8
0
 62
    32
 10
59.7882993604989679
 20
12.8703112015484695
 30
0.0
 42
-1.0
  0
VERTEX
  5
285D
  8
0
 62
    32
 10
59.8144779701547122
 20
14.3700827442826302
 30
0.0
 42
-0.1448793903361516
  0
VERTEX
  5
285E
  8
0
 62
    32
 10
61.6551397883786194
 20
13.7901750166504407
 30
0.0
  0
VERTEX
  5
285F
  8
0
 62
    32
 10
61.6551397882681229
 20
14.3569359257821798
 30
0.0
  0
SEQEND
  5
2860
  8
0
 62
    32
  0
POLYLINE
  5
14E0
  8
0
 62
    32
 66
     1
 10
0.0
 20
0.0
 30
0.0
 70
     1
  0
VERTEX
  5
2861
  8
0
 62
    32
 10
54.7594108434936899
 20
13.0706005803342595
 30
0.0
  0
VERTEX
  5
2862
  8
0
 62
    32
 10
8.759410843493697
 20
13.0706005836495898
 30
0.0
  0
VERTEX
  5
2863
  8
0
 62
    32
 10
8.759410843493697
 20
9.0706005806482608
 30
0.0
  0
VERTEX
  5
2864
  8
0
 62
    32
 10
40.8152750287408708
 20
9.0706005807501242
 30
0.0
  0
VERTEX
  5
2865
  8
0
 62
    32
 10
54.7594108434936899
 20
9.0706005806553094
 30
0.0
  0
SEQEND
  5
2866
  8
0
 62
    32
  0
POLYLINE
  5
14E1
  8
0
 62
    32
 66
     1
 10
0.0
 20
0.0
 30
0.0
 70
     1
  0
VERTEX
  5
2867
  8
0
 62
    32
 10
6.4651397896536764
 20
28.3106005805532313
 30
0.0
  0
VERTEX
  5
2868
  8
0
 62
    32
 10
3.7551397882657511
 20
28.3106005807480905
 30
0.0
  0
VERTEX
  5
2869
  8
0
 62
    32
 10
3.7551397882657511
 20
27.4106005807514101
 30
0.0
 42
-0.6153846153845323
  0
VERTEX
  5
286A
  8
0
 62
    32
 10
5.055139788265933
 20
27.4106005807493602
 30
0.0
  0
VERTEX
  5
286B
  8
0
 62
    32
 10
5.055139788265933
 20
25.5506005807515102
 30
0.0
 42
-0.4142135623729951
  0
VERTEX
  5
286C
  8
0
 62
    32
 10
4.555139788265933
 20
25.0506005807515102
 30
0.0
  0
VERTEX
  5
286D
  8
0
 62
    32
 10
1.9551397882646591
 20
25.0506005807501388
 30
0.0
 42
0.4142135623730212
  0
VERTEX
  5
286E
  8
0
 62
    32
 10
1.4551397882646591
 20
24.5506005807501495
 30
0.0
  0
VERTEX
  5
286F
  8
0
 62
    32
 10
1.4551397882660231
 20
14.3569359257821798
 30
0.0
  0
VERTEX
  5
2870
  8
0
 62
    32
 10
1.455139788155065
 20
13.7901750166504407
 30
0.0
 42
-0.1448793903361894
  0
VERTEX
  5
2871
  8
0
 62
    32
 10
3.295801606378518
 20
14.3700827442826302
 30
0.0
 42
-1.0
  0
VERTEX
  5
2872
  8
0
 62
    32
 10
3.321980216036081
 20
12.8703112015484695
 30
0.0
 42
2.355852365824187
  0
VERTEX
  5
2873
  8
0
 62
    32
 10
5.2548504090623283
 20
10.9374410085201799
 30
0.0
 42
-1.0
  0
VERTEX
  5
2874
  8
0
 62
    32
 10
6.7546219517971622
 20
10.9112623988655706
 30
0.0
 42
-0.1448793903364607
  0
VERTEX
  5
2875
  8
0
 62
    32
 10
6.1747142241651991
 20
9.0706005806403027
 30
0.0
  0
VERTEX
  5
2876
  8
0
 62
    32
 10
8.759410843493697
 20
9.0706005806482608
 30
0.0
  0
VERTEX
  5
2877
  8
0
 62
    32
 10
8.759410843493697
 20
13.0706005836495898
 30
0.0
  0
VERTEX
  5
2878
  8
0
 62
    32
 10
6.7651397885583711
 20
13.07060058379375
 30
0.0
 42
-0.4142135623730623
  0
VERTEX
  5
2879
  8
0
 62
    32
 10
6.4651397885804718
 20
13.3706005838143902
 30
0.0
  0
SEQEND
  5
287A
  8
0
 62
    32
  0
POLYLINE
  5
14E2
  8
0
 62
    32
 66
     1
 10
0.0
 20
0.0
 30
0.0
 70
     1
  0
VERTEX
  5
287B
  8
0
 62
    32
 10
2.555139788265933
 20
33.8106005807501333
 30
0.0
  0
VERTEX
  5
287C
  8
0
 62
    32
 10
3.7551397882657511
 20
33.8106005807501333
 30
0.0
  0
VERTEX
  5
287D
  8
0
 62
    32
 10
3.7551397882657511
 20
32.7106005807493219
 30
0.0
 42
0.6153846153840749
  0
VERTEX
  5
287E
  8
0
 62
    32
 10
5.055139788265933
 20
32.7106005807502171
 30
0.0
  0
VERTEX
  5
287F
  8
0
 62
    32
 10
5.055139788265933
 20
34.5706005807494421
 30
0.0
 42
0.414213562373167
  0
VERTEX
  5
2880
  8
0
 62
    32
 10
4.555139788265933
 20
35.0706005807501171
 30
0.0
  0
VERTEX
  5
2881
  8
0
 62
    32
 10
0.5551397882659331
 20
35.0706005807501171
 30
0.0
 42
0.414213562373103
  0
VERTEX
  5
2882
  8
0
 62
    32
 10
0.055139788265933
 20
34.5706005807501313
 30
0.0
  0
VERTEX
  5
2883
  8
0
 62
    32
 10
0.0551397882663878
 20
0.0706005807514885
 30
0.0
  0
VERTEX
  5
2884
  8
0
 62
    32
 10
4.5551397882663869
 20
0.0706005807514885
 30
0.0
 42
0.4142135623733615
  0
VERTEX
  5
2885
  8
0
 62
    32
 10
5.0551397882663869
 20
0.5706005807514885
 30
0.0
  0
VERTEX
  5
2886
  8
0
 62
    32
 10
5.055139788265933
 20
1.570600580750124
 30
0.0
 42
0.4142135623728289
  0
VERTEX
  5
2887
  8
0
 62
    32
 10
4.555139788265933
 20
2.0706005807494421
 30
0.0
  0
VERTEX
  5
2888
  8
0
 62
    32
 10
2.0551397882663869
 20
2.0706005807494421
 30
0.0
  0
VERTEX
  5
2889
  8
0
 62
    32
 10
2.055139788265933
 20
6.0706005807501242
 30
0.0
  0
VERTEX
  5
288A
  8
0
 62
    32
 10
19.6467772811815813
 20
6.0706005807501242
 30
0.0
  0
VERTEX
  5
288B
  8
0
 62
    32
 10
19.6467772811834003
 20
2.0706005807494421
 30
0.0
  0
VERTEX
  5
288C
  8
0
 62
    32
 10
17.1467772811815813
 20
2.0706005807494421
 30
0.0
 42
0.4142135623728287
  0
VERTEX
  5
288D
  8
0
 62
    32
 10
16.6467772811815813
 20
1.570600580750124
 30
0.0
  0
VERTEX
  5
288E
  8
0
 62
    32
 10
16.6467772811811301
 20
0.5706005807514885
 30
0.0
 42
0.4142135093937824
  0
VERTEX
  5
288F
  8
0
 62
    32
 10
17.1467771907382485
 20
0.0706005807514885
 30
0.0
  0
VERTEX
  5
2890
  8
0
 62
    32
 10
22.6751954168939918
 20
0.0705995807502404
 30
0.0
 42
0.0669525176422247
  0
VERTEX
  5
2891
  8
0
 62
    32
 10
23.6000190647659984
 20
0.1949955768222935
 30
0.0
  0
VERTEX
  5
2892
  8
0
 62
    32
 10
23.875977329101719
 20
0.2706005807501697
 30
0.0
  0
VERTEX
  5
2893
  8
0
 62
    32
 10
24.1459773291021484
 20
0.0706005807514885
 30
0.0
  0
VERTEX
  5
2894
  8
0
 62
    32
 10
25.7220103207628199
 20
0.0706005807514885
 30
0.0
 42
0.4318902213007428
  0
VERTEX
  5
2895
  8
0
 62
    32
 10
25.9216507577657502
 20
0.282587903770036
 30
0.0
  0
VERTEX
  5
2896
  8
0
 62
    32
 10
25.8996227839907114
 20
1.395600532875505
 30
0.0
  0
VERTEX
  5
2897
  8
0
 62
    32
 10
25.3585661530164508
 20
2.33273811708409
 30
0.0
 42
0.3700928233967397
  0
VERTEX
  5
2898
  8
0
 62
    32
 10
25.1129170413932989
 20
2.4191566321035221
 30
0.0
  0
VERTEX
  5
2899
  8
0
 62
    32
 10
23.0294236991735488
 20
1.609491048846166
 30
0.0
  0
VERTEX
  5
289A
  8
0
 62
    32
 10
22.8135022953510997
 20
1.609491048846166
 30
0.0
 42
-0.4142135623730951
  0
VERTEX
  5
289B
  8
0
 62
    32
 10
22.5135022953509214
 20
1.9094910488461201
 30
0.0
  0
VERTEX
  5
289C
  8
0
 62
    32
 10
22.513502295351369
 20
6.0206005837326302
 30
0.0
 42
-0.4142135623730329
  0
VERTEX
  5
289D
  8
0
 62
    32
 10
22.7135022953521002
 20
6.2206005837324483
 30
0.0
  0
VERTEX
  5
289E
  8
0
 62
    32
 10
22.9909351186147504
 20
6.2206005837315379
 30
0.0
 42
-0.142197656026031
  0
VERTEX
  5
289F
  8
0
 62
    32
 10
23.0980187533814387
 20
6.1895180048720704
 30
0.0
  0
VERTEX
  5
28A0
  8
0
 62
    32
 10
24.4761059345064496
 20
5.3158923990263238
 30
0.0
 42
0.5630482836079258
  0
VERTEX
  5
28A1
  8
0
 62
    32
 10
24.9635022953521002
 20
5.6729619403258758
 30
0.0
  0
VERTEX
  5
28A2
  8
0
 62
    32
 10
24.9635022953521002
 20
6.8840643553860437
 30
0.0
 42
0.2568852938753163
  0
VERTEX
  5
28A3
  8
0
 62
    32
 10
24.4989205227216189
 20
7.7286514271561373
 30
0.0
  0
VERTEX
  5
28A4
  8
0
 62
    32
 10
22.4556300160056708
 20
9.0239767022812885
 30
0.0
 42
0.1421976721923261
  0
VERTEX
  5
28A5
  8
0
 62
    32
 10
22.2950045477941785
 20
9.0706005807501242
 30
0.0
  0
VERTEX
  5
28A6
  8
0
 62
    32
 10
6.1747142241651991
 20
9.0706005806403027
 30
0.0
 42
0.1448793903364586
  0
VERTEX
  5
28A7
  8
0
 62
    32
 10
6.7546219517971622
 20
10.9112623988655706
 30
0.0
 42
1.0
  0
VERTEX
  5
28A8
  8
0
 62
    32
 10
5.2548504090623283
 20
10.9374410085201799
 30
0.0
 42
-2.3558523658241941
  0
VERTEX
  5
28A9
  8
0
 62
    32
 10
3.321980216036081
 20
12.8703112015484695
 30
0.0
 42
1.0
  0
VERTEX
  5
28AA
  8
0
 62
    32
 10
3.295801606378518
 20
14.3700827442826302
 30
0.0
 42
0.1448793903361517
  0
VERTEX
  5
28AB
  8
0
 62
    32
 10
1.455139788155065
 20
13.7901750166504407
 30
0.0
  0
VERTEX
  5
28AC
  8
0
 62
    32
 10
1.4551397882660231
 20
14.3569359257821798
 30
0.0
  0
VERTEX
  5
28AD
  8
0
 62
    32
 10
1.4551397882646591
 20
24.5506005807501495
 30
0.0
 42
-0.4142135623730212
  0
VERTEX
  5
28AE
  8
0
 62
    32
 10
1.9551397882646591
 20
25.0506005807501388
 30
0.0
  0
VERTEX
  5
28AF
  8
0
 62
    32
 10
4.555139788265933
 20
25.0506005807515102
 30
0.0
 42
0.4142135623729951
  0
VERTEX
  5
28B0
  8
0
 62
    32
 10
5.055139788265933
 20
25.5506005807515102
 30
0.0
  0
VERTEX
  5
28B1
  8
0
 62
    32
 10
5.055139788265933
 20
27.4106005807493602
 30
0.0
 42
0.6153846153845322
  0
VERTEX
  5
28B2
  8
0
 62
    32
 10
3.7551397882657511
 20
27.4106005807514101
 30
0.0
  0
VERTEX
  5
28B3
  8
0
 62
    32
 10
3.7551397882657511
 20
26.3106005807501298
 30
0.0
  0
VERTEX
  5
28B4
  8
0
 62
    32
 10
2.555139788265933
 20
26.3106005807501298
 30
0.0
  0
SEQEND
  5
28B5
  8
0
 62
    32
  0
POLYLINE
  5
14E3
  8
0
 62
    32
 66
     1
 10
0.0
 20
0.0
 30
0.0
 70
     1
  0
VERTEX
  5
28B6
  8
0
 62
    32
 10
3.7551397882657511
 20
33.8106005807501333
 30
0.0
  0
VERTEX
  5
28B7
  8
0
 62
    32
 10
2.555139788265933
 20
33.8106005807501333
 30
0.0
  0
VERTEX
  5
28B8
  8
0
 62
    32
 10
2.555139788265933
 20
26.3106005807501298
 30
0.0
  0
VERTEX
  5
28B9
  8
0
 62
    32
 10
3.7551397882657511
 20
26.3106005807501298
 30
0.0
  0
SEQEND
  5
28BA
  8
0
 62
    32
  0
POLYLINE
  5
14E4
  8
0
 62
    32
 66
     1
 10
0.0
 20
0.0
 30
0.0
 70
     1
  0
VERTEX
  5
28BB
  8
0
 62
    32
 10
6.4651397899056056
 20
31.8106005807480905
 30
0.0
  0
VERTEX
  5
28BC
  8
0
 62
    32
 10
3.7551397882657511
 20
31.8106005807480905
 30
0.0
  0
VERTEX
  5
28BD
  8
0
 62
    32
 10
3.7551397882657511
 20
28.3106005807480905
 30
0.0
  0
VERTEX
  5
28BE
  8
0
 62
    32
 10
6.4651397896536764
 20
28.3106005805532313
 30
0.0
  0
SEQEND
  5
28BF
  8
0
 62
    32
  0
POLYLINE
  5
14E5
  8
0
 62
    32
 66
     1
 10
0.0
 20
0.0
 30
0.0
 70
     1
  0
VERTEX
  5
28C0
  8
0
 62
    32
 10
15.4651397892180302
 20
26.07060058278444
 30
0.0
  0
VERTEX
  5
28C1
  8
0
 62
    32
 10
9.4651397894899674
 20
26.07060058278444
 30
0.0
  0
VERTEX
  5
28C2
  8
0
 62
    32
 10
9.4651397889369946
 20
18.3706005835992983
 30
0.0
 42
0.4142135623715135
  0
VERTEX
  5
28C3
  8
0
 62
    32
 10
9.7695422703782242
 20
18.0706005835761516
 30
0.0
  0
VERTEX
  5
28C4
  8
0
 62
    32
 10
11.0580419203984093
 20
18.0706005834833796
 30
0.0
 42
0.3690518409833699
  0
VERTEX
  5
28C5
  8
0
 62
    32
 10
11.5454865985088801
 20
18.492649452201249
 30
0.0
 42
-0.5881188155282706
  0
VERTEX
  5
28C6
  8
0
 62
    32
 10
16.3640332658969783
 20
20.3281885799901794
 30
0.0
 42
-1.0710968010886841
  0
VERTEX
  5
28C7
  8
0
 62
    32
 10
15.3984942097617896
 20
19.1802624799322494
 30
0.0
 42
2.147820365563772
  0
VERTEX
  5
28C8
  8
0
 62
    32
 10
15.3984942096367394
 20
16.9609386863883209
 30
0.0
 42
-0.6429829774824253
  0
VERTEX
  5
28C9
  8
0
 62
    32
 10
16.6311725271766591
 20
16.3752791696992901
 30
0.0
 42
0.4187889142896086
  0
VERTEX
  5
28CA
  8
0
 62
    32
 10
16.93113604297832
 20
16.0706005830616014
 30
0.0
  0
VERTEX
  5
28CB
  8
0
 62
    32
 10
19.1651397887676396
 20
16.0706005828992602
 30
0.0
 42
0.4142135623731162
  0
VERTEX
  5
28CC
  8
0
 62
    32
 10
19.4651397887905588
 20
16.370600582878069
 30
0.0
  0
VERTEX
  5
28CD
  8
0
 62
    32
 10
19.4651397891957387
 20
21.97060058287639
 30
0.0
 42
-0.4142135623518525
  0
VERTEX
  5
28CE
  8
0
 62
    32
 10
19.7651397891977503
 20
22.2706005828561011
 30
0.0
  0
VERTEX
  5
28CF
  8
0
 62
    32
 10
15.4651397892180302
 20
22.2706005827844784
 30
0.0
  0
SEQEND
  5
28D0
  8
0
 62
    32
  0
POLYLINE
  5
14E6
  8
0
 62
    32
 66
     1
 10
0.0
 20
0.0
 30
0.0
 70
     1
  0
VERTEX
  5
28D1
  8
0
 62
    32
 10
53.4651397894926887
 20
26.07060058278444
 30
0.0
  0
VERTEX
  5
28D2
  8
0
 62
    32
 10
47.4651397892166571
 20
26.07060058278444
 30
0.0
  0
VERTEX
  5
28D3
  8
0
 62
    32
 10
47.4651397892166571
 20
22.2706005827844784
 30
0.0
  0
VERTEX
  5
28D4
  8
0
 62
    32
 10
43.1651397891951092
 20
22.2706005811701289
 30
0.0
 42
-0.4142135623940671
  0
VERTEX
  5
28D5
  8
0
 62
    32
 10
43.4651397891961935
 20
21.9706005811460692
 30
0.0
  0
VERTEX
  5
28D6
  8
0
 62
    32
 10
43.4651397887960229
 20
16.370600581148441
 30
0.0
 42
0.4142135623731054
  0
VERTEX
  5
28D7
  8
0
 62
    32
 10
43.7651397887743698
 20
16.0706005811264312
 30
0.0
  0
VERTEX
  5
28D8
  8
0
 62
    32
 10
45.9991435345623429
 20
16.0706005809658983
 30
0.0
 42
0.4187889142892363
  0
VERTEX
  5
28D9
  8
0
 62
    32
 10
46.2991070504085585
 20
16.375279167561299
 30
0.0
 42
-0.6429829774828679
  0
VERTEX
  5
28DA
  8
0
 62
    32
 10
47.5317853680335318
 20
16.9609386840731986
 30
0.0
 42
2.1478203655657042
  0
VERTEX
  5
28DB
  8
0
 62
    32
 10
47.5317853682277018
 20
19.1802624776153117
 30
0.0
 42
-1.0710968011016271
  0
VERTEX
  5
28DC
  8
0
 62
    32
 10
46.5662463122680421
 20
20.3281885778201286
 30
0.0
 42
-0.5881188155650815
  0
VERTEX
  5
28DD
  8
0
 62
    32
 10
51.3847929794310403
 20
18.4926494489984599
 30
0.0
 42
0.3727641987050843
  0
VERTEX
  5
28DE
  8
0
 62
    32
 10
51.8787156266889724
 20
18.0706005805413916
 30
0.0
  0
VERTEX
  5
28DF
  8
0
 62
    32
 10
53.1651397889118016
 20
18.0706005804495291
 30
0.0
 42
0.4142135623147626
  0
VERTEX
  5
28E0
  8
0
 62
    32
 10
53.465139788937897
 20
18.3750030618293714
 30
0.0
  0
SEQEND
  5
28E1
  8
0
 62
    32
  0
POLYLINE
  5
14E7
  8
0
 62
    32
 66
     1
 10
0.0
 20
0.0
 30
0.0
 70
     1
  0
VERTEX
  5
28E2
  8
0
 62
    32
 10
37.9651397890452316
 20
19.892814670076401
 30
0.0
 42
-0.2614125764229834
  0
VERTEX
  5
28E3
  8
0
 62
    32
 10
38.4441301572660521
 20
20.7463654673135807
 30
0.0
  0
VERTEX
  5
28E4
  8
0
 62
    32
 10
40.9412281353970684
 20
22.2706005827844784
 30
0.0
  0
VERTEX
  5
28E5
  8
0
 62
    32
 10
21.9047252484688215
 20
22.2706005827024001
 30
0.0
 42
-0.137872106765941
  0
VERTEX
  5
28E6
  8
0
 62
    32
 10
22.0610281380400011
 20
22.2266658218736701
 30
0.0
  0
VERTEX
  5
28E7
  8
0
 62
    32
 10
24.4861494209494595
 20
20.7463654683192509
 30
0.0
 42
-0.2614125764230107
  0
VERTEX
  5
28E8
  8
0
 62
    32
 10
24.9651397890452209
 20
19.8928146710134115
 30
0.0
  0
VERTEX
  5
28E9
  8
0
 62
    32
 10
24.9651397889488216
 20
18.5313996232623595
 30
0.0
 42
-0.5444489917469358
  0
VERTEX
  5
28EA
  8
0
 62
    32
 10
24.6348873809688484
 20
18.2538437382952416
 30
0.0
  0
VERTEX
  5
28EB
  8
0
 62
    32
 10
25.1397228271725908
 20
17.9456908657905387
 30
0.0
 42
0.1378721067479522
  0
VERTEX
  5
28EC
  8
0
 62
    32
 10
25.1918237903564695
 20
17.9310459455132296
 30
0.0
  0
VERTEX
  5
28ED
  8
0
 62
    32
 10
26.3640529017816405
 20
17.9310459454295597
 30
0.0
 42
-0.2914734195862664
  0
VERTEX
  5
28EE
  8
0
 62
    32
 10
26.6359452378810602
 20
17.7578314239312895
 30
0.0
  0
VERTEX
  5
28EF
  8
0
 62
    32
 10
28.0831641425529597
 20
14.6542604667834002
 30
0.0
 42
0.2914734195862421
  0
VERTEX
  5
28F0
  8
0
 62
    32
 10
28.3550564786510186
 20
14.4810459452860396
 30
0.0
  0
VERTEX
  5
28F1
  8
0
 62
    32
 10
34.5752230986613469
 20
14.4810459448383408
 30
0.0
 42
0.2914734195861554
  0
VERTEX
  5
28F2
  8
0
 62
    32
 10
34.8471154347848824
 20
14.6542604662952307
 30
0.0
  0
VERTEX
  5
28F3
  8
0
 62
    32
 10
36.2943343399051628
 20
17.7578314232355297
 30
0.0
 42
-0.2914734195862085
  0
VERTEX
  5
28F4
  8
0
 62
    32
 10
36.5662266760296006
 20
17.9310459446942296
 30
0.0
  0
VERTEX
  5
28F5
  8
0
 62
    32
 10
37.7384557874543205
 20
17.9310459446094193
 30
0.0
 42
0.1378721067478707
  0
VERTEX
  5
28F6
  8
0
 62
    32
 10
37.7905567506404623
 20
17.9456908648783084
 30
0.0
  0
VERTEX
  5
28F7
  8
0
 62
    32
 10
38.2953921968878603
 20
18.2538437373104898
 30
0.0
 42
-0.4658308297456462
  0
VERTEX
  5
28F8
  8
0
 62
    32
 10
37.9651397889438229
 20
18.4672314366521313
 30
0.0
  0
SEQEND
  5
28F9
  8
0
 62
    32
  0
POLYLINE
  5
14E8
  8
0
 62
    32
 66
     1
 10
0.0
 20
0.0
 30
0.0
 70
     1
  0
VERTEX
  5
28FA
  8
0
 62
    32
 10
15.4651397892157494
 20
37.770600582784482
 30
0.0
  0
VERTEX
  5
28FB
  8
0
 62
    32
 10
9.4651397892166642
 20
34.770600582784482
 30
0.0
  0
VERTEX
  5
28FC
  8
0
 62
    32
 10
9.4651397892166642
 20
26.07060058278444
 30
0.0
  0
VERTEX
  5
28FD
  8
0
 62
    32
 10
15.4651397892180302
 20
26.07060058278444
 30
0.0
  0
SEQEND
  5
28FE
  8
0
 62
    32
  0
POLYLINE
  5
14E9
  8
0
 62
    32
 66
     1
 10
0.0
 20
0.0
 30
0.0
 70
     1
  0
VERTEX
  5
28FF
  8
0
 62
    32
 10
53.4651397892157476
 20
34.770600582784482
 30
0.0
  0
VERTEX
  5
2900
  8
0
 62
    32
 10
47.4651397892180285
 20
37.7817255617871979
 30
0.0
  0
VERTEX
  5
2901
  8
0
 62
    32
 10
47.4651397892166571
 20
26.07060058278444
 30
0.0
  0
VERTEX
  5
2902
  8
0
 62
    32
 10
53.4651397892157476
 20
26.07060058278444
 30
0.0
  0
SEQEND
  5
2903
  8
0
 62
    32
  0
POLYLINE
  5
14EA
  8
0
 62
    32
 66
     1
 10
0.0
 20
0.0
 30
0.0
 70
     1
  0
VERTEX
  5
2904
  8
0
 62
    32
 10
47.4651397892166571
 20
26.07060058278444
 30
0.0
  0
VERTEX
  5
2905
  8
0
 62
    32
 10
15.4651397892180302
 20
26.07060058278444
 30
0.0
  0
VERTEX
  5
2906
  8
0
 62
    32
 10
15.4651397892180302
 20
22.2706005827844784
 30
0.0
  0
VERTEX
  5
2907
  8
0
 62
    32
 10
47.4651397892166571
 20
22.2706005827844784
 30
0.0
  0
SEQEND
  5
2908
  8
0
 62
    32
  0
POLYLINE
  5
14EB
  8
0
 62
    32
 66
     1
 10
0.0
 20
0.0
 30
0.0
 70
     1
  0
VERTEX
  5
2909
  8
0
 62
    32
 10
37.4447620357623165
 20
15.80711255047731
 30
0.0
 42
-0.4630328573284425
  0
VERTEX
  5
290A
  8
0
 62
    32
 10
38.1826546203801627
 20
15.9995416925971696
 30
0.0
  0
VERTEX
  5
290B
  8
0
 62
    32
 10
39.7043702732303316
 20
14.9310459444675399
 30
0.0
  0
VERTEX
  5
290C
  8
0
 62
    32
 10
40.1151397886874292
 20
14.9310459444372992
 30
0.0
 42
0.4142135623730673
  0
VERTEX
  5
290D
  8
0
 62
    32
 10
40.4151397887080677
 20
15.23104594441633
 30
0.0
  0
VERTEX
  5
290E
  8
0
 62
    32
 10
40.4151397889659094
 20
18.83104594441647
 30
0.0
 42
0.4142135623731523
  0
VERTEX
  5
290F
  8
0
 62
    32
 10
40.1151397889898291
 20
19.1310459444393892
 30
0.0
  0
VERTEX
  5
2910
  8
0
 62
    32
 10
39.7605888401512928
 20
19.1310459444641801
 30
0.0
 42
0.137872106747739
  0
VERTEX
  5
2911
  8
0
 62
    32
 10
39.7084878769655916
 20
19.1164010241955111
 30
0.0
  0
VERTEX
  5
2912
  8
0
 62
    32
 10
37.7665645197653319
 20
17.9310459446071491
 30
0.0
  0
VERTEX
  5
2913
  8
0
 62
    32
 10
36.5662266760296006
 20
17.9310459446942296
 30
0.0
 42
0.2914734195861901
  0
VERTEX
  5
2914
  8
0
 62
    32
 10
36.2943343399051628
 20
17.7578314232355297
 30
0.0
  0
VERTEX
  5
2915
  8
0
 62
    32
 10
34.8471154347848824
 20
14.6542604662952307
 30
0.0
 42
-0.2914734195861231
  0
VERTEX
  5
2916
  8
0
 62
    32
 10
34.5752230986613469
 20
14.4810459448383408
 30
0.0
  0
VERTEX
  5
2917
  8
0
 62
    32
 10
28.3550564786510186
 20
14.4810459452860396
 30
0.0
 42
-0.2914734195862175
  0
VERTEX
  5
2918
  8
0
 62
    32
 10
28.0831641425529597
 20
14.6542604667834002
 30
0.0
  0
VERTEX
  5
2919
  8
0
 62
    32
 10
26.6359452378810602
 20
17.7578314239312895
 30
0.0
 42
0.2914734195862361
  0
VERTEX
  5
291A
  8
0
 62
    32
 10
26.3640529017816405
 20
17.9310459454295597
 30
0.0
  0
VERTEX
  5
291B
  8
0
 62
    32
 10
25.1637150580459092
 20
17.9310459455154998
 30
0.0
  0
VERTEX
  5
291C
  8
0
 62
    32
 10
23.2217917010143502
 20
19.1164010253842207
 30
0.0
 42
0.1378721067479447
  0
VERTEX
  5
291D
  8
0
 62
    32
 10
23.1696907378313917
 20
19.1310459456603894
 30
0.0
  0
VERTEX
  5
291E
  8
0
 62
    32
 10
22.8151397889937506
 20
19.1310459456860791
 30
0.0
 42
0.4142135623730396
  0
VERTEX
  5
291F
  8
0
 62
    32
 10
22.5151397889726503
 20
18.8310459457075012
 30
0.0
  0
VERTEX
  5
2920
  8
0
 62
    32
 10
22.5151397887129896
 20
15.2310459457066791
 30
0.0
 42
0.4142135623731091
  0
VERTEX
  5
2921
  8
0
 62
    32
 10
22.8151397886913401
 20
14.9310459456855806
 30
0.0
  0
VERTEX
  5
2922
  8
0
 62
    32
 10
23.2259093041466294
 20
14.9310459456553399
 30
0.0
  0
VERTEX
  5
2923
  8
0
 62
    32
 10
24.7476249571518601
 20
15.9995416935666999
 30
0.0
 42
-0.4394995507180346
  0
VERTEX
  5
2924
  8
0
 62
    32
 10
25.4672048986967603
 20
15.8416511629493506
 30
0.0
  0
VERTEX
  5
2925
  8
0
 62
    32
 10
26.9364376721469014
 20
13.0706005823394609
 30
0.0
  0
VERTEX
  5
2926
  8
0
 62
    32
 10
35.993841904623423
 20
13.0706005816862199
 30
0.0
  0
SEQEND
  5
2927
  8
0
 62
    32
  0
POLYLINE
  5
14EC
  8
0
 62
    32
 66
     1
 10
0.0
 20
0.0
 30
0.0
 70
     1
  0
VERTEX
  5
2928
  8
0
 62
    32
 10
25.4672048986967603
 20
15.8416511629493506
 30
0.0
 42
0.4394995507180195
  0
VERTEX
  5
2929
  8
0
 62
    32
 10
24.7476249571518601
 20
15.9995416935666999
 30
0.0
  0
VERTEX
  5
292A
  8
0
 62
    32
 10
23.2259093041466294
 20
14.9310459456553399
 30
0.0
  0
VERTEX
  5
292B
  8
0
 62
    32
 10
22.8151397886913401
 20
14.9310459456855806
 30
0.0
 42
-0.4142135623731229
  0
VERTEX
  5
292C
  8
0
 62
    32
 10
22.5151397887129896
 20
15.2310459457066791
 30
0.0
  0
VERTEX
  5
292D
  8
0
 62
    32
 10
22.5151397889726503
 20
18.8310459457075012
 30
0.0
 42
-0.4142135623730013
  0
VERTEX
  5
292E
  8
0
 62
    32
 10
22.8151397889937506
 20
19.1310459456860791
 30
0.0
  0
VERTEX
  5
292F
  8
0
 62
    32
 10
23.1977994701419483
 20
19.1310459456581086
 30
0.0
  0
VERTEX
  5
2930
  8
0
 62
    32
 10
24.6348873809688484
 20
18.2538437382952416
 30
0.0
 42
0.5444489917469462
  0
VERTEX
  5
2931
  8
0
 62
    32
 10
24.9651397889488216
 20
18.5313996232623595
 30
0.0
  0
VERTEX
  5
2932
  8
0
 62
    32
 10
24.9651397890452209
 20
19.8928146710134115
 30
0.0
 42
0.2614125764230057
  0
VERTEX
  5
2933
  8
0
 62
    32
 10
24.4861494209494595
 20
20.7463654683192509
 30
0.0
  0
VERTEX
  5
2934
  8
0
 62
    32
 10
22.0610281380400011
 20
22.2266658218736701
 30
0.0
 42
0.137872106765941
  0
VERTEX
  5
2935
  8
0
 62
    32
 10
21.9047252484688215
 20
22.2706005827024001
 30
0.0
  0
VERTEX
  5
2936
  8
0
 62
    32
 10
19.7651310820920116
 20
22.2706005827292302
 30
0.0
 42
0.4142050615367225
  0
VERTEX
  5
2937
  8
0
 62
    32
 10
19.4651397891957387
 20
21.97060058287639
 30
0.0
  0
VERTEX
  5
2938
  8
0
 62
    32
 10
19.4651397887905588
 20
16.370600582878069
 30
0.0
 42
-0.4142135623731387
  0
VERTEX
  5
2939
  8
0
 62
    32
 10
19.1651397887676396
 20
16.0706005828992602
 30
0.0
  0
VERTEX
  5
293A
  8
0
 62
    32
 10
16.93113604297832
 20
16.0706005830616014
 30
0.0
 42
-0.4187889142892117
  0
VERTEX
  5
293B
  8
0
 62
    32
 10
16.6311725271766591
 20
16.3752791696992901
 30
0.0
 42
0.6429829774828972
  0
VERTEX
  5
293C
  8
0
 62
    32
 10
15.3984942096367394
 20
16.9609386863883209
 30
0.0
 42
-2.2152752471096671
  0
VERTEX
  5
293D
  8
0
 62
    32
 10
15.4494469050382506
 20
19.1353256656120685
 30
0.0
 42
1.023707649299187
  0
VERTEX
  5
293E
  8
0
 62
    32
 10
16.3640332659119814
 20
20.3281885799781286
 30
0.0
 42
0.5874865212221474
  0
VERTEX
  5
293F
  8
0
 62
    32
 10
11.5462850871022003
 20
18.4981368153178209
 30
0.0
 42
-0.3722290659472121
  0
VERTEX
  5
2940
  8
0
 62
    32
 10
11.0580419203984093
 20
18.0706005834833796
 30
0.0
  0
VERTEX
  5
2941
  8
0
 62
    32
 10
9.7695422703782242
 20
18.0706005835761516
 30
0.0
 42
-0.4142135623712619
  0
VERTEX
  5
2942
  8
0
 62
    32
 10
9.4651397889369946
 20
18.3706005835992983
 30
0.0
  0
VERTEX
  5
2943
  8
0
 62
    32
 10
9.4651397901170622
 20
34.7706005835984797
 30
0.0
 42
0.414213562372904
  0
VERTEX
  5
2944
  8
0
 62
    32
 10
9.1651397901373457
 20
35.0706005836200418
 30
0.0
  0
VERTEX
  5
2945
  8
0
 62
    32
 10
6.7651397901422561
 20
35.0706005837944303
 30
0.0
 42
0.4142135623732823
  0
VERTEX
  5
2946
  8
0
 62
    32
 10
6.4651397901188821
 20
34.77060058381403
 30
0.0
  0
VERTEX
  5
2947
  8
0
 62
    32
 10
6.4651397885804718
 20
13.3706005838143902
 30
0.0
 42
0.4142135623730657
  0
VERTEX
  5
2948
  8
0
 62
    32
 10
6.7651397885583711
 20
13.07060058379375
 30
0.0
  0
VERTEX
  5
2949
  8
0
 62
    32
 10
26.9364376721469014
 20
13.0706005823394609
 30
0.0
  0
SEQEND
  5
294A
  8
0
 62
    32
  0
POLYLINE
  5
14ED
  8
0
 62
    32
 66
     1
 10
0.0
 20
0.0
 30
0.0
 70
     1
  0
VERTEX
  5
294B
  8
0
 62
    32
 10
56.4651397901188901
 20
34.7706005802103775
 30
0.0
 42
0.4142135623732598
  0
VERTEX
  5
294C
  8
0
 62
    32
 10
56.1651397901382481
 20
35.070600580233311
 30
0.0
  0
VERTEX
  5
294D
  8
0
 62
    32
 10
53.7651397901418022
 20
35.0706005804054328
 30
0.0
 42
0.4142135623940561
  0
VERTEX
  5
294E
  8
0
 62
    32
 10
53.4651397901193377
 20
34.7706005804052509
 30
0.0
  0
VERTEX
  5
294F
  8
0
 62
    32
 10
53.4651397892157476
 20
26.07060058278444
 30
0.0
  0
VERTEX
  5
2950
  8
0
 62
    32
 10
53.4651397889370017
 20
18.3750030618502898
 30
0.0
 42
-0.4142135623357789
  0
VERTEX
  5
2951
  8
0
 62
    32
 10
53.1651397889118016
 20
18.0706005804495291
 30
0.0
  0
VERTEX
  5
2952
  8
0
 62
    32
 10
51.8787156266889724
 20
18.0706005805413916
 30
0.0
 42
-0.3759491577964895
  0
VERTEX
  5
2953
  8
0
 62
    32
 10
51.3839944907895187
 20
18.4981368124606398
 30
0.0
 42
0.5874865212171703
  0
VERTEX
  5
2954
  8
0
 62
    32
 10
46.5662463122680421
 20
20.3281885778201286
 30
0.0
 42
1.023707649244997
  0
VERTEX
  5
2955
  8
0
 62
    32
 10
47.4808326729330474
 20
19.1353256632935391
 30
0.0
 42
-2.2152752471271082
  0
VERTEX
  5
2956
  8
0
 62
    32
 10
47.5317853680335318
 20
16.9609386840731986
 30
0.0
 42
0.6429829774825795
  0
VERTEX
  5
2957
  8
0
 62
    32
 10
46.2991070504099298
 20
16.375279167561299
 30
0.0
 42
-0.4187889142897581
  0
VERTEX
  5
2958
  8
0
 62
    32
 10
45.9991435345623429
 20
16.0706005809658983
 30
0.0
  0
VERTEX
  5
2959
  8
0
 62
    32
 10
43.7651397887743698
 20
16.0706005811264312
 30
0.0
 42
-0.4142135623730673
  0
VERTEX
  5
295A
  8
0
 62
    32
 10
43.4651397887960229
 20
16.370600581148441
 30
0.0
  0
VERTEX
  5
295B
  8
0
 62
    32
 10
43.4651397891961935
 20
21.9706005811460692
 30
0.0
 42
0.4142135623940427
  0
VERTEX
  5
295C
  8
0
 62
    32
 10
43.1651397891951092
 20
22.2706005811701289
 30
0.0
  0
VERTEX
  5
295D
  8
0
 62
    32
 10
41.0255543299413077
 20
22.2706005813240608
 30
0.0
 42
0.1378721067440828
  0
VERTEX
  5
295E
  8
0
 62
    32
 10
40.8692514403905918
 20
22.2266658205178409
 30
0.0
  0
VERTEX
  5
295F
  8
0
 62
    32
 10
38.4441301572660521
 20
20.7463654673135807
 30
0.0
 42
0.2614125764229866
  0
VERTEX
  5
2960
  8
0
 62
    32
 10
37.9651397890452316
 20
19.892814670076401
 30
0.0
  0
VERTEX
  5
2961
  8
0
 62
    32
 10
37.9651397889438229
 20
18.4672314366521313
 30
0.0
 42
0.4658308297457782
  0
VERTEX
  5
2962
  8
0
 62
    32
 10
38.2953921968878603
 20
18.2538437373104898
 30
0.0
  0
VERTEX
  5
2963
  8
0
 62
    32
 10
39.7324801078411767
 20
19.1310459444662193
 30
0.0
  0
VERTEX
  5
2964
  8
0
 62
    32
 10
40.1151397889898291
 20
19.1310459444393892
 30
0.0
 42
-0.4142135623731507
  0
VERTEX
  5
2965
  8
0
 62
    32
 10
40.4151397889659094
 20
18.83104594441647
 30
0.0
  0
VERTEX
  5
2966
  8
0
 62
    32
 10
40.4151397887080677
 20
15.23104594441633
 30
0.0
 42
-0.4142135623730431
  0
VERTEX
  5
2967
  8
0
 62
    32
 10
40.1151397886874292
 20
14.9310459444372992
 30
0.0
  0
VERTEX
  5
2968
  8
0
 62
    32
 10
39.7043702732303316
 20
14.9310459444675399
 30
0.0
  0
VERTEX
  5
2969
  8
0
 62
    32
 10
38.1826546203801627
 20
15.9995416925971696
 30
0.0
 42
0.4630328573286632
  0
VERTEX
  5
296A
  8
0
 62
    32
 10
37.4447620357623165
 20
15.8071125504761696
 30
0.0
  0
VERTEX
  5
296B
  8
0
 62
    32
 10
35.993841904623423
 20
13.0706005816862199
 30
0.0
  0
VERTEX
  5
296C
  8
0
 62
    32
 10
56.1651397885502774
 20
13.0706005802333003
 30
0.0
 42
0.4142135623730555
  0
VERTEX
  5
296D
  8
0
 62
    32
 10
56.4651397885740991
 20
13.3706005802121108
 30
0.0
  0
SEQEND
  5
296E
  8
0
 62
    32
  0
POLYLINE
  5
14EE
  8
0
 62
    32
 66
     1
 10
0.0
 20
0.0
 30
0.0
 70
     1
  0
VERTEX
  5
296F
  8
0
 62
    32
 10
59.355139788267941
 20
31.8106005807480905
 30
0.0
  0
VERTEX
  5
2970
  8
0
 62
    32
 10
56.4651397899046898
 20
31.8106005809575016
 30
0.0
  0
VERTEX
  5
2971
  8
0
 62
    32
 10
56.4651397896532217
 20
28.3106005807480905
 30
0.0
  0
VERTEX
  5
2972
  8
0
 62
    32
 10
59.355139788267941
 20
28.3106005807480905
 30
0.0
  0
SEQEND
  5
2973
  8
0
 62
    32
  0
POLYLINE
  5
14EF
  8
0
 62
    32
 66
     1
 10
0.0
 20
0.0
 30
0.0
 70
     1
  0
VERTEX
  5
2974
  8
0
 62
    32
 10
60.555139788267752
 20
33.8106005807501333
 30
0.0
  0
VERTEX
  5
2975
  8
0
 62
    32
 10
59.355139788267941
 20
33.8106005807501333
 30
0.0
  0
VERTEX
  5
2976
  8
0
 62
    32
 10
59.355139788267941
 20
26.3106005807501298
 30
0.0
  0
VERTEX
  5
2977
  8
0
 62
    32
 10
60.555139788267752
 20
26.3106005807501298
 30
0.0
  0
SEQEND
  5
2978
  8
0
 62
    32
  0
POLYLINE
  5
14F0
  8
0
 62
    32
 66
     1
 10
0.0
 20
0.0
 30
0.0
 70
     1
  0
VERTEX
  5
2979
  8
0
 62
    32
 10
63.055139788267752
 20
34.5706005807501313
 30
0.0
 42
0.4142135623731108
  0
VERTEX
  5
297A
  8
0
 62
    32
 10
62.555139788267752
 20
35.0706005807501171
 30
0.0
  0
VERTEX
  5
297B
  8
0
 62
    32
 10
58.555139788267752
 20
35.0706005807501171
 30
0.0
 42
0.4142135623732381
  0
VERTEX
  5
297C
  8
0
 62
    32
 10
58.055139788267752
 20
34.5706005807494421
 30
0.0
  0
VERTEX
  5
297D
  8
0
 62
    32
 10
58.0551397882686615
 20
32.7106005807493219
 30
0.0
 42
0.6153846153844053
  0
VERTEX
  5
297E
  8
0
 62
    32
 10
59.355139788267941
 20
32.7106005807493219
 30
0.0
  0
VERTEX
  5
297F
  8
0
 62
    32
 10
59.355139788267941
 20
33.8106005807501333
 30
0.0
  0
VERTEX
  5
2980
  8
0
 62
    32
 10
60.555139788267752
 20
33.8106005807501333
 30
0.0
  0
VERTEX
  5
2981
  8
0
 62
    32
 10
60.555139788267752
 20
26.3106005807501298
 30
0.0
  0
VERTEX
  5
2982
  8
0
 62
    32
 10
59.355139788267941
 20
26.3106005807501298
 30
0.0
  0
VERTEX
  5
2983
  8
0
 62
    32
 10
59.355139788267941
 20
27.4106005807514101
 30
0.0
 42
0.6153846153835416
  0
VERTEX
  5
2984
  8
0
 62
    32
 10
58.055139788267752
 20
27.4106005807493602
 30
0.0
  0
VERTEX
  5
2985
  8
0
 62
    32
 10
58.055139788267752
 20
25.5506005807515102
 30
0.0
 42
0.4142135623729951
  0
VERTEX
  5
2986
  8
0
 62
    32
 10
58.555139788267752
 20
25.0506005807515102
 30
0.0
  0
VERTEX
  5
2987
  8
0
 62
    32
 10
61.1551397882685706
 20
25.0506005807501388
 30
0.0
 42
-0.4142135623730212
  0
VERTEX
  5
2988
  8
0
 62
    32
 10
61.6551397882685706
 20
24.5506005807501495
 30
0.0
  0
VERTEX
  5
2989
  8
0
 62
    32
 10
61.6551397882681229
 20
14.3569359257821798
 30
0.0
  0
VERTEX
  5
298A
  8
0
 62
    32
 10
61.6551397883786194
 20
13.7901750166504407
 30
0.0
 42
0.1448793903361893
  0
VERTEX
  5
298B
  8
0
 62
    32
 10
59.8144779701547122
 20
14.3700827442826302
 30
0.0
 42
1.0
  0
VERTEX
  5
298C
  8
0
 62
    32
 10
59.7882993604989679
 20
12.8703112015484695
 30
0.0
 42
-2.3558523658241861
  0
VERTEX
  5
298D
  8
0
 62
    32
 10
57.855429167470902
 20
10.9374410085201799
 30
0.0
 42
1.0
  0
VERTEX
  5
298E
  8
0
 62
    32
 10
56.3556576247369776
 20
10.9112623988655706
 30
0.0
 42
0.1448793903364606
  0
VERTEX
  5
298F
  8
0
 62
    32
 10
56.9355653523680303
 20
9.0706005806403027
 30
0.0
  0
VERTEX
  5
2990
  8
0
 62
    32
 10
40.8152750287408708
 20
9.0706005807501242
 30
0.0
 42
0.1421976721932963
  0
VERTEX
  5
2991
  8
0
 62
    32
 10
40.654649560528469
 20
9.0239767022812885
 30
0.0
  0
VERTEX
  5
2992
  8
0
 62
    32
 10
38.6113590538129827
 20
7.7286514271561373
 30
0.0
 42
0.2568852938753143
  0
VERTEX
  5
2993
  8
0
 62
    32
 10
38.1467772811833967
 20
6.8840643553860437
 30
0.0
  0
VERTEX
  5
2994
  8
0
 62
    32
 10
38.1467772811833967
 20
5.6114978860221072
 30
0.0
 42
0.50703566670194
  0
VERTEX
  5
2995
  8
0
 62
    32
 10
38.6341736420263189
 20
5.3158923990256417
 30
0.0
  0
VERTEX
  5
2996
  8
0
 62
    32
 10
40.0122608231517916
 20
6.1895180048720704
 30
0.0
 42
-0.1421976560262388
  0
VERTEX
  5
2997
  8
0
 62
    32
 10
40.1193444579198513
 20
6.2206005837315379
 30
0.0
  0
VERTEX
  5
2998
  8
0
 62
    32
 10
40.3967772811833967
 20
6.2206005837315379
 30
0.0
 42
-0.4142135623733449
  0
VERTEX
  5
2999
  8
0
 62
    32
 10
40.5967772811818506
 20
6.0206005837326302
 30
0.0
  0
VERTEX
  5
299A
  8
0
 62
    32
 10
40.5967772811823124
 20
1.9094910488461201
 30
0.0
 42
-0.4142135623730951
  0
VERTEX
  5
299B
  8
0
 62
    32
 10
40.2967772811835019
 20
1.609491048846166
 30
0.0
  0
VERTEX
  5
299C
  8
0
 62
    32
 10
40.0808558773610386
 20
1.609491048846166
 30
0.0
  0
VERTEX
  5
299D
  8
0
 62
    32
 10
37.997362535141292
 20
2.4191566321035221
 30
0.0
 42
0.3700928233967671
  0
VERTEX
  5
299E
  8
0
 62
    32
 10
37.7517134235176783
 20
2.33273811708409
 30
0.0
  0
VERTEX
  5
299F
  8
0
 62
    32
 10
37.2106567925438867
 20
1.395600532875505
 30
0.0
  0
VERTEX
  5
29A0
  8
0
 62
    32
 10
37.1883108503943731
 20
0.2665218407896646
 30
0.0
 42
0.4082525098559311
  0
VERTEX
  5
29A1
  8
0
 62
    32
 10
37.3882692557704104
 20
0.0706005807514885
 30
0.0
  0
VERTEX
  5
29A2
  8
0
 62
    32
 10
38.9643022474319878
 20
0.0706005807514885
 30
0.0
  0
VERTEX
  5
29A3
  8
0
 62
    32
 10
39.2343022474324172
 20
0.2706005807501697
 30
0.0
  0
VERTEX
  5
29A4
  8
0
 62
    32
 10
39.5102605117672283
 20
0.1949955768222935
 30
0.0
 42
0.0669525176422279
  0
VERTEX
  5
29A5
  8
0
 62
    32
 10
40.4350841596397004
 20
0.0705995807502404
 30
0.0
  0
VERTEX
  5
29A6
  8
0
 62
    32
 10
45.963502385796339
 20
0.0706005807514885
 30
0.0
 42
0.4142135093937741
  0
VERTEX
  5
29A7
  8
0
 62
    32
 10
46.4635022953530026
 20
0.5706005807514885
 30
0.0
  0
VERTEX
  5
29A8
  8
0
 62
    32
 10
46.4635022953530026
 20
1.570600580750124
 30
0.0
 42
0.4142135623728289
  0
VERTEX
  5
29A9
  8
0
 62
    32
 10
45.9635022953521002
 20
2.0706005807494421
 30
0.0
  0
VERTEX
  5
29AA
  8
0
 62
    32
 10
43.4635022953521002
 20
2.0706005807494421
 30
0.0
  0
VERTEX
  5
29AB
  8
0
 62
    32
 10
43.4635022953521002
 20
6.0706005807501242
 30
0.0
  0
VERTEX
  5
29AC
  8
0
 62
    32
 10
61.055139788267752
 20
6.0706005807501242
 30
0.0
  0
VERTEX
  5
29AD
  8
0
 62
    32
 10
61.0551397882663878
 20
2.0706005807494421
 30
0.0
  0
VERTEX
  5
29AE
  8
0
 62
    32
 10
58.555139788267752
 20
2.0706005807494421
 30
0.0
 42
0.4142135623728287
  0
VERTEX
  5
29AF
  8
0
 62
    32
 10
58.055139788267752
 20
1.570600580750124
 30
0.0
  0
VERTEX
  5
29B0
  8
0
 62
    32
 10
58.0551397882663807
 20
0.5706005807514885
 30
0.0
 42
0.4142135623733615
  0
VERTEX
  5
29B1
  8
0
 62
    32
 10
58.5551397882663878
 20
0.0706005807514885
 30
0.0
  0
VERTEX
  5
29B2
  8
0
 62
    32
 10
63.0551397882663807
 20
0.0706005807514885
 30
0.0
  0
SEQEND
  5
29B3
  8
0
 62
    32
  0
POLYLINE
  5
14F1
  8
0
 62
    32
 66
     1
 10
0.0
 20
0.0
 30
0.0
 70
     1
  0
VERTEX
  5
29B4
  8
0
 62
    32
 10
66.0551397882686615
 20
34.570638079755561
 30
0.0
  0
VERTEX
  5
29B5
  8
0
 62
    32
 10
63.0551397882686615
 20
34.570638079755561
 30
0.0
  0
VERTEX
  5
29B6
  8
0
 62
    32
 10
63.055139788267752
 20
14.5706380797585098
 30
0.0
  0
VERTEX
  5
29B7
  8
0
 62
    32
 10
66.0551397882686615
 20
14.5706380797555504
 30
0.0
  0
SEQEND
  5
29B8
  8
0
 62
    32
  0
POLYLINE
  5
14F2
  8
0
 62
    32
 66
     1
 10
0.0
 20
0.0
 30
0.0
 70
     1
  0
VERTEX
  5
29B9
  8
0
 62
    32
 10
122.2051397882696051
 20
18.5706316494642998
 30
0.0
  0
VERTEX
  5
29BA
  8
0
 62
    32
 10
72.9051397882685706
 20
18.5706316494642998
 30
0.0
  0
VERTEX
  5
29BB
  8
0
 62
    32
 10
72.9051397882685706
 20
9.0706005806414396
 30
0.0
  0
VERTEX
  5
29BC
  8
0
 62
    32
 10
122.2051397882696051
 20
9.0706005807514885
 30
0.0
  0
SEQEND
  5
29BD
  8
0
 62
    32
  0
POLYLINE
  5
14F3
  8
0
 62
    32
 66
     1
 10
0.0
 20
0.0
 30
0.0
 70
     1
  0
VERTEX
  5
29BE
  8
0
 62
    32
 10
112.5472571197988003
 20
20.0706316494661188
 30
0.0
  0
VERTEX
  5
29BF
  8
0
 62
    32
 10
100.4323856394484977
 20
20.0706316494661188
 30
0.0
  0
VERTEX
  5
29C0
  8
0
 62
    32
 10
100.2881430598749972
 20
31.0893236461363394
 30
0.0
 42
0.4142135623730767
  0
VERTEX
  5
29C1
  8
0
 62
    32
 10
99.7816410983018756
 20
31.5827360121386391
 30
0.0
  0
VERTEX
  5
29C2
  8
0
 62
    32
 10
99.1907087236259031
 20
31.575000283605501
 30
0.0
 42
0.2840790438404923
  0
VERTEX
  5
29C3
  8
0
 62
    32
 10
98.7471513172358755
 20
31.2927769155323894
 30
0.0
  0
VERTEX
  5
29C4
  8
0
 62
    32
 10
98.4551397882696619
 20
30.6891267913024492
 30
0.0
  0
VERTEX
  5
29C5
  8
0
 62
    32
 10
98.4551397882696619
 20
30.363487144695231
 30
0.0
  0
VERTEX
  5
29C6
  8
0
 62
    32
 10
98.9551397882696762
 20
30.363487144695231
 30
0.0
  0
VERTEX
  5
29C7
  8
0
 62
    32
 10
98.9551397882696762
 20
30.2634871446921387
 30
0.0
  0
VERTEX
  5
29C8
  8
0
 62
    32
 10
98.4551397882696619
 20
29.363487144695231
 30
0.0
  0
VERTEX
  5
29C9
  8
0
 62
    32
 10
98.4551397882696619
 20
29.2634871446932685
 30
0.0
  0
VERTEX
  5
29CA
  8
0
 62
    32
 10
98.9551397882696762
 20
29.2634871446932685
 30
0.0
  0
VERTEX
  5
29CB
  8
0
 62
    32
 10
98.9551397882696762
 20
29.1634871446942689
 30
0.0
  0
VERTEX
  5
29CC
  8
0
 62
    32
 10
98.4551397882696619
 20
28.2634871446921387
 30
0.0
  0
VERTEX
  5
29CD
  8
0
 62
    32
 10
98.4551397882696619
 20
28.1634871446942689
 30
0.0
  0
VERTEX
  5
29CE
  8
0
 62
    32
 10
98.9551397882696762
 20
28.1634871446942689
 30
0.0
  0
VERTEX
  5
29CF
  8
0
 62
    32
 10
98.9551397882696762
 20
28.0634871446923206
 30
0.0
  0
VERTEX
  5
29D0
  8
0
 62
    32
 10
98.4551397882696619
 20
27.1634871446942796
 30
0.0
  0
VERTEX
  5
29D1
  8
0
 62
    32
 10
98.4551397882696619
 20
27.0634871446923206
 30
0.0
  0
VERTEX
  5
29D2
  8
0
 62
    32
 10
98.9551397882696762
 20
27.0634871446923206
 30
0.0
  0
VERTEX
  5
29D3
  8
0
 62
    32
 10
98.9551397882696762
 20
26.9634871446933211
 30
0.0
  0
VERTEX
  5
29D4
  8
0
 62
    32
 10
98.4721839854287282
 20
25.9651144728475209
 30
0.0
  0
VERTEX
  5
29D5
  8
0
 62
    32
 10
98.8550285059277485
 20
25.9701261821523985
 30
0.0
  0
VERTEX
  5
29D6
  8
0
 62
    32
 10
98.8563374654845717
 20
25.8701347493954508
 30
0.0
  0
VERTEX
  5
29D7
  8
0
 62
    32
 10
98.3694698972690418
 20
24.8636756240352916
 30
0.0
  0
VERTEX
  5
29D8
  8
0
 62
    32
 10
98.8694270610571948
 20
24.87022042182139
 30
0.0
  0
VERTEX
  5
29D9
  8
0
 62
    32
 10
98.8707360206135633
 20
24.7702289890632983
 30
0.0
  0
VERTEX
  5
29DA
  8
0
 62
    32
 10
98.3838684523984739
 20
23.7637698637042796
 30
0.0
  0
VERTEX
  5
29DB
  8
0
 62
    32
 10
98.8838256161848363
 20
23.7703146614903815
 30
0.0
  0
VERTEX
  5
29DC
  8
0
 62
    32
 10
98.8851345757416311
 20
23.6703232287320589
 30
0.0
  0
VERTEX
  5
29DD
  8
0
 62
    32
 10
98.3982670075270249
 20
22.6638641033721306
 30
0.0
  0
VERTEX
  5
29DE
  8
0
 62
    32
 10
98.898224171313359
 20
22.6704089011584493
 30
0.0
  0
VERTEX
  5
29DF
  8
0
 62
    32
 10
98.8995331308697132
 20
22.5704174684017289
 30
0.0
  0
VERTEX
  5
29E0
  8
0
 62
    32
 10
98.4126655626550928
 20
21.5639583430418114
 30
0.0
  0
VERTEX
  5
29E1
  8
0
 62
    32
 10
98.91262272644191
 20
21.5705031408260801
 30
0.0
  0
VERTEX
  5
29E2
  8
0
 62
    32
 10
98.9322571197990328
 20
20.0706316494661188
 30
0.0
  0
VERTEX
  5
29E3
  8
0
 62
    32
 10
96.1622571197990652
 20
20.0706316494661188
 30
0.0
  0
VERTEX
  5
29E4
  8
0
 62
    32
 10
96.1818915131552785
 20
21.5705031408260801
 30
0.0
  0
VERTEX
  5
29E5
  8
0
 62
    32
 10
96.6818486769430052
 20
21.5639583430418114
 30
0.0
  0
VERTEX
  5
29E6
  8
0
 62
    32
 10
96.1949811087279159
 20
22.5704174684017289
 30
0.0
  0
VERTEX
  5
29E7
  8
0
 62
    32
 10
96.1962900682856343
 20
22.6704089011584493
 30
0.0
  0
VERTEX
  5
29E8
  8
0
 62
    32
 10
96.6962472320719968
 20
22.6638641033721306
 30
0.0
  0
VERTEX
  5
29E9
  8
0
 62
    32
 10
96.2093796638569074
 20
23.6703232287320589
 30
0.0
  0
VERTEX
  5
29EA
  8
0
 62
    32
 10
96.2106886234128211
 20
23.7703146614903815
 30
0.0
  0
VERTEX
  5
29EB
  8
0
 62
    32
 10
96.7106457871996241
 20
23.7637698637042796
 30
0.0
  0
VERTEX
  5
29EC
  8
0
 62
    32
 10
96.2237782189845348
 20
24.7702289890632983
 30
0.0
  0
VERTEX
  5
29ED
  8
0
 62
    32
 10
96.2250871785418127
 20
24.87022042182139
 30
0.0
  0
VERTEX
  5
29EE
  8
0
 62
    32
 10
96.7250443423290562
 20
24.8636756240352916
 30
0.0
  0
VERTEX
  5
29EF
  8
0
 62
    32
 10
96.2381767741130858
 20
25.8701347493954508
 30
0.0
  0
VERTEX
  5
29F0
  8
0
 62
    32
 10
96.2394857336694258
 20
25.9701261821523985
 30
0.0
  0
VERTEX
  5
29F1
  8
0
 62
    32
 10
96.6381960620196736
 20
25.9649067780453606
 30
0.0
  0
VERTEX
  5
29F2
  8
0
 62
    32
 10
96.1551397882694801
 20
26.9634871446933211
 30
0.0
  0
VERTEX
  5
29F3
  8
0
 62
    32
 10
96.1551397882694801
 20
27.0634871446923206
 30
0.0
  0
VERTEX
  5
29F4
  8
0
 62
    32
 10
96.7106953438260462
 20
27.0634871446923206
 30
0.0
  0
VERTEX
  5
29F5
  8
0
 62
    32
 10
96.1551397882694801
 20
28.0634871446923206
 30
0.0
  0
VERTEX
  5
29F6
  8
0
 62
    32
 10
96.1551397882694801
 20
28.1634871446942689
 30
0.0
  0
VERTEX
  5
29F7
  8
0
 62
    32
 10
96.7106953438260462
 20
28.1634871446942689
 30
0.0
  0
VERTEX
  5
29F8
  8
0
 62
    32
 10
96.1551397882694801
 20
29.1634871446942689
 30
0.0
  0
VERTEX
  5
29F9
  8
0
 62
    32
 10
96.1551397882694801
 20
29.2634871446932685
 30
0.0
  0
VERTEX
  5
29FA
  8
0
 62
    32
 10
96.7106953438260462
 20
29.2634871446932685
 30
0.0
  0
VERTEX
  5
29FB
  8
0
 62
    32
 10
96.1551397882694801
 20
30.2634871446921387
 30
0.0
  0
VERTEX
  5
29FC
  8
0
 62
    32
 10
96.1551397882694801
 20
30.363487144695231
 30
0.0
  0
VERTEX
  5
29FD
  8
0
 62
    32
 10
96.6551397882694943
 20
30.363487144695231
 30
0.0
  0
VERTEX
  5
29FE
  8
0
 62
    32
 10
96.6551397882694943
 20
30.6565364766740913
 30
0.0
  0
VERTEX
  5
29FF
  8
0
 62
    32
 10
96.3473629223631036
 20
31.2927769155323894
 30
0.0
 42
0.2840790438404193
  0
VERTEX
  5
2A00
  8
0
 62
    32
 10
95.9038055159726355
 20
31.575000283605501
 30
0.0
  0
VERTEX
  5
2A01
  8
0
 62
    32
 10
95.312873141295313
 20
31.5827360121386391
 30
0.0
 42
0.4142135623729646
  0
VERTEX
  5
2A02
  8
0
 62
    32
 10
94.8063711797235555
 20
31.0893236461372489
 30
0.0
  0
VERTEX
  5
2A03
  8
0
 62
    32
 10
94.6621286001486624
 20
20.0706316494661188
 30
0.0
  0
VERTEX
  5
2A04
  8
0
 62
    32
 10
82.5472571197988145
 20
20.0706316494661188
 30
0.0
  0
VERTEX
  5
2A05
  8
0
 62
    32
 10
82.5472571197988145
 20
18.5706316494642998
 30
0.0
  0
VERTEX
  5
2A06
  8
0
 62
    32
 10
112.5472571197988003
 20
18.5706316494642998
 30
0.0
  0
SEQEND
  5
2A07
  8
0
 62
    32
  0
POLYLINE
  5
14F4
  8
0
 62
    32
 66
     1
 10
0.0
 20
0.0
 30
0.0
 70
     1
  0
VERTEX
  5
2A08
  8
0
 62
    32
 10
69.7567772811858049
 20
33.8106005807501333
 30
0.0
  0
VERTEX
  5
2A09
  8
0
 62
    32
 10
68.5567772811859868
 20
33.8106005807501333
 30
0.0
  0
VERTEX
  5
2A0A
  8
0
 62
    32
 10
68.5567772811859868
 20
26.3106005807501298
 30
0.0
  0
VERTEX
  5
2A0B
  8
0
 62
    32
 10
69.7567772811858049
 20
26.3106005807501298
 30
0.0
  0
SEQEND
  5
2A0C
  8
0
 62
    32
  0
POLYLINE
  5
14F5
  8
0
 62
    32
 66
     1
 10
0.0
 20
0.0
 30
0.0
 70
     1
  0
VERTEX
  5
2A0D
  8
0
 62
    32
 10
72.555139788269571
 20
31.8106005807480905
 30
0.0
  0
VERTEX
  5
2A0E
  8
0
 62
    32
 10
69.7567772811858049
 20
31.8106005807480905
 30
0.0
  0
VERTEX
  5
2A0F
  8
0
 62
    32
 10
69.7567772811858049
 20
28.3106005807476286
 30
0.0
  0
VERTEX
  5
2A10
  8
0
 62
    32
 10
72.555139788269571
 20
28.3106005807480905
 30
0.0
  0
SEQEND
  5
2A11
  8
0
 62
    32
  0
POLYLINE
  5
14F6
  8
0
 62
    32
 66
     1
 10
0.0
 20
0.0
 30
0.0
 70
     1
  0
VERTEX
  5
2A12
  8
0
 62
    32
 10
122.5551397882694999
 20
34.0706005807514885
 30
0.0
 42
0.4142135623730951
  0
VERTEX
  5
2A13
  8
0
 62
    32
 10
121.5551397882694999
 20
35.0706005807501171
 30
0.0
  0
VERTEX
  5
2A14
  8
0
 62
    32
 10
73.555139788269571
 20
35.0706005807501171
 30
0.0
 42
0.4142135623730951
  0
VERTEX
  5
2A15
  8
0
 62
    32
 10
72.555139788269571
 20
34.0706005807514885
 30
0.0
  0
VERTEX
  5
2A16
  8
0
 62
    32
 10
72.555139788269571
 20
24.3735443059022217
 30
0.0
 42
0.1989123673796926
  0
VERTEX
  5
2A17
  8
0
 62
    32
 10
72.6430077539125705
 20
24.1614122715473094
 30
0.0
  0
VERTEX
  5
2A18
  8
0
 62
    32
 10
76.3459514790665708
 20
20.4584685463944389
 30
0.0
 42
0.1989123673796281
  0
VERTEX
  5
2A19
  8
0
 62
    32
 10
76.5580835134237532
 20
20.3706005807503097
 30
0.0
  0
VERTEX
  5
2A1A
  8
0
 62
    32
 10
78.555139788269571
 20
20.3706005807503097
 30
0.0
  0
VERTEX
  5
2A1B
  8
0
 62
    32
 10
78.555139788269571
 20
21.8706005807503097
 30
0.0
  0
VERTEX
  5
2A1C
  8
0
 62
    32
 10
77.1794038569837539
 20
21.8706005807503097
 30
0.0
 42
-0.1989123673795379
  0
VERTEX
  5
2A1D
  8
0
 62
    32
 10
76.9672718226283905
 20
21.9584685463944389
 30
0.0
  0
VERTEX
  5
2A1E
  8
0
 62
    32
 10
74.143007753915299
 20
24.7827326151041305
 30
0.0
 42
-0.198912367379783
  0
VERTEX
  5
2A1F
  8
0
 62
    32
 10
74.055139788269571
 20
24.9948646494622189
 30
0.0
  0
VERTEX
  5
2A20
  8
0
 62
    32
 10
74.055139788269571
 20
33.2706005807515268
 30
0.0
 42
-0.4142135623730918
  0
VERTEX
  5
2A21
  8
0
 62
    32
 10
74.3551397882697529
 20
33.5706005807514885
 30
0.0
  0
VERTEX
  5
2A22
  8
0
 62
    32
 10
96.3551397882701934
 20
33.5706005807514885
 30
0.0
 42
-0.4142135623730968
  0
VERTEX
  5
2A23
  8
0
 62
    32
 10
96.6551397882694943
 20
33.2706005807515268
 30
0.0
  0
VERTEX
  5
2A24
  8
0
 62
    32
 10
96.6551397882694943
 20
30.363487144695231
 30
0.0
  0
VERTEX
  5
2A25
  8
0
 62
    32
 10
96.1551397882694801
 20
30.363487144695231
 30
0.0
  0
VERTEX
  5
2A26
  8
0
 62
    32
 10
96.1551397882694801
 20
30.2634871446921387
 30
0.0
  0
VERTEX
  5
2A27
  8
0
 62
    32
 10
96.7106953438260462
 20
29.2634871446932685
 30
0.0
  0
VERTEX
  5
2A28
  8
0
 62
    32
 10
96.1551397882694801
 20
29.2634871446932685
 30
0.0
  0
VERTEX
  5
2A29
  8
0
 62
    32
 10
96.1551397882694801
 20
29.1634871446942689
 30
0.0
  0
VERTEX
  5
2A2A
  8
0
 62
    32
 10
96.7106953438260462
 20
28.1634871446942689
 30
0.0
  0
VERTEX
  5
2A2B
  8
0
 62
    32
 10
96.1551397882694801
 20
28.1634871446942689
 30
0.0
  0
VERTEX
  5
2A2C
  8
0
 62
    32
 10
96.1551397882694801
 20
28.0634871446923206
 30
0.0
  0
VERTEX
  5
2A2D
  8
0
 62
    32
 10
96.7106953438260462
 20
27.0634871446923206
 30
0.0
  0
VERTEX
  5
2A2E
  8
0
 62
    32
 10
96.1551397882694801
 20
27.0634871446923206
 30
0.0
  0
VERTEX
  5
2A2F
  8
0
 62
    32
 10
96.1551397882694801
 20
26.9634871446933211
 30
0.0
  0
VERTEX
  5
2A30
  8
0
 62
    32
 10
96.6923946256424642
 20
25.85286678503644
 30
0.0
 42
0.2876189327576912
  0
VERTEX
  5
2A31
  8
0
 62
    32
 10
97.1424968298174463
 20
25.5706005807514885
 30
0.0
  0
VERTEX
  5
2A32
  8
0
 62
    32
 10
97.9677827467226052
 20
25.5706005807514885
 30
0.0
 42
0.2876189327576915
  0
VERTEX
  5
2A33
  8
0
 62
    32
 10
98.417884950898042
 20
25.85286678503644
 30
0.0
  0
VERTEX
  5
2A34
  8
0
 62
    32
 10
98.9551397882696762
 20
26.9634871446933211
 30
0.0
  0
VERTEX
  5
2A35
  8
0
 62
    32
 10
98.9551397882696762
 20
27.0634871446923206
 30
0.0
  0
VERTEX
  5
2A36
  8
0
 62
    32
 10
98.4551397882696619
 20
27.0634871446923206
 30
0.0
  0
VERTEX
  5
2A37
  8
0
 62
    32
 10
98.4551397882696619
 20
27.1634871446942796
 30
0.0
  0
VERTEX
  5
2A38
  8
0
 62
    32
 10
98.9551397882696762
 20
28.0634871446923206
 30
0.0
  0
VERTEX
  5
2A39
  8
0
 62
    32
 10
98.9551397882696762
 20
28.1634871446942689
 30
0.0
  0
VERTEX
  5
2A3A
  8
0
 62
    32
 10
98.4551397882696619
 20
28.1634871446942689
 30
0.0
  0
VERTEX
  5
2A3B
  8
0
 62
    32
 10
98.4551397882696619
 20
28.2634871446921387
 30
0.0
  0
VERTEX
  5
2A3C
  8
0
 62
    32
 10
98.9551397882696762
 20
29.1634871446942689
 30
0.0
  0
VERTEX
  5
2A3D
  8
0
 62
    32
 10
98.9551397882696762
 20
29.2634871446932685
 30
0.0
  0
VERTEX
  5
2A3E
  8
0
 62
    32
 10
98.4551397882696619
 20
29.2634871446932685
 30
0.0
  0
VERTEX
  5
2A3F
  8
0
 62
    32
 10
98.4551397882696619
 20
29.363487144695231
 30
0.0
  0
VERTEX
  5
2A40
  8
0
 62
    32
 10
98.9551397882696762
 20
30.2634871446921387
 30
0.0
  0
VERTEX
  5
2A41
  8
0
 62
    32
 10
98.9551397882696762
 20
30.363487144695231
 30
0.0
  0
VERTEX
  5
2A42
  8
0
 62
    32
 10
98.4551397882696619
 20
30.363487144695231
 30
0.0
  0
VERTEX
  5
2A43
  8
0
 62
    32
 10
98.4551397882696619
 20
33.2706005807515268
 30
0.0
 42
-0.4142135623730935
  0
VERTEX
  5
2A44
  8
0
 62
    32
 10
98.7551397882693891
 20
33.5706005807514885
 30
0.0
  0
VERTEX
  5
2A45
  8
0
 62
    32
 10
120.7551397882694033
 20
33.5706005807514885
 30
0.0
 42
-0.4142135623730951
  0
VERTEX
  5
2A46
  8
0
 62
    32
 10
121.0551397882695994
 20
33.2706005807515268
 30
0.0
  0
VERTEX
  5
2A47
  8
0
 62
    32
 10
121.0551397882695994
 20
24.9948646494613094
 30
0.0
 42
-0.1989123673797408
  0
VERTEX
  5
2A48
  8
0
 62
    32
 10
120.9672718226246957
 20
24.782732615103221
 30
0.0
  0
VERTEX
  5
2A49
  8
0
 62
    32
 10
118.099073771091696
 20
21.9145345635722606
 30
0.0
 42
-0.198912367379572
  0
VERTEX
  5
2A4A
  8
0
 62
    32
 10
117.9930077539134032
 20
21.8706005807503097
 30
0.0
  0
VERTEX
  5
2A4B
  8
0
 62
    32
 10
116.5551397882694999
 20
21.8706005807503097
 30
0.0
  0
VERTEX
  5
2A4C
  8
0
 62
    32
 10
116.5551397882694999
 20
20.3706005807503097
 30
0.0
  0
VERTEX
  5
2A4D
  8
0
 62
    32
 10
118.5521960631162983
 20
20.3706005807503097
 30
0.0
 42
0.1989123673796255
  0
VERTEX
  5
2A4E
  8
0
 62
    32
 10
118.7643280974729976
 20
20.4584685463944389
 30
0.0
  0
VERTEX
  5
2A4F
  8
0
 62
    32
 10
122.4672718226265005
 20
24.1614122715463999
 30
0.0
 42
0.1989123673796912
  0
VERTEX
  5
2A50
  8
0
 62
    32
 10
122.5551397882694999
 20
24.3735443059013086
 30
0.0
  0
SEQEND
  5
2A51
  8
0
 62
    32
  0
POLYLINE
  5
14F7
  8
0
 62
    32
 66
     1
 10
0.0
 20
0.0
 30
0.0
 70
     1
  0
VERTEX
  5
2A52
  8
0
 62
    32
 10
125.3567772811883998
 20
31.8106005807480905
 30
0.0
  0
VERTEX
  5
2A53
  8
0
 62
    32
 10
122.5551397882694999
 20
31.8106005807480905
 30
0.0
  0
VERTEX
  5
2A54
  8
0
 62
    32
 10
122.5551397882694999
 20
28.3106005807480905
 30
0.0
  0
VERTEX
  5
2A55
  8
0
 62
    32
 10
125.3567772811883998
 20
28.3106005807480905
 30
0.0
  0
SEQEND
  5
2A56
  8
0
 62
    32
  0
POLYLINE
  5
14F8
  8
0
 62
    32
 66
     1
 10
0.0
 20
0.0
 30
0.0
 70
     1
  0
VERTEX
  5
2A57
  8
0
 62
    32
 10
126.5567772811878058
 20
33.8106005807501333
 30
0.0
  0
VERTEX
  5
2A58
  8
0
 62
    32
 10
125.3567772811883998
 20
33.8106005807501333
 30
0.0
  0
VERTEX
  5
2A59
  8
0
 62
    32
 10
125.3567772811883998
 20
26.3106005807501298
 30
0.0
  0
VERTEX
  5
2A5A
  8
0
 62
    32
 10
126.5567772811878058
 20
26.3106005807501298
 30
0.0
  0
SEQEND
  5
2A5B
  8
0
 62
    32
  0
POLYLINE
  5
14F9
  8
0
 62
    32
 66
     1
 10
0.0
 20
0.0
 30
0.0
 70
     1
  0
VERTEX
  5
2A5C
  8
0
 62
    32
 10
88.4572675089270746
 20
9.0239767022812885
 30
0.0
 42
0.1421976721921061
  0
VERTEX
  5
2A5D
  8
0
 62
    32
 10
88.296642040714687
 20
9.0706005807501242
 30
0.0
  0
VERTEX
  5
2A5E
  8
0
 62
    32
 10
72.1763517170857085
 20
9.0706005806403027
 30
0.0
 42
0.1448793903364585
  0
VERTEX
  5
2A5F
  8
0
 62
    32
 10
72.7562594447176707
 20
10.9112623988655706
 30
0.0
 42
1.0
  0
VERTEX
  5
2A60
  8
0
 62
    32
 10
71.256487901984201
 20
10.9374410085201799
 30
0.0
 42
-2.3558523658242061
  0
VERTEX
  5
2A61
  8
0
 62
    32
 10
69.3236177089547709
 20
12.8703112015484695
 30
0.0
 42
1.0
  0
VERTEX
  5
2A62
  8
0
 62
    32
 10
69.2974390992990266
 20
14.3700827442826302
 30
0.0
 42
0.1448793903361527
  0
VERTEX
  5
2A63
  8
0
 62
    32
 10
67.4567772810742099
 20
13.7901750166504407
 30
0.0
  0
VERTEX
  5
2A64
  8
0
 62
    32
 10
67.456777281185623
 20
14.3569359257821798
 30
0.0
  0
VERTEX
  5
2A65
  8
0
 62
    32
 10
67.4567772811851682
 20
24.5506005807501495
 30
0.0
 42
-0.4142135623730172
  0
VERTEX
  5
2A66
  8
0
 62
    32
 10
67.9567772811851682
 20
25.0506005807501388
 30
0.0
  0
VERTEX
  5
2A67
  8
0
 62
    32
 10
70.5567772811859868
 20
25.0506005807515102
 30
0.0
 42
0.414213562372991
  0
VERTEX
  5
2A68
  8
0
 62
    32
 10
71.0567772811859868
 20
25.5506005807515102
 30
0.0
  0
VERTEX
  5
2A69
  8
0
 62
    32
 10
71.0567772811859868
 20
27.4106005807493602
 30
0.0
 42
0.6153846153845322
  0
VERTEX
  5
2A6A
  8
0
 62
    32
 10
69.7567772811858049
 20
27.4106005807514101
 30
0.0
  0
VERTEX
  5
2A6B
  8
0
 62
    32
 10
69.7567772811858049
 20
26.3106005807501298
 30
0.0
  0
VERTEX
  5
2A6C
  8
0
 62
    32
 10
68.5567772811859868
 20
26.3106005807501298
 30
0.0
  0
VERTEX
  5
2A6D
  8
0
 62
    32
 10
68.5567772811859868
 20
33.8106005807501333
 30
0.0
  0
VERTEX
  5
2A6E
  8
0
 62
    32
 10
69.7567772811858049
 20
33.8106005807501333
 30
0.0
  0
VERTEX
  5
2A6F
  8
0
 62
    32
 10
69.7567772811858049
 20
32.7106005807493219
 30
0.0
 42
0.6153846153840894
  0
VERTEX
  5
2A70
  8
0
 62
    32
 10
71.0567772811859868
 20
32.7106005807502171
 30
0.0
  0
VERTEX
  5
2A71
  8
0
 62
    32
 10
71.0567772811859868
 20
34.5706005807494421
 30
0.0
 42
0.414213562373167
  0
VERTEX
  5
2A72
  8
0
 62
    32
 10
70.5567772811859868
 20
35.0706005807501171
 30
0.0
  0
VERTEX
  5
2A73
  8
0
 62
    32
 10
66.5567772811859868
 20
35.0706005807501171
 30
0.0
 42
0.4142135623730951
  0
VERTEX
  5
2A74
  8
0
 62
    32
 10
66.0567772811864415
 20
34.5706005807501313
 30
0.0
  0
VERTEX
  5
2A75
  8
0
 62
    32
 10
66.0551397882686615
 20
14.5706380797555504
 30
0.0
  0
VERTEX
  5
2A76
  8
0
 62
    32
 10
66.0567772811864415
 20
0.0706005807514885
 30
0.0
  0
VERTEX
  5
2A77
  8
0
 62
    32
 10
70.5567772811864415
 20
0.0706005807514885
 30
0.0
 42
0.4142135623733615
  0
VERTEX
  5
2A78
  8
0
 62
    32
 10
71.0567772811864415
 20
0.5706005807514885
 30
0.0
  0
VERTEX
  5
2A79
  8
0
 62
    32
 10
71.0567772811859868
 20
1.570600580750124
 30
0.0
 42
0.4142135623728289
  0
VERTEX
  5
2A7A
  8
0
 62
    32
 10
70.5567772811859868
 20
2.0706005807494421
 30
0.0
  0
VERTEX
  5
2A7B
  8
0
 62
    32
 10
68.0567772811864415
 20
2.0706005807494421
 30
0.0
  0
VERTEX
  5
2A7C
  8
0
 62
    32
 10
68.0567772811859868
 20
6.0706005807501242
 30
0.0
  0
VERTEX
  5
2A7D
  8
0
 62
    32
 10
85.6484147741016386
 20
6.0706005807501242
 30
0.0
  0
VERTEX
  5
2A7E
  8
0
 62
    32
 10
85.6484147741030029
 20
2.0706005807494421
 30
0.0
  0
VERTEX
  5
2A7F
  8
0
 62
    32
 10
83.1484147741011839
 20
2.0706005807494421
 30
0.0
 42
0.4142135623728287
  0
VERTEX
  5
2A80
  8
0
 62
    32
 10
82.6484147741011839
 20
1.570600580750124
 30
0.0
  0
VERTEX
  5
2A81
  8
0
 62
    32
 10
82.6484147741011839
 20
0.5706005807514885
 30
0.0
 42
0.4142135093935159
  0
VERTEX
  5
2A82
  8
0
 62
    32
 10
83.148414683658757
 20
0.0706005807514885
 30
0.0
  0
VERTEX
  5
2A83
  8
0
 62
    32
 10
88.6768329098135837
 20
0.0705995807502404
 30
0.0
 42
0.0669525176422247
  0
VERTEX
  5
2A84
  8
0
 62
    32
 10
89.6016565576856152
 20
0.1949955768222935
 30
0.0
  0
VERTEX
  5
2A85
  8
0
 62
    32
 10
89.8776148220213145
 20
0.2706005807501697
 30
0.0
  0
VERTEX
  5
2A86
  8
0
 62
    32
 10
90.147614822021751
 20
0.0706005807514885
 30
0.0
  0
VERTEX
  5
2A87
  8
0
 62
    32
 10
91.723647813683769
 20
0.0706005807514885
 30
0.0
 42
0.4318902213007532
  0
VERTEX
  5
2A88
  8
0
 62
    32
 10
91.9232882506862552
 20
0.282587903770036
 30
0.0
  0
VERTEX
  5
2A89
  8
0
 62
    32
 10
91.9012602769103069
 20
1.395600532875505
 30
0.0
  0
VERTEX
  5
2A8A
  8
0
 62
    32
 10
91.3602036459369486
 20
2.33273811708409
 30
0.0
 42
0.3700928233967648
  0
VERTEX
  5
2A8B
  8
0
 62
    32
 10
91.1145545343129015
 20
2.4191566321035221
 30
0.0
  0
VERTEX
  5
2A8C
  8
0
 62
    32
 10
89.0310611920935884
 20
1.609491048846166
 30
0.0
  0
VERTEX
  5
2A8D
  8
0
 62
    32
 10
88.815139788270244
 20
1.609491048846166
 30
0.0
 42
-0.4142135623730882
  0
VERTEX
  5
2A8E
  8
0
 62
    32
 10
88.5151397882714264
 20
1.9094910488461201
 30
0.0
  0
VERTEX
  5
2A8F
  8
0
 62
    32
 10
88.5151397882714264
 20
6.0206005837326302
 30
0.0
 42
-0.4142135623730329
  0
VERTEX
  5
2A90
  8
0
 62
    32
 10
88.7151397882716992
 20
6.2206005837324483
 30
0.0
  0
VERTEX
  5
2A91
  8
0
 62
    32
 10
89.0506255136911165
 20
6.2206005837315379
 30
0.0
  0
VERTEX
  5
2A92
  8
0
 62
    32
 10
90.4777434274269581
 20
5.3158923990263238
 30
0.0
 42
0.5630482836134046
  0
VERTEX
  5
2A93
  8
0
 62
    32
 10
90.9651397882716992
 20
5.6729619403331517
 30
0.0
  0
VERTEX
  5
2A94
  8
0
 62
    32
 10
90.9651397882716992
 20
6.8840643553860437
 30
0.0
 42
0.2568852938753183
  0
VERTEX
  5
2A95
  8
0
 62
    32
 10
90.500558015640749
 20
7.7286514271561373
 30
0.0
  0
SEQEND
  5
2A96
  8
0
 62
    32
  0
POLYLINE
  5
14FA
  8
0
 62
    32
 66
     1
 10
0.0
 20
0.0
 30
0.0
 70
     1
  0
VERTEX
  5
2A97
  8
0
 62
    32
 10
102.6578641683108941
 20
5.0512860598234957
 30
0.0
  0
VERTEX
  5
2A98
  8
0
 62
    32
 10
104.1313326101875987
 20
5.0512860598223588
 30
0.0
 42
0.142197656026285
  0
VERTEX
  5
2A99
  8
0
 62
    32
 10
104.2919580623397025
 20
5.0979099281114477
 30
0.0
  0
VERTEX
  5
2A9A
  8
0
 62
    32
 10
104.7377622438898044
 20
5.3805233603600291
 30
0.0
 42
-0.6201356363362962
  0
VERTEX
  5
2A9B
  8
0
 62
    32
 10
104.1484147741030029
 20
5.6114978860175588
 30
0.0
  0
VERTEX
  5
2A9C
  8
0
 62
    32
 10
104.1484147741030029
 20
6.8840643553860437
 30
0.0
 42
-0.2568852938753173
  0
VERTEX
  5
2A9D
  8
0
 62
    32
 10
104.6129965467325036
 20
7.7286514271561373
 30
0.0
  0
VERTEX
  5
2A9E
  8
0
 62
    32
 10
106.7298331580623056
 20
9.0706005807167003
 30
0.0
  0
VERTEX
  5
2A9F
  8
0
 62
    32
 10
88.3837214043765016
 20
9.0706005806762278
 30
0.0
  0
VERTEX
  5
2AA0
  8
0
 62
    32
 10
90.500558015640749
 20
7.7286514271561373
 30
0.0
 42
-0.2568852938753192
  0
VERTEX
  5
2AA1
  8
0
 62
    32
 10
90.9651397882716992
 20
6.8840643553860437
 30
0.0
  0
VERTEX
  5
2AA2
  8
0
 62
    32
 10
90.9651397882716992
 20
5.6729619403331517
 30
0.0
 42
-0.5630482836133976
  0
VERTEX
  5
2AA3
  8
0
 62
    32
 10
90.4777434274269581
 20
5.3158923990263238
 30
0.0
  0
VERTEX
  5
2AA4
  8
0
 62
    32
 10
90.821596500032669
 20
5.0979099281114477
 30
0.0
 42
0.1421976560262435
  0
VERTEX
  5
2AA5
  8
0
 62
    32
 10
90.9822219521856823
 20
5.0512860598223588
 30
0.0
  0
VERTEX
  5
2AA6
  8
0
 62
    32
 10
92.4556903940629127
 20
5.0512860598223588
 30
0.0
 42
-0.2914734195861651
  0
VERTEX
  5
2AA7
  8
0
 62
    32
 10
92.7275827301750581
 20
4.8780715383443294
 30
0.0
  0
VERTEX
  5
2AA8
  8
0
 62
    32
 10
94.1748016350702528
 20
1.7745005813001169
 30
0.0
 42
0.2914734195861388
  0
VERTEX
  5
2AA9
  8
0
 62
    32
 10
94.4466939711801388
 20
1.601286059822314
 30
0.0
  0
VERTEX
  5
2AAA
  8
0
 62
    32
 10
100.6668605911918064
 20
1.601286059822314
 30
0.0
 42
0.291473419586167
  0
VERTEX
  5
2AAB
  8
0
 62
    32
 10
100.9387529273017066
 20
1.7745005813001169
 30
0.0
  0
VERTEX
  5
2AAC
  8
0
 62
    32
 10
102.3859718322000987
 20
4.878071538345238
 30
0.0
 42
-0.291473419586135
  0
SEQEND
  5
2AAD
  8
0
 62
    32
  0
POLYLINE
  5
14FB
  8
0
 62
    32
 66
     1
 10
0.0
 20
0.0
 30
0.0
 70
     1
  0
VERTEX
  5
2AAE
  8
0
 62
    32
 10
103.7533509164372987
 20
2.33273811708409
 30
0.0
 42
-0.3700928233967711
  0
VERTEX
  5
2AAF
  8
0
 62
    32
 10
103.9990000280618005
 20
2.4191566321035221
 30
0.0
  0
VERTEX
  5
2AB0
  8
0
 62
    32
 10
106.047544453445397
 20
1.623072534593575
 30
0.0
 42
0.1979075106054854
  0
VERTEX
  5
2AB1
  8
0
 62
    32
 10
106.1998721497207043
 20
1.6261372925980591
 30
0.0
 42
0.5160073444687262
  0
VERTEX
  5
2AB2
  8
0
 62
    32
 10
106.5984147741028067
 20
1.9094910488461201
 30
0.0
  0
VERTEX
  5
2AB3
  8
0
 62
    32
 10
106.5984147741028067
 20
6.0206005837326302
 30
0.0
 42
0.6613481454685795
  0
VERTEX
  5
2AB4
  8
0
 62
    32
 10
106.2596983624716955
 20
6.1646761095644251
 30
0.0
 42
0.3457270504181441
  0
VERTEX
  5
2AB5
  8
0
 62
    32
 10
106.0138983160714048
 20
6.1895180048720704
 30
0.0
  0
VERTEX
  5
2AB6
  8
0
 62
    32
 10
104.2184119634247992
 20
5.0512860598223588
 30
0.0
  0
VERTEX
  5
2AB7
  8
0
 62
    32
 10
102.6578641683108941
 20
5.0512860598234957
 30
0.0
 42
0.2914734195861662
  0
VERTEX
  5
2AB8
  8
0
 62
    32
 10
102.3859718322000987
 20
4.878071538345238
 30
0.0
  0
VERTEX
  5
2AB9
  8
0
 62
    32
 10
100.9387529273017066
 20
1.7745005813001169
 30
0.0
 42
-0.2914734195861326
  0
VERTEX
  5
2ABA
  8
0
 62
    32
 10
100.6668605911918064
 20
1.601286059822314
 30
0.0
  0
VERTEX
  5
2ABB
  8
0
 62
    32
 10
94.4466939711801388
 20
1.601286059822314
 30
0.0
 42
-0.2914734195861702
  0
VERTEX
  5
2ABC
  8
0
 62
    32
 10
94.1748016350702528
 20
1.7745005813001169
 30
0.0
  0
VERTEX
  5
2ABD
  8
0
 62
    32
 10
92.7275827301750581
 20
4.8780715383443294
 30
0.0
 42
0.2914734195861652
  0
VERTEX
  5
2ABE
  8
0
 62
    32
 10
92.4556903940629127
 20
5.0512860598223588
 30
0.0
  0
VERTEX
  5
2ABF
  8
0
 62
    32
 10
90.8951425989494055
 20
5.0512860598223588
 30
0.0
  0
VERTEX
  5
2AC0
  8
0
 62
    32
 10
89.0996562463014925
 20
6.1895180048720704
 30
0.0
 42
0.3457270504176511
  0
VERTEX
  5
2AC1
  8
0
 62
    32
 10
88.853856199903916
 20
6.1646761095644251
 30
0.0
 42
0.6613481454715781
  0
VERTEX
  5
2AC2
  8
0
 62
    32
 10
88.5151397882714264
 20
6.0206005837326302
 30
0.0
  0
VERTEX
  5
2AC3
  8
0
 62
    32
 10
88.5151397882714264
 20
1.9094910488461201
 30
0.0
 42
0.5160073444670943
  0
VERTEX
  5
2AC4
  8
0
 62
    32
 10
88.9136824126521645
 20
1.6261372925980591
 30
0.0
 42
0.1979075106066123
  0
VERTEX
  5
2AC5
  8
0
 62
    32
 10
89.0660101089292766
 20
1.623072534593575
 30
0.0
  0
VERTEX
  5
2AC6
  8
0
 62
    32
 10
91.1145545343129015
 20
2.4191566321035221
 30
0.0
 42
-0.3700928233967796
  0
VERTEX
  5
2AC7
  8
0
 62
    32
 10
91.3602036459369486
 20
2.33273811708409
 30
0.0
  0
VERTEX
  5
2AC8
  8
0
 62
    32
 10
92.5796468079615806
 20
0.2206005819011807
 30
0.0
 42
0.2679491936183249
  0
VERTEX
  5
2AC9
  8
0
 62
    32
 10
92.8394544297611901
 20
0.0706005807501242
 30
0.0
  0
VERTEX
  5
2ACA
  8
0
 62
    32
 10
102.2741001326126025
 20
0.0706005807501242
 30
0.0
 42
0.2679491936183277
  0
VERTEX
  5
2ACB
  8
0
 62
    32
 10
102.5339077544125956
 20
0.2206005819011807
 30
0.0
  0
SEQEND
  5
2ACC
  8
0
 62
    32
  0
POLYLINE
  5
14FC
  8
0
 62
    32
 66
     1
 10
0.0
 20
0.0
 30
0.0
 70
     1
  0
VERTEX
  5
2ACD
  8
0
 62
    32
 10
129.0567772811878058
 20
34.5706005807501313
 30
0.0
 42
0.414213562373103
  0
VERTEX
  5
2ACE
  8
0
 62
    32
 10
128.5567772811878058
 20
35.0706005807501171
 30
0.0
  0
VERTEX
  5
2ACF
  8
0
 62
    32
 10
124.5567772811878058
 20
35.0706005807501171
 30
0.0
 42
0.4142135623732381
  0
VERTEX
  5
2AD0
  8
0
 62
    32
 10
124.0567772811878058
 20
34.5706005807494421
 30
0.0
  0
VERTEX
  5
2AD1
  8
0
 62
    32
 10
124.0567772811887011
 20
32.7106005807493219
 30
0.0
 42
0.6153846153844053
  0
VERTEX
  5
2AD2
  8
0
 62
    32
 10
125.3567772811883998
 20
32.7106005807493219
 30
0.0
  0
VERTEX
  5
2AD3
  8
0
 62
    32
 10
125.3567772811883998
 20
33.8106005807501333
 30
0.0
  0
VERTEX
  5
2AD4
  8
0
 62
    32
 10
126.5567772811878058
 20
33.8106005807501333
 30
0.0
  0
VERTEX
  5
2AD5
  8
0
 62
    32
 10
126.5567772811878058
 20
26.3106005807501298
 30
0.0
  0
VERTEX
  5
2AD6
  8
0
 62
    32
 10
125.3567772811883998
 20
26.3106005807501298
 30
0.0
  0
VERTEX
  5
2AD7
  8
0
 62
    32
 10
125.3567772811883998
 20
27.4106005807514101
 30
0.0
 42
0.6153846153835416
  0
VERTEX
  5
2AD8
  8
0
 62
    32
 10
124.0567772811878058
 20
27.4106005807493602
 30
0.0
  0
VERTEX
  5
2AD9
  8
0
 62
    32
 10
124.0567772811878058
 20
25.5506005807515102
 30
0.0
 42
0.4142135623729926
  0
VERTEX
  5
2ADA
  8
0
 62
    32
 10
124.5567772811878058
 20
25.0506005807515102
 30
0.0
  0
VERTEX
  5
2ADB
  8
0
 62
    32
 10
127.1567772811890933
 20
25.0506005807501388
 30
0.0
 42
-0.4142135623730185
  0
VERTEX
  5
2ADC
  8
0
 62
    32
 10
127.6567772811889938
 20
24.5506005807501495
 30
0.0
  0
VERTEX
  5
2ADD
  8
0
 62
    32
 10
127.6567772811889938
 20
14.3569359257821798
 30
0.0
  0
VERTEX
  5
2ADE
  8
0
 62
    32
 10
127.6567772812986021
 20
13.7901750166504407
 30
0.0
 42
0.1448793903361893
  0
VERTEX
  5
2ADF
  8
0
 62
    32
 10
125.8161154630742971
 20
14.3700827442826302
 30
0.0
 42
1.0
  0
VERTEX
  5
2AE0
  8
0
 62
    32
 10
125.7899368534184958
 20
12.8703112015484695
 30
0.0
 42
-2.355852365824183
  0
VERTEX
  5
2AE1
  8
0
 62
    32
 10
123.857066660390899
 20
10.9374410085201799
 30
0.0
 42
1.0
  0
VERTEX
  5
2AE2
  8
0
 62
    32
 10
122.357295117656605
 20
10.9112623988655706
 30
0.0
 42
0.1448793903364605
  0
VERTEX
  5
2AE3
  8
0
 62
    32
 10
122.9372028452880983
 20
9.0706005806403027
 30
0.0
  0
VERTEX
  5
2AE4
  8
0
 62
    32
 10
106.8169125216613935
 20
9.0706005807501242
 30
0.0
 42
0.1421976721932902
  0
VERTEX
  5
2AE5
  8
0
 62
    32
 10
106.6562870534484944
 20
9.0239767022812885
 30
0.0
  0
VERTEX
  5
2AE6
  8
0
 62
    32
 10
104.6129965467325036
 20
7.7286514271561373
 30
0.0
 42
0.2568852938753163
  0
VERTEX
  5
2AE7
  8
0
 62
    32
 10
104.1484147741030029
 20
6.8840643553860437
 30
0.0
  0
VERTEX
  5
2AE8
  8
0
 62
    32
 10
104.1484147741030029
 20
5.6114978860175588
 30
0.0
 42
0.6201356363352682
  0
VERTEX
  5
2AE9
  8
0
 62
    32
 10
104.7377622438894065
 20
5.380523360359347
 30
0.0
  0
VERTEX
  5
2AEA
  8
0
 62
    32
 10
106.0629290486827045
 20
6.2206005837315379
 30
0.0
  0
VERTEX
  5
2AEB
  8
0
 62
    32
 10
106.3984147741030029
 20
6.2206005837315379
 30
0.0
 42
-0.4142135623731055
  0
VERTEX
  5
2AEC
  8
0
 62
    32
 10
106.5984147741028067
 20
6.0206005837326302
 30
0.0
  0
VERTEX
  5
2AED
  8
0
 62
    32
 10
106.5984147741028067
 20
1.9094910488461201
 30
0.0
 42
-0.4142135623730951
  0
VERTEX
  5
2AEE
  8
0
 62
    32
 10
106.2984147741040033
 20
1.609491048846166
 30
0.0
  0
VERTEX
  5
2AEF
  8
0
 62
    32
 10
106.0824933702806021
 20
1.609491048846166
 30
0.0
  0
VERTEX
  5
2AF0
  8
0
 62
    32
 10
103.9990000280618005
 20
2.4191566321035221
 30
0.0
 42
0.3700928233967586
  0
VERTEX
  5
2AF1
  8
0
 62
    32
 10
103.7533509164372987
 20
2.33273811708409
 30
0.0
  0
VERTEX
  5
2AF2
  8
0
 62
    32
 10
103.2122942854638978
 20
1.395600532875505
 30
0.0
  0
VERTEX
  5
2AF3
  8
0
 62
    32
 10
103.1899483433143985
 20
0.2665218407896646
 30
0.0
 42
0.4082525098560529
  0
VERTEX
  5
2AF4
  8
0
 62
    32
 10
103.3899067486909047
 20
0.0706005807514885
 30
0.0
  0
VERTEX
  5
2AF5
  8
0
 62
    32
 10
104.9659397403511036
 20
0.0706005807514885
 30
0.0
  0
VERTEX
  5
2AF6
  8
0
 62
    32
 10
105.2359397403510997
 20
0.2706005807501697
 30
0.0
  0
VERTEX
  5
2AF7
  8
0
 62
    32
 10
105.5118980046863015
 20
0.1949955768222935
 30
0.0
 42
0.066952517642229
  0
VERTEX
  5
2AF8
  8
0
 62
    32
 10
106.4367216525596973
 20
0.0705995807502404
 30
0.0
  0
VERTEX
  5
2AF9
  8
0
 62
    32
 10
111.9651398787140977
 20
0.0706005807514885
 30
0.0
 42
0.4142135093937772
  0
VERTEX
  5
2AFA
  8
0
 62
    32
 10
112.465139788273504
 20
0.5706005807514885
 30
0.0
  0
VERTEX
  5
2AFB
  8
0
 62
    32
 10
112.4651397882716992
 20
1.570600580750124
 30
0.0
 42
0.4142135623728289
  0
VERTEX
  5
2AFC
  8
0
 62
    32
 10
111.9651397882730066
 20
2.0706005807494421
 30
0.0
  0
VERTEX
  5
2AFD
  8
0
 62
    32
 10
109.4651397882716992
 20
2.0706005807494421
 30
0.0
  0
VERTEX
  5
2AFE
  8
0
 62
    32
 10
109.4651397882716992
 20
6.0706005807501242
 30
0.0
  0
VERTEX
  5
2AFF
  8
0
 62
    32
 10
127.0567772811878058
 20
6.0706005807501242
 30
0.0
  0
VERTEX
  5
2B00
  8
0
 62
    32
 10
127.0567772811863989
 20
2.0706005807494421
 30
0.0
  0
VERTEX
  5
2B01
  8
0
 62
    32
 10
124.5567772811878058
 20
2.0706005807494421
 30
0.0
 42
0.4142135623728292
  0
VERTEX
  5
2B02
  8
0
 62
    32
 10
124.0567772811878058
 20
1.570600580750124
 30
0.0
  0
VERTEX
  5
2B03
  8
0
 62
    32
 10
124.0567772811863989
 20
0.5706005807514885
 30
0.0
 42
0.4142135623733615
  0
VERTEX
  5
2B04
  8
0
 62
    32
 10
124.5567772811863989
 20
0.0706005807514885
 30
0.0
  0
VERTEX
  5
2B05
  8
0
 62
    32
 10
129.0567772811864131
 20
0.0706005807514885
 30
0.0
  0
SEQEND
  5
2B06
  8
0
 62
    32
  0
VIEWPORT
  5
27EC
 67
     1
  8
0
 62
    32
 10
5.2499996395561652
 20
3.9999998836066779
 30
0.0
 40
20.6080548390948586
 41
8.9929997457669497
 68
     1
 69
     1
1001
ACAD
1000
MVIEW
1002
{
1070
    16
1010
0.0
1020
0.0
1030
0.0
1010
0.0
1020
0.0
1030
1.0
1040
0.0
1040
8.9929997457669497
1040
5.2499996395561652
1040
3.9999998836066779
1040
50.0
1040
0.0
1040
0.0
1070
     0
1070
  1000
1070
     1
1070
     1
1070
     0
1070
     0
1070
     0
1070
     0
1040
0.0
1040
0.0
1040
0.0
1040
10.0
1040
10.0
1040
10.0
1040
10.0
1070
     0
1002
{
1002
}
1002
}
  0
VIEWPORT
  5
27F0
 67
     1
  8
0
 62
    32
 10
5.2499997615814209
 20
3.9999997615814209
 30
0.0
 40
8.3999996185302752
 41
6.3999996185302743
 68
     2
 69
     2
1001
ACAD
1000
MVIEW
1002
{
1070
    16
1010
0.0
1020
0.0
1030
0.0
1010
0.0
1020
0.0
1030
1.0
1040
0.0
1040
99.0478918116532867
1040
64.5559585347268552
1040
18.9261625712687191
1040
50.0
1040
0.0
1040
0.0
1070
     0
1070
  1000
1070
     1
1070
     1
1070
     0
1070
     0
1070
     0
1070
     0
1040
0.0
1040
0.0
1040
0.0
1040
10.0
1040
10.0
1040
10.0
1040
10.0
1070
     0
1002
{
1002
}
1002
}
  0
ENDSEC
  0
EOF
