  0
SECTION
  2
HEADER
  9
$ACADVER
  1
AC1009
  9
$INSBASE
 10
0.0
 20
0.0
 30
0.0
  9
$EXTMIN
 10
-15.1945594705373406
 20
-83.4951215042178063
 30
0.0
  9
$EXTMAX
 10
245.6055428158549034
 20
60.8286977004977416
 30
0.0
  9
$LIMMIN
 10
0.0
 20
0.0
  9
$LIMMAX
 10
420.0
 20
297.0
  9
$ORTHOMODE
 70
     1
  9
$REGENMODE
 70
     1
  9
$FILLMODE
 70
     1
  9
$QTEXTMODE
 70
     0
  9
$MIRRTEXT
 70
     0
  9
$DRAGMODE
 70
     2
  9
$LTSCALE
 40
1.0
  9
$OSMODE
 70
    37
  9
$ATTMODE
 70
     1
  9
$TEXTSIZE
 40
2.5
  9
$TRACEWID
 40
1.0
  9
$TEXTSTYLE
  7
STANDARD
  9
$CLAYER
  8
0
  9
$CELTYPE
  6
BYLAYER
  9
$CECOLOR
 62
    32
  9
$DIMSCALE
 40
1.0
  9
$DIMASZ
 40
2.5
  9
$DIMEXO
 40
0.625
  9
$DIMDLI
 40
3.75
  9
$DIMRND
 40
0.0
  9
$DIMDLE
 40
0.0
  9
$DIMEXE
 40
1.25
  9
$DIMTP
 40
0.0
  9
$DIMTM
 40
0.0
  9
$DIMTXT
 40
2.5
  9
$DIMCEN
 40
2.5
  9
$DIMTSZ
 40
0.0
  9
$DIMTOL
 70
     0
  9
$DIMLIM
 70
     0
  9
$DIMTIH
 70
     0
  9
$DIMTOH
 70
     0
  9
$DIMSE1
 70
     0
  9
$DIMSE2
 70
     0
  9
$DIMTAD
 70
     1
  9
$DIMZIN
 70
     8
  9
$DIMBLK
  1

  9
$DIMASO
 70
     1
  9
$DIMSHO
 70
     1
  9
$DIMPOST
  1

  9
$DIMAPOST
  1

  9
$DIMALT
 70
     0
  9
$DIMALTD
 70
     3
  9
$DIMALTF
 40
0.03937007874016
  9
$DIMLFAC
 40
1.0
  9
$DIMTOFL
 70
     1
  9
$DIMTVP
 40
0.0
  9
$DIMTIX
 70
     0
  9
$DIMSOXD
 70
     0
  9
$DIMSAH
 70
     0
  9
$DIMBLK1
  1

  9
$DIMBLK2
  1

  9
$DIMSTYLE
  2
ISO-25
  9
$DIMCLRD
 70
     0
  9
$DIMCLRE
 70
     0
  9
$DIMCLRT
 70
     0
  9
$DIMTFAC
 40
1.0
  9
$DIMGAP
 40
0.625
  9
$LUNITS
 70
     2
  9
$LUPREC
 70
     4
  9
$SKETCHINC
 40
1.0
  9
$FILLETRAD
 40
0.0
  9
$AUNITS
 70
     0
  9
$AUPREC
 70
     0
  9
$MENU
  1
.
  9
$ELEVATION
 40
0.0
  9
$PELEVATION
 40
0.0
  9
$THICKNESS
 40
0.0
  9
$LIMCHECK
 70
     0
  9
$BLIPMODE
 70
     0
  9
$CHAMFERA
 40
0.0
  9
$CHAMFERB
 40
0.0
  9
$SKPOLY
 70
     0
  9
$TDCREATE
 40
2458874.6104050930589437
  9
$TDUPDATE
 40
2458875.9014004631899297
  9
$TDINDWG
 40
0.0038888889
  9
$TDUSRTIMER
 40
0.0038888889
  9
$USRTIMER
 70
     1
  9
$ANGBASE
 50
0.0
  9
$ANGDIR
 70
     0
  9
$PDMODE
 70
     0
  9
$PDSIZE
 40
0.0
  9
$PLINEWID
 40
0.0
  9
$COORDS
 70
     1
  9
$SPLFRAME
 70
     0
  9
$SPLINETYPE
 70
     6
  9
$SPLINESEGS
 70
     8
  9
$ATTDIA
 70
     1
  9
$ATTREQ
 70
     1
  9
$HANDLING
 70
     1
  9
$HANDSEED
  5
96F
  9
$SURFTAB1
 70
     6
  9
$SURFTAB2
 70
     6
  9
$SURFTYPE
 70
     6
  9
$SURFU
 70
     6
  9
$SURFV
 70
     6
  9
$UCSNAME
  2

  9
$UCSORG
 10
0.0
 20
0.0
 30
0.0
  9
$UCSXDIR
 10
1.0
 20
0.0
 30
0.0
  9
$UCSYDIR
 10
0.0
 20
1.0
 30
0.0
  9
$PUCSNAME
  2

  9
$PUCSORG
 10
0.0
 20
0.0
 30
0.0
  9
$PUCSXDIR
 10
1.0
 20
0.0
 30
0.0
  9
$PUCSYDIR
 10
0.0
 20
1.0
 30
0.0
  9
$USERI1
 70
     0
  9
$USERI2
 70
     0
  9
$USERI3
 70
     0
  9
$USERI4
 70
     0
  9
$USERI5
 70
     0
  9
$USERR1
 40
0.0
  9
$USERR2
 40
0.0
  9
$USERR3
 40
0.0
  9
$USERR4
 40
0.0
  9
$USERR5
 40
0.0
  9
$WORLDVIEW
 70
     1
  9
$SHADEDGE
 70
     3
  9
$SHADEDIF
 70
    70
  9
$TILEMODE
 70
     1
  9
$MAXACTVP
 70
    64
  9
$PLIMCHECK
 70
     0
  9
$PEXTMIN
 10
0.0
 20
0.0
 30
0.0
  9
$PEXTMAX
 10
0.0
 20
0.0
 30
0.0
  9
$PLIMMIN
 10
0.0
 20
0.0
  9
$PLIMMAX
 10
12.0
 20
9.0
  9
$UNITMODE
 70
     0
  9
$VISRETAIN
 70
     1
  9
$PLINEGEN
 70
     0
  9
$PSLTSCALE
 70
     1
  0
ENDSEC
  0
SECTION
  2
TABLES
  0
TABLE
  2
VPORT
 70
     1
  0
VPORT
  2
*ACTIVE
 70
     0
 10
0.0
 20
0.0
 11
1.0
 21
1.0
 12
123.3615658711146068
 22
-25.3681621095677592
 13
0.0
 23
0.0
 14
10.0
 24
10.0
 15
10.0
 25
10.0
 16
0.0
 26
0.0
 36
1.0
 17
0.0
 27
0.0
 37
0.0
 40
216.7730449060358069
 41
2.318681318681318
 42
50.0
 43
0.0
 44
0.0
 50
0.0
 51
0.0
 71
     0
 72
  1000
 73
     1
 74
     3
 75
     0
 76
     1
 77
     0
 78
     0
  0
ENDTAB
  0
TABLE
  2
LTYPE
 70
     2
  0
LTYPE
  2
CONTINUOUS
 70
     0
  3
Solid line
 72
    65
 73
     0
 40
0.0
  0
ENDTAB
  0
TABLE
  2
LAYER
 70
     1
  0
LAYER
  2
0
 70
     0
 62
     7
  6
CONTINUOUS
  0
ENDTAB
  0
TABLE
  2
STYLE
 70
     2
  0
STYLE
  2
STANDARD
 70
     0
 40
0.0
 41
1.0
 50
0.0
 71
     0
 42
2.5
  3
txt
  4

  0
ENDTAB
  0
TABLE
  2
VIEW
 70
     0
  0
ENDTAB
  0
TABLE
  2
UCS
 70
     0
  0
ENDTAB
  0
TABLE
  2
APPID
 70
    18
  0
APPID
  2
ACAD
 70
     0
  0
APPID
  2
ACADANNOTATIVE
 70
     0
  0
APPID
  2
ACAD_PSEXT
 70
     0
  0
APPID
  2
ACADANNOPO
 70
     0
  0
APPID
  2
ACAD_DSTYLE_DIMJAG
 70
     0
  0
APPID
  2
ACAD_DSTYLE_DIMTALN
 70
     0
  0
APPID
  2
ACAD_MLEADERVER
 70
     0
  0
APPID
  2
ACAD_NAV_VCDISPLAY
 70
     0
  0
APPID
  2
ACAECLAYERSTANDARD
 70
     0
  0
APPID
  2
ACAUTHENVIRON
 70
     0
  0
APPID
  2
ACDBDYNAMICBLOCKTRUENAME
 70
     0
  0
APPID
  2
ACDBDYNAMICBLOCKGUID
 70
     0
  0
APPID
  2
ACCMTRANSPARENCY
 70
     0
  0
APPID
  2
ACDBBLOCKREPETAG
 70
     0
  0
APPID
  2
GRADIENTCOLOR1ACI
 70
     0
  0
APPID
  2
GRADIENTCOLOR2ACI
 70
     0
  0
APPID
  2
ACDBBLOCKREPBTAG
 70
     0
  0
APPID
  2
CONTENTBLOCKICON
 70
     0
  0
ENDTAB
  0
TABLE
  2
DIMSTYLE
 70
     4
  0
DIMSTYLE
  2
STANDARD
 70
     0
  3

  4

  5

  6

  7

 40
1.0
 41
0.18
 42
0.0625
 43
0.38
 44
0.18
 45
0.0
 46
0.0
 47
0.0
 48
0.0
140
0.18
141
0.09
142
0.0
143
25.3999999999999986
144
1.0
145
0.0
146
1.0
147
0.09
 71
     0
 72
     0
 73
     1
 74
     1
 75
     0
 76
     0
 77
     0
 78
     0
170
     0
171
     2
172
     0
173
     0
174
     0
175
     0
176
     0
177
     0
178
     0
  0
DIMSTYLE
  2
ISO-25
 70
     0
  3

  4

  5

  6

  7

 40
1.0
 41
2.5
 42
0.625
 43
3.75
 44
1.25
 45
0.0
 46
0.0
 47
0.0
 48
0.0
140
2.5
141
2.5
142
0.0
143
0.03937007874016
144
1.0
145
0.0
146
1.0
147
0.625
 71
     0
 72
     0
 73
     0
 74
     0
 75
     0
 76
     0
 77
     1
 78
     8
170
     0
171
     3
172
     1
173
     0
174
     0
175
     0
176
     0
177
     0
178
     0
  0
ENDTAB
  0
ENDSEC
  0
SECTION
  2
BLOCKS
  0
BLOCK
  8
0
  2
$MODEL_SPACE
 70
     0
 10
0.0
 20
0.0
 30
0.0
  3
$MODEL_SPACE
  1

  0
ENDBLK
  5
80F
  8
0
  0
BLOCK
 67
     1
  8
0
  2
$PAPER_SPACE
 70
     0
 10
0.0
 20
0.0
 30
0.0
  3
$PAPER_SPACE
  1

  0
ENDBLK
  5
80B
 67
     1
  8
0
  0
ENDSEC
  0
SECTION
  2
ENTITIES
  0
POLYLINE
  5
5FD
  8
0
 62
    32
 66
     1
 10
0.0
 20
0.0
 30
0.0
 70
     1
  0
VERTEX
  5
850
  8
0
 62
    32
 10
33.8054405294335467
 20
45.6855615933434294
 30
0.0
  0
VERTEX
  5
851
  8
0
 62
    32
 10
16.805440529433529
 20
41.1304253220148226
 30
0.0
  0
VERTEX
  5
852
  8
0
 62
    32
 10
16.805440529433529
 20
33.2920123390265204
 30
0.0
  0
VERTEX
  5
853
  8
0
 62
    32
 10
17.805440529433529
 20
33.2920123390265204
 30
0.0
  0
VERTEX
  5
854
  8
0
 62
    32
 10
17.805440529433529
 20
31.2962332979429902
 30
0.0
  0
VERTEX
  5
855
  8
0
 62
    32
 10
14.8054405294335307
 20
31.2962332979429902
 30
0.0
  0
VERTEX
  5
856
  8
0
 62
    32
 10
14.8054405294335307
 20
41.1304253220147231
 30
0.0
 42
-0.3394542588633626
  0
VERTEX
  5
857
  8
0
 62
    32
 10
16.2878024392284892
 20
43.062276974592983
 30
0.0
  0
VERTEX
  5
858
  8
0
 62
    32
 10
35.6795586249232102
 20
48.2582823843720874
 30
0.0
 42
-0.4931454260313127
  0
VERTEX
  5
859
  8
0
 62
    32
 10
35.8054405294335609
 20
48.1616898017431083
 30
0.0
  0
VERTEX
  5
85A
  8
0
 62
    32
 10
35.8054405294335183
 20
44.7920123390265204
 30
0.0
  0
VERTEX
  5
85B
  8
0
 62
    32
 10
41.4054405294320773
 20
44.7920123390265204
 30
0.0
  0
VERTEX
  5
85C
  8
0
 62
    32
 10
41.4054405294320773
 20
45.5420123390265132
 30
0.0
  0
VERTEX
  5
85D
  8
0
 62
    32
 10
43.4054405294320631
 20
45.5420123390265132
 30
0.0
  0
VERTEX
  5
85E
  8
0
 62
    32
 10
43.4054405294320631
 20
31.2962332979429902
 30
0.0
  0
VERTEX
  5
85F
  8
0
 62
    32
 10
40.4054405294320631
 20
31.2962332979429902
 30
0.0
  0
VERTEX
  5
860
  8
0
 62
    32
 10
40.4054405294320631
 20
33.2920123390265204
 30
0.0
  0
VERTEX
  5
861
  8
0
 62
    32
 10
41.4054405294320773
 20
33.2920123390265204
 30
0.0
  0
VERTEX
  5
862
  8
0
 62
    32
 10
41.4054405294320773
 20
42.7920123390265204
 30
0.0
  0
VERTEX
  5
863
  8
0
 62
    32
 10
33.8054405294335467
 20
42.7920123390265204
 30
0.0
  0
SEQEND
  5
864
  8
0
 62
    32
  0
POLYLINE
  5
83D
  8
0
 62
    32
 66
     1
 10
0.0
 20
0.0
 30
0.0
 70
     1
  0
VERTEX
  5
926
  8
0
 62
    32
 10
54.6054405294219123
 20
48.0116898017399691
 30
0.0
 42
0.4142135623730951
  0
VERTEX
  5
927
  8
0
 62
    32
 10
54.3554405294219123
 20
48.2616898017399691
 30
0.0
  0
VERTEX
  5
928
  8
0
 62
    32
 10
38.8054405294335467
 20
48.2616898017399691
 30
0.0
  0
VERTEX
  5
929
  8
0
 62
    32
 10
38.3054405294335609
 20
47.7616898017399834
 30
0.0
  0
VERTEX
  5
92A
  8
0
 62
    32
 10
37.8054405294335467
 20
48.2616898017399691
 30
0.0
  0
VERTEX
  5
92B
  8
0
 62
    32
 10
35.9054405294294909
 20
48.2616898017399691
 30
0.0
 42
0.4142135623730951
  0
VERTEX
  5
92C
  8
0
 62
    32
 10
35.8054405294335609
 20
48.1616898017440391
 30
0.0
  0
VERTEX
  5
92D
  8
0
 62
    32
 10
35.8054405294626577
 20
45.0616898017399734
 30
0.0
 42
0.4142135623729893
  0
VERTEX
  5
92E
  8
0
 62
    32
 10
36.105440529462669
 20
44.7616898017398626
 30
0.0
  0
VERTEX
  5
92F
  8
0
 62
    32
 10
40.8054405294335467
 20
44.7616898017381573
 30
0.0
  0
VERTEX
  5
930
  8
0
 62
    32
 10
40.8054405294335467
 20
45.7616898017399691
 30
0.0
  0
VERTEX
  5
931
  8
0
 62
    32
 10
51.6054405294219123
 20
45.7616898017399691
 30
0.0
 42
-0.4142135623730951
  0
VERTEX
  5
932
  8
0
 62
    32
 10
52.1054405294219123
 20
45.2616898017399834
 30
0.0
  0
VERTEX
  5
933
  8
0
 62
    32
 10
52.1054405294219123
 20
31.5116898017399798
 30
0.0
 42
0.4142135623730951
  0
VERTEX
  5
934
  8
0
 62
    32
 10
52.3554405294219123
 20
31.2616898017399798
 30
0.0
  0
VERTEX
  5
935
  8
0
 62
    32
 10
54.3554405294219123
 20
31.2616898017399798
 30
0.0
 42
0.4142135623723542
  0
VERTEX
  5
936
  8
0
 62
    32
 10
54.6054405294219123
 20
31.511689801739351
 30
0.0
  0
VERTEX
  5
937
  8
0
 62
    32
 10
54.6054405294364571
 20
37.261689801741241
 30
0.0
 42
-0.4142135623723542
  0
VERTEX
  5
938
  8
0
 62
    32
 10
55.1054405294364713
 20
37.7616898017399834
 30
0.0
  0
VERTEX
  5
939
  8
0
 62
    32
 10
65.3054405294335538
 20
37.7616898017399834
 30
0.0
 42
-0.4142135623730951
  0
VERTEX
  5
93A
  8
0
 62
    32
 10
65.8054405294335538
 20
37.2616898017399834
 30
0.0
  0
VERTEX
  5
93B
  8
0
 62
    32
 10
65.8054405294335538
 20
31.5116898017399798
 30
0.0
 42
0.4142135623730951
  0
VERTEX
  5
93C
  8
0
 62
    32
 10
66.0554405294335538
 20
31.2616898017399798
 30
0.0
  0
VERTEX
  5
93D
  8
0
 62
    32
 10
68.5554405294335538
 20
31.2616898017399798
 30
0.0
 42
0.4142135623730951
  0
VERTEX
  5
93E
  8
0
 62
    32
 10
68.8054405294335538
 20
31.5116898017399798
 30
0.0
  0
VERTEX
  5
93F
  8
0
 62
    32
 10
68.8054405294335538
 20
37.2616898017399834
 30
0.0
 42
-0.4142135623730951
  0
VERTEX
  5
940
  8
0
 62
    32
 10
69.3054405294335538
 20
37.7616898017399834
 30
0.0
  0
VERTEX
  5
941
  8
0
 62
    32
 10
79.5054405294306434
 20
37.7616898017399834
 30
0.0
 42
-0.4142135623730951
  0
VERTEX
  5
942
  8
0
 62
    32
 10
80.0054405294306434
 20
37.2616898017399834
 30
0.0
  0
VERTEX
  5
943
  8
0
 62
    32
 10
80.0054405294306434
 20
31.5116898017399798
 30
0.0
 42
0.4142135623730951
  0
VERTEX
  5
944
  8
0
 62
    32
 10
80.2554405294306434
 20
31.2616898017399798
 30
0.0
  0
VERTEX
  5
945
  8
0
 62
    32
 10
82.2554405294306434
 20
31.2616898017399798
 30
0.0
 42
0.4142135623730951
  0
VERTEX
  5
946
  8
0
 62
    32
 10
82.5054405294306434
 20
31.5116898017399798
 30
0.0
  0
VERTEX
  5
947
  8
0
 62
    32
 10
82.5054405294306434
 20
45.2616898017399834
 30
0.0
 42
-0.4142135623730951
  0
VERTEX
  5
948
  8
0
 62
    32
 10
83.0054405294306434
 20
45.7616898017399691
 30
0.0
  0
VERTEX
  5
949
  8
0
 62
    32
 10
97.2054405294277331
 20
45.7616898017399691
 30
0.0
  0
VERTEX
  5
94A
  8
0
 62
    32
 10
97.2054405294277331
 20
42.3616898017412495
 30
0.0
  0
VERTEX
  5
94B
  8
0
 62
    32
 10
106.805440529433497
 20
42.3616898017412495
 30
0.0
  0
VERTEX
  5
94C
  8
0
 62
    32
 10
106.805440529433497
 20
44.3616898017412495
 30
0.0
  0
VERTEX
  5
94D
  8
0
 62
    32
 10
101.805440529433497
 20
44.3616898017412495
 30
0.0
  0
VERTEX
  5
94E
  8
0
 62
    32
 10
101.805440529433497
 20
48.2616898017399691
 30
0.0
  0
VERTEX
  5
94F
  8
0
 62
    32
 10
80.5054405294306434
 20
48.2616898017399691
 30
0.0
 42
0.4142135623730951
  0
VERTEX
  5
950
  8
0
 62
    32
 10
80.0054405294306434
 20
47.7616898017399834
 30
0.0
  0
VERTEX
  5
951
  8
0
 62
    32
 10
80.0054405294306434
 20
40.7616898017399691
 30
0.0
 42
-0.4142135623730951
  0
VERTEX
  5
952
  8
0
 62
    32
 10
79.5054405294306434
 20
40.2616898017399834
 30
0.0
  0
VERTEX
  5
953
  8
0
 62
    32
 10
75.7554405294306434
 20
40.2616898017399834
 30
0.0
  0
VERTEX
  5
954
  8
0
 62
    32
 10
75.2554405294306434
 20
39.7616898017399834
 30
0.0
  0
VERTEX
  5
955
  8
0
 62
    32
 10
74.7554405294306434
 20
40.2616898017399834
 30
0.0
  0
VERTEX
  5
956
  8
0
 62
    32
 10
71.2117674966035139
 20
40.2616898017399834
 30
0.0
 42
-0.355092827601457
  0
VERTEX
  5
957
  8
0
 62
    32
 10
70.7223367608324338
 20
40.6594276147561686
 30
0.0
  0
VERTEX
  5
958
  8
0
 62
    32
 10
69.5078788403719159
 20
46.4718696431857481
 30
0.0
 42
0.8126539343500029
  0
VERTEX
  5
959
  8
0
 62
    32
 10
65.103002218480853
 20
46.4718696431858191
 30
0.0
  0
VERTEX
  5
95A
  8
0
 62
    32
 10
63.8885442980186085
 20
40.6594276147489282
 30
0.0
 42
-0.3550928276014467
  0
VERTEX
  5
95B
  8
0
 62
    32
 10
63.3991135622564101
 20
40.2616898017399834
 30
0.0
  0
VERTEX
  5
95C
  8
0
 62
    32
 10
59.8554405294219123
 20
40.2616898017399834
 30
0.0
  0
VERTEX
  5
95D
  8
0
 62
    32
 10
59.3554405294219123
 20
39.7616898017399834
 30
0.0
  0
VERTEX
  5
95E
  8
0
 62
    32
 10
58.8554405294219123
 20
40.2616898017399834
 30
0.0
  0
VERTEX
  5
95F
  8
0
 62
    32
 10
55.1054405294219123
 20
40.2616898017399834
 30
0.0
 42
-0.4142135623730951
  0
VERTEX
  5
960
  8
0
 62
    32
 10
54.6054405294219123
 20
40.7616898017399691
 30
0.0
  0
SEQEND
  5
961
  8
0
 62
    32
  0
POLYLINE
  5
83F
  8
0
 62
    32
 66
     1
 10
0.0
 20
0.0
 30
0.0
 70
     1
  0
VERTEX
  5
962
  8
0
 62
    32
 10
237.3346973082028057
 20
31.2616898017399905
 30
0.0
  0
VERTEX
  5
963
  8
0
 62
    32
 10
237.3346973082028057
 20
58.2574688428098781
 30
0.0
  0
VERTEX
  5
964
  8
0
 62
    32
 10
233.3346973082026921
 20
58.2574688428098781
 30
0.0
  0
VERTEX
  5
965
  8
0
 62
    32
 10
233.3346973082026921
 20
33.2616898017399834
 30
0.0
 42
-0.4142135623730951
  0
VERTEX
  5
966
  8
0
 62
    32
 10
231.3346973082026921
 20
31.2616898017399798
 30
0.0
  0
VERTEX
  5
967
  8
0
 62
    32
 10
10.3346973082027507
 20
31.2616898017399798
 30
0.0
 42
0.4142135623730951
  0
VERTEX
  5
968
  8
0
 62
    32
 10
6.334697308202748
 20
27.2616898017399798
 30
0.0
  0
VERTEX
  5
969
  8
0
 62
    32
 10
6.334697308202748
 20
5.2616898017399762
 30
0.0
  0
VERTEX
  5
96A
  8
0
 62
    32
 10
10.3346973082027507
 20
5.2616898017399762
 30
0.0
  0
VERTEX
  5
96B
  8
0
 62
    32
 10
10.3346973082027507
 20
25.2616898017399798
 30
0.0
 42
-0.4142135623730951
  0
VERTEX
  5
96C
  8
0
 62
    32
 10
12.3346973082027507
 20
27.2616898017399798
 30
0.0
  0
VERTEX
  5
96D
  8
0
 62
    32
 10
233.3346973082026921
 20
27.2616898017399798
 30
0.0
 42
0.4142135623730944
  0
SEQEND
  5
96E
  8
0
 62
    32
  0
ENDSEC
  0
EOF
