  0
SECTION
  2
HEADER
  9
$ACADVER
  1
AC1009
  9
$INSBASE
 10
0.0
 20
0.0
 30
0.0
  9
$EXTMIN
 10
5.93805580060961
 20
10.0657421419435007
 30
0.0
  9
$EXTMAX
 10
258.4673125793497093
 20
78.3269825127785566
 30
0.0
  9
$LIMMIN
 10
0.0
 20
0.0
  9
$LIMMAX
 10
420.0
 20
297.0
  9
$ORTHOMODE
 70
     1
  9
$REGENMODE
 70
     1
  9
$FILLMODE
 70
     1
  9
$QTEXTMODE
 70
     0
  9
$MIRRTEXT
 70
     0
  9
$DRAGMODE
 70
     2
  9
$LTSCALE
 40
1.0
  9
$OSMODE
 70
    37
  9
$ATTMODE
 70
     1
  9
$TEXTSIZE
 40
2.5
  9
$TRACEWID
 40
1.0
  9
$TEXTSTYLE
  7
STANDARD
  9
$CLAYER
  8
0
  9
$CELTYPE
  6
BYLAYER
  9
$CECOLOR
 62
    32
  9
$DIMSCALE
 40
1.0
  9
$DIMASZ
 40
2.5
  9
$DIMEXO
 40
0.625
  9
$DIMDLI
 40
3.75
  9
$DIMRND
 40
0.0
  9
$DIMDLE
 40
0.0
  9
$DIMEXE
 40
1.25
  9
$DIMTP
 40
0.0
  9
$DIMTM
 40
0.0
  9
$DIMTXT
 40
2.5
  9
$DIMCEN
 40
2.5
  9
$DIMTSZ
 40
0.0
  9
$DIMTOL
 70
     0
  9
$DIMLIM
 70
     0
  9
$DIMTIH
 70
     0
  9
$DIMTOH
 70
     0
  9
$DIMSE1
 70
     0
  9
$DIMSE2
 70
     0
  9
$DIMTAD
 70
     1
  9
$DIMZIN
 70
     8
  9
$DIMBLK
  1

  9
$DIMASO
 70
     1
  9
$DIMSHO
 70
     1
  9
$DIMPOST
  1

  9
$DIMAPOST
  1

  9
$DIMALT
 70
     0
  9
$DIMALTD
 70
     3
  9
$DIMALTF
 40
0.03937007874016
  9
$DIMLFAC
 40
1.0
  9
$DIMTOFL
 70
     1
  9
$DIMTVP
 40
0.0
  9
$DIMTIX
 70
     0
  9
$DIMSOXD
 70
     0
  9
$DIMSAH
 70
     0
  9
$DIMBLK1
  1

  9
$DIMBLK2
  1

  9
$DIMSTYLE
  2
ISO-25
  9
$DIMCLRD
 70
     0
  9
$DIMCLRE
 70
     0
  9
$DIMCLRT
 70
     0
  9
$DIMTFAC
 40
1.0
  9
$DIMGAP
 40
0.625
  9
$LUNITS
 70
     2
  9
$LUPREC
 70
     4
  9
$SKETCHINC
 40
1.0
  9
$FILLETRAD
 40
0.0
  9
$AUNITS
 70
     0
  9
$AUPREC
 70
     0
  9
$MENU
  1
.
  9
$ELEVATION
 40
0.0
  9
$PELEVATION
 40
0.0
  9
$THICKNESS
 40
0.0
  9
$LIMCHECK
 70
     0
  9
$BLIPMODE
 70
     0
  9
$CHAMFERA
 40
0.0
  9
$CHAMFERB
 40
0.0
  9
$SKPOLY
 70
     0
  9
$TDCREATE
 40
2458875.8928124997764826
  9
$TDUPDATE
 40
2458875.8961342591792345
  9
$TDINDWG
 40
0.0033217593
  9
$TDUSRTIMER
 40
0.0033217593
  9
$USRTIMER
 70
     1
  9
$ANGBASE
 50
0.0
  9
$ANGDIR
 70
     0
  9
$PDMODE
 70
     0
  9
$PDSIZE
 40
0.0
  9
$PLINEWID
 40
0.0
  9
$COORDS
 70
     1
  9
$SPLFRAME
 70
     0
  9
$SPLINETYPE
 70
     6
  9
$SPLINESEGS
 70
     8
  9
$ATTDIA
 70
     1
  9
$ATTREQ
 70
     1
  9
$HANDLING
 70
     1
  9
$HANDSEED
  5
ACA
  9
$SURFTAB1
 70
     6
  9
$SURFTAB2
 70
     6
  9
$SURFTYPE
 70
     6
  9
$SURFU
 70
     6
  9
$SURFV
 70
     6
  9
$UCSNAME
  2

  9
$UCSORG
 10
0.0
 20
0.0
 30
0.0
  9
$UCSXDIR
 10
1.0
 20
0.0
 30
0.0
  9
$UCSYDIR
 10
0.0
 20
1.0
 30
0.0
  9
$PUCSNAME
  2

  9
$PUCSORG
 10
0.0
 20
0.0
 30
0.0
  9
$PUCSXDIR
 10
1.0
 20
0.0
 30
0.0
  9
$PUCSYDIR
 10
0.0
 20
1.0
 30
0.0
  9
$USERI1
 70
     0
  9
$USERI2
 70
     0
  9
$USERI3
 70
     0
  9
$USERI4
 70
     0
  9
$USERI5
 70
     0
  9
$USERR1
 40
0.0
  9
$USERR2
 40
0.0
  9
$USERR3
 40
0.0
  9
$USERR4
 40
0.0
  9
$USERR5
 40
0.0
  9
$WORLDVIEW
 70
     1
  9
$SHADEDGE
 70
     3
  9
$SHADEDIF
 70
    70
  9
$TILEMODE
 70
     1
  9
$MAXACTVP
 70
    64
  9
$PLIMCHECK
 70
     0
  9
$PEXTMIN
 10
0.0
 20
0.0
 30
0.0
  9
$PEXTMAX
 10
0.0
 20
0.0
 30
0.0
  9
$PLIMMIN
 10
0.0
 20
0.0
  9
$PLIMMAX
 10
12.0
 20
9.0
  9
$UNITMODE
 70
     0
  9
$VISRETAIN
 70
     1
  9
$PLINEGEN
 70
     0
  9
$PSLTSCALE
 70
     1
  0
ENDSEC
  0
SECTION
  2
TABLES
  0
TABLE
  2
VPORT
 70
     1
  0
VPORT
  2
*ACTIVE
 70
     0
 10
0.0
 20
0.0
 11
1.0
 21
1.0
 12
80.2756718602626052
 22
14.7349840317535001
 13
0.0
 23
0.0
 14
10.0
 24
10.0
 15
10.0
 25
10.0
 16
0.0
 26
0.0
 36
1.0
 17
0.0
 27
0.0
 37
0.0
 40
351.5210714394270894
 41
2.318681318681318
 42
50.0
 43
0.0
 44
0.0
 50
0.0
 51
0.0
 71
     0
 72
  1000
 73
     1
 74
     3
 75
     0
 76
     1
 77
     0
 78
     0
  0
ENDTAB
  0
TABLE
  2
LTYPE
 70
     3
  0
LTYPE
  2
CONTINUOUS
 70
     0
  3
Solid line
 72
    65
 73
     0
 40
0.0
  0
ENDTAB
  0
TABLE
  2
LAYER
 70
     5
  0
LAYER
  2
0
 70
     0
 62
     7
  6
CONTINUOUS
  0
ENDTAB
  0
TABLE
  2
STYLE
 70
     2
  0
STYLE
  2
STANDARD
 70
     0
 40
0.0
 41
1.0
 50
0.0
 71
     0
 42
2.5
  3
txt
  4

  0
ENDTAB
  0
TABLE
  2
VIEW
 70
     0
  0
ENDTAB
  0
TABLE
  2
UCS
 70
     0
  0
ENDTAB
  0
TABLE
  2
APPID
 70
    18
  0
APPID
  2
ACAD
 70
     0
  0
APPID
  2
ACAD_PSEXT
 70
     0
  0
APPID
  2
ACADANNOPO
 70
     0
  0
APPID
  2
ACADANNOTATIVE
 70
     0
  0
APPID
  2
ACAD_DSTYLE_DIMJAG
 70
     0
  0
APPID
  2
ACAD_DSTYLE_DIMTALN
 70
     0
  0
APPID
  2
ACAD_MLEADERVER
 70
     0
  0
APPID
  2
ACAD_NAV_VCDISPLAY
 70
     0
  0
APPID
  2
ACAECLAYERSTANDARD
 70
     0
  0
APPID
  2
ACAUTHENVIRON
 70
     0
  0
APPID
  2
ACDBDYNAMICBLOCKTRUENAME
 70
     0
  0
APPID
  2
ACDBDYNAMICBLOCKGUID
 70
     0
  0
APPID
  2
ACCMTRANSPARENCY
 70
     0
  0
APPID
  2
ACDBBLOCKREPETAG
 70
     0
  0
APPID
  2
GRADIENTCOLOR1ACI
 70
     0
  0
APPID
  2
GRADIENTCOLOR2ACI
 70
     0
  0
APPID
  2
ACDBBLOCKREPBTAG
 70
     0
  0
APPID
  2
ACAD_EXEMPT_FROM_CAD_STANDARDS
 70
     0
  0
ENDTAB
  0
TABLE
  2
DIMSTYLE
 70
     4
  0
DIMSTYLE
  2
STANDARD
 70
     0
  3

  4

  5

  6

  7

 40
1.0
 41
0.18
 42
0.0625
 43
0.38
 44
0.18
 45
0.0
 46
0.0
 47
0.0
 48
0.0
140
0.18
141
0.09
142
0.0
143
25.3999999999999986
144
1.0
145
0.0
146
1.0
147
0.09
 71
     0
 72
     0
 73
     1
 74
     1
 75
     0
 76
     0
 77
     0
 78
     0
170
     0
171
     2
172
     0
173
     0
174
     0
175
     0
176
     0
177
     0
178
     0
  0
DIMSTYLE
  2
ISO-25
 70
     0
  3

  4

  5

  6

  7

 40
1.0
 41
2.5
 42
0.625
 43
3.75
 44
1.25
 45
0.0
 46
0.0
 47
0.0
 48
0.0
140
2.5
141
2.5
142
0.0
143
0.03937007874016
144
1.0
145
0.0
146
1.0
147
0.625
 71
     0
 72
     0
 73
     0
 74
     0
 75
     0
 76
     0
 77
     1
 78
     8
170
     0
171
     3
172
     1
173
     0
174
     0
175
     0
176
     0
177
     0
178
     0
  0
ENDTAB
  0
ENDSEC
  0
SECTION
  2
BLOCKS
  0
BLOCK
  8
0
  2
$MODEL_SPACE
 70
     0
 10
0.0
 20
0.0
 30
0.0
  3
$MODEL_SPACE
  1

  0
ENDBLK
  5
21
  8
0
  0
BLOCK
 67
     1
  8
0
  2
$PAPER_SPACE
 70
     0
 10
0.0
 20
0.0
 30
0.0
  3
$PAPER_SPACE
  1

  0
ENDBLK
  5
D5
 67
     1
  8
0
  0
BLOCK
  8
0
 62
    32
  2
*U30
 70
     1
 10
0.0
 20
0.0
 30
0.0
  3
*U30
  1

  0
SOLID
  5
7CD
  8
0
  6
CONTINUOUS
 10
-8.4499999999966349
 20
-5.7499999999868123
 30
0.0
 11
-10.4500000000203705
 21
-6.2499999999836291
 31
0.0
 12
-7.9500000000116406
 22
-6.2499999999836291
 32
0.0
 13
-7.9500000000116406
 23
-6.2499999999836291
 33
0.0
210
0.0
220
0.0
230
-1.0
  0
SOLID
  5
7CE
  8
0
  6
CONTINUOUS
 10
-8.4499999999966349
 20
-5.7499999999868123
 30
0.0
 11
-10.4500000000261899
 21
-5.7499999999868123
 31
0.0
 12
-10.4500000000203705
 22
-6.2499999999836291
 32
0.0
 13
-10.4500000000203705
 23
-6.2499999999836291
 33
0.0
210
0.0
220
0.0
230
-1.0
  0
SOLID
  5
7CF
  8
0
  6
CONTINUOUS
 10
-5.4500000000116406
 20
-5.7499999999868123
 30
0.0
 11
-7.9500000000116406
 21
-6.2499999999836291
 31
0.0
 12
-5.4500000000087301
 22
-6.2499999999836291
 32
0.0
 13
-5.4500000000087301
 23
-6.2499999999836291
 33
0.0
210
0.0
220
0.0
230
-1.0
  0
SOLID
  5
7D0
  8
0
  6
CONTINUOUS
 10
-5.4500000000116406
 20
-5.7499999999868123
 30
0.0
 11
-7.4500000000120963
 21
-5.7499999999868123
 31
0.0
 12
-7.9500000000116406
 22
-6.2499999999836291
 32
0.0
 13
-7.9500000000116406
 23
-6.2499999999836291
 33
0.0
210
0.0
220
0.0
230
-1.0
  0
SOLID
  5
7D1
  8
0
  6
CONTINUOUS
 10
7.4499999999970887
 20
-5.7499999999868123
 30
0.0
 11
5.4499999999970887
 21
-6.2499999999836291
 31
0.0
 12
7.9499999999879938
 22
-6.2499999999836291
 32
0.0
 13
7.9499999999879938
 23
-6.2499999999836291
 33
0.0
210
0.0
220
0.0
230
-1.0
  0
SOLID
  5
7D2
  8
0
  6
CONTINUOUS
 10
7.4499999999970887
 20
-5.7499999999868123
 30
0.0
 11
5.4499999999970887
 21
-5.7499999999868123
 31
0.0
 12
5.4499999999970887
 22
-6.2499999999836291
 32
0.0
 13
5.4499999999970887
 23
-6.2499999999836291
 33
0.0
210
0.0
220
0.0
230
-1.0
  0
SOLID
  5
7D3
  8
0
  6
CONTINUOUS
 10
10.4499999999970896
 20
-5.7499999999868123
 30
0.0
 11
7.9500000000098217
 21
-6.2499999999836291
 31
0.0
 12
10.4499999999970896
 22
-6.2499999999836291
 32
0.0
 13
10.4499999999970896
 23
-6.2499999999836291
 33
0.0
210
0.0
220
0.0
230
-1.0
  0
SOLID
  5
7D4
  8
0
  6
CONTINUOUS
 10
10.4499999999970896
 20
-5.7499999999868123
 30
0.0
 11
8.4500000000111868
 21
-5.7499999999868123
 31
0.0
 12
7.9500000000098217
 22
-6.2499999999836291
 32
0.0
 13
7.9500000000098217
 23
-6.2499999999836291
 33
0.0
210
0.0
220
0.0
230
-1.0
  0
SOLID
  5
7D5
  8
0
  6
CONTINUOUS
 10
10.4499999999970896
 20
-7.217017556224163
 30
0.0
 11
10.3840351124547094
 21
-7.2829824437653761
 31
0.0
 12
10.4499999999961606
 22
-7.2829824437653761
 32
0.0
 13
10.4499999999961606
 23
-7.2829824437653761
 33
0.0
210
0.0
220
0.0
230
-1.0
  0
SOLID
  5
7D6
  8
0
  6
CONTINUOUS
 10
7.9499999999970887
 20
-6.2499999999836291
 30
0.0
 11
5.4499999999970887
 21
-7.217017556224163
 31
0.0
 12
7.9499999999970887
 22
-7.217017556224163
 32
0.0
 13
7.9499999999970887
 23
-7.217017556224163
 33
0.0
210
0.0
220
0.0
230
-1.0
  0
SOLID
  5
7D7
  8
0
  6
CONTINUOUS
 10
7.9499999999970887
 20
-6.2499999999836291
 30
0.0
 11
5.4499999999970887
 21
-6.2499999999836291
 31
0.0
 12
5.4499999999970887
 22
-7.217017556224163
 32
0.0
 13
5.4499999999970887
 23
-7.217017556224163
 33
0.0
210
0.0
220
0.0
230
-1.0
  0
SOLID
  5
7D8
  8
0
  6
CONTINUOUS
 10
10.4499999999970896
 20
-6.2499999999836291
 30
0.0
 11
7.9499999999970887
 21
-7.217017556224163
 31
0.0
 12
10.4499999999970896
 22
-7.217017556224163
 32
0.0
 13
10.4499999999970896
 23
-7.217017556224163
 33
0.0
210
0.0
220
0.0
230
-1.0
  0
SOLID
  5
7D9
  8
0
  6
CONTINUOUS
 10
10.4499999999970896
 20
-6.2499999999836291
 30
0.0
 11
7.9499999999970887
 21
-6.2499999999836291
 31
0.0
 12
7.9499999999970887
 22
-7.217017556224163
 32
0.0
 13
7.9499999999970887
 23
-7.217017556224163
 33
0.0
210
0.0
220
0.0
230
-1.0
  0
SOLID
  5
7DA
  8
0
  6
CONTINUOUS
 10
5.4499999999970887
 20
-7.2829824437653761
 30
0.0
 11
5.4499999999970887
 21
-8.2499999999868123
 31
0.0
 12
6.4170175562176146
 22
-8.2499999999868123
 32
0.0
 13
6.4170175562176146
 23
-8.2499999999868123
 33
0.0
210
0.0
220
0.0
230
-1.0
  0
SOLID
  5
7DB
  8
0
  6
CONTINUOUS
 10
7.9499999999970887
 20
-7.217017556224163
 30
0.0
 11
5.4499999999970887
 21
-7.2829824437653761
 31
0.0
 12
7.9499999999970887
 22
-7.2829824437653761
 32
0.0
 13
7.9499999999970887
 23
-7.2829824437653761
 33
0.0
210
0.0
220
0.0
230
-1.0
  0
SOLID
  5
7DC
  8
0
  6
CONTINUOUS
 10
7.9499999999970887
 20
-7.217017556224163
 30
0.0
 11
5.4499999999970887
 21
-7.217017556224163
 31
0.0
 12
5.4499999999970887
 22
-7.2829824437653761
 32
0.0
 13
5.4499999999970887
 23
-7.2829824437653761
 33
0.0
210
0.0
220
0.0
230
-1.0
  0
SOLID
  5
7DD
  8
0
  6
CONTINUOUS
 10
10.4499999999861704
 20
-7.217017556224163
 30
0.0
 11
7.9499999999970887
 21
-7.2829824437653761
 31
0.0
 12
10.3840351124445505
 22
-7.2829824437653761
 32
0.0
 13
10.3840351124445505
 23
-7.2829824437653761
 33
0.0
210
0.0
220
0.0
230
-1.0
  0
SOLID
  5
7DE
  8
0
  6
CONTINUOUS
 10
10.4499999999861704
 20
-7.217017556224163
 30
0.0
 11
7.9499999999970887
 21
-7.217017556224163
 31
0.0
 12
7.9499999999970887
 22
-7.2829824437653761
 32
0.0
 13
7.9499999999970887
 23
-7.2829824437653761
 33
0.0
210
0.0
220
0.0
230
-1.0
  0
SOLID
  5
7DF
  8
0
  6
CONTINUOUS
 10
-5.4500000000087301
 20
-6.2499999999836291
 30
0.0
 11
-10.4499999999970896
 21
-8.2499999999868123
 31
0.0
 12
-5.4499999999970887
 22
-8.2499999999868123
 32
0.0
 13
-5.4499999999970887
 23
-8.2499999999868123
 33
0.0
210
0.0
220
0.0
230
-1.0
  0
SOLID
  5
7E0
  8
0
  6
CONTINUOUS
 10
-5.4500000000087301
 20
-6.2499999999836291
 30
0.0
 11
-10.4500000000203705
 21
-6.2499999999836291
 31
0.0
 12
-10.4499999999970896
 22
-8.2499999999868123
 32
0.0
 13
-10.4499999999970896
 23
-8.2499999999868123
 33
0.0
210
0.0
220
0.0
230
-1.0
  0
SOLID
  5
7E1
  8
0
  6
CONTINUOUS
 10
7.9499999999970887
 20
-7.2829824437653761
 30
0.0
 11
6.4170175562185241
 21
-8.2499999999868123
 31
0.0
 12
7.9499999999970887
 22
-8.2499999999868123
 32
0.0
 13
7.9499999999970887
 23
-8.2499999999868123
 33
0.0
210
0.0
220
0.0
230
-1.0
  0
SOLID
  5
7E2
  8
0
  6
CONTINUOUS
 10
7.9499999999970887
 20
-7.2829824437653761
 30
0.0
 11
5.450000000000272
 21
-7.2829824437653761
 31
0.0
 12
6.4170175562185241
 22
-8.2499999999868123
 32
0.0
 13
6.4170175562185241
 23
-8.2499999999868123
 33
0.0
210
0.0
220
0.0
230
-1.0
  0
SOLID
  5
7E3
  8
0
  6
CONTINUOUS
 10
10.3840351124445505
 20
-7.2829824437653761
 30
0.0
 11
7.9499999999970887
 21
-8.2499999999868123
 31
0.0
 12
9.4170175562162513
 22
-8.2499999999868123
 32
0.0
 13
9.4170175562162513
 23
-8.2499999999868123
 33
0.0
210
0.0
220
0.0
230
-1.0
  0
SOLID
  5
7E4
  8
0
  6
CONTINUOUS
 10
10.3840351124445505
 20
-7.2829824437653761
 30
0.0
 11
7.9499999999970887
 21
-7.2829824437653761
 31
0.0
 12
7.9499999999970887
 22
-8.2499999999868123
 32
0.0
 13
7.9499999999970887
 23
-8.2499999999868123
 33
0.0
210
0.0
220
0.0
230
-1.0
  0
SOLID
  5
7E5
  8
0
  6
CONTINUOUS
 10
10.4499999999961606
 20
-7.2829824437653761
 30
0.0
 11
9.4170175562171607
 21
-8.2499999999868123
 31
0.0
 12
10.4499999999825306
 22
-8.2499999999868123
 32
0.0
 13
10.4499999999825306
 23
-8.2499999999868123
 33
0.0
210
0.0
220
0.0
230
-1.0
  0
SOLID
  5
7E6
  8
0
  6
CONTINUOUS
 10
10.4499999999961606
 20
-7.2829824437653761
 30
0.0
 11
10.3840351124547094
 21
-7.2829824437653761
 31
0.0
 12
9.4170175562171607
 22
-8.2499999999868123
 32
0.0
 13
9.4170175562171607
 23
-8.2499999999868123
 33
0.0
210
0.0
220
0.0
230
-1.0
  0
SOLID
  5
7E7
  8
0
  6
CONTINUOUS
 10
-12.7000000000116398
 20
-9.7499999999868123
 30
0.0
 11
-15.2000000000116398
 21
-14.4999999999863594
 31
0.0
 12
-12.7000000000116398
 22
-14.4999999999863594
 32
0.0
 13
-12.7000000000116398
 23
-14.4999999999863594
 33
0.0
210
0.0
220
0.0
230
-1.0
  0
SOLID
  5
7E8
  8
0
  6
CONTINUOUS
 10
-12.7000000000116398
 20
-9.7499999999868123
 30
0.0
 11
-15.2000000000261899
 21
-9.7499999999868123
 31
0.0
 12
-15.2000000000116398
 22
-14.4999999999863594
 32
0.0
 13
-15.2000000000116398
 23
-14.4999999999863594
 33
0.0
210
0.0
220
0.0
230
-1.0
  0
SOLID
  5
7E9
  8
0
  6
CONTINUOUS
 10
1.500000000014551
 20
-9.7499999999868123
 30
0.0
 11
-1.5
 21
-14.4999999999863594
 31
0.0
 12
1.5
 22
-14.4999999999863594
 32
0.0
 13
1.5
 23
-14.4999999999863594
 33
0.0
210
0.0
220
0.0
230
-1.0
  0
SOLID
  5
7EA
  8
0
  6
CONTINUOUS
 10
1.500000000014551
 20
-9.7499999999868123
 30
0.0
 11
-1.5
 21
-9.7499999999868123
 31
0.0
 12
-1.5
 22
-14.4999999999863594
 32
0.0
 13
-1.5
 23
-14.4999999999863594
 33
0.0
210
0.0
220
0.0
230
-1.0
  0
SOLID
  5
7EB
  8
0
  6
CONTINUOUS
 10
15.1999999999970896
 20
-9.7499999999868123
 30
0.0
 11
12.6999999999970896
 21
-14.4999999999863594
 31
0.0
 12
15.1999999999970896
 22
-14.4999999999863594
 32
0.0
 13
15.1999999999970896
 23
-14.4999999999863594
 33
0.0
210
0.0
220
0.0
230
-1.0
  0
SOLID
  5
7EC
  8
0
  6
CONTINUOUS
 10
15.1999999999970896
 20
-9.7499999999868123
 30
0.0
 11
12.6999999999970896
 21
-9.7499999999868123
 31
0.0
 12
12.6999999999970896
 22
-14.4999999999863594
 32
0.0
 13
12.6999999999970896
 23
-14.4999999999863594
 33
0.0
210
0.0
220
0.0
230
-1.0
  0
SOLID
  5
7ED
  8
0
  6
CONTINUOUS
 10
-12.7000000000116398
 20
-14.4999999999863594
 30
0.0
 11
-15.1962019382646893
 21
-14.5434120444030892
 31
0.0
 12
-12.7037980617585902
 22
-14.5434120444030892
 32
0.0
 13
-12.7037980617585902
 23
-14.5434120444030892
 33
0.0
210
0.0
220
0.0
230
-1.0
  0
SOLID
  5
7EE
  8
0
  6
CONTINUOUS
 10
-12.7000000000116398
 20
-14.4999999999863594
 30
0.0
 11
-15.2000000000116398
 21
-14.4999999999863594
 31
0.0
 12
-15.1962019382646893
 22
-14.5434120444030892
 32
0.0
 13
-15.1962019382646893
 23
-14.5434120444030892
 33
0.0
210
0.0
220
0.0
230
-1.0
  0
SOLID
  5
7EF
  8
0
  6
CONTINUOUS
 10
1.5
 20
-14.4999999999863594
 30
0.0
 11
-1.4962019382530509
 21
-14.5434120444030892
 31
0.0
 12
1.496201938253052
 22
-14.5434120444030892
 32
0.0
 13
1.496201938253052
 23
-14.5434120444030892
 33
0.0
210
0.0
220
0.0
230
-1.0
  0
SOLID
  5
7F0
  8
0
  6
CONTINUOUS
 10
1.5
 20
-14.4999999999863594
 30
0.0
 11
-1.5
 21
-14.4999999999863594
 31
0.0
 12
-1.4962019382530509
 22
-14.5434120444030892
 32
0.0
 13
-1.4962019382530509
 23
-14.5434120444030892
 33
0.0
210
0.0
220
0.0
230
-1.0
  0
SOLID
  5
7F1
  8
0
  6
CONTINUOUS
 10
15.1999999999970896
 20
-14.4999999999863594
 30
0.0
 11
12.70379806174404
 21
-14.5434120444030892
 31
0.0
 12
15.1962019382501392
 22
-14.5434120444030892
 32
0.0
 13
15.1962019382501392
 23
-14.5434120444030892
 33
0.0
210
0.0
220
0.0
230
-1.0
  0
SOLID
  5
7F2
  8
0
  6
CONTINUOUS
 10
15.1999999999970896
 20
-14.4999999999863594
 30
0.0
 11
12.6999999999970896
 21
-14.4999999999863594
 31
0.0
 12
12.70379806174404
 22
-14.5434120444030892
 32
0.0
 13
12.70379806174404
 23
-14.5434120444030892
 33
0.0
210
0.0
220
0.0
230
-1.0
  0
SOLID
  5
7F3
  8
0
  6
CONTINUOUS
 10
-12.7037980617585902
 20
-14.5434120444030892
 30
0.0
 11
-15.1849231552081196
 21
-14.5855050358177696
 31
0.0
 12
-12.7150768448151599
 22
-14.5855050358177696
 32
0.0
 13
-12.7150768448151599
 23
-14.5855050358177696
 33
0.0
210
0.0
220
0.0
230
-1.0
  0
SOLID
  5
7F4
  8
0
  6
CONTINUOUS
 10
-12.7037980617585902
 20
-14.5434120444030892
 30
0.0
 11
-15.1962019382646893
 21
-14.5434120444030892
 31
0.0
 12
-15.1849231552081196
 22
-14.5855050358177696
 32
0.0
 13
-15.1849231552081196
 23
-14.5855050358177696
 33
0.0
210
0.0
220
0.0
230
-1.0
  0
SOLID
  5
7F5
  8
0
  6
CONTINUOUS
 10
1.496201938253052
 20
-14.5434120444030892
 30
0.0
 11
-1.484923155196477
 21
-14.5855050358177696
 31
0.0
 12
1.484923155196477
 22
-14.5855050358177696
 32
0.0
 13
1.484923155196477
 23
-14.5855050358177696
 33
0.0
210
0.0
220
0.0
230
-1.0
  0
SOLID
  5
7F6
  8
0
  6
CONTINUOUS
 10
1.496201938253052
 20
-14.5434120444030892
 30
0.0
 11
-1.4962019382530509
 21
-14.5434120444030892
 31
0.0
 12
-1.484923155196477
 22
-14.5855050358177696
 32
0.0
 13
-1.484923155196477
 23
-14.5855050358177696
 33
0.0
210
0.0
220
0.0
230
-1.0
  0
SOLID
  5
7F7
  8
0
  6
CONTINUOUS
 10
15.1962019382501392
 20
-14.5434120444030892
 30
0.0
 11
12.7150768448006097
 21
-14.5855050358177696
 31
0.0
 12
15.1849231551935606
 22
-14.5855050358177696
 32
0.0
 13
15.1849231551935606
 23
-14.5855050358177696
 33
0.0
210
0.0
220
0.0
230
-1.0
  0
SOLID
  5
7F8
  8
0
  6
CONTINUOUS
 10
15.1962019382501392
 20
-14.5434120444030892
 30
0.0
 11
12.70379806174404
 21
-14.5434120444030892
 31
0.0
 12
12.7150768448006097
 22
-14.5855050358177696
 32
0.0
 13
12.7150768448006097
 23
-14.5855050358177696
 33
0.0
210
0.0
220
0.0
230
-1.0
  0
SOLID
  5
7F9
  8
0
  6
CONTINUOUS
 10
-12.7150768448151599
 20
-14.5855050358177696
 30
0.0
 11
-15.16650635095775
 21
-14.6249999999863594
 31
0.0
 12
-12.7334936490655295
 22
-14.6249999999863594
 32
0.0
 13
-12.7334936490655295
 23
-14.6249999999863594
 33
0.0
210
0.0
220
0.0
230
-1.0
  0
SOLID
  5
7FA
  8
0
  6
CONTINUOUS
 10
-12.7150768448151599
 20
-14.5855050358177696
 30
0.0
 11
-15.1849231552081196
 21
-14.5855050358177696
 31
0.0
 12
-15.16650635095775
 22
-14.6249999999863594
 32
0.0
 13
-15.16650635095775
 23
-14.6249999999863594
 33
0.0
210
0.0
220
0.0
230
-1.0
  0
SOLID
  5
7FB
  8
0
  6
CONTINUOUS
 10
1.484923155196477
 20
-14.5855050358177696
 30
0.0
 11
-1.4665063509461089
 21
-14.6249999999863594
 31
0.0
 12
1.4665063509461089
 22
-14.6249999999863594
 32
0.0
 13
1.4665063509461089
 23
-14.6249999999863594
 33
0.0
210
0.0
220
0.0
230
-1.0
  0
SOLID
  5
7FC
  8
0
  6
CONTINUOUS
 10
1.484923155196477
 20
-14.5855050358177696
 30
0.0
 11
-1.484923155196477
 21
-14.5855050358177696
 31
0.0
 12
-1.4665063509461089
 22
-14.6249999999863594
 32
0.0
 13
-1.4665063509461089
 23
-14.6249999999863594
 33
0.0
210
0.0
220
0.0
230
-1.0
  0
SOLID
  5
7FD
  8
0
  6
CONTINUOUS
 10
15.1849231551935606
 20
-14.5855050358177696
 30
0.0
 11
12.7334936490509794
 21
-14.6249999999863594
 31
0.0
 12
15.1665063509431999
 22
-14.6249999999863594
 32
0.0
 13
15.1665063509431999
 23
-14.6249999999863594
 33
0.0
210
0.0
220
0.0
230
-1.0
  0
SOLID
  5
7FE
  8
0
  6
CONTINUOUS
 10
15.1849231551935606
 20
-14.5855050358177696
 30
0.0
 11
12.7150768448006097
 21
-14.5855050358177696
 31
0.0
 12
12.7334936490509794
 22
-14.6249999999863594
 32
0.0
 13
12.7334936490509794
 23
-14.6249999999863594
 33
0.0
210
0.0
220
0.0
230
-1.0
  0
SOLID
  5
7FF
  8
0
  6
CONTINUOUS
 10
-12.7334936490655295
 20
-14.6249999999863594
 30
0.0
 11
-15.1415111107913791
 21
-14.6606969024079898
 31
0.0
 12
-12.7584888892319004
 22
-14.6606969024079898
 32
0.0
 13
-12.7584888892319004
 23
-14.6606969024079898
 33
0.0
210
0.0
220
0.0
230
-1.0
  0
SOLID
  5
800
  8
0
  6
CONTINUOUS
 10
-12.7334936490655295
 20
-14.6249999999863594
 30
0.0
 11
-15.16650635095775
 21
-14.6249999999863594
 31
0.0
 12
-15.1415111107913791
 22
-14.6606969024079898
 32
0.0
 13
-15.1415111107913791
 23
-14.6606969024079898
 33
0.0
210
0.0
220
0.0
230
-1.0
  0
SOLID
  5
801
  8
0
  6
CONTINUOUS
 10
1.4665063509461089
 20
-14.6249999999863594
 30
0.0
 11
-1.441511110779744
 21
-14.6606969024079898
 31
0.0
 12
1.441511110779744
 22
-14.6606969024079898
 32
0.0
 13
1.441511110779744
 23
-14.6606969024079898
 33
0.0
210
0.0
220
0.0
230
-1.0
  0
SOLID
  5
802
  8
0
  6
CONTINUOUS
 10
1.4665063509461089
 20
-14.6249999999863594
 30
0.0
 11
-1.4665063509461089
 21
-14.6249999999863594
 31
0.0
 12
-1.441511110779744
 22
-14.6606969024079898
 32
0.0
 13
-1.441511110779744
 23
-14.6606969024079898
 33
0.0
210
0.0
220
0.0
230
-1.0
  0
SOLID
  5
803
  8
0
  6
CONTINUOUS
 10
15.1665063509431999
 20
-14.6249999999863594
 30
0.0
 11
12.7584888892173396
 21
-14.6606969024079898
 31
0.0
 12
15.1415111107768308
 22
-14.6606969024079898
 32
0.0
 13
15.1415111107768308
 23
-14.6606969024079898
 33
0.0
210
0.0
220
0.0
230
-1.0
  0
SOLID
  5
804
  8
0
  6
CONTINUOUS
 10
15.1665063509431999
 20
-14.6249999999863594
 30
0.0
 11
12.7334936490509794
 21
-14.6249999999863594
 31
0.0
 12
12.7584888892173396
 22
-14.6606969024079898
 32
0.0
 13
12.7584888892173396
 23
-14.6606969024079898
 33
0.0
210
0.0
220
0.0
230
-1.0
  0
SOLID
  5
805
  8
0
  6
CONTINUOUS
 10
-12.7584888892319004
 20
-14.6606969024079898
 30
0.0
 11
-15.1106969024332702
 21
-14.6915111107661005
 31
0.0
 12
-12.7893030975900093
 22
-14.6915111107661005
 32
0.0
 13
-12.7893030975900093
 23
-14.6915111107661005
 33
0.0
210
0.0
220
0.0
230
-1.0
  0
SOLID
  5
806
  8
0
  6
CONTINUOUS
 10
-12.7584888892319004
 20
-14.6606969024079898
 30
0.0
 11
-15.1415111107913791
 21
-14.6606969024079898
 31
0.0
 12
-15.1106969024332702
 22
-14.6915111107661005
 32
0.0
 13
-15.1106969024332702
 23
-14.6915111107661005
 33
0.0
210
0.0
220
0.0
230
-1.0
  0
SOLID
  5
807
  8
0
  6
CONTINUOUS
 10
1.441511110779744
 20
-14.6606969024079898
 30
0.0
 11
-1.410696902421634
 21
-14.6915111107661005
 31
0.0
 12
1.410696902421634
 22
-14.6915111107661005
 32
0.0
 13
1.410696902421634
 23
-14.6915111107661005
 33
0.0
210
0.0
220
0.0
230
-1.0
  0
SOLID
  5
808
  8
0
  6
CONTINUOUS
 10
1.441511110779744
 20
-14.6606969024079898
 30
0.0
 11
-1.441511110779744
 21
-14.6606969024079898
 31
0.0
 12
-1.410696902421634
 22
-14.6915111107661005
 32
0.0
 13
-1.410696902421634
 23
-14.6915111107661005
 33
0.0
210
0.0
220
0.0
230
-1.0
  0
SOLID
  5
809
  8
0
  6
CONTINUOUS
 10
15.1415111107768308
 20
-14.6606969024079898
 30
0.0
 11
12.7893030975754503
 21
-14.6915111107661005
 31
0.0
 12
15.1106969024187201
 22
-14.6915111107661005
 32
0.0
 13
15.1106969024187201
 23
-14.6915111107661005
 33
0.0
210
0.0
220
0.0
230
-1.0
  0
SOLID
  5
80A
  8
0
  6
CONTINUOUS
 10
15.1415111107768308
 20
-14.6606969024079898
 30
0.0
 11
12.7584888892173396
 21
-14.6606969024079898
 31
0.0
 12
12.7893030975754503
 22
-14.6915111107661005
 32
0.0
 13
12.7893030975754503
 23
-14.6915111107661005
 33
0.0
210
0.0
220
0.0
230
-1.0
  0
SOLID
  5
80B
  8
0
  6
CONTINUOUS
 10
-12.7893030975900093
 20
-14.6915111107661005
 30
0.0
 11
-15.0750000000116398
 21
-14.7165063509324607
 31
0.0
 12
-12.8250000000116398
 22
-14.7165063509324607
 32
0.0
 13
-12.8250000000116398
 23
-14.7165063509324607
 33
0.0
210
0.0
220
0.0
230
-1.0
  0
SOLID
  5
80C
  8
0
  6
CONTINUOUS
 10
-12.7893030975900093
 20
-14.6915111107661005
 30
0.0
 11
-15.1106969024332702
 21
-14.6915111107661005
 31
0.0
 12
-15.0750000000116398
 22
-14.7165063509324607
 32
0.0
 13
-15.0750000000116398
 23
-14.7165063509324607
 33
0.0
210
0.0
220
0.0
230
-1.0
  0
SOLID
  5
80D
  8
0
  6
CONTINUOUS
 10
1.410696902421634
 20
-14.6915111107661005
 30
0.0
 11
-1.375
 21
-14.7165063509324607
 31
0.0
 12
1.375
 22
-14.7165063509324607
 32
0.0
 13
1.375
 23
-14.7165063509324607
 33
0.0
210
0.0
220
0.0
230
-1.0
  0
SOLID
  5
80E
  8
0
  6
CONTINUOUS
 10
1.410696902421634
 20
-14.6915111107661005
 30
0.0
 11
-1.410696902421634
 21
-14.6915111107661005
 31
0.0
 12
-1.375
 22
-14.7165063509324607
 32
0.0
 13
-1.375
 23
-14.7165063509324607
 33
0.0
210
0.0
220
0.0
230
-1.0
  0
SOLID
  5
80F
  8
0
  6
CONTINUOUS
 10
15.1106969024187201
 20
-14.6915111107661005
 30
0.0
 11
12.8249999999970896
 21
-14.7165063509324607
 31
0.0
 12
15.0749999999970896
 22
-14.7165063509324607
 32
0.0
 13
15.0749999999970896
 23
-14.7165063509324607
 33
0.0
210
0.0
220
0.0
230
-1.0
  0
SOLID
  5
810
  8
0
  6
CONTINUOUS
 10
15.1106969024187201
 20
-14.6915111107661005
 30
0.0
 11
12.7893030975754503
 21
-14.6915111107661005
 31
0.0
 12
12.8249999999970896
 22
-14.7165063509324607
 32
0.0
 13
12.8249999999970896
 23
-14.7165063509324607
 33
0.0
210
0.0
220
0.0
230
-1.0
  0
SOLID
  5
811
  8
0
  6
CONTINUOUS
 10
-12.8250000000116398
 20
-14.7165063509324607
 30
0.0
 11
-15.0355050358430606
 21
-14.7349231551828304
 31
0.0
 12
-12.8644949641802206
 22
-14.7349231551828304
 32
0.0
 13
-12.8644949641802206
 23
-14.7349231551828304
 33
0.0
210
0.0
220
0.0
230
-1.0
  0
SOLID
  5
812
  8
0
  6
CONTINUOUS
 10
-12.8250000000116398
 20
-14.7165063509324607
 30
0.0
 11
-15.0750000000116398
 21
-14.7165063509324607
 31
0.0
 12
-15.0355050358430606
 22
-14.7349231551828304
 32
0.0
 13
-15.0355050358430606
 23
-14.7349231551828304
 33
0.0
210
0.0
220
0.0
230
-1.0
  0
SOLID
  5
813
  8
0
  6
CONTINUOUS
 10
1.375
 20
-14.7165063509324607
 30
0.0
 11
-1.3355050358314171
 21
-14.7349231551828304
 31
0.0
 12
1.3355050358314171
 22
-14.7349231551828304
 32
0.0
 13
1.3355050358314171
 23
-14.7349231551828304
 33
0.0
210
0.0
220
0.0
230
-1.0
  0
SOLID
  5
814
  8
0
  6
CONTINUOUS
 10
1.375
 20
-14.7165063509324607
 30
0.0
 11
-1.375
 21
-14.7165063509324607
 31
0.0
 12
-1.3355050358314171
 22
-14.7349231551828304
 32
0.0
 13
-1.3355050358314171
 23
-14.7349231551828304
 33
0.0
210
0.0
220
0.0
230
-1.0
  0
SOLID
  5
815
  8
0
  6
CONTINUOUS
 10
15.0749999999970896
 20
-14.7165063509324607
 30
0.0
 11
12.8644949641656705
 21
-14.7349231551828304
 31
0.0
 12
15.0355050358284998
 22
-14.7349231551828304
 32
0.0
 13
15.0355050358284998
 23
-14.7349231551828304
 33
0.0
210
0.0
220
0.0
230
-1.0
  0
SOLID
  5
816
  8
0
  6
CONTINUOUS
 10
15.0749999999970896
 20
-14.7165063509324607
 30
0.0
 11
12.8249999999970896
 21
-14.7165063509324607
 31
0.0
 12
12.8644949641656705
 22
-14.7349231551828304
 32
0.0
 13
12.8644949641656705
 23
-14.7349231551828304
 33
0.0
210
0.0
220
0.0
230
-1.0
  0
SOLID
  5
817
  8
0
  6
CONTINUOUS
 10
-12.8644949641802206
 20
-14.7349231551828304
 30
0.0
 11
-14.9934120444283696
 21
-14.7462019382394107
 31
0.0
 12
-12.9065879555949099
 22
-14.7462019382394107
 32
0.0
 13
-12.9065879555949099
 23
-14.7462019382394107
 33
0.0
210
0.0
220
0.0
230
-1.0
  0
SOLID
  5
818
  8
0
  6
CONTINUOUS
 10
-12.8644949641802206
 20
-14.7349231551828304
 30
0.0
 11
-15.0355050358430606
 21
-14.7349231551828304
 31
0.0
 12
-14.9934120444283696
 22
-14.7462019382394107
 32
0.0
 13
-14.9934120444283696
 23
-14.7462019382394107
 33
0.0
210
0.0
220
0.0
230
-1.0
  0
SOLID
  5
819
  8
0
  6
CONTINUOUS
 10
1.3355050358314171
 20
-14.7349231551828304
 30
0.0
 11
-1.2934120444167321
 21
-14.7462019382394107
 31
0.0
 12
1.2934120444167321
 22
-14.7462019382394107
 32
0.0
 13
1.2934120444167321
 23
-14.7462019382394107
 33
0.0
210
0.0
220
0.0
230
-1.0
  0
SOLID
  5
81A
  8
0
  6
CONTINUOUS
 10
1.3355050358314171
 20
-14.7349231551828304
 30
0.0
 11
-1.3355050358314171
 21
-14.7349231551828304
 31
0.0
 12
-1.2934120444167321
 22
-14.7462019382394107
 32
0.0
 13
-1.2934120444167321
 23
-14.7462019382394107
 33
0.0
210
0.0
220
0.0
230
-1.0
  0
SOLID
  5
81B
  8
0
  6
CONTINUOUS
 10
15.0355050358284998
 20
-14.7349231551828304
 30
0.0
 11
12.9065879555803509
 21
-14.7462019382394107
 31
0.0
 12
14.9934120444138195
 22
-14.7462019382394107
 32
0.0
 13
14.9934120444138195
 23
-14.7462019382394107
 33
0.0
210
0.0
220
0.0
230
-1.0
  0
SOLID
  5
81C
  8
0
  6
CONTINUOUS
 10
15.0355050358284998
 20
-14.7349231551828304
 30
0.0
 11
12.8644949641656705
 21
-14.7349231551828304
 31
0.0
 12
12.9065879555803509
 22
-14.7462019382394107
 32
0.0
 13
12.9065879555803509
 23
-14.7462019382394107
 33
0.0
210
0.0
220
0.0
230
-1.0
  0
SOLID
  5
81D
  8
0
  6
CONTINUOUS
 10
-12.9065879555949099
 20
-14.7462019382394107
 30
0.0
 11
-14.9500000000116398
 21
-14.7499999999863594
 31
0.0
 12
-12.9500000000116398
 22
-14.7499999999863594
 32
0.0
 13
-12.9500000000116398
 23
-14.7499999999863594
 33
0.0
210
0.0
220
0.0
230
-1.0
  0
SOLID
  5
81E
  8
0
  6
CONTINUOUS
 10
-12.9065879555949099
 20
-14.7462019382394107
 30
0.0
 11
-14.9934120444283696
 21
-14.7462019382394107
 31
0.0
 12
-14.9500000000116398
 22
-14.7499999999863594
 32
0.0
 13
-14.9500000000116398
 23
-14.7499999999863594
 33
0.0
210
0.0
220
0.0
230
-1.0
  0
SOLID
  5
81F
  8
0
  6
CONTINUOUS
 10
1.2934120444167321
 20
-14.7462019382394107
 30
0.0
 11
-1.25
 21
-14.7499999999863594
 31
0.0
 12
1.25
 22
-14.7499999999863594
 32
0.0
 13
1.25
 23
-14.7499999999863594
 33
0.0
210
0.0
220
0.0
230
-1.0
  0
SOLID
  5
820
  8
0
  6
CONTINUOUS
 10
1.2934120444167321
 20
-14.7462019382394107
 30
0.0
 11
-1.2934120444167321
 21
-14.7462019382394107
 31
0.0
 12
-1.25
 22
-14.7499999999863594
 32
0.0
 13
-1.25
 23
-14.7499999999863594
 33
0.0
210
0.0
220
0.0
230
-1.0
  0
SOLID
  5
821
  8
0
  6
CONTINUOUS
 10
14.9934120444138195
 20
-14.7462019382394107
 30
0.0
 11
12.9499999999970896
 21
-14.7499999999863594
 31
0.0
 12
14.9499999999970896
 22
-14.7499999999863594
 32
0.0
 13
14.9499999999970896
 23
-14.7499999999863594
 33
0.0
210
0.0
220
0.0
230
-1.0
  0
SOLID
  5
822
  8
0
  6
CONTINUOUS
 10
14.9934120444138195
 20
-14.7462019382394107
 30
0.0
 11
12.9065879555803509
 21
-14.7462019382394107
 31
0.0
 12
12.9499999999970896
 22
-14.7499999999863594
 32
0.0
 13
12.9499999999970896
 23
-14.7499999999863594
 33
0.0
210
0.0
220
0.0
230
-1.0
  0
LINE
  5
823
  8
0
  6
CONTINUOUS
 10
7.9500000000116406
 20
-6.2499999999836291
 30
0.0
 11
8.4499999999966349
 21
-5.7499999999868123
 31
0.0
  0
LINE
  5
824
  8
0
  6
CONTINUOUS
 10
10.4500000000261899
 20
-5.7499999999868123
 30
0.0
 11
10.4500000000203705
 21
-6.2499999999836291
 31
0.0
  0
LINE
  5
825
  8
0
  6
CONTINUOUS
 10
5.4500000000087301
 20
-6.2499999999836291
 30
0.0
 11
5.4500000000116406
 21
-5.7499999999868123
 31
0.0
  0
LINE
  5
826
  8
0
  6
CONTINUOUS
 10
7.4500000000120963
 20
-5.7499999999868123
 30
0.0
 11
7.9500000000116406
 21
-6.2499999999836291
 31
0.0
  0
LINE
  5
827
  8
0
  6
CONTINUOUS
 10
-5.4499999999970887
 20
-5.7499999999868123
 30
0.0
 11
-5.4499999999970887
 21
-6.2499999999836291
 31
0.0
  0
LINE
  5
828
  8
0
  6
CONTINUOUS
 10
-10.4499999999970896
 20
-6.2499999999836291
 30
0.0
 11
-10.4499999999970896
 21
-5.7499999999868123
 31
0.0
  0
LINE
  5
829
  8
0
  6
CONTINUOUS
 10
-10.4499999999970896
 20
-7.217017556224163
 30
0.0
 11
-10.3840351124547094
 21
-7.2829824437653761
 31
0.0
  0
LINE
  5
82A
  8
0
  6
CONTINUOUS
 10
-10.4499999999961606
 20
-7.2829824437653761
 30
0.0
 11
-10.4499999999970896
 21
-7.217017556224163
 31
0.0
  0
LINE
  5
82B
  8
0
  6
CONTINUOUS
 10
-5.4499999999970887
 20
-6.2499999999836291
 30
0.0
 11
-5.4499999999970887
 21
-7.217017556224163
 31
0.0
  0
LINE
  5
82C
  8
0
  6
CONTINUOUS
 10
-10.4499999999970896
 20
-7.217017556224163
 30
0.0
 11
-10.4499999999970896
 21
-6.2499999999836291
 31
0.0
  0
LINE
  5
82D
  8
0
  6
CONTINUOUS
 10
-5.4499999999970887
 20
-7.2829824437653761
 30
0.0
 11
-5.4499999999970887
 21
-8.2499999999868123
 31
0.0
  0
LINE
  5
82E
  8
0
  6
CONTINUOUS
 10
-6.4170175562176146
 20
-8.2499999999868123
 30
0.0
 11
-5.4499999999970887
 21
-7.2829824437653761
 31
0.0
  0
LINE
  5
82F
  8
0
  6
CONTINUOUS
 10
-5.4499999999970887
 20
-7.217017556224163
 30
0.0
 11
-5.4499999999970887
 21
-7.2829824437653761
 31
0.0
  0
LINE
  5
830
  8
0
  6
CONTINUOUS
 10
-10.3840351124445505
 20
-7.2829824437653761
 30
0.0
 11
-10.4499999999861704
 21
-7.217017556224163
 31
0.0
  0
LINE
  5
831
  8
0
  6
CONTINUOUS
 10
5.4499999999970887
 20
-8.2499999999868123
 30
0.0
 11
5.4500000000087301
 21
-6.2499999999836291
 31
0.0
  0
LINE
  5
832
  8
0
  6
CONTINUOUS
 10
10.4500000000203705
 20
-6.2499999999836291
 30
0.0
 11
10.4499999999970896
 21
-8.2499999999868123
 31
0.0
  0
LINE
  5
833
  8
0
  6
CONTINUOUS
 10
-7.9499999999970887
 20
-8.2499999999868123
 30
0.0
 11
-7.9499999999970887
 21
-7.2829824437653761
 31
0.0
  0
LINE
  5
834
  8
0
  6
CONTINUOUS
 10
-5.450000000000272
 20
-7.2829824437653761
 30
0.0
 11
-6.4170175562185241
 21
-8.2499999999868123
 31
0.0
  0
LINE
  5
835
  8
0
  6
CONTINUOUS
 10
-7.9499999999970887
 20
-7.2829824437653761
 30
0.0
 11
-7.9499999999970887
 21
-8.2499999999868123
 31
0.0
  0
LINE
  5
836
  8
0
  6
CONTINUOUS
 10
-10.4499999999825306
 20
-8.2499999999868123
 30
0.0
 11
-10.4499999999961606
 21
-7.2829824437653761
 31
0.0
  0
LINE
  5
837
  8
0
  6
CONTINUOUS
 10
12.7000000000116398
 20
-14.4999999999863594
 30
0.0
 11
12.7000000000116398
 21
-9.7499999999868123
 31
0.0
  0
LINE
  5
838
  8
0
  6
CONTINUOUS
 10
15.2000000000261899
 20
-9.7499999999868123
 30
0.0
 11
15.2000000000116398
 21
-14.4999999999863594
 31
0.0
  0
LINE
  5
839
  8
0
  6
CONTINUOUS
 10
-1.5
 20
-14.4999999999863594
 30
0.0
 11
-1.500000000014551
 21
-9.7499999999868123
 31
0.0
  0
LINE
  5
83A
  8
0
  6
CONTINUOUS
 10
1.5
 20
-9.7499999999868123
 30
0.0
 11
1.5
 21
-14.4999999999863594
 31
0.0
  0
LINE
  5
83B
  8
0
  6
CONTINUOUS
 10
-15.1999999999970896
 20
-14.4999999999863594
 30
0.0
 11
-15.1999999999970896
 21
-9.7499999999868123
 31
0.0
  0
LINE
  5
83C
  8
0
  6
CONTINUOUS
 10
-12.6999999999970896
 20
-9.7499999999868123
 30
0.0
 11
-12.6999999999970896
 21
-14.4999999999863594
 31
0.0
  0
LINE
  5
83D
  8
0
  6
CONTINUOUS
 10
12.7037980617585902
 20
-14.5434120444030892
 30
0.0
 11
12.7000000000116398
 21
-14.4999999999863594
 31
0.0
  0
LINE
  5
83E
  8
0
  6
CONTINUOUS
 10
15.2000000000116398
 20
-14.4999999999863594
 30
0.0
 11
15.1962019382646893
 21
-14.5434120444030892
 31
0.0
  0
LINE
  5
83F
  8
0
  6
CONTINUOUS
 10
-1.496201938253052
 20
-14.5434120444030892
 30
0.0
 11
-1.5
 21
-14.4999999999863594
 31
0.0
  0
LINE
  5
840
  8
0
  6
CONTINUOUS
 10
1.5
 20
-14.4999999999863594
 30
0.0
 11
1.4962019382530509
 21
-14.5434120444030892
 31
0.0
  0
LINE
  5
841
  8
0
  6
CONTINUOUS
 10
-15.1962019382501392
 20
-14.5434120444030892
 30
0.0
 11
-15.1999999999970896
 21
-14.4999999999863594
 31
0.0
  0
LINE
  5
842
  8
0
  6
CONTINUOUS
 10
-12.6999999999970896
 20
-14.4999999999863594
 30
0.0
 11
-12.70379806174404
 21
-14.5434120444030892
 31
0.0
  0
LINE
  5
843
  8
0
  6
CONTINUOUS
 10
12.7150768448151599
 20
-14.5855050358177696
 30
0.0
 11
12.7037980617585902
 21
-14.5434120444030892
 31
0.0
  0
LINE
  5
844
  8
0
  6
CONTINUOUS
 10
15.1962019382646893
 20
-14.5434120444030892
 30
0.0
 11
15.1849231552081196
 21
-14.5855050358177696
 31
0.0
  0
LINE
  5
845
  8
0
  6
CONTINUOUS
 10
-1.484923155196477
 20
-14.5855050358177696
 30
0.0
 11
-1.496201938253052
 21
-14.5434120444030892
 31
0.0
  0
LINE
  5
846
  8
0
  6
CONTINUOUS
 10
1.4962019382530509
 20
-14.5434120444030892
 30
0.0
 11
1.484923155196477
 21
-14.5855050358177696
 31
0.0
  0
LINE
  5
847
  8
0
  6
CONTINUOUS
 10
-15.1849231551935606
 20
-14.5855050358177696
 30
0.0
 11
-15.1962019382501392
 21
-14.5434120444030892
 31
0.0
  0
LINE
  5
848
  8
0
  6
CONTINUOUS
 10
-12.70379806174404
 20
-14.5434120444030892
 30
0.0
 11
-12.7150768448006097
 21
-14.5855050358177696
 31
0.0
  0
LINE
  5
849
  8
0
  6
CONTINUOUS
 10
12.7334936490655295
 20
-14.6249999999863594
 30
0.0
 11
12.7150768448151599
 21
-14.5855050358177696
 31
0.0
  0
LINE
  5
84A
  8
0
  6
CONTINUOUS
 10
15.1849231552081196
 20
-14.5855050358177696
 30
0.0
 11
15.16650635095775
 21
-14.6249999999863594
 31
0.0
  0
LINE
  5
84B
  8
0
  6
CONTINUOUS
 10
-1.4665063509461089
 20
-14.6249999999863594
 30
0.0
 11
-1.484923155196477
 21
-14.5855050358177696
 31
0.0
  0
LINE
  5
84C
  8
0
  6
CONTINUOUS
 10
1.484923155196477
 20
-14.5855050358177696
 30
0.0
 11
1.4665063509461089
 21
-14.6249999999863594
 31
0.0
  0
LINE
  5
84D
  8
0
  6
CONTINUOUS
 10
-15.1665063509431999
 20
-14.6249999999863594
 30
0.0
 11
-15.1849231551935606
 21
-14.5855050358177696
 31
0.0
  0
LINE
  5
84E
  8
0
  6
CONTINUOUS
 10
-12.7150768448006097
 20
-14.5855050358177696
 30
0.0
 11
-12.7334936490509794
 21
-14.6249999999863594
 31
0.0
  0
LINE
  5
84F
  8
0
  6
CONTINUOUS
 10
12.7584888892319004
 20
-14.6606969024079898
 30
0.0
 11
12.7334936490655295
 21
-14.6249999999863594
 31
0.0
  0
LINE
  5
850
  8
0
  6
CONTINUOUS
 10
15.16650635095775
 20
-14.6249999999863594
 30
0.0
 11
15.1415111107913791
 21
-14.6606969024079898
 31
0.0
  0
LINE
  5
851
  8
0
  6
CONTINUOUS
 10
-1.441511110779744
 20
-14.6606969024079898
 30
0.0
 11
-1.4665063509461089
 21
-14.6249999999863594
 31
0.0
  0
LINE
  5
852
  8
0
  6
CONTINUOUS
 10
1.4665063509461089
 20
-14.6249999999863594
 30
0.0
 11
1.441511110779744
 21
-14.6606969024079898
 31
0.0
  0
LINE
  5
853
  8
0
  6
CONTINUOUS
 10
-15.1415111107768308
 20
-14.6606969024079898
 30
0.0
 11
-15.1665063509431999
 21
-14.6249999999863594
 31
0.0
  0
LINE
  5
854
  8
0
  6
CONTINUOUS
 10
-12.7334936490509794
 20
-14.6249999999863594
 30
0.0
 11
-12.7584888892173396
 21
-14.6606969024079898
 31
0.0
  0
LINE
  5
855
  8
0
  6
CONTINUOUS
 10
12.7893030975900093
 20
-14.6915111107661005
 30
0.0
 11
12.7584888892319004
 21
-14.6606969024079898
 31
0.0
  0
LINE
  5
856
  8
0
  6
CONTINUOUS
 10
15.1415111107913791
 20
-14.6606969024079898
 30
0.0
 11
15.1106969024332702
 21
-14.6915111107661005
 31
0.0
  0
LINE
  5
857
  8
0
  6
CONTINUOUS
 10
-1.410696902421634
 20
-14.6915111107661005
 30
0.0
 11
-1.441511110779744
 21
-14.6606969024079898
 31
0.0
  0
LINE
  5
858
  8
0
  6
CONTINUOUS
 10
1.441511110779744
 20
-14.6606969024079898
 30
0.0
 11
1.410696902421634
 21
-14.6915111107661005
 31
0.0
  0
LINE
  5
859
  8
0
  6
CONTINUOUS
 10
-15.1106969024187201
 20
-14.6915111107661005
 30
0.0
 11
-15.1415111107768308
 21
-14.6606969024079898
 31
0.0
  0
LINE
  5
85A
  8
0
  6
CONTINUOUS
 10
-12.7584888892173396
 20
-14.6606969024079898
 30
0.0
 11
-12.7893030975754503
 21
-14.6915111107661005
 31
0.0
  0
LINE
  5
85B
  8
0
  6
CONTINUOUS
 10
12.8250000000116398
 20
-14.7165063509324607
 30
0.0
 11
12.7893030975900093
 21
-14.6915111107661005
 31
0.0
  0
LINE
  5
85C
  8
0
  6
CONTINUOUS
 10
15.1106969024332702
 20
-14.6915111107661005
 30
0.0
 11
15.0750000000116398
 21
-14.7165063509324607
 31
0.0
  0
LINE
  5
85D
  8
0
  6
CONTINUOUS
 10
-1.375
 20
-14.7165063509324607
 30
0.0
 11
-1.410696902421634
 21
-14.6915111107661005
 31
0.0
  0
LINE
  5
85E
  8
0
  6
CONTINUOUS
 10
1.410696902421634
 20
-14.6915111107661005
 30
0.0
 11
1.375
 21
-14.7165063509324607
 31
0.0
  0
LINE
  5
85F
  8
0
  6
CONTINUOUS
 10
-15.0749999999970896
 20
-14.7165063509324607
 30
0.0
 11
-15.1106969024187201
 21
-14.6915111107661005
 31
0.0
  0
LINE
  5
860
  8
0
  6
CONTINUOUS
 10
-12.7893030975754503
 20
-14.6915111107661005
 30
0.0
 11
-12.8249999999970896
 21
-14.7165063509324607
 31
0.0
  0
LINE
  5
861
  8
0
  6
CONTINUOUS
 10
12.8644949641802206
 20
-14.7349231551828304
 30
0.0
 11
12.8250000000116398
 21
-14.7165063509324607
 31
0.0
  0
LINE
  5
862
  8
0
  6
CONTINUOUS
 10
15.0750000000116398
 20
-14.7165063509324607
 30
0.0
 11
15.0355050358430606
 21
-14.7349231551828304
 31
0.0
  0
LINE
  5
863
  8
0
  6
CONTINUOUS
 10
-1.3355050358314171
 20
-14.7349231551828304
 30
0.0
 11
-1.375
 21
-14.7165063509324607
 31
0.0
  0
LINE
  5
864
  8
0
  6
CONTINUOUS
 10
1.375
 20
-14.7165063509324607
 30
0.0
 11
1.3355050358314171
 21
-14.7349231551828304
 31
0.0
  0
LINE
  5
865
  8
0
  6
CONTINUOUS
 10
-15.0355050358284998
 20
-14.7349231551828304
 30
0.0
 11
-15.0749999999970896
 21
-14.7165063509324607
 31
0.0
  0
LINE
  5
866
  8
0
  6
CONTINUOUS
 10
-12.8249999999970896
 20
-14.7165063509324607
 30
0.0
 11
-12.8644949641656705
 21
-14.7349231551828304
 31
0.0
  0
LINE
  5
867
  8
0
  6
CONTINUOUS
 10
12.9065879555949099
 20
-14.7462019382394107
 30
0.0
 11
12.8644949641802206
 21
-14.7349231551828304
 31
0.0
  0
LINE
  5
868
  8
0
  6
CONTINUOUS
 10
15.0355050358430606
 20
-14.7349231551828304
 30
0.0
 11
14.9934120444283696
 21
-14.7462019382394107
 31
0.0
  0
LINE
  5
869
  8
0
  6
CONTINUOUS
 10
-1.2934120444167321
 20
-14.7462019382394107
 30
0.0
 11
-1.3355050358314171
 21
-14.7349231551828304
 31
0.0
  0
LINE
  5
86A
  8
0
  6
CONTINUOUS
 10
1.3355050358314171
 20
-14.7349231551828304
 30
0.0
 11
1.2934120444167321
 21
-14.7462019382394107
 31
0.0
  0
LINE
  5
86B
  8
0
  6
CONTINUOUS
 10
-14.9934120444138195
 20
-14.7462019382394107
 30
0.0
 11
-15.0355050358284998
 21
-14.7349231551828304
 31
0.0
  0
LINE
  5
86C
  8
0
  6
CONTINUOUS
 10
-12.8644949641656705
 20
-14.7349231551828304
 30
0.0
 11
-12.9065879555803509
 21
-14.7462019382394107
 31
0.0
  0
LINE
  5
86D
  8
0
  6
CONTINUOUS
 10
12.9500000000116398
 20
-14.7499999999863594
 30
0.0
 11
12.9065879555949099
 21
-14.7462019382394107
 31
0.0
  0
LINE
  5
86E
  8
0
  6
CONTINUOUS
 10
14.9934120444283696
 20
-14.7462019382394107
 30
0.0
 11
14.9500000000116398
 21
-14.7499999999863594
 31
0.0
  0
LINE
  5
86F
  8
0
  6
CONTINUOUS
 10
-1.25
 20
-14.7499999999863594
 30
0.0
 11
-1.2934120444167321
 21
-14.7462019382394107
 31
0.0
  0
LINE
  5
870
  8
0
  6
CONTINUOUS
 10
1.2934120444167321
 20
-14.7462019382394107
 30
0.0
 11
1.25
 21
-14.7499999999863594
 31
0.0
  0
LINE
  5
871
  8
0
  6
CONTINUOUS
 10
-14.9499999999970896
 20
-14.7499999999863594
 30
0.0
 11
-14.9934120444138195
 21
-14.7462019382394107
 31
0.0
  0
LINE
  5
872
  8
0
  6
CONTINUOUS
 10
-12.9065879555803509
 20
-14.7462019382394107
 30
0.0
 11
-12.9499999999970896
 21
-14.7499999999863594
 31
0.0
  0
ENDBLK
  5
874
  8
0
 62
    32
  0
BLOCK
  8
0
 62
    32
  2
*U31
 70
     1
 10
0.0
 20
0.0
 30
0.0
  3
*U31
  1

  0
SOLID
  5
876
  8
0
  6
CONTINUOUS
 10
-25.337414184701629
 20
-23.20000000001437
 30
0.0
 11
-27.5110623623685591
 21
-23.215192247002161
 31
0.0
 12
-25.1637660070346989
 22
-23.215192247002161
 32
0.0
 13
-25.1637660070346989
 23
-23.215192247002161
 33
0.0
210
0.0
220
0.0
230
-1.0
  0
SOLID
  5
877
  8
0
  6
CONTINUOUS
 10
-25.337414184701629
 20
-23.20000000001437
 30
0.0
 11
-27.337414184701629
 21
-23.20000000001437
 31
0.0
 12
-27.5110623623685591
 22
-23.215192247002161
 32
0.0
 13
-27.5110623623685591
 23
-23.215192247002161
 33
0.0
210
0.0
220
0.0
230
-1.0
  0
SOLID
  5
878
  8
0
  6
CONTINUOUS
 10
-25.1637660070346989
 20
-23.215192247002161
 30
0.0
 11
-27.6794343280272983
 21
-23.2603073792284611
 31
0.0
 12
-24.9953940413759597
 22
-23.2603073792284611
 32
0.0
 13
-24.9953940413759597
 23
-23.2603073792284611
 33
0.0
210
0.0
220
0.0
230
-1.0
  0
SOLID
  5
879
  8
0
  6
CONTINUOUS
 10
-25.1637660070346989
 20
-23.215192247002161
 30
0.0
 11
-27.5110623623685591
 21
-23.215192247002161
 31
0.0
 12
-27.6794343280272983
 22
-23.2603073792284611
 32
0.0
 13
-27.6794343280272983
 23
-23.2603073792284611
 33
0.0
210
0.0
220
0.0
230
-1.0
  0
SOLID
  5
87A
  8
0
  6
CONTINUOUS
 10
-24.9953940413759597
 20
-23.2603073792284611
 30
0.0
 11
-27.837414184701629
 21
-23.333974596229929
 31
0.0
 12
-24.837414184701629
 22
-23.333974596229929
 32
0.0
 13
-24.837414184701629
 23
-23.333974596229929
 33
0.0
210
0.0
220
0.0
230
-1.0
  0
SOLID
  5
87B
  8
0
  6
CONTINUOUS
 10
-24.9953940413759597
 20
-23.2603073792284611
 30
0.0
 11
-27.6794343280272983
 21
-23.2603073792284611
 31
0.0
 12
-27.837414184701629
 22
-23.333974596229929
 32
0.0
 13
-27.837414184701629
 23
-23.333974596229929
 33
0.0
210
0.0
220
0.0
230
-1.0
  0
SOLID
  5
87C
  8
0
  6
CONTINUOUS
 10
-24.837414184701629
 20
-23.333974596229929
 30
0.0
 11
-27.9802017943881687
 21
-23.4339555568953912
 31
0.0
 12
-24.6946265750150893
 22
-23.4339555568953912
 32
0.0
 13
-24.6946265750150893
 23
-23.4339555568953912
 33
0.0
210
0.0
220
0.0
230
-1.0
  0
SOLID
  5
87D
  8
0
  6
CONTINUOUS
 10
-24.837414184701629
 20
-23.333974596229929
 30
0.0
 11
-27.837414184701629
 21
-23.333974596229929
 31
0.0
 12
-27.9802017943881687
 22
-23.4339555568953912
 32
0.0
 13
-27.9802017943881687
 23
-23.4339555568953912
 33
0.0
210
0.0
220
0.0
230
-1.0
  0
SOLID
  5
87E
  8
0
  6
CONTINUOUS
 10
-24.6946265750150893
 20
-23.4339555568953912
 30
0.0
 11
-28.1034586278206113
 21
-23.5572123903278303
 31
0.0
 12
-24.5713697415826502
 22
-23.5572123903278303
 32
0.0
 13
-24.5713697415826502
 23
-23.5572123903278303
 33
0.0
210
0.0
220
0.0
230
-1.0
  0
SOLID
  5
87F
  8
0
  6
CONTINUOUS
 10
-24.6946265750150893
 20
-23.4339555568953912
 30
0.0
 11
-27.9802017943881687
 21
-23.4339555568953912
 31
0.0
 12
-28.1034586278206113
 22
-23.5572123903278303
 32
0.0
 13
-28.1034586278206113
 23
-23.5572123903278303
 33
0.0
210
0.0
220
0.0
230
-1.0
  0
SOLID
  5
880
  8
0
  6
CONTINUOUS
 10
-24.5713697415826502
 20
-23.5572123903278303
 30
0.0
 11
-28.20343958848607
 21
-23.70000000001437
 31
0.0
 12
-24.4713887809171915
 22
-23.70000000001437
 32
0.0
 13
-24.4713887809171915
 23
-23.70000000001437
 33
0.0
210
0.0
220
0.0
230
-1.0
  0
SOLID
  5
881
  8
0
  6
CONTINUOUS
 10
-24.5713697415826502
 20
-23.5572123903278303
 30
0.0
 11
-28.1034586278206113
 21
-23.5572123903278303
 31
0.0
 12
-28.20343958848607
 22
-23.70000000001437
 32
0.0
 13
-28.20343958848607
 23
-23.70000000001437
 33
0.0
210
0.0
220
0.0
230
-1.0
  0
SOLID
  5
882
  8
0
  6
CONTINUOUS
 10
-24.4713887809171915
 20
-23.70000000001437
 30
0.0
 11
-28.2771068054875414
 21
-23.8579798566887007
 31
0.0
 12
-24.3977215639157201
 22
-23.8579798566887007
 32
0.0
 13
-24.3977215639157201
 23
-23.8579798566887007
 33
0.0
210
0.0
220
0.0
230
-1.0
  0
SOLID
  5
883
  8
0
  6
CONTINUOUS
 10
-24.4713887809171915
 20
-23.70000000001437
 30
0.0
 11
-28.20343958848607
 21
-23.70000000001437
 31
0.0
 12
-28.2771068054875414
 22
-23.8579798566887007
 32
0.0
 13
-28.2771068054875414
 23
-23.8579798566887007
 33
0.0
210
0.0
220
0.0
230
-1.0
  0
SOLID
  5
884
  8
0
  6
CONTINUOUS
 10
-24.3977215639157201
 20
-23.8579798566887007
 30
0.0
 11
-28.3222219377138416
 21
-24.0263518223474399
 31
0.0
 12
-24.35260643168942
 22
-24.0263518223474399
 32
0.0
 13
-24.35260643168942
 23
-24.0263518223474399
 33
0.0
210
0.0
220
0.0
230
-1.0
  0
SOLID
  5
885
  8
0
  6
CONTINUOUS
 10
-24.3977215639157201
 20
-23.8579798566887007
 30
0.0
 11
-28.2771068054875414
 21
-23.8579798566887007
 31
0.0
 12
-28.3222219377138416
 22
-24.0263518223474399
 32
0.0
 13
-28.3222219377138416
 23
-24.0263518223474399
 33
0.0
210
0.0
220
0.0
230
-1.0
  0
SOLID
  5
886
  8
0
  6
CONTINUOUS
 10
-24.35260643168942
 20
-24.0263518223474399
 30
0.0
 11
-28.337414184701629
 21
-24.20000000001437
 31
0.0
 12
-24.337414184701629
 22
-24.20000000001437
 32
0.0
 13
-24.337414184701629
 23
-24.20000000001437
 33
0.0
210
0.0
220
0.0
230
-1.0
  0
SOLID
  5
887
  8
0
  6
CONTINUOUS
 10
-24.35260643168942
 20
-24.0263518223474399
 30
0.0
 11
-28.3222219377138416
 21
-24.0263518223474399
 31
0.0
 12
-28.337414184701629
 22
-24.20000000001437
 32
0.0
 13
-28.337414184701629
 23
-24.20000000001437
 33
0.0
210
0.0
220
0.0
230
-1.0
  0
SOLID
  5
888
  8
0
  6
CONTINUOUS
 10
-24.337414184701629
 20
-24.20000000001437
 30
0.0
 11
-28.3222219377138416
 21
-24.3736481776813001
 31
0.0
 12
-24.35260643168942
 22
-24.3736481776813001
 32
0.0
 13
-24.35260643168942
 23
-24.3736481776813001
 33
0.0
210
0.0
220
0.0
230
-1.0
  0
SOLID
  5
889
  8
0
  6
CONTINUOUS
 10
-24.337414184701629
 20
-24.20000000001437
 30
0.0
 11
-28.337414184701629
 21
-24.20000000001437
 31
0.0
 12
-28.3222219377138416
 22
-24.3736481776813001
 32
0.0
 13
-28.3222219377138416
 23
-24.3736481776813001
 33
0.0
210
0.0
220
0.0
230
-1.0
  0
SOLID
  5
88A
  8
0
  6
CONTINUOUS
 10
-24.35260643168942
 20
-24.3736481776813001
 30
0.0
 11
-28.2771068054875414
 21
-24.5420201433400393
 31
0.0
 12
-24.3977215639157201
 22
-24.5420201433400393
 32
0.0
 13
-24.3977215639157201
 23
-24.5420201433400393
 33
0.0
210
0.0
220
0.0
230
-1.0
  0
SOLID
  5
88B
  8
0
  6
CONTINUOUS
 10
-24.35260643168942
 20
-24.3736481776813001
 30
0.0
 11
-28.3222219377138416
 21
-24.3736481776813001
 31
0.0
 12
-28.2771068054875414
 22
-24.5420201433400393
 32
0.0
 13
-28.2771068054875414
 23
-24.5420201433400393
 33
0.0
210
0.0
220
0.0
230
-1.0
  0
SOLID
  5
88C
  8
0
  6
CONTINUOUS
 10
-24.3977215639157201
 20
-24.5420201433400393
 30
0.0
 11
-28.20343958848607
 21
-24.70000000001437
 31
0.0
 12
-24.4713887809171915
 22
-24.70000000001437
 32
0.0
 13
-24.4713887809171915
 23
-24.70000000001437
 33
0.0
210
0.0
220
0.0
230
-1.0
  0
SOLID
  5
88D
  8
0
  6
CONTINUOUS
 10
-24.3977215639157201
 20
-24.5420201433400393
 30
0.0
 11
-28.2771068054875414
 21
-24.5420201433400393
 31
0.0
 12
-28.20343958848607
 22
-24.70000000001437
 32
0.0
 13
-28.20343958848607
 23
-24.70000000001437
 33
0.0
210
0.0
220
0.0
230
-1.0
  0
SOLID
  5
88E
  8
0
  6
CONTINUOUS
 10
-24.4713887809171915
 20
-24.70000000001437
 30
0.0
 11
-28.1034586278206113
 21
-24.8427876097009097
 31
0.0
 12
-24.5713697415826502
 22
-24.8427876097009097
 32
0.0
 13
-24.5713697415826502
 23
-24.8427876097009097
 33
0.0
210
0.0
220
0.0
230
-1.0
  0
SOLID
  5
88F
  8
0
  6
CONTINUOUS
 10
-24.4713887809171915
 20
-24.70000000001437
 30
0.0
 11
-28.20343958848607
 21
-24.70000000001437
 31
0.0
 12
-28.1034586278206113
 22
-24.8427876097009097
 32
0.0
 13
-28.1034586278206113
 23
-24.8427876097009097
 33
0.0
210
0.0
220
0.0
230
-1.0
  0
SOLID
  5
890
  8
0
  6
CONTINUOUS
 10
-24.5713697415826502
 20
-24.8427876097009097
 30
0.0
 11
-27.9802017943881687
 21
-24.9660444431333488
 31
0.0
 12
-24.6946265750150893
 22
-24.9660444431333488
 32
0.0
 13
-24.6946265750150893
 23
-24.9660444431333488
 33
0.0
210
0.0
220
0.0
230
-1.0
  0
SOLID
  5
891
  8
0
  6
CONTINUOUS
 10
-24.5713697415826502
 20
-24.8427876097009097
 30
0.0
 11
-28.1034586278206113
 21
-24.8427876097009097
 31
0.0
 12
-27.9802017943881687
 22
-24.9660444431333488
 32
0.0
 13
-27.9802017943881687
 23
-24.9660444431333488
 33
0.0
210
0.0
220
0.0
230
-1.0
  0
SOLID
  5
892
  8
0
  6
CONTINUOUS
 10
-24.6946265750150893
 20
-24.9660444431333488
 30
0.0
 11
-27.837414184701629
 21
-25.0660254037988111
 31
0.0
 12
-24.837414184701629
 22
-25.0660254037988111
 32
0.0
 13
-24.837414184701629
 23
-25.0660254037988111
 33
0.0
210
0.0
220
0.0
230
-1.0
  0
SOLID
  5
893
  8
0
  6
CONTINUOUS
 10
-24.6946265750150893
 20
-24.9660444431333488
 30
0.0
 11
-27.9802017943881687
 21
-24.9660444431333488
 31
0.0
 12
-27.837414184701629
 22
-25.0660254037988111
 32
0.0
 13
-27.837414184701629
 23
-25.0660254037988111
 33
0.0
210
0.0
220
0.0
230
-1.0
  0
SOLID
  5
894
  8
0
  6
CONTINUOUS
 10
-24.837414184701629
 20
-25.0660254037988111
 30
0.0
 11
-27.6794343280272983
 21
-25.1396926208002789
 31
0.0
 12
-24.9953940413759597
 22
-25.1396926208002789
 32
0.0
 13
-24.9953940413759597
 23
-25.1396926208002789
 33
0.0
210
0.0
220
0.0
230
-1.0
  0
SOLID
  5
895
  8
0
  6
CONTINUOUS
 10
-24.837414184701629
 20
-25.0660254037988111
 30
0.0
 11
-27.837414184701629
 21
-25.0660254037988111
 31
0.0
 12
-27.6794343280272983
 22
-25.1396926208002789
 32
0.0
 13
-27.6794343280272983
 23
-25.1396926208002789
 33
0.0
210
0.0
220
0.0
230
-1.0
  0
SOLID
  5
896
  8
0
  6
CONTINUOUS
 10
-24.9953940413759597
 20
-25.1396926208002789
 30
0.0
 11
-27.5110623623685591
 21
-25.184807753026579
 31
0.0
 12
-25.1637660070346989
 22
-25.184807753026579
 32
0.0
 13
-25.1637660070346989
 23
-25.184807753026579
 33
0.0
210
0.0
220
0.0
230
-1.0
  0
SOLID
  5
897
  8
0
  6
CONTINUOUS
 10
-24.9953940413759597
 20
-25.1396926208002789
 30
0.0
 11
-27.6794343280272983
 21
-25.1396926208002789
 31
0.0
 12
-27.5110623623685591
 22
-25.184807753026579
 32
0.0
 13
-27.5110623623685591
 23
-25.184807753026579
 33
0.0
210
0.0
220
0.0
230
-1.0
  0
SOLID
  5
898
  8
0
  6
CONTINUOUS
 10
-25.1637660070346989
 20
-25.184807753026579
 30
0.0
 11
-27.337414184701629
 21
-25.20000000001437
 31
0.0
 12
-25.337414184701629
 22
-25.20000000001437
 32
0.0
 13
-25.337414184701629
 23
-25.20000000001437
 33
0.0
210
0.0
220
0.0
230
-1.0
  0
SOLID
  5
899
  8
0
  6
CONTINUOUS
 10
-25.1637660070346989
 20
-25.184807753026579
 30
0.0
 11
-27.5110623623685591
 21
-25.184807753026579
 31
0.0
 12
-27.337414184701629
 22
-25.20000000001437
 32
0.0
 13
-27.337414184701629
 23
-25.20000000001437
 33
0.0
210
0.0
220
0.0
230
-1.0
  0
LINE
  5
89A
  8
0
  6
CONTINUOUS
 10
25.1637660070346989
 20
-23.215192247002161
 30
0.0
 11
25.337414184701629
 21
-23.20000000001437
 31
0.0
  0
LINE
  5
89B
  8
0
  6
CONTINUOUS
 10
27.337414184701629
 20
-23.20000000001437
 30
0.0
 11
27.5110623623685591
 21
-23.215192247002161
 31
0.0
  0
LINE
  5
89C
  8
0
  6
CONTINUOUS
 10
24.9953940413759597
 20
-23.2603073792284611
 30
0.0
 11
25.1637660070346989
 21
-23.215192247002161
 31
0.0
  0
LINE
  5
89D
  8
0
  6
CONTINUOUS
 10
27.5110623623685591
 20
-23.215192247002161
 30
0.0
 11
27.6794343280272983
 21
-23.2603073792284611
 31
0.0
  0
LINE
  5
89E
  8
0
  6
CONTINUOUS
 10
24.837414184701629
 20
-23.333974596229929
 30
0.0
 11
24.9953940413759597
 21
-23.2603073792284611
 31
0.0
  0
LINE
  5
89F
  8
0
  6
CONTINUOUS
 10
27.6794343280272983
 20
-23.2603073792284611
 30
0.0
 11
27.837414184701629
 21
-23.333974596229929
 31
0.0
  0
LINE
  5
8A0
  8
0
  6
CONTINUOUS
 10
24.6946265750150893
 20
-23.4339555568953912
 30
0.0
 11
24.837414184701629
 21
-23.333974596229929
 31
0.0
  0
LINE
  5
8A1
  8
0
  6
CONTINUOUS
 10
27.837414184701629
 20
-23.333974596229929
 30
0.0
 11
27.9802017943881687
 21
-23.4339555568953912
 31
0.0
  0
LINE
  5
8A2
  8
0
  6
CONTINUOUS
 10
24.5713697415826502
 20
-23.5572123903278303
 30
0.0
 11
24.6946265750150893
 21
-23.4339555568953912
 31
0.0
  0
LINE
  5
8A3
  8
0
  6
CONTINUOUS
 10
27.9802017943881687
 20
-23.4339555568953912
 30
0.0
 11
28.1034586278206113
 21
-23.5572123903278303
 31
0.0
  0
LINE
  5
8A4
  8
0
  6
CONTINUOUS
 10
24.4713887809171915
 20
-23.70000000001437
 30
0.0
 11
24.5713697415826502
 21
-23.5572123903278303
 31
0.0
  0
LINE
  5
8A5
  8
0
  6
CONTINUOUS
 10
28.1034586278206113
 20
-23.5572123903278303
 30
0.0
 11
28.20343958848607
 21
-23.70000000001437
 31
0.0
  0
LINE
  5
8A6
  8
0
  6
CONTINUOUS
 10
24.3977215639157201
 20
-23.8579798566887007
 30
0.0
 11
24.4713887809171915
 21
-23.70000000001437
 31
0.0
  0
LINE
  5
8A7
  8
0
  6
CONTINUOUS
 10
28.20343958848607
 20
-23.70000000001437
 30
0.0
 11
28.2771068054875414
 21
-23.8579798566887007
 31
0.0
  0
LINE
  5
8A8
  8
0
  6
CONTINUOUS
 10
24.35260643168942
 20
-24.0263518223474399
 30
0.0
 11
24.3977215639157201
 21
-23.8579798566887007
 31
0.0
  0
LINE
  5
8A9
  8
0
  6
CONTINUOUS
 10
28.2771068054875414
 20
-23.8579798566887007
 30
0.0
 11
28.3222219377138416
 21
-24.0263518223474399
 31
0.0
  0
LINE
  5
8AA
  8
0
  6
CONTINUOUS
 10
24.337414184701629
 20
-24.20000000001437
 30
0.0
 11
24.35260643168942
 21
-24.0263518223474399
 31
0.0
  0
LINE
  5
8AB
  8
0
  6
CONTINUOUS
 10
28.3222219377138416
 20
-24.0263518223474399
 30
0.0
 11
28.337414184701629
 21
-24.20000000001437
 31
0.0
  0
LINE
  5
8AC
  8
0
  6
CONTINUOUS
 10
24.35260643168942
 20
-24.3736481776813001
 30
0.0
 11
24.337414184701629
 21
-24.20000000001437
 31
0.0
  0
LINE
  5
8AD
  8
0
  6
CONTINUOUS
 10
28.337414184701629
 20
-24.20000000001437
 30
0.0
 11
28.3222219377138416
 21
-24.3736481776813001
 31
0.0
  0
LINE
  5
8AE
  8
0
  6
CONTINUOUS
 10
24.3977215639157201
 20
-24.5420201433400393
 30
0.0
 11
24.35260643168942
 21
-24.3736481776813001
 31
0.0
  0
LINE
  5
8AF
  8
0
  6
CONTINUOUS
 10
28.3222219377138416
 20
-24.3736481776813001
 30
0.0
 11
28.2771068054875414
 21
-24.5420201433400393
 31
0.0
  0
LINE
  5
8B0
  8
0
  6
CONTINUOUS
 10
24.4713887809171915
 20
-24.70000000001437
 30
0.0
 11
24.3977215639157201
 21
-24.5420201433400393
 31
0.0
  0
LINE
  5
8B1
  8
0
  6
CONTINUOUS
 10
28.2771068054875414
 20
-24.5420201433400393
 30
0.0
 11
28.20343958848607
 21
-24.70000000001437
 31
0.0
  0
LINE
  5
8B2
  8
0
  6
CONTINUOUS
 10
24.5713697415826502
 20
-24.8427876097009097
 30
0.0
 11
24.4713887809171915
 21
-24.70000000001437
 31
0.0
  0
LINE
  5
8B3
  8
0
  6
CONTINUOUS
 10
28.20343958848607
 20
-24.70000000001437
 30
0.0
 11
28.1034586278206113
 21
-24.8427876097009097
 31
0.0
  0
LINE
  5
8B4
  8
0
  6
CONTINUOUS
 10
24.6946265750150893
 20
-24.9660444431333488
 30
0.0
 11
24.5713697415826502
 21
-24.8427876097009097
 31
0.0
  0
LINE
  5
8B5
  8
0
  6
CONTINUOUS
 10
28.1034586278206113
 20
-24.8427876097009097
 30
0.0
 11
27.9802017943881687
 21
-24.9660444431333488
 31
0.0
  0
LINE
  5
8B6
  8
0
  6
CONTINUOUS
 10
24.837414184701629
 20
-25.0660254037988111
 30
0.0
 11
24.6946265750150893
 21
-24.9660444431333488
 31
0.0
  0
LINE
  5
8B7
  8
0
  6
CONTINUOUS
 10
27.9802017943881687
 20
-24.9660444431333488
 30
0.0
 11
27.837414184701629
 21
-25.0660254037988111
 31
0.0
  0
LINE
  5
8B8
  8
0
  6
CONTINUOUS
 10
24.9953940413759597
 20
-25.1396926208002789
 30
0.0
 11
24.837414184701629
 21
-25.0660254037988111
 31
0.0
  0
LINE
  5
8B9
  8
0
  6
CONTINUOUS
 10
27.837414184701629
 20
-25.0660254037988111
 30
0.0
 11
27.6794343280272983
 21
-25.1396926208002789
 31
0.0
  0
LINE
  5
8BA
  8
0
  6
CONTINUOUS
 10
25.1637660070346989
 20
-25.184807753026579
 30
0.0
 11
24.9953940413759597
 21
-25.1396926208002789
 31
0.0
  0
LINE
  5
8BB
  8
0
  6
CONTINUOUS
 10
27.6794343280272983
 20
-25.1396926208002789
 30
0.0
 11
27.5110623623685591
 21
-25.184807753026579
 31
0.0
  0
LINE
  5
8BC
  8
0
  6
CONTINUOUS
 10
25.337414184701629
 20
-25.20000000001437
 30
0.0
 11
25.1637660070346989
 21
-25.184807753026579
 31
0.0
  0
LINE
  5
8BD
  8
0
  6
CONTINUOUS
 10
27.5110623623685591
 20
-25.184807753026579
 30
0.0
 11
27.337414184701629
 21
-25.20000000001437
 31
0.0
  0
ENDBLK
  5
8BF
  8
0
 62
    32
  0
BLOCK
  8
0
 62
    32
  2
*U32
 70
     1
 10
0.0
 20
0.0
 30
0.0
  3
*U32
  1

  0
SOLID
  5
A2E
  8
0
  6
CONTINUOUS
 62
     2
 10
-19.0000000000004512
 20
-12.0000000000001101
 30
0.0
 11
-21.0000000000004512
 21
-15.0000000000001101
 31
0.0
 12
-19.0000000000004512
 22
-15.0000000000001101
 32
0.0
 13
-19.0000000000004512
 23
-15.0000000000001101
 33
0.0
210
0.0
220
0.0
230
-1.0
  0
SOLID
  5
A2F
  8
0
  6
CONTINUOUS
 62
     2
 10
-19.0000000000004512
 20
-12.0000000000001101
 30
0.0
 11
-21.0000000000004512
 21
-12.0000000000001101
 31
0.0
 12
-21.0000000000004512
 22
-15.0000000000001101
 32
0.0
 13
-21.0000000000004512
 23
-15.0000000000001101
 33
0.0
210
0.0
220
0.0
230
-1.0
  0
SOLID
  5
A30
  8
0
  6
CONTINUOUS
 62
     2
 10
7.5999999999980901
 20
-12.0000000000001101
 30
0.0
 11
5.5999999999980901
 21
-15.0000000000001101
 31
0.0
 12
7.5999999999980901
 22
-15.0000000000001101
 32
0.0
 13
7.5999999999980901
 23
-15.0000000000001101
 33
0.0
210
0.0
220
0.0
230
-1.0
  0
SOLID
  5
A31
  8
0
  6
CONTINUOUS
 62
     2
 10
7.5999999999980901
 20
-12.0000000000001101
 30
0.0
 11
5.5999999999980901
 21
-12.0000000000001101
 31
0.0
 12
5.5999999999980901
 22
-15.0000000000001101
 32
0.0
 13
5.5999999999980901
 23
-15.0000000000001101
 33
0.0
210
0.0
220
0.0
230
-1.0
  0
SOLID
  5
A32
  8
0
  6
CONTINUOUS
 62
     2
 10
-18.0000000000004512
 20
-15.0000000000001101
 30
0.0
 11
-21.0000000000004512
 21
-17.0000000000001101
 31
0.0
 12
-18.0000000000004512
 22
-17.0000000000001101
 32
0.0
 13
-18.0000000000004512
 23
-17.0000000000001101
 33
0.0
210
0.0
220
0.0
230
-1.0
  0
SOLID
  5
A33
  8
0
  6
CONTINUOUS
 62
     2
 10
-18.0000000000004512
 20
-15.0000000000001101
 30
0.0
 11
-21.0000000000004512
 21
-15.0000000000001101
 31
0.0
 12
-21.0000000000004512
 22
-17.0000000000001101
 32
0.0
 13
-21.0000000000004512
 23
-17.0000000000001101
 33
0.0
210
0.0
220
0.0
230
-1.0
  0
SOLID
  5
A34
  8
0
  6
CONTINUOUS
 62
     2
 10
7.5999999999980901
 20
-15.0000000000001101
 30
0.0
 11
4.5999999999980901
 21
-17.0000000000001101
 31
0.0
 12
7.5999999999980901
 22
-17.0000000000001101
 32
0.0
 13
7.5999999999980901
 23
-17.0000000000001101
 33
0.0
210
0.0
220
0.0
230
-1.0
  0
SOLID
  5
A35
  8
0
  6
CONTINUOUS
 62
     2
 10
7.5999999999980901
 20
-15.0000000000001101
 30
0.0
 11
4.5999999999980901
 21
-15.0000000000001101
 31
0.0
 12
4.5999999999980901
 22
-17.0000000000001101
 32
0.0
 13
4.5999999999980901
 23
-17.0000000000001101
 33
0.0
210
0.0
220
0.0
230
-1.0
  0
LINE
  5
A36
  8
0
  6
CONTINUOUS
 62
     2
 10
19.0000000000004512
 20
-15.0000000000001101
 30
0.0
 11
19.0000000000004512
 21
-12.0000000000001101
 31
0.0
  0
LINE
  5
A37
  8
0
  6
CONTINUOUS
 62
     2
 10
21.0000000000004512
 20
-12.0000000000001101
 30
0.0
 11
21.0000000000004512
 21
-15.0000000000001101
 31
0.0
  0
LINE
  5
A38
  8
0
  6
CONTINUOUS
 62
     2
 10
-7.5999999999980901
 20
-15.0000000000001101
 30
0.0
 11
-7.5999999999980901
 21
-12.0000000000001101
 31
0.0
  0
LINE
  5
A39
  8
0
  6
CONTINUOUS
 62
     2
 10
-5.5999999999980901
 20
-12.0000000000001101
 30
0.0
 11
-5.5999999999980901
 21
-15.0000000000001101
 31
0.0
  0
LINE
  5
A3A
  8
0
  6
CONTINUOUS
 62
     2
 10
18.0000000000004512
 20
-17.0000000000001101
 30
0.0
 11
18.0000000000004512
 21
-15.0000000000001101
 31
0.0
  0
LINE
  5
A3B
  8
0
  6
CONTINUOUS
 62
     2
 10
21.0000000000004512
 20
-15.0000000000001101
 30
0.0
 11
21.0000000000004512
 21
-17.0000000000001101
 31
0.0
  0
LINE
  5
A3C
  8
0
  6
CONTINUOUS
 62
     2
 10
-7.5999999999980901
 20
-17.0000000000001101
 30
0.0
 11
-7.5999999999980901
 21
-15.0000000000001101
 31
0.0
  0
LINE
  5
A3D
  8
0
  6
CONTINUOUS
 62
     2
 10
-4.5999999999980901
 20
-15.0000000000001101
 30
0.0
 11
-4.5999999999980901
 21
-17.0000000000001101
 31
0.0
  0
ENDBLK
  5
A3F
  8
0
 62
    32
  0
BLOCK
  8
0
 62
    32
  2
*U33
 70
     1
 10
0.0
 20
0.0
 30
0.0
  3
*U33
  1

  0
SOLID
  5
A41
  8
0
  6
CONTINUOUS
 62
     2
 10
-46.7322799281832815
 20
-52.583176317119019
 30
0.0
 11
-48.1463059825293911
 21
-53.9973273722116005
 31
0.0
 12
-45.3180038612922473
 22
-53.9973273722116005
 32
0.0
 13
-45.3180038612922473
 23
-53.9973273722116005
 33
0.0
210
0.0
220
0.0
230
-1.0
  0
SOLID
  5
A42
  8
0
  6
CONTINUOUS
 62
     2
 10
-45.3181288620405596
 20
-53.9974523840100531
 30
0.0
 11
-48.1464309832777033
 21
-53.9974523840100531
 31
0.0
 12
-46.732154916383017
 22
-55.4116034391026417
 32
0.0
 13
-46.732154916383017
 23
-55.4116034391026417
 33
0.0
210
0.0
220
0.0
230
-1.0
  0
SOLID
  5
A43
  8
0
  6
CONTINUOUS
 62
     2
 10
-45.3180038612922473
 20
-53.9973273722116005
 30
0.0
 11
-48.1464309832777033
 21
-53.9974523840100531
 31
0.0
 12
-45.3181288620405596
 22
-53.9974523840100531
 32
0.0
 13
-45.3181288620405596
 23
-53.9974523840100531
 33
0.0
210
0.0
220
0.0
230
-1.0
  0
SOLID
  5
A44
  8
0
  6
CONTINUOUS
 62
     2
 10
-45.3180038612922473
 20
-53.9973273722116005
 30
0.0
 11
-48.1463059825293911
 21
-53.9973273722116005
 31
0.0
 12
-48.1464309832777033
 22
-53.9974523840100531
 32
0.0
 13
-48.1464309832777033
 23
-53.9974523840100531
 33
0.0
210
0.0
220
0.0
230
-1.0
  0
LINE
  5
A45
  8
0
  6
CONTINUOUS
 62
     2
 10
46.7322799281832815
 20
-52.583176317119019
 30
0.0
 11
48.1463059825293911
 21
-53.9973273722116005
 31
0.0
  0
LINE
  5
A46
  8
0
  6
CONTINUOUS
 62
     2
 10
45.3180038612922473
 20
-53.9973273722116005
 30
0.0
 11
46.7322799281832815
 21
-52.583176317119019
 31
0.0
  0
LINE
  5
A47
  8
0
  6
CONTINUOUS
 62
     2
 10
48.1464309832777033
 20
-53.9974523840100531
 30
0.0
 11
46.732154916383017
 21
-55.4116034391026417
 31
0.0
  0
LINE
  5
A48
  8
0
  6
CONTINUOUS
 62
     2
 10
46.732154916383017
 20
-55.4116034391026417
 30
0.0
 11
45.3181288620405596
 21
-53.9974523840100531
 31
0.0
  0
LINE
  5
A49
  8
0
  6
CONTINUOUS
 62
     2
 10
45.3181288620405596
 20
-53.9974523840100531
 30
0.0
 11
45.3180038612922473
 21
-53.9973273722116005
 31
0.0
  0
LINE
  5
A4A
  8
0
  6
CONTINUOUS
 62
     2
 10
48.1463059825293911
 20
-53.9973273722116005
 30
0.0
 11
48.1464309832777033
 21
-53.9974523840100531
 31
0.0
  0
ENDBLK
  5
A4C
  8
0
 62
    32
  0
ENDSEC
  0
SECTION
  2
ENTITIES
  0
POLYLINE
  5
6C8
  8
0
 62
    32
 66
     1
 10
0.0
 20
0.0
 30
0.0
 70
     1
  0
VERTEX
  5
A50
  8
0
 62
    32
 10
75.7380558005688727
 20
68.0812034717086476
 30
0.0
 42
0.4142135623730951
  0
VERTEX
  5
A51
  8
0
 62
    32
 10
75.4880558005688727
 20
68.3312034717086476
 30
0.0
  0
VERTEX
  5
A52
  8
0
 62
    32
 10
59.9380558005805071
 20
68.3312034717086476
 30
0.0
  0
VERTEX
  5
A53
  8
0
 62
    32
 10
59.4380558005805071
 20
67.8312034717086334
 30
0.0
  0
VERTEX
  5
A54
  8
0
 62
    32
 10
58.9380558005805071
 20
68.3312034717086476
 30
0.0
  0
VERTEX
  5
A55
  8
0
 62
    32
 10
57.0380558005764371
 20
68.3312034717086476
 30
0.0
 42
0.4142135623730951
  0
VERTEX
  5
A56
  8
0
 62
    32
 10
56.9380558005805071
 20
68.2312034717127176
 30
0.0
  0
VERTEX
  5
A57
  8
0
 62
    32
 10
56.938055800609618
 20
65.1312034717086448
 30
0.0
 42
0.4142135623729893
  0
VERTEX
  5
A58
  8
0
 62
    32
 10
57.2380558006096294
 20
64.8312034717085339
 30
0.0
  0
VERTEX
  5
A59
  8
0
 62
    32
 10
61.9380558005805071
 20
64.8312034717068144
 30
0.0
  0
VERTEX
  5
A5A
  8
0
 62
    32
 10
61.9380558005805071
 20
65.8312034717086476
 30
0.0
  0
VERTEX
  5
A5B
  8
0
 62
    32
 10
72.7380558005688727
 20
65.8312034717086476
 30
0.0
 42
-0.4142135623730951
  0
VERTEX
  5
A5C
  8
0
 62
    32
 10
73.2380558005688727
 20
65.3312034717086334
 30
0.0
  0
VERTEX
  5
A5D
  8
0
 62
    32
 10
73.2380558005688727
 20
51.5812034717086405
 30
0.0
 42
0.4142135623730951
  0
VERTEX
  5
A5E
  8
0
 62
    32
 10
73.4880558005688727
 20
51.3312034717086476
 30
0.0
  0
VERTEX
  5
A5F
  8
0
 62
    32
 10
75.4880558005688727
 20
51.3312034717086476
 30
0.0
 42
0.4142135623723542
  0
VERTEX
  5
A60
  8
0
 62
    32
 10
75.7380558005688727
 20
51.5812034717080081
 30
0.0
  0
VERTEX
  5
A61
  8
0
 62
    32
 10
75.7380558005834246
 20
57.3312034717099124
 30
0.0
 42
-0.4142135623723542
  0
VERTEX
  5
A62
  8
0
 62
    32
 10
76.2380558005834246
 20
57.8312034717086405
 30
0.0
  0
VERTEX
  5
A63
  8
0
 62
    32
 10
86.4380558005805142
 20
57.8312034717086405
 30
0.0
 42
-0.4142135623730951
  0
VERTEX
  5
A64
  8
0
 62
    32
 10
86.9380558005805142
 20
57.3312034717086405
 30
0.0
  0
VERTEX
  5
A65
  8
0
 62
    32
 10
86.9380558005805142
 20
51.5812034717086405
 30
0.0
 42
0.4142135623730951
  0
VERTEX
  5
A66
  8
0
 62
    32
 10
87.1880558005805142
 20
51.3312034717086476
 30
0.0
  0
VERTEX
  5
A67
  8
0
 62
    32
 10
89.6880558005805142
 20
51.3312034717086476
 30
0.0
 42
0.4142135623730951
  0
VERTEX
  5
A68
  8
0
 62
    32
 10
89.9380558005805142
 20
51.5812034717086405
 30
0.0
  0
VERTEX
  5
A69
  8
0
 62
    32
 10
89.9380558005805142
 20
57.3312034717086405
 30
0.0
 42
-0.4142135623730951
  0
VERTEX
  5
A6A
  8
0
 62
    32
 10
90.4380558005805142
 20
57.8312034717086405
 30
0.0
  0
VERTEX
  5
A6B
  8
0
 62
    32
 10
100.6380558005776038
 20
57.8312034717086405
 30
0.0
 42
-0.4142135623730951
  0
VERTEX
  5
A6C
  8
0
 62
    32
 10
101.1380558005776038
 20
57.3312034717086405
 30
0.0
  0
VERTEX
  5
A6D
  8
0
 62
    32
 10
101.1380558005776038
 20
51.5812034717086405
 30
0.0
 42
0.4142135623730951
  0
VERTEX
  5
A6E
  8
0
 62
    32
 10
101.3880558005776038
 20
51.3312034717086476
 30
0.0
  0
VERTEX
  5
A6F
  8
0
 62
    32
 10
103.3880558005776038
 20
51.3312034717086476
 30
0.0
 42
0.4142135623730951
  0
VERTEX
  5
A70
  8
0
 62
    32
 10
103.6380558005776038
 20
51.5812034717086405
 30
0.0
  0
VERTEX
  5
A71
  8
0
 62
    32
 10
103.6380558005776038
 20
65.3312034717086334
 30
0.0
 42
-0.4142135623730951
  0
VERTEX
  5
A72
  8
0
 62
    32
 10
104.1380558005776038
 20
65.8312034717086476
 30
0.0
  0
VERTEX
  5
A73
  8
0
 62
    32
 10
118.3380558005746934
 20
65.8312034717086476
 30
0.0
  0
VERTEX
  5
A74
  8
0
 62
    32
 10
118.3380558005746934
 20
62.4312034717099209
 30
0.0
  0
VERTEX
  5
A75
  8
0
 62
    32
 10
127.9380558005805
 20
62.4312034717099209
 30
0.0
  0
VERTEX
  5
A76
  8
0
 62
    32
 10
127.9380558005805
 20
64.4312034717099209
 30
0.0
  0
VERTEX
  5
A77
  8
0
 62
    32
 10
122.9380558005805
 20
64.4312034717099209
 30
0.0
  0
VERTEX
  5
A78
  8
0
 62
    32
 10
122.9380558005805
 20
68.3312034717086476
 30
0.0
  0
VERTEX
  5
A79
  8
0
 62
    32
 10
101.6380558005776038
 20
68.3312034717086476
 30
0.0
 42
0.4142135623730951
  0
VERTEX
  5
A7A
  8
0
 62
    32
 10
101.1380558005776038
 20
67.8312034717086334
 30
0.0
  0
VERTEX
  5
A7B
  8
0
 62
    32
 10
101.1380558005776038
 20
60.8312034717086476
 30
0.0
 42
-0.4142135623730951
  0
VERTEX
  5
A7C
  8
0
 62
    32
 10
100.6380558005776038
 20
60.3312034717086405
 30
0.0
  0
VERTEX
  5
A7D
  8
0
 62
    32
 10
96.8880558005776038
 20
60.3312034717086405
 30
0.0
  0
VERTEX
  5
A7E
  8
0
 62
    32
 10
96.3880558005776038
 20
59.8312034717086405
 30
0.0
  0
VERTEX
  5
A7F
  8
0
 62
    32
 10
95.8880558005776038
 20
60.3312034717086405
 30
0.0
  0
VERTEX
  5
A80
  8
0
 62
    32
 10
92.3443827677504743
 20
60.3312034717086405
 30
0.0
 42
-0.355092827601457
  0
VERTEX
  5
A81
  8
0
 62
    32
 10
91.8549520319793942
 20
60.7289412847248329
 30
0.0
  0
VERTEX
  5
A82
  8
0
 62
    32
 10
90.6404941115188763
 20
66.5413833131544266
 30
0.0
 42
0.8126539343500029
  0
VERTEX
  5
A83
  8
0
 62
    32
 10
86.2356174896278134
 20
66.5413833131544976
 30
0.0
  0
VERTEX
  5
A84
  8
0
 62
    32
 10
85.0211595691655759
 20
60.7289412847176067
 30
0.0
 42
-0.3550928276014467
  0
VERTEX
  5
A85
  8
0
 62
    32
 10
84.5317288334033776
 20
60.3312034717086405
 30
0.0
  0
VERTEX
  5
A86
  8
0
 62
    32
 10
80.9880558005688869
 20
60.3312034717086405
 30
0.0
  0
VERTEX
  5
A87
  8
0
 62
    32
 10
80.4880558005688727
 20
59.8312034717086405
 30
0.0
  0
VERTEX
  5
A88
  8
0
 62
    32
 10
79.9880558005688727
 20
60.3312034717086405
 30
0.0
  0
VERTEX
  5
A89
  8
0
 62
    32
 10
76.2380558005688727
 20
60.3312034717086405
 30
0.0
 42
-0.4142135623730951
  0
VERTEX
  5
A8A
  8
0
 62
    32
 10
75.7380558005688727
 20
60.8312034717086476
 30
0.0
  0
SEQEND
  5
A8B
  8
0
 62
    32
  0
POLYLINE
  5
73B
  8
0
 62
    32
 66
     1
 10
0.0
 20
0.0
 30
0.0
 70
     1
  0
VERTEX
  5
A8C
  8
0
 62
    32
 10
54.5604100870787505
 20
65.6235628620598419
 30
0.0
 42
-0.4931454260312844
  0
VERTEX
  5
A8D
  8
0
 62
    32
 10
54.9380558006096109
 20
65.3337851141730255
 30
0.0
  0
VERTEX
  5
A8E
  8
0
 62
    32
 10
54.9380558006096109
 20
63.1312034717157928
 30
0.0
 42
0.4142135623728051
  0
VERTEX
  5
A8F
  8
0
 62
    32
 10
55.2380558006095299
 20
62.8312034717155825
 30
0.0
  0
VERTEX
  5
A90
  8
0
 62
    32
 10
62.2380558006082509
 20
62.8312034717087613
 30
0.0
 42
-0.4142135623728023
  0
VERTEX
  5
A91
  8
0
 62
    32
 10
62.5380558006081628
 20
62.531203471708551
 30
0.0
  0
VERTEX
  5
A92
  8
0
 62
    32
 10
62.5380558006081628
 20
53.6312034717086021
 30
0.0
 42
-0.4142135623730937
  0
VERTEX
  5
A93
  8
0
 62
    32
 10
62.2380558006080875
 20
53.3312034717085268
 30
0.0
  0
VERTEX
  5
A94
  8
0
 62
    32
 10
61.838055800608231
 20
53.3312034717085268
 30
0.0
 42
0.4142135623730939
  0
VERTEX
  5
A95
  8
0
 62
    32
 10
61.5380558006081628
 20
53.0312034717084586
 30
0.0
  0
VERTEX
  5
A96
  8
0
 62
    32
 10
61.5380558006081628
 20
51.6312034717086021
 30
0.0
 42
0.4142135623730937
  0
VERTEX
  5
A97
  8
0
 62
    32
 10
61.838055800608231
 20
51.3312034717085268
 30
0.0
  0
VERTEX
  5
A98
  8
0
 62
    32
 10
64.2380558006080946
 20
51.3312034717085268
 30
0.0
 42
0.4142135623730939
  0
VERTEX
  5
A99
  8
0
 62
    32
 10
64.5380558006081628
 20
51.6312034717086021
 30
0.0
  0
VERTEX
  5
A9A
  8
0
 62
    32
 10
64.5380558006081628
 20
65.2812034717084657
 30
0.0
 42
0.414213562373093
  0
VERTEX
  5
A9B
  8
0
 62
    32
 10
64.2380558006080946
 20
65.5812034717085339
 30
0.0
  0
VERTEX
  5
A9C
  8
0
 62
    32
 10
62.8704735548383908
 20
65.5794468106294062
 30
0.0
 42
0.5515249527476268
  0
VERTEX
  5
A9D
  8
0
 62
    32
 10
62.5290985506515682
 20
65.2039641592184154
 30
0.0
 42
-0.4879283649274428
  0
VERTEX
  5
A9E
  8
0
 62
    32
 10
62.2380558006080378
 20
64.8312034717067149
 30
0.0
  0
VERTEX
  5
A9F
  8
0
 62
    32
 10
57.2380558006097999
 20
64.8312034717085339
 30
0.0
  0
VERTEX
  5
AA0
  8
0
 62
    32
 10
56.9380558005805
 20
64.8312034717086334
 30
0.0
  0
VERTEX
  5
AA1
  8
0
 62
    32
 10
56.938055800609618
 20
67.9402358598561307
 30
0.0
 42
0.4931454260313107
  0
VERTEX
  5
AA2
  8
0
 62
    32
 10
56.5604100870787292
 20
68.2300136077429329
 30
0.0
  0
VERTEX
  5
AA3
  8
0
 62
    32
 10
7.4204177104045073
 20
55.0629923343396825
 30
0.0
 42
0.3394542588633657
  0
VERTEX
  5
AA4
  8
0
 62
    32
 10
5.938055800609618
 20
53.1311406817615577
 30
0.0
  0
VERTEX
  5
AA5
  8
0
 62
    32
 10
5.938055800609618
 20
11.0657421419432005
 30
0.0
 42
0.6681946208518573
  0
VERTEX
  5
AA6
  8
0
 62
    32
 10
7.6451938340549779
 20
10.3586666143975297
 30
0.0
  0
VERTEX
  5
AA7
  8
0
 62
    32
 10
15.8501972106433708
 20
18.5643953181969792
 30
0.0
 42
0.1989008806290859
  0
VERTEX
  5
AA8
  8
0
 62
    32
 10
15.9380558006096198
 20
18.7765179764607701
 30
0.0
  0
VERTEX
  5
AA9
  8
0
 62
    32
 10
15.9380558006096198
 20
20.2728574286269883
 30
0.0
 42
0.414213562373093
  0
VERTEX
  5
AAA
  8
0
 62
    32
 10
15.6380558006095498
 20
20.57285742862706
 30
0.0
  0
VERTEX
  5
AAB
  8
0
 62
    32
 10
14.82377973371959
 20
20.57285742862706
 30
0.0
 42
0.5905760659685227
  0
VERTEX
  5
AAC
  8
0
 62
    32
 10
14.5700902492539601
 20
20.1127273394131407
 30
0.0
  0
VERTEX
  5
AAD
  8
0
 62
    32
 10
8.7916248173319644
 20
14.3337510876980208
 30
0.0
 42
-0.6681946208515263
  0
VERTEX
  5
AAE
  8
0
 62
    32
 10
7.9380558006096322
 20
14.6872888514712301
 30
0.0
  0
VERTEX
  5
AAF
  8
0
 62
    32
 10
7.9380558006132551
 20
52.9009425853695987
 30
0.0
 42
-0.3394542588633382
  0
VERTEX
  5
AB0
  8
0
 62
    32
 10
8.1604100870826102
 20
53.1907203332564507
 30
0.0
  0
VERTEX
  5
AB1
  8
0
 62
    32
 10
35.5604100870787434
 20
60.5325282058693688
 30
0.0
 42
-0.4931454260313127
  0
VERTEX
  5
AB2
  8
0
 62
    32
 10
35.938055800609618
 20
60.2427504579825666
 30
0.0
  0
VERTEX
  5
AB3
  8
0
 62
    32
 10
35.938055800609618
 20
51.6312034717086021
 30
0.0
 42
0.4142135623730937
  0
VERTEX
  5
AB4
  8
0
 62
    32
 10
36.2380558006096933
 20
51.3312034717085268
 30
0.0
  0
VERTEX
  5
AB5
  8
0
 62
    32
 10
38.6380558006095498
 20
51.3312034717085268
 30
0.0
 42
0.4142135623730939
  0
VERTEX
  5
AB6
  8
0
 62
    32
 10
38.938055800609618
 20
51.6312034717086021
 30
0.0
  0
VERTEX
  5
AB7
  8
0
 62
    32
 10
38.938055800609618
 20
53.0312034717090981
 30
0.0
 42
1.063912866660722
  0
VERTEX
  5
AB8
  8
0
 62
    32
 10
38.404465859477007
 20
53.3815883834082712
 30
0.0
 42
-0.5990215383385179
  0
VERTEX
  5
AB9
  8
0
 62
    32
 10
37.9380558006095967
 20
53.6312034717095827
 30
0.0
  0
VERTEX
  5
ABA
  8
0
 62
    32
 10
37.938055800609618
 20
60.9394183583030511
 30
0.0
 42
-0.339454258863385
  0
VERTEX
  5
ABB
  8
0
 62
    32
 10
38.1604100870789722
 20
61.229196106189903
 30
0.0
  0
SEQEND
  5
ABC
  8
0
 62
    32
  0
POLYLINE
  5
73C
  8
0
 62
    32
 66
     1
 10
0.0
 20
0.0
 30
0.0
 70
     1
  0
VERTEX
  5
ABD
  8
0
 62
    32
 10
258.4673125793497093
 20
51.3312034717086618
 30
0.0
  0
VERTEX
  5
ABE
  8
0
 62
    32
 10
258.4673125793497093
 20
78.3269825127785566
 30
0.0
  0
VERTEX
  5
ABF
  8
0
 62
    32
 10
254.4673125793497093
 20
78.3269825127785566
 30
0.0
  0
VERTEX
  5
AC0
  8
0
 62
    32
 10
254.4673125793497093
 20
53.3312034717086476
 30
0.0
 42
-0.4142135623730951
  0
VERTEX
  5
AC1
  8
0
 62
    32
 10
252.4673125793497093
 20
51.3312034717086476
 30
0.0
  0
VERTEX
  5
AC2
  8
0
 62
    32
 10
26.4673125793497093
 20
51.3312034717086476
 30
0.0
 42
0.4142135623730951
  0
VERTEX
  5
AC3
  8
0
 62
    32
 10
22.4673125793497093
 20
47.3312034717086405
 30
0.0
  0
VERTEX
  5
AC4
  8
0
 62
    32
 10
22.4673125793497093
 20
25.3312034717086512
 30
0.0
  0
VERTEX
  5
AC5
  8
0
 62
    32
 10
26.4673125793497093
 20
25.3312034717086512
 30
0.0
  0
VERTEX
  5
AC6
  8
0
 62
    32
 10
26.4673125793497093
 20
45.3312034717086405
 30
0.0
 42
-0.4142135623730951
  0
VERTEX
  5
AC7
  8
0
 62
    32
 10
28.4673125793497093
 20
47.3312034717086405
 30
0.0
  0
VERTEX
  5
AC8
  8
0
 62
    32
 10
254.4673125793497093
 20
47.3312034717086405
 30
0.0
 42
0.4142135623730944
  0
SEQEND
  5
AC9
  8
0
 62
    32
  0
ENDSEC
  0
EOF
