  0
SECTION
  2
HEADER
  9
$ACADVER
  1
AC1009
  9
$INSBASE
 10
0.0
 20
0.0
 30
0.0
  9
$EXTMIN
 10
17.6805652502289412
 20
22.5282098974816485
 30
0.0
  9
$EXTMAX
 10
313.6805652502288808
 20
109.2282098974787061
 30
0.0
  9
$LIMMIN
 10
0.0
 20
0.0
  9
$LIMMAX
 10
420.0
 20
297.0
  9
$ORTHOMODE
 70
     1
  9
$REGENMODE
 70
     1
  9
$FILLMODE
 70
     1
  9
$QTEXTMODE
 70
     0
  9
$MIRRTEXT
 70
     0
  9
$DRAGMODE
 70
     2
  9
$LTSCALE
 40
1.0
  9
$OSMODE
 70
    37
  9
$ATTMODE
 70
     1
  9
$TEXTSIZE
 40
2.5
  9
$TRACEWID
 40
1.0
  9
$TEXTSTYLE
  7
STANDARD
  9
$CLAYER
  8
0
  9
$CELTYPE
  6
BYLAYER
  9
$CECOLOR
 62
    32
  9
$DIMSCALE
 40
1.0
  9
$DIMASZ
 40
2.5
  9
$DIMEXO
 40
0.625
  9
$DIMDLI
 40
3.75
  9
$DIMRND
 40
0.0
  9
$DIMDLE
 40
0.0
  9
$DIMEXE
 40
1.25
  9
$DIMTP
 40
0.0
  9
$DIMTM
 40
0.0
  9
$DIMTXT
 40
2.5
  9
$DIMCEN
 40
2.5
  9
$DIMTSZ
 40
0.0
  9
$DIMTOL
 70
     0
  9
$DIMLIM
 70
     0
  9
$DIMTIH
 70
     0
  9
$DIMTOH
 70
     0
  9
$DIMSE1
 70
     0
  9
$DIMSE2
 70
     0
  9
$DIMTAD
 70
     1
  9
$DIMZIN
 70
     8
  9
$DIMBLK
  1

  9
$DIMASO
 70
     1
  9
$DIMSHO
 70
     1
  9
$DIMPOST
  1

  9
$DIMAPOST
  1

  9
$DIMALT
 70
     0
  9
$DIMALTD
 70
     3
  9
$DIMALTF
 40
0.03937007874016
  9
$DIMLFAC
 40
1.0
  9
$DIMTOFL
 70
     1
  9
$DIMTVP
 40
0.0
  9
$DIMTIX
 70
     0
  9
$DIMSOXD
 70
     0
  9
$DIMSAH
 70
     0
  9
$DIMBLK1
  1

  9
$DIMBLK2
  1

  9
$DIMSTYLE
  2
ISO-25
  9
$DIMCLRD
 70
     0
  9
$DIMCLRE
 70
     0
  9
$DIMCLRT
 70
     0
  9
$DIMTFAC
 40
1.0
  9
$DIMGAP
 40
0.625
  9
$LUNITS
 70
     2
  9
$LUPREC
 70
     4
  9
$SKETCHINC
 40
1.0
  9
$FILLETRAD
 40
0.0
  9
$AUNITS
 70
     0
  9
$AUPREC
 70
     0
  9
$MENU
  1
.
  9
$ELEVATION
 40
0.0
  9
$PELEVATION
 40
0.0
  9
$THICKNESS
 40
0.0
  9
$LIMCHECK
 70
     0
  9
$BLIPMODE
 70
     0
  9
$CHAMFERA
 40
0.0
  9
$CHAMFERB
 40
0.0
  9
$SKPOLY
 70
     0
  9
$TDCREATE
 40
2458875.8964004628360271
  9
$TDUPDATE
 40
2458875.8983449079096317
  9
$TDINDWG
 40
0.0019444444
  9
$TDUSRTIMER
 40
0.0019444444
  9
$USRTIMER
 70
     1
  9
$ANGBASE
 50
0.0
  9
$ANGDIR
 70
     0
  9
$PDMODE
 70
     0
  9
$PDSIZE
 40
0.0
  9
$PLINEWID
 40
0.0
  9
$COORDS
 70
     1
  9
$SPLFRAME
 70
     0
  9
$SPLINETYPE
 70
     6
  9
$SPLINESEGS
 70
     8
  9
$ATTDIA
 70
     1
  9
$ATTREQ
 70
     1
  9
$HANDLING
 70
     1
  9
$HANDSEED
  5
9D2
  9
$SURFTAB1
 70
     6
  9
$SURFTAB2
 70
     6
  9
$SURFTYPE
 70
     6
  9
$SURFU
 70
     6
  9
$SURFV
 70
     6
  9
$UCSNAME
  2

  9
$UCSORG
 10
0.0
 20
0.0
 30
0.0
  9
$UCSXDIR
 10
1.0
 20
0.0
 30
0.0
  9
$UCSYDIR
 10
0.0
 20
1.0
 30
0.0
  9
$PUCSNAME
  2

  9
$PUCSORG
 10
0.0
 20
0.0
 30
0.0
  9
$PUCSXDIR
 10
1.0
 20
0.0
 30
0.0
  9
$PUCSYDIR
 10
0.0
 20
1.0
 30
0.0
  9
$USERI1
 70
     0
  9
$USERI2
 70
     0
  9
$USERI3
 70
     0
  9
$USERI4
 70
     0
  9
$USERI5
 70
     0
  9
$USERR1
 40
0.0
  9
$USERR2
 40
0.0
  9
$USERR3
 40
0.0
  9
$USERR4
 40
0.0
  9
$USERR5
 40
0.0
  9
$WORLDVIEW
 70
     1
  9
$SHADEDGE
 70
     3
  9
$SHADEDIF
 70
    70
  9
$TILEMODE
 70
     1
  9
$MAXACTVP
 70
    64
  9
$PLIMCHECK
 70
     0
  9
$PEXTMIN
 10
0.0
 20
0.0
 30
0.0
  9
$PEXTMAX
 10
0.0
 20
0.0
 30
0.0
  9
$PLIMMIN
 10
0.0
 20
0.0
  9
$PLIMMAX
 10
12.0
 20
9.0
  9
$UNITMODE
 70
     0
  9
$VISRETAIN
 70
     1
  9
$PLINEGEN
 70
     0
  9
$PSLTSCALE
 70
     1
  0
ENDSEC
  0
SECTION
  2
TABLES
  0
TABLE
  2
VPORT
 70
     1
  0
VPORT
  2
*ACTIVE
 70
     0
 10
0.0
 20
0.0
 11
1.0
 21
1.0
 12
159.5700518471230112
 22
67.4764114743257721
 13
0.0
 23
0.0
 14
10.0
 24
10.0
 15
10.0
 25
10.0
 16
0.0
 26
0.0
 36
1.0
 17
0.0
 27
0.0
 37
0.0
 40
262.6167035676551222
 41
2.318681318681318
 42
50.0
 43
0.0
 44
0.0
 50
0.0
 51
0.0
 71
     0
 72
  1000
 73
     1
 74
     3
 75
     0
 76
     1
 77
     0
 78
     0
  0
ENDTAB
  0
TABLE
  2
LTYPE
 70
     3
  0
LTYPE
  2
CONTINUOUS
 70
     0
  3
Solid line
 72
    65
 73
     0
 40
0.0
  0
ENDTAB
  0
TABLE
  2
LAYER
 70
     5
  0
LAYER
  2
0
 70
     0
 62
     7
  6
CONTINUOUS
  0
ENDTAB
  0
TABLE
  2
STYLE
 70
     2
  0
STYLE
  2
STANDARD
 70
     0
 40
0.0
 41
1.0
 50
0.0
 71
     0
 42
2.5
  3
txt
  4

  0
ENDTAB
  0
TABLE
  2
VIEW
 70
     0
  0
ENDTAB
  0
TABLE
  2
UCS
 70
     0
  0
ENDTAB
  0
TABLE
  2
APPID
 70
    18
  0
APPID
  2
ACAD
 70
     0
  0
APPID
  2
ACAD_PSEXT
 70
     0
  0
APPID
  2
ACADANNOPO
 70
     0
  0
APPID
  2
ACADANNOTATIVE
 70
     0
  0
APPID
  2
ACAD_DSTYLE_DIMJAG
 70
     0
  0
APPID
  2
ACAD_DSTYLE_DIMTALN
 70
     0
  0
APPID
  2
ACAD_MLEADERVER
 70
     0
  0
APPID
  2
ACAD_NAV_VCDISPLAY
 70
     0
  0
APPID
  2
ACAECLAYERSTANDARD
 70
     0
  0
APPID
  2
ACAUTHENVIRON
 70
     0
  0
APPID
  2
ACDBDYNAMICBLOCKTRUENAME
 70
     0
  0
APPID
  2
ACDBDYNAMICBLOCKGUID
 70
     0
  0
APPID
  2
ACCMTRANSPARENCY
 70
     0
  0
APPID
  2
ACDBBLOCKREPETAG
 70
     0
  0
APPID
  2
GRADIENTCOLOR1ACI
 70
     0
  0
APPID
  2
GRADIENTCOLOR2ACI
 70
     0
  0
APPID
  2
ACDBBLOCKREPBTAG
 70
     0
  0
APPID
  2
ACAD_EXEMPT_FROM_CAD_STANDARDS
 70
     0
  0
ENDTAB
  0
TABLE
  2
DIMSTYLE
 70
     4
  0
DIMSTYLE
  2
STANDARD
 70
     0
  3

  4

  5

  6

  7

 40
1.0
 41
0.18
 42
0.0625
 43
0.38
 44
0.18
 45
0.0
 46
0.0
 47
0.0
 48
0.0
140
0.18
141
0.09
142
0.0
143
25.3999999999999986
144
1.0
145
0.0
146
1.0
147
0.09
 71
     0
 72
     0
 73
     1
 74
     1
 75
     0
 76
     0
 77
     0
 78
     0
170
     0
171
     2
172
     0
173
     0
174
     0
175
     0
176
     0
177
     0
178
     0
  0
DIMSTYLE
  2
ISO-25
 70
     0
  3

  4

  5

  6

  7

 40
1.0
 41
2.5
 42
0.625
 43
3.75
 44
1.25
 45
0.0
 46
0.0
 47
0.0
 48
0.0
140
2.5
141
2.5
142
0.0
143
0.03937007874016
144
1.0
145
0.0
146
1.0
147
0.625
 71
     0
 72
     0
 73
     0
 74
     0
 75
     0
 76
     0
 77
     1
 78
     8
170
     0
171
     3
172
     1
173
     0
174
     0
175
     0
176
     0
177
     0
178
     0
  0
ENDTAB
  0
ENDSEC
  0
SECTION
  2
BLOCKS
  0
BLOCK
  8
0
  2
$MODEL_SPACE
 70
     0
 10
0.0
 20
0.0
 30
0.0
  3
$MODEL_SPACE
  1

  0
ENDBLK
  5
21
  8
0
  0
BLOCK
 67
     1
  8
0
  2
$PAPER_SPACE
 70
     0
 10
0.0
 20
0.0
 30
0.0
  3
$PAPER_SPACE
  1

  0
ENDBLK
  5
D5
 67
     1
  8
0
  0
BLOCK
  8
0
 62
    32
  2
*U30
 70
     1
 10
0.0
 20
0.0
 30
0.0
  3
*U30
  1

  0
SOLID
  5
6B4
  8
0
  6
CONTINUOUS
 10
7.5999999999985439
 20
-8.5000000000009095
 30
0.0
 11
5.5999999999985439
 21
-11.5000000000009095
 31
0.0
 12
7.5999999999985439
 22
-11.5000000000009095
 32
0.0
 13
7.5999999999985439
 23
-11.5000000000009095
 33
0.0
210
0.0
220
0.0
230
-1.0
  0
SOLID
  5
6B5
  8
0
  6
CONTINUOUS
 10
7.5999999999985439
 20
-8.5000000000009095
 30
0.0
 11
5.5999999999985439
 21
-8.5000000000009095
 31
0.0
 12
5.5999999999985439
 22
-11.5000000000009095
 32
0.0
 13
5.5999999999985439
 23
-11.5000000000009095
 33
0.0
210
0.0
220
0.0
230
-1.0
  0
SOLID
  5
6B6
  8
0
  6
CONTINUOUS
 10
7.5999999999985439
 20
-11.5000000000009095
 30
0.0
 11
4.5999999999985439
 21
-13.5000000000009095
 31
0.0
 12
7.5999999999985439
 22
-13.5000000000009095
 32
0.0
 13
7.5999999999985439
 23
-13.5000000000009095
 33
0.0
210
0.0
220
0.0
230
-1.0
  0
SOLID
  5
6B7
  8
0
  6
CONTINUOUS
 10
7.5999999999985439
 20
-11.5000000000009095
 30
0.0
 11
4.5999999999985439
 21
-11.5000000000009095
 31
0.0
 12
4.5999999999985439
 22
-13.5000000000009095
 32
0.0
 13
4.5999999999985439
 23
-13.5000000000009095
 33
0.0
210
0.0
220
0.0
230
-1.0
  0
LINE
  5
6B8
  8
0
  6
CONTINUOUS
 10
-7.5999999999985439
 20
-11.5000000000009095
 30
0.0
 11
-7.5999999999985439
 21
-8.5000000000009095
 31
0.0
  0
LINE
  5
6B9
  8
0
  6
CONTINUOUS
 10
-5.5999999999985439
 20
-8.5000000000009095
 30
0.0
 11
-5.5999999999985439
 21
-11.5000000000009095
 31
0.0
  0
LINE
  5
6BA
  8
0
  6
CONTINUOUS
 10
-7.5999999999985439
 20
-13.5000000000009095
 30
0.0
 11
-7.5999999999985439
 21
-11.5000000000009095
 31
0.0
  0
LINE
  5
6BB
  8
0
  6
CONTINUOUS
 10
-4.5999999999985439
 20
-11.5000000000009095
 30
0.0
 11
-4.5999999999985439
 21
-13.5000000000009095
 31
0.0
  0
ENDBLK
  5
6BD
  8
0
 62
    32
  0
BLOCK
  8
0
 62
    32
  2
*U31
 70
     1
 10
0.0
 20
0.0
 30
0.0
  3
*U31
  1

  0
SOLID
  5
6BF
  8
0
  6
CONTINUOUS
 10
-73.0
 20
-8.5000000000009095
 30
0.0
 11
-75.0
 21
-11.5
 31
0.0
 12
-73.0
 22
-11.5
 32
0.0
 13
-73.0
 23
-11.5
 33
0.0
210
0.0
220
0.0
230
-1.0
  0
SOLID
  5
6C0
  8
0
  6
CONTINUOUS
 10
-73.0
 20
-8.5000000000009095
 30
0.0
 11
-75.0
 21
-8.5000000000009095
 31
0.0
 12
-75.0
 22
-11.5
 32
0.0
 13
-75.0
 23
-11.5
 33
0.0
210
0.0
220
0.0
230
-1.0
  0
SOLID
  5
6C1
  8
0
  6
CONTINUOUS
 10
-35.5
 20
-8.5000000000009095
 30
0.0
 11
-37.5
 21
-11.5
 31
0.0
 12
-35.5
 22
-11.5
 32
0.0
 13
-35.5
 23
-11.5
 33
0.0
210
0.0
220
0.0
230
-1.0
  0
SOLID
  5
6C2
  8
0
  6
CONTINUOUS
 10
-35.5
 20
-8.5000000000009095
 30
0.0
 11
-37.5
 21
-8.5000000000009095
 31
0.0
 12
-37.5
 22
-11.5
 32
0.0
 13
-37.5
 23
-11.5
 33
0.0
210
0.0
220
0.0
230
-1.0
  0
SOLID
  5
6C3
  8
0
  6
CONTINUOUS
 10
-72.0
 20
-11.5
 30
0.0
 11
-75.0
 21
-13.5
 31
0.0
 12
-72.0
 22
-13.5
 32
0.0
 13
-72.0
 23
-13.5
 33
0.0
210
0.0
220
0.0
230
-1.0
  0
SOLID
  5
6C4
  8
0
  6
CONTINUOUS
 10
-72.0
 20
-11.5
 30
0.0
 11
-75.0
 21
-11.5
 31
0.0
 12
-75.0
 22
-13.5
 32
0.0
 13
-75.0
 23
-13.5
 33
0.0
210
0.0
220
0.0
230
-1.0
  0
SOLID
  5
6C5
  8
0
  6
CONTINUOUS
 10
-34.5
 20
-11.5
 30
0.0
 11
-37.5
 21
-13.5
 31
0.0
 12
-34.5
 22
-13.5
 32
0.0
 13
-34.5
 23
-13.5
 33
0.0
210
0.0
220
0.0
230
-1.0
  0
SOLID
  5
6C6
  8
0
  6
CONTINUOUS
 10
-34.5
 20
-11.5
 30
0.0
 11
-37.5
 21
-11.5
 31
0.0
 12
-37.5
 22
-13.5
 32
0.0
 13
-37.5
 23
-13.5
 33
0.0
210
0.0
220
0.0
230
-1.0
  0
LINE
  5
6C7
  8
0
  6
CONTINUOUS
 10
73.0
 20
-11.5
 30
0.0
 11
73.0
 21
-8.5000000000009095
 31
0.0
  0
LINE
  5
6C8
  8
0
  6
CONTINUOUS
 10
75.0
 20
-8.5000000000009095
 30
0.0
 11
75.0
 21
-11.5
 31
0.0
  0
LINE
  5
6C9
  8
0
  6
CONTINUOUS
 10
35.5
 20
-11.5
 30
0.0
 11
35.5
 21
-8.5000000000009095
 31
0.0
  0
LINE
  5
6CA
  8
0
  6
CONTINUOUS
 10
37.5
 20
-8.5000000000009095
 30
0.0
 11
37.5
 21
-11.5
 31
0.0
  0
LINE
  5
6CB
  8
0
  6
CONTINUOUS
 10
72.0
 20
-13.5
 30
0.0
 11
72.0
 21
-11.5
 31
0.0
  0
LINE
  5
6CC
  8
0
  6
CONTINUOUS
 10
75.0
 20
-11.5
 30
0.0
 11
75.0
 21
-13.5
 31
0.0
  0
LINE
  5
6CD
  8
0
  6
CONTINUOUS
 10
34.5
 20
-13.5
 30
0.0
 11
34.5
 21
-11.5
 31
0.0
  0
LINE
  5
6CE
  8
0
  6
CONTINUOUS
 10
37.5
 20
-11.5
 30
0.0
 11
37.5
 21
-13.5
 31
0.0
  0
ENDBLK
  5
6D0
  8
0
 62
    32
  0
BLOCK
  8
0
 62
    32
  2
*U32
 70
     1
 10
0.0
 20
0.0
 30
0.0
  3
*U32
  1

  0
SOLID
  5
728
  8
0
  6
CONTINUOUS
 10
-8.4499999999966349
 20
-5.7499999999868123
 30
0.0
 11
-10.4500000000203705
 21
-6.2499999999836291
 31
0.0
 12
-7.9500000000116406
 22
-6.2499999999836291
 32
0.0
 13
-7.9500000000116406
 23
-6.2499999999836291
 33
0.0
210
0.0
220
0.0
230
-1.0
  0
SOLID
  5
729
  8
0
  6
CONTINUOUS
 10
-8.4499999999966349
 20
-5.7499999999868123
 30
0.0
 11
-10.4500000000261899
 21
-5.7499999999868123
 31
0.0
 12
-10.4500000000203705
 22
-6.2499999999836291
 32
0.0
 13
-10.4500000000203705
 23
-6.2499999999836291
 33
0.0
210
0.0
220
0.0
230
-1.0
  0
SOLID
  5
72A
  8
0
  6
CONTINUOUS
 10
-5.4500000000116406
 20
-5.7499999999868123
 30
0.0
 11
-7.9500000000116406
 21
-6.2499999999836291
 31
0.0
 12
-5.4500000000087301
 22
-6.2499999999836291
 32
0.0
 13
-5.4500000000087301
 23
-6.2499999999836291
 33
0.0
210
0.0
220
0.0
230
-1.0
  0
SOLID
  5
72B
  8
0
  6
CONTINUOUS
 10
-5.4500000000116406
 20
-5.7499999999868123
 30
0.0
 11
-7.4500000000120963
 21
-5.7499999999868123
 31
0.0
 12
-7.9500000000116406
 22
-6.2499999999836291
 32
0.0
 13
-7.9500000000116406
 23
-6.2499999999836291
 33
0.0
210
0.0
220
0.0
230
-1.0
  0
SOLID
  5
72C
  8
0
  6
CONTINUOUS
 10
7.4499999999970887
 20
-5.7499999999868123
 30
0.0
 11
5.4499999999970887
 21
-6.2499999999836291
 31
0.0
 12
7.9499999999879938
 22
-6.2499999999836291
 32
0.0
 13
7.9499999999879938
 23
-6.2499999999836291
 33
0.0
210
0.0
220
0.0
230
-1.0
  0
SOLID
  5
72D
  8
0
  6
CONTINUOUS
 10
7.4499999999970887
 20
-5.7499999999868123
 30
0.0
 11
5.4499999999970887
 21
-5.7499999999868123
 31
0.0
 12
5.4499999999970887
 22
-6.2499999999836291
 32
0.0
 13
5.4499999999970887
 23
-6.2499999999836291
 33
0.0
210
0.0
220
0.0
230
-1.0
  0
SOLID
  5
72E
  8
0
  6
CONTINUOUS
 10
10.4499999999970896
 20
-5.7499999999868123
 30
0.0
 11
7.9500000000098217
 21
-6.2499999999836291
 31
0.0
 12
10.4499999999970896
 22
-6.2499999999836291
 32
0.0
 13
10.4499999999970896
 23
-6.2499999999836291
 33
0.0
210
0.0
220
0.0
230
-1.0
  0
SOLID
  5
72F
  8
0
  6
CONTINUOUS
 10
10.4499999999970896
 20
-5.7499999999868123
 30
0.0
 11
8.4500000000111868
 21
-5.7499999999868123
 31
0.0
 12
7.9500000000098217
 22
-6.2499999999836291
 32
0.0
 13
7.9500000000098217
 23
-6.2499999999836291
 33
0.0
210
0.0
220
0.0
230
-1.0
  0
SOLID
  5
730
  8
0
  6
CONTINUOUS
 10
10.4499999999970896
 20
-7.217017556224163
 30
0.0
 11
10.3840351124547094
 21
-7.2829824437653761
 31
0.0
 12
10.4499999999961606
 22
-7.2829824437653761
 32
0.0
 13
10.4499999999961606
 23
-7.2829824437653761
 33
0.0
210
0.0
220
0.0
230
-1.0
  0
SOLID
  5
731
  8
0
  6
CONTINUOUS
 10
7.9499999999970887
 20
-6.2499999999836291
 30
0.0
 11
5.4499999999970887
 21
-7.217017556224163
 31
0.0
 12
7.9499999999970887
 22
-7.217017556224163
 32
0.0
 13
7.9499999999970887
 23
-7.217017556224163
 33
0.0
210
0.0
220
0.0
230
-1.0
  0
SOLID
  5
732
  8
0
  6
CONTINUOUS
 10
7.9499999999970887
 20
-6.2499999999836291
 30
0.0
 11
5.4499999999970887
 21
-6.2499999999836291
 31
0.0
 12
5.4499999999970887
 22
-7.217017556224163
 32
0.0
 13
5.4499999999970887
 23
-7.217017556224163
 33
0.0
210
0.0
220
0.0
230
-1.0
  0
SOLID
  5
733
  8
0
  6
CONTINUOUS
 10
10.4499999999970896
 20
-6.2499999999836291
 30
0.0
 11
7.9499999999970887
 21
-7.217017556224163
 31
0.0
 12
10.4499999999970896
 22
-7.217017556224163
 32
0.0
 13
10.4499999999970896
 23
-7.217017556224163
 33
0.0
210
0.0
220
0.0
230
-1.0
  0
SOLID
  5
734
  8
0
  6
CONTINUOUS
 10
10.4499999999970896
 20
-6.2499999999836291
 30
0.0
 11
7.9499999999970887
 21
-6.2499999999836291
 31
0.0
 12
7.9499999999970887
 22
-7.217017556224163
 32
0.0
 13
7.9499999999970887
 23
-7.217017556224163
 33
0.0
210
0.0
220
0.0
230
-1.0
  0
SOLID
  5
735
  8
0
  6
CONTINUOUS
 10
5.4499999999970887
 20
-7.2829824437653761
 30
0.0
 11
5.4499999999970887
 21
-8.2499999999868123
 31
0.0
 12
6.4170175562176146
 22
-8.2499999999868123
 32
0.0
 13
6.4170175562176146
 23
-8.2499999999868123
 33
0.0
210
0.0
220
0.0
230
-1.0
  0
SOLID
  5
736
  8
0
  6
CONTINUOUS
 10
7.9499999999970887
 20
-7.217017556224163
 30
0.0
 11
5.4499999999970887
 21
-7.2829824437653761
 31
0.0
 12
7.9499999999970887
 22
-7.2829824437653761
 32
0.0
 13
7.9499999999970887
 23
-7.2829824437653761
 33
0.0
210
0.0
220
0.0
230
-1.0
  0
SOLID
  5
737
  8
0
  6
CONTINUOUS
 10
7.9499999999970887
 20
-7.217017556224163
 30
0.0
 11
5.4499999999970887
 21
-7.217017556224163
 31
0.0
 12
5.4499999999970887
 22
-7.2829824437653761
 32
0.0
 13
5.4499999999970887
 23
-7.2829824437653761
 33
0.0
210
0.0
220
0.0
230
-1.0
  0
SOLID
  5
738
  8
0
  6
CONTINUOUS
 10
10.4499999999861704
 20
-7.217017556224163
 30
0.0
 11
7.9499999999970887
 21
-7.2829824437653761
 31
0.0
 12
10.3840351124445505
 22
-7.2829824437653761
 32
0.0
 13
10.3840351124445505
 23
-7.2829824437653761
 33
0.0
210
0.0
220
0.0
230
-1.0
  0
SOLID
  5
739
  8
0
  6
CONTINUOUS
 10
10.4499999999861704
 20
-7.217017556224163
 30
0.0
 11
7.9499999999970887
 21
-7.217017556224163
 31
0.0
 12
7.9499999999970887
 22
-7.2829824437653761
 32
0.0
 13
7.9499999999970887
 23
-7.2829824437653761
 33
0.0
210
0.0
220
0.0
230
-1.0
  0
SOLID
  5
73A
  8
0
  6
CONTINUOUS
 10
-5.4500000000087301
 20
-6.2499999999836291
 30
0.0
 11
-10.4499999999970896
 21
-8.2499999999868123
 31
0.0
 12
-5.4499999999970887
 22
-8.2499999999868123
 32
0.0
 13
-5.4499999999970887
 23
-8.2499999999868123
 33
0.0
210
0.0
220
0.0
230
-1.0
  0
SOLID
  5
73B
  8
0
  6
CONTINUOUS
 10
-5.4500000000087301
 20
-6.2499999999836291
 30
0.0
 11
-10.4500000000203705
 21
-6.2499999999836291
 31
0.0
 12
-10.4499999999970896
 22
-8.2499999999868123
 32
0.0
 13
-10.4499999999970896
 23
-8.2499999999868123
 33
0.0
210
0.0
220
0.0
230
-1.0
  0
SOLID
  5
73C
  8
0
  6
CONTINUOUS
 10
7.9499999999970887
 20
-7.2829824437653761
 30
0.0
 11
6.4170175562185241
 21
-8.2499999999868123
 31
0.0
 12
7.9499999999970887
 22
-8.2499999999868123
 32
0.0
 13
7.9499999999970887
 23
-8.2499999999868123
 33
0.0
210
0.0
220
0.0
230
-1.0
  0
SOLID
  5
73D
  8
0
  6
CONTINUOUS
 10
7.9499999999970887
 20
-7.2829824437653761
 30
0.0
 11
5.450000000000272
 21
-7.2829824437653761
 31
0.0
 12
6.4170175562185241
 22
-8.2499999999868123
 32
0.0
 13
6.4170175562185241
 23
-8.2499999999868123
 33
0.0
210
0.0
220
0.0
230
-1.0
  0
SOLID
  5
73E
  8
0
  6
CONTINUOUS
 10
10.3840351124445505
 20
-7.2829824437653761
 30
0.0
 11
7.9499999999970887
 21
-8.2499999999868123
 31
0.0
 12
9.4170175562162513
 22
-8.2499999999868123
 32
0.0
 13
9.4170175562162513
 23
-8.2499999999868123
 33
0.0
210
0.0
220
0.0
230
-1.0
  0
SOLID
  5
73F
  8
0
  6
CONTINUOUS
 10
10.3840351124445505
 20
-7.2829824437653761
 30
0.0
 11
7.9499999999970887
 21
-7.2829824437653761
 31
0.0
 12
7.9499999999970887
 22
-8.2499999999868123
 32
0.0
 13
7.9499999999970887
 23
-8.2499999999868123
 33
0.0
210
0.0
220
0.0
230
-1.0
  0
SOLID
  5
740
  8
0
  6
CONTINUOUS
 10
10.4499999999961606
 20
-7.2829824437653761
 30
0.0
 11
9.4170175562171607
 21
-8.2499999999868123
 31
0.0
 12
10.4499999999825306
 22
-8.2499999999868123
 32
0.0
 13
10.4499999999825306
 23
-8.2499999999868123
 33
0.0
210
0.0
220
0.0
230
-1.0
  0
SOLID
  5
741
  8
0
  6
CONTINUOUS
 10
10.4499999999961606
 20
-7.2829824437653761
 30
0.0
 11
10.3840351124547094
 21
-7.2829824437653761
 31
0.0
 12
9.4170175562171607
 22
-8.2499999999868123
 32
0.0
 13
9.4170175562171607
 23
-8.2499999999868123
 33
0.0
210
0.0
220
0.0
230
-1.0
  0
SOLID
  5
742
  8
0
  6
CONTINUOUS
 10
-12.7000000000116398
 20
-9.7499999999868123
 30
0.0
 11
-15.2000000000116398
 21
-14.4999999999863594
 31
0.0
 12
-12.7000000000116398
 22
-14.4999999999863594
 32
0.0
 13
-12.7000000000116398
 23
-14.4999999999863594
 33
0.0
210
0.0
220
0.0
230
-1.0
  0
SOLID
  5
743
  8
0
  6
CONTINUOUS
 10
-12.7000000000116398
 20
-9.7499999999868123
 30
0.0
 11
-15.2000000000261899
 21
-9.7499999999868123
 31
0.0
 12
-15.2000000000116398
 22
-14.4999999999863594
 32
0.0
 13
-15.2000000000116398
 23
-14.4999999999863594
 33
0.0
210
0.0
220
0.0
230
-1.0
  0
SOLID
  5
744
  8
0
  6
CONTINUOUS
 10
1.500000000014551
 20
-9.7499999999868123
 30
0.0
 11
-1.5
 21
-14.4999999999863594
 31
0.0
 12
1.5
 22
-14.4999999999863594
 32
0.0
 13
1.5
 23
-14.4999999999863594
 33
0.0
210
0.0
220
0.0
230
-1.0
  0
SOLID
  5
745
  8
0
  6
CONTINUOUS
 10
1.500000000014551
 20
-9.7499999999868123
 30
0.0
 11
-1.5
 21
-9.7499999999868123
 31
0.0
 12
-1.5
 22
-14.4999999999863594
 32
0.0
 13
-1.5
 23
-14.4999999999863594
 33
0.0
210
0.0
220
0.0
230
-1.0
  0
SOLID
  5
746
  8
0
  6
CONTINUOUS
 10
15.1999999999970896
 20
-9.7499999999868123
 30
0.0
 11
12.6999999999970896
 21
-14.4999999999863594
 31
0.0
 12
15.1999999999970896
 22
-14.4999999999863594
 32
0.0
 13
15.1999999999970896
 23
-14.4999999999863594
 33
0.0
210
0.0
220
0.0
230
-1.0
  0
SOLID
  5
747
  8
0
  6
CONTINUOUS
 10
15.1999999999970896
 20
-9.7499999999868123
 30
0.0
 11
12.6999999999970896
 21
-9.7499999999868123
 31
0.0
 12
12.6999999999970896
 22
-14.4999999999863594
 32
0.0
 13
12.6999999999970896
 23
-14.4999999999863594
 33
0.0
210
0.0
220
0.0
230
-1.0
  0
SOLID
  5
748
  8
0
  6
CONTINUOUS
 10
-12.7000000000116398
 20
-14.4999999999863594
 30
0.0
 11
-15.1962019382646893
 21
-14.5434120444030892
 31
0.0
 12
-12.7037980617585902
 22
-14.5434120444030892
 32
0.0
 13
-12.7037980617585902
 23
-14.5434120444030892
 33
0.0
210
0.0
220
0.0
230
-1.0
  0
SOLID
  5
749
  8
0
  6
CONTINUOUS
 10
-12.7000000000116398
 20
-14.4999999999863594
 30
0.0
 11
-15.2000000000116398
 21
-14.4999999999863594
 31
0.0
 12
-15.1962019382646893
 22
-14.5434120444030892
 32
0.0
 13
-15.1962019382646893
 23
-14.5434120444030892
 33
0.0
210
0.0
220
0.0
230
-1.0
  0
SOLID
  5
74A
  8
0
  6
CONTINUOUS
 10
1.5
 20
-14.4999999999863594
 30
0.0
 11
-1.4962019382530509
 21
-14.5434120444030892
 31
0.0
 12
1.496201938253052
 22
-14.5434120444030892
 32
0.0
 13
1.496201938253052
 23
-14.5434120444030892
 33
0.0
210
0.0
220
0.0
230
-1.0
  0
SOLID
  5
74B
  8
0
  6
CONTINUOUS
 10
1.5
 20
-14.4999999999863594
 30
0.0
 11
-1.5
 21
-14.4999999999863594
 31
0.0
 12
-1.4962019382530509
 22
-14.5434120444030892
 32
0.0
 13
-1.4962019382530509
 23
-14.5434120444030892
 33
0.0
210
0.0
220
0.0
230
-1.0
  0
SOLID
  5
74C
  8
0
  6
CONTINUOUS
 10
15.1999999999970896
 20
-14.4999999999863594
 30
0.0
 11
12.70379806174404
 21
-14.5434120444030892
 31
0.0
 12
15.1962019382501392
 22
-14.5434120444030892
 32
0.0
 13
15.1962019382501392
 23
-14.5434120444030892
 33
0.0
210
0.0
220
0.0
230
-1.0
  0
SOLID
  5
74D
  8
0
  6
CONTINUOUS
 10
15.1999999999970896
 20
-14.4999999999863594
 30
0.0
 11
12.6999999999970896
 21
-14.4999999999863594
 31
0.0
 12
12.70379806174404
 22
-14.5434120444030892
 32
0.0
 13
12.70379806174404
 23
-14.5434120444030892
 33
0.0
210
0.0
220
0.0
230
-1.0
  0
SOLID
  5
74E
  8
0
  6
CONTINUOUS
 10
-12.7037980617585902
 20
-14.5434120444030892
 30
0.0
 11
-15.1849231552081196
 21
-14.5855050358177696
 31
0.0
 12
-12.7150768448151599
 22
-14.5855050358177696
 32
0.0
 13
-12.7150768448151599
 23
-14.5855050358177696
 33
0.0
210
0.0
220
0.0
230
-1.0
  0
SOLID
  5
74F
  8
0
  6
CONTINUOUS
 10
-12.7037980617585902
 20
-14.5434120444030892
 30
0.0
 11
-15.1962019382646893
 21
-14.5434120444030892
 31
0.0
 12
-15.1849231552081196
 22
-14.5855050358177696
 32
0.0
 13
-15.1849231552081196
 23
-14.5855050358177696
 33
0.0
210
0.0
220
0.0
230
-1.0
  0
SOLID
  5
750
  8
0
  6
CONTINUOUS
 10
1.496201938253052
 20
-14.5434120444030892
 30
0.0
 11
-1.484923155196477
 21
-14.5855050358177696
 31
0.0
 12
1.484923155196477
 22
-14.5855050358177696
 32
0.0
 13
1.484923155196477
 23
-14.5855050358177696
 33
0.0
210
0.0
220
0.0
230
-1.0
  0
SOLID
  5
751
  8
0
  6
CONTINUOUS
 10
1.496201938253052
 20
-14.5434120444030892
 30
0.0
 11
-1.4962019382530509
 21
-14.5434120444030892
 31
0.0
 12
-1.484923155196477
 22
-14.5855050358177696
 32
0.0
 13
-1.484923155196477
 23
-14.5855050358177696
 33
0.0
210
0.0
220
0.0
230
-1.0
  0
SOLID
  5
752
  8
0
  6
CONTINUOUS
 10
15.1962019382501392
 20
-14.5434120444030892
 30
0.0
 11
12.7150768448006097
 21
-14.5855050358177696
 31
0.0
 12
15.1849231551935606
 22
-14.5855050358177696
 32
0.0
 13
15.1849231551935606
 23
-14.5855050358177696
 33
0.0
210
0.0
220
0.0
230
-1.0
  0
SOLID
  5
753
  8
0
  6
CONTINUOUS
 10
15.1962019382501392
 20
-14.5434120444030892
 30
0.0
 11
12.70379806174404
 21
-14.5434120444030892
 31
0.0
 12
12.7150768448006097
 22
-14.5855050358177696
 32
0.0
 13
12.7150768448006097
 23
-14.5855050358177696
 33
0.0
210
0.0
220
0.0
230
-1.0
  0
SOLID
  5
754
  8
0
  6
CONTINUOUS
 10
-12.7150768448151599
 20
-14.5855050358177696
 30
0.0
 11
-15.16650635095775
 21
-14.6249999999863594
 31
0.0
 12
-12.7334936490655295
 22
-14.6249999999863594
 32
0.0
 13
-12.7334936490655295
 23
-14.6249999999863594
 33
0.0
210
0.0
220
0.0
230
-1.0
  0
SOLID
  5
755
  8
0
  6
CONTINUOUS
 10
-12.7150768448151599
 20
-14.5855050358177696
 30
0.0
 11
-15.1849231552081196
 21
-14.5855050358177696
 31
0.0
 12
-15.16650635095775
 22
-14.6249999999863594
 32
0.0
 13
-15.16650635095775
 23
-14.6249999999863594
 33
0.0
210
0.0
220
0.0
230
-1.0
  0
SOLID
  5
756
  8
0
  6
CONTINUOUS
 10
1.484923155196477
 20
-14.5855050358177696
 30
0.0
 11
-1.4665063509461089
 21
-14.6249999999863594
 31
0.0
 12
1.4665063509461089
 22
-14.6249999999863594
 32
0.0
 13
1.4665063509461089
 23
-14.6249999999863594
 33
0.0
210
0.0
220
0.0
230
-1.0
  0
SOLID
  5
757
  8
0
  6
CONTINUOUS
 10
1.484923155196477
 20
-14.5855050358177696
 30
0.0
 11
-1.484923155196477
 21
-14.5855050358177696
 31
0.0
 12
-1.4665063509461089
 22
-14.6249999999863594
 32
0.0
 13
-1.4665063509461089
 23
-14.6249999999863594
 33
0.0
210
0.0
220
0.0
230
-1.0
  0
SOLID
  5
758
  8
0
  6
CONTINUOUS
 10
15.1849231551935606
 20
-14.5855050358177696
 30
0.0
 11
12.7334936490509794
 21
-14.6249999999863594
 31
0.0
 12
15.1665063509431999
 22
-14.6249999999863594
 32
0.0
 13
15.1665063509431999
 23
-14.6249999999863594
 33
0.0
210
0.0
220
0.0
230
-1.0
  0
SOLID
  5
759
  8
0
  6
CONTINUOUS
 10
15.1849231551935606
 20
-14.5855050358177696
 30
0.0
 11
12.7150768448006097
 21
-14.5855050358177696
 31
0.0
 12
12.7334936490509794
 22
-14.6249999999863594
 32
0.0
 13
12.7334936490509794
 23
-14.6249999999863594
 33
0.0
210
0.0
220
0.0
230
-1.0
  0
SOLID
  5
75A
  8
0
  6
CONTINUOUS
 10
-12.7334936490655295
 20
-14.6249999999863594
 30
0.0
 11
-15.1415111107913791
 21
-14.6606969024079898
 31
0.0
 12
-12.7584888892319004
 22
-14.6606969024079898
 32
0.0
 13
-12.7584888892319004
 23
-14.6606969024079898
 33
0.0
210
0.0
220
0.0
230
-1.0
  0
SOLID
  5
75B
  8
0
  6
CONTINUOUS
 10
-12.7334936490655295
 20
-14.6249999999863594
 30
0.0
 11
-15.16650635095775
 21
-14.6249999999863594
 31
0.0
 12
-15.1415111107913791
 22
-14.6606969024079898
 32
0.0
 13
-15.1415111107913791
 23
-14.6606969024079898
 33
0.0
210
0.0
220
0.0
230
-1.0
  0
SOLID
  5
75C
  8
0
  6
CONTINUOUS
 10
1.4665063509461089
 20
-14.6249999999863594
 30
0.0
 11
-1.441511110779744
 21
-14.6606969024079898
 31
0.0
 12
1.441511110779744
 22
-14.6606969024079898
 32
0.0
 13
1.441511110779744
 23
-14.6606969024079898
 33
0.0
210
0.0
220
0.0
230
-1.0
  0
SOLID
  5
75D
  8
0
  6
CONTINUOUS
 10
1.4665063509461089
 20
-14.6249999999863594
 30
0.0
 11
-1.4665063509461089
 21
-14.6249999999863594
 31
0.0
 12
-1.441511110779744
 22
-14.6606969024079898
 32
0.0
 13
-1.441511110779744
 23
-14.6606969024079898
 33
0.0
210
0.0
220
0.0
230
-1.0
  0
SOLID
  5
75E
  8
0
  6
CONTINUOUS
 10
15.1665063509431999
 20
-14.6249999999863594
 30
0.0
 11
12.7584888892173396
 21
-14.6606969024079898
 31
0.0
 12
15.1415111107768308
 22
-14.6606969024079898
 32
0.0
 13
15.1415111107768308
 23
-14.6606969024079898
 33
0.0
210
0.0
220
0.0
230
-1.0
  0
SOLID
  5
75F
  8
0
  6
CONTINUOUS
 10
15.1665063509431999
 20
-14.6249999999863594
 30
0.0
 11
12.7334936490509794
 21
-14.6249999999863594
 31
0.0
 12
12.7584888892173396
 22
-14.6606969024079898
 32
0.0
 13
12.7584888892173396
 23
-14.6606969024079898
 33
0.0
210
0.0
220
0.0
230
-1.0
  0
SOLID
  5
760
  8
0
  6
CONTINUOUS
 10
-12.7584888892319004
 20
-14.6606969024079898
 30
0.0
 11
-15.1106969024332702
 21
-14.6915111107661005
 31
0.0
 12
-12.7893030975900093
 22
-14.6915111107661005
 32
0.0
 13
-12.7893030975900093
 23
-14.6915111107661005
 33
0.0
210
0.0
220
0.0
230
-1.0
  0
SOLID
  5
761
  8
0
  6
CONTINUOUS
 10
-12.7584888892319004
 20
-14.6606969024079898
 30
0.0
 11
-15.1415111107913791
 21
-14.6606969024079898
 31
0.0
 12
-15.1106969024332702
 22
-14.6915111107661005
 32
0.0
 13
-15.1106969024332702
 23
-14.6915111107661005
 33
0.0
210
0.0
220
0.0
230
-1.0
  0
SOLID
  5
762
  8
0
  6
CONTINUOUS
 10
1.441511110779744
 20
-14.6606969024079898
 30
0.0
 11
-1.410696902421634
 21
-14.6915111107661005
 31
0.0
 12
1.410696902421634
 22
-14.6915111107661005
 32
0.0
 13
1.410696902421634
 23
-14.6915111107661005
 33
0.0
210
0.0
220
0.0
230
-1.0
  0
SOLID
  5
763
  8
0
  6
CONTINUOUS
 10
1.441511110779744
 20
-14.6606969024079898
 30
0.0
 11
-1.441511110779744
 21
-14.6606969024079898
 31
0.0
 12
-1.410696902421634
 22
-14.6915111107661005
 32
0.0
 13
-1.410696902421634
 23
-14.6915111107661005
 33
0.0
210
0.0
220
0.0
230
-1.0
  0
SOLID
  5
764
  8
0
  6
CONTINUOUS
 10
15.1415111107768308
 20
-14.6606969024079898
 30
0.0
 11
12.7893030975754503
 21
-14.6915111107661005
 31
0.0
 12
15.1106969024187201
 22
-14.6915111107661005
 32
0.0
 13
15.1106969024187201
 23
-14.6915111107661005
 33
0.0
210
0.0
220
0.0
230
-1.0
  0
SOLID
  5
765
  8
0
  6
CONTINUOUS
 10
15.1415111107768308
 20
-14.6606969024079898
 30
0.0
 11
12.7584888892173396
 21
-14.6606969024079898
 31
0.0
 12
12.7893030975754503
 22
-14.6915111107661005
 32
0.0
 13
12.7893030975754503
 23
-14.6915111107661005
 33
0.0
210
0.0
220
0.0
230
-1.0
  0
SOLID
  5
766
  8
0
  6
CONTINUOUS
 10
-12.7893030975900093
 20
-14.6915111107661005
 30
0.0
 11
-15.0750000000116398
 21
-14.7165063509324607
 31
0.0
 12
-12.8250000000116398
 22
-14.7165063509324607
 32
0.0
 13
-12.8250000000116398
 23
-14.7165063509324607
 33
0.0
210
0.0
220
0.0
230
-1.0
  0
SOLID
  5
767
  8
0
  6
CONTINUOUS
 10
-12.7893030975900093
 20
-14.6915111107661005
 30
0.0
 11
-15.1106969024332702
 21
-14.6915111107661005
 31
0.0
 12
-15.0750000000116398
 22
-14.7165063509324607
 32
0.0
 13
-15.0750000000116398
 23
-14.7165063509324607
 33
0.0
210
0.0
220
0.0
230
-1.0
  0
SOLID
  5
768
  8
0
  6
CONTINUOUS
 10
1.410696902421634
 20
-14.6915111107661005
 30
0.0
 11
-1.375
 21
-14.7165063509324607
 31
0.0
 12
1.375
 22
-14.7165063509324607
 32
0.0
 13
1.375
 23
-14.7165063509324607
 33
0.0
210
0.0
220
0.0
230
-1.0
  0
SOLID
  5
769
  8
0
  6
CONTINUOUS
 10
1.410696902421634
 20
-14.6915111107661005
 30
0.0
 11
-1.410696902421634
 21
-14.6915111107661005
 31
0.0
 12
-1.375
 22
-14.7165063509324607
 32
0.0
 13
-1.375
 23
-14.7165063509324607
 33
0.0
210
0.0
220
0.0
230
-1.0
  0
SOLID
  5
76A
  8
0
  6
CONTINUOUS
 10
15.1106969024187201
 20
-14.6915111107661005
 30
0.0
 11
12.8249999999970896
 21
-14.7165063509324607
 31
0.0
 12
15.0749999999970896
 22
-14.7165063509324607
 32
0.0
 13
15.0749999999970896
 23
-14.7165063509324607
 33
0.0
210
0.0
220
0.0
230
-1.0
  0
SOLID
  5
76B
  8
0
  6
CONTINUOUS
 10
15.1106969024187201
 20
-14.6915111107661005
 30
0.0
 11
12.7893030975754503
 21
-14.6915111107661005
 31
0.0
 12
12.8249999999970896
 22
-14.7165063509324607
 32
0.0
 13
12.8249999999970896
 23
-14.7165063509324607
 33
0.0
210
0.0
220
0.0
230
-1.0
  0
SOLID
  5
76C
  8
0
  6
CONTINUOUS
 10
-12.8250000000116398
 20
-14.7165063509324607
 30
0.0
 11
-15.0355050358430606
 21
-14.7349231551828304
 31
0.0
 12
-12.8644949641802206
 22
-14.7349231551828304
 32
0.0
 13
-12.8644949641802206
 23
-14.7349231551828304
 33
0.0
210
0.0
220
0.0
230
-1.0
  0
SOLID
  5
76D
  8
0
  6
CONTINUOUS
 10
-12.8250000000116398
 20
-14.7165063509324607
 30
0.0
 11
-15.0750000000116398
 21
-14.7165063509324607
 31
0.0
 12
-15.0355050358430606
 22
-14.7349231551828304
 32
0.0
 13
-15.0355050358430606
 23
-14.7349231551828304
 33
0.0
210
0.0
220
0.0
230
-1.0
  0
SOLID
  5
76E
  8
0
  6
CONTINUOUS
 10
1.375
 20
-14.7165063509324607
 30
0.0
 11
-1.3355050358314171
 21
-14.7349231551828304
 31
0.0
 12
1.3355050358314171
 22
-14.7349231551828304
 32
0.0
 13
1.3355050358314171
 23
-14.7349231551828304
 33
0.0
210
0.0
220
0.0
230
-1.0
  0
SOLID
  5
76F
  8
0
  6
CONTINUOUS
 10
1.375
 20
-14.7165063509324607
 30
0.0
 11
-1.375
 21
-14.7165063509324607
 31
0.0
 12
-1.3355050358314171
 22
-14.7349231551828304
 32
0.0
 13
-1.3355050358314171
 23
-14.7349231551828304
 33
0.0
210
0.0
220
0.0
230
-1.0
  0
SOLID
  5
770
  8
0
  6
CONTINUOUS
 10
15.0749999999970896
 20
-14.7165063509324607
 30
0.0
 11
12.8644949641656705
 21
-14.7349231551828304
 31
0.0
 12
15.0355050358284998
 22
-14.7349231551828304
 32
0.0
 13
15.0355050358284998
 23
-14.7349231551828304
 33
0.0
210
0.0
220
0.0
230
-1.0
  0
SOLID
  5
771
  8
0
  6
CONTINUOUS
 10
15.0749999999970896
 20
-14.7165063509324607
 30
0.0
 11
12.8249999999970896
 21
-14.7165063509324607
 31
0.0
 12
12.8644949641656705
 22
-14.7349231551828304
 32
0.0
 13
12.8644949641656705
 23
-14.7349231551828304
 33
0.0
210
0.0
220
0.0
230
-1.0
  0
SOLID
  5
772
  8
0
  6
CONTINUOUS
 10
-12.8644949641802206
 20
-14.7349231551828304
 30
0.0
 11
-14.9934120444283696
 21
-14.7462019382394107
 31
0.0
 12
-12.9065879555949099
 22
-14.7462019382394107
 32
0.0
 13
-12.9065879555949099
 23
-14.7462019382394107
 33
0.0
210
0.0
220
0.0
230
-1.0
  0
SOLID
  5
773
  8
0
  6
CONTINUOUS
 10
-12.8644949641802206
 20
-14.7349231551828304
 30
0.0
 11
-15.0355050358430606
 21
-14.7349231551828304
 31
0.0
 12
-14.9934120444283696
 22
-14.7462019382394107
 32
0.0
 13
-14.9934120444283696
 23
-14.7462019382394107
 33
0.0
210
0.0
220
0.0
230
-1.0
  0
SOLID
  5
774
  8
0
  6
CONTINUOUS
 10
1.3355050358314171
 20
-14.7349231551828304
 30
0.0
 11
-1.2934120444167321
 21
-14.7462019382394107
 31
0.0
 12
1.2934120444167321
 22
-14.7462019382394107
 32
0.0
 13
1.2934120444167321
 23
-14.7462019382394107
 33
0.0
210
0.0
220
0.0
230
-1.0
  0
SOLID
  5
775
  8
0
  6
CONTINUOUS
 10
1.3355050358314171
 20
-14.7349231551828304
 30
0.0
 11
-1.3355050358314171
 21
-14.7349231551828304
 31
0.0
 12
-1.2934120444167321
 22
-14.7462019382394107
 32
0.0
 13
-1.2934120444167321
 23
-14.7462019382394107
 33
0.0
210
0.0
220
0.0
230
-1.0
  0
SOLID
  5
776
  8
0
  6
CONTINUOUS
 10
15.0355050358284998
 20
-14.7349231551828304
 30
0.0
 11
12.9065879555803509
 21
-14.7462019382394107
 31
0.0
 12
14.9934120444138195
 22
-14.7462019382394107
 32
0.0
 13
14.9934120444138195
 23
-14.7462019382394107
 33
0.0
210
0.0
220
0.0
230
-1.0
  0
SOLID
  5
777
  8
0
  6
CONTINUOUS
 10
15.0355050358284998
 20
-14.7349231551828304
 30
0.0
 11
12.8644949641656705
 21
-14.7349231551828304
 31
0.0
 12
12.9065879555803509
 22
-14.7462019382394107
 32
0.0
 13
12.9065879555803509
 23
-14.7462019382394107
 33
0.0
210
0.0
220
0.0
230
-1.0
  0
SOLID
  5
778
  8
0
  6
CONTINUOUS
 10
-12.9065879555949099
 20
-14.7462019382394107
 30
0.0
 11
-14.9500000000116398
 21
-14.7499999999863594
 31
0.0
 12
-12.9500000000116398
 22
-14.7499999999863594
 32
0.0
 13
-12.9500000000116398
 23
-14.7499999999863594
 33
0.0
210
0.0
220
0.0
230
-1.0
  0
SOLID
  5
779
  8
0
  6
CONTINUOUS
 10
-12.9065879555949099
 20
-14.7462019382394107
 30
0.0
 11
-14.9934120444283696
 21
-14.7462019382394107
 31
0.0
 12
-14.9500000000116398
 22
-14.7499999999863594
 32
0.0
 13
-14.9500000000116398
 23
-14.7499999999863594
 33
0.0
210
0.0
220
0.0
230
-1.0
  0
SOLID
  5
77A
  8
0
  6
CONTINUOUS
 10
1.2934120444167321
 20
-14.7462019382394107
 30
0.0
 11
-1.25
 21
-14.7499999999863594
 31
0.0
 12
1.25
 22
-14.7499999999863594
 32
0.0
 13
1.25
 23
-14.7499999999863594
 33
0.0
210
0.0
220
0.0
230
-1.0
  0
SOLID
  5
77B
  8
0
  6
CONTINUOUS
 10
1.2934120444167321
 20
-14.7462019382394107
 30
0.0
 11
-1.2934120444167321
 21
-14.7462019382394107
 31
0.0
 12
-1.25
 22
-14.7499999999863594
 32
0.0
 13
-1.25
 23
-14.7499999999863594
 33
0.0
210
0.0
220
0.0
230
-1.0
  0
SOLID
  5
77C
  8
0
  6
CONTINUOUS
 10
14.9934120444138195
 20
-14.7462019382394107
 30
0.0
 11
12.9499999999970896
 21
-14.7499999999863594
 31
0.0
 12
14.9499999999970896
 22
-14.7499999999863594
 32
0.0
 13
14.9499999999970896
 23
-14.7499999999863594
 33
0.0
210
0.0
220
0.0
230
-1.0
  0
SOLID
  5
77D
  8
0
  6
CONTINUOUS
 10
14.9934120444138195
 20
-14.7462019382394107
 30
0.0
 11
12.9065879555803509
 21
-14.7462019382394107
 31
0.0
 12
12.9499999999970896
 22
-14.7499999999863594
 32
0.0
 13
12.9499999999970896
 23
-14.7499999999863594
 33
0.0
210
0.0
220
0.0
230
-1.0
  0
LINE
  5
77E
  8
0
  6
CONTINUOUS
 10
7.9500000000116406
 20
-6.2499999999836291
 30
0.0
 11
8.4499999999966349
 21
-5.7499999999868123
 31
0.0
  0
LINE
  5
77F
  8
0
  6
CONTINUOUS
 10
10.4500000000261899
 20
-5.7499999999868123
 30
0.0
 11
10.4500000000203705
 21
-6.2499999999836291
 31
0.0
  0
LINE
  5
780
  8
0
  6
CONTINUOUS
 10
5.4500000000087301
 20
-6.2499999999836291
 30
0.0
 11
5.4500000000116406
 21
-5.7499999999868123
 31
0.0
  0
LINE
  5
781
  8
0
  6
CONTINUOUS
 10
7.4500000000120963
 20
-5.7499999999868123
 30
0.0
 11
7.9500000000116406
 21
-6.2499999999836291
 31
0.0
  0
LINE
  5
782
  8
0
  6
CONTINUOUS
 10
-5.4499999999970887
 20
-5.7499999999868123
 30
0.0
 11
-5.4499999999970887
 21
-6.2499999999836291
 31
0.0
  0
LINE
  5
783
  8
0
  6
CONTINUOUS
 10
-10.4499999999970896
 20
-6.2499999999836291
 30
0.0
 11
-10.4499999999970896
 21
-5.7499999999868123
 31
0.0
  0
LINE
  5
784
  8
0
  6
CONTINUOUS
 10
-10.4499999999970896
 20
-7.217017556224163
 30
0.0
 11
-10.3840351124547094
 21
-7.2829824437653761
 31
0.0
  0
LINE
  5
785
  8
0
  6
CONTINUOUS
 10
-10.4499999999961606
 20
-7.2829824437653761
 30
0.0
 11
-10.4499999999970896
 21
-7.217017556224163
 31
0.0
  0
LINE
  5
786
  8
0
  6
CONTINUOUS
 10
-5.4499999999970887
 20
-6.2499999999836291
 30
0.0
 11
-5.4499999999970887
 21
-7.217017556224163
 31
0.0
  0
LINE
  5
787
  8
0
  6
CONTINUOUS
 10
-10.4499999999970896
 20
-7.217017556224163
 30
0.0
 11
-10.4499999999970896
 21
-6.2499999999836291
 31
0.0
  0
LINE
  5
788
  8
0
  6
CONTINUOUS
 10
-5.4499999999970887
 20
-7.2829824437653761
 30
0.0
 11
-5.4499999999970887
 21
-8.2499999999868123
 31
0.0
  0
LINE
  5
789
  8
0
  6
CONTINUOUS
 10
-6.4170175562176146
 20
-8.2499999999868123
 30
0.0
 11
-5.4499999999970887
 21
-7.2829824437653761
 31
0.0
  0
LINE
  5
78A
  8
0
  6
CONTINUOUS
 10
-5.4499999999970887
 20
-7.217017556224163
 30
0.0
 11
-5.4499999999970887
 21
-7.2829824437653761
 31
0.0
  0
LINE
  5
78B
  8
0
  6
CONTINUOUS
 10
-10.3840351124445505
 20
-7.2829824437653761
 30
0.0
 11
-10.4499999999861704
 21
-7.217017556224163
 31
0.0
  0
LINE
  5
78C
  8
0
  6
CONTINUOUS
 10
5.4499999999970887
 20
-8.2499999999868123
 30
0.0
 11
5.4500000000087301
 21
-6.2499999999836291
 31
0.0
  0
LINE
  5
78D
  8
0
  6
CONTINUOUS
 10
10.4500000000203705
 20
-6.2499999999836291
 30
0.0
 11
10.4499999999970896
 21
-8.2499999999868123
 31
0.0
  0
LINE
  5
78E
  8
0
  6
CONTINUOUS
 10
-7.9499999999970887
 20
-8.2499999999868123
 30
0.0
 11
-7.9499999999970887
 21
-7.2829824437653761
 31
0.0
  0
LINE
  5
78F
  8
0
  6
CONTINUOUS
 10
-5.450000000000272
 20
-7.2829824437653761
 30
0.0
 11
-6.4170175562185241
 21
-8.2499999999868123
 31
0.0
  0
LINE
  5
790
  8
0
  6
CONTINUOUS
 10
-7.9499999999970887
 20
-7.2829824437653761
 30
0.0
 11
-7.9499999999970887
 21
-8.2499999999868123
 31
0.0
  0
LINE
  5
791
  8
0
  6
CONTINUOUS
 10
-10.4499999999825306
 20
-8.2499999999868123
 30
0.0
 11
-10.4499999999961606
 21
-7.2829824437653761
 31
0.0
  0
LINE
  5
792
  8
0
  6
CONTINUOUS
 10
12.7000000000116398
 20
-14.4999999999863594
 30
0.0
 11
12.7000000000116398
 21
-9.7499999999868123
 31
0.0
  0
LINE
  5
793
  8
0
  6
CONTINUOUS
 10
15.2000000000261899
 20
-9.7499999999868123
 30
0.0
 11
15.2000000000116398
 21
-14.4999999999863594
 31
0.0
  0
LINE
  5
794
  8
0
  6
CONTINUOUS
 10
-1.5
 20
-14.4999999999863594
 30
0.0
 11
-1.500000000014551
 21
-9.7499999999868123
 31
0.0
  0
LINE
  5
795
  8
0
  6
CONTINUOUS
 10
1.5
 20
-9.7499999999868123
 30
0.0
 11
1.5
 21
-14.4999999999863594
 31
0.0
  0
LINE
  5
796
  8
0
  6
CONTINUOUS
 10
-15.1999999999970896
 20
-14.4999999999863594
 30
0.0
 11
-15.1999999999970896
 21
-9.7499999999868123
 31
0.0
  0
LINE
  5
797
  8
0
  6
CONTINUOUS
 10
-12.6999999999970896
 20
-9.7499999999868123
 30
0.0
 11
-12.6999999999970896
 21
-14.4999999999863594
 31
0.0
  0
LINE
  5
798
  8
0
  6
CONTINUOUS
 10
12.7037980617585902
 20
-14.5434120444030892
 30
0.0
 11
12.7000000000116398
 21
-14.4999999999863594
 31
0.0
  0
LINE
  5
799
  8
0
  6
CONTINUOUS
 10
15.2000000000116398
 20
-14.4999999999863594
 30
0.0
 11
15.1962019382646893
 21
-14.5434120444030892
 31
0.0
  0
LINE
  5
79A
  8
0
  6
CONTINUOUS
 10
-1.496201938253052
 20
-14.5434120444030892
 30
0.0
 11
-1.5
 21
-14.4999999999863594
 31
0.0
  0
LINE
  5
79B
  8
0
  6
CONTINUOUS
 10
1.5
 20
-14.4999999999863594
 30
0.0
 11
1.4962019382530509
 21
-14.5434120444030892
 31
0.0
  0
LINE
  5
79C
  8
0
  6
CONTINUOUS
 10
-15.1962019382501392
 20
-14.5434120444030892
 30
0.0
 11
-15.1999999999970896
 21
-14.4999999999863594
 31
0.0
  0
LINE
  5
79D
  8
0
  6
CONTINUOUS
 10
-12.6999999999970896
 20
-14.4999999999863594
 30
0.0
 11
-12.70379806174404
 21
-14.5434120444030892
 31
0.0
  0
LINE
  5
79E
  8
0
  6
CONTINUOUS
 10
12.7150768448151599
 20
-14.5855050358177696
 30
0.0
 11
12.7037980617585902
 21
-14.5434120444030892
 31
0.0
  0
LINE
  5
79F
  8
0
  6
CONTINUOUS
 10
15.1962019382646893
 20
-14.5434120444030892
 30
0.0
 11
15.1849231552081196
 21
-14.5855050358177696
 31
0.0
  0
LINE
  5
7A0
  8
0
  6
CONTINUOUS
 10
-1.484923155196477
 20
-14.5855050358177696
 30
0.0
 11
-1.496201938253052
 21
-14.5434120444030892
 31
0.0
  0
LINE
  5
7A1
  8
0
  6
CONTINUOUS
 10
1.4962019382530509
 20
-14.5434120444030892
 30
0.0
 11
1.484923155196477
 21
-14.5855050358177696
 31
0.0
  0
LINE
  5
7A2
  8
0
  6
CONTINUOUS
 10
-15.1849231551935606
 20
-14.5855050358177696
 30
0.0
 11
-15.1962019382501392
 21
-14.5434120444030892
 31
0.0
  0
LINE
  5
7A3
  8
0
  6
CONTINUOUS
 10
-12.70379806174404
 20
-14.5434120444030892
 30
0.0
 11
-12.7150768448006097
 21
-14.5855050358177696
 31
0.0
  0
LINE
  5
7A4
  8
0
  6
CONTINUOUS
 10
12.7334936490655295
 20
-14.6249999999863594
 30
0.0
 11
12.7150768448151599
 21
-14.5855050358177696
 31
0.0
  0
LINE
  5
7A5
  8
0
  6
CONTINUOUS
 10
15.1849231552081196
 20
-14.5855050358177696
 30
0.0
 11
15.16650635095775
 21
-14.6249999999863594
 31
0.0
  0
LINE
  5
7A6
  8
0
  6
CONTINUOUS
 10
-1.4665063509461089
 20
-14.6249999999863594
 30
0.0
 11
-1.484923155196477
 21
-14.5855050358177696
 31
0.0
  0
LINE
  5
7A7
  8
0
  6
CONTINUOUS
 10
1.484923155196477
 20
-14.5855050358177696
 30
0.0
 11
1.4665063509461089
 21
-14.6249999999863594
 31
0.0
  0
LINE
  5
7A8
  8
0
  6
CONTINUOUS
 10
-15.1665063509431999
 20
-14.6249999999863594
 30
0.0
 11
-15.1849231551935606
 21
-14.5855050358177696
 31
0.0
  0
LINE
  5
7A9
  8
0
  6
CONTINUOUS
 10
-12.7150768448006097
 20
-14.5855050358177696
 30
0.0
 11
-12.7334936490509794
 21
-14.6249999999863594
 31
0.0
  0
LINE
  5
7AA
  8
0
  6
CONTINUOUS
 10
12.7584888892319004
 20
-14.6606969024079898
 30
0.0
 11
12.7334936490655295
 21
-14.6249999999863594
 31
0.0
  0
LINE
  5
7AB
  8
0
  6
CONTINUOUS
 10
15.16650635095775
 20
-14.6249999999863594
 30
0.0
 11
15.1415111107913791
 21
-14.6606969024079898
 31
0.0
  0
LINE
  5
7AC
  8
0
  6
CONTINUOUS
 10
-1.441511110779744
 20
-14.6606969024079898
 30
0.0
 11
-1.4665063509461089
 21
-14.6249999999863594
 31
0.0
  0
LINE
  5
7AD
  8
0
  6
CONTINUOUS
 10
1.4665063509461089
 20
-14.6249999999863594
 30
0.0
 11
1.441511110779744
 21
-14.6606969024079898
 31
0.0
  0
LINE
  5
7AE
  8
0
  6
CONTINUOUS
 10
-15.1415111107768308
 20
-14.6606969024079898
 30
0.0
 11
-15.1665063509431999
 21
-14.6249999999863594
 31
0.0
  0
LINE
  5
7AF
  8
0
  6
CONTINUOUS
 10
-12.7334936490509794
 20
-14.6249999999863594
 30
0.0
 11
-12.7584888892173396
 21
-14.6606969024079898
 31
0.0
  0
LINE
  5
7B0
  8
0
  6
CONTINUOUS
 10
12.7893030975900093
 20
-14.6915111107661005
 30
0.0
 11
12.7584888892319004
 21
-14.6606969024079898
 31
0.0
  0
LINE
  5
7B1
  8
0
  6
CONTINUOUS
 10
15.1415111107913791
 20
-14.6606969024079898
 30
0.0
 11
15.1106969024332702
 21
-14.6915111107661005
 31
0.0
  0
LINE
  5
7B2
  8
0
  6
CONTINUOUS
 10
-1.410696902421634
 20
-14.6915111107661005
 30
0.0
 11
-1.441511110779744
 21
-14.6606969024079898
 31
0.0
  0
LINE
  5
7B3
  8
0
  6
CONTINUOUS
 10
1.441511110779744
 20
-14.6606969024079898
 30
0.0
 11
1.410696902421634
 21
-14.6915111107661005
 31
0.0
  0
LINE
  5
7B4
  8
0
  6
CONTINUOUS
 10
-15.1106969024187201
 20
-14.6915111107661005
 30
0.0
 11
-15.1415111107768308
 21
-14.6606969024079898
 31
0.0
  0
LINE
  5
7B5
  8
0
  6
CONTINUOUS
 10
-12.7584888892173396
 20
-14.6606969024079898
 30
0.0
 11
-12.7893030975754503
 21
-14.6915111107661005
 31
0.0
  0
LINE
  5
7B6
  8
0
  6
CONTINUOUS
 10
12.8250000000116398
 20
-14.7165063509324607
 30
0.0
 11
12.7893030975900093
 21
-14.6915111107661005
 31
0.0
  0
LINE
  5
7B7
  8
0
  6
CONTINUOUS
 10
15.1106969024332702
 20
-14.6915111107661005
 30
0.0
 11
15.0750000000116398
 21
-14.7165063509324607
 31
0.0
  0
LINE
  5
7B8
  8
0
  6
CONTINUOUS
 10
-1.375
 20
-14.7165063509324607
 30
0.0
 11
-1.410696902421634
 21
-14.6915111107661005
 31
0.0
  0
LINE
  5
7B9
  8
0
  6
CONTINUOUS
 10
1.410696902421634
 20
-14.6915111107661005
 30
0.0
 11
1.375
 21
-14.7165063509324607
 31
0.0
  0
LINE
  5
7BA
  8
0
  6
CONTINUOUS
 10
-15.0749999999970896
 20
-14.7165063509324607
 30
0.0
 11
-15.1106969024187201
 21
-14.6915111107661005
 31
0.0
  0
LINE
  5
7BB
  8
0
  6
CONTINUOUS
 10
-12.7893030975754503
 20
-14.6915111107661005
 30
0.0
 11
-12.8249999999970896
 21
-14.7165063509324607
 31
0.0
  0
LINE
  5
7BC
  8
0
  6
CONTINUOUS
 10
12.8644949641802206
 20
-14.7349231551828304
 30
0.0
 11
12.8250000000116398
 21
-14.7165063509324607
 31
0.0
  0
LINE
  5
7BD
  8
0
  6
CONTINUOUS
 10
15.0750000000116398
 20
-14.7165063509324607
 30
0.0
 11
15.0355050358430606
 21
-14.7349231551828304
 31
0.0
  0
LINE
  5
7BE
  8
0
  6
CONTINUOUS
 10
-1.3355050358314171
 20
-14.7349231551828304
 30
0.0
 11
-1.375
 21
-14.7165063509324607
 31
0.0
  0
LINE
  5
7BF
  8
0
  6
CONTINUOUS
 10
1.375
 20
-14.7165063509324607
 30
0.0
 11
1.3355050358314171
 21
-14.7349231551828304
 31
0.0
  0
LINE
  5
7C0
  8
0
  6
CONTINUOUS
 10
-15.0355050358284998
 20
-14.7349231551828304
 30
0.0
 11
-15.0749999999970896
 21
-14.7165063509324607
 31
0.0
  0
LINE
  5
7C1
  8
0
  6
CONTINUOUS
 10
-12.8249999999970896
 20
-14.7165063509324607
 30
0.0
 11
-12.8644949641656705
 21
-14.7349231551828304
 31
0.0
  0
LINE
  5
7C2
  8
0
  6
CONTINUOUS
 10
12.9065879555949099
 20
-14.7462019382394107
 30
0.0
 11
12.8644949641802206
 21
-14.7349231551828304
 31
0.0
  0
LINE
  5
7C3
  8
0
  6
CONTINUOUS
 10
15.0355050358430606
 20
-14.7349231551828304
 30
0.0
 11
14.9934120444283696
 21
-14.7462019382394107
 31
0.0
  0
LINE
  5
7C4
  8
0
  6
CONTINUOUS
 10
-1.2934120444167321
 20
-14.7462019382394107
 30
0.0
 11
-1.3355050358314171
 21
-14.7349231551828304
 31
0.0
  0
LINE
  5
7C5
  8
0
  6
CONTINUOUS
 10
1.3355050358314171
 20
-14.7349231551828304
 30
0.0
 11
1.2934120444167321
 21
-14.7462019382394107
 31
0.0
  0
LINE
  5
7C6
  8
0
  6
CONTINUOUS
 10
-14.9934120444138195
 20
-14.7462019382394107
 30
0.0
 11
-15.0355050358284998
 21
-14.7349231551828304
 31
0.0
  0
LINE
  5
7C7
  8
0
  6
CONTINUOUS
 10
-12.8644949641656705
 20
-14.7349231551828304
 30
0.0
 11
-12.9065879555803509
 21
-14.7462019382394107
 31
0.0
  0
LINE
  5
7C8
  8
0
  6
CONTINUOUS
 10
12.9500000000116398
 20
-14.7499999999863594
 30
0.0
 11
12.9065879555949099
 21
-14.7462019382394107
 31
0.0
  0
LINE
  5
7C9
  8
0
  6
CONTINUOUS
 10
14.9934120444283696
 20
-14.7462019382394107
 30
0.0
 11
14.9500000000116398
 21
-14.7499999999863594
 31
0.0
  0
LINE
  5
7CA
  8
0
  6
CONTINUOUS
 10
-1.25
 20
-14.7499999999863594
 30
0.0
 11
-1.2934120444167321
 21
-14.7462019382394107
 31
0.0
  0
LINE
  5
7CB
  8
0
  6
CONTINUOUS
 10
1.2934120444167321
 20
-14.7462019382394107
 30
0.0
 11
1.25
 21
-14.7499999999863594
 31
0.0
  0
LINE
  5
7CC
  8
0
  6
CONTINUOUS
 10
-14.9499999999970896
 20
-14.7499999999863594
 30
0.0
 11
-14.9934120444138195
 21
-14.7462019382394107
 31
0.0
  0
LINE
  5
7CD
  8
0
  6
CONTINUOUS
 10
-12.9065879555803509
 20
-14.7462019382394107
 30
0.0
 11
-12.9499999999970896
 21
-14.7499999999863594
 31
0.0
  0
ENDBLK
  5
7CF
  8
0
 62
    32
  0
BLOCK
  8
0
 62
    32
  2
*U33
 70
     1
 10
0.0
 20
0.0
 30
0.0
  3
*U33
  1

  0
SOLID
  5
7D1
  8
0
  6
CONTINUOUS
 10
-25.337414184701629
 20
-23.20000000001437
 30
0.0
 11
-27.5110623623685591
 21
-23.215192247002161
 31
0.0
 12
-25.1637660070346989
 22
-23.215192247002161
 32
0.0
 13
-25.1637660070346989
 23
-23.215192247002161
 33
0.0
210
0.0
220
0.0
230
-1.0
  0
SOLID
  5
7D2
  8
0
  6
CONTINUOUS
 10
-25.337414184701629
 20
-23.20000000001437
 30
0.0
 11
-27.337414184701629
 21
-23.20000000001437
 31
0.0
 12
-27.5110623623685591
 22
-23.215192247002161
 32
0.0
 13
-27.5110623623685591
 23
-23.215192247002161
 33
0.0
210
0.0
220
0.0
230
-1.0
  0
SOLID
  5
7D3
  8
0
  6
CONTINUOUS
 10
-25.1637660070346989
 20
-23.215192247002161
 30
0.0
 11
-27.6794343280272983
 21
-23.2603073792284611
 31
0.0
 12
-24.9953940413759597
 22
-23.2603073792284611
 32
0.0
 13
-24.9953940413759597
 23
-23.2603073792284611
 33
0.0
210
0.0
220
0.0
230
-1.0
  0
SOLID
  5
7D4
  8
0
  6
CONTINUOUS
 10
-25.1637660070346989
 20
-23.215192247002161
 30
0.0
 11
-27.5110623623685591
 21
-23.215192247002161
 31
0.0
 12
-27.6794343280272983
 22
-23.2603073792284611
 32
0.0
 13
-27.6794343280272983
 23
-23.2603073792284611
 33
0.0
210
0.0
220
0.0
230
-1.0
  0
SOLID
  5
7D5
  8
0
  6
CONTINUOUS
 10
-24.9953940413759597
 20
-23.2603073792284611
 30
0.0
 11
-27.837414184701629
 21
-23.333974596229929
 31
0.0
 12
-24.837414184701629
 22
-23.333974596229929
 32
0.0
 13
-24.837414184701629
 23
-23.333974596229929
 33
0.0
210
0.0
220
0.0
230
-1.0
  0
SOLID
  5
7D6
  8
0
  6
CONTINUOUS
 10
-24.9953940413759597
 20
-23.2603073792284611
 30
0.0
 11
-27.6794343280272983
 21
-23.2603073792284611
 31
0.0
 12
-27.837414184701629
 22
-23.333974596229929
 32
0.0
 13
-27.837414184701629
 23
-23.333974596229929
 33
0.0
210
0.0
220
0.0
230
-1.0
  0
SOLID
  5
7D7
  8
0
  6
CONTINUOUS
 10
-24.837414184701629
 20
-23.333974596229929
 30
0.0
 11
-27.9802017943881687
 21
-23.4339555568953912
 31
0.0
 12
-24.6946265750150893
 22
-23.4339555568953912
 32
0.0
 13
-24.6946265750150893
 23
-23.4339555568953912
 33
0.0
210
0.0
220
0.0
230
-1.0
  0
SOLID
  5
7D8
  8
0
  6
CONTINUOUS
 10
-24.837414184701629
 20
-23.333974596229929
 30
0.0
 11
-27.837414184701629
 21
-23.333974596229929
 31
0.0
 12
-27.9802017943881687
 22
-23.4339555568953912
 32
0.0
 13
-27.9802017943881687
 23
-23.4339555568953912
 33
0.0
210
0.0
220
0.0
230
-1.0
  0
SOLID
  5
7D9
  8
0
  6
CONTINUOUS
 10
-24.6946265750150893
 20
-23.4339555568953912
 30
0.0
 11
-28.1034586278206113
 21
-23.5572123903278303
 31
0.0
 12
-24.5713697415826502
 22
-23.5572123903278303
 32
0.0
 13
-24.5713697415826502
 23
-23.5572123903278303
 33
0.0
210
0.0
220
0.0
230
-1.0
  0
SOLID
  5
7DA
  8
0
  6
CONTINUOUS
 10
-24.6946265750150893
 20
-23.4339555568953912
 30
0.0
 11
-27.9802017943881687
 21
-23.4339555568953912
 31
0.0
 12
-28.1034586278206113
 22
-23.5572123903278303
 32
0.0
 13
-28.1034586278206113
 23
-23.5572123903278303
 33
0.0
210
0.0
220
0.0
230
-1.0
  0
SOLID
  5
7DB
  8
0
  6
CONTINUOUS
 10
-24.5713697415826502
 20
-23.5572123903278303
 30
0.0
 11
-28.20343958848607
 21
-23.70000000001437
 31
0.0
 12
-24.4713887809171915
 22
-23.70000000001437
 32
0.0
 13
-24.4713887809171915
 23
-23.70000000001437
 33
0.0
210
0.0
220
0.0
230
-1.0
  0
SOLID
  5
7DC
  8
0
  6
CONTINUOUS
 10
-24.5713697415826502
 20
-23.5572123903278303
 30
0.0
 11
-28.1034586278206113
 21
-23.5572123903278303
 31
0.0
 12
-28.20343958848607
 22
-23.70000000001437
 32
0.0
 13
-28.20343958848607
 23
-23.70000000001437
 33
0.0
210
0.0
220
0.0
230
-1.0
  0
SOLID
  5
7DD
  8
0
  6
CONTINUOUS
 10
-24.4713887809171915
 20
-23.70000000001437
 30
0.0
 11
-28.2771068054875414
 21
-23.8579798566887007
 31
0.0
 12
-24.3977215639157201
 22
-23.8579798566887007
 32
0.0
 13
-24.3977215639157201
 23
-23.8579798566887007
 33
0.0
210
0.0
220
0.0
230
-1.0
  0
SOLID
  5
7DE
  8
0
  6
CONTINUOUS
 10
-24.4713887809171915
 20
-23.70000000001437
 30
0.0
 11
-28.20343958848607
 21
-23.70000000001437
 31
0.0
 12
-28.2771068054875414
 22
-23.8579798566887007
 32
0.0
 13
-28.2771068054875414
 23
-23.8579798566887007
 33
0.0
210
0.0
220
0.0
230
-1.0
  0
SOLID
  5
7DF
  8
0
  6
CONTINUOUS
 10
-24.3977215639157201
 20
-23.8579798566887007
 30
0.0
 11
-28.3222219377138416
 21
-24.0263518223474399
 31
0.0
 12
-24.35260643168942
 22
-24.0263518223474399
 32
0.0
 13
-24.35260643168942
 23
-24.0263518223474399
 33
0.0
210
0.0
220
0.0
230
-1.0
  0
SOLID
  5
7E0
  8
0
  6
CONTINUOUS
 10
-24.3977215639157201
 20
-23.8579798566887007
 30
0.0
 11
-28.2771068054875414
 21
-23.8579798566887007
 31
0.0
 12
-28.3222219377138416
 22
-24.0263518223474399
 32
0.0
 13
-28.3222219377138416
 23
-24.0263518223474399
 33
0.0
210
0.0
220
0.0
230
-1.0
  0
SOLID
  5
7E1
  8
0
  6
CONTINUOUS
 10
-24.35260643168942
 20
-24.0263518223474399
 30
0.0
 11
-28.337414184701629
 21
-24.20000000001437
 31
0.0
 12
-24.337414184701629
 22
-24.20000000001437
 32
0.0
 13
-24.337414184701629
 23
-24.20000000001437
 33
0.0
210
0.0
220
0.0
230
-1.0
  0
SOLID
  5
7E2
  8
0
  6
CONTINUOUS
 10
-24.35260643168942
 20
-24.0263518223474399
 30
0.0
 11
-28.3222219377138416
 21
-24.0263518223474399
 31
0.0
 12
-28.337414184701629
 22
-24.20000000001437
 32
0.0
 13
-28.337414184701629
 23
-24.20000000001437
 33
0.0
210
0.0
220
0.0
230
-1.0
  0
SOLID
  5
7E3
  8
0
  6
CONTINUOUS
 10
-24.337414184701629
 20
-24.20000000001437
 30
0.0
 11
-28.3222219377138416
 21
-24.3736481776813001
 31
0.0
 12
-24.35260643168942
 22
-24.3736481776813001
 32
0.0
 13
-24.35260643168942
 23
-24.3736481776813001
 33
0.0
210
0.0
220
0.0
230
-1.0
  0
SOLID
  5
7E4
  8
0
  6
CONTINUOUS
 10
-24.337414184701629
 20
-24.20000000001437
 30
0.0
 11
-28.337414184701629
 21
-24.20000000001437
 31
0.0
 12
-28.3222219377138416
 22
-24.3736481776813001
 32
0.0
 13
-28.3222219377138416
 23
-24.3736481776813001
 33
0.0
210
0.0
220
0.0
230
-1.0
  0
SOLID
  5
7E5
  8
0
  6
CONTINUOUS
 10
-24.35260643168942
 20
-24.3736481776813001
 30
0.0
 11
-28.2771068054875414
 21
-24.5420201433400393
 31
0.0
 12
-24.3977215639157201
 22
-24.5420201433400393
 32
0.0
 13
-24.3977215639157201
 23
-24.5420201433400393
 33
0.0
210
0.0
220
0.0
230
-1.0
  0
SOLID
  5
7E6
  8
0
  6
CONTINUOUS
 10
-24.35260643168942
 20
-24.3736481776813001
 30
0.0
 11
-28.3222219377138416
 21
-24.3736481776813001
 31
0.0
 12
-28.2771068054875414
 22
-24.5420201433400393
 32
0.0
 13
-28.2771068054875414
 23
-24.5420201433400393
 33
0.0
210
0.0
220
0.0
230
-1.0
  0
SOLID
  5
7E7
  8
0
  6
CONTINUOUS
 10
-24.3977215639157201
 20
-24.5420201433400393
 30
0.0
 11
-28.20343958848607
 21
-24.70000000001437
 31
0.0
 12
-24.4713887809171915
 22
-24.70000000001437
 32
0.0
 13
-24.4713887809171915
 23
-24.70000000001437
 33
0.0
210
0.0
220
0.0
230
-1.0
  0
SOLID
  5
7E8
  8
0
  6
CONTINUOUS
 10
-24.3977215639157201
 20
-24.5420201433400393
 30
0.0
 11
-28.2771068054875414
 21
-24.5420201433400393
 31
0.0
 12
-28.20343958848607
 22
-24.70000000001437
 32
0.0
 13
-28.20343958848607
 23
-24.70000000001437
 33
0.0
210
0.0
220
0.0
230
-1.0
  0
SOLID
  5
7E9
  8
0
  6
CONTINUOUS
 10
-24.4713887809171915
 20
-24.70000000001437
 30
0.0
 11
-28.1034586278206113
 21
-24.8427876097009097
 31
0.0
 12
-24.5713697415826502
 22
-24.8427876097009097
 32
0.0
 13
-24.5713697415826502
 23
-24.8427876097009097
 33
0.0
210
0.0
220
0.0
230
-1.0
  0
SOLID
  5
7EA
  8
0
  6
CONTINUOUS
 10
-24.4713887809171915
 20
-24.70000000001437
 30
0.0
 11
-28.20343958848607
 21
-24.70000000001437
 31
0.0
 12
-28.1034586278206113
 22
-24.8427876097009097
 32
0.0
 13
-28.1034586278206113
 23
-24.8427876097009097
 33
0.0
210
0.0
220
0.0
230
-1.0
  0
SOLID
  5
7EB
  8
0
  6
CONTINUOUS
 10
-24.5713697415826502
 20
-24.8427876097009097
 30
0.0
 11
-27.9802017943881687
 21
-24.9660444431333488
 31
0.0
 12
-24.6946265750150893
 22
-24.9660444431333488
 32
0.0
 13
-24.6946265750150893
 23
-24.9660444431333488
 33
0.0
210
0.0
220
0.0
230
-1.0
  0
SOLID
  5
7EC
  8
0
  6
CONTINUOUS
 10
-24.5713697415826502
 20
-24.8427876097009097
 30
0.0
 11
-28.1034586278206113
 21
-24.8427876097009097
 31
0.0
 12
-27.9802017943881687
 22
-24.9660444431333488
 32
0.0
 13
-27.9802017943881687
 23
-24.9660444431333488
 33
0.0
210
0.0
220
0.0
230
-1.0
  0
SOLID
  5
7ED
  8
0
  6
CONTINUOUS
 10
-24.6946265750150893
 20
-24.9660444431333488
 30
0.0
 11
-27.837414184701629
 21
-25.0660254037988111
 31
0.0
 12
-24.837414184701629
 22
-25.0660254037988111
 32
0.0
 13
-24.837414184701629
 23
-25.0660254037988111
 33
0.0
210
0.0
220
0.0
230
-1.0
  0
SOLID
  5
7EE
  8
0
  6
CONTINUOUS
 10
-24.6946265750150893
 20
-24.9660444431333488
 30
0.0
 11
-27.9802017943881687
 21
-24.9660444431333488
 31
0.0
 12
-27.837414184701629
 22
-25.0660254037988111
 32
0.0
 13
-27.837414184701629
 23
-25.0660254037988111
 33
0.0
210
0.0
220
0.0
230
-1.0
  0
SOLID
  5
7EF
  8
0
  6
CONTINUOUS
 10
-24.837414184701629
 20
-25.0660254037988111
 30
0.0
 11
-27.6794343280272983
 21
-25.1396926208002789
 31
0.0
 12
-24.9953940413759597
 22
-25.1396926208002789
 32
0.0
 13
-24.9953940413759597
 23
-25.1396926208002789
 33
0.0
210
0.0
220
0.0
230
-1.0
  0
SOLID
  5
7F0
  8
0
  6
CONTINUOUS
 10
-24.837414184701629
 20
-25.0660254037988111
 30
0.0
 11
-27.837414184701629
 21
-25.0660254037988111
 31
0.0
 12
-27.6794343280272983
 22
-25.1396926208002789
 32
0.0
 13
-27.6794343280272983
 23
-25.1396926208002789
 33
0.0
210
0.0
220
0.0
230
-1.0
  0
SOLID
  5
7F1
  8
0
  6
CONTINUOUS
 10
-24.9953940413759597
 20
-25.1396926208002789
 30
0.0
 11
-27.5110623623685591
 21
-25.184807753026579
 31
0.0
 12
-25.1637660070346989
 22
-25.184807753026579
 32
0.0
 13
-25.1637660070346989
 23
-25.184807753026579
 33
0.0
210
0.0
220
0.0
230
-1.0
  0
SOLID
  5
7F2
  8
0
  6
CONTINUOUS
 10
-24.9953940413759597
 20
-25.1396926208002789
 30
0.0
 11
-27.6794343280272983
 21
-25.1396926208002789
 31
0.0
 12
-27.5110623623685591
 22
-25.184807753026579
 32
0.0
 13
-27.5110623623685591
 23
-25.184807753026579
 33
0.0
210
0.0
220
0.0
230
-1.0
  0
SOLID
  5
7F3
  8
0
  6
CONTINUOUS
 10
-25.1637660070346989
 20
-25.184807753026579
 30
0.0
 11
-27.337414184701629
 21
-25.20000000001437
 31
0.0
 12
-25.337414184701629
 22
-25.20000000001437
 32
0.0
 13
-25.337414184701629
 23
-25.20000000001437
 33
0.0
210
0.0
220
0.0
230
-1.0
  0
SOLID
  5
7F4
  8
0
  6
CONTINUOUS
 10
-25.1637660070346989
 20
-25.184807753026579
 30
0.0
 11
-27.5110623623685591
 21
-25.184807753026579
 31
0.0
 12
-27.337414184701629
 22
-25.20000000001437
 32
0.0
 13
-27.337414184701629
 23
-25.20000000001437
 33
0.0
210
0.0
220
0.0
230
-1.0
  0
LINE
  5
7F5
  8
0
  6
CONTINUOUS
 10
25.1637660070346989
 20
-23.215192247002161
 30
0.0
 11
25.337414184701629
 21
-23.20000000001437
 31
0.0
  0
LINE
  5
7F6
  8
0
  6
CONTINUOUS
 10
27.337414184701629
 20
-23.20000000001437
 30
0.0
 11
27.5110623623685591
 21
-23.215192247002161
 31
0.0
  0
LINE
  5
7F7
  8
0
  6
CONTINUOUS
 10
24.9953940413759597
 20
-23.2603073792284611
 30
0.0
 11
25.1637660070346989
 21
-23.215192247002161
 31
0.0
  0
LINE
  5
7F8
  8
0
  6
CONTINUOUS
 10
27.5110623623685591
 20
-23.215192247002161
 30
0.0
 11
27.6794343280272983
 21
-23.2603073792284611
 31
0.0
  0
LINE
  5
7F9
  8
0
  6
CONTINUOUS
 10
24.837414184701629
 20
-23.333974596229929
 30
0.0
 11
24.9953940413759597
 21
-23.2603073792284611
 31
0.0
  0
LINE
  5
7FA
  8
0
  6
CONTINUOUS
 10
27.6794343280272983
 20
-23.2603073792284611
 30
0.0
 11
27.837414184701629
 21
-23.333974596229929
 31
0.0
  0
LINE
  5
7FB
  8
0
  6
CONTINUOUS
 10
24.6946265750150893
 20
-23.4339555568953912
 30
0.0
 11
24.837414184701629
 21
-23.333974596229929
 31
0.0
  0
LINE
  5
7FC
  8
0
  6
CONTINUOUS
 10
27.837414184701629
 20
-23.333974596229929
 30
0.0
 11
27.9802017943881687
 21
-23.4339555568953912
 31
0.0
  0
LINE
  5
7FD
  8
0
  6
CONTINUOUS
 10
24.5713697415826502
 20
-23.5572123903278303
 30
0.0
 11
24.6946265750150893
 21
-23.4339555568953912
 31
0.0
  0
LINE
  5
7FE
  8
0
  6
CONTINUOUS
 10
27.9802017943881687
 20
-23.4339555568953912
 30
0.0
 11
28.1034586278206113
 21
-23.5572123903278303
 31
0.0
  0
LINE
  5
7FF
  8
0
  6
CONTINUOUS
 10
24.4713887809171915
 20
-23.70000000001437
 30
0.0
 11
24.5713697415826502
 21
-23.5572123903278303
 31
0.0
  0
LINE
  5
800
  8
0
  6
CONTINUOUS
 10
28.1034586278206113
 20
-23.5572123903278303
 30
0.0
 11
28.20343958848607
 21
-23.70000000001437
 31
0.0
  0
LINE
  5
801
  8
0
  6
CONTINUOUS
 10
24.3977215639157201
 20
-23.8579798566887007
 30
0.0
 11
24.4713887809171915
 21
-23.70000000001437
 31
0.0
  0
LINE
  5
802
  8
0
  6
CONTINUOUS
 10
28.20343958848607
 20
-23.70000000001437
 30
0.0
 11
28.2771068054875414
 21
-23.8579798566887007
 31
0.0
  0
LINE
  5
803
  8
0
  6
CONTINUOUS
 10
24.35260643168942
 20
-24.0263518223474399
 30
0.0
 11
24.3977215639157201
 21
-23.8579798566887007
 31
0.0
  0
LINE
  5
804
  8
0
  6
CONTINUOUS
 10
28.2771068054875414
 20
-23.8579798566887007
 30
0.0
 11
28.3222219377138416
 21
-24.0263518223474399
 31
0.0
  0
LINE
  5
805
  8
0
  6
CONTINUOUS
 10
24.337414184701629
 20
-24.20000000001437
 30
0.0
 11
24.35260643168942
 21
-24.0263518223474399
 31
0.0
  0
LINE
  5
806
  8
0
  6
CONTINUOUS
 10
28.3222219377138416
 20
-24.0263518223474399
 30
0.0
 11
28.337414184701629
 21
-24.20000000001437
 31
0.0
  0
LINE
  5
807
  8
0
  6
CONTINUOUS
 10
24.35260643168942
 20
-24.3736481776813001
 30
0.0
 11
24.337414184701629
 21
-24.20000000001437
 31
0.0
  0
LINE
  5
808
  8
0
  6
CONTINUOUS
 10
28.337414184701629
 20
-24.20000000001437
 30
0.0
 11
28.3222219377138416
 21
-24.3736481776813001
 31
0.0
  0
LINE
  5
809
  8
0
  6
CONTINUOUS
 10
24.3977215639157201
 20
-24.5420201433400393
 30
0.0
 11
24.35260643168942
 21
-24.3736481776813001
 31
0.0
  0
LINE
  5
80A
  8
0
  6
CONTINUOUS
 10
28.3222219377138416
 20
-24.3736481776813001
 30
0.0
 11
28.2771068054875414
 21
-24.5420201433400393
 31
0.0
  0
LINE
  5
80B
  8
0
  6
CONTINUOUS
 10
24.4713887809171915
 20
-24.70000000001437
 30
0.0
 11
24.3977215639157201
 21
-24.5420201433400393
 31
0.0
  0
LINE
  5
80C
  8
0
  6
CONTINUOUS
 10
28.2771068054875414
 20
-24.5420201433400393
 30
0.0
 11
28.20343958848607
 21
-24.70000000001437
 31
0.0
  0
LINE
  5
80D
  8
0
  6
CONTINUOUS
 10
24.5713697415826502
 20
-24.8427876097009097
 30
0.0
 11
24.4713887809171915
 21
-24.70000000001437
 31
0.0
  0
LINE
  5
80E
  8
0
  6
CONTINUOUS
 10
28.20343958848607
 20
-24.70000000001437
 30
0.0
 11
28.1034586278206113
 21
-24.8427876097009097
 31
0.0
  0
LINE
  5
80F
  8
0
  6
CONTINUOUS
 10
24.6946265750150893
 20
-24.9660444431333488
 30
0.0
 11
24.5713697415826502
 21
-24.8427876097009097
 31
0.0
  0
LINE
  5
810
  8
0
  6
CONTINUOUS
 10
28.1034586278206113
 20
-24.8427876097009097
 30
0.0
 11
27.9802017943881687
 21
-24.9660444431333488
 31
0.0
  0
LINE
  5
811
  8
0
  6
CONTINUOUS
 10
24.837414184701629
 20
-25.0660254037988111
 30
0.0
 11
24.6946265750150893
 21
-24.9660444431333488
 31
0.0
  0
LINE
  5
812
  8
0
  6
CONTINUOUS
 10
27.9802017943881687
 20
-24.9660444431333488
 30
0.0
 11
27.837414184701629
 21
-25.0660254037988111
 31
0.0
  0
LINE
  5
813
  8
0
  6
CONTINUOUS
 10
24.9953940413759597
 20
-25.1396926208002789
 30
0.0
 11
24.837414184701629
 21
-25.0660254037988111
 31
0.0
  0
LINE
  5
814
  8
0
  6
CONTINUOUS
 10
27.837414184701629
 20
-25.0660254037988111
 30
0.0
 11
27.6794343280272983
 21
-25.1396926208002789
 31
0.0
  0
LINE
  5
815
  8
0
  6
CONTINUOUS
 10
25.1637660070346989
 20
-25.184807753026579
 30
0.0
 11
24.9953940413759597
 21
-25.1396926208002789
 31
0.0
  0
LINE
  5
816
  8
0
  6
CONTINUOUS
 10
27.6794343280272983
 20
-25.1396926208002789
 30
0.0
 11
27.5110623623685591
 21
-25.184807753026579
 31
0.0
  0
LINE
  5
817
  8
0
  6
CONTINUOUS
 10
25.337414184701629
 20
-25.20000000001437
 30
0.0
 11
25.1637660070346989
 21
-25.184807753026579
 31
0.0
  0
LINE
  5
818
  8
0
  6
CONTINUOUS
 10
27.5110623623685591
 20
-25.184807753026579
 30
0.0
 11
27.337414184701629
 21
-25.20000000001437
 31
0.0
  0
ENDBLK
  5
81A
  8
0
 62
    32
  0
ENDSEC
  0
SECTION
  2
ENTITIES
  0
LINE
  5
5B0
  8
0
 10
82.4013084714597568
 20
48.5324308563981006
 30
0.0
 11
82.4013084714597568
 21
79.686793142274837
 31
0.0
  0
LINE
  5
5B1
  8
0
 10
82.4013084714597568
 20
79.686793142274837
 30
0.0
 11
32.4013084714597426
 21
79.5282098974811902
 31
0.0
  0
LINE
  5
5B2
  8
0
 10
32.4013084714597426
 20
79.5282098974811902
 30
0.0
 11
32.4013084714597426
 21
48.5324308563981006
 31
0.0
  0
POLYLINE
  5
65B
  8
0
 62
    32
 66
     1
 10
0.0
 20
0.0
 30
0.0
 70
     1
  0
VERTEX
  5
959
  8
0
 62
    32
 10
76.6513084714597426
 20
107.2282098974796014
 30
0.0
  0
VERTEX
  5
95A
  8
0
 62
    32
 10
110.1513084714596999
 20
107.2282098974787061
 30
0.0
  0
VERTEX
  5
95B
  8
0
 62
    32
 10
110.1513084714596999
 20
91.0282098974880114
 30
0.0
  0
VERTEX
  5
95C
  8
0
 62
    32
 10
117.7513084714583016
 20
91.0282098974798259
 30
0.0
  0
VERTEX
  5
95D
  8
0
 62
    32
 10
117.7513084714583016
 20
81.5282098974798259
 30
0.0
  0
VERTEX
  5
95E
  8
0
 62
    32
 10
116.7513084714583016
 20
81.5282098974807354
 30
0.0
  0
VERTEX
  5
95F
  8
0
 62
    32
 10
116.7513084714583016
 20
79.5282098974798259
 30
0.0
  0
VERTEX
  5
960
  8
0
 62
    32
 10
119.7513084714583016
 20
79.5282098974798259
 30
0.0
  0
VERTEX
  5
961
  8
0
 62
    32
 10
119.7513084714583016
 20
93.7782098974798259
 30
0.0
  0
VERTEX
  5
962
  8
0
 62
    32
 10
117.7513084714583016
 20
93.7782098974798259
 30
0.0
  0
VERTEX
  5
963
  8
0
 62
    32
 10
117.7513084714583016
 20
93.0282098974789164
 30
0.0
  0
VERTEX
  5
964
  8
0
 62
    32
 10
112.1513084714596999
 20
93.0282098974807354
 30
0.0
  0
VERTEX
  5
965
  8
0
 62
    32
 10
112.1513084714596999
 20
96.4282098974803858
 30
0.0
  0
VERTEX
  5
966
  8
0
 62
    32
 10
112.1513084714596999
 20
107.2282098974787061
 30
0.0
 42
0.4142135623730944
  0
VERTEX
  5
967
  8
0
 62
    32
 10
110.1513084714596999
 20
109.2282098974787061
 30
0.0
  0
VERTEX
  5
968
  8
0
 62
    32
 10
39.1513084714596999
 20
109.2282098974787061
 30
0.0
 42
0.4142135623730945
  0
VERTEX
  5
969
  8
0
 62
    32
 10
37.1513084714597426
 20
107.2282098974787061
 30
0.0
  0
VERTEX
  5
96A
  8
0
 62
    32
 10
37.1513084714597284
 20
79.5432753057365858
 30
0.0
  0
VERTEX
  5
96B
  8
0
 62
    32
 10
40.1513084714597426
 20
79.5527903004242063
 30
0.0
  0
VERTEX
  5
96C
  8
0
 62
    32
 10
40.1513084714597426
 20
81.5282098974807354
 30
0.0
  0
VERTEX
  5
96D
  8
0
 62
    32
 10
39.1513084714597426
 20
81.5282098974816449
 30
0.0
  0
VERTEX
  5
96E
  8
0
 62
    32
 10
39.1513084714597568
 20
107.2282098974796014
 30
0.0
  0
VERTEX
  5
96F
  8
0
 62
    32
 10
74.6513084714597426
 20
107.2282098974804967
 30
0.0
  0
VERTEX
  5
970
  8
0
 62
    32
 10
74.6513084714597426
 20
79.6622127393318209
 30
0.0
  0
VERTEX
  5
971
  8
0
 62
    32
 10
77.6513084714597426
 20
79.6717277340194414
 30
0.0
  0
VERTEX
  5
972
  8
0
 62
    32
 10
77.6513084714597426
 20
81.5282098974816449
 30
0.0
  0
VERTEX
  5
973
  8
0
 62
    32
 10
76.6513084714597426
 20
81.5282098974825544
 30
0.0
  0
SEQEND
  5
974
  8
0
 62
    32
  0
POLYLINE
  5
65C
  8
0
 62
    32
 66
     1
 10
0.0
 20
0.0
 30
0.0
 70
     1
  0
VERTEX
  5
975
  8
0
 62
    32
 10
82.4013084714597568
 20
79.686793142274837
 30
0.0
  0
VERTEX
  5
976
  8
0
 62
    32
 10
77.6513084714597426
 20
79.6717277340194414
 30
0.0
  0
VERTEX
  5
977
  8
0
 62
    32
 10
77.6513084714597426
 20
79.5282098974816449
 30
0.0
  0
VERTEX
  5
978
  8
0
 62
    32
 10
74.6513084714597568
 20
79.5282098974816449
 30
0.0
  0
VERTEX
  5
979
  8
0
 62
    32
 10
74.6513084714597426
 20
79.6622127393318209
 30
0.0
  0
VERTEX
  5
97A
  8
0
 62
    32
 10
40.1513084714597497
 20
79.5527903004242063
 30
0.0
  0
VERTEX
  5
97B
  8
0
 62
    32
 10
40.1513084714597284
 20
79.5282098974807354
 30
0.0
  0
VERTEX
  5
97C
  8
0
 62
    32
 10
37.1513084714597284
 20
79.5282098974807354
 30
0.0
  0
VERTEX
  5
97D
  8
0
 62
    32
 10
37.1513084714597284
 20
79.5432753057365858
 30
0.0
  0
VERTEX
  5
97E
  8
0
 62
    32
 10
32.4013084714597284
 20
79.5282098974811902
 30
0.0
  0
VERTEX
  5
97F
  8
0
 62
    32
 10
32.401308471459771
 20
48.5282098974816378
 30
0.0
  0
VERTEX
  5
980
  8
0
 62
    32
 10
82.4013084714597568
 20
48.5282098974816378
 30
0.0
  0
SEQEND
  5
981
  8
0
 62
    32
  0
POLYLINE
  5
65D
  8
0
 62
    32
 66
     1
 10
0.0
 20
0.0
 30
0.0
 70
     1
  0
VERTEX
  5
982
  8
0
 62
    32
 10
158.8513084714568038
 20
93.5282098974807354
 30
0.0
 42
-0.4142135623730951
  0
VERTEX
  5
983
  8
0
 62
    32
 10
159.3513084714568038
 20
94.0282098974807354
 30
0.0
  0
VERTEX
  5
984
  8
0
 62
    32
 10
173.5513084714538934
 20
94.0282098974807354
 30
0.0
  0
VERTEX
  5
985
  8
0
 62
    32
 10
173.5513084714538934
 20
90.6282098974820087
 30
0.0
  0
VERTEX
  5
986
  8
0
 62
    32
 10
183.1513084714597142
 20
90.6282098974820087
 30
0.0
  0
VERTEX
  5
987
  8
0
 62
    32
 10
183.1513084714597142
 20
92.6282098974820087
 30
0.0
  0
VERTEX
  5
988
  8
0
 62
    32
 10
178.1513084714597142
 20
92.6282098974820087
 30
0.0
  0
VERTEX
  5
989
  8
0
 62
    32
 10
178.1513084714597142
 20
96.5282098974807354
 30
0.0
  0
VERTEX
  5
98A
  8
0
 62
    32
 10
156.8513084714568038
 20
96.5282098974807354
 30
0.0
 42
0.4142135623730951
  0
VERTEX
  5
98B
  8
0
 62
    32
 10
156.3513084714568038
 20
96.0282098974807354
 30
0.0
  0
VERTEX
  5
98C
  8
0
 62
    32
 10
156.3513084714568038
 20
89.0282098974807354
 30
0.0
 42
-0.4142135623730951
  0
VERTEX
  5
98D
  8
0
 62
    32
 10
155.8513084714568038
 20
88.5282098974807354
 30
0.0
  0
VERTEX
  5
98E
  8
0
 62
    32
 10
152.1013084714568038
 20
88.5282098974807354
 30
0.0
  0
VERTEX
  5
98F
  8
0
 62
    32
 10
151.6013084714568038
 20
88.0282098974807354
 30
0.0
  0
VERTEX
  5
990
  8
0
 62
    32
 10
151.1013084714568038
 20
88.5282098974807354
 30
0.0
  0
VERTEX
  5
991
  8
0
 62
    32
 10
147.5576354386296885
 20
88.5282098974807354
 30
0.0
 42
-0.3550928276014561
  0
VERTEX
  5
992
  8
0
 62
    32
 10
147.0682047028585941
 20
88.9259477104969136
 30
0.0
  0
VERTEX
  5
993
  8
0
 62
    32
 10
145.8537467823981046
 20
94.7383897389265144
 30
0.0
 42
0.812653934350002
  0
VERTEX
  5
994
  8
0
 62
    32
 10
141.4488701605069991
 20
94.7383897389265712
 30
0.0
  0
VERTEX
  5
995
  8
0
 62
    32
 10
140.2344122400448043
 20
88.9259477104896945
 30
0.0
 42
-0.3550928276014471
  0
VERTEX
  5
996
  8
0
 62
    32
 10
139.744981504282606
 20
88.5282098974807354
 30
0.0
  0
VERTEX
  5
997
  8
0
 62
    32
 10
136.201308471448101
 20
88.5282098974807354
 30
0.0
  0
VERTEX
  5
998
  8
0
 62
    32
 10
135.701308471448101
 20
88.0282098974807354
 30
0.0
  0
VERTEX
  5
999
  8
0
 62
    32
 10
135.201308471448101
 20
88.5282098974807354
 30
0.0
  0
VERTEX
  5
99A
  8
0
 62
    32
 10
131.451308471448101
 20
88.5282098974807354
 30
0.0
 42
-0.4142135623730951
  0
VERTEX
  5
99B
  8
0
 62
    32
 10
130.951308471448101
 20
89.0282098974807354
 30
0.0
  0
VERTEX
  5
99C
  8
0
 62
    32
 10
130.951308471448101
 20
96.2782098974807354
 30
0.0
 42
0.4142135623730951
  0
VERTEX
  5
99D
  8
0
 62
    32
 10
130.701308471448101
 20
96.5282098974807354
 30
0.0
  0
VERTEX
  5
99E
  8
0
 62
    32
 10
115.1513084714596999
 20
96.5282098974807354
 30
0.0
  0
VERTEX
  5
99F
  8
0
 62
    32
 10
114.6513084714596999
 20
96.0282098974807354
 30
0.0
  0
VERTEX
  5
9A0
  8
0
 62
    32
 10
114.1513084714596999
 20
96.5282098974807354
 30
0.0
  0
VERTEX
  5
9A1
  8
0
 62
    32
 10
112.251308471455701
 20
96.5282098974807354
 30
0.0
 42
0.4142135623730951
  0
VERTEX
  5
9A2
  8
0
 62
    32
 10
112.1513084714596999
 20
96.4282098974848054
 30
0.0
  0
VERTEX
  5
9A3
  8
0
 62
    32
 10
112.1513084714596999
 20
93.0282098974807354
 30
0.0
  0
VERTEX
  5
9A4
  8
0
 62
    32
 10
117.1513084714596999
 20
93.0282098974807354
 30
0.0
  0
VERTEX
  5
9A5
  8
0
 62
    32
 10
117.1513084714596999
 20
94.0282098974807354
 30
0.0
  0
VERTEX
  5
9A6
  8
0
 62
    32
 10
127.951308471448101
 20
94.0282098974807354
 30
0.0
 42
-0.4142135623730951
  0
VERTEX
  5
9A7
  8
0
 62
    32
 10
128.451308471448101
 20
93.5282098974807354
 30
0.0
  0
VERTEX
  5
9A8
  8
0
 62
    32
 10
128.451308471448101
 20
79.7782098974807354
 30
0.0
 42
0.4142135623730951
  0
VERTEX
  5
9A9
  8
0
 62
    32
 10
128.701308471448101
 20
79.5282098974807354
 30
0.0
  0
VERTEX
  5
9AA
  8
0
 62
    32
 10
130.701308471448101
 20
79.5282098974807354
 30
0.0
 42
0.4142135623723537
  0
VERTEX
  5
9AB
  8
0
 62
    32
 10
130.951308471448101
 20
79.7782098974800959
 30
0.0
  0
VERTEX
  5
9AC
  8
0
 62
    32
 10
130.9513084714625961
 20
85.5282098974820002
 30
0.0
 42
-0.4142135623723542
  0
VERTEX
  5
9AD
  8
0
 62
    32
 10
131.4513084714625961
 20
86.0282098974807354
 30
0.0
  0
VERTEX
  5
9AE
  8
0
 62
    32
 10
141.6513084714597142
 20
86.0282098974807354
 30
0.0
 42
-0.4142135623730951
  0
VERTEX
  5
9AF
  8
0
 62
    32
 10
142.1513084714597142
 20
85.5282098974807354
 30
0.0
  0
VERTEX
  5
9B0
  8
0
 62
    32
 10
142.1513084714597142
 20
79.7782098974807354
 30
0.0
 42
0.4142135623730951
  0
VERTEX
  5
9B1
  8
0
 62
    32
 10
142.4013084714597142
 20
79.5282098974807354
 30
0.0
  0
VERTEX
  5
9B2
  8
0
 62
    32
 10
144.9013084714597142
 20
79.5282098974807354
 30
0.0
 42
0.4142135623730951
  0
VERTEX
  5
9B3
  8
0
 62
    32
 10
145.1513084714597142
 20
79.7782098974807354
 30
0.0
  0
VERTEX
  5
9B4
  8
0
 62
    32
 10
145.1513084714597142
 20
85.5282098974807354
 30
0.0
 42
-0.4142135623730951
  0
VERTEX
  5
9B5
  8
0
 62
    32
 10
145.6513084714597142
 20
86.0282098974807354
 30
0.0
  0
VERTEX
  5
9B6
  8
0
 62
    32
 10
155.8513084714568038
 20
86.0282098974807354
 30
0.0
 42
-0.4142135623730951
  0
VERTEX
  5
9B7
  8
0
 62
    32
 10
156.3513084714568038
 20
85.5282098974807354
 30
0.0
  0
VERTEX
  5
9B8
  8
0
 62
    32
 10
156.3513084714568038
 20
79.7782098974807354
 30
0.0
 42
0.4142135623730951
  0
VERTEX
  5
9B9
  8
0
 62
    32
 10
156.6013084714568038
 20
79.5282098974807354
 30
0.0
  0
VERTEX
  5
9BA
  8
0
 62
    32
 10
158.6013084714568038
 20
79.5282098974807354
 30
0.0
 42
0.4142135623730951
  0
VERTEX
  5
9BB
  8
0
 62
    32
 10
158.8513084714568038
 20
79.7782098974807354
 30
0.0
  0
SEQEND
  5
9BC
  8
0
 62
    32
  0
POLYLINE
  5
65E
  8
0
 62
    32
 66
     1
 10
0.0
 20
0.0
 30
0.0
 70
     1
  0
VERTEX
  5
9BD
  8
0
 62
    32
 10
313.6805652502288808
 20
79.528209897482995
 30
0.0
  0
VERTEX
  5
9BE
  8
0
 62
    32
 10
313.6805652502288808
 20
106.5239889385506018
 30
0.0
  0
VERTEX
  5
9BF
  8
0
 62
    32
 10
309.6805652502288808
 20
106.5239889385514971
 30
0.0
  0
VERTEX
  5
9C0
  8
0
 62
    32
 10
309.6805652502288808
 20
81.5282098974825544
 30
0.0
 42
-0.4142135623730951
  0
VERTEX
  5
9C1
  8
0
 62
    32
 10
307.6805652502288808
 20
79.5282098974825544
 30
0.0
  0
VERTEX
  5
9C2
  8
0
 62
    32
 10
109.680565250228895
 20
79.5282098974816449
 30
0.0
 42
0.4142135623730934
  0
VERTEX
  5
9C3
  8
0
 62
    32
 10
105.680565250228895
 20
75.5282098974816449
 30
0.0
  0
VERTEX
  5
9C4
  8
0
 62
    32
 10
105.680565250228895
 20
50.5282098974816378
 30
0.0
 42
-0.4142135623730951
  0
VERTEX
  5
9C5
  8
0
 62
    32
 10
103.680565250228895
 20
48.5282098974816378
 30
0.0
  0
VERTEX
  5
9C6
  8
0
 62
    32
 10
21.6805652502289412
 20
48.5282098974816378
 30
0.0
 42
0.4142135623730951
  0
VERTEX
  5
9C7
  8
0
 62
    32
 10
17.6805652502289412
 20
44.5282098974816378
 30
0.0
  0
VERTEX
  5
9C8
  8
0
 62
    32
 10
17.6805652502289412
 20
22.5282098974816485
 30
0.0
  0
VERTEX
  5
9C9
  8
0
 62
    32
 10
21.6805652502289199
 20
22.5282098974816485
 30
0.0
  0
VERTEX
  5
9CA
  8
0
 62
    32
 10
21.6805652502289412
 20
42.5282098974825473
 30
0.0
 42
-0.4142135623730992
  0
VERTEX
  5
9CB
  8
0
 62
    32
 10
23.6805652502289696
 20
44.5282098974825473
 30
0.0
  0
VERTEX
  5
9CC
  8
0
 62
    32
 10
105.680565250228895
 20
44.5282098974816378
 30
0.0
 42
0.4142135623730982
  0
VERTEX
  5
9CD
  8
0
 62
    32
 10
109.680565250228895
 20
48.5282098974816378
 30
0.0
  0
VERTEX
  5
9CE
  8
0
 62
    32
 10
109.680565250228895
 20
73.5282098974816449
 30
0.0
 42
-0.4142135623730919
  0
VERTEX
  5
9CF
  8
0
 62
    32
 10
111.680565250228895
 20
75.5282098974816449
 30
0.0
  0
VERTEX
  5
9D0
  8
0
 62
    32
 10
309.6805652502293924
 20
75.5282098974834639
 30
0.0
 42
0.4142135623730919
  0
SEQEND
  5
9D1
  8
0
 62
    32
  0
ENDSEC
  0
EOF
