  0
SECTION
  2
HEADER
  9
$ACADVER
  1
AC1009
  9
$INSBASE
 10
0.0
 20
0.0
 30
0.0
  9
$EXTMIN
 10
-194.5594540058447137
 20
-62.0851930630907631
 30
0.0
  9
$EXTMAX
 10
207.1187912438446119
 20
72.7772457024755113
 30
0.0
  9
$LIMMIN
 10
0.0
 20
0.0
  9
$LIMMAX
 10
420.0
 20
297.0
  9
$ORTHOMODE
 70
     1
  9
$REGENMODE
 70
     1
  9
$FILLMODE
 70
     1
  9
$QTEXTMODE
 70
     0
  9
$MIRRTEXT
 70
     0
  9
$DRAGMODE
 70
     2
  9
$LTSCALE
 40
1.0
  9
$OSMODE
 70
    37
  9
$ATTMODE
 70
     1
  9
$TEXTSIZE
 40
2.5
  9
$TRACEWID
 40
1.0
  9
$TEXTSTYLE
  7
STANDARD
  9
$CLAYER
  8
0
  9
$CELTYPE
  6
BYLAYER
  9
$CECOLOR
 62
    30
  9
$DIMSCALE
 40
1.0
  9
$DIMASZ
 40
2.5
  9
$DIMEXO
 40
0.625
  9
$DIMDLI
 40
3.75
  9
$DIMRND
 40
0.0
  9
$DIMDLE
 40
0.0
  9
$DIMEXE
 40
1.25
  9
$DIMTP
 40
0.0
  9
$DIMTM
 40
0.0
  9
$DIMTXT
 40
2.5
  9
$DIMCEN
 40
2.5
  9
$DIMTSZ
 40
0.0
  9
$DIMTOL
 70
     0
  9
$DIMLIM
 70
     0
  9
$DIMTIH
 70
     0
  9
$DIMTOH
 70
     0
  9
$DIMSE1
 70
     0
  9
$DIMSE2
 70
     0
  9
$DIMTAD
 70
     1
  9
$DIMZIN
 70
     8
  9
$DIMBLK
  1

  9
$DIMASO
 70
     1
  9
$DIMSHO
 70
     1
  9
$DIMPOST
  1

  9
$DIMAPOST
  1

  9
$DIMALT
 70
     0
  9
$DIMALTD
 70
     3
  9
$DIMALTF
 40
0.03937007874016
  9
$DIMLFAC
 40
1.0
  9
$DIMTOFL
 70
     1
  9
$DIMTVP
 40
0.0
  9
$DIMTIX
 70
     0
  9
$DIMSOXD
 70
     0
  9
$DIMSAH
 70
     0
  9
$DIMBLK1
  1

  9
$DIMBLK2
  1

  9
$DIMSTYLE
  2
ISO-25
  9
$DIMCLRD
 70
     0
  9
$DIMCLRE
 70
     0
  9
$DIMCLRT
 70
     0
  9
$DIMTFAC
 40
1.0
  9
$DIMGAP
 40
0.625
  9
$LUNITS
 70
     2
  9
$LUPREC
 70
     4
  9
$SKETCHINC
 40
1.0
  9
$FILLETRAD
 40
0.0
  9
$AUNITS
 70
     0
  9
$AUPREC
 70
     0
  9
$MENU
  1
.
  9
$ELEVATION
 40
0.0
  9
$PELEVATION
 40
0.0
  9
$THICKNESS
 40
0.0
  9
$LIMCHECK
 70
     0
  9
$BLIPMODE
 70
     0
  9
$CHAMFERA
 40
0.0
  9
$CHAMFERB
 40
0.0
  9
$SKPOLY
 70
     0
  9
$TDCREATE
 40
2458877.9304629629477859
  9
$TDUPDATE
 40
2458877.9763888888992369
  9
$TDINDWG
 40
0.0164236111
  9
$TDUSRTIMER
 40
0.0164236111
  9
$USRTIMER
 70
     1
  9
$ANGBASE
 50
0.0
  9
$ANGDIR
 70
     0
  9
$PDMODE
 70
     0
  9
$PDSIZE
 40
0.0
  9
$PLINEWID
 40
0.0
  9
$COORDS
 70
     1
  9
$SPLFRAME
 70
     0
  9
$SPLINETYPE
 70
     6
  9
$SPLINESEGS
 70
     8
  9
$ATTDIA
 70
     1
  9
$ATTREQ
 70
     1
  9
$HANDLING
 70
     1
  9
$HANDSEED
  5
EEC
  9
$SURFTAB1
 70
     6
  9
$SURFTAB2
 70
     6
  9
$SURFTYPE
 70
     6
  9
$SURFU
 70
     6
  9
$SURFV
 70
     6
  9
$UCSNAME
  2

  9
$UCSORG
 10
0.0
 20
0.0
 30
0.0
  9
$UCSXDIR
 10
1.0
 20
0.0
 30
0.0
  9
$UCSYDIR
 10
0.0
 20
1.0
 30
0.0
  9
$PUCSNAME
  2

  9
$PUCSORG
 10
0.0
 20
0.0
 30
0.0
  9
$PUCSXDIR
 10
1.0
 20
0.0
 30
0.0
  9
$PUCSYDIR
 10
0.0
 20
1.0
 30
0.0
  9
$USERI1
 70
     0
  9
$USERI2
 70
     0
  9
$USERI3
 70
     0
  9
$USERI4
 70
     0
  9
$USERI5
 70
     0
  9
$USERR1
 40
0.0
  9
$USERR2
 40
0.0
  9
$USERR3
 40
0.0
  9
$USERR4
 40
0.0
  9
$USERR5
 40
0.0
  9
$WORLDVIEW
 70
     1
  9
$SHADEDGE
 70
     3
  9
$SHADEDIF
 70
    70
  9
$TILEMODE
 70
     1
  9
$MAXACTVP
 70
    64
  9
$PLIMCHECK
 70
     0
  9
$PEXTMIN
 10
0.0
 20
0.0
 30
0.0
  9
$PEXTMAX
 10
0.0
 20
0.0
 30
0.0
  9
$PLIMMIN
 10
0.0
 20
0.0
  9
$PLIMMAX
 10
12.0
 20
9.0
  9
$UNITMODE
 70
     0
  9
$VISRETAIN
 70
     1
  9
$PLINEGEN
 70
     0
  9
$PSLTSCALE
 70
     1
  0
ENDSEC
  0
SECTION
  2
TABLES
  0
TABLE
  2
VPORT
 70
     1
  0
VPORT
  2
*ACTIVE
 70
     0
 10
0.0
 20
0.0
 11
1.0
 21
1.0
 12
34.1564316547541225
 22
-11.4236333771377705
 13
0.0
 23
0.0
 14
10.0
 24
10.0
 15
10.0
 25
10.0
 16
0.0
 26
0.0
 36
1.0
 17
0.0
 27
0.0
 37
0.0
 40
95.4914655696736645
 41
2.318681318681318
 42
50.0
 43
0.0
 44
0.0
 50
0.0
 51
0.0
 71
     0
 72
  1000
 73
     1
 74
     3
 75
     0
 76
     1
 77
     0
 78
     0
  0
ENDTAB
  0
TABLE
  2
LTYPE
 70
     3
  0
LTYPE
  2
CONTINUOUS
 70
     0
  3
Solid line
 72
    65
 73
     0
 40
0.0
  0
ENDTAB
  0
TABLE
  2
LAYER
 70
     4
  0
LAYER
  2
0
 70
     0
 62
     7
  6
CONTINUOUS
  0
ENDTAB
  0
TABLE
  2
STYLE
 70
     2
  0
STYLE
  2
STANDARD
 70
     0
 40
0.0
 41
1.0
 50
0.0
 71
     0
 42
2.5
  3
txt
  4

  0
ENDTAB
  0
TABLE
  2
VIEW
 70
     0
  0
ENDTAB
  0
TABLE
  2
UCS
 70
     0
  0
ENDTAB
  0
TABLE
  2
APPID
 70
    15
  0
APPID
  2
ACAD
 70
     0
  0
APPID
  2
ACADANNOTATIVE
 70
     0
  0
APPID
  2
ACAD_PSEXT
 70
     0
  0
APPID
  2
ACADANNOPO
 70
     0
  0
APPID
  2
ACAD_DSTYLE_DIMJAG
 70
     0
  0
APPID
  2
ACAD_DSTYLE_DIMTALN
 70
     0
  0
APPID
  2
ACAD_MLEADERVER
 70
     0
  0
APPID
  2
ACAD_NAV_VCDISPLAY
 70
     0
  0
APPID
  2
ACAECLAYERSTANDARD
 70
     0
  0
APPID
  2
ACCMTRANSPARENCY
 70
     0
  0
APPID
  2
ACDBBLOCKREPETAG
 70
     0
  0
APPID
  2
ACAD_EXEMPT_FROM_CAD_STANDARDS
 70
     0
  0
APPID
  2
ACDBDYNAMICBLOCKGUID
 70
     0
  0
APPID
  2
GRADIENTCOLOR1ACI
 70
     0
  0
APPID
  2
GRADIENTCOLOR2ACI
 70
     0
  0
ENDTAB
  0
TABLE
  2
DIMSTYLE
 70
     4
  0
DIMSTYLE
  2
STANDARD
 70
     0
  3

  4

  5

  6

  7

 40
1.0
 41
0.18
 42
0.0625
 43
0.38
 44
0.18
 45
0.0
 46
0.0
 47
0.0
 48
0.0
140
0.18
141
0.09
142
0.0
143
25.3999999999999986
144
1.0
145
0.0
146
1.0
147
0.09
 71
     0
 72
     0
 73
     1
 74
     1
 75
     0
 76
     0
 77
     0
 78
     0
170
     0
171
     2
172
     0
173
     0
174
     0
175
     0
176
     0
177
     0
178
     0
  0
DIMSTYLE
  2
ISO-25
 70
     0
  3

  4

  5

  6

  7

 40
1.0
 41
2.5
 42
0.625
 43
3.75
 44
1.25
 45
0.0
 46
0.0
 47
0.0
 48
0.0
140
2.5
141
2.5
142
0.0
143
0.03937007874016
144
1.0
145
0.0
146
1.0
147
0.625
 71
     0
 72
     0
 73
     0
 74
     0
 75
     0
 76
     0
 77
     1
 78
     8
170
     0
171
     3
172
     1
173
     0
174
     0
175
     0
176
     0
177
     0
178
     0
  0
ENDTAB
  0
ENDSEC
  0
SECTION
  2
BLOCKS
  0
BLOCK
  8
0
  2
$MODEL_SPACE
 70
     0
 10
0.0
 20
0.0
 30
0.0
  3
$MODEL_SPACE
  1

  0
ENDBLK
  5
820
  8
0
  0
BLOCK
 67
     1
  8
0
  2
$PAPER_SPACE
 70
     0
 10
0.0
 20
0.0
 30
0.0
  3
$PAPER_SPACE
  1

  0
ENDBLK
  5
81C
 67
     1
  8
0
  0
ENDSEC
  0
SECTION
  2
ENTITIES
  0
POLYLINE
  5
DCE
  8
0
 62
    30
 66
     1
 10
0.0
 20
0.0
 30
0.0
 70
     1
  0
VERTEX
  5
E2F
  8
0
 62
    30
 10
18.8475318685248112
 20
13.9757054118390993
 30
0.0
  0
VERTEX
  5
E30
  8
0
 62
    30
 10
18.5349872268479494
 20
14.1561531448398998
 30
0.0
 42
0.131652497587771
  0
VERTEX
  5
E31
  8
0
 62
    30
 10
18.4774872268477992
 20
14.1715602234047502
 30
0.0
  0
VERTEX
  5
E32
  8
0
 62
    30
 10
17.448618755648539
 20
14.1715602234040592
 30
0.0
 42
-0.2914734195864907
  0
VERTEX
  5
E33
  8
0
 62
    30
 10
17.1767264195366494
 20
14.3447747448824305
 30
0.0
  0
VERTEX
  5
E34
  8
0
 62
    30
 10
15.7295075146429895
 20
17.4483457019256107
 30
0.0
 42
0.291473419586365
  0
VERTEX
  5
E35
  8
0
 62
    30
 10
15.45761517853105
 20
17.6215602234041206
 30
0.0
  0
VERTEX
  5
E36
  8
0
 62
    30
 10
12.3475318685248094
 20
17.6215602234034208
 30
0.0
  0
VERTEX
  5
E37
  8
0
 62
    30
 10
9.2374485585185724
 20
17.6215602234040603
 30
0.0
 42
0.2914734195863481
  0
VERTEX
  5
E38
  8
0
 62
    30
 10
8.9655562224066685
 20
17.4483457019255894
 30
0.0
  0
VERTEX
  5
E39
  8
0
 62
    30
 10
7.5183373175128407
 20
14.3447747448824696
 30
0.0
 42
-0.2914734195863763
  0
VERTEX
  5
E3A
  8
0
 62
    30
 10
7.2464449814011864
 20
14.1715602234041693
 30
0.0
  0
VERTEX
  5
E3B
  8
0
 62
    30
 10
6.2175765102017797
 20
14.1715602234047306
 30
0.0
 42
0.1316524975877386
  0
VERTEX
  5
E3C
  8
0
 62
    30
 10
6.1600765102016437
 20
14.1561531448398803
 30
0.0
  0
VERTEX
  5
E3D
  8
0
 62
    30
 10
5.8475318685248139
 20
13.9757054118344008
 30
0.0
  0
VERTEX
  5
E3E
  8
0
 62
    30
 10
5.8475318685248139
 20
7.3287859931146446
 30
0.0
  0
VERTEX
  5
E3F
  8
0
 62
    30
 10
6.1600765102030621
 20
7.1483382601134666
 30
0.0
 42
0.1316524975840751
  0
VERTEX
  5
E40
  8
0
 62
    30
 10
6.217576510201769
 20
7.1329311815494396
 30
0.0
  0
VERTEX
  5
E41
  8
0
 62
    30
 10
7.2464449814012246
 20
7.1329311815496608
 30
0.0
 42
-0.291473419586359
  0
VERTEX
  5
E42
  8
0
 62
    30
 10
7.5183373175129553
 20
6.9597166600712921
 30
0.0
  0
VERTEX
  5
E43
  8
0
 62
    30
 10
8.9655562224066312
 20
3.8561457030281319
 30
0.0
 42
0.2914734195863628
  0
VERTEX
  5
E44
  8
0
 62
    30
 10
9.2374485585185795
 20
3.682931181549626
 30
0.0
  0
VERTEX
  5
E45
  8
0
 62
    30
 10
12.3475318685248094
 20
3.6829311815503099
 30
0.0
  0
VERTEX
  5
E46
  8
0
 62
    30
 10
15.45761517853105
 20
3.6829311815496708
 30
0.0
 42
0.2914734195863444
  0
VERTEX
  5
E47
  8
0
 62
    30
 10
15.7295075146429202
 20
3.8561457030281239
 30
0.0
  0
VERTEX
  5
E48
  8
0
 62
    30
 10
17.1767264195367808
 20
6.9597166600712654
 30
0.0
 42
-0.2914734195863124
  0
VERTEX
  5
E49
  8
0
 62
    30
 10
17.4486187556483685
 20
7.1329311815495577
 30
0.0
  0
VERTEX
  5
E4A
  8
0
 62
    30
 10
18.4774872268478703
 20
7.132931181549468
 30
0.0
 42
0.1316524975871176
  0
VERTEX
  5
E4B
  8
0
 62
    30
 10
18.5349872268477611
 20
7.1483382601141869
 30
0.0
  0
VERTEX
  5
E4C
  8
0
 62
    30
 10
18.8475318685248112
 20
7.328785993119717
 30
0.0
  0
SEQEND
  5
E4D
  8
0
 62
    30
  0
POLYLINE
  5
DCF
  8
0
 62
    30
 66
     1
 10
0.0
 20
0.0
 30
0.0
 70
     1
  0
VERTEX
  5
E4E
  8
0
 62
    30
 10
18.3306940819807913
 20
5.0162069921137213
 30
0.0
 42
-0.4581651431011832
  0
VERTEX
  5
E4F
  8
0
 62
    30
 10
19.0650467001376107
 20
5.2014269295700331
 30
0.0
  0
VERTEX
  5
E50
  8
0
 62
    30
 10
20.5867623530664297
 20
4.1329311815492122
 30
0.0
  0
VERTEX
  5
E51
  8
0
 62
    30
 10
21.0475318685223414
 20
4.1329311815498944
 30
0.0
 42
0.4142135623726804
  0
VERTEX
  5
E52
  8
0
 62
    30
 10
21.3475318685222994
 20
4.4329311815503232
 30
0.0
  0
VERTEX
  5
E53
  8
0
 62
    30
 10
21.3475318685220685
 20
8.0329311815488822
 30
0.0
 42
0.4142135623725021
  0
VERTEX
  5
E54
  8
0
 62
    30
 10
21.0475318685224693
 20
8.3329311815490446
 30
0.0
  0
VERTEX
  5
E55
  8
0
 62
    30
 10
20.5867623530664297
 20
8.3329311815499452
 30
0.0
  0
VERTEX
  5
E56
  8
0
 62
    30
 10
18.8475318685248112
 20
7.3287859931146446
 30
0.0
  0
VERTEX
  5
E57
  8
0
 62
    30
 10
18.5349872268477611
 20
7.148338260114186
 30
0.0
  0
VERTEX
  5
E58
  8
0
 62
    30
 10
18.5083013839879307
 20
7.1329311815494663
 30
0.0
  0
VERTEX
  5
E59
  8
0
 62
    30
 10
17.4486187556483685
 20
7.1329311815495569
 30
0.0
 42
0.2914734195863106
  0
VERTEX
  5
E5A
  8
0
 62
    30
 10
17.1767264195367808
 20
6.9597166600712654
 30
0.0
  0
VERTEX
  5
E5B
  8
0
 62
    30
 10
15.7295075146429202
 20
3.8561457030281239
 30
0.0
 42
-0.2914734195863445
  0
VERTEX
  5
E5C
  8
0
 62
    30
 10
15.45761517853105
 20
3.6829311815496708
 30
0.0
  0
VERTEX
  5
E5D
  8
0
 62
    30
 10
12.3475318685248094
 20
3.6829311815503099
 30
0.0
  0
VERTEX
  5
E5E
  8
0
 62
    30
 10
9.2374485585185795
 20
3.682931181549626
 30
0.0
 42
-0.2914734195863628
  0
VERTEX
  5
E5F
  8
0
 62
    30
 10
8.9655562224066312
 20
3.8561457030281319
 30
0.0
  0
VERTEX
  5
E60
  8
0
 62
    30
 10
7.5183373175129553
 20
6.9597166600712921
 30
0.0
 42
0.2914734195863588
  0
VERTEX
  5
E61
  8
0
 62
    30
 10
7.2464449814012246
 20
7.1329311815496608
 30
0.0
  0
VERTEX
  5
E62
  8
0
 62
    30
 10
6.2175765102017726
 20
7.1329311815494396
 30
0.0
  0
VERTEX
  5
E63
  8
0
 62
    30
 10
6.1867623530734006
 20
7.132931181549198
 30
0.0
  0
VERTEX
  5
E64
  8
0
 62
    30
 10
5.8475318685248139
 20
7.3287859931146482
 30
0.0
  0
VERTEX
  5
E65
  8
0
 62
    30
 10
4.1083013839831963
 20
8.3329311815499452
 30
0.0
  0
VERTEX
  5
E66
  8
0
 62
    30
 10
3.6475318685272731
 20
8.3329311815492613
 30
0.0
 42
0.4142135623726732
  0
VERTEX
  5
E67
  8
0
 62
    30
 10
3.347531868527319
 20
8.032931181548836
 30
0.0
  0
VERTEX
  5
E68
  8
0
 62
    30
 10
3.3475318685275459
 20
4.432931181550285
 30
0.0
 42
0.4142135623724974
  0
VERTEX
  5
E69
  8
0
 62
    30
 10
3.647531868527135
 20
4.1329311815501217
 30
0.0
  0
VERTEX
  5
E6A
  8
0
 62
    30
 10
4.1083013839831963
 20
4.1329311815492114
 30
0.0
  0
VERTEX
  5
E6B
  8
0
 62
    30
 10
5.6300170369116671
 20
5.2014269295696698
 30
0.0
 42
-0.4394995507071897
  0
VERTEX
  5
E6C
  8
0
 62
    30
 10
6.3495969784588411
 20
5.0435363990208586
 30
0.0
  0
VERTEX
  5
E6D
  8
0
 62
    30
 10
7.9124593775811141
 20
2.1522457024769821
 30
0.0
  0
VERTEX
  5
E6E
  8
0
 62
    30
 10
16.7826043594665713
 20
2.1522457024769821
 30
0.0
  0
SEQEND
  5
E6F
  8
0
 62
    30
  0
POLYLINE
  5
DD0
  8
0
 62
    30
 66
     1
 10
0.0
 20
0.0
 30
0.0
 70
     1
  0
VERTEX
  5
E70
  8
0
 62
    30
 10
7.9124593775811816
 20
19.1522457024768897
 30
0.0
  0
VERTEX
  5
E71
  8
0
 62
    30
 10
1.6475318685229321
 20
19.1522457024765416
 30
0.0
 42
0.4142135623730809
  0
VERTEX
  5
E72
  8
0
 62
    30
 10
1.347531868522764
 20
18.8522457024763597
 30
0.0
  0
VERTEX
  5
E73
  8
0
 62
    30
 10
1.347531868522764
 20
2.452245702472676
 30
0.0
 42
0.4142135623733063
  0
VERTEX
  5
E74
  8
0
 62
    30
 10
1.647531868523163
 20
2.152245702472495
 30
0.0
  0
VERTEX
  5
E75
  8
0
 62
    30
 10
7.9124593775811221
 20
2.152245702476983
 30
0.0
  0
VERTEX
  5
E76
  8
0
 62
    30
 10
6.3495969784589006
 20
5.0435363990207467
 30
0.0
 42
0.4394995507072628
  0
VERTEX
  5
E77
  8
0
 62
    30
 10
5.6300170369116671
 20
5.2014269295696689
 30
0.0
  0
VERTEX
  5
E78
  8
0
 62
    30
 10
4.1083013839831919
 20
4.1329311815492114
 30
0.0
  0
VERTEX
  5
E79
  8
0
 62
    30
 10
3.647531868527135
 20
4.1329311815501217
 30
0.0
 42
-0.4142135623725009
  0
VERTEX
  5
E7A
  8
0
 62
    30
 10
3.3475318685275428
 20
4.432931181550285
 30
0.0
  0
VERTEX
  5
E7B
  8
0
 62
    30
 10
3.347531868527315
 20
8.032931181548836
 30
0.0
 42
-0.4142135623726765
  0
VERTEX
  5
E7C
  8
0
 62
    30
 10
3.6475318685272731
 20
8.3329311815492613
 30
0.0
  0
VERTEX
  5
E7D
  8
0
 62
    30
 10
4.1083013839831963
 20
8.3329311815499452
 30
0.0
  0
VERTEX
  5
E7E
  8
0
 62
    30
 10
5.8475318685248139
 20
7.3287859931146446
 30
0.0
  0
VERTEX
  5
E7F
  8
0
 62
    30
 10
5.8475318685248139
 20
13.9757054118390904
 30
0.0
  0
VERTEX
  5
E80
  8
0
 62
    30
 10
4.1083013839831892
 20
12.9715602234038005
 30
0.0
  0
VERTEX
  5
E81
  8
0
 62
    30
 10
3.6475318685269822
 20
12.9715602234049303
 30
0.0
 42
-0.4142135623723746
  0
VERTEX
  5
E82
  8
0
 62
    30
 10
3.3475318685273119
 20
13.2715602234053396
 30
0.0
  0
VERTEX
  5
E83
  8
0
 62
    30
 10
3.347531868527315
 20
16.8715602234034208
 30
0.0
 42
-0.4142135623726575
  0
VERTEX
  5
E84
  8
0
 62
    30
 10
3.6475318685272731
 20
17.17156022340383
 30
0.0
  0
VERTEX
  5
E85
  8
0
 62
    30
 10
4.1083013839831963
 20
17.1715602234045193
 30
0.0
  0
VERTEX
  5
E86
  8
0
 62
    30
 10
5.6300170369121778
 20
16.1030644753844996
 30
0.0
 42
0.4581651430927366
  0
VERTEX
  5
E87
  8
0
 62
    30
 10
6.3643696550626601
 20
16.2882844128286202
 30
0.0
  0
SEQEND
  5
E88
  8
0
 62
    30
  0
POLYLINE
  5
DD1
  8
0
 62
    30
 66
     1
 10
0.0
 20
0.0
 30
0.0
 70
     1
  0
VERTEX
  5
E89
  8
0
 62
    30
 10
8.965556222406672
 20
17.4483457019255894
 30
0.0
 42
-0.2914734195863448
  0
VERTEX
  5
E8A
  8
0
 62
    30
 10
9.2374485585185724
 20
17.6215602234040603
 30
0.0
  0
VERTEX
  5
E8B
  8
0
 62
    30
 10
12.3475318685248094
 20
17.6215602234034208
 30
0.0
  0
VERTEX
  5
E8C
  8
0
 62
    30
 10
15.45761517853105
 20
17.6215602234041206
 30
0.0
 42
-0.291473419586365
  0
VERTEX
  5
E8D
  8
0
 62
    30
 10
15.7295075146429895
 20
17.4483457019256107
 30
0.0
  0
VERTEX
  5
E8E
  8
0
 62
    30
 10
17.1767264195366494
 20
14.3447747448824305
 30
0.0
 42
0.2914734195864255
  0
VERTEX
  5
E8F
  8
0
 62
    30
 10
17.4486187556484715
 20
14.1715602234040592
 30
0.0
  0
VERTEX
  5
E90
  8
0
 62
    30
 10
18.5083013839874617
 20
14.1715602234045299
 30
0.0
  0
VERTEX
  5
E91
  8
0
 62
    30
 10
20.5867623530664297
 20
12.9715602234038005
 30
0.0
  0
VERTEX
  5
E92
  8
0
 62
    30
 10
21.0475318685224906
 20
12.97156022340471
 30
0.0
 42
0.4142135623725178
  0
VERTEX
  5
E93
  8
0
 62
    30
 10
21.3475318685220685
 20
13.2715602234048795
 30
0.0
  0
VERTEX
  5
E94
  8
0
 62
    30
 10
21.3475318685220685
 20
16.8715602234034208
 30
0.0
 42
0.4142135623725117
  0
VERTEX
  5
E95
  8
0
 62
    30
 10
21.0475318685224906
 20
17.1715602234035991
 30
0.0
  0
VERTEX
  5
E96
  8
0
 62
    30
 10
20.5867623530664403
 20
17.1715602234045193
 30
0.0
  0
VERTEX
  5
E97
  8
0
 62
    30
 10
19.0650467001378807
 20
16.1030644753844605
 30
0.0
 42
-0.4394995507115265
  0
VERTEX
  5
E98
  8
0
 62
    30
 10
18.3454667585870794
 20
16.2609550059397101
 30
0.0
  0
VERTEX
  5
E99
  8
0
 62
    30
 10
16.7844723899911585
 20
19.15224570247684
 30
0.0
  0
VERTEX
  5
E9A
  8
0
 62
    30
 10
7.912459377581186
 20
19.1522457024768897
 30
0.0
  0
VERTEX
  5
E9B
  8
0
 62
    30
 10
6.3643696550625988
 20
16.2882844128284994
 30
0.0
 42
-0.4581651430926536
  0
VERTEX
  5
E9C
  8
0
 62
    30
 10
5.6300170369121822
 20
16.1030644753844996
 30
0.0
  0
VERTEX
  5
E9D
  8
0
 62
    30
 10
4.1083013839831963
 20
17.1715602234045193
 30
0.0
  0
VERTEX
  5
E9E
  8
0
 62
    30
 10
3.6475318685272731
 20
17.17156022340383
 30
0.0
 42
0.4142135623726575
  0
VERTEX
  5
E9F
  8
0
 62
    30
 10
3.347531868527315
 20
16.8715602234034208
 30
0.0
  0
VERTEX
  5
EA0
  8
0
 62
    30
 10
3.3475318685273079
 20
13.2715602234053396
 30
0.0
 42
0.414213562372378
  0
VERTEX
  5
EA1
  8
0
 62
    30
 10
3.6475318685269822
 20
12.9715602234049303
 30
0.0
  0
VERTEX
  5
EA2
  8
0
 62
    30
 10
4.108301383983175
 20
12.9715602234038005
 30
0.0
  0
VERTEX
  5
EA3
  8
0
 62
    30
 10
6.1867623530621501
 20
14.1715602234045104
 30
0.0
  0
VERTEX
  5
EA4
  8
0
 62
    30
 10
7.2464449814011864
 20
14.1715602234041693
 30
0.0
 42
0.2914734195863763
  0
VERTEX
  5
EA5
  8
0
 62
    30
 10
7.5183373175128407
 20
14.3447747448824696
 30
0.0
  0
SEQEND
  5
EA6
  8
0
 62
    30
  0
POLYLINE
  5
DD2
  8
0
 62
    30
 66
     1
 10
0.0
 20
0.0
 30
0.0
 70
     1
  0
VERTEX
  5
EA7
  8
0
 62
    30
 10
48.0475318685198616
 20
16.1522457024769892
 30
0.0
 42
-0.414213562373095
  0
VERTEX
  5
EA8
  8
0
 62
    30
 10
48.5475318685198474
 20
16.6522457024769892
 30
0.0
  0
VERTEX
  5
EA9
  8
0
 62
    30
 10
53.4475318685240381
 20
16.6522457024769892
 30
0.0
 42
-0.6546536707081521
  0
VERTEX
  5
EAA
  8
0
 62
    30
 10
54.3640470075129087
 20
16.6522457024769892
 30
0.0
  0
VERTEX
  5
EAB
  8
0
 62
    30
 10
55.347531868522772
 20
16.6522457024769892
 30
0.0
 42
-0.6546536707084119
  0
VERTEX
  5
EAC
  8
0
 62
    30
 10
56.2640470075125592
 20
16.6522457024769892
 30
0.0
  0
VERTEX
  5
EAD
  8
0
 62
    30
 10
66.5475318685162165
 20
16.6522457024769892
 30
0.0
 42
0.4142135623722576
  0
VERTEX
  5
EAE
  8
0
 62
    30
 10
66.8475318685164126
 20
16.9522457024763185
 30
0.0
  0
VERTEX
  5
EAF
  8
0
 62
    30
 10
66.8475318685218554
 20
18.8522457024759191
 30
0.0
 42
0.4142135623739345
  0
VERTEX
  5
EB0
  8
0
 62
    30
 10
66.547531868521645
 20
19.1522457024769892
 30
0.0
  0
VERTEX
  5
EB1
  8
0
 62
    30
 10
46.0475318685198474
 20
19.1522457024769892
 30
0.0
 42
0.4142135623730951
  0
VERTEX
  5
EB2
  8
0
 62
    30
 10
45.5475318685198474
 20
18.6522457024769892
 30
0.0
  0
VERTEX
  5
EB3
  8
0
 62
    30
 10
45.5475318685198474
 20
11.6522457024769892
 30
0.0
 42
-0.4142135623730951
  0
VERTEX
  5
EB4
  8
0
 62
    30
 10
45.0475318685198403
 20
11.1522457024769892
 30
0.0
  0
VERTEX
  5
EB5
  8
0
 62
    30
 10
41.2975318685198403
 20
11.1522457024769892
 30
0.0
  0
VERTEX
  5
EB6
  8
0
 62
    30
 10
40.7975318685198403
 20
10.6522457024769892
 30
0.0
  0
VERTEX
  5
EB7
  8
0
 62
    30
 10
40.2975318685198403
 20
11.1522457024769892
 30
0.0
  0
VERTEX
  5
EB8
  8
0
 62
    30
 10
36.7538588356914531
 20
11.1522457024769892
 30
0.0
 42
-0.3550928276014385
  0
VERTEX
  5
EB9
  8
0
 62
    30
 10
36.2644280999216804
 20
11.5499835154920891
 30
0.0
  0
VERTEX
  5
EBA
  8
0
 62
    30
 10
35.0499701794604874
 20
17.3624255439230595
 30
0.0
 42
0.8126539343499837
  0
VERTEX
  5
EBB
  8
0
 62
    30
 10
30.6450935575702808
 20
17.3624255439229493
 30
0.0
  0
VERTEX
  5
EBC
  8
0
 62
    30
 10
29.4306356371076205
 20
11.5499835154835804
 30
0.0
 42
-0.3550928276014524
  0
VERTEX
  5
EBD
  8
0
 62
    30
 10
28.941204901348339
 20
11.1522457024769892
 30
0.0
  0
VERTEX
  5
EBE
  8
0
 62
    30
 10
25.3975318685111198
 20
11.1522457024769892
 30
0.0
  0
VERTEX
  5
EBF
  8
0
 62
    30
 10
24.8975318685111304
 20
10.6522457024769892
 30
0.0
  0
VERTEX
  5
EC0
  8
0
 62
    30
 10
24.3975318685111198
 20
11.1522457024769892
 30
0.0
  0
VERTEX
  5
EC1
  8
0
 62
    30
 10
23.8475318685103517
 20
11.1522457024769892
 30
0.0
 42
-0.4142135623730952
  0
VERTEX
  5
EC2
  8
0
 62
    30
 10
23.3475318685103588
 20
11.6522457024769803
 30
0.0
  0
VERTEX
  5
EC3
  8
0
 62
    30
 10
23.3475318685103588
 20
18.9022457024769786
 30
0.0
 42
0.4142135623731013
  0
VERTEX
  5
EC4
  8
0
 62
    30
 10
23.097531868510341
 20
19.1522457024769892
 30
0.0
  0
VERTEX
  5
EC5
  8
0
 62
    30
 10
16.7844723899911585
 20
19.15224570247684
 30
0.0
  0
VERTEX
  5
EC6
  8
0
 62
    30
 10
18.3454667585871007
 20
16.2609550059396497
 30
0.0
 42
0.4394995507114897
  0
VERTEX
  5
EC7
  8
0
 62
    30
 10
19.0650467001378807
 20
16.1030644753844605
 30
0.0
  0
VERTEX
  5
EC8
  8
0
 62
    30
 10
20.5867623530664297
 20
17.1715602234045193
 30
0.0
  0
VERTEX
  5
EC9
  8
0
 62
    30
 10
21.0475318685224906
 20
17.1715602234035991
 30
0.0
 42
-0.4142135623725117
  0
VERTEX
  5
ECA
  8
0
 62
    30
 10
21.3475318685220685
 20
16.8715602234034208
 30
0.0
  0
VERTEX
  5
ECB
  8
0
 62
    30
 10
21.3475318685220685
 20
13.2715602234048795
 30
0.0
 42
-0.4142135623725181
  0
VERTEX
  5
ECC
  8
0
 62
    30
 10
21.0475318685224906
 20
12.97156022340471
 30
0.0
  0
VERTEX
  5
ECD
  8
0
 62
    30
 10
20.5867623530664297
 20
12.9715602234038005
 30
0.0
  0
VERTEX
  5
ECE
  8
0
 62
    30
 10
18.8475318685248112
 20
13.9757054118390904
 30
0.0
  0
VERTEX
  5
ECF
  8
0
 62
    30
 10
18.8475318685248112
 20
7.3287859931146446
 30
0.0
  0
VERTEX
  5
ED0
  8
0
 62
    30
 10
20.5867623530664297
 20
8.3329311815499452
 30
0.0
  0
VERTEX
  5
ED1
  8
0
 62
    30
 10
21.0475318685224693
 20
8.3329311815490446
 30
0.0
 42
-0.4142135623725021
  0
VERTEX
  5
ED2
  8
0
 62
    30
 10
21.3475318685220685
 20
8.0329311815488822
 30
0.0
  0
VERTEX
  5
ED3
  8
0
 62
    30
 10
21.3475318685222994
 20
4.4329311815503232
 30
0.0
 42
-0.4142135623726804
  0
VERTEX
  5
ED4
  8
0
 62
    30
 10
21.0475318685223414
 20
4.1329311815498944
 30
0.0
  0
VERTEX
  5
ED5
  8
0
 62
    30
 10
20.5867623530664297
 20
4.1329311815492131
 30
0.0
  0
VERTEX
  5
ED6
  8
0
 62
    30
 10
19.0650467001376107
 20
5.2014269295700331
 30
0.0
 42
0.4581651431011715
  0
VERTEX
  5
ED7
  8
0
 62
    30
 10
18.3306940819807913
 20
5.0162069921137382
 30
0.0
  0
VERTEX
  5
ED8
  8
0
 62
    30
 10
16.7826043594665784
 20
2.1522457024769852
 30
0.0
  0
VERTEX
  5
ED9
  8
0
 62
    30
 10
23.0975318685103517
 20
2.1522457024769901
 30
0.0
 42
0.4142135623723532
  0
VERTEX
  5
EDA
  8
0
 62
    30
 10
23.3475318685103588
 20
2.4022457024763608
 30
0.0
  0
VERTEX
  5
EDB
  8
0
 62
    30
 10
23.3475318685249
 20
8.1522457024782504
 30
0.0
 42
-0.4142135623723542
  0
VERTEX
  5
EDC
  8
0
 62
    30
 10
23.8475318685249
 20
8.6522457024769892
 30
0.0
  0
VERTEX
  5
EDD
  8
0
 62
    30
 10
30.8475318685227684
 20
8.6522457024769892
 30
0.0
 42
-0.4142135623730951
  0
VERTEX
  5
EDE
  8
0
 62
    30
 10
31.3475318685227684
 20
8.1522457024769892
 30
0.0
  0
VERTEX
  5
EDF
  8
0
 62
    30
 10
31.3475318685227684
 20
2.4022457024769892
 30
0.0
 42
0.4142135623730951
  0
VERTEX
  5
EE0
  8
0
 62
    30
 10
31.5975318685227684
 20
2.1522457024769892
 30
0.0
  0
VERTEX
  5
EE1
  8
0
 62
    30
 10
34.097531868522772
 20
2.1522457024769892
 30
0.0
 42
0.4142135623730948
  0
VERTEX
  5
EE2
  8
0
 62
    30
 10
34.3475318685227577
 20
2.402245702476987
 30
0.0
  0
VERTEX
  5
EE3
  8
0
 62
    30
 10
34.3475318685227577
 20
8.1522457024769857
 30
0.0
 42
-0.4142135623730956
  0
VERTEX
  5
EE4
  8
0
 62
    30
 10
34.847531868522772
 20
8.6522457024769928
 30
0.0
  0
VERTEX
  5
EE5
  8
0
 62
    30
 10
45.0475318685198403
 20
8.6522457024769892
 30
0.0
 42
-0.4142135623730951
  0
VERTEX
  5
EE6
  8
0
 62
    30
 10
45.5475318685198474
 20
8.1522457024769892
 30
0.0
  0
VERTEX
  5
EE7
  8
0
 62
    30
 10
45.5475318685198474
 20
2.4022457024769892
 30
0.0
 42
0.4142135623730951
  0
VERTEX
  5
EE8
  8
0
 62
    30
 10
45.7975318685198403
 20
2.1522457024769892
 30
0.0
  0
VERTEX
  5
EE9
  8
0
 62
    30
 10
47.7975318685198474
 20
2.1522457024769892
 30
0.0
 42
0.4142135623730951
  0
VERTEX
  5
EEA
  8
0
 62
    30
 10
48.0475318685198616
 20
2.4022457024769959
 30
0.0
  0
SEQEND
  5
EEB
  8
0
 62
    30
  0
ENDSEC
  0
EOF
