  0
SECTION
  2
HEADER
  9
$ACADVER
  1
AC1009
  9
$INSBASE
 10
0.0
 20
0.0
 30
0.0
  9
$EXTMIN
 10
1.3475318685227571
 20
2.1522457024769892
 30
0.0
  9
$EXTMAX
 10
80.9587548226759139
 20
80.3703292988764133
 30
0.0
  9
$LIMMIN
 10
0.0
 20
0.0
  9
$LIMMAX
 10
420.0
 20
297.0
  9
$ORTHOMODE
 70
     1
  9
$REGENMODE
 70
     1
  9
$FILLMODE
 70
     1
  9
$QTEXTMODE
 70
     0
  9
$MIRRTEXT
 70
     0
  9
$DRAGMODE
 70
     2
  9
$LTSCALE
 40
1.0
  9
$OSMODE
 70
    37
  9
$ATTMODE
 70
     1
  9
$TEXTSIZE
 40
2.5
  9
$TRACEWID
 40
1.0
  9
$TEXTSTYLE
  7
STANDARD
  9
$CLAYER
  8
DET-SASH
  9
$CELTYPE
  6
BYLAYER
  9
$CECOLOR
 62
    32
  9
$DIMSCALE
 40
1.0
  9
$DIMASZ
 40
2.5
  9
$DIMEXO
 40
0.625
  9
$DIMDLI
 40
3.75
  9
$DIMRND
 40
0.0
  9
$DIMDLE
 40
0.0
  9
$DIMEXE
 40
1.25
  9
$DIMTP
 40
0.0
  9
$DIMTM
 40
0.0
  9
$DIMTXT
 40
2.5
  9
$DIMCEN
 40
2.5
  9
$DIMTSZ
 40
0.0
  9
$DIMTOL
 70
     0
  9
$DIMLIM
 70
     0
  9
$DIMTIH
 70
     0
  9
$DIMTOH
 70
     0
  9
$DIMSE1
 70
     0
  9
$DIMSE2
 70
     0
  9
$DIMTAD
 70
     1
  9
$DIMZIN
 70
     8
  9
$DIMBLK
  1

  9
$DIMASO
 70
     1
  9
$DIMSHO
 70
     1
  9
$DIMPOST
  1

  9
$DIMAPOST
  1

  9
$DIMALT
 70
     0
  9
$DIMALTD
 70
     3
  9
$DIMALTF
 40
0.03937007874016
  9
$DIMLFAC
 40
1.0
  9
$DIMTOFL
 70
     1
  9
$DIMTVP
 40
0.0
  9
$DIMTIX
 70
     0
  9
$DIMSOXD
 70
     0
  9
$DIMSAH
 70
     0
  9
$DIMBLK1
  1

  9
$DIMBLK2
  1

  9
$DIMSTYLE
  2
ISO-25
  9
$DIMCLRD
 70
     0
  9
$DIMCLRE
 70
     0
  9
$DIMCLRT
 70
     0
  9
$DIMTFAC
 40
1.0
  9
$DIMGAP
 40
0.625
  9
$LUNITS
 70
     2
  9
$LUPREC
 70
     4
  9
$SKETCHINC
 40
1.0
  9
$FILLETRAD
 40
0.0
  9
$AUNITS
 70
     0
  9
$AUPREC
 70
     0
  9
$MENU
  1
.
  9
$ELEVATION
 40
0.0
  9
$PELEVATION
 40
0.0
  9
$THICKNESS
 40
0.0
  9
$LIMCHECK
 70
     0
  9
$BLIPMODE
 70
     0
  9
$CHAMFERA
 40
0.0
  9
$CHAMFERB
 40
0.0
  9
$SKPOLY
 70
     0
  9
$TDCREATE
 40
2458877.9304629629477859
  9
$TDUPDATE
 40
2458877.9382175928913057
  9
$TDINDWG
 40
0.0077546296
  9
$TDUSRTIMER
 40
0.0077546296
  9
$USRTIMER
 70
     1
  9
$ANGBASE
 50
0.0
  9
$ANGDIR
 70
     0
  9
$PDMODE
 70
     0
  9
$PDSIZE
 40
0.0
  9
$PLINEWID
 40
0.0
  9
$COORDS
 70
     1
  9
$SPLFRAME
 70
     0
  9
$SPLINETYPE
 70
     6
  9
$SPLINESEGS
 70
     8
  9
$ATTDIA
 70
     1
  9
$ATTREQ
 70
     1
  9
$HANDLING
 70
     1
  9
$HANDSEED
  5
7B0
  9
$SURFTAB1
 70
     6
  9
$SURFTAB2
 70
     6
  9
$SURFTYPE
 70
     6
  9
$SURFU
 70
     6
  9
$SURFV
 70
     6
  9
$UCSNAME
  2

  9
$UCSORG
 10
0.0
 20
0.0
 30
0.0
  9
$UCSXDIR
 10
1.0
 20
0.0
 30
0.0
  9
$UCSYDIR
 10
0.0
 20
1.0
 30
0.0
  9
$PUCSNAME
  2

  9
$PUCSORG
 10
0.0
 20
0.0
 30
0.0
  9
$PUCSXDIR
 10
1.0
 20
0.0
 30
0.0
  9
$PUCSYDIR
 10
0.0
 20
1.0
 30
0.0
  9
$USERI1
 70
     0
  9
$USERI2
 70
     0
  9
$USERI3
 70
     0
  9
$USERI4
 70
     0
  9
$USERI5
 70
     0
  9
$USERR1
 40
0.0
  9
$USERR2
 40
0.0
  9
$USERR3
 40
0.0
  9
$USERR4
 40
0.0
  9
$USERR5
 40
0.0
  9
$WORLDVIEW
 70
     1
  9
$SHADEDGE
 70
     3
  9
$SHADEDIF
 70
    70
  9
$TILEMODE
 70
     1
  9
$MAXACTVP
 70
    64
  9
$PLIMCHECK
 70
     0
  9
$PEXTMIN
 10
0.0
 20
0.0
 30
0.0
  9
$PEXTMAX
 10
0.0
 20
0.0
 30
0.0
  9
$PLIMMIN
 10
0.0
 20
0.0
  9
$PLIMMAX
 10
12.0
 20
9.0
  9
$UNITMODE
 70
     0
  9
$VISRETAIN
 70
     1
  9
$PLINEGEN
 70
     0
  9
$PSLTSCALE
 70
     1
  0
ENDSEC
  0
SECTION
  2
TABLES
  0
TABLE
  2
VPORT
 70
     1
  0
VPORT
  2
*ACTIVE
 70
     0
 10
0.0
 20
0.0
 11
1.0
 21
1.0
 12
26.6809038718730918
 22
37.8324968801443902
 13
0.0
 23
0.0
 14
10.0
 24
10.0
 15
10.0
 25
10.0
 16
0.0
 26
0.0
 36
1.0
 17
0.0
 27
0.0
 37
0.0
 40
127.9525776574701013
 41
2.318681318681318
 42
50.0
 43
0.0
 44
0.0
 50
0.0
 51
0.0
 71
     0
 72
  1000
 73
     1
 74
     3
 75
     0
 76
     1
 77
     0
 78
     0
  0
ENDTAB
  0
TABLE
  2
LTYPE
 70
     2
  0
LTYPE
  2
CONTINUOUS
 70
     0
  3
Solid line
 72
    65
 73
     0
 40
0.0
  0
ENDTAB
  0
TABLE
  2
LAYER
 70
     4
  0
LAYER
  2
0
 70
     0
 62
     7
  6
CONTINUOUS
  0
LAYER
  2
DET-SASH
 70
     0
 62
     1
  6
CONTINUOUS
  0
ENDTAB
  0
TABLE
  2
STYLE
 70
     2
  0
STYLE
  2
STANDARD
 70
     0
 40
0.0
 41
1.0
 50
0.0
 71
     0
 42
2.5
  3
txt
  4

  0
ENDTAB
  0
TABLE
  2
VIEW
 70
     0
  0
ENDTAB
  0
TABLE
  2
UCS
 70
     0
  0
ENDTAB
  0
TABLE
  2
APPID
 70
    15
  0
APPID
  2
ACAD
 70
     0
  0
APPID
  2
ACAD_PSEXT
 70
     0
  0
APPID
  2
ACADANNOPO
 70
     0
  0
APPID
  2
ACADANNOTATIVE
 70
     0
  0
APPID
  2
ACAD_DSTYLE_DIMJAG
 70
     0
  0
APPID
  2
ACAD_DSTYLE_DIMTALN
 70
     0
  0
APPID
  2
ACAD_MLEADERVER
 70
     0
  0
APPID
  2
ACAD_NAV_VCDISPLAY
 70
     0
  0
APPID
  2
ACAECLAYERSTANDARD
 70
     0
  0
APPID
  2
ACCMTRANSPARENCY
 70
     0
  0
APPID
  2
ACDBBLOCKREPETAG
 70
     0
  0
APPID
  2
ACAD_EXEMPT_FROM_CAD_STANDARDS
 70
     0
  0
APPID
  2
ACDBDYNAMICBLOCKGUID
 70
     0
  0
APPID
  2
GRADIENTCOLOR1ACI
 70
     0
  0
APPID
  2
GRADIENTCOLOR2ACI
 70
     0
  0
ENDTAB
  0
TABLE
  2
DIMSTYLE
 70
     4
  0
DIMSTYLE
  2
STANDARD
 70
     0
  3

  4

  5

  6

  7

 40
1.0
 41
0.18
 42
0.0625
 43
0.38
 44
0.18
 45
0.0
 46
0.0
 47
0.0
 48
0.0
140
0.18
141
0.09
142
0.0
143
25.3999999999999986
144
1.0
145
0.0
146
1.0
147
0.09
 71
     0
 72
     0
 73
     1
 74
     1
 75
     0
 76
     0
 77
     0
 78
     0
170
     0
171
     2
172
     0
173
     0
174
     0
175
     0
176
     0
177
     0
178
     0
  0
DIMSTYLE
  2
ISO-25
 70
     0
  3

  4

  5

  6

  7

 40
1.0
 41
2.5
 42
0.625
 43
3.75
 44
1.25
 45
0.0
 46
0.0
 47
0.0
 48
0.0
140
2.5
141
2.5
142
0.0
143
0.03937007874016
144
1.0
145
0.0
146
1.0
147
0.625
 71
     0
 72
     0
 73
     0
 74
     0
 75
     0
 76
     0
 77
     1
 78
     8
170
     0
171
     3
172
     1
173
     0
174
     0
175
     0
176
     0
177
     0
178
     0
  0
ENDTAB
  0
ENDSEC
  0
SECTION
  2
BLOCKS
  0
BLOCK
  8
0
  2
$MODEL_SPACE
 70
     0
 10
0.0
 20
0.0
 30
0.0
  3
$MODEL_SPACE
  1

  0
ENDBLK
  5
21
  8
0
  0
BLOCK
 67
     1
  8
0
  2
$PAPER_SPACE
 70
     0
 10
0.0
 20
0.0
 30
0.0
  3
$PAPER_SPACE
  1

  0
ENDBLK
  5
D5
 67
     1
  8
0
  0
ENDSEC
  0
SECTION
  2
ENTITIES
  0
POLYLINE
  5
60A
  8
0
 62
    32
 66
     1
 10
0.0
 20
0.0
 30
0.0
 70
     1
  0
VERTEX
  5
67C
  8
0
 62
    32
 10
48.0475318685198616
 20
16.1522457024769892
 30
0.0
 42
-0.4142135623730951
  0
VERTEX
  5
67D
  8
0
 62
    32
 10
48.5475318685198474
 20
16.6522457024769892
 30
0.0
  0
VERTEX
  5
67E
  8
0
 62
    32
 10
53.4475318685240381
 20
16.6522457024769892
 30
0.0
 42
-0.6546536707081545
  0
VERTEX
  5
67F
  8
0
 62
    32
 10
54.3640470075129087
 20
16.6522457024769892
 30
0.0
  0
VERTEX
  5
680
  8
0
 62
    32
 10
55.347531868522772
 20
16.6522457024769892
 30
0.0
 42
-0.6546536707084143
  0
VERTEX
  5
681
  8
0
 62
    32
 10
56.2640470075125521
 20
16.6522457024769892
 30
0.0
  0
VERTEX
  5
682
  8
0
 62
    32
 10
66.5475318685162023
 20
16.6522457024769892
 30
0.0
 42
0.4142135623722528
  0
VERTEX
  5
683
  8
0
 62
    32
 10
66.8475318685163984
 20
16.9522457024763185
 30
0.0
  0
VERTEX
  5
684
  8
0
 62
    32
 10
66.8475318685218554
 20
18.8522457024759191
 30
0.0
 42
0.414213562373937
  0
VERTEX
  5
685
  8
0
 62
    32
 10
66.5475318685216592
 20
19.1522457024769892
 30
0.0
  0
VERTEX
  5
686
  8
0
 62
    32
 10
46.0475318685198474
 20
19.1522457024769892
 30
0.0
 42
0.4142135623730951
  0
VERTEX
  5
687
  8
0
 62
    32
 10
45.5475318685198474
 20
18.6522457024769892
 30
0.0
  0
VERTEX
  5
688
  8
0
 62
    32
 10
45.5475318685198474
 20
11.6522457024769892
 30
0.0
 42
-0.4142135623730951
  0
VERTEX
  5
689
  8
0
 62
    32
 10
45.0475318685198474
 20
11.1522457024769892
 30
0.0
  0
VERTEX
  5
68A
  8
0
 62
    32
 10
41.2975318685198474
 20
11.1522457024769892
 30
0.0
  0
VERTEX
  5
68B
  8
0
 62
    32
 10
40.7975318685198474
 20
10.6522457024769892
 30
0.0
  0
VERTEX
  5
68C
  8
0
 62
    32
 10
40.2975318685198474
 20
11.1522457024769892
 30
0.0
  0
VERTEX
  5
68D
  8
0
 62
    32
 10
36.7538588356914531
 20
11.1522457024769892
 30
0.0
 42
-0.355092827601437
  0
VERTEX
  5
68E
  8
0
 62
    32
 10
36.2644280999216875
 20
11.5499835154920802
 30
0.0
  0
VERTEX
  5
68F
  8
0
 62
    32
 10
35.0499701794604874
 20
17.3624255439230595
 30
0.0
 42
0.8126539343499848
  0
VERTEX
  5
690
  8
0
 62
    32
 10
30.6450935575702808
 20
17.3624255439229493
 30
0.0
  0
VERTEX
  5
691
  8
0
 62
    32
 10
29.4306356371076205
 20
11.5499835154835804
 30
0.0
 42
-0.3550928276014514
  0
VERTEX
  5
692
  8
0
 62
    32
 10
28.941204901348339
 20
11.1522457024769892
 30
0.0
  0
VERTEX
  5
693
  8
0
 62
    32
 10
25.3975318685111198
 20
11.1522457024769892
 30
0.0
  0
VERTEX
  5
694
  8
0
 62
    32
 10
24.8975318685111304
 20
10.6522457024769892
 30
0.0
  0
VERTEX
  5
695
  8
0
 62
    32
 10
24.3975318685111198
 20
11.1522457024769892
 30
0.0
  0
VERTEX
  5
696
  8
0
 62
    32
 10
20.6475318685111198
 20
11.1522457024769892
 30
0.0
 42
-0.4142135623730951
  0
VERTEX
  5
697
  8
0
 62
    32
 10
20.1475318685111304
 20
11.6522457024769892
 30
0.0
  0
VERTEX
  5
698
  8
0
 62
    32
 10
20.1475318685111304
 20
18.9022457024769892
 30
0.0
 42
0.4142135623730951
  0
VERTEX
  5
699
  8
0
 62
    32
 10
19.8975318685111198
 20
19.1522457024769892
 30
0.0
  0
VERTEX
  5
69A
  8
0
 62
    32
 10
4.347531868522764
 20
19.1522457024769892
 30
0.0
  0
VERTEX
  5
69B
  8
0
 62
    32
 10
3.847531868522764
 20
18.6522457024769892
 30
0.0
  0
VERTEX
  5
69C
  8
0
 62
    32
 10
3.3475318685227711
 20
19.1522457024769892
 30
0.0
  0
VERTEX
  5
69D
  8
0
 62
    32
 10
1.6475318685228679
 20
19.1522457024765309
 30
0.0
 42
0.4142135623730259
  0
VERTEX
  5
69E
  8
0
 62
    32
 10
1.3475318685227571
 20
18.852245702476349
 30
0.0
  0
VERTEX
  5
69F
  8
0
 62
    32
 10
1.347531868522764
 20
15.9522457024771693
 30
0.0
 42
0.4142135623730951
  0
VERTEX
  5
6A0
  8
0
 62
    32
 10
1.6475318685229461
 20
15.6522457024769892
 30
0.0
  0
VERTEX
  5
6A1
  8
0
 62
    32
 10
6.0475318685225821
 20
15.6522457024769892
 30
0.0
 42
0.4142135623730951
  0
VERTEX
  5
6A2
  8
0
 62
    32
 10
6.347531868522764
 20
15.9522457024771693
 30
0.0
  0
VERTEX
  5
6A3
  8
0
 62
    32
 10
6.347531868522764
 20
16.3522457024768109
 30
0.0
 42
-0.4142135623730951
  0
VERTEX
  5
6A4
  8
0
 62
    32
 10
6.6475318685229459
 20
16.6522457024769892
 30
0.0
  0
VERTEX
  5
6A5
  8
0
 62
    32
 10
17.1475318685111198
 20
16.6522457024769892
 30
0.0
 42
-0.4142135623730951
  0
VERTEX
  5
6A6
  8
0
 62
    32
 10
17.6475318685111198
 20
16.1522457024769892
 30
0.0
  0
VERTEX
  5
6A7
  8
0
 62
    32
 10
17.6475318685111198
 20
2.4022457024769892
 30
0.0
 42
0.4142135623730951
  0
VERTEX
  5
6A8
  8
0
 62
    32
 10
17.8975318685111198
 20
2.1522457024769892
 30
0.0
  0
VERTEX
  5
6A9
  8
0
 62
    32
 10
19.8975318685111198
 20
2.1522457024769892
 30
0.0
 42
0.4142135623723542
  0
VERTEX
  5
6AA
  8
0
 62
    32
 10
20.1475318685111304
 20
2.4022457024763559
 30
0.0
  0
VERTEX
  5
6AB
  8
0
 62
    32
 10
20.1475318685256717
 20
8.1522457024782522
 30
0.0
 42
-0.4142135623723542
  0
VERTEX
  5
6AC
  8
0
 62
    32
 10
20.6475318685256788
 20
8.6522457024769892
 30
0.0
  0
VERTEX
  5
6AD
  8
0
 62
    32
 10
30.8475318685227684
 20
8.6522457024769892
 30
0.0
 42
-0.4142135623730951
  0
VERTEX
  5
6AE
  8
0
 62
    32
 10
31.3475318685227684
 20
8.1522457024769892
 30
0.0
  0
VERTEX
  5
6AF
  8
0
 62
    32
 10
31.3475318685227684
 20
2.4022457024769892
 30
0.0
 42
0.4142135623730951
  0
VERTEX
  5
6B0
  8
0
 62
    32
 10
31.5975318685227684
 20
2.1522457024769892
 30
0.0
  0
VERTEX
  5
6B1
  8
0
 62
    32
 10
34.097531868522772
 20
2.1522457024769892
 30
0.0
 42
0.4142135623730951
  0
VERTEX
  5
6B2
  8
0
 62
    32
 10
34.3475318685227577
 20
2.4022457024769892
 30
0.0
  0
VERTEX
  5
6B3
  8
0
 62
    32
 10
34.3475318685227577
 20
8.1522457024769892
 30
0.0
 42
-0.4142135623730951
  0
VERTEX
  5
6B4
  8
0
 62
    32
 10
34.847531868522772
 20
8.6522457024769892
 30
0.0
  0
VERTEX
  5
6B5
  8
0
 62
    32
 10
45.0475318685198474
 20
8.6522457024769892
 30
0.0
 42
-0.4142135623730951
  0
VERTEX
  5
6B6
  8
0
 62
    32
 10
45.5475318685198474
 20
8.1522457024769892
 30
0.0
  0
VERTEX
  5
6B7
  8
0
 62
    32
 10
45.5475318685198474
 20
2.4022457024769892
 30
0.0
 42
0.4142135623730951
  0
VERTEX
  5
6B8
  8
0
 62
    32
 10
45.7975318685198474
 20
2.1522457024769892
 30
0.0
  0
VERTEX
  5
6B9
  8
0
 62
    32
 10
47.7975318685198474
 20
2.1522457024769892
 30
0.0
 42
0.4142135623730951
  0
VERTEX
  5
6BA
  8
0
 62
    32
 10
48.0475318685198616
 20
2.4022457024769892
 30
0.0
  0
SEQEND
  5
6BB
  8
0
 62
    32
  0
POLYLINE
  5
60B
  8
0
 62
    32
 66
     1
 10
0.0
 20
0.0
 30
0.0
 70
     1
  0
VERTEX
  5
6BC
  8
0
 62
    32
 10
26.849596978449501
 20
44.1685363990192528
 30
0.0
 42
0.4394995507076118
  0
VERTEX
  5
6BD
  8
0
 62
    32
 10
26.1300170369017906
 20
44.326426929567873
 30
0.0
  0
VERTEX
  5
6BE
  8
0
 62
    32
 10
24.6083013839737816
 20
43.2579311815477396
 30
0.0
  0
VERTEX
  5
6BF
  8
0
 62
    32
 10
24.1475318685183105
 20
43.2579311815486491
 30
0.0
 42
-0.414213562373094
  0
VERTEX
  5
6C0
  8
0
 62
    32
 10
23.8475318685181286
 20
43.5579311815488381
 30
0.0
  0
VERTEX
  5
6C1
  8
0
 62
    32
 10
23.8475318685179012
 20
47.1579311815473119
 30
0.0
 42
-0.4142135623731688
  0
VERTEX
  5
6C2
  8
0
 62
    32
 10
24.1475318685183105
 20
47.4579311815477922
 30
0.0
  0
VERTEX
  5
6C3
  8
0
 62
    32
 10
24.6083013839737816
 20
47.4579311815484672
 30
0.0
  0
VERTEX
  5
6C4
  8
0
 62
    32
 10
26.3475318685153894
 20
46.453785993113172
 30
0.0
  0
VERTEX
  5
6C5
  8
0
 62
    32
 10
26.3475318685154001
 20
51.1007054118378505
 30
0.0
  0
VERTEX
  5
6C6
  8
0
 62
    32
 10
24.6083013839737816
 20
50.0965602234025482
 30
0.0
  0
VERTEX
  5
6C7
  8
0
 62
    32
 10
24.1475318685183105
 20
50.0965602234036922
 30
0.0
 42
-0.4142135623730935
  0
VERTEX
  5
6C8
  8
0
 62
    32
 10
23.8475318685179012
 20
50.3965602234040873
 30
0.0
  0
VERTEX
  5
6C9
  8
0
 62
    32
 10
23.8475318685179012
 20
53.9965602234021276
 30
0.0
 42
-0.4142135623731506
  0
VERTEX
  5
6CA
  8
0
 62
    32
 10
24.1475318685183105
 20
54.2965602234025866
 30
0.0
  0
VERTEX
  5
6CB
  8
0
 62
    32
 10
24.608301383973771
 20
54.2965602234032829
 30
0.0
  0
VERTEX
  5
6CC
  8
0
 62
    32
 10
26.13001703690216
 20
53.2280644753836825
 30
0.0
 42
0.4581651430932869
  0
VERTEX
  5
6CD
  8
0
 62
    32
 10
26.8643696550533306
 20
53.4132844128275295
 30
0.0
  0
VERTEX
  5
6CE
  8
0
 62
    32
 10
28.4124593775717713
 20
56.2772457024756534
 30
0.0
  0
VERTEX
  5
6CF
  8
0
 62
    32
 10
11.3475318685154001
 20
56.2772457024757387
 30
0.0
 42
-0.4142135623730951
  0
VERTEX
  5
6D0
  8
0
 62
    32
 10
10.8475318685156292
 20
56.7772457024755113
 30
0.0
  0
VERTEX
  5
6D1
  8
0
 62
    32
 10
10.8475318685154001
 20
72.7772457024755113
 30
0.0
  0
VERTEX
  5
6D2
  8
0
 62
    32
 10
7.8475318685154027
 20
72.7772457024755113
 30
0.0
  0
VERTEX
  5
6D3
  8
0
 62
    32
 10
7.8475318685154027
 20
50.7772457024755113
 30
0.0
  0
VERTEX
  5
6D4
  8
0
 62
    32
 10
10.8475318685154001
 20
50.7772457024755113
 30
0.0
  0
VERTEX
  5
6D5
  8
0
 62
    32
 10
10.8475318685156292
 20
24.2772457024755113
 30
0.0
 42
0.4142135623730951
  0
VERTEX
  5
6D6
  8
0
 62
    32
 10
11.3475318685154001
 20
23.7772457024757387
 30
0.0
  0
VERTEX
  5
6D7
  8
0
 62
    32
 10
12.0475318685159696
 20
23.7772457024757387
 30
0.0
 42
0.4142135623731908
  0
VERTEX
  5
6D8
  8
0
 62
    32
 10
12.5475318685159003
 20
24.2772457024755113
 30
0.0
  0
VERTEX
  5
6D9
  8
0
 62
    32
 10
12.5475318685143105
 20
29.7772457024755113
 30
0.0
  0
VERTEX
  5
6DA
  8
0
 62
    32
 10
13.0475318685161294
 20
29.7772457024757387
 30
0.0
 42
0.4142135623732283
  0
VERTEX
  5
6DB
  8
0
 62
    32
 10
13.5475318685159003
 20
30.2772457024757387
 30
0.0
 42
0.414213562373228
  0
VERTEX
  5
6DC
  8
0
 62
    32
 10
13.0475318685161294
 20
30.7772457024757387
 30
0.0
  0
VERTEX
  5
6DD
  8
0
 62
    32
 10
12.7734989768154303
 20
30.7772457024755113
 30
0.0
  0
VERTEX
  5
6DE
  8
0
 62
    32
 10
12.5475318685143105
 20
30.7772457024755113
 30
0.0
  0
VERTEX
  5
6DF
  8
0
 62
    32
 10
12.5475318685158896
 20
33.2772457024755113
 30
0.0
 42
-0.4142135623730951
  0
VERTEX
  5
6E0
  8
0
 62
    32
 10
14.0475318685161206
 20
34.7772457024757387
 30
0.0
  0
VERTEX
  5
6E1
  8
0
 62
    32
 10
15.0475318685146409
 20
34.7772457024757387
 30
0.0
 42
-0.4142135623730284
  0
VERTEX
  5
6E2
  8
0
 62
    32
 10
16.547531868514529
 20
33.2772457024755113
 30
0.0
  0
VERTEX
  5
6E3
  8
0
 62
    32
 10
16.5475318685143016
 20
30.7772457024755113
 30
0.0
  0
VERTEX
  5
6E4
  8
0
 62
    32
 10
16.0475318685143016
 20
30.7772457024757387
 30
0.0
 42
0.4142135623732283
  0
VERTEX
  5
6E5
  8
0
 62
    32
 10
15.5475318685145307
 20
30.2772457024757387
 30
0.0
 42
0.4142135623732283
  0
VERTEX
  5
6E6
  8
0
 62
    32
 10
16.0475318685143016
 20
29.7772457024757387
 30
0.0
  0
VERTEX
  5
6E7
  8
0
 62
    32
 10
17.5475318685160389
 20
29.7772457024757387
 30
0.0
 42
0.4142135623731451
  0
VERTEX
  5
6E8
  8
0
 62
    32
 10
18.0475318685159003
 20
30.2772457024755113
 30
0.0
  0
VERTEX
  5
6E9
  8
0
 62
    32
 10
18.0475318685147599
 20
35.277245702475831
 30
0.0
 42
0.4142135623730015
  0
VERTEX
  5
6EA
  8
0
 62
    32
 10
17.0475318685143016
 20
36.2772457024759731
 30
0.0
  0
VERTEX
  5
6EB
  8
0
 62
    32
 10
13.0475318685143709
 20
36.2772457024757387
 30
0.0
 42
-0.4142135623731284
  0
VERTEX
  5
6EC
  8
0
 62
    32
 10
12.5475318685145396
 20
36.7772457024755113
 30
0.0
  0
VERTEX
  5
6ED
  8
0
 62
    32
 10
12.5475318685145396
 20
49.0651283953891308
 30
0.0
 42
-0.4142135623731007
  0
VERTEX
  5
6EE
  8
0
 62
    32
 10
13.0475318685143105
 20
49.5651283953889106
 30
0.0
  0
VERTEX
  5
6EF
  8
0
 62
    32
 10
14.1373526438976302
 20
49.5651283953890811
 30
0.0
 42
0.2679491924311327
  0
VERTEX
  5
6F0
  8
0
 62
    32
 10
14.7868716967353109
 20
49.9401283953885411
 30
0.0
 42
0.317837245196055
  0
VERTEX
  5
6F1
  8
0
 62
    32
 10
14.7074123854368093
 20
50.8025008310844228
 30
0.0
 42
-2.1706013344390569
  0
VERTEX
  5
6F2
  8
0
 62
    32
 10
16.9876513515946002
 20
50.8025008310837478
 30
0.0
 42
0.3178372451960805
  0
VERTEX
  5
6F3
  8
0
 62
    32
 10
16.908192040296079
 20
49.9401283953886619
 30
0.0
 42
0.2679491924311139
  0
VERTEX
  5
6F4
  8
0
 62
    32
 10
17.5577110931344116
 20
49.5651283953886832
 30
0.0
  0
VERTEX
  5
6F5
  8
0
 62
    32
 10
18.3475318685153894
 20
49.5651283953882285
 30
0.0
 42
0.4142135623730953
  0
VERTEX
  5
6F6
  8
0
 62
    32
 10
18.8475318685162989
 20
50.0651283953891308
 30
0.0
  0
VERTEX
  5
6F7
  8
0
 62
    32
 10
18.8475318685149382
 20
52.7772457024757884
 30
0.0
 42
-0.4142135623731935
  0
VERTEX
  5
6F8
  8
0
 62
    32
 10
19.3475318685154001
 20
53.2772457024764208
 30
0.0
  0
VERTEX
  5
6F9
  8
0
 62
    32
 10
21.3475318685138014
 20
53.2772457024757387
 30
0.0
 42
-0.4142135623729155
  0
VERTEX
  5
6FA
  8
0
 62
    32
 10
21.8475318685133502
 20
52.7772457024760371
 30
0.0
  0
VERTEX
  5
6FB
  8
0
 62
    32
 10
21.8475318685153894
 20
41.2772457024755113
 30
0.0
  0
VERTEX
  5
6FC
  8
0
 62
    32
 10
28.4124593775717003
 20
41.2772457024755113
 30
0.0
  0
SEQEND
  5
6FD
  8
0
 62
    32
  0
POLYLINE
  5
60C
  8
0
 62
    32
 66
     1
 10
0.0
 20
0.0
 30
0.0
 70
     1
  0
VERTEX
  5
6FE
  8
0
 62
    32
 10
38.8306940819714725
 20
44.141206992112437
 30
0.0
 42
-0.4581651431013863
  0
VERTEX
  5
6FF
  8
0
 62
    32
 10
39.5650467001286401
 20
44.3264269295682496
 30
0.0
  0
VERTEX
  5
700
  8
0
 62
    32
 10
41.0867623530570114
 20
43.2579311815477396
 30
0.0
  0
VERTEX
  5
701
  8
0
 62
    32
 10
41.547531868512479
 20
43.2579311815484289
 30
0.0
 42
0.4142135623730968
  0
VERTEX
  5
702
  8
0
 62
    32
 10
41.8475318685128883
 20
43.5579311815488381
 30
0.0
  0
VERTEX
  5
703
  8
0
 62
    32
 10
41.8475318685126609
 20
47.1579311815474682
 30
0.0
 42
0.4142135623730029
  0
VERTEX
  5
704
  8
0
 62
    32
 10
41.547531868512479
 20
47.457931181547572
 30
0.0
  0
VERTEX
  5
705
  8
0
 62
    32
 10
41.0867623530570185
 20
47.4579311815484672
 30
0.0
  0
VERTEX
  5
706
  8
0
 62
    32
 10
39.0083013839780719
 20
46.2579311815477396
 30
0.0
  0
VERTEX
  5
707
  8
0
 62
    32
 10
37.9486187556389325
 20
46.2579311815480878
 30
0.0
 42
0.291473419586066
  0
VERTEX
  5
708
  8
0
 62
    32
 10
37.6767264195274691
 20
46.0847166600700078
 30
0.0
  0
VERTEX
  5
709
  8
0
 62
    32
 10
36.2295075146334824
 20
42.9811457030265274
 30
0.0
 42
-0.2914734195861667
  0
VERTEX
  5
70A
  8
0
 62
    32
 10
35.9576151785216993
 20
42.8079311815481987
 30
0.0
  0
VERTEX
  5
70B
  8
0
 62
    32
 10
32.8475318685153965
 20
42.8079311815488381
 30
0.0
  0
VERTEX
  5
70C
  8
0
 62
    32
 10
29.7374485585091008
 20
42.8079311815481489
 30
0.0
 42
-0.2914734195860627
  0
VERTEX
  5
70D
  8
0
 62
    32
 10
29.4655562223973284
 20
42.9811457030264208
 30
0.0
  0
VERTEX
  5
70E
  8
0
 62
    32
 10
28.0183373175034909
 20
46.0847166600699367
 30
0.0
 42
0.2914734195861909
  0
VERTEX
  5
70F
  8
0
 62
    32
 10
27.7464449813918712
 20
46.2579311815481873
 30
0.0
  0
VERTEX
  5
710
  8
0
 62
    32
 10
26.6867623530527602
 20
46.2579311815477325
 30
0.0
  0
VERTEX
  5
711
  8
0
 62
    32
 10
24.6083013839737816
 20
47.4579311815484672
 30
0.0
  0
VERTEX
  5
712
  8
0
 62
    32
 10
24.1475318685183105
 20
47.4579311815477922
 30
0.0
 42
0.414213562373095
  0
VERTEX
  5
713
  8
0
 62
    32
 10
23.8475318685179012
 20
47.1579311815473829
 30
0.0
  0
VERTEX
  5
714
  8
0
 62
    32
 10
23.8475318685181286
 20
43.5579311815488879
 30
0.0
 42
0.4142135623731511
  0
VERTEX
  5
715
  8
0
 62
    32
 10
24.1475318685183105
 20
43.2579311815486491
 30
0.0
  0
VERTEX
  5
716
  8
0
 62
    32
 10
24.6083013839737816
 20
43.2579311815477396
 30
0.0
  0
VERTEX
  5
717
  8
0
 62
    32
 10
26.1300170369017906
 20
44.326426929567873
 30
0.0
 42
-0.439499550707542
  0
VERTEX
  5
718
  8
0
 62
    32
 10
26.8495969784494406
 20
44.1685363990193594
 30
0.0
  0
VERTEX
  5
719
  8
0
 62
    32
 10
28.4124593775717003
 20
41.2772457024755113
 30
0.0
  0
VERTEX
  5
71A
  8
0
 62
    32
 10
37.2826043594571601
 20
41.2772457024755113
 30
0.0
  0
SEQEND
  5
71B
  8
0
 62
    32
  0
POLYLINE
  5
60D
  8
0
 62
    32
 66
     1
 10
0.0
 20
0.0
 30
0.0
 70
     1
  0
VERTEX
  5
71C
  8
0
 62
    32
 10
39.3475318685153965
 20
51.1007054118378576
 30
0.0
  0
VERTEX
  5
71D
  8
0
 62
    32
 10
39.0349872268385667
 20
51.2811531448386475
 30
0.0
 42
0.1316524975876572
  0
VERTEX
  5
71E
  8
0
 62
    32
 10
38.9774872268384627
 20
51.2965602234035032
 30
0.0
  0
VERTEX
  5
71F
  8
0
 62
    32
 10
37.9486187556389893
 20
51.2965602234028211
 30
0.0
 42
-0.2914734195861284
  0
VERTEX
  5
720
  8
0
 62
    32
 10
37.6767264195273484
 20
51.4697747448809579
 30
0.0
  0
VERTEX
  5
721
  8
0
 62
    32
 10
36.2295075146335108
 20
54.5733457019244881
 30
0.0
 42
0.2914734195861747
  0
VERTEX
  5
722
  8
0
 62
    32
 10
35.9576151785216993
 20
54.7465602234028665
 30
0.0
  0
VERTEX
  5
723
  8
0
 62
    32
 10
32.8475318685153965
 20
54.7465602234021773
 30
0.0
  0
VERTEX
  5
724
  8
0
 62
    32
 10
29.7374485585091008
 20
54.7465602234028168
 30
0.0
 42
0.2914734195860669
  0
VERTEX
  5
725
  8
0
 62
    32
 10
29.4655562223973604
 20
54.5733457019245805
 30
0.0
  0
VERTEX
  5
726
  8
0
 62
    32
 10
28.0183373175033807
 20
51.4697747448811285
 30
0.0
 42
-0.2914734195861894
  0
VERTEX
  5
727
  8
0
 62
    32
 10
27.7464449813918712
 20
51.2965602234029276
 30
0.0
  0
VERTEX
  5
728
  8
0
 62
    32
 10
26.7175765101923801
 20
51.2965602234034819
 30
0.0
 42
0.1316524975877429
  0
VERTEX
  5
729
  8
0
 62
    32
 10
26.6600765101922406
 20
51.2811531448386404
 30
0.0
  0
VERTEX
  5
72A
  8
0
 62
    32
 10
26.3475318685154001
 20
51.1007054118331467
 30
0.0
  0
VERTEX
  5
72B
  8
0
 62
    32
 10
26.3475318685154001
 20
46.453785993113172
 30
0.0
  0
VERTEX
  5
72C
  8
0
 62
    32
 10
26.6600765101922192
 20
46.2733382601128227
 30
0.0
 42
0.1316524975876587
  0
VERTEX
  5
72D
  8
0
 62
    32
 10
26.7175765101923304
 20
46.257931181547967
 30
0.0
  0
VERTEX
  5
72E
  8
0
 62
    32
 10
27.7464449813919387
 20
46.2579311815481873
 30
0.0
 42
-0.2914734195860054
  0
VERTEX
  5
72F
  8
0
 62
    32
 10
28.0183373175034305
 20
46.0847166600700575
 30
0.0
  0
VERTEX
  5
730
  8
0
 62
    32
 10
29.4655562223972787
 20
42.9811457030265274
 30
0.0
 42
0.2914734195861734
  0
VERTEX
  5
731
  8
0
 62
    32
 10
29.7374485585091008
 20
42.8079311815481489
 30
0.0
  0
VERTEX
  5
732
  8
0
 62
    32
 10
32.8475318685153965
 20
42.8079311815488381
 30
0.0
  0
VERTEX
  5
733
  8
0
 62
    32
 10
35.9576151785216993
 20
42.8079311815481987
 30
0.0
 42
0.2914734195860655
  0
VERTEX
  5
734
  8
0
 62
    32
 10
36.2295075146334185
 20
42.9811457030264421
 30
0.0
  0
VERTEX
  5
735
  8
0
 62
    32
 10
37.6767264195274123
 20
46.084716660069887
 30
0.0
 42
-0.2914734195861889
  0
VERTEX
  5
736
  8
0
 62
    32
 10
37.9486187556389325
 20
46.2579311815480878
 30
0.0
  0
VERTEX
  5
737
  8
0
 62
    32
 10
38.97748722683842
 20
46.2579311815479883
 30
0.0
 42
0.1316524975877425
  0
VERTEX
  5
738
  8
0
 62
    32
 10
39.0349872268385525
 20
46.2733382601128369
 30
0.0
  0
VERTEX
  5
739
  8
0
 62
    32
 10
39.3475318685153965
 20
46.4537859931182524
 30
0.0
  0
SEQEND
  5
73A
  8
0
 62
    32
  0
POLYLINE
  5
60E
  8
0
 62
    32
 66
     1
 10
0.0
 20
0.0
 30
0.0
 70
     1
  0
VERTEX
  5
73B
  8
0
 62
    32
 10
37.284472389981751
 20
56.2772457024755965
 30
0.0
  0
VERTEX
  5
73C
  8
0
 62
    32
 10
28.4124593775717713
 20
56.2772457024756534
 30
0.0
  0
VERTEX
  5
73D
  8
0
 62
    32
 10
26.8643696550533413
 20
53.4132844128275508
 30
0.0
 42
-0.4581651430933059
  0
VERTEX
  5
73E
  8
0
 62
    32
 10
26.13001703690216
 20
53.2280644753836825
 30
0.0
  0
VERTEX
  5
73F
  8
0
 62
    32
 10
24.6083013839737816
 20
54.2965602234032829
 30
0.0
  0
VERTEX
  5
740
  8
0
 62
    32
 10
24.1475318685183105
 20
54.2965602234025866
 30
0.0
 42
0.4142135623730951
  0
VERTEX
  5
741
  8
0
 62
    32
 10
23.8475318685179012
 20
53.9965602234021773
 30
0.0
  0
VERTEX
  5
742
  8
0
 62
    32
 10
23.8475318685179012
 20
50.3965602234041512
 30
0.0
 42
0.4142135623731486
  0
VERTEX
  5
743
  8
0
 62
    32
 10
24.1475318685183105
 20
50.0965602234036922
 30
0.0
  0
VERTEX
  5
744
  8
0
 62
    32
 10
24.608301383973771
 20
50.0965602234025482
 30
0.0
  0
VERTEX
  5
745
  8
0
 62
    32
 10
26.6867623530527283
 20
51.2965602234032687
 30
0.0
  0
VERTEX
  5
746
  8
0
 62
    32
 10
27.7464449813918712
 20
51.2965602234029276
 30
0.0
 42
0.2914734195860663
  0
VERTEX
  5
747
  8
0
 62
    32
 10
28.018337317503331
 20
51.4697747448810006
 30
0.0
  0
VERTEX
  5
748
  8
0
 62
    32
 10
29.4655562223973213
 20
54.573345701924481
 30
0.0
 42
-0.2914734195861663
  0
VERTEX
  5
749
  8
0
 62
    32
 10
29.7374485585091008
 20
54.7465602234028168
 30
0.0
  0
VERTEX
  5
74A
  8
0
 62
    32
 10
32.8475318685153965
 20
54.7465602234021773
 30
0.0
  0
VERTEX
  5
74B
  8
0
 62
    32
 10
35.9576151785216993
 20
54.7465602234028665
 30
0.0
 42
-0.2914734195860667
  0
VERTEX
  5
74C
  8
0
 62
    32
 10
36.2295075146334682
 20
54.5733457019246018
 30
0.0
  0
VERTEX
  5
74D
  8
0
 62
    32
 10
37.6767264195272986
 20
51.4697747448810787
 30
0.0
 42
0.2914734195861952
  0
VERTEX
  5
74E
  8
0
 62
    32
 10
37.9486187556389325
 20
51.2965602234028211
 30
0.0
  0
VERTEX
  5
74F
  8
0
 62
    32
 10
39.0083013839780435
 20
51.29656022340329
 30
0.0
  0
VERTEX
  5
750
  8
0
 62
    32
 10
41.0867623530570185
 20
50.0965602234025482
 30
0.0
  0
VERTEX
  5
751
  8
0
 62
    32
 10
41.547531868512479
 20
50.0965602234034577
 30
0.0
 42
0.4142135623730974
  0
VERTEX
  5
752
  8
0
 62
    32
 10
41.8475318685126609
 20
50.3965602234036396
 30
0.0
  0
VERTEX
  5
753
  8
0
 62
    32
 10
41.8475318685126609
 20
53.9965602234022626
 30
0.0
 42
0.414213562373021
  0
VERTEX
  5
754
  8
0
 62
    32
 10
41.547531868512479
 20
54.2965602234023592
 30
0.0
  0
VERTEX
  5
755
  8
0
 62
    32
 10
41.0867623530570185
 20
54.2965602234032829
 30
0.0
  0
VERTEX
  5
756
  8
0
 62
    32
 10
39.5650467001290096
 20
53.2280644753835972
 30
0.0
 42
-0.4394995507119089
  0
VERTEX
  5
757
  8
0
 62
    32
 10
38.8454667585776718
 20
53.3859550059384489
 30
0.0
  0
SEQEND
  5
758
  8
0
 62
    32
  0
POLYLINE
  5
60F
  8
0
 62
    32
 66
     1
 10
0.0
 20
0.0
 30
0.0
 70
     1
  0
VERTEX
  5
759
  8
0
 62
    32
 10
57.8475318685153965
 20
72.7772457024755113
 30
0.0
  0
VERTEX
  5
75A
  8
0
 62
    32
 10
54.8475318685153965
 20
72.7772457024755113
 30
0.0
  0
VERTEX
  5
75B
  8
0
 62
    32
 10
54.8475318685151692
 20
56.7772457024755113
 30
0.0
 42
-0.4142135623730966
  0
VERTEX
  5
75C
  8
0
 62
    32
 10
54.3475318685154107
 20
56.2772457024757387
 30
0.0
  0
VERTEX
  5
75D
  8
0
 62
    32
 10
37.2844723899816728
 20
56.2772457024757387
 30
0.0
  0
VERTEX
  5
75E
  8
0
 62
    32
 10
38.8454667585776789
 20
53.3859550059384418
 30
0.0
 42
0.439499550711906
  0
VERTEX
  5
75F
  8
0
 62
    32
 10
39.5650467001290096
 20
53.2280644753835972
 30
0.0
  0
VERTEX
  5
760
  8
0
 62
    32
 10
41.0867623530570185
 20
54.2965602234032829
 30
0.0
  0
VERTEX
  5
761
  8
0
 62
    32
 10
41.547531868512479
 20
54.2965602234023592
 30
0.0
 42
-0.4142135623730951
  0
VERTEX
  5
762
  8
0
 62
    32
 10
41.8475318685126609
 20
53.9965602234021773
 30
0.0
  0
VERTEX
  5
763
  8
0
 62
    32
 10
41.8475318685126609
 20
50.3965602234035686
 30
0.0
 42
-0.4142135623730214
  0
VERTEX
  5
764
  8
0
 62
    32
 10
41.547531868512479
 20
50.0965602234034577
 30
0.0
  0
VERTEX
  5
765
  8
0
 62
    32
 10
41.0867623530570185
 20
50.0965602234025482
 30
0.0
  0
VERTEX
  5
766
  8
0
 62
    32
 10
39.3475318685153965
 20
51.1007054118378505
 30
0.0
  0
VERTEX
  5
767
  8
0
 62
    32
 10
39.3475318685153965
 20
46.453785993113172
 30
0.0
  0
VERTEX
  5
768
  8
0
 62
    32
 10
41.0867623530570185
 20
47.4579311815484672
 30
0.0
  0
VERTEX
  5
769
  8
0
 62
    32
 10
41.547531868512479
 20
47.457931181547572
 30
0.0
 42
-0.4142135623730974
  0
VERTEX
  5
76A
  8
0
 62
    32
 10
41.8475318685126609
 20
47.1579311815473829
 30
0.0
  0
VERTEX
  5
76B
  8
0
 62
    32
 10
41.8475318685128883
 20
43.55793118154876
 30
0.0
 42
-0.4142135623730205
  0
VERTEX
  5
76C
  8
0
 62
    32
 10
41.547531868512479
 20
43.2579311815484289
 30
0.0
  0
VERTEX
  5
76D
  8
0
 62
    32
 10
41.0867623530570185
 20
43.2579311815477396
 30
0.0
  0
VERTEX
  5
76E
  8
0
 62
    32
 10
39.5650467001286401
 20
44.3264269295682496
 30
0.0
 42
0.4581651431013893
  0
VERTEX
  5
76F
  8
0
 62
    32
 10
38.8306940819714725
 20
44.1412069921124299
 30
0.0
  0
VERTEX
  5
770
  8
0
 62
    32
 10
37.2826043594571601
 20
41.2772457024755113
 30
0.0
  0
VERTEX
  5
771
  8
0
 62
    32
 10
40.3475318685153894
 20
41.2772457024755113
 30
0.0
  0
VERTEX
  5
772
  8
0
 62
    32
 10
43.8475318685153894
 20
41.2772457024755113
 30
0.0
  0
VERTEX
  5
773
  8
0
 62
    32
 10
43.8475318685156168
 20
52.7772457024759589
 30
0.0
 42
-0.4142135623730951
  0
VERTEX
  5
774
  8
0
 62
    32
 10
44.3475318685153965
 20
53.2772457024757387
 30
0.0
  0
VERTEX
  5
775
  8
0
 62
    32
 10
46.3475318685136273
 20
53.2772457024757387
 30
0.0
 42
-0.4142135623732582
  0
VERTEX
  5
776
  8
0
 62
    32
 10
46.8475318685133502
 20
52.7772457024756321
 30
0.0
  0
VERTEX
  5
777
  8
0
 62
    32
 10
46.8475318685151692
 20
50.0651283953891024
 30
0.0
 42
0.4142135623730706
  0
VERTEX
  5
778
  8
0
 62
    32
 10
47.3475318685153965
 20
49.5651283953889106
 30
0.0
  0
VERTEX
  5
779
  8
0
 62
    32
 10
48.1373526438975787
 20
49.5651283953896993
 30
0.0
 42
0.2679491924310446
  0
VERTEX
  5
77A
  8
0
 62
    32
 10
48.7868716967350196
 20
49.9401283953888182
 30
0.0
 42
0.3178372451956777
  0
VERTEX
  5
77B
  8
0
 62
    32
 10
48.7074123854361929
 20
50.8025008310830302
 30
0.0
 42
-2.1706013344419679
  0
VERTEX
  5
77C
  8
0
 62
    32
 10
50.9876513515936267
 20
50.802500831084437
 30
0.0
 42
0.317837245195824
  0
VERTEX
  5
77D
  8
0
 62
    32
 10
50.9081920402947787
 20
49.9401283953885766
 30
0.0
 42
0.2679491924307997
  0
VERTEX
  5
77E
  8
0
 62
    32
 10
51.5577110931338396
 20
49.5651283953886832
 30
0.0
  0
VERTEX
  5
77F
  8
0
 62
    32
 10
52.6475318685164879
 20
49.5651283953889106
 30
0.0
 42
-0.4142135623731385
  0
VERTEX
  5
780
  8
0
 62
    32
 10
53.1475318685162677
 20
49.0651283953890669
 30
0.0
  0
VERTEX
  5
781
  8
0
 62
    32
 10
53.1475318685144487
 20
36.7772457024754473
 30
0.0
 42
-0.4142135623730576
  0
VERTEX
  5
782
  8
0
 62
    32
 10
52.6475318685146831
 20
36.2772457024757387
 30
0.0
  0
VERTEX
  5
783
  8
0
 62
    32
 10
48.6475318685164311
 20
36.2772457024759731
 30
0.0
 42
0.4142135623730784
  0
VERTEX
  5
784
  8
0
 62
    32
 10
47.6475318685160332
 20
35.2772457024755113
 30
0.0
  0
VERTEX
  5
785
  8
0
 62
    32
 10
47.6475318685148892
 20
30.2772457024756498
 30
0.0
 42
0.4142135623731742
  0
VERTEX
  5
786
  8
0
 62
    32
 10
48.1475318685146689
 20
29.7772457024757387
 30
0.0
  0
VERTEX
  5
787
  8
0
 62
    32
 10
49.6475318685145908
 20
29.7772457024757387
 30
0.0
 42
0.4142135623732725
  0
VERTEX
  5
788
  8
0
 62
    32
 10
50.1475318685144416
 20
30.2772457024757387
 30
0.0
 42
0.414213562373228
  0
VERTEX
  5
789
  8
0
 62
    32
 10
49.6475318685146689
 20
30.7772457024757387
 30
0.0
  0
VERTEX
  5
78A
  8
0
 62
    32
 10
49.1475318685146618
 20
30.7772457024755184
 30
0.0
  0
VERTEX
  5
78B
  8
0
 62
    32
 10
49.1475318685144487
 20
33.2772457024755113
 30
0.0
 42
-0.4142135623730951
  0
VERTEX
  5
78C
  8
0
 62
    32
 10
50.6475318685146831
 20
34.7772457024757387
 30
0.0
  0
VERTEX
  5
78D
  8
0
 62
    32
 10
51.6475318685150171
 20
34.7772457024757387
 30
0.0
 42
-0.4142135623730284
  0
VERTEX
  5
78E
  8
0
 62
    32
 10
53.1475318685149034
 20
33.2772457024755113
 30
0.0
  0
VERTEX
  5
78F
  8
0
 62
    32
 10
53.1475318685146831
 20
30.7772457024755113
 30
0.0
  0
VERTEX
  5
790
  8
0
 62
    32
 10
52.9215647602153823
 20
30.7772457024755113
 30
0.0
  0
VERTEX
  5
791
  8
0
 62
    32
 10
52.6475318685146831
 20
30.7772457024757387
 30
0.0
 42
0.4142135623732283
  0
VERTEX
  5
792
  8
0
 62
    32
 10
52.1475318685149034
 20
30.2772457024757387
 30
0.0
 42
0.4142135623732283
  0
VERTEX
  5
793
  8
0
 62
    32
 10
52.6475318685146831
 20
29.7772457024757387
 30
0.0
  0
VERTEX
  5
794
  8
0
 62
    32
 10
53.1475318685146831
 20
29.7772457024755113
 30
0.0
  0
VERTEX
  5
795
  8
0
 62
    32
 10
53.1475318685149034
 20
24.2772457024755113
 30
0.0
 42
0.4142135623730951
  0
VERTEX
  5
796
  8
0
 62
    32
 10
53.6475318685146689
 20
23.7772457024757387
 30
0.0
  0
VERTEX
  5
797
  8
0
 62
    32
 10
54.3475318685152402
 20
23.7772457024757387
 30
0.0
 42
0.4142135623731903
  0
VERTEX
  5
798
  8
0
 62
    32
 10
54.8475318685151692
 20
24.2772457024755113
 30
0.0
  0
VERTEX
  5
799
  8
0
 62
    32
 10
54.8475318685153965
 20
50.7772457024755113
 30
0.0
  0
VERTEX
  5
79A
  8
0
 62
    32
 10
57.8475318685153965
 20
50.7772457024755113
 30
0.0
  0
SEQEND
  5
79B
  8
0
 62
    32
  0
POLYLINE
  5
621
  8
0
 62
    32
 66
     1
 10
0.0
 20
0.0
 30
0.0
 70
     1
  0
VERTEX
  5
79C
  8
0
 62
    32
 10
15.2753176923828509
 20
31.2389745661483893
 30
0.0
  0
VERTEX
  5
79D
  8
0
 62
    32
 10
13.9716032605605491
 20
31.2389745661483893
 30
0.0
  0
VERTEX
  5
79E
  8
0
 62
    32
 10
13.9716032605605491
 20
19.1522457024769892
 30
0.0
  0
VERTEX
  5
79F
  8
0
 62
    32
 10
15.2753176923828509
 20
19.1522457024769892
 30
0.0
  0
SEQEND
  5
7A0
  8
0
 62
    32
  0
POLYLINE
  5
622
  8
0
 62
    32
 66
     1
 10
0.0
 20
0.0
 30
0.0
 70
     1
  0
VERTEX
  5
7A1
  8
0
 62
    32
 10
15.9633896436529703
 20
33.8448859358603613
 30
0.0
  0
VERTEX
  5
7A2
  8
0
 62
    32
 10
13.2835313092904492
 20
33.8448859358603613
 30
0.0
  0
VERTEX
  5
7A3
  8
0
 62
    32
 10
13.2835313092904492
 20
31.2389745661483893
 30
0.0
  0
VERTEX
  5
7A4
  8
0
 62
    32
 10
15.9633896436529508
 20
31.2389745661483893
 30
0.0
  0
SEQEND
  5
7A5
  8
0
 62
    32
  0
POLYLINE
  5
623
  8
0
 62
    32
 66
     1
 10
0.0
 20
0.0
 30
0.0
 70
     1
  0
VERTEX
  5
7A6
  8
0
 62
    32
 10
51.723460476470251
 20
31.2389745661483893
 30
0.0
  0
VERTEX
  5
7A7
  8
0
 62
    32
 10
50.4197460446479511
 20
31.2389745661483893
 30
0.0
  0
VERTEX
  5
7A8
  8
0
 62
    32
 10
50.4197460446479511
 20
19.1522457024769892
 30
0.0
  0
VERTEX
  5
7A9
  8
0
 62
    32
 10
51.723460476470251
 20
19.1522457024769892
 30
0.0
  0
SEQEND
  5
7AA
  8
0
 62
    32
  0
POLYLINE
  5
624
  8
0
 62
    32
 66
     1
 10
0.0
 20
0.0
 30
0.0
 70
     1
  0
VERTEX
  5
7AB
  8
0
 62
    32
 10
52.4115324277403616
 20
33.8448859358603613
 30
0.0
  0
VERTEX
  5
7AC
  8
0
 62
    32
 10
49.7316740933778405
 20
33.8448859358603613
 30
0.0
  0
VERTEX
  5
7AD
  8
0
 62
    32
 10
49.7316740933778405
 20
31.2389745661483893
 30
0.0
  0
VERTEX
  5
7AE
  8
0
 62
    32
 10
52.4115324277403616
 20
31.2389745661483893
 30
0.0
  0
SEQEND
  5
7AF
  8
0
 62
    32
  0
ENDSEC
  0
EOF
