  0
SECTION
  2
HEADER
  9
$ACADVER
  1
AC1009
  9
$INSBASE
 10
0.0
 20
0.0
 30
0.0
  9
$EXTMIN
 10
16.3307495214349103
 20
20.1984927242856394
 30
0.0
  9
$EXTMAX
 10
101.5807495214814935
 20
35.6845218974722798
 30
0.0
  9
$LIMMIN
 10
0.0
 20
0.0
  9
$LIMMAX
 10
420.0
 20
297.0
  9
$ORTHOMODE
 70
     1
  9
$REGENMODE
 70
     1
  9
$FILLMODE
 70
     1
  9
$QTEXTMODE
 70
     0
  9
$MIRRTEXT
 70
     0
  9
$DRAGMODE
 70
     2
  9
$LTSCALE
 40
1.0
  9
$OSMODE
 70
    37
  9
$ATTMODE
 70
     1
  9
$TEXTSIZE
 40
2.5
  9
$TRACEWID
 40
1.0
  9
$TEXTSTYLE
  7
STANDARD
  9
$CLAYER
  8
0
  9
$CELTYPE
  6
BYLAYER
  9
$CECOLOR
 62
    32
  9
$DIMSCALE
 40
1.0
  9
$DIMASZ
 40
2.5
  9
$DIMEXO
 40
0.625
  9
$DIMDLI
 40
3.75
  9
$DIMRND
 40
0.0
  9
$DIMDLE
 40
0.0
  9
$DIMEXE
 40
1.25
  9
$DIMTP
 40
0.0
  9
$DIMTM
 40
0.0
  9
$DIMTXT
 40
2.5
  9
$DIMCEN
 40
2.5
  9
$DIMTSZ
 40
0.0
  9
$DIMTOL
 70
     0
  9
$DIMLIM
 70
     0
  9
$DIMTIH
 70
     0
  9
$DIMTOH
 70
     0
  9
$DIMSE1
 70
     0
  9
$DIMSE2
 70
     0
  9
$DIMTAD
 70
     1
  9
$DIMZIN
 70
     8
  9
$DIMBLK
  1

  9
$DIMASO
 70
     1
  9
$DIMSHO
 70
     1
  9
$DIMPOST
  1

  9
$DIMAPOST
  1

  9
$DIMALT
 70
     0
  9
$DIMALTD
 70
     3
  9
$DIMALTF
 40
0.03937007874016
  9
$DIMLFAC
 40
1.0
  9
$DIMTOFL
 70
     1
  9
$DIMTVP
 40
0.0
  9
$DIMTIX
 70
     0
  9
$DIMSOXD
 70
     0
  9
$DIMSAH
 70
     0
  9
$DIMBLK1
  1

  9
$DIMBLK2
  1

  9
$DIMSTYLE
  2
ISO-25
  9
$DIMCLRD
 70
     0
  9
$DIMCLRE
 70
     0
  9
$DIMCLRT
 70
     0
  9
$DIMTFAC
 40
1.0
  9
$DIMGAP
 40
0.625
  9
$LUNITS
 70
     2
  9
$LUPREC
 70
     4
  9
$SKETCHINC
 40
1.0
  9
$FILLETRAD
 40
0.0
  9
$AUNITS
 70
     0
  9
$AUPREC
 70
     0
  9
$MENU
  1
.
  9
$ELEVATION
 40
0.0
  9
$PELEVATION
 40
0.0
  9
$THICKNESS
 40
0.0
  9
$LIMCHECK
 70
     0
  9
$BLIPMODE
 70
     0
  9
$CHAMFERA
 40
0.0
  9
$CHAMFERB
 40
0.0
  9
$SKPOLY
 70
     0
  9
$TDCREATE
 40
2458875.6722222222015262
  9
$TDUPDATE
 40
2458875.680127315223217
  9
$TDINDWG
 40
0.0079166667
  9
$TDUSRTIMER
 40
0.0079166667
  9
$USRTIMER
 70
     1
  9
$ANGBASE
 50
0.0
  9
$ANGDIR
 70
     0
  9
$PDMODE
 70
     0
  9
$PDSIZE
 40
0.0
  9
$PLINEWID
 40
0.0
  9
$COORDS
 70
     1
  9
$SPLFRAME
 70
     0
  9
$SPLINETYPE
 70
     6
  9
$SPLINESEGS
 70
     8
  9
$ATTDIA
 70
     1
  9
$ATTREQ
 70
     1
  9
$HANDLING
 70
     1
  9
$HANDSEED
  5
936
  9
$SURFTAB1
 70
     6
  9
$SURFTAB2
 70
     6
  9
$SURFTYPE
 70
     6
  9
$SURFU
 70
     6
  9
$SURFV
 70
     6
  9
$UCSNAME
  2

  9
$UCSORG
 10
0.0
 20
0.0
 30
0.0
  9
$UCSXDIR
 10
1.0
 20
0.0
 30
0.0
  9
$UCSYDIR
 10
0.0
 20
1.0
 30
0.0
  9
$PUCSNAME
  2

  9
$PUCSORG
 10
0.0
 20
0.0
 30
0.0
  9
$PUCSXDIR
 10
1.0
 20
0.0
 30
0.0
  9
$PUCSYDIR
 10
0.0
 20
1.0
 30
0.0
  9
$USERI1
 70
     0
  9
$USERI2
 70
     0
  9
$USERI3
 70
     0
  9
$USERI4
 70
     0
  9
$USERI5
 70
     0
  9
$USERR1
 40
0.0
  9
$USERR2
 40
0.0
  9
$USERR3
 40
0.0
  9
$USERR4
 40
0.0
  9
$USERR5
 40
0.0
  9
$WORLDVIEW
 70
     1
  9
$SHADEDGE
 70
     3
  9
$SHADEDIF
 70
    70
  9
$TILEMODE
 70
     1
  9
$MAXACTVP
 70
    64
  9
$PLIMCHECK
 70
     0
  9
$PEXTMIN
 10
0.0
 20
0.0
 30
0.0
  9
$PEXTMAX
 10
0.0
 20
0.0
 30
0.0
  9
$PLIMMIN
 10
0.0
 20
0.0
  9
$PLIMMAX
 10
12.0
 20
9.0
  9
$UNITMODE
 70
     0
  9
$VISRETAIN
 70
     1
  9
$PLINEGEN
 70
     0
  9
$PSLTSCALE
 70
     1
  0
ENDSEC
  0
SECTION
  2
TABLES
  0
TABLE
  2
VPORT
 70
     1
  0
VPORT
  2
*ACTIVE
 70
     0
 10
0.0
 20
0.0
 11
1.0
 21
1.0
 12
59.1595162260029923
 22
25.3255669784640816
 13
0.0
 23
0.0
 14
10.0
 24
10.0
 15
10.0
 25
10.0
 16
0.0
 26
0.0
 36
1.0
 17
0.0
 27
0.0
 37
0.0
 40
80.1631878627945866
 41
2.318681318681318
 42
50.0
 43
0.0
 44
0.0
 50
0.0
 51
0.0
 71
     0
 72
  1000
 73
     1
 74
     3
 75
     0
 76
     1
 77
     0
 78
     0
  0
ENDTAB
  0
TABLE
  2
LTYPE
 70
     3
  0
LTYPE
  2
CONTINUOUS
 70
     0
  3
Solid line
 72
    65
 73
     0
 40
0.0
  0
ENDTAB
  0
TABLE
  2
LAYER
 70
     6
  0
LAYER
  2
0
 70
     0
 62
     7
  6
CONTINUOUS
  0
ENDTAB
  0
TABLE
  2
STYLE
 70
     2
  0
STYLE
  2
STANDARD
 70
     0
 40
0.0
 41
1.0
 50
0.0
 71
     0
 42
2.5
  3
txt
  4

  0
ENDTAB
  0
TABLE
  2
VIEW
 70
     0
  0
ENDTAB
  0
TABLE
  2
UCS
 70
     0
  0
ENDTAB
  0
TABLE
  2
APPID
 70
    18
  0
APPID
  2
ACAD
 70
     0
  0
APPID
  2
ACAD_PSEXT
 70
     0
  0
APPID
  2
ACADANNOPO
 70
     0
  0
APPID
  2
ACADANNOTATIVE
 70
     0
  0
APPID
  2
ACAD_DSTYLE_DIMJAG
 70
     0
  0
APPID
  2
ACAD_DSTYLE_DIMTALN
 70
     0
  0
APPID
  2
ACAD_MLEADERVER
 70
     0
  0
APPID
  2
ACAD_NAV_VCDISPLAY
 70
     0
  0
APPID
  2
ACAECLAYERSTANDARD
 70
     0
  0
APPID
  2
ACAUTHENVIRON
 70
     0
  0
APPID
  2
ACDBDYNAMICBLOCKTRUENAME
 70
     0
  0
APPID
  2
ACDBDYNAMICBLOCKGUID
 70
     0
  0
APPID
  2
ACCMTRANSPARENCY
 70
     0
  0
APPID
  2
ACDBBLOCKREPETAG
 70
     0
  0
APPID
  2
GRADIENTCOLOR1ACI
 70
     0
  0
APPID
  2
GRADIENTCOLOR2ACI
 70
     0
  0
APPID
  2
ACDBBLOCKREPBTAG
 70
     0
  0
APPID
  2
ACAD_EXEMPT_FROM_CAD_STANDARDS
 70
     0
  0
ENDTAB
  0
TABLE
  2
DIMSTYLE
 70
     4
  0
DIMSTYLE
  2
STANDARD
 70
     0
  3

  4

  5

  6

  7

 40
1.0
 41
0.18
 42
0.0625
 43
0.38
 44
0.18
 45
0.0
 46
0.0
 47
0.0
 48
0.0
140
0.18
141
0.09
142
0.0
143
25.3999999999999986
144
1.0
145
0.0
146
1.0
147
0.09
 71
     0
 72
     0
 73
     1
 74
     1
 75
     0
 76
     0
 77
     0
 78
     0
170
     0
171
     2
172
     0
173
     0
174
     0
175
     0
176
     0
177
     0
178
     0
  0
DIMSTYLE
  2
ISO-25
 70
     0
  3

  4

  5

  6

  7

 40
1.0
 41
2.5
 42
0.625
 43
3.75
 44
1.25
 45
0.0
 46
0.0
 47
0.0
 48
0.0
140
2.5
141
2.5
142
0.0
143
0.03937007874016
144
1.0
145
0.0
146
1.0
147
0.625
 71
     0
 72
     0
 73
     0
 74
     0
 75
     0
 76
     0
 77
     1
 78
     8
170
     0
171
     3
172
     1
173
     0
174
     0
175
     0
176
     0
177
     0
178
     0
  0
ENDTAB
  0
ENDSEC
  0
SECTION
  2
BLOCKS
  0
BLOCK
  8
0
  2
$MODEL_SPACE
 70
     0
 10
0.0
 20
0.0
 30
0.0
  3
$MODEL_SPACE
  1

  0
ENDBLK
  5
21
  8
0
  0
BLOCK
 67
     1
  8
0
  2
$PAPER_SPACE
 70
     0
 10
0.0
 20
0.0
 30
0.0
  3
$PAPER_SPACE
  1

  0
ENDBLK
  5
D5
 67
     1
  8
0
  0
ENDSEC
  0
SECTION
  2
ENTITIES
  0
POLYLINE
  5
7FC
  8
0
 62
    32
 66
     1
 10
0.0
 20
0.0
 30
0.0
 70
     1
  0
VERTEX
  5
8A9
  8
0
 62
    32
 10
22.5807495214232716
 20
30.9484927242895083
 30
0.0
  0
VERTEX
  5
8AA
  8
0
 62
    32
 10
16.330749521434921
 20
30.9484927242895083
 30
0.0
  0
VERTEX
  5
8AB
  8
0
 62
    32
 10
16.330749521434921
 20
27.4484927242895083
 30
0.0
  0
VERTEX
  5
8AC
  8
0
 62
    32
 10
22.5807495214232894
 20
27.4484927242895083
 30
0.0
  0
SEQEND
  5
8AD
  8
0
 62
    32
  0
POLYLINE
  5
7FD
  8
0
 62
    32
 66
     1
 10
0.0
 20
0.0
 30
0.0
 70
     1
  0
VERTEX
  5
8AE
  8
0
 62
    32
 10
23.5307495214349309
 20
32.5484927242895097
 30
0.0
  0
VERTEX
  5
8AF
  8
0
 62
    32
 10
22.5807495214232894
 20
32.5484927242895097
 30
0.0
  0
VERTEX
  5
8B0
  8
0
 62
    32
 10
22.5807495214232894
 20
25.848492724289521
 30
0.0
  0
VERTEX
  5
8B1
  8
0
 62
    32
 10
23.5307495214349309
 20
25.848492724289521
 30
0.0
  0
SEQEND
  5
8B2
  8
0
 62
    32
  0
POLYLINE
  5
7FE
  8
0
 62
    32
 66
     1
 10
0.0
 20
0.0
 30
0.0
 70
     1
  0
VERTEX
  5
8B3
  8
0
 62
    32
 10
25.4581082571157893
 20
23.1984927242858703
 30
0.0
  0
VERTEX
  5
8B4
  8
0
 62
    32
 10
25.2206734778711592
 20
23.2557876259733582
 30
0.0
 42
-0.1583844403245718
  0
VERTEX
  5
8B5
  8
0
 62
    32
 10
25.0443379021835391
 20
23.1984927242858703
 30
0.0
  0
VERTEX
  5
8B6
  8
0
 62
    32
 10
24.2807495214466407
 20
23.1984927242858703
 30
0.0
 42
-0.4142135623730953
  0
VERTEX
  5
8B7
  8
0
 62
    32
 10
23.9807495214465689
 20
23.4984927242859385
 30
0.0
  0
VERTEX
  5
8B8
  8
0
 62
    32
 10
23.9807495214465689
 20
23.6484927242857985
 30
0.0
 42
0.4142135623730935
  0
VERTEX
  5
8B9
  8
0
 62
    32
 10
23.6807495214465007
 20
23.9484927242858703
 30
0.0
  0
VERTEX
  5
8BA
  8
0
 62
    32
 10
21.8587047806147403
 20
23.9484927242858703
 30
0.0
 42
-0.1912322670177823
  0
VERTEX
  5
8BB
  8
0
 62
    32
 10
20.1528275019440493
 20
20.1984927242856394
 30
0.0
  0
VERTEX
  5
8BC
  8
0
 62
    32
 10
25.4581082571157999
 20
20.1984927242856394
 30
0.0
  0
SEQEND
  5
8BD
  8
0
 62
    32
  0
POLYLINE
  5
7FF
  8
0
 62
    32
 66
     1
 10
0.0
 20
0.0
 30
0.0
 70
     1
  0
VERTEX
  5
8BE
  8
0
 62
    32
 10
82.9171611407096094
 20
23.1984927242858703
 30
0.0
  0
VERTEX
  5
8BF
  8
0
 62
    32
 10
25.4581082571157893
 20
23.1984927242858703
 30
0.0
  0
VERTEX
  5
8C0
  8
0
 62
    32
 10
25.4581082571157893
 20
20.1984927242856394
 30
0.0
  0
VERTEX
  5
8C1
  8
0
 62
    32
 10
82.9171611407095952
 20
20.1984927242856394
 30
0.0
  0
SEQEND
  5
8C2
  8
0
 62
    32
  0
POLYLINE
  5
800
  8
0
 62
    32
 66
     1
 10
0.0
 20
0.0
 30
0.0
 70
     1
  0
VERTEX
  5
8C3
  8
0
 62
    32
 10
87.0807495214232858
 20
34.898492724290243
 30
0.0
  0
VERTEX
  5
8C4
  8
0
 62
    32
 10
86.9658125743565051
 20
35.203826080781468
 30
0.0
 42
0.1968868533103149
  0
VERTEX
  5
8C5
  8
0
 62
    32
 10
86.0589780844837975
 20
35.4183350694080019
 30
0.0
  0
VERTEX
  5
8C6
  8
0
 62
    32
 10
82.5141401708053763
 20
34.9415471995059832
 30
0.0
 42
-0.0998855399681599
  0
VERTEX
  5
8C7
  8
0
 62
    32
 10
82.118545759102787
 20
34.9407288766210513
 30
0.0
  0
VERTEX
  5
8C8
  8
0
 62
    32
 10
78.526524976353997
 20
35.6578125611006413
 30
0.0
 42
0.0988408816730287
  0
VERTEX
  5
8C9
  8
0
 62
    32
 10
78.1349865916866122
 20
35.6578126795410384
 30
0.0
  0
VERTEX
  5
8CA
  8
0
 62
    32
 10
74.5265186973074947
 20
34.9374478890283768
 30
0.0
 42
-0.0988408816726225
  0
VERTEX
  5
8CB
  8
0
 62
    32
 10
74.1349803126408062
 20
34.9374480074684612
 30
0.0
  0
VERTEX
  5
8CC
  8
0
 62
    32
 10
70.5265249763533291
 20
35.6578125611009611
 30
0.0
 42
0.0988408816720958
  0
VERTEX
  5
8CD
  8
0
 62
    32
 10
70.1349865916886728
 20
35.6578126795414434
 30
0.0
  0
VERTEX
  5
8CE
  8
0
 62
    32
 10
66.5267973749142243
 20
34.9375035219368613
 30
0.0
 42
-0.0989929240385508
  0
VERTEX
  5
8CF
  8
0
 62
    32
 10
66.1346684034573258
 20
34.9376217255836607
 30
0.0
  0
VERTEX
  5
8D0
  8
0
 62
    32
 10
62.5270409676901693
 20
35.6600806568527986
 30
0.0
 42
0.0991076847150886
  0
VERTEX
  5
8D1
  8
0
 62
    32
 10
62.1344662297919825
 20
35.6601097660043678
 30
0.0
  0
VERTEX
  5
8D2
  8
0
 62
    32
 10
58.5252247101170084
 20
34.9378842946906829
 30
0.0
 42
-0.0989556389291064
  0
VERTEX
  5
8D3
  8
0
 62
    32
 10
58.1332405590168193
 20
34.9377953186365815
 30
0.0
  0
VERTEX
  5
8D4
  8
0
 62
    32
 10
54.5265249764139668
 20
35.6578125611002932
 30
0.0
 42
0.0988408816726655
  0
VERTEX
  5
8D5
  8
0
 62
    32
 10
54.1349865917480031
 20
35.6578126795416708
 30
0.0
  0
VERTEX
  5
8D6
  8
0
 62
    32
 10
50.5267973749355335
 20
34.9375035219337917
 30
0.0
 42
-0.0989929240382616
  0
VERTEX
  5
8D7
  8
0
 62
    32
 10
50.1346684034715224
 20
34.9376217255808115
 30
0.0
  0
VERTEX
  5
8D8
  8
0
 62
    32
 10
46.5270409676901693
 20
35.6600806568527986
 30
0.0
 42
0.0991076847150849
  0
VERTEX
  5
8D9
  8
0
 62
    32
 10
46.1344662297919896
 20
35.6601097660043678
 30
0.0
  0
VERTEX
  5
8DA
  8
0
 62
    32
 10
42.5252247100998702
 20
34.9378842946873505
 30
0.0
 42
-0.09895563892881
  0
VERTEX
  5
8DB
  8
0
 62
    32
 10
42.1332405590563468
 20
34.937795318633043
 30
0.0
  0
VERTEX
  5
8DC
  8
0
 62
    32
 10
38.5265249764128299
 20
35.6578125611005206
 30
0.0
 42
0.0988408816718808
  0
VERTEX
  5
8DD
  8
0
 62
    32
 10
38.1349865917499073
 20
35.6578126795420616
 30
0.0
  0
VERTEX
  5
8DE
  8
0
 62
    32
 10
34.5267973749153327
 20
34.9375035219370673
 30
0.0
 42
-0.098992924038309
  0
VERTEX
  5
8DF
  8
0
 62
    32
 10
34.134668403451137
 20
34.9376217255848971
 30
0.0
  0
VERTEX
  5
8E0
  8
0
 62
    32
 10
30.5282763219372093
 20
35.6598332663736102
 30
0.0
 42
0.0997810379215085
  0
VERTEX
  5
8E1
  8
0
 62
    32
 10
30.1330870917190303
 20
35.6593355767967424
 30
0.0
  0
VERTEX
  5
8E2
  8
0
 62
    32
 10
26.5443682199538387
 20
34.9312569412262732
 30
0.0
 42
-0.1014397997030049
  0
VERTEX
  5
8E3
  8
0
 62
    32
 10
26.1427425939301692
 20
34.9320701973824583
 30
0.0
  0
VERTEX
  5
8E4
  8
0
 62
    32
 10
22.5683063410598912
 20
35.6723352922935391
 30
0.0
 42
0.3752855466332942
  0
VERTEX
  5
8E5
  8
0
 62
    32
 10
21.6672085261417493
 20
35.1281735951482119
 30
0.0
  0
VERTEX
  5
8E6
  8
0
 62
    32
 10
21.5807495214232894
 20
34.8984927242829386
 30
0.0
  0
VERTEX
  5
8E7
  8
0
 62
    32
 10
21.5807495214232894
 20
31.9484927242858703
 30
0.0
 42
1.0
  0
VERTEX
  5
8E8
  8
0
 62
    32
 10
22.5807495214232894
 20
31.9484927242858703
 30
0.0
  0
VERTEX
  5
8E9
  8
0
 62
    32
 10
22.5807495214232894
 20
32.5484927242895097
 30
0.0
  0
VERTEX
  5
8EA
  8
0
 62
    32
 10
22.5807495214232894
 20
32.5984927242901676
 30
0.0
 42
-0.4142135623730959
  0
VERTEX
  5
8EB
  8
0
 62
    32
 10
22.8807495214233612
 20
32.898492724290243
 30
0.0
  0
VERTEX
  5
8EC
  8
0
 62
    32
 10
23.6807495214465007
 20
32.898492724290243
 30
0.0
 42
-0.414213562373096
  0
VERTEX
  5
8ED
  8
0
 62
    32
 10
23.9807495214465689
 20
32.5984927242901676
 30
0.0
  0
VERTEX
  5
8EE
  8
0
 62
    32
 10
23.9807495214465689
 20
25.7984927242888489
 30
0.0
 42
-0.4142135623730962
  0
VERTEX
  5
8EF
  8
0
 62
    32
 10
23.6807495214465007
 20
25.4984927242887807
 30
0.0
  0
VERTEX
  5
8F0
  8
0
 62
    32
 10
22.8807495214233612
 20
25.4984927242887807
 30
0.0
 42
-0.4142135623730962
  0
VERTEX
  5
8F1
  8
0
 62
    32
 10
22.5807495214232894
 20
25.7984927242888489
 30
0.0
  0
VERTEX
  5
8F2
  8
0
 62
    32
 10
22.5807495214232894
 20
26.4484927242858703
 30
0.0
 42
1.0
  0
VERTEX
  5
8F3
  8
0
 62
    32
 10
21.5807495214232894
 20
26.4484927242858703
 30
0.0
  0
VERTEX
  5
8F4
  8
0
 62
    32
 10
21.5807495214232894
 20
24.2484927242859385
 30
0.0
 42
0.4142135623730935
  0
VERTEX
  5
8F5
  8
0
 62
    32
 10
21.8807495214233505
 20
23.9484927242858703
 30
0.0
  0
VERTEX
  5
8F6
  8
0
 62
    32
 10
23.6807495214465007
 20
23.9484927242858703
 30
0.0
 42
-0.4142135623730953
  0
VERTEX
  5
8F7
  8
0
 62
    32
 10
23.9807495214465689
 20
23.6484927242857985
 30
0.0
  0
VERTEX
  5
8F8
  8
0
 62
    32
 10
23.9807495214465689
 20
23.4984927242859385
 30
0.0
 42
0.4142135623730935
  0
VERTEX
  5
8F9
  8
0
 62
    32
 10
24.2807495214466407
 20
23.1984927242858703
 30
0.0
  0
VERTEX
  5
8FA
  8
0
 62
    32
 10
25.0443379021835284
 20
23.1984927242858703
 30
0.0
 42
0.3249196962325435
  0
VERTEX
  5
8FB
  8
0
 62
    32
 10
25.3296548570716986
 20
23.4057876259728204
 30
0.0
  0
VERTEX
  5
8FC
  8
0
 62
    32
 10
26.3556310074373492
 20
26.5634175334733484
 30
0.0
 42
0.3541185725287733
  0
VERTEX
  5
8FD
  8
0
 62
    32
 10
26.1301027492880884
 20
27.1509387325657592
 30
0.0
  0
VERTEX
  5
8FE
  8
0
 62
    32
 10
25.2807495214349096
 20
27.6413130473131297
 30
0.0
  0
VERTEX
  5
8FF
  8
0
 62
    32
 10
25.2807495214349309
 20
33.0984927242828917
 30
0.0
 42
-0.4142135623730815
  0
VERTEX
  5
900
  8
0
 62
    32
 10
25.5807495214349814
 20
33.3984927242829599
 30
0.0
  0
VERTEX
  5
901
  8
0
 62
    32
 10
82.380749521458128
 20
33.3984927242829599
 30
0.0
 42
-0.4142135623730926
  0
VERTEX
  5
902
  8
0
 62
    32
 10
82.6807495214582246
 20
33.0984927242828917
 30
0.0
  0
VERTEX
  5
903
  8
0
 62
    32
 10
82.6807495214582246
 20
27.8145181280683182
 30
0.0
 42
-0.2679491924289438
  0
VERTEX
  5
904
  8
0
 62
    32
 10
82.5307495214603364
 20
27.5547105069342493
 30
0.0
  0
VERTEX
  5
905
  8
0
 62
    32
 10
81.8313962936061188
 20
27.1509387325663809
 30
0.0
 42
0.3541185725286255
  0
VERTEX
  5
906
  8
0
 62
    32
 10
81.6058680354571493
 20
26.5634175334752314
 30
0.0
  0
VERTEX
  5
907
  8
0
 62
    32
 10
82.631844185821393
 20
23.4057876259729802
 30
0.0
 42
0.3249196962326936
  0
VERTEX
  5
908
  8
0
 62
    32
 10
82.9171611407096094
 20
23.1984927242858703
 30
0.0
  0
VERTEX
  5
909
  8
0
 62
    32
 10
83.6807495214465149
 20
23.1984927242858703
 30
0.0
 42
0.4142135623730918
  0
VERTEX
  5
90A
  8
0
 62
    32
 10
83.9807495214465689
 20
23.4984927242859385
 30
0.0
  0
VERTEX
  5
90B
  8
0
 62
    32
 10
83.9807495214465689
 20
33.0984927242893932
 30
0.0
 42
-0.4142135623737862
  0
VERTEX
  5
90C
  8
0
 62
    32
 10
84.2807495214474471
 20
33.3984927242895466
 30
0.0
  0
VERTEX
  5
90D
  8
0
 62
    32
 10
86.7807495214224076
 20
33.398492724283642
 30
0.0
 42
0.414213562373788
  0
VERTEX
  5
90E
  8
0
 62
    32
 10
87.0807495214232858
 20
33.6984927242838097
 30
0.0
  0
SEQEND
  5
90F
  8
0
 62
    32
  0
POLYLINE
  5
801
  8
0
 62
    32
 66
     1
 10
0.0
 20
0.0
 30
0.0
 70
     1
  0
VERTEX
  5
910
  8
0
 62
    32
 10
101.5807495214814935
 20
34.1984927242860621
 30
0.0
 42
0.8373990671597344
  0
VERTEX
  5
911
  8
0
 62
    32
 10
99.6424307910793061
 20
34.5442642676246905
 30
0.0
 42
-0.3843711343830074
  0
VERTEX
  5
912
  8
0
 62
    32
 10
99.0622793658530583
 20
34.2095418013462407
 30
0.0
  0
VERTEX
  5
913
  8
0
 62
    32
 10
94.5398140565652767
 20
35.1763945701617828
 30
0.0
 42
0.1057001567184304
  0
VERTEX
  5
914
  8
0
 62
    32
 10
94.1216849863992735
 20
35.1763945701619178
 30
0.0
  0
VERTEX
  5
915
  8
0
 62
    32
 10
89.5992196770953342
 20
34.209541801346127
 30
0.0
 42
-0.3843711343820293
  0
VERTEX
  5
916
  8
0
 62
    32
 10
89.0190682518694842
 20
34.5442642676235607
 30
0.0
 42
0.8373990671592533
  0
VERTEX
  5
917
  8
0
 62
    32
 10
87.0807495214814935
 20
34.1984927242863321
 30
0.0
  0
VERTEX
  5
918
  8
0
 62
    32
 10
87.0807495214232858
 20
33.6984927242835965
 30
0.0
  0
VERTEX
  5
919
  8
0
 62
    32
 10
87.0807495214814935
 20
31.4484927242729384
 30
0.0
 42
1.0
  0
VERTEX
  5
91A
  8
0
 62
    32
 10
88.0807495214814935
 20
31.4484927242794008
 30
0.0
  0
VERTEX
  5
91B
  8
0
 62
    32
 10
88.0807495214814935
 20
31.8984927242856884
 30
0.0
 42
-0.4142135623730951
  0
VERTEX
  5
91C
  8
0
 62
    32
 10
88.3807495214816754
 20
32.1984927242858703
 30
0.0
  0
VERTEX
  5
91D
  8
0
 62
    32
 10
89.0807495214696843
 20
32.1984927242858703
 30
0.0
 42
-0.4142135623731146
  0
VERTEX
  5
91E
  8
0
 62
    32
 10
89.380749521469852
 20
31.8984927242856813
 30
0.0
  0
VERTEX
  5
91F
  8
0
 62
    32
 10
89.380749521469383
 20
24.9984927242860309
 30
0.0
 42
-0.4142135623730778
  0
VERTEX
  5
920
  8
0
 62
    32
 10
89.0807495214692153
 20
24.6984927242858703
 30
0.0
  0
VERTEX
  5
921
  8
0
 62
    32
 10
88.3807495214816754
 20
24.6984927242858703
 30
0.0
 42
-0.4142135623730943
  0
VERTEX
  5
922
  8
0
 62
    32
 10
88.0807495214814935
 20
24.9984927242860486
 30
0.0
  0
VERTEX
  5
923
  8
0
 62
    32
 10
88.0807495214814935
 20
25.4484927242858703
 30
0.0
 42
1.0
  0
VERTEX
  5
924
  8
0
 62
    32
 10
87.0807495214814935
 20
25.4484927242857388
 30
0.0
  0
VERTEX
  5
925
  8
0
 62
    32
 10
87.080749521481934
 20
23.6984927242867016
 30
0.0
 42
0.4142135623730189
  0
VERTEX
  5
926
  8
0
 62
    32
 10
87.3807495214821301
 20
23.3984927242866014
 30
0.0
  0
VERTEX
  5
927
  8
0
 62
    32
 10
91.7807495214813116
 20
23.3984927242866014
 30
0.0
 42
0.4142135623730951
  0
VERTEX
  5
928
  8
0
 62
    32
 10
92.0807495214814935
 20
23.6984927242867798
 30
0.0
  0
VERTEX
  5
929
  8
0
 62
    32
 10
92.0807495214814935
 20
26.3902351547897105
 30
0.0
 42
-0.6546536707083385
  0
VERTEX
  5
92A
  8
0
 62
    32
 10
92.080749521481934
 20
27.3067502937813096
 30
0.0
  0
VERTEX
  5
92B
  8
0
 62
    32
 10
92.0807495214814935
 20
28.2902351547893502
 30
0.0
 42
-0.6546536707083385
  0
VERTEX
  5
92C
  8
0
 62
    32
 10
92.080749521481934
 20
29.2067502937809387
 30
0.0
  0
VERTEX
  5
92D
  8
0
 62
    32
 10
92.0807495214814935
 20
31.8984927242856386
 30
0.0
 42
-0.4142135623731445
  0
VERTEX
  5
92E
  8
0
 62
    32
 10
92.3807495214816754
 20
32.1984927242858703
 30
0.0
  0
VERTEX
  5
92F
  8
0
 62
    32
 10
99.7807495214817664
 20
32.1984927242858703
 30
0.0
 42
-0.4142135623731115
  0
VERTEX
  5
930
  8
0
 62
    32
 10
100.0807495214819056
 20
31.8984927242856706
 30
0.0
  0
VERTEX
  5
931
  8
0
 62
    32
 10
100.0807495214814935
 20
23.6984927242867904
 30
0.0
 42
0.4142135623731116
  0
VERTEX
  5
932
  8
0
 62
    32
 10
100.3807495214816043
 20
23.3984927242866014
 30
0.0
  0
VERTEX
  5
933
  8
0
 62
    32
 10
101.2807495214812974
 20
23.3984927242866014
 30
0.0
 42
0.4142135623730951
  0
VERTEX
  5
934
  8
0
 62
    32
 10
101.5807495214814935
 20
23.6984927242867798
 30
0.0
  0
SEQEND
  5
935
  8
0
 62
    32
  0
ENDSEC
  0
EOF
